<?xml version="1.0" standalone="no"?>
<!DOCTYPE svg PUBLIC "-//W3C//DTD SVG 1.1//EN" "http://www.w3.org/Graphics/SVG/1.1/DTD/svg11.dtd" >
<svg xmlns="http://www.w3.org/2000/svg" xmlns:xlink="http://www.w3.org/1999/xlink" version="1.1">
<metadata>
Created by FontForge 20201107 at Wed Jan 24 08:21:36 2024
 By 
(c) 2000, 2001 Adobe Systems Incorporated. All Rights Reserved.
</metadata>
<defs>
<font id="ACaslonPro-BoldItalic" horiz-adv-x="1024" >
  <font-face 
    font-family="Adobe Caslon Pro Bold"
    font-weight="700"
    font-style="italic"
    font-stretch="normal"
    units-per-em="2048"
    panose-1="2 5 7 2 6 5 11 9 10 3"
    ascent="1505"
    descent="-543"
    x-height="874"
    cap-height="1378"
    bbox="-483 -1434 3156.38 2052"
    underline-thickness="102"
    underline-position="-204"
    slope="-22"
    unicode-range="U+0020-FB06"
  />
<missing-glyph 
d="M0 0v1434h1024v-1434h-1024zM512 809l348 522h-696zM573 717l349 -522v1044zM164 102h696l-348 523zM102 1239v-1044l349 522z" />
    <glyph glyph-name="T_h" unicode="Th" horiz-adv-x="2070" 
d="M1765 1290l-303 -708l19 -15q82 131 178 219t196 88q54 0 92 -19.5t57 -53t26.5 -68.5t7.5 -76q0 -105 -36.5 -226t-94.5 -222q-160 -275 -365 -275q-56 0 -92.5 34.5t-36.5 97.5q0 41 24 72.5t66 31.5q38 0 59 -23t23 -53q3 -26 5.5 -38.5t10.5 -24t23 -11.5
q42 0 105 220q4 14 6 20q67 233 67 373q0 88 -61 88q-48 0 -121.5 -74.5t-138.5 -161.5q-74 -102 -105 -184l-116 -287q-7 -14 -35 -14h-164q-13 0 -19.5 7t-1.5 18l426 1144q15 40 0 78q-8 19 -37.5 30.5t-80 15t-89.5 4t-103 -1t-83 -1.5l-315 -1044q-29 -98 -9 -137
t97 -39h80q18 0 14 -21l-8 -43q-3 -16 -27 -16q-5 0 -46.5 1.5t-133 3t-219.5 1.5q-65 0 -129 -1.5t-104 -3t-46 -1.5q-11 0 -14.5 4.5t-1.5 15.5l6 43q3 17 23 17h55q79 0 119 44.5t75 162.5l308 1013q-177 0 -247 -9t-108 -42q-108 -96 -237 -229q-8 -8 -19 -4l-41 22
q-10 3 -2 19q17 31 84.5 184.5t71.5 165.5q7 20 20 20q8 0 46 -20q59 -29 383 -29h432q447 0 549 33q4 1 21.5 8.5t29.5 7.5q9 0 14.5 -9t5.5 -21q0 -13 -5.5 -29.5t-16 -40.5t-13.5 -31z" />
    <glyph glyph-name="T_h.caron" unicode="&#x164;h" horiz-adv-x="2070" 
d="M1765 1290l-303 -708l19 -15q82 131 178 219t196 88q54 0 92 -19.5t57 -53t26.5 -68.5t7.5 -76q0 -105 -36.5 -226t-94.5 -222q-160 -275 -365 -275q-56 0 -92.5 34.5t-36.5 97.5q0 41 24 72.5t66 31.5q38 0 59 -23t23 -53q3 -26 5.5 -38.5t10.5 -24t23 -11.5
q42 0 105 220q4 14 6 20q67 233 67 373q0 88 -61 88q-48 0 -121.5 -74.5t-138.5 -161.5q-74 -102 -105 -184l-116 -287q-7 -14 -35 -14h-164q-13 0 -19.5 7t-1.5 18l426 1144q15 40 0 78q-8 19 -37.5 30.5t-80 15t-89.5 4t-103 -1t-83 -1.5l-315 -1044q-29 -98 -9 -137
t97 -39h80q18 0 14 -21l-8 -43q-3 -16 -27 -16q-5 0 -46.5 1.5t-133 3t-219.5 1.5q-65 0 -129 -1.5t-104 -3t-46 -1.5q-11 0 -14.5 4.5t-1.5 15.5l6 43q3 17 23 17h55q79 0 119 44.5t75 162.5l308 1013q-177 0 -247 -9t-108 -42q-108 -96 -237 -229q-8 -8 -19 -4l-41 22
q-10 3 -2 19q17 31 84.5 184.5t71.5 165.5q7 20 20 20q8 0 46 -20q59 -29 383 -29h432q447 0 549 33q4 1 21.5 8.5t29.5 7.5q9 0 14.5 -9t5.5 -21q0 -13 -5.5 -29.5t-16 -40.5t-13.5 -31zM1022 1718l258 117q10 5 18 -6l15 -25q2 -5 -4 -14l-301 -301q-7 -9 -18 -8.5
t-17 12.5l-162 303q-6 9 4 16l21 19q8 6 22 -4z" />
    <glyph glyph-name="T_h.caronswash" unicode="&#xe056;h" horiz-adv-x="2131" 
d="M1524 582l18 -15q82 131 178.5 219t196.5 88q182 0 182 -217q0 -105 -36.5 -226t-94.5 -222q-160 -275 -364 -275q-56 0 -92.5 34.5t-36.5 97.5q0 41 24 72.5t66 31.5q38 0 59 -23t23 -53q3 -26 5.5 -38.5t10.5 -24t23 -11.5t29 17t27 51.5t23 66t24 80.5q5 17 7 25
q68 237 68 373q0 88 -62 88q-48 0 -121.5 -74.5t-138.5 -161.5q-72 -99 -104 -184l-117 -287q-7 -14 -35 -14h-164q-13 0 -19 7t-1 18q175 472 324 875q73 198 100 263l6 15q-196 5 -418 26l-305 -958q-31 -98 -16.5 -137t84.5 -39h79q19 0 15 -21l-8 -39q-3 -16 -27 -16
q-7 0 -45 1.5t-112.5 3t-170.5 1.5q-83 0 -157 -1.5t-115.5 -3t-46.5 -1.5q-20 0 -17 20l7 39q3 17 22 17h35q89 0 129.5 43t79.5 163l307 951q-140 18 -338 18q-153 0 -241.5 -65t-88.5 -164q0 -44 21 -74q13 -19 35 0q33 23 82 23q42 0 70 -30t28 -83q0 -42 -35.5 -76.5
t-99.5 -34.5q-29 0 -58 12.5t-58 39t-47 78.5t-18 122q0 33 8.5 70.5t28 81.5t57.5 87.5t89 76.5q147 94 420 94q182 0 501 -35q96 -12 245 -23.5t192 -11.5q106 0 106 60q0 25 -18 49q-29 35 -29 63q0 27 20 51.5t62 24.5q100 0 100 -125q0 -29 -47 -135
q-112 -256 -315 -739zM1063 1718l258 117q10 5 18 -6l15 -25q2 -5 -4 -14l-301 -301q-7 -9 -18 -8.5t-17 12.5l-162 303q-6 9 4 16l21 19q8 6 22 -4z" />
    <glyph glyph-name="T_h.commaaccent" unicode="&#x162;h" horiz-adv-x="2070" 
d="M1765 1290l-303 -708l19 -15q82 131 178 219t196 88q54 0 92 -19.5t57 -53t26.5 -68.5t7.5 -76q0 -105 -36.5 -226t-94.5 -222q-160 -275 -365 -275q-56 0 -92.5 34.5t-36.5 97.5q0 41 24 72.5t66 31.5q38 0 59 -23t23 -53q3 -26 5.5 -38.5t10.5 -24t23 -11.5
q42 0 105 220q4 14 6 20q67 233 67 373q0 88 -61 88q-48 0 -121.5 -74.5t-138.5 -161.5q-74 -102 -105 -184l-116 -287q-7 -14 -35 -14h-164q-13 0 -19.5 7t-1.5 18l426 1144q15 40 0 78q-8 19 -37.5 30.5t-80 15t-89.5 4t-103 -1t-83 -1.5l-315 -1044q-29 -98 -9 -137
t97 -39h80q18 0 14 -21l-8 -43q-3 -16 -27 -16q-5 0 -46.5 1.5t-133 3t-219.5 1.5q-65 0 -129 -1.5t-104 -3t-46 -1.5q-11 0 -14.5 4.5t-1.5 15.5l6 43q3 17 23 17h55q79 0 119 44.5t75 162.5l308 1013q-177 0 -247 -9t-108 -42q-108 -96 -237 -229q-8 -8 -19 -4l-41 22
q-10 3 -2 19q17 31 84.5 184.5t71.5 165.5q7 20 20 20q8 0 46 -20q59 -29 383 -29h432q447 0 549 33q4 1 21.5 8.5t29.5 7.5q9 0 14.5 -9t5.5 -21q0 -13 -5.5 -29.5t-16 -40.5t-13.5 -31zM395 -598q-1 0 -5 -0.5t-6 0t-4.5 2t-4 5.5t-2.5 11q-3 21 20 27q48 12 100 57.5
t52 104.5q0 23 -6.5 39.5t-13.5 26t-27 30.5l-8 7q-8 7 -14 13.5t-13.5 16.5t-12 22t-4.5 25q0 36 22.5 62t59.5 26q60 0 99 -61.5t39 -120.5q0 -63 -25 -116t-60 -84.5t-75.5 -53.5t-69 -30.5t-41.5 -8.5z" />
    <glyph glyph-name="T_h.commaaccentswash" unicode="&#xe057;h" horiz-adv-x="2131" 
d="M1524 582l18 -15q82 131 178.5 219t196.5 88q182 0 182 -217q0 -105 -36.5 -226t-94.5 -222q-160 -275 -364 -275q-56 0 -92.5 34.5t-36.5 97.5q0 41 24 72.5t66 31.5q38 0 59 -23t23 -53q3 -26 5.5 -38.5t10.5 -24t23 -11.5t29 17t27 51.5t23 66t24 80.5q5 17 7 25
q68 237 68 373q0 88 -62 88q-48 0 -121.5 -74.5t-138.5 -161.5q-72 -99 -104 -184l-117 -287q-7 -14 -35 -14h-164q-13 0 -19 7t-1 18q175 472 324 875q73 198 100 263l6 15q-196 5 -418 26l-305 -958q-31 -98 -16.5 -137t84.5 -39h79q19 0 15 -21l-8 -39q-3 -16 -27 -16
q-7 0 -45 1.5t-112.5 3t-170.5 1.5q-83 0 -157 -1.5t-115.5 -3t-46.5 -1.5q-20 0 -17 20l7 39q3 17 22 17h35q89 0 129.5 43t79.5 163l307 951q-140 18 -338 18q-153 0 -241.5 -65t-88.5 -164q0 -44 21 -74q13 -19 35 0q33 23 82 23q42 0 70 -30t28 -83q0 -42 -35.5 -76.5
t-99.5 -34.5q-29 0 -58 12.5t-58 39t-47 78.5t-18 122q0 33 8.5 70.5t28 81.5t57.5 87.5t89 76.5q147 94 420 94q182 0 501 -35q96 -12 245 -23.5t192 -11.5q106 0 106 60q0 25 -18 49q-29 35 -29 63q0 27 20 51.5t62 24.5q100 0 100 -125q0 -29 -47 -135
q-112 -256 -315 -739zM344 -598q-1 0 -5 -0.5t-6 0t-4.5 2t-4 5.5t-2.5 11q-3 21 20 27q48 12 100 57.5t52 104.5q0 22 -6.5 39.5t-14 26t-27.5 30.5l-8 7q-8 7 -13.5 13.5t-13.5 16.5t-12 22t-4 25q0 36 22.5 62t59.5 26q60 0 98.5 -61.5t38.5 -120.5q0 -63 -25 -116
t-60 -84.5t-75 -53.5t-68.5 -30.5t-41.5 -8.5z" />
    <glyph glyph-name="T_h.swash" unicode="&#xe04f;h" horiz-adv-x="2131" 
d="M1524 582l18 -15q82 131 178.5 219t196.5 88q182 0 182 -217q0 -105 -36.5 -226t-94.5 -222q-160 -275 -364 -275q-56 0 -92.5 34.5t-36.5 97.5q0 41 24 72.5t66 31.5q38 0 59 -23t23 -53q3 -26 5.5 -38.5t10.5 -24t23 -11.5t29 17t27 51.5t23 66t24 80.5q5 17 7 25
q68 237 68 373q0 88 -62 88q-48 0 -121.5 -74.5t-138.5 -161.5q-72 -99 -104 -184l-117 -287q-7 -14 -35 -14h-164q-13 0 -19 7t-1 18q175 472 324 875q73 198 100 263l6 15q-196 5 -418 26l-305 -958q-31 -98 -16.5 -137t84.5 -39h79q19 0 15 -21l-8 -39q-3 -16 -27 -16
q-7 0 -45 1.5t-112.5 3t-170.5 1.5q-83 0 -157 -1.5t-115.5 -3t-46.5 -1.5q-20 0 -17 20l7 39q3 17 22 17h35q89 0 129.5 43t79.5 163l307 951q-140 18 -338 18q-153 0 -241.5 -65t-88.5 -164q0 -44 21 -74q13 -19 35 0q33 23 82 23q42 0 70 -30t28 -83q0 -42 -35.5 -76.5
t-99.5 -34.5q-29 0 -58 12.5t-58 39t-47 78.5t-18 122q0 33 8.5 70.5t28 81.5t57.5 87.5t89 76.5q147 94 420 94q182 0 501 -35q96 -12 245 -23.5t192 -11.5q106 0 106 60q0 25 -18 49q-29 35 -29 63q0 27 20 51.5t62 24.5q100 0 100 -125q0 -29 -47 -135
q-112 -256 -315 -739z" />
    <glyph glyph-name="f_f_j" unicode="ffj" horiz-adv-x="1675" 
d="M670 -381q-167 -227 -375 -227q-91 0 -144 44.5t-55 104.5l-8 4q-110 -153 -272 -153q-79 0 -128.5 38t-49.5 85q0 45 27 76.5t73 31.5q85 0 104 -104q7 -35 47 -35q55 0 117.5 139t112.5 400l133 700h-174q-8 0 -12 5.5t-3 12.5l13 56q3 16 22 16h172q4 15 20 75.5
t25 84.5t31 74t55 96t80 98q44 50 141 99t189 49q108 0 172 -38.5t72 -88.5q45 51 143.5 99t200.5 48q127 0 192.5 -45t65.5 -109q0 -49 -32 -82.5t-77 -33.5q-134 0 -149 127q-2 22 -15.5 40.5t-44.5 18.5q-34 0 -65.5 -21.5t-57 -63.5t-46.5 -88t-40 -110t-31.5 -114
t-27.5 -115h172q127 0 213 23q10 3 31 9.5t29.5 9t23.5 5t29 2.5q29 0 39 -14.5t10 -50.5q0 -30 -20 -116t-56 -194l-119 -354q-13 -37 -30 -79.5t-46.5 -103.5t-63.5 -116t-80.5 -112.5t-96.5 -98.5t-113 -67.5t-129 -26.5q-74 0 -123.5 25.5t-70.5 64.5zM502 813h336
q15 39 37 110.5t45.5 126.5t62.5 113q-42 -3 -78.5 13t-56.5 49q-18 29 -26.5 41t-29 25.5t-47.5 13.5q-50 0 -89.5 -40.5t-70 -130.5t-44 -142.5t-36.5 -165.5q-2 -9 -3 -13zM819 723h-334q-23 -136 -80 -384.5t-90 -352.5q-76 -229 -165 -363q63 17 101 -15t52 -89
q7 -35 62 -35q87 0 156 130.5t134 410.5zM1358 676q0 22 -20 34.5t-48 12.5h-235q-11 -42 -51 -202t-77.5 -297.5t-70.5 -233.5q-38 -113 -86 -203q50 -3 79.5 -36.5t29.5 -72.5q0 -30 10 -49.5t24 -19.5q71 0 138.5 142t160.5 444l131 423q3 9 6.5 18.5t5 14t2.5 11t1 14.5
z" />
    <glyph glyph-name="f_j" unicode="fj" horiz-adv-x="1120" 
d="M109 -379v-2q-76 -103 -166.5 -165t-186.5 -62q-90 0 -140 35t-50 92q0 52 25 82t71 30q49 0 78 -33.5t31 -78.5q0 -35 55 -35q68 0 130 129.5t128 409.5l166 700h-182q-16 0 -13 20l8 43q3 15 8 21t17 6h182l18 63t18.5 63t19.5 57t27 62t35 60.5t49.5 70.5t64.5 75
q45 49 143 97t195 48q132 0 193 -43t61 -106q-17 -123 -123 -123q-47 0 -84.5 27.5t-42.5 64.5q-10 96 -56 96q-33 0 -62 -17t-52 -45t-44 -69t-36.5 -84t-31 -96t-26.5 -98.5t-23 -97.5q-1 -3 -1 -5h168q127 0 213 23q8 2 30.5 9.5t31 9.5t24.5 4.5t31 2.5q29 0 38 -14.5
t9 -50.5q0 -30 -20 -116t-56 -194l-119 -354q-13 -37 -30 -79.5t-46.5 -103.5t-63.5 -116t-80.5 -112.5t-96.5 -98.5t-113 -67.5t-129 -26.5q-75 0 -124.5 26t-69.5 66zM793 668q0 22 -21.5 37.5t-44.5 15.5h-233q-14 -50 -53.5 -206t-81 -308t-80.5 -266q-24 -74 -66 -156
q49 -3 76.5 -36.5t27.5 -72.5q0 -30 10.5 -49.5t24.5 -19.5q71 0 138.5 142t160.5 444l131 423q11 37 11 52z" />
    <glyph glyph-name="ff" unicode="ff" horiz-adv-x="1198" 
d="M252 723h-174q-8 0 -12 5.5t-3 12.5l13 56q3 16 22 16h172q5 19 17.5 65t19 67t22.5 63t34 72.5t48.5 73.5t69.5 87q44 50 140 99t184 49q122 0 183.5 -38.5t66.5 -90.5v2q44 49 139.5 98t183.5 49q123 0 181.5 -43.5t58.5 -105.5q0 -39 -31 -71t-74 -32q-61 0 -90 27.5
t-39 81.5q-12 59 -65 59q-30 0 -57 -17.5t-49.5 -59t-38.5 -76t-35 -102.5t-27.5 -102.5t-26.5 -111.5q-7 -29 -10 -43h215q18 0 15 -18l-11 -52q-2 -11 -6 -15.5t-16 -4.5h-213q-11 -42 -51 -202t-77.5 -297.5t-70.5 -233.5q-31 -92 -70 -175t-92.5 -161.5t-112.5 -135.5
t-133 -91.5t-153 -34.5q-94 0 -147.5 44.5t-53.5 104.5l-4 4q-120 -153 -278 -153q-79 0 -128.5 38t-49.5 85q0 45 27 76.5t73 31.5q85 0 104 -104q7 -35 47 -35q55 0 117.5 139t112.5 400zM506 813h332q4 14 17 59t18 60.5t18 52.5t23.5 59.5t28 55t38.5 63.5
q-42 -2 -77.5 14t-53.5 48q-17 28 -26.5 41t-30.5 26t-48 13q-49 0 -88 -41.5t-68.5 -129t-43.5 -144t-36 -163.5q-2 -10 -3 -14zM819 723h-332q-25 -146 -79.5 -391t-88.5 -346q-77 -231 -163 -359q60 14 96.5 -18.5t50.5 -89.5q7 -35 72 -35q79 0 146.5 131t133.5 410z
" />
    <glyph glyph-name="fi" unicode="fi" horiz-adv-x="1120" 
d="M250 723h-182q-16 0 -13 20l8 43q3 15 8 21t17 6h182l18 63t18.5 63t19.5 57t27 62t35 60.5t49.5 70.5t64.5 75q45 49 143 97t195 48q132 0 193 -43t61 -106q-17 -123 -123 -123q-47 0 -84.5 27.5t-42.5 64.5q-10 96 -56 96q-33 0 -62 -17t-52 -45t-44 -69t-36.5 -84
t-31 -96t-26.5 -98.5t-23 -97.5q-1 -3 -1 -5h168q139 0 213 23q14 4 39 11.5t42 11t36 3.5q23 0 36 -20t13 -47q0 -9 -1.5 -20t-5 -25.5t-7 -26t-10 -32.5t-11 -33.5t-14.5 -40t-15 -42.5l-110 -313q-33 -100 -33 -125q0 -28 27 -28q26 0 80.5 51.5t70.5 75.5q8 11 17 2
l24 -25q9 -9 2 -20q-8 -13 -20.5 -29t-49.5 -52t-80 -62.5t-112 -48t-145 -21.5q-34 0 -52 18t-18 43q0 26 24.5 100t94.5 269l55 161q23 68 23 99q0 22 -21.5 37.5t-44.5 15.5h-233q-14 -50 -53.5 -206t-81 -308t-80.5 -266q-24 -70 -59.5 -142.5t-86.5 -146.5t-108 -131.5
t-127.5 -94t-141.5 -36.5q-90 0 -140 35t-50 92q0 52 25 82t71 30q49 0 78 -33.5t31 -78.5q0 -35 55 -35q68 0 130 129.5t128 409.5z" />
    <glyph glyph-name="fl" unicode="fl" horiz-adv-x="1093" 
d="M252 723h-184q-16 0 -13 20l8 50q3 20 25 20h182q7 24 21.5 73.5t22 72.5t25 66t37 74.5t52 75t74.5 89.5q48 52 145.5 98.5t216.5 46.5q92 0 200.5 -21t152.5 -51q20 -12 26 -32.5t-2 -38.5l-393 -1063q-16 -43 -13 -65.5t31 -22.5q50 0 150 100q9 9 18 0l23 -25
q7 -10 0 -22q-5 -7 -23 -25t-55.5 -47t-80.5 -54t-103.5 -43.5t-120.5 -18.5q-33 0 -62.5 29.5t-29.5 56.5q0 43 57 194l164 463h-309q-126 -516 -218 -780q-25 -71 -60 -143t-85.5 -147t-106.5 -132t-126.5 -93t-141.5 -36q-90 0 -140 36t-50 95q0 51 26 83t70 32
q47 0 76 -38.5t35 -80.5q3 -35 43 -35q141 0 268 539zM510 813h324l133 352q38 92 -13 125q-55 35 -137 35q-39 0 -73.5 -18.5t-60 -45t-50 -73.5t-40 -84.5t-33.5 -99t-27 -96t-23 -95.5z" />
    <glyph glyph-name="ffi" unicode="ffi" horiz-adv-x="1675" 
d="M252 723h-174q-8 0 -12 5.5t-3 12.5l13 56q3 16 22 16h172q4 15 20 75.5t25 84.5t31 74t55 96t80 98q44 50 141 99t189 49q118 0 178.5 -38.5t65.5 -90.5v2q45 51 143.5 99t200.5 48q127 0 192.5 -45t65.5 -109q0 -49 -32 -82.5t-77 -33.5q-134 0 -149 127
q-2 22 -15.5 40.5t-44.5 18.5q-34 0 -65.5 -21.5t-57 -63.5t-46.5 -88t-40 -110t-31.5 -114t-27.5 -115h172q139 0 213 23q15 4 39 11.5t40 11t34 3.5q23 0 36 -20t13 -47q0 -9 -1.5 -20t-5 -25.5t-7 -26t-10 -32.5t-11 -33.5t-14.5 -40t-15 -42.5l-110 -313
q-33 -100 -33 -125q0 -28 27 -28q26 0 80.5 51.5t70.5 75.5q8 11 17 2l24 -25q9 -9 2 -20q-8 -13 -20 -29.5t-49 -52t-79 -62t-109 -48t-140 -21.5q-35 0 -52.5 18t-17.5 43q0 26 24.5 100t94.5 269l55 161q23 68 23 99q0 22 -22 37.5t-50 15.5h-235q-11 -42 -51 -202
t-77.5 -297.5t-70.5 -233.5q-31 -92 -70 -175t-92.5 -161.5t-112.5 -135.5t-133 -91.5t-153 -34.5q-91 0 -144 44.5t-55 104.5l-8 4q-110 -153 -272 -153q-79 0 -128.5 38t-49.5 85q0 45 27 76.5t73 31.5q85 0 104 -104q7 -35 47 -35q55 0 117.5 139t112.5 400zM502 813h336
q15 39 37 110.5t45.5 126.5t62.5 113q-42 -3 -78.5 13t-56.5 49q-18 29 -26.5 41t-29 25.5t-47.5 13.5q-50 0 -89.5 -40.5t-70 -130.5t-44 -142.5t-36.5 -165.5q-2 -9 -3 -13zM819 723h-334q-23 -136 -80 -384.5t-90 -352.5q-76 -229 -165 -363q63 17 101 -15t52 -89
q7 -35 62 -35q87 0 156 130.5t134 410.5z" />
    <glyph glyph-name="ffl" unicode="ffl" horiz-adv-x="1658" 
d="M252 723h-174q-8 0 -12 5.5t-3 12.5l13 56q3 16 22 16h172q6 21 21 76t25 83t31 76t54 94.5t80 98.5q44 50 140.5 99t187.5 49q119 0 180 -38t74 -89q50 54 147.5 100.5t216.5 46.5q88 0 195.5 -21t151.5 -51q20 -12 26 -32.5t-2 -38.5l-393 -1063q-16 -43 -13 -65.5
t31 -22.5q50 0 150 100q9 9 18 0l23 -25q7 -10 0 -22q-8 -11 -35.5 -36.5t-76.5 -62t-118.5 -63t-138.5 -26.5q-33 0 -62.5 29.5t-29.5 56.5q0 43 57 194l166 463h-321q-11 -42 -51 -202t-77.5 -297.5t-70.5 -233.5q-32 -93 -70.5 -175.5t-91 -161.5t-111.5 -135.5
t-133.5 -91t-154.5 -34.5q-91 0 -144 44.5t-55 104.5l-8 4q-110 -153 -272 -153q-79 0 -128.5 38t-49.5 85q0 45 27 76.5t73 31.5q85 0 104 -104q7 -35 47 -35q56 0 118.5 139.5t111.5 399.5zM500 813h342q4 14 14 51t14.5 52t14 45.5t18 49.5t21.5 46t28.5 52t34.5 52
q-90 -3 -137 62q-4 6 -14 20.5t-14.5 20.5t-14 16t-17 14t-19.5 7.5t-26 3.5q-33 0 -63 -21.5t-53.5 -63.5t-42 -85t-36 -107.5t-27.5 -108t-23 -106.5zM821 723h-338q-19 -129 -76.5 -379t-93.5 -358q-77 -230 -161 -359q113 25 149 -108q11 -35 64 -35q87 0 156 130.5
t134 410.5zM1071 813h338l133 352q36 93 -18 127q-53 33 -142 33q-39 0 -74.5 -18.5t-61.5 -45t-51 -73.5t-40.5 -84.5t-33.5 -99t-27 -96t-23 -95.5z" />
    <glyph glyph-name=".notdef" 
d="M0 0v1434h1024v-1434h-1024zM512 809l348 522h-696zM573 717l349 -522v1044zM164 102h696l-348 523zM102 1239v-1044l349 522z" />
    <glyph glyph-name=".null" horiz-adv-x="0" 
 />
    <glyph glyph-name="nonmarkingreturn" horiz-adv-x="682" 
 />
    <glyph glyph-name="space" unicode=" " horiz-adv-x="409" 
 />
    <glyph glyph-name="exclam" unicode="!" horiz-adv-x="546" 
d="M170 -20q-36 0 -77.5 33.5t-41.5 99.5q0 60 37.5 99.5t95.5 39.5q56 0 90.5 -41.5t34.5 -87.5q0 -62 -37.5 -102.5t-101.5 -40.5zM557 1403q63 0 96 -27t33 -63q0 -35 -29 -107q-6 -15 -182.5 -401.5t-179.5 -392.5q-9 -17 -39 -17q-35 0 -25 43q13 52 86.5 449.5
t75.5 406.5q12 56 51.5 82.5t112.5 26.5z" />
    <glyph glyph-name="quotedbl" unicode="&#x22;" horiz-adv-x="471" 
d="M252 901l-62 17q12 50 40.5 223t37.5 202q20 60 121 60q82 0 82 -70q0 -18 -34 -83t-92 -170.5t-93 -178.5zM547 901l-60 17q11 50 40.5 223t37.5 202q20 60 121 60q82 0 82 -68q0 -16 -36 -85t-94.5 -176.5t-90.5 -172.5z" />
    <glyph glyph-name="numbersign" unicode="#" 
d="M633 539l78 237h-166l-76 -237h164zM580 371h-160l-121 -371q-10 -28 -16 -30q-2 -1 -4 -1h-119q-15 0 -6 27l122 375h-163q-12 0 -18 7t-3 17l37 109q8 23 14.5 29t18.5 6h164l75 237h-168q-36 0 -26 29l35 117q7 22 30 22h177l114 359q5 18 23 18h108q19 0 13 -18
l-115 -359h158l112 350q9 27 27 27h102q9 0 13.5 -8t1.5 -19l-113 -350h172q12 0 16.5 -8.5t-0.5 -20.5l-39 -112q-10 -27 -36 -27h-154l-76 -237h185q29 0 18 -31l-41 -119q-8 -18 -41 -18h-174l-123 -379q-7 -23 -18 -23h-123q-11 0 -4 21z" />
    <glyph glyph-name="dollar" unicode="$" 
d="M809 1104l-100 -395q79 -60 122 -131.5t43 -180.5q0 -142 -89 -230.5t-232 -107.5l-47 -196q-3 -13 -8 -18t-11 -3l-43 13q-12 3 -6 28l43 170q-44 0 -92 10l-51 -206q-3 -16 -16 -13l-43 11q-13 3 -7 26l52 203q-53 22 -113 66q-27 22 -47 22q-11 0 -21.5 -10t-29.5 -43
q-12 -18 -23 -10l-18 10q-9 5 -4 18l129 365q6 17 18 14l29 -8q14 -7 10 -23q-46 -184 92 -292l113 428q-84 76 -129 153.5t-45 183.5q0 42 19.5 87.5t57 89t103 74t147.5 36.5l41 162q3 17 17 14l45 -6q11 -4 4 -24l-37 -144q48 -3 86 -12l39 162q4 14 18 12l37 -6
q16 -3 10 -25l-41 -161q24 -8 49.5 -22.5t34.5 -14.5q16 0 27 39q5 16 14 16l27 -6q9 -3 6 -19l-51 -317q-4 -19 -14 -19l-33 7q-12 0 -12 18q0 146 -70 205zM520 874l76 289q-66 -11 -101.5 -56t-35.5 -101q0 -77 61 -132zM668 1171l-93 -352l76 -61l101 391q-33 19 -84 22
zM647 442l-78 -299q60 13 100 56.5t40 111.5q0 38 -15 67t-47 64zM516 571l-108 -417q46 -19 88 -23l96 371z" />
    <glyph glyph-name="percent" unicode="%" horiz-adv-x="1536" 
d="M569 1251q-46 0 -101 -73t-96.5 -170t-69.5 -193.5t-28 -144.5q0 -38 17 -63t47 -25q46 0 101 76t96.5 176.5t69.5 195.5t28 135q0 44 -14 63.5t-50 22.5zM1225 1315l53 -33q10 -3 10 -12q0 -12 -8 -23l-827 -1261q-10 -17 -21 -17q-4 0 -16 6l-54 37q-10 10 -10 15
q0 11 10 24l828 1262q5 8 18 8q5 0 17 -6zM567 1321q112 0 164.5 -58t52.5 -155q0 -103 -30.5 -207.5t-85 -191t-138.5 -141t-182 -54.5q-118 0 -171.5 66.5t-53.5 171.5q0 74 18.5 152.5t56 153t89.5 133.5t125 94.5t155 35.5zM1303 793q112 0 164.5 -58t52.5 -155
q0 -103 -30.5 -207.5t-85 -191t-139 -141t-182.5 -54.5q-118 0 -171.5 66t-53.5 171q0 74 18.5 153t56.5 153.5t90 133t125 94.5t155 36zM1305 723q-46 0 -101 -73t-96.5 -170.5t-69.5 -194t-28 -144.5q0 -38 16.5 -63t46.5 -25q46 0 101 76.5t96.5 177t69.5 195.5t28 135
q0 44 -13.5 63.5t-49.5 22.5z" />
    <glyph glyph-name="ampersand" unicode="&#x26;" horiz-adv-x="1716" 
d="M868 -45q-118 0 -218.5 18.5t-172.5 49.5t-129 74t-92.5 90t-59 100t-33 101t-9.5 95q0 87 27 163t69 126.5t82 82.5t76 48q-93 126 -93 244q0 121 87.5 208t236.5 87q104 0 168.5 -55t64.5 -160q0 -65 -38.5 -104.5t-71.5 -39.5q-12 0 -6 37q9 54 -33 92.5t-107 38.5
q-63 0 -116.5 -50t-53.5 -136q0 -91 33 -135q7 2 29 10.5t48.5 14.5t55.5 6q107 0 107 -84q0 -99 -101 -99q-57 0 -147 58q-10 13 -18.5 14.5t-28.5 -10.5q-44 -34 -73 -106t-29 -150q0 -189 150 -293.5t427 -104.5q269 0 421.5 110t152.5 271q0 46 -18.5 90.5t-53 81
t-91 58.5t-126.5 22q-51 0 -90 -13.5t-61 -33t-35.5 -45.5t-18 -47t-4.5 -41q0 -38 24.5 -73.5t40.5 -35.5q8 0 15 10t4 21q-9 32 17.5 72.5t70.5 40.5q64 0 95.5 -28t31.5 -75q0 -133 -162 -133q-91 0 -158 65.5t-67 186.5q0 128 97.5 217.5t256.5 89.5q45 0 131 -7t156 -7
q100 0 166.5 47t66.5 133q0 43 -37.5 85t-78.5 42q-33 0 -23 -45q11 -36 -15 -76.5t-81 -40.5q-48 0 -77.5 30t-29.5 73q0 60 49 99.5t113 39.5q130 0 200 -65t70 -160q0 -154 -84 -244t-229 -113q-54 -9 -29 -51q54 -82 54 -225q0 -169 -93.5 -297.5t-250 -194
t-351.5 -65.5z" />
    <glyph glyph-name="quotesingle" unicode="'" horiz-adv-x="286" 
d="M315 901l-61 17q10 46 39 220t39 205q20 60 121 60q82 0 82 -70q0 -18 -34.5 -83t-92.5 -170.5t-93 -178.5z" />
    <glyph glyph-name="parenleft" unicode="(" horiz-adv-x="614" 
d="M121 141q0 225 62 436t176.5 391.5t265 334t338.5 286.5q12 9 19.5 6t18.5 -20q11 -15 9 -24.5t-19 -24.5q-135 -121 -252 -277t-211.5 -342.5t-149 -407t-54.5 -442.5q0 -262 24 -485q1 -12 -4.5 -17.5t-24.5 -11.5q-21 -7 -27 -5.5t-11 11.5q-63 104 -111.5 273
t-48.5 319z" />
    <glyph glyph-name="parenright" unicode=")" horiz-adv-x="614" 
d="M569 993q0 -225 -62 -436t-176 -391.5t-264.5 -334t-338.5 -286.5q-12 -9 -20 -5.5t-19 20.5q-11 15 -9 24.5t19 24.5q107 96 203.5 213.5t182 262t148 300t98.5 334.5t36 358q0 253 -25 486q-1 12 4.5 17t24.5 11q21 7 27.5 5.5t11.5 -11.5q63 -104 111 -273t48 -319z
" />
    <glyph glyph-name="asterisk" unicode="*" horiz-adv-x="614" 
d="M424 772q-44 0 -62.5 18t-13.5 48q3 16 25 57.5t51.5 92.5t40.5 75l-8 4q-21 -20 -83 -86.5t-98 -91.5q-24 -14 -53 -3.5t-43 34.5q-16 27 -16 51.5t10 39t25 21.5t59 15.5t102.5 19t90.5 18.5v9q-30 5 -78.5 11.5t-80 12t-48.5 10.5q-26 8 -34 37.5t13 73.5
q14 25 35 38.5t39 12.5t31 -10q15 -13 61 -74.5t76 -93.5l10 6q-5 30 -17.5 82t-20 88.5t-5.5 50.5q3 25 28.5 44.5t71.5 19.5q42 0 62 -14.5t20 -36.5q0 -17 -21 -57.5t-53 -95t-46 -83.5l6 -4q32 24 99.5 93t90.5 77q27 10 52 -2.5t34 -40.5q14 -36 2 -70.5t-51 -44.5
q-25 -6 -103.5 -13.5t-117.5 -14.5v-9q26 -7 107.5 -20t107.5 -27q28 -15 31 -44t-21 -60q-27 -35 -62 -42t-59 15q-19 16 -57.5 75.5t-54.5 80.5l-13 -2q2 -36 21.5 -123t17.5 -100q-4 -27 -27 -47.5t-73 -20.5z" />
    <glyph glyph-name="plus" unicode="+" 
d="M612 72h-157v350h-326v147h326v342h157v-342h326v-147h-326v-350z" />
    <glyph glyph-name="comma" unicode="," horiz-adv-x="512" 
d="M18 -303q-1 0 -6.5 -0.5t-7 0t-5 2.5t-5.5 6.5t-4 11.5q-8 29 24 37q57 16 120 70t63 119q0 38 -12 60t-44 54q-1 1 -13.5 13t-22 23t-18.5 30t-9 37q0 53 27.5 94t72.5 41q55 0 95.5 -25.5t61 -66.5t29.5 -80.5t9 -77.5q0 -75 -33 -138t-79.5 -100t-99 -63.5
t-89.5 -36.5t-54 -10z" />
    <glyph glyph-name="hyphen" unicode="-" horiz-adv-x="847" 
d="M125 444v113q0 21 18 21h660q18 0 18 -17v-112q0 -19 -18 -19h-662q-16 0 -16 14z" />
    <glyph glyph-name="period" unicode="." horiz-adv-x="512" 
d="M203 -20q-64 0 -105 41t-41 108q0 56 39 100.5t107 44.5q76 0 113.5 -46.5t37.5 -104.5q0 -62 -41 -102.5t-110 -40.5z" />
    <glyph glyph-name="slash" unicode="/" horiz-adv-x="675" 
d="M899 1405l70 -45q19 -12 4 -33l-983 -1350q-16 -22 -33 -8l-66 47q-15 12 0 31l979 1348q13 18 29 10z" />
    <glyph glyph-name="zero" unicode="0" 
d="M410 -31q-69 0 -123 21t-89.5 57.5t-58.5 88.5t-33 110.5t-10 126.5q0 124 26.5 254.5t81 254.5t128.5 222t178.5 157.5t222.5 59.5q301 0 301 -360q0 -137 -27 -277.5t-81 -268.5t-127.5 -227.5t-174.5 -159t-214 -59.5zM403 66q55 0 118 85.5t116 214.5t97.5 270
t69.5 262t25 181q0 74 -19.5 107t-74.5 37q-70 0 -151 -124.5t-141.5 -292.5t-101 -335.5t-40.5 -257.5q0 -147 102 -147z" />
    <glyph glyph-name="one" unicode="1" 
d="M772 53l-10 -47q-1 -9 -4.5 -10.5t-14.5 -1.5q-3 0 -146.5 3t-174.5 3q-43 0 -193 -3t-151 -3q-14 0 -10 14l12 51q2 15 24 15h52q27 0 43 1.5t39 10.5t39.5 26.5t35 50.5t33.5 81l195 598q51 153 51 174q0 11 -9.5 19.5t-23.5 8.5t-76 -16l-127 -37q-10 -3 -16 6l-18 37
q-8 14 6 21l503 235q67 31 91 31q30 0 30 -31q0 -26 -8 -45q-85 -228 -162 -465l-98 -303q-14 -51 -96 -305q-16 -47 -3 -72.5t62 -25.5h111q18 0 14 -21z" />
    <glyph glyph-name="two" unicode="2" 
d="M553 0h-416q-25 0 -60 -1t-48 -1q-58 -4 -64 -4q-31 0 -31 31q0 26 33 49q98 68 189 138.5t196.5 167t182.5 187t129 193t53 190.5q0 78 -42 136.5t-128 58.5q-79 0 -148.5 -57t-107.5 -119q-10 -16 -14.5 -21t-10.5 -2l-43 21q-7 7 0 24q18 48 54.5 100.5t91 106
t134.5 88.5t167 35q148 0 231.5 -86.5t83.5 -226.5q0 -51 -16 -104.5t-41 -101t-65.5 -99t-79 -93t-92.5 -89t-94.5 -80.5t-96.5 -73.5t-87 -62t-78 -53t-59 -39.5v-23h304q84 0 149.5 39t108.5 103q16 24 26 18l29 -18q12 -8 2 -25q-33 -55 -83.5 -168.5t-61.5 -156.5
q-5 -21 -21 -21q-19 0 -43 21q-18 18 -133 18z" />
    <glyph glyph-name="three" unicode="3" 
d="M328 1020l-33 22q-11 6 6 31q19 29 41 57t60.5 64.5t81.5 63t103 45t124 18.5q77 0 134.5 -19.5t89 -52.5t46 -70t14.5 -79q0 -113 -87.5 -211.5t-213.5 -151.5q94 -30 146.5 -105t52.5 -167q0 -139 -81.5 -254.5t-213.5 -178.5t-283 -63q-155 0 -242 70t-87 158
q0 42 22.5 77t67.5 35q37 0 62 -15t33.5 -36.5t13 -45t-0.5 -40.5q-6 -43 31.5 -85t95.5 -42q129 0 223.5 112t94.5 283q0 79 -43 144t-129 88q-49 13 -49 41q0 18 12 31t33 14q145 9 224 81.5t79 176.5q0 51 -40 96t-120 45q-77 0 -145.5 -41.5t-96.5 -83.5
q-15 -20 -26 -12z" />
    <glyph glyph-name="four" unicode="4" 
d="M635 0h-209q-24 0 -6 49l110 295h-469q-55 0 -55 37q0 26 49 70l860 788q30 27 47.5 41.5t41.5 27.5t43 13q22 0 28.5 -23.5t-2.5 -48.5l-246 -739h164q22 0 13 -23l-41 -118q-9 -25 -31 -25h-158l-98 -303q-9 -25 -17 -33t-24 -8zM272 510h310l147 405q9 27 -4.5 32.5
t-36.5 -15.5l-420 -391q-16 -15 -14 -23t18 -8z" />
    <glyph glyph-name="five" unicode="5" 
d="M901 1087h-428l-74 -208q175 -4 283 -56q112 -53 157.5 -140t45.5 -204q-3 -64 -28.5 -132.5t-77.5 -136.5t-122.5 -121.5t-173 -86.5t-219.5 -33q-45 0 -86.5 6t-78.5 19.5t-59 38t-22 57.5q0 34 17.5 57t44.5 23q53 0 100 -53q39 -45 150 -45q83 0 155 50.5t112 127.5
t40 156q0 137 -92 200q-34 23 -93.5 38t-119.5 15q-68 0 -80 9q-16 16 -8 39l192 565q7 18 31 18h434q31 0 55 13t33.5 24.5t34.5 44.5q12 15 35 0q18 -12 22 -19t-2 -16l-116 -229q-7 -13 -19.5 -17t-42.5 -4z" />
    <glyph glyph-name="six" unicode="6" 
d="M459 -31q-180 0 -275.5 103.5t-95.5 281.5q0 128 47 256t126.5 235t182.5 200t216 159.5t225 104.5q40 12 59 12q12 0 21.5 -12.5t9.5 -30.5q0 -32 -29 -45q-338 -157 -500 -467l13 -12q91 53 221 53q122 0 202.5 -79.5t80.5 -209.5q0 -145 -65.5 -271t-182 -202
t-256.5 -76zM459 49q58 0 106.5 52t77 131t43 165t12.5 160q-2 61 -36.5 106.5t-92.5 45.5q-53 0 -91.5 -19.5t-55.5 -46.5q-94 -157 -94 -385q0 -209 131 -209z" />
    <glyph glyph-name="seven" unicode="7" 
d="M522 1290h559q33 0 33 -20q0 -16 -20 -51q-9 -13 -41.5 -68t-88.5 -154.5t-104 -191.5q-247 -470 -336 -690q-32 -75 -65.5 -110.5t-87.5 -35.5q-51 0 -77 30.5t-26 70.5q0 60 60 141q13 20 111.5 157.5t166.5 235.5q64 95 171.5 266t129.5 211h-411q-61 0 -103 -17
t-67 -42t-66 -78q-17 -20 -35 -6q-19 11 -23.5 19t1.5 16l184 366q9 17 17.5 20.5t21.5 -1.5q16 -4 19 -9.5t1 -19.5q-3 -24 14 -31.5t62 -7.5z" />
    <glyph glyph-name="eight" unicode="8" 
d="M436 -31q-85 0 -151.5 20.5t-104 51.5t-62 71t-32.5 73t-8 65q0 59 25 112t60.5 90t85 71t88.5 54t81 40q12 5 18 8q-90 92 -119 130q-77 101 -77 195q0 51 16 101.5t53 99.5t90.5 86.5t135.5 60.5t182 23q157 0 245.5 -72.5t88.5 -185.5q0 -58 -28.5 -113.5t-67 -94.5
t-92 -75.5t-89.5 -55t-74 -34.5q89 -79 140 -158.5t51 -173.5q0 -164 -125 -276.5t-330 -112.5zM457 43q50 0 88 17.5t58 42t32.5 57t16 56t3.5 44.5q0 96 -39.5 160t-134.5 151q-88 -38 -141 -119t-53 -206q0 -90 47 -146.5t123 -56.5zM668 1243q-99 0 -150 -59.5
t-51 -155.5q0 -34 10.5 -65t40.5 -70.5t47.5 -59t68.5 -72.5q11 -12 17 -18q199 104 199 310q0 74 -45 132t-137 58z" />
    <glyph glyph-name="nine" unicode="9" 
d="M670 1321q176 0 265 -93t89 -257q0 -136 -50.5 -272t-136.5 -249t-196 -209.5t-231.5 -163.5t-241.5 -100q-28 -8 -47 -8q-13 0 -21 11.5t-8 25.5q0 32 29 45q98 49 178.5 105.5t140.5 116.5t102 113t81 116l-13 12q-28 -14 -59 -22q-46 -11 -80 -11q-85 0 -148.5 30.5
t-96.5 79.5t-48.5 100.5t-15.5 103.5q0 71 21.5 144t64.5 141.5t102.5 122t142.5 86t177 32.5zM537 575q60 0 95 22.5t64 82.5q34 70 55 169.5t21 180.5q0 211 -113 211q-58 0 -105.5 -52.5t-75 -129.5t-42 -154t-14.5 -137q0 -46 10 -87.5t37.5 -73.5t67.5 -32z" />
    <glyph glyph-name="colon" unicode=":" horiz-adv-x="512" 
d="M170 -20q-60 0 -101.5 40.5t-41.5 102.5q0 52 38.5 95.5t102.5 43.5q77 0 114 -45t37 -100q0 -57 -41.5 -97t-107.5 -40zM365 874q77 0 114 -44.5t37 -98.5q0 -58 -41.5 -98.5t-107.5 -40.5q-61 0 -102.5 40.5t-41.5 104.5q0 51 39 94t103 43z" />
    <glyph glyph-name="semicolon" unicode=";" horiz-adv-x="512" 
d="M-2 -303q-1 0 -6.5 -0.5t-7.5 0t-5.5 2.5t-5.5 6.5t-4 11.5q-8 29 25 37q57 16 119.5 70t62.5 119q0 38 -12 60.5t-43 53.5q-1 2 -13.5 13.5t-22.5 22.5t-19 30t-9 37q0 53 28 94t73 41q41 0 75.5 -18.5t55.5 -46.5t36 -62.5t21 -65.5t6 -57q0 -75 -32 -138t-77.5 -100
t-97.5 -63.5t-89.5 -36.5t-57.5 -10zM342 874q72 0 109.5 -46t37.5 -101q0 -57 -40.5 -97t-106.5 -40q-60 0 -100.5 40t-40.5 103q0 53 38.5 97t102.5 44z" />
    <glyph glyph-name="less" unicode="&#x3c;" 
d="M840 72l-629 374v93l629 372v-157l-447 -252v-8l447 -250v-172z" />
    <glyph glyph-name="equal" unicode="=" 
d="M147 750h814v-148h-814v148zM147 428h814v-147h-814v147z" />
    <glyph glyph-name="greater" unicode="&#x3e;" 
d="M246 911l628 -374v-93l-628 -372v157l446 252v8l-446 261v161z" />
    <glyph glyph-name="question" unicode="?" horiz-adv-x="870" 
d="M645 1403q82 0 146 -21t99.5 -51.5t58.5 -69.5t30.5 -69.5t7.5 -56.5q0 -196 -108.5 -321t-294.5 -179q-236 -69 -236 -146q0 -36 26 -54.5t93 -18.5q44 0 86.5 15t62 28.5t31.5 25.5q11 11 19 -2l20 -22q8 -8 4 -17q-27 -44 -91.5 -90.5t-137.5 -46.5q-97 0 -157 54
t-60 163q0 210 309 365q47 24 68.5 35.5t57 33t51.5 39t34.5 43t25.5 56t7 67.5q0 22 -8.5 47.5t-26.5 51t-53 42.5t-80 17q-98 0 -164 -49t-66 -127q0 -41 18 -60.5t38 -19.5q24 0 32 18q-10 23 -10 50q0 43 29 73.5t82 30.5q43 0 67.5 -28t24.5 -72q0 -78 -58 -123
t-133 -45q-78 0 -133 43.5t-55 128.5q0 44 23 89.5t65 84.5t109 63.5t147 24.5zM360 -20q-52 0 -91.5 32.5t-39.5 91.5q0 54 34.5 95t92.5 41q57 0 93 -39t36 -97q0 -45 -34.5 -84.5t-90.5 -39.5z" />
    <glyph glyph-name="at" unicode="@" horiz-adv-x="1626" 
d="M1083 928q0 90 -63 90q-48 0 -101.5 -58t-92.5 -137t-65 -158t-26 -124q0 -72 58 -72q27 0 125 125.5t126 181.5q39 78 39 152zM1214 1071h115q10 0 13 -7t-1 -13q-23 -46 -72.5 -162.5t-64.5 -165.5q-65 -206 -67 -258q-1 -19 13.5 -29t35.5 -10q25 0 60 17.5t76 56.5
t75 92.5t57 136t23 176.5q0 203 -110.5 309.5t-309.5 106.5q-143 0 -276 -70.5t-226 -182t-149 -251t-56 -276.5q0 -149 65 -261t175 -169t248 -56q207 0 329 68q20 12 27 2l16 -41q4 -11 -14 -23q-60 -37 -171 -64.5t-222 -27.5q-155 0 -278.5 40t-203.5 112.5t-122.5 172
t-42.5 218.5q0 169 76.5 333t202 286t296 197t348.5 75q284 0 426 -137t142 -381q0 -77 -24 -154t-73 -147.5t-116.5 -125t-162 -86.5t-202.5 -32q-58 0 -85.5 18t-27.5 45q0 66 45 179l-16 8q0 -1 -15.5 -21t-21.5 -28t-24.5 -30.5t-30 -34.5t-32 -32.5t-36.5 -32.5
t-37.5 -27.5t-40.5 -23.5t-41.5 -14t-43.5 -6q-64 0 -100.5 37t-33.5 115q0 82 50 187.5t123.5 195t163.5 151t163 61.5q52 0 78 -13t53 -44l17 23q11 12 17 15t21 3z" />
    <glyph glyph-name="A" unicode="A" horiz-adv-x="1345" 
d="M926 614h-342l-201 -260q-127 -166 -127 -217q0 -63 84 -63h51q18 0 15 -21l-7 -43q-3 -16 -22 -16q-4 0 -40 1.5t-103 3t-146 1.5q-69 0 -125.5 -1.5t-87.5 -3t-37 -1.5q-19 0 -16 18l8 45q3 17 14 17h33q48 0 118 39.5t122 101.5l962 1137q15 18 47 18q36 0 158 16
q28 3 58.5 10t37.5 7q27 0 21 -21l-305 -1136q-23 -81 -23 -115q0 -25 21.5 -41t52.5 -16h43q9 0 13.5 -4.5t2.5 -10.5l-6 -47q-4 -18 -24 -18q-6 0 -41 1.5t-99.5 3t-142.5 1.5q-76 0 -136 -1.5t-92 -3t-42 -1.5q-13 0 -18 5t-3 15l8 43q3 17 17 17h41q27 0 44.5 5t37 20.5
t35.5 49.5t32 89zM639 688h309l152 510q6 21 -11.5 26.5t-29.5 -10.5z" />
    <glyph glyph-name="B" unicode="B" horiz-adv-x="1290" 
d="M188 195l261 972q12 47 12 74q0 24 -23.5 37.5t-58.5 13.5h-57q-17 0 -13 19l8 47q1 9 6.5 11.5t20.5 2.5q9 0 229.5 3t264.5 3q241 0 350 -69q55 -34 89 -89.5t34 -129.5q0 -89 -36.5 -159.5t-101.5 -116t-140.5 -73t-166.5 -41.5v-6q322 -79 322 -334q0 -23 -4.5 -52
t-33 -88t-77.5 -105q-60 -59 -170 -90t-303 -31q-52 0 -159 3t-156 3q-47 0 -142.5 -3t-142.5 -3q-11 0 -15 4t-3 16l8 43q3 17 18 17h68q79 0 112 121zM592 664l-121 -447q-10 -40 -7 -76.5t28 -48.5q18 -10 57.5 -17t71.5 -7q83 0 147 49t96.5 125.5t32.5 163.5
q0 63 -22 111.5t-55 75.5t-76 44t-79.5 22.5t-72.5 4.5zM760 1300l-148 -555q33 -8 84 -8q64 1 122.5 20.5t108.5 59t79.5 108t29.5 156.5q0 91 -63.5 157.5t-143.5 66.5q-6 0 -69 -5z" />
    <glyph glyph-name="C" unicode="C" horiz-adv-x="1396" 
d="M1313 403l-146 -438q-5 -13 -22 -10l-43 10q-11 4 -6 17q6 30 6 34q0 10 -8.5 19.5t-22.5 9.5q-32 0 -80 -22q-34 -17 -121 -35.5t-163 -18.5q-248 0 -394.5 129t-146.5 344q0 162 34 291t93.5 227t159.5 207q216 236 553 236q167 0 270 -68q70 -47 92 -47q40 0 53 43
q6 18 19 15l43 -9q11 -4 6 -20l-109 -434q-6 -18 -22 -13l-45 4q-17 0 -13 21q6 62 0 120.5t-25.5 113t-52 95t-84 65t-116.5 24.5q-99 0 -182 -54.5t-170 -179.5q-105 -154 -151 -325.5t-46 -317.5q0 -79 19 -143.5t48 -105t66.5 -68t71.5 -38.5t65 -11q48 0 91 6.5
t99.5 29t105 59.5t101.5 104t97 157q5 12 20 8l46 -12q13 -4 10 -19z" />
    <glyph glyph-name="D" unicode="D" horiz-adv-x="1624" 
d="M219 231l236 959q13 53 -10 77.5t-54 24.5h-92q-15 0 -19 4t-1 13l12 49q3 9 8.5 11.5t24.5 2.5q61 0 149 6q31 1 83.5 2.5t92 2.5t66.5 1q122 0 217.5 -7.5t196.5 -27.5t184 -61t145 -102q89 -90 121.5 -178t32.5 -193q0 -114 -28 -217t-68.5 -173.5t-95.5 -131.5
t-99 -94.5t-88 -59.5q-73 -42 -155.5 -71.5t-144.5 -43.5t-143 -21.5t-119 -8t-105 -0.5h-27q-27 0 -118 3t-120 3q-95 0 -163 -1.5t-97.5 -3t-30.5 -1.5q-19 0 -16 20l12 45q4 15 21 15h41q111 0 151 157zM754 1278l-258 -1061q-15 -69 -15 -86q0 -25 34 -41t67 -16
q282 0 487 164q106 84 181 242.5t75 328.5q0 100 -36 191t-99 151q-57 55 -91.5 80t-84.5 41q-94 31 -185 31q-70 0 -75 -25z" />
    <glyph glyph-name="E" unicode="E" horiz-adv-x="1382" 
d="M827 1298l-172 -530h160q42 0 75 9.5t77.5 48.5t85.5 110q11 16 20 14l39 -12q14 -3 10 -14q-80 -185 -108 -408q-2 -14 -19 -14l-39 2q-9 0 -12 20q-10 92 -64.5 131t-158.5 39h-86l-197 -620h393q46 0 95.5 21t86.5 46.5t85.5 73t71 73t63.5 74.5q12 15 24 9l27 -19
q10 -7 4 -26l-104 -297q-7 -22 -16 -28.5t-29 -6.5q-10 0 -55 0.5t-132.5 1.5t-158.5 2q-93 0 -284 1t-269 1q-54 0 -117 -1t-76 -1q-16 -1 -30 -2l-21 -1.5t-10 -0.5q-22 0 -17 20l6 43q6 17 17 17h55q106 0 139 110l312 973q23 74 -7 107.5t-77 33.5h-72q-14 0 -8 17
l12 49q3 9 8 11.5t17 2.5q5 0 37 -1.5t101 -3t165 -1.5q174 0 322 1.5t229 3t94 1.5q23 0 30 -7t13 -32l65 -280q3 -12 -8 -17l-26 -14q-14 -5 -29 10l-227 246q-12 14 -37 14h-273z" />
    <glyph glyph-name="F" unicode="F" horiz-adv-x="1310" 
d="M817 1298l-168 -542l199 4q103 1 164.5 53t91.5 156q4 14 24 10l43 -6q12 -3 9 -19l-121 -514q-3 -14 -21 -10l-41 2q-19 0 -16 21q15 112 -18.5 162.5t-124.5 56.5l-211 12l-140 -459q-14 -46 -16 -77t9 -46.5t28 -21.5t45 -6h61q10 0 15.5 -5.5t3.5 -11.5l-15 -51
q-2 -12 -24 -12q-5 0 -37 1.5t-101 3t-165 1.5q-91 0 -156 -1.5t-94 -3t-33 -1.5q-17 0 -14 16l8 51q3 13 18 13h52q83 0 121 121l321 1026q23 77 -47 77h-49q-21 0 -15 19l13 45q3 16 24 16q2 0 87 -3t169 -3q136 0 251 1.5t181 3t84 1.5q74 0 139 10.5t66 10.5
q25 0 25 -33q1 -34 18.5 -161t22.5 -158q3 -16 -10 -19l-35 -16q-15 -6 -27 14q-17 29 -84 120.5t-92 115.5q-27 21 -34 23t-64 5q-140 8 -320 8z" />
    <glyph glyph-name="G" unicode="G" horiz-adv-x="1515" 
d="M995 162l47 231q11 57 -6 78t-57 21h-72q-20 0 -14 20l8 43q3 16 23 16q8 0 43 -1.5t101.5 -3t152.5 -1.5q79 0 136.5 1.5t85.5 3t36 1.5q21 0 18 -24l-6 -39q-3 -16 -18 -16h-33q-87 0 -103 -70l-71 -316q-6 -21 -13.5 -29.5t-27.5 -17.5q-40 -18 -93 -35.5t-147.5 -36
t-181.5 -18.5q-146 0 -266 44t-198 120t-120.5 175.5t-42.5 211.5q0 246 119.5 449.5t320.5 318.5t437 115q115 0 199.5 -32.5t133.5 -70.5q26 -20 44 -20q12 0 24 14t31 49q7 15 22 9l31 -9q14 -4 12 -16l-116 -412q-2 -12 -19 -12l-53 2q-14 0 -14 23q3 56 -4.5 108
t-30.5 103.5t-59 89t-95.5 61t-136.5 23.5q-79 0 -159 -42t-148 -119t-121.5 -176t-84 -222.5t-30.5 -249.5q0 -88 21 -162.5t54 -124t75.5 -84t84.5 -50t81 -15.5q120 0 159 22q32 18 41 72z" />
    <glyph glyph-name="H" unicode="H" horiz-adv-x="1679" 
d="M1683 1194l-315 -981q-19 -57 -9 -98t44 -41h72q22 0 16 -21l-8 -45q-3 -14 -25 -14q-4 0 -35 1.5t-94.5 3t-146.5 1.5q-84 0 -151.5 -1.5t-103 -3t-42.5 -1.5q-20 0 -17 18l11 47q3 15 18 15h51q48 0 81.5 37.5t66.5 136.5l127 387q9 29 -17 29h-565q-32 0 -37 -21
l-139 -438q-13 -41 -14 -67.5t9 -40t26 -18.5t42 -5h52q18 0 14 -17l-6 -45q-3 -18 -23 -18q-5 0 -40 1.5t-104.5 3t-158.5 1.5q-82 0 -146 -1.5t-95.5 -3t-34.5 -1.5q-9 0 -14 4t-3 10l11 49q3 17 18 17h49q48 0 80 35.5t59 115.5l322 977q14 44 -4.5 70t-48.5 26h-70
q-9 0 -13 4t-3 11l10 49q3 16 20 16q2 0 42.5 -1.5t112.5 -3t151 -1.5q63 0 124.5 1.5t98.5 3t41 1.5q21 0 18 -16l-12 -49q-3 -15 -19 -15h-45q-48 0 -77.5 -23.5t-47.5 -80.5l-137 -424q-8 -25 17 -25h567q23 0 31 25l141 444q12 40 -8.5 62t-53.5 22h-32q-15 0 -13 15
l13 53q3 12 20 12q4 0 42 -1.5t103 -3t134 -1.5q59 0 113.5 1.5t87.5 3t38 1.5q12 0 17.5 -4t3.5 -10l-10 -49q-3 -17 -19 -17h-39q-43 0 -71 -23t-48 -81z" />
    <glyph glyph-name="I" unicode="I" horiz-adv-x="788" 
d="M745 1157l-256 -944q-38 -139 80 -139h76q15 0 12 -21l-6 -43q-1 -7 -2.5 -10t-6.5 -4.5t-15 -1.5q-4 0 -44.5 1.5t-121.5 3t-182 1.5q-80 0 -150 -1.5t-109.5 -3t-44.5 -1.5q-19 0 -16 20l10 47q3 13 17 13h67q18 0 33 0.5t27.5 5t21.5 6t18 10.5t13.5 11.5t11 16.5
t9 18t8.5 24l7.5 25t8.5 30l256 942q16 75 2 105t-45 30h-94q-12 0 -16.5 4t-2.5 13l11 51q3 12 26 12q6 0 48.5 -1.5t115.5 -3t154 -1.5q78 0 145 1.5t104.5 3t45.5 1.5q28 0 22 -24l-10 -39q-3 -17 -23 -17h-63q-48 0 -83.5 -29t-58.5 -112z" />
    <glyph glyph-name="J" unicode="J" horiz-adv-x="831" 
d="M252 59l311 1112q37 127 -65 127h-68q-10 0 -14.5 4t-3.5 13l10 47q3 16 20 16q1 0 39 -1.5t114.5 -3t170.5 -1.5q74 0 137 1.5t96.5 3t36.5 1.5q22 0 19 -20l-8 -45q-3 -15 -21 -15h-51q-41 0 -76 -34.5t-65 -128.5l-263 -873q-54 -176 -108 -297.5t-123 -204.5
q-146 -170 -350 -170q-120 0 -177 50.5t-57 115.5q0 55 34 96.5t93 41.5q46 0 74.5 -31.5t28.5 -67.5q0 -17 -6.5 -46t-6.5 -42q0 -31 54 -31q70 0 118 85.5t107 297.5z" />
    <glyph glyph-name="K" unicode="K" horiz-adv-x="1474" 
d="M786 1194l-149 -459q103 0 141 33q385 333 479 463q22 28 13 47.5t-49 19.5h-25q-20 0 -16 21l8 43q5 16 22 16q4 0 38.5 -1.5t96 -3t132.5 -1.5q54 0 99 1.5t69.5 3t29.5 1.5q13 0 19 -5.5t4 -16.5l-8 -37q-2 -6 -3 -8.5t-3.5 -6t-6 -5t-8.5 -1.5h-57q-69 0 -150 -59
q-46 -33 -181 -147t-263 -224.5t-139 -119.5q44 -78 188 -310t172 -270q29 -38 65.5 -66t65.5 -28h49q10 0 15.5 -6.5t3.5 -14.5l-11 -43q-2 -9 -6.5 -12.5t-17.5 -3.5q-5 0 -35.5 1.5t-100.5 3t-169 1.5q-72 0 -165 -3l-93 -3q-11 0 -15.5 4.5t-3.5 13.5l4 45q3 17 19 17
h20q38 0 57.5 19t6.5 46q-10 18 -124 235.5t-124 235.5q-23 43 -68 43l-145 -444q-18 -67 -1 -101t52 -34h45q18 0 15 -21l-9 -43q-3 -16 -26 -16q-5 0 -41.5 1.5t-101.5 3t-140 1.5q-81 0 -142 -1.5t-89 -3t-29 -1.5q-19 0 -16 26l8 37q3 17 26 17h31q44 0 78.5 30t54.5 89
l316 976q20 66 6.5 97.5t-53.5 31.5h-52q-25 0 -18 21l14 47q5 12 25 12q3 0 34.5 -1.5t94 -3t141.5 -1.5q81 0 142.5 1.5t92 3t36.5 1.5q15 0 12 -24l-6 -39q-2 -17 -25 -17h-41q-36 0 -67.5 -26.5t-47.5 -77.5z" />
    <glyph glyph-name="L" unicode="L" horiz-adv-x="1351" 
d="M764 1161l-318 -1028q-18 -59 46 -59h157q208 0 260 8q27 4 46 15t49 38q47 42 129.5 130t91.5 102q11 23 22 20l37 -16q11 -5 8 -15q-19 -67 -106 -354q-10 -33 -27 -33q-3 0 -53 13q-46 12 -76 12q-9 0 -103 1.5t-253.5 3t-327.5 1.5q-72 0 -154.5 -1.5t-137 -3
t-60.5 -1.5q-20 0 -17 20l9 43q3 17 18 17h31q57 0 91 29.5t62 117.5l295 950q41 127 -53 127h-76q-19 0 -16 17l14 51q2 12 25 12q5 0 41.5 -1.5t105 -3t150.5 -1.5q93 0 168.5 1.5t115 3t43.5 1.5q20 0 17 -20l-10 -43q-6 -17 -25 -17h-72q-58 0 -90 -27.5t-57 -109.5z
" />
    <glyph glyph-name="M" unicode="M" horiz-adv-x="1980" 
d="M1405 215l285 989q5 18 -8 19q-12 1 -23 -15l-834 -1177q-20 -31 -57 -31q-14 0 -24 12t-13 33l-145 1032q-2 14 -6 18t-8.5 -1t-8.5 -15l-227 -665q-26 -76 -41 -135.5t-18.5 -97.5t1 -62.5t15 -34.5t26.5 -10h66q17 0 14 -17l-6 -47q-3 -16 -24 -16q-7 0 -34.5 1.5
t-74.5 3t-102 1.5q-69 0 -134 -3l-65 -3q-15 0 -12 20l8 43q3 17 14 17h41q33 0 61 18t48.5 43t45 79t40.5 96t45 124l239 680q27 79 27 119q0 32 -22 48.5t-54 16.5h-80q-12 0 -16 4t-2 13l8 43q6 20 23 20q1 0 41.5 -1.5t135.5 -3t228 -1.5q26 0 34 -9.5t11 -37.5
l125 -919q3 -20 16 -23t25 14l668 942q12 17 24 25t35 8q85 0 175.5 1.5t148.5 3t65 1.5q22 0 19 -20l-8 -43q-3 -17 -21 -17h-41q-31 0 -59.5 -38t-48.5 -109l-263 -950q-15 -66 -0.5 -96.5t43.5 -30.5h64q17 0 14 -17l-8 -47q-2 -9 -6.5 -12.5t-17.5 -3.5q-5 0 -38.5 1.5
t-103 3t-162.5 1.5q-73 0 -134.5 -1.5t-94.5 -3t-37 -1.5q-21 0 -18 20l4 39q4 21 22 21h37q71 0 104 34.5t54 106.5z" />
    <glyph glyph-name="N" unicode="N" horiz-adv-x="1515" 
d="M508 1061l-154 -537q-99 -346 -63 -422q13 -28 45 -28h82q19 0 16 -21l-6 -43q-3 -10 -7.5 -13t-17.5 -3q-5 0 -38.5 1.5t-87.5 3t-111 1.5q-62 0 -114.5 -1.5t-82 -3t-35.5 -1.5q-17 0 -14 20l6 43q3 17 19 17h35q70 0 117 66t98 225l223 700q20 62 21.5 110t-12.5 73
t-32.5 37.5t-38.5 12.5h-82q-11 0 -14 4.5t0 16.5l10 43q5 16 23 16q5 0 43.5 -1.5t117.5 -3t183 -1.5q30 0 48 -12.5t30 -40.5l471 -913q8 -15 17.5 -11t15.5 23l167 547q38 121 49 195t-2 106t-49 32h-55q-14 0 -17.5 3.5t-2.5 13.5l6 49q3 14 20 14q7 0 36 -1.5t81.5 -3
t116.5 -1.5q63 0 117 3t59 3q14 0 18 -5.5t2 -18.5l-8 -39q-2 -17 -18 -17h-51q-70 0 -146 -213l-364 -1032q-18 -53 -43 -53q-37 0 -58 41l-538 1024q-8 13 -17 11.5t-14 -15.5z" />
    <glyph glyph-name="O" unicode="O" horiz-adv-x="1564" 
d="M762 -31q-235 0 -375 129q-186 172 -186 471q0 130 33 252.5t99 228t157.5 184.5t215.5 124t265 45q260 0 415.5 -152.5t155.5 -439.5q0 -161 -57.5 -313.5t-158 -269.5t-248 -188t-316.5 -71zM735 72q99 0 197 80t170.5 208.5t117.5 299t46 341.5q0 143 -64 221t-178 78
q-86 0 -163 -44t-126 -111q-123 -149 -202.5 -349.5t-79.5 -381.5q0 -164 73.5 -253t208.5 -89z" />
    <glyph glyph-name="P" unicode="P" horiz-adv-x="1282" 
d="M193 233l243 922q33 137 -41 137h-96q-14 0 -10 21l12 47q2 12 27 12q1 0 212 3t267 3q182 0 269 -18.5t157 -77.5q69 -58 96 -117t27 -161q0 -90 -35 -169.5t-105 -145t-188.5 -104t-271.5 -38.5q-107 0 -197 22l-94 -346q-16 -59 -0.5 -104t65.5 -45h82q20 0 17 -21
l-6 -43q-2 -9 -7 -12.5t-18 -3.5q-6 0 -43 1.5t-106.5 3t-153.5 1.5t-150 -1.5t-100.5 -3t-42.5 -1.5q-19 0 -16 20l4 39q4 21 22 21h33q32 0 57.5 12.5t42.5 36t27.5 49.5t20.5 61zM752 1305l-172 -652q51 -32 147 -32q104 0 184 62t118 151.5t38 185.5q0 67 -20.5 121
t-49.5 84t-64.5 50t-62.5 27t-47 7q-46 0 -71 -4z" />
    <glyph glyph-name="Q" unicode="Q" horiz-adv-x="1576" 
d="M1001 1403q121 0 222 -36t176.5 -106t117.5 -180.5t42 -251.5q0 -157 -57.5 -323.5t-170.5 -298.5q-78 -91 -202.5 -153t-254.5 -87q-101 -21 -229 -68.5t-211 -97.5l4 -18q112 20 271 20q234 0 335 -133q69 -89 101.5 -121t60.5 -32q24 0 41 17.5t17 39.5q0 30 -13 59
q-16 29 -16 68q0 40 26 65t74 25q53 0 77 -34t24 -87q0 -110 -93 -171.5t-258 -61.5q-90 0 -148 28t-114 84q-78 78 -162.5 120t-214.5 42q-86 0 -98 -18q-46 -76 -90 -76q-42 0 -61 33.5t-19 70.5q0 36 83 84t212 103t154 69v15q-198 36 -314 182t-116 406q0 101 29 205
t73 185.5t89.5 142.5t86.5 95q52 43 76 61t77 50t98.5 46t117.5 26t157 12zM1049 1298q-111 -1 -226 -94.5t-199 -230t-138 -295.5t-54 -289q0 -63 13.5 -114t34.5 -83.5t50 -57t56 -36.5t58 -19.5t49 -9t36 -1.5q102 0 207 86t183.5 219t128.5 301.5t50 324.5
q0 144 -57.5 221.5t-191.5 77.5z" />
    <glyph glyph-name="R" unicode="R" horiz-adv-x="1443" 
d="M137 172l328 1018q17 50 2 76t-66 26h-59q-19 0 -16 17l10 47q2 9 7 12.5t19 3.5q125 0 303.5 3t200.5 3q52 0 90.5 -1.5t93.5 -8t95.5 -18.5t84 -34.5t71 -53.5t45.5 -78.5t18 -106.5q0 -147 -141.5 -257t-354.5 -132v-4q27 -8 49.5 -22.5t39 -35t24 -32.5t18.5 -33
q3 -4 83.5 -169.5t101.5 -198.5q73 -119 176 -119h51q17 0 14 -21l-6 -43q-3 -16 -20 -16q-6 0 -24.5 1.5t-57 3t-90.5 1.5q-83 0 -147.5 -3t-71.5 -3q-14 0 -25.5 13t-34.5 52q-20 33 -114 244.5t-113 259.5q-7 16 -14.5 29.5t-14.5 23t-16 17t-15.5 12.5t-16.5 8.5
t-15.5 5t-15.5 2.5t-13.5 1h-13h-11.5l-145 -441q-21 -57 -17 -90t16 -45t30 -12h88q17 0 14 -17l-6 -51q-2 -12 -25 -12q-5 0 -42 1.5t-103.5 3t-144.5 1.5q-73 0 -133.5 -1.5t-94 -3t-39.5 -1.5q-15 0 -12 20l8 43q3 17 21 17h65q24 0 47 28.5t35 69.5zM776 1307
l-180 -572q4 0 32.5 -0.5t41 0t43.5 3t53 7.5t54 15t63 24q75 34 132.5 118.5t57.5 187.5q0 36 -11.5 72t-35 70t-67 55.5t-99.5 21.5q-59 0 -84 -2z" />
    <glyph glyph-name="S" unicode="S" horiz-adv-x="1085" 
d="M1100 1362l-74 -389q-3 -12 -16 -12l-45 2q-17 0 -17 18q2 24 0 52.5t-8.5 66t-22.5 72t-39.5 64t-62 47t-86.5 17.5q-79 0 -124.5 -57.5t-45.5 -122.5q0 -34 8.5 -65t19 -53t32.5 -49.5t37 -43t46 -45.5t46 -45q6 -6 32 -31.5t35.5 -36t34 -36.5t35 -43t29.5 -45.5
t28 -54t19.5 -57.5t15 -67.5t4.5 -74.5q0 -188 -122 -296t-310 -108q-162 0 -283 144q-13 16 -30.5 17t-24.5 -9q-45 -60 -53 -78q-7 -13 -21 -6l-26 10q-13 5 -9 21l152 446q5 11 18 8l45 -8q12 -4 9 -20q-13 -102 2 -185t50.5 -133t81 -77t95.5 -27q92 0 147.5 59
t55.5 139q0 35 -9.5 67t-33.5 66t-40 53t-55.5 59.5t-52.5 55.5q-104 114 -134 153q-98 131 -106 284q-1 17 -1 34q0 46 14 94t46 96.5t78 86t116.5 61t154.5 23.5q110 0 242 -92q10 -6 29 -6q20 0 32 67q3 9 21 6l26 -2q18 -3 15 -14z" />
    <glyph glyph-name="T" unicode="T" horiz-adv-x="1351" 
d="M211 14l6 43q3 17 23 17h55q79 0 118 44t76 163l308 1013q-177 0 -247 -9t-108 -42q-108 -96 -237 -229q-8 -8 -19 -4l-41 22q-10 3 -2 19q17 31 84.5 184.5t71.5 165.5q7 20 20 20q8 0 46 -20q59 -29 383 -29h432q152 0 227 8.5t109 28.5q21 12 28 12q9 0 15.5 -4
t5.5 -10q-5 -44 -14 -206.5t-5 -215.5q0 -9 -3 -11.5t-13 -4.5l-37 -6q-9 -2 -15.5 4.5t-13.5 25.5q-4 10 -25.5 72.5t-36.5 99.5t-28 56q-48 73 -301 73l-315 -1044q-29 -98 -9 -137t97 -39h80q18 0 14 -21l-8 -43q-3 -16 -27 -16q-5 0 -46.5 1.5t-133 3t-219.5 1.5
q-65 0 -129 -1.5t-104 -3t-46 -1.5q-11 0 -14.5 4.5t-1.5 15.5z" />
    <glyph glyph-name="U" unicode="U" horiz-adv-x="1519" 
d="M737 1186l-168 -547q-1 -3 -10.5 -37t-16 -59.5t-15 -62.5t-13 -70.5t-4.5 -59.5q0 -67 20.5 -118t48 -77.5t64 -42.5t60.5 -20t45 -4q78 0 149.5 22t118.5 60q77 61 130.5 156.5t96.5 259.5l125 471q37 129 30 185t-59 56h-53q-13 0 -16.5 4.5t-1.5 12.5l6 43
q3 11 8 15.5t18 4.5q1 0 75.5 -3t144.5 -3q52 0 94 1.5t64 3t28 1.5q13 0 16.5 -5t1.5 -19l-6 -39q-3 -17 -22 -17h-23q-45 0 -81 -56t-72 -167l-156 -504q-36 -115 -72 -199t-92 -164t-125 -129.5t-168 -79.5t-223 -30q-131 0 -231.5 40t-161 126t-60.5 209q0 102 43 256
l175 571q18 69 3 98t-55 29h-73q-18 0 -15 17l10 47q2 9 7 12.5t20 3.5q5 0 39.5 -1.5t106 -3t167.5 -1.5q73 0 132 1.5t89.5 3t34.5 1.5q22 0 19 -24l-8 -39q-3 -17 -21 -17h-51q-81 0 -117 -112z" />
    <glyph glyph-name="V" unicode="V" horiz-adv-x="1224" 
d="M229 1313l13 45q2 12 6 16t16 4q7 0 44.5 -1.5t107.5 -3t155 -1.5q66 0 124.5 1.5t92.5 3t41 1.5q15 0 20 -4.5t3 -15.5l-8 -43q-3 -17 -19 -17h-49q-94 0 -108 -86l-127 -753q-6 -38 7 -44.5t32 19.5l497 656q107 142 90 191q-6 17 -30 17h-35q-29 0 -23 25l8 39
q2 9 7 12.5t18 3.5q5 0 73.5 -3t129.5 -3q70 0 132 3t64 3q24 0 21 -24l-6 -35q-3 -21 -19 -21h-32q-48 0 -127 -71t-162 -172l-860 -1061q-26 -35 -70 -35q-26 0 -32 19.5t-1 60.5l152 1147q6 50 -8.5 81t-49.5 31h-67q-24 0 -21 15z" />
    <glyph glyph-name="W" unicode="W" horiz-adv-x="1742" 
d="M256 1313l10 49q3 16 25 16q4 0 37.5 -1.5t93 -3t129.5 -1.5q56 0 107 1.5t82.5 3t39.5 1.5q13 0 18 -4t3 -12l-8 -47q-3 -17 -21 -17h-24q-49 0 -74.5 -24.5t-32.5 -85.5l-100 -762q-3 -20 8 -23.5t22 13.5l387 575q34 53 56 118.5t22 111.5q0 77 -43 77h-20
q-12 0 -16.5 3.5t-2.5 9.5l9 55q3 12 24 12q5 0 30.5 -1.5t74.5 -3t112 -1.5q75 0 139 3l64 3q21 0 18 -24l-6 -39q-3 -17 -22 -17h-23q-57 0 -65 -98l-74 -782q-3 -32 7.5 -35t29.5 23q23 33 112 178t127 209q68 119 118 233.5t63 165.5q28 106 -50 106h-38q-20 0 -17 17
l8 43q3 20 23 20q3 0 62 -3t126 -3q81 0 148 3l67 3q28 0 25 -16l-10 -47q-3 -17 -17 -17h-34q-57 0 -97 -55q-9 -13 -90.5 -145.5t-178.5 -291.5t-112 -183q-39 -64 -184.5 -276.5t-216.5 -311.5q-55 -76 -96 -76q-27 0 -36.5 20.5t-6.5 61.5l30 813q1 18 -10 18t-22 -18
q-17 -26 -282.5 -396t-317.5 -440q-22 -31 -41.5 -45t-47.5 -14q-42 0 -36 80l112 1151q5 54 0 81t-24 27h-52q-12 0 -17 3.5t-3 11.5z" />
    <glyph glyph-name="X" unicode="X" horiz-adv-x="1300" 
d="M614 674l-170 497q-23 66 -45 96.5t-57 30.5h-53q-20 0 -17 21l7 39q1 8 2.5 11.5t4.5 6t9 2.5q1 0 98 -3t199 -3q76 0 147 3t72 3q22 0 18 -18l-6 -45q-3 -17 -18 -17h-39q-66 0 -37 -102l100 -332q22 19 160 167.5t156 176.5q20 31 6 60.5t-55 29.5h-37
q-11 0 -14.5 3.5t-2.5 13.5l7 51q3 12 24 12q8 0 40.5 -1.5t88.5 -3t121 -1.5t127 3t63 3q13 0 18 -4t3 -10l-6 -49q-2 -10 -5.5 -13.5t-13.5 -3.5h-34q-67 0 -162 -73q-14 -10 -233 -223.5t-226 -219.5l203 -602q15 -45 48.5 -75.5t65.5 -30.5h41q17 0 17 -21l-4 -43
q0 -9 -4 -12.5t-17 -3.5q-5 0 -35 1.5t-95 3t-154 1.5q-77 0 -158 -3t-90 -3q-18 0 -15 18l9 45q3 17 18 17h37q35 0 46.5 24t2.5 54q-11 40 -68 227t-67 211q-37 -37 -98 -100t-154.5 -166t-128.5 -154q-25 -34 -16 -65t51 -31h41q14 0 10 -21l-4 -39q-3 -20 -25 -20
q-6 0 -39.5 1.5t-94.5 3t-136 1.5q-59 0 -133.5 -3t-77.5 -3q-9 0 -14 4.5t-4 11.5l8 43q2 7 3 9.5t3 6t5.5 4.5t8.5 1h45q28 0 53 6.5t48.5 20.5t39 25t40.5 32t36 30q24 19 247.5 232t264.5 254z" />
    <glyph glyph-name="Y" unicode="Y" horiz-adv-x="1228" 
d="M461 178l67 303q12 56 -2 105l-209 635q-26 77 -124 77h-48q-17 0 -14 17l8 47q1 10 5.5 13t15.5 3q7 0 36 -1.5t89.5 -3t144.5 -1.5q85 0 150.5 1.5t98.5 3t40 1.5q21 0 18 -16l-4 -47q-3 -17 -18 -17h-53q-71 0 -46 -94l142 -532q5 -18 13 -25.5t17.5 -2t18.5 23.5
q2 3 150 243t159 275q18 60 1 86t-62 26h-49q-18 0 -15 21l4 47q2 12 25 12q4 0 79 -3t142 -3q60 0 110 1.5t78.5 3t36.5 1.5q13 0 18 -4.5t3 -15.5l-6 -45q-3 -15 -17 -15h-39q-88 0 -145 -88q-5 -7 -209 -296t-221 -320q-31 -57 -57 -178l-52 -228q-9 -39 -9.5 -61.5
t10 -34.5t26 -15t47.5 -3h33q17 0 14 -17l-6 -47q-3 -16 -22 -16q-9 0 -41.5 1.5t-94.5 3t-141 1.5q-85 0 -148.5 -1.5t-94 -3t-35.5 -1.5q-10 0 -14 3.5t-3 12.5l8 47q0 17 19 17h39q111 0 133 104z" />
    <glyph glyph-name="Z" unicode="Z" horiz-adv-x="1388" 
d="M741 0h-643q-12 0 -21 7.5t-9 17.5q0 19 16 38l1040 1231q-443 0 -579 -47q-59 -23 -116 -73.5t-91 -122.5q-10 -17 -27 -13l-35 15q-13 3 -8 14l92 315q8 31 21 31t31 -14q20 -15 120 -21t179 -6h731q14 0 22.5 -7t8.5 -17q0 -22 -15 -41l-1028 -1227q244 0 361 8.5
t227 42.5q54 18 121 72.5t118 138.5q10 15 21 10l33 -16q16 -6 8 -25l-111 -323q-6 -23 -22 -23q-18 0 -39 12q-38 23 -406 23z" />
    <glyph glyph-name="bracketleft" unicode="[" horiz-adv-x="634" 
d="M553 1581h410q10 0 14.5 -3.5t1.5 -10.5l-14 -54q-4 -10 -29 -10h-201q-9 0 -14.5 -5.5t-9.5 -22.5l-500 -1823q-4 -21 12 -21h228q17 0 14 -14l-12 -47q-1 -9 -7 -11.5t-24 -2.5h-426q-19 0 -10 28l538 1977q3 11 9 15.5t20 4.5z" />
    <glyph glyph-name="backslash" unicode="\" horiz-adv-x="655" 
d="M606 -4l-90 -25q-15 -3 -20 19l-279 1366q-5 15 14 18l95 29q21 4 24 -14l277 -1375q1 -7 -4.5 -11.5t-16.5 -6.5z" />
    <glyph glyph-name="bracketright" unicode="]" horiz-adv-x="634" 
d="M10 -338l500 1823q4 20 -12 20h-228q-17 0 -14 15l12 47q1 9 7 11.5t24 2.5h418q24 0 18 -29l-538 -1976q-3 -11 -9 -15.5t-20 -4.5h-410q-10 0 -14.5 3.5t-1.5 10.5l14 53q4 10 29 10h201q9 0 14.5 6t9.5 23z" />
    <glyph glyph-name="asciicircum" unicode="^" 
d="M94 549l426 854h68l426 -854h-164l-293 616h-12l-295 -616h-156z" />
    <glyph glyph-name="underscore" unicode="_" 
d="M0 -256v102h1024v-102h-1024z" />
    <glyph glyph-name="grave" unicode="`" horiz-adv-x="491" 
d="M580 985l-15 -16q-7 -11 -18 0l-244 161q-43 29 -47.5 68.5t21.5 67.5t63 28q51 0 82 -49l158 -244q8 -8 0 -16z" />
    <glyph glyph-name="a" unicode="a" horiz-adv-x="974" 
d="M807 885h145q10 0 15 -7t2 -18q-138 -391 -146 -426q-3 -12 -23.5 -81.5t-38.5 -134.5t-18 -79q0 -24 25 -24q9 0 22.5 9.5t28.5 26t25.5 29.5t24 30.5t14.5 18.5q12 14 20 9l25 -17q7 -5 -2 -26q-8 -16 -23 -38.5t-45 -54.5t-65.5 -58.5t-86 -45t-104.5 -18.5
q-43 0 -63.5 18.5t-20.5 46.5q0 34 80 266l-18 11q-90 -138 -144 -198q-130 -144 -264 -144q-44 0 -92.5 50.5t-48.5 108.5q0 77 28 175t80.5 195.5t119 179.5t151 133.5t168.5 51.5q101 0 159 -71l33 59q14 23 37 23zM274 207q0 -62 50 -62q25 0 87.5 71.5t119 154.5
t77.5 127q47 103 47 196q0 33 -29.5 62.5t-60.5 29.5q-76 0 -153 -139q-71 -127 -104.5 -241.5t-33.5 -198.5z" />
    <glyph glyph-name="b" unicode="b" horiz-adv-x="962" 
d="M358 1389h353q14 0 18.5 -11.5t-2.5 -25.5l-332 -740l21 -10q40 61 73 102t79.5 84t102.5 64.5t120 21.5q67 0 109 -55.5t42 -126.5q0 -108 -49.5 -242t-171.5 -264q-95 -102 -209 -154t-297 -52q-78 0 -130 38t-52 109q0 63 24 129q154 419 377 973q17 43 17 55
q0 13 -14.5 22t-33.5 9h-67q-15 0 -12 14l14 43q6 17 20 17zM258 127q0 -30 14.5 -44t53.5 -17q37 0 92.5 35.5t103.5 93.5q178 209 178 436q0 44 -14.5 71t-36.5 27q-40 0 -109.5 -69.5t-142.5 -184.5q-52 -80 -95.5 -190.5t-43.5 -157.5z" />
    <glyph glyph-name="c" unicode="c" horiz-adv-x="677" 
d="M567 199l25 -21q12 -8 2 -22q-13 -20 -41.5 -46.5t-71.5 -57t-103.5 -51.5t-121.5 -21q-77 0 -141 59.5t-64 167.5q0 74 24 163.5t71 178t108 161.5t142.5 118.5t166.5 45.5q81 0 120.5 -37.5t39.5 -74.5q0 -46 -30 -82.5t-62 -36.5q-66 0 -82 53q-19 66 -66 66
q-26 0 -46.5 -31t-51.5 -106q-34 -86 -45.5 -119.5t-24 -104t-12.5 -155.5q0 -58 16 -93.5t62 -35.5q42 0 93.5 24t74.5 49q11 14 18 9z" />
    <glyph glyph-name="d" unicode="d" horiz-adv-x="995" 
d="M758 1389h344q41 0 26 -43q-25 -66 -180.5 -566.5t-175.5 -586.5q-10 -43 -7.5 -66t21.5 -23q8 0 22 9t29.5 23.5t28.5 27.5t25.5 26.5t13.5 14.5q11 11 21 2l24 -25q9 -9 0 -20q-10 -13 -22 -26.5t-46.5 -44.5t-71 -53t-92 -40t-112.5 -18q-38 0 -58 16.5t-20 44.5
q0 60 74 274l-24 13q-35 -58 -62.5 -99t-68.5 -91.5t-78 -82t-83.5 -53.5t-92.5 -22q-71 0 -116.5 61.5t-45.5 130.5q0 109 60.5 259t176.5 278q155 165 310 165q99 0 155 -65l115 422q10 35 -4.5 59.5t-52.5 24.5h-60q-11 0 -14.5 4.5t-1.5 9.5l8 47q3 13 35 13zM666 666
q0 60 -26.5 97.5t-76.5 37.5q-51 0 -119 -118.5t-114.5 -262.5t-46.5 -223q0 -72 49 -72q15 0 36.5 18.5t55 62t52.5 70t61 86.5q48 67 88.5 157.5t40.5 146.5z" />
    <glyph glyph-name="e" unicode="e" horiz-adv-x="798" 
d="M645 227l33 -22q11 -8 4 -21q-21 -41 -72 -86t-138.5 -81.5t-180.5 -36.5q-107 0 -173.5 61t-66.5 168q0 129 61 272t187 250q166 143 342 143q81 0 120.5 -39t39.5 -102q0 -159 -187 -266q-139 -78 -301 -90q-16 -36 -16 -129q0 -56 30 -94.5t81 -38.5q123 0 221 106
q8 12 16 6zM330 453q31 -2 88.5 20.5t97.5 61.5q27 25 46.5 72t19.5 95q0 70 -56 70q-54 0 -112 -103t-84 -216z" />
    <glyph glyph-name="f" unicode="f" horiz-adv-x="632" 
d="M98 813h170q15 39 37 108t37 109.5t53.5 104t96.5 127.5q44 49 139.5 98t183.5 49q123 0 181.5 -43.5t58.5 -105.5q0 -39 -31 -71t-74 -32q-61 0 -90 27.5t-39 81.5q-12 59 -65 59q-35 0 -66.5 -28t-53.5 -70t-43 -106t-35.5 -119.5t-31.5 -128.5q-9 -41 -14 -60h215
q17 0 14 -18l-10 -52q-2 -11 -6.5 -15.5t-15.5 -4.5h-213q-11 -42 -51 -202t-77.5 -297.5t-70.5 -233.5q-31 -92 -70 -175t-91 -161.5t-109.5 -135.5t-127.5 -91.5t-143 -34.5q-90 0 -140 36.5t-50 96.5q0 45 27 76.5t73 31.5q48 0 75 -31t32 -83q3 -35 45 -35
q74 0 138.5 131t129.5 410l164 698h-172q-8 0 -12 5.5t-3 12.5l13 56q3 16 22 16z" />
    <glyph glyph-name="g" unicode="g" horiz-adv-x="960" 
d="M307 -608q-195 0 -328 76t-133 180q0 54 15 85t65 72q12 10 26.5 20t26.5 18t28.5 17l27.5 15t29.5 14.5t26.5 12.5t27.5 12.5t24.5 10.5t24.5 9.5t20.5 8.5q-44 33 -61.5 62t-17.5 65q0 35 50 76t134 77v4q-66 33 -101 62.5t-54 77.5t-19 122q0 45 17.5 96.5t54 102.5
t86.5 92.5t122 67.5t154 26q91 0 146 -30.5t77 -65.5q96 74 170 74q46 0 70 -28.5t26 -65.5q-1 -40 -25 -64t-61 -24q-35 0 -65 30q-23 23 -35 23q-27 0 -45 -18q12 -30 12 -109q0 -30 -13.5 -72.5t-42.5 -92t-69 -93t-99.5 -76t-127.5 -41.5q-91 -12 -92 -12
q-31 -13 -50.5 -37.5t-19.5 -48.5q0 -15 17 -32.5t34 -27.5q7 -4 106.5 -55.5t188.5 -101.5q160 -90 160 -209q0 -150 -160 -232q-72 -37 -151.5 -55t-196.5 -18zM346 385q0 -52 14.5 -74t47.5 -22q49 0 94 63.5t69.5 152.5t24.5 169q0 27 -0.5 39.5t-2 31t-5 26.5t-9.5 17
t-16 12t-24 3q-34 0 -58 -21t-53 -75q-40 -72 -58 -125t-21 -83t-3 -93v-21zM365 -532q76 0 141 38t65 109q0 62 -28 93t-121 85q-134 70 -189 107q-74 -45 -113.5 -94.5t-39.5 -124.5q0 -106 78 -159.5t207 -53.5z" />
    <glyph glyph-name="h" unicode="h" 
d="M719 1296l-303 -714l18 -15q82 131 178.5 219t196.5 88q182 0 182 -217q0 -105 -36.5 -226t-94.5 -222q-160 -275 -364 -275q-56 0 -93 34.5t-36 97.5q-2 41 23 72.5t67 31.5q38 0 58 -22.5t24 -53.5q2 -36 10 -55t29 -19q15 0 29 17t27 51.5t23 66t24 80.5q5 17 7 25
q68 237 68 373q0 88 -62 88q-48 0 -121.5 -74.5t-138.5 -161.5q-72 -99 -104 -184l-117 -287q-7 -14 -35 -14h-164q-13 0 -19 7t-1 18l426 1144q29 75 29 107q0 17 -17.5 28t-46.5 11h-57q-16 0 -13 16l11 41q3 7 4 9.5t5.5 5t12.5 2.5h369q11 0 17.5 -6.5t6.5 -14.5
q0 -21 -22 -72z" />
    <glyph glyph-name="i" unicode="i" horiz-adv-x="606" 
d="M535 238l24 -25q9 -9 2 -20q-8 -13 -20 -29.5t-49 -52t-79 -62t-109.5 -48t-141.5 -21.5q-80 0 -80 61q0 6 1 14t4.5 20.5t6.5 24.5t10 33l13 39t16.5 49t19.5 56t23.5 68t26.5 77l55 162q31 91 31 114q0 11 -7 19t-20 8q-22 0 -71 -49.5t-78 -87.5q-13 -12 -23 -2
l-18 18q-12 12 -6 19l8 10q7 10 16 21t24 28.5t31.5 34t38.5 36t45 36.5t50.5 33t55.5 27t60 18t64 7q45 0 67.5 -20t22.5 -53q0 -11 -2.5 -25t-5.5 -26t-10 -35t-12 -37.5t-17 -48.5t-19 -54l-110 -313q-33 -93 -33 -125q0 -28 27 -28q26 0 80.5 51.5t70.5 75.5q8 11 17 2z
M475 1331q71 0 108.5 -32t37.5 -82q0 -49 -43.5 -92.5t-98.5 -43.5q-60 0 -95.5 33.5t-35.5 91.5q0 48 38 86.5t89 38.5z" />
    <glyph glyph-name="j" unicode="j" horiz-adv-x="571" 
d="M-207 -471q-95 0 -150 41.5t-55 91.5q-2 51 28.5 88t76.5 37q53 0 83.5 -34t30.5 -75q0 -30 10.5 -49.5t24.5 -19.5q71 0 138.5 142t160.5 444l131 423q11 36 11 72q0 12 -10 21.5t-23 9.5q-28 0 -73 -34t-77 -66q-8 -8 -16 0l-21 22q-8 8 -2 16q13 19 46.5 50.5t86 70.5
t125.5 66.5t144 27.5q32 0 58 -22t26 -55q0 -30 -20 -116t-56 -194l-119 -354q-13 -37 -30 -79.5t-46.5 -103.5t-63.5 -116t-80.5 -112.5t-96.5 -98.5t-113 -67.5t-129 -26.5zM498 1346q69 0 106 -35t37 -84q0 -57 -45.5 -101.5t-103.5 -44.5t-103 37.5t-45 83.5
q-2 58 40 101t114 43z" />
    <glyph glyph-name="k" unicode="k" horiz-adv-x="964" 
d="M406 512l-48 -113q58 -12 125.5 15t120 74.5t88 104t35.5 99.5q0 20 -12.5 35.5t-34.5 15.5q-35 0 -109.5 -59.5t-103.5 -95.5q-2 -3 -27.5 -32t-33.5 -44zM190 0h-180q-12 0 -16.5 10t0.5 21l452 1194q17 41 2.5 65.5t-55.5 24.5h-57q-16 0 -10 20l12 37q1 1 2 3.5
t2 3.5t2 3t2 2.5l3 1.5t3.5 1.5t4 1t5.5 0.5h375q14 0 17 -13.5t-4 -27.5l-310 -699l15 -8q65 85 165 159t195 74q62 0 101.5 -34t39.5 -99q0 -48 -30 -97t-73.5 -86.5t-98 -72t-97.5 -55.5t-79 -35v-16l151 -232q47 -69 80 -69q37 0 84 47q9 9 18 0l23 -27q6 -8 -6 -20
q-94 -98 -242 -98q-82 0 -123.5 27t-73.5 95l-88 205q-15 37 -65 37l-115 -330q-5 -14 -31 -14z" />
    <glyph glyph-name="l" unicode="l" horiz-adv-x="532" 
d="M322 1389h360q29 0 14 -37l-409 -1149q-16 -43 -12 -65.5t32 -22.5q48 0 148 100q9 9 18 0l23 -25q7 -10 0 -22q-4 -6 -22 -25t-54.5 -47.5t-80 -53.5t-104.5 -43.5t-122 -18.5q-31 0 -59.5 29.5t-28.5 56.5q0 28 57 190l321 930q45 129 -38 129h-60q-20 0 -16 18l12 41
q5 15 21 15z" />
    <glyph glyph-name="m" unicode="m" horiz-adv-x="1572" 
d="M254 0h-172q-12 0 -17.5 7.5t-1.5 19.5l134 387q11 31 26.5 75t26 75l21 62t16 51.5t4.5 29.5q0 28 -25 28q-18 0 -70.5 -51.5t-68.5 -75.5q-10 -13 -23 0l-22 21q-10 10 -4 18q15 24 44.5 57t75 74t105.5 68.5t117 27.5q63 0 89 -20t26 -59q0 -27 -27 -98.5t-62 -150.5
t-38 -87l20 -15q93 156 134 213q157 217 302 217q50 0 89.5 -31.5t39.5 -68.5q0 -61 -104 -323l18 -15q15 22 49 75.5t55.5 85t57 80t66 78.5t68 60t77.5 44.5t82 14.5q58 0 91.5 -38.5t33.5 -75.5q0 -67 -107 -371q-10 -28 -23.5 -65.5t-21.5 -60t-16.5 -47t-12 -39.5
t-3.5 -23q4 -29 24 -29q22 0 58 35.5t56.5 63.5t31.5 46q8 13 16 9l29 -21q10 -8 2 -27q-4 -8 -19.5 -31.5t-50 -62.5t-76.5 -73t-103 -59t-124 -25q-47 0 -69.5 22t-24.5 51q-3 57 110 353q49 130 65.5 182.5t16.5 79.5q0 39 -37 39q-25 0 -115.5 -110t-189.5 -259
q-43 -71 -69 -145l-64 -181q-5 -12 -29 -12h-174q-29 0 -20 27l123 340q94 260 94 299q0 41 -35 41q-26 0 -116 -104.5t-177 -237.5q-45 -65 -86 -170l-67 -181q-5 -14 -29 -14z" />
    <glyph glyph-name="n" unicode="n" horiz-adv-x="1087" 
d="M244 0h-174q-10 0 -16 7t-3 16l142 393q92 253 92 289q0 32 -27 32q-20 0 -64 -38t-73 -72q-11 -11 -21 -2l-20 22q-11 9 -2 21q15 20 30.5 38t52.5 51.5t75.5 56.5t96.5 41.5t118 18.5q41 0 61 -24.5t20 -54.5q0 -41 -98 -267l19 -14q87 128 139 187q154 173 295 173
q61 0 96 -44t35 -93q0 -32 -24 -107.5t-95 -275.5q-65 -184 -65 -209q0 -34 26 -34q17 0 55.5 32.5t57.5 55.5q9 11 20 0l19 -17q13 -10 2 -24q-15 -20 -38.5 -43t-67.5 -57t-107 -56t-131 -22q-43 0 -62.5 21.5t-19.5 55.5q0 37 106 340q82 234 82 269q0 45 -41 45
q-35 0 -126 -97.5t-154 -199.5q-9 -15 -26 -41.5t-26 -41t-20.5 -33.5t-18.5 -32.5t-10 -23.5l-80 -230q-6 -12 -30 -12z" />
    <glyph glyph-name="o" unicode="o" horiz-adv-x="858" 
d="M334 -20q-37 0 -74 10t-73 34t-63 59t-44 89t-17 121q0 132 39.5 252.5t122.5 210.5q113 118 293 118q37 0 73 -7t76.5 -27.5t70 -52.5t49.5 -87t20 -127q0 -110 -42 -246t-130 -229q-59 -64 -130 -91t-171 -27zM305 98q50 0 101 45t110 158q49 92 87 203t38 166
q0 40 -18.5 64t-57.5 24q-57 0 -107 -54t-122 -184q-50 -88 -76.5 -176.5t-26.5 -155.5q0 -34 19.5 -62t52.5 -28z" />
    <glyph glyph-name="p" unicode="p" horiz-adv-x="1017" 
d="M461 1067l233 66q8 4 13 4q10 0 10 -9q0 -2 -2.5 -8t-3.5 -8l-111 -242q18 4 68 4q145 0 228 -79t83 -207q0 -251 -252 -434q-79 -58 -195 -99.5t-239 -54.5l-131 -401q-26 -79 -13 -109.5t70 -30.5h57q7 0 11 -5t2 -11l-13 -45q-4 -12 -24 -12q-5 0 -34.5 1.5t-87.5 3
t-134 1.5q-84 0 -145 -1.5t-89.5 -3t-33.5 -1.5q-18 0 -15 16l11 41q4 16 16 16h47q99 0 156 162l376 1090q-65 -17 -132 -67t-97 -91q-10 -13 -22 -4l-21 18q-10 8 0 23q131 177 315 241l62 209q6 22 37 27zM563 764l-241 -688q65 10 136.5 48t135.5 95.5t105.5 141
t41.5 174.5q0 122 -37 177.5t-88 55.5q-33 0 -53 -4z" />
    <glyph glyph-name="q" unicode="q" horiz-adv-x="987" 
d="M788 799l175 71q22 11 43 11q14 0 18 -14.5t-6 -45.5l-469 -1257q-18 -56 -10.5 -80.5t34.5 -24.5h58q18 0 12 -16l-12 -41q-3 -16 -21 -16q-7 0 -37 1.5t-87 3t-128 1.5q-75 0 -134.5 -1.5t-90.5 -3t-37 -1.5q-19 0 -16 20l8 37q5 16 18 16h52q52 0 88 21.5t61 79.5
l221 510l-16 12q-42 -45 -104.5 -73.5t-122.5 -28.5q-28 0 -56.5 7t-58.5 25.5t-53.5 45.5t-38.5 71t-15 98q0 320 213 531q70 67 140.5 91.5t175.5 24.5q58 0 101.5 -21.5t66.5 -51.5q9 -12 28 -2zM350 66q66 1 133.5 80t113.5 184t75.5 200.5t29.5 137.5q0 114 -73 114
q-35 0 -59 -14t-62 -57q-95 -107 -167.5 -272.5t-72.5 -280.5q0 -44 21 -68t61 -24z" />
    <glyph glyph-name="r" unicode="r" horiz-adv-x="798" 
d="M281 0h-177q-10 0 -15.5 5.5t-2.5 12.5l98 332q99 325 99 357q0 15 -10 26.5t-25 11.5q-24 0 -68 -38t-67 -74q-12 -18 -25 -8l-20 14q-8 6 0 25q15 28 41 59t67 67.5t99 60t120 23.5q55 0 81 -23.5t26 -57.5q0 -33 -73 -229l-15 -42l22 -12q164 364 324 364
q46 0 81.5 -31t35.5 -79q0 -51 -31.5 -92t-61.5 -41q-43 0 -67 16q-2 2 -11.5 8t-14 8.5t-14 5.5t-18.5 3q-44 0 -112.5 -89t-106.5 -177q-32 -78 -67 -185l-66 -207q-6 -14 -26 -14z" />
    <glyph glyph-name="s" unicode="s" horiz-adv-x="665" 
d="M197 -20q-107 0 -163.5 33t-56.5 89q0 46 25.5 73.5t63.5 27.5q69 0 110 -97q8 -22 23 -36.5t32 -14.5q94 0 97 138q1 30 -10 54.5t-41 67.5t-46 72q-7 11 -20.5 34t-18 31t-14 25t-13 25t-9 22t-7 24.5t-3 23.5t-1.5 28q0 113 90 193.5t250 80.5q45 0 83 -10.5t66 -40
t28 -73.5q0 -47 -24.5 -75t-68.5 -28q-80 0 -90 86q-3 25 -16 43.5t-33 18.5q-36 0 -55 -22t-19 -91q0 -76 107 -201q47 -57 61.5 -100.5t14.5 -108.5q0 -126 -91 -209t-251 -83z" />
    <glyph glyph-name="t" unicode="t" horiz-adv-x="657" 
d="M674 1106l-131 -293h207q16 0 10 -18l-15 -54q-6 -18 -26 -18h-207l-168 -451q-2 -8 -8.5 -26.5t-10 -31t-7 -27t-3.5 -23.5q0 -16 12 -27.5t33 -11.5q26 0 94 42.5t81 57.5q8 10 18 0l22 -24q9 -9 7 -17q-14 -18 -47.5 -47.5t-87.5 -67t-128 -63.5t-147 -26
q-50 0 -78 23t-28 50q0 71 22 127l186 543h-159q-9 0 -12.5 6.5t-0.5 15.5l13 54q6 14 22 14h170l68 221q6 16 18.5 22t50.5 7q35 3 98 28.5t83 38.5q22 13 32 13t16 -13t1 -24z" />
    <glyph glyph-name="u" unicode="u" horiz-adv-x="1067" 
d="M829 854h183q13 0 19 -7.5t1 -19.5l-143 -438q-74 -226 -74 -252q3 -24 27 -24q12 0 31 17t33.5 34.5t38.5 47.5q5 6 7 9q10 13 21 2l22 -16q7 -5 0 -23q-10 -20 -27 -42.5t-47.5 -52.5t-66 -53.5t-86.5 -39.5t-106 -16q-40 0 -63.5 18.5t-23.5 50.5q0 24 37 133t64 178
l-23 13q-24 -38 -38 -59t-48 -68t-60.5 -77t-67 -69.5t-76 -62.5t-80 -40t-86.5 -17q-38 0 -74 36t-33 64q0 42 16.5 100t34.5 104t72 177q82 201 82 252q0 15 -10 25t-25 10q-21 0 -62 -32t-77 -75q-11 -14 -23 -2l-20 20q-7 10 0 19q21 27 34 42.5t49 49t70 52.5t87 35.5
t110 16.5q49 0 78 -28t29 -68q0 -78 -111 -350q-86 -211 -86 -254q0 -16 11 -26.5t24 -10.5q25 0 127.5 118.5t144.5 188.5q48 82 88 199l66 197q5 14 30 14z" />
    <glyph glyph-name="v" unicode="v" horiz-adv-x="1136" 
d="M520 -20q-48 0 -80.5 16t-68.5 49q-49 46 -49 170q0 113 51 227q14 31 33.5 65t36.5 58.5t43 57.5t39 48l39 45t30 34l-12 14q-66 -66 -199 -66h-100q-110 0 -113 -59q0 -6 3 -11.5t8.5 -10.5t9.5 -9t12.5 -9t12 -7.5t11.5 -7t9 -4.5q15 -9 30 -33.5t15 -59.5
q0 -84 -91 -84q-45 0 -77.5 42.5t-32.5 117.5q0 56 26 113.5t54 89.5q22 24 34.5 35.5t40.5 29t67 25.5t91 8q110 0 178 2.5t92 5t27 2.5q23 0 31.5 -9t-2.5 -31q-89 -140 -112 -189q-54 -115 -58 -279v-30q0 -95 32 -148t74 -53q114 0 172 82q61 88 82 163.5t21 188.5
q8 91 -31 125q-9 9 -19 33t-10 43q0 30 36.5 67t101.5 37q55 0 82.5 -50.5t27.5 -123.5q0 -105 -28.5 -189.5t-118.5 -229.5q-81 -133 -197.5 -217t-253.5 -84z" />
    <glyph glyph-name="w" unicode="w" horiz-adv-x="1589" 
d="M367 854h174q15 0 31.5 1t37.5 2.5t33 2.5q53 6 96 6q21 0 28 -11.5t-7 -31.5q-60 -79 -128.5 -231t-68.5 -277q0 -55 30.5 -99.5t74.5 -45.5q103 0 176 90q55 66 80 270q2 18 3.5 67t6 95.5t14.5 83.5q10 36 46 54t73 18q35 0 58.5 -16t23.5 -41t-12 -61t-33 -89.5
t-33 -95.5q-45 -175 -45 -230q0 -62 30.5 -103.5t94.5 -41.5q100 0 171 93.5t71 225.5q0 66 -15 120.5t-35 72.5q-17 13 -32 41t-15 51q0 41 29 70.5t72 29.5q77 0 120.5 -56.5t43.5 -170.5q0 -112 -49.5 -241t-127.5 -238q-32 -44 -58.5 -73.5t-64 -58t-83.5 -42.5
t-101 -14q-160 0 -196 208q-24 -33 -55 -64.5t-75 -66.5t-98.5 -56t-109.5 -21q-100 0 -153.5 59t-53.5 164q0 83 53.5 199t117.5 206.5t126 157.5l-10 6q-5 -3 -28 -19.5t-46.5 -32t-63 -29t-79.5 -13.5h-160q-75 0 -78 -39q-1 -17 14 -31.5t28 -20.5t30 -12q45 -19 45 -88
q0 -36 -23.5 -61t-68.5 -25t-79 50.5t-34 130.5q0 61 23.5 106t66.5 94q37 42 78.5 57t118.5 15z" />
    <glyph glyph-name="x" unicode="x" horiz-adv-x="962" 
d="M461 109l-43 200l-8 2q-42 -69 -71 -113t-74 -101.5t-88 -87t-83 -29.5q-41 0 -65.5 20t-24.5 61q0 31 15.5 99t31.5 108q4 11 17 8l30 -8q11 -3 8 -16q-16 -75 -9 -99t36 -24q30 0 115.5 88t148.5 178l-69 283q-9 47 -43 47q-21 0 -55 -43.5t-68 -108.5q-7 -13 -21 -6
l-28 15q-7 2 -4 16q4 12 16.5 38.5t41 69t63 79t86 63t106.5 26.5q48 0 80 -31.5t41 -90.5l30 -185h13q93 174 149 230q45 45 73 59q35 18 77 18q41 0 61.5 -22.5t20.5 -58.5q0 -37 -16.5 -104t-39.5 -120q-7 -13 -20 -8l-25 8q-17 6 -14 17q20 74 17 104.5t-31 30.5
q-30 0 -98 -70t-140 -166l78 -323q12 -53 51 -53q20 0 66 56.5t55 82.5q3 8 18 2l25 -12q13 -7 6 -21l-9 -17q-10 -17 -14.5 -25t-17.5 -28.5t-22.5 -32.5t-26.5 -32t-32 -32t-36.5 -27t-42.5 -23t-47 -14t-53 -6q-59 0 -91 31t-46 98z" />
    <glyph glyph-name="y" unicode="y" horiz-adv-x="911" 
d="M94 563l-31 6q-10 3 -4 29q4 16 12 39t31.5 68t54 80t82.5 62t113 27q64 0 96 -52.5t41 -190.5q11 -162 13.5 -335t-2.5 -218l24 -2q26 45 86.5 183t75.5 204q16 83 16 137q0 28 -18 89t-18 87q0 38 28.5 68t81.5 30q68 0 95.5 -40t27.5 -117q0 -54 -45 -175.5
t-104 -232.5q-96 -180 -242.5 -396t-267.5 -337q-32 -34 -54.5 -54.5t-67.5 -56t-93 -54.5t-95 -19q-67 0 -103 30.5t-36 77.5q0 53 32 89t71 36q38 0 71 -37q32 -32 66 -32q41 0 82 28q41 25 84.5 69.5t66 73.5t39.5 56q37 53 25 162q0 3 -35.5 330.5t-46.5 386.5
q-5 26 -12.5 37.5t-24.5 11.5q-28 0 -56.5 -46.5t-39.5 -91.5q-5 -13 -19 -10z" />
    <glyph glyph-name="z" unicode="z" horiz-adv-x="995" 
d="M213 229l412 389l-9 13q-77 -12 -127 3.5t-94 61.5q-4 4 -20.5 21t-25 25t-22.5 20t-25.5 17t-22.5 5q-13 0 -24 -8.5t-11 -19.5q0 -23 20 -37q43 -31 41 -82q3 -33 -23.5 -60.5t-58.5 -27.5q-54 0 -86.5 31.5t-32.5 89.5q0 81 71.5 142.5t193.5 61.5q158 0 258 -65
q6 -4 17.5 -11.5t15.5 -10t12.5 -8t12 -7t10 -5t9.5 -4.5t8.5 -2.5t9.5 -2t9 -0.5q30 0 51 69q11 35 43 65t78 30q31 0 50.5 -18t19.5 -42q0 -52 -59 -113t-132 -104l-411 -383l4 -14q63 3 107 -9.5t62 -27t46 -45.5q13 -14 30.5 -33.5t27.5 -30t23 -24.5t21.5 -21.5
t18.5 -14.5t18 -10t16 -3q31 0 52.5 17.5t21.5 39.5q0 28 -22 61q-33 47 -33 101q0 35 29 58.5t69 23.5q105 0 105 -129q0 -38 -9.5 -73.5t-33 -70.5t-60 -60.5t-94.5 -41.5t-131 -16q-102 0 -157.5 20.5t-104.5 67.5q-7 7 -23 24t-25 25.5t-22 19.5t-23 16t-18 5
q-21 0 -40 -18t-29 -54q-23 -76 -109 -76q-31 0 -47 21.5t-16 48.5q0 63 61 118t127 72z" />
    <glyph glyph-name="braceleft" unicode="{" horiz-adv-x="634" 
d="M387 1167q10 89 51.5 162.5t103.5 122t129 78.5t138 43q41 8 94 8q35 0 35 -29q0 -43 -25 -43q-19 0 -65 -8q-105 -21 -162.5 -95.5t-77.5 -229.5q-7 -53 -16 -164.5t-17 -145.5q-30 -126 -157 -196q-12 -7 -30 -16t-29 -15t-22 -13.5t-16.5 -14.5t-5.5 -15q0 -5 4 -11
t13 -12.5t15.5 -11t19.5 -12.5t16 -10q76 -51 76 -138q0 -26 -10 -64.5t-20 -65.5t-29.5 -74.5t-24.5 -61.5q-43 -103 -43 -225q0 -123 34.5 -192t96.5 -83q36 -8 72 -8q9 0 11.5 -9t2.5 -34q0 -28 -14 -28q-42 0 -93 6q-36 4 -75 16.5t-84.5 40.5t-81 66.5t-59 101
t-23.5 137.5q0 121 78 285q6 13 24 48t25 50.5t18 42t15 47.5t4 41q0 78 -21 105q-18 24 -78 30q-26 4 -26 39t37 35q35 0 94 25q34 15 61 51t31 84q6 57 1.5 170t4.5 190z" />
    <glyph glyph-name="bar" unicode="|" horiz-adv-x="512" 
d="M279 -512v2054q0 19 12 19h112q15 0 15 -25v-2048q0 -20 -10 -20h-117q-12 0 -12 20z" />
    <glyph glyph-name="braceright" unicode="}" horiz-adv-x="634" 
d="M653 1212q0 -120 -78 -284q-6 -11 -24 -47.5t-25 -51.5t-18 -42t-15 -48t-4 -41q0 -71 21 -98q21 -31 78 -37q26 -4 26 -33q0 -41 -36 -41h-8.5h-9h-8t-8 -0.5l-7.5 -1.5t-8 -2l-7.5 -2.5t-9 -4t-8.5 -5.5q-46 -21 -77.5 -59t-35.5 -84q-6 -57 -1.5 -170.5t-4.5 -190.5
q-8 -72 -37.5 -134t-71.5 -106.5t-95.5 -79t-107.5 -55t-110 -30.5q-41 -8 -94 -8q-35 0 -35 28q0 43 25 43q19 0 65 8q105 21 162.5 96t77.5 230q7 53 16 164t17 145q13 53 51 106t106 91q12 7 30 16t29 15t22 13.5t16.5 14.5t5.5 15q0 17 -68 55q-76 44 -76 139
q0 26 10 64.5t20 65.5t29.5 74.5t24.5 61.5q43 103 43 226q0 121 -36 191.5t-95 84.5q-27 6 -71 6q-15 0 -15 41q0 31 17 31q39 0 90 -6q36 -4 75 -16.5t84.5 -40.5t81 -67t59 -101.5t23.5 -137.5z" />
    <glyph glyph-name="asciitilde" unicode="~" 
d="M809 674h129q0 -174 -59 -255t-156 -81q-75 0 -170 53l-82 49q-2 1 -11.5 6.5t-14.5 8t-15 8t-18 8t-17.5 6t-19.5 5t-19 1.5q-50 -8 -75 -47t-25 -127h-129q0 166 65.5 252t167.5 86q64 0 140 -43l86 -51q4 -3 20 -13t24.5 -15t24 -12t30 -10t30.5 -3q55 0 74.5 40
t19.5 134z" />
    <glyph glyph-name="uni00A0" unicode="&#xa0;" horiz-adv-x="409" 
 />
    <glyph glyph-name="exclamdown" unicode="&#xa1;" horiz-adv-x="546" 
d="M381 602q-36 0 -77.5 33.5t-41.5 99.5q0 60 37.5 99.5t95.5 39.5q56 0 90.5 -41.5t34.5 -87.5q0 -62 -37.5 -102.5t-101.5 -40.5zM4 -608q-63 0 -96 27t-33 63q0 34 29 106q6 15 182.5 402t179.5 393q8 16 39 16q35 0 25 -43q-13 -52 -86.5 -449.5t-75.5 -406.5
q-12 -56 -51.5 -82t-112.5 -26z" />
    <glyph glyph-name="cent" unicode="&#xa2;" 
d="M522 358l146 627q-59 -19 -127 -104q-56 -73 -88.5 -178t-32.5 -183q0 -60 29 -103t73 -59zM492 -31l-50 13q-17 6 -10 28l53 215q-311 3 -311 258q0 63 21 134t65 143.5t104 135.5t145 112.5t181 72.5l58 228q5 14 14 12l53 -12q14 -2 10 -19l-47 -194q14 2 41 2
q62 0 111 -31.5t49 -99.5q0 -44 -28.5 -70.5t-65.5 -26.5q-48 0 -68 48q-15 35 -28 50t-39 19l-154 -649q45 -7 106.5 14t108.5 49q9 6 17 5.5t10 -5.5l18 -30q7 -17 -12 -31q-126 -94 -275 -111l-59 -243q-1 -9 -6.5 -14t-11.5 -3z" />
    <glyph glyph-name="sterling" unicode="&#xa3;" 
d="M430 520h256q11 0 15.5 -3t3.5 -9l-11 -55q-3 -15 -24 -15h-295q-11 -20 -58 -79t-71 -85l4 -14q162 15 257.5 -16t190.5 -131q58 -62 107 -62q22 0 44.5 16.5t22.5 38.5t-7 28.5t-29 6.5q-32 0 -57 22.5t-25 53.5q0 40 26 71t76 31q60 0 102.5 -40.5t42.5 -110.5
q0 -30 -14.5 -62t-46 -64t-94 -52.5t-146.5 -20.5q-114 0 -186.5 30t-130.5 95q-7 8 -22.5 26t-20.5 23t-17.5 18t-18 16.5t-16 10.5t-19 9t-19.5 3.5t-23 0.5q-20 -54 -63 -119q-64 -92 -127 -92q-78 0 -78 71q0 40 63.5 104.5t127.5 84.5q17 18 41.5 81t37.5 107h-137
q-9 0 -14.5 4.5t-3.5 10.5l8 55q3 12 20 12h148q7 16 53 194.5t76 256.5q60 154 184 252t301 98q108 0 170 -49.5t62 -100.5q0 -46 -28.5 -70t-59.5 -26q-46 -2 -75 18.5t-50 75.5q-27 74 -82 74q-46 0 -86.5 -69.5t-91.5 -243.5q-30 -99 -98.5 -237t-94.5 -173z" />
    <glyph glyph-name="currency" unicode="&#xa4;" 
d="M1053 244l-68 -72q-11 -14 -29 0l-176 166q-37 -27 -99 -42t-120 -15q-131 0 -213 63l-168 -174q-5 -5 -12 -4t-12 6l-68 76q-12 12 2 24l168 162q-33 34 -56 90.5t-24 116.5q7 149 86 233l-170 152q-18 18 -4 35l70 74q9 13 24 -2l181 -170q34 23 97.5 39t125.5 16
q114 0 194 -55l172 167q12 12 23 0l67 -67q15 -15 5 -25l-164 -153q35 -39 56.5 -102.5t21.5 -120.5q0 -66 -21 -127.5t-59 -102.5l172 -166q8 -8 -2 -22zM571 424q99 0 151 61t52 164q0 98 -52.5 161.5t-146.5 63.5q-99 0 -152.5 -64t-53.5 -161q0 -93 55.5 -159t146.5 -66
z" />
    <glyph glyph-name="yen" unicode="&#xa5;" 
d="M414 401l22 121h-260q-9 0 -13.5 4t-2.5 9l4 49q2 12 20 12h234l-10 39l-162 516q-9 30 -33 51t-51 21h-45q-16 0 -13 14l9 43q2 11 5 13.5t13 2.5q7 0 33 -1.5t75 -3t113 -1.5q65 0 118.5 1.5t83 3t36.5 1.5q21 0 18 -18l-4 -41q-3 -14 -18 -14h-29q-63 0 -45 -90
l98 -482q2 -12 8.5 -17.5t14.5 -3t14 12.5q0 1 21.5 36t47.5 77t59.5 98.5t61.5 104.5t51 90.5t30 60.5q20 57 3.5 85t-61.5 28h-55q-18 0 -14 18l4 39q1 10 5.5 13t16.5 3q3 0 77 -3t146 -3q62 0 124 3t65 3q21 0 18 -18l-6 -37q-3 -18 -14 -18h-37q-60 0 -119 -72
q-32 -37 -187.5 -273.5t-181.5 -281.5h236q9 0 13 -3t3 -9l-10 -49q0 -13 -24 -13h-252l-35 -121h282q16 0 13 -14l-8 -47q-2 -12 -29 -12h-275l-32 -152q-13 -65 2 -86.5t47 -21.5h51q17 0 14 -17l-6 -41q-3 -16 -20 -16q-2 0 -71.5 3t-145.5 3q-80 0 -140.5 -1.5t-89 -3
t-32.5 -1.5q-20 0 -17 18l8 39q0 17 17 17h45q93 0 119 100l41 160h-267q-13 0 -10 12l6 47q0 14 19 14h260z" />
    <glyph glyph-name="brokenbar" unicode="&#xa6;" horiz-adv-x="512" 
d="M279 -338v676q0 20 18 20h109q12 0 12 -20v-676q0 -20 -19 -20h-108q-12 0 -12 20zM279 686v678q0 18 12 18h112q15 0 15 -24v-672q0 -20 -19 -20h-108q-12 0 -12 20z" />
    <glyph glyph-name="section" unicode="&#xa7;" 
d="M305 -201q22 0 53.5 16t64.5 44.5t56 78t23 107.5q-7 66 -51 134t-144 175q-32 34 -49 55t-44 64t-38.5 93t-7.5 108q0 106 85 212t202 152q8 34 16.5 60t25.5 63t47 73.5t72 70.5q69 57 144.5 77.5t169.5 20.5q82 0 128 -36t46 -87q0 -88 -100 -88q-75 0 -113 84
q-20 49 -70 49q-59 0 -113.5 -67t-54.5 -152q0 -60 29 -109.5t141 -156.5q27 -26 43 -42.5t42 -51.5t41 -67t26.5 -80t11.5 -101q0 -128 -84 -235.5t-209 -156.5q-26 -121 -67 -188.5t-133 -126.5q-63 -40 -135.5 -59t-178.5 -19q-76 0 -124 31t-48 82q0 96 94 96
q42 0 67 -16t44 -53q28 -54 92 -54zM463 958q-105 -44 -105 -213q0 -31 12.5 -66.5t28.5 -57.5q30 -39 90.5 -107t98 -112t68.5 -105t30 -115q98 56 98 228q0 48 -16 91.5t-59 102.5q-18 24 -64 69.5t-83 83t-67.5 93t-31.5 108.5z" />
    <glyph glyph-name="dieresis" unicode="&#xa8;" horiz-adv-x="696" 
d="M371 1081q-42 0 -75.5 23.5t-33.5 79.5q0 32 25.5 62t83.5 30q42 0 70 -26.5t28 -73.5q0 -43 -28 -69t-70 -26zM731 1081q-42 0 -75 23.5t-33 79.5q0 33 25 62.5t83 29.5q42 0 70 -26.5t28 -73.5q0 -43 -28 -69t-70 -26z" />
    <glyph glyph-name="copyright" unicode="&#xa9;" horiz-adv-x="1597" 
d="M1200 1094l29 -242q3 -21 -6 -23l-39 -8q-13 -3 -19 13l-7 16q-8 17 -10 21t-9.5 18.5t-12.5 21.5t-13 19t-17 22t-19 19q-22 22 -41 36.5t-56 28t-81 13.5q-75 0 -130.5 -51.5t-81 -124.5t-25.5 -152q5 -173 94 -272q83 -91 205 -91q71 0 137.5 39t113.5 95q13 13 23 6
l29 -23q7 -7 -2 -20q-143 -197 -361 -197q-197 0 -309 109q-131 128 -131 325q0 178 125 309q50 50 130.5 83.5t174.5 33.5q102 0 201 -51q36 -16 43 8l6 21q3 9 14 12h31q11 0 14 -14zM887 1403q153 0 284.5 -52.5t225 -146t147 -227.5t53.5 -291q0 -150 -51 -281.5
t-141.5 -227.5t-224.5 -152t-293 -56q-160 0 -294.5 56t-225 153t-141 228t-50.5 280q0 200 95 365t258 258.5t358 93.5zM887 49q127 0 231 39.5t171 104t112.5 149t64.5 170.5t19 174q0 110 -27 205.5t-73.5 163.5t-106 120.5t-127.5 84t-134 47.5t-130 16q-167 0 -303 -79
t-215.5 -225t-79.5 -333q0 -136 38.5 -246.5t99.5 -181.5t141 -119.5t160 -69t159 -20.5z" />
    <glyph glyph-name="ordfeminine" unicode="&#xaa;" horiz-adv-x="751" 
d="M223 514q-48 0 -83.5 34t-35.5 87q0 64 35.5 146.5t91.5 155.5t134 123t155 50q11 0 21.5 -1.5t17.5 -3.5t15.5 -7t13 -7t12 -9.5t9.5 -9t9.5 -10t8.5 -9.5l26 39q6 8 25 8h106q10 0 13.5 -7t-2.5 -22q-15 -31 -49.5 -124t-45.5 -128q-9 -25 -33 -102t-24 -84
q0 -21 19 -21q32 0 90 72q8 14 22 4l25 -16q11 -7 -2 -23q-8 -13 -28 -32t-54.5 -44t-86.5 -42t-108 -17q-57 0 -57 43q0 32 51 154l-20 6q-21 -32 -45.5 -62t-60 -64.5t-79 -55.5t-86.5 -21zM569 979q0 68 -77 68q-41 0 -91 -67t-84 -155.5t-34 -150.5q0 -56 41 -56
q26 0 102 91t109 155q34 67 34 115z" />
    <glyph glyph-name="guillemotleft" unicode="&#xab;" horiz-adv-x="768" 
d="M354 184l-256 279q-8 8 -8 12t10 14l318 297q9 9 12 9t10 -7l23 -22q8 -8 8 -14q0 -2 -10 -19l-146 -248l86 -252q2 -5 5.5 -9.5t3.5 -6.5q0 -5 -9 -14l-24 -23q-4 -4 -8 -4q-10 0 -15 8zM662 184l-256 279q-9 9 -9 12t11 14l317 297q9 9 12 9q4 0 11 -7l22 -22
q8 -8 8 -14q0 -2 -10 -19l-145 -248l86 -252q2 -5 5 -9.5t3 -6.5q0 -6 -8 -14l-25 -23q-4 -4 -8 -4q-9 0 -14 8z" />
    <glyph glyph-name="logicalnot" unicode="&#xac;" 
d="M147 602v148h814v-500h-158v352h-656z" />
    <glyph glyph-name="uni00AD" unicode="&#xad;" horiz-adv-x="847" 
d="M125 444v113q0 21 18 21h660q18 0 18 -17v-112q0 -19 -18 -19h-662q-16 0 -16 14z" />
    <glyph glyph-name="registered" unicode="&#xae;" 
d="M485 967l2 71v111q-2 19 -11.5 27t-31.5 8h-14q-4 0 -4 6v29q0 6 6 6q2 0 45 -2t51 -2q6 0 65 2t66 2q102 0 152 -43q39 -34 39 -86q0 -64 -42 -101.5t-93 -44.5v-4q7 -1 12.5 -5t10.5 -9.5t7 -7.5q4 -4 19 -26t30 -44.5t17 -24.5q6 -9 31.5 -39.5t34.5 -35.5
q20 -11 57 -11q8 0 8 -8v-22q0 -6 -8 -6q-1 0 -11.5 0.5t-24.5 1t-24 0.5t-39 -1t-51 -1q-11 5 -32 41q-18 24 -56 81q-5 8 -23.5 38t-19.5 32q-21 31 -47 31q-16 0 -20 -2v-31v-125q4 -29 26 -29h23q4 0 4 -6v-24q0 -6 -6 -6q-2 0 -44.5 1t-60.5 1t-57.5 -1t-40.5 -1
q-6 0 -6 8v22q0 6 4 6h18q21 0 30 7t9 30v187zM586 1180v-211q8 -2 41 -2q34 0 59 13.5t36 34t16 37.5t5 31q0 50 -41 76q-31 25 -75 25q-17 0 -41 -4zM651 1403q207 0 335 -124.5t128 -322.5q0 -193 -125 -319.5t-338 -126.5q-214 0 -338.5 126.5t-124.5 319.5
q0 191 132 319t331 128zM651 584q100 0 174.5 31.5t115.5 85.5t60 117.5t19 137.5q0 82 -24 148t-61.5 107t-87.5 68.5t-98.5 38.5t-97.5 11q-162 0 -265 -97t-103 -269q0 -82 23.5 -148.5t60.5 -108.5t86.5 -70.5t98.5 -40t99 -11.5z" />
    <glyph glyph-name="macron" unicode="&#xaf;" horiz-adv-x="593" 
d="M246 1059v92q0 12 20 12h410q20 0 20 -14v-90q0 -15 -18 -15h-416q-16 0 -16 15z" />
    <glyph glyph-name="degree" unicode="&#xb0;" horiz-adv-x="512" 
d="M446 1403q102 0 157.5 -51t55.5 -135q0 -77 -61 -134t-158 -57q-104 0 -161 52t-60 139q3 76 65 131t162 55zM444 1317q-45 0 -73.5 -31t-28.5 -69q0 -41 28.5 -73t69.5 -32q44 0 72.5 32.5t28.5 76.5q0 35 -27.5 65.5t-69.5 30.5z" />
    <glyph glyph-name="plusminus" unicode="&#xb1;" 
d="M612 311h-157v291h-328v148h328v268h157v-268h328v-148h-328v-291zM127 164h813v-148h-813v148z" />
    <glyph glyph-name="twosuperior" unicode="&#xb2;" horiz-adv-x="688" 
d="M469 793h-358q-31 0 -31 20t16 33q7 6 47.5 38t56 44t56 45.5t59.5 51.5t54 51.5t53.5 55.5t43 53.5t36.5 56.5t21 53t9 53q0 49 -27.5 79.5t-78.5 30.5q-44 0 -83 -26t-60 -60q-14 -21 -29 -16l-23 12q-10 7 -6 18q8 21 21.5 43.5t38.5 51.5t56 51t76.5 37.5t96.5 15.5
q105 0 159 -52.5t56 -146.5q1 -37 -12.5 -75t-33.5 -70t-53 -67t-61 -59.5t-68 -54t-62.5 -44.5t-57.5 -37.5t-41 -26.5l-4 -12h176q50 0 78 17t55 61q10 17 21 6l22 -14q10 -10 2 -17q-19 -33 -48 -104.5t-36 -106.5q-2 -12 -20 -12q-15 0 -27 14q-9 9 -90 9z" />
    <glyph glyph-name="threesuperior" unicode="&#xb3;" horiz-adv-x="688" 
d="M299 778q-91 0 -145 41.5t-54 95.5q0 80 64 80q73 0 69 -92q-2 -18 20.5 -37.5t59.5 -19.5q74 0 128.5 63.5t54.5 149.5q0 52 -24 90.5t-69 48.5q-22 5 -22 23t20 22q72 12 117 51.5t45 94.5q0 34 -23 62t-73 28q-71 0 -135 -76q-13 -13 -25 -6l-22 18q-5 7 2 21
q82 149 280 149q88 0 135.5 -39t47.5 -86q0 -139 -193 -215q137 -52 137 -176q0 -123 -114 -207t-281 -84z" />
    <glyph glyph-name="acute" unicode="&#xb4;" horiz-adv-x="491" 
d="M219 969l-14 20q-5 5 8 17l227 211q56 49 99 49q27 0 47.5 -20.5t26 -47.5t-9 -56t-50.5 -44l-317 -131q-13 -6 -17 2z" />
    <glyph glyph-name="mu" unicode="&#xb5;" 
d="M174 -20l-43 -119q-23 -64 -47 -131.5t-33 -91.5q-13 -37 -70 -60.5t-151 -23.5q-38 0 -48 23t19 54q20 20 43.5 57.5t42 74.5t41.5 90t36 85t31.5 81.5t22.5 58.5l150 387q80 209 80 248q0 15 -8.5 52t-8.5 52q4 23 36.5 40t103.5 17q52 0 84 -28t32 -68
q0 -77 -120 -350q-4 -9 -11 -25q-84 -191 -84 -225q0 -43 54 -43q25 0 126.5 120t143.5 191q55 90 92 191q21 55 35 112.5t14 79.5q0 24 32.5 34.5t125.5 10.5q53 0 68.5 -18t15.5 -53q0 -19 -18.5 -69.5t-57 -151t-69.5 -195.5q-20 -61 -41.5 -125.5t-29 -88t-7.5 -32.5
q0 -13 9 -22.5t21 -9.5q23 0 65 42t62 70q7 14 19 2l22 -18q8 -8 2 -23q-5 -8 -17.5 -24t-45 -49.5t-67.5 -60t-85.5 -47.5t-99.5 -21q-111 0 -111 98q0 18 21 74.5t46.5 117t27.5 66.5l-25 12q-20 -33 -47.5 -72.5t-76 -99t-96 -103.5t-104 -72.5t-102.5 -20.5z" />
    <glyph glyph-name="mu" unicode="&#x3bc;" 
d="M174 -20l-43 -119q-23 -64 -47 -131.5t-33 -91.5q-13 -37 -70 -60.5t-151 -23.5q-38 0 -48 23t19 54q20 20 43.5 57.5t42 74.5t41.5 90t36 85t31.5 81.5t22.5 58.5l150 387q80 209 80 248q0 15 -8.5 52t-8.5 52q4 23 36.5 40t103.5 17q52 0 84 -28t32 -68
q0 -77 -120 -350q-4 -9 -11 -25q-84 -191 -84 -225q0 -43 54 -43q25 0 126.5 120t143.5 191q55 90 92 191q21 55 35 112.5t14 79.5q0 24 32.5 34.5t125.5 10.5q53 0 68.5 -18t15.5 -53q0 -19 -18.5 -69.5t-57 -151t-69.5 -195.5q-20 -61 -41.5 -125.5t-29 -88t-7.5 -32.5
q0 -13 9 -22.5t21 -9.5q23 0 65 42t62 70q7 14 19 2l22 -18q8 -8 2 -23q-5 -8 -17.5 -24t-45 -49.5t-67.5 -60t-85.5 -47.5t-99.5 -21q-111 0 -111 98q0 18 21 74.5t46.5 117t27.5 66.5l-25 12q-20 -33 -47.5 -72.5t-76 -99t-96 -103.5t-104 -72.5t-102.5 -20.5z" />
    <glyph glyph-name="paragraph" unicode="&#xb6;" 
d="M926 1270l-396 -1528q-5 -18 -8 -23.5t-12 -5.5h-76q-11 0 -2 33l176 674q-49 0 -97 6.5t-99.5 22.5t-95 40t-78.5 62.5t-54 86.5t-19 115t23 146q23 77 74.5 143.5t124 115t155 87t177.5 66t180.5 44.5t175.5 29q158 19 191 19q17 0 14 -14l-14 -56q-4 -13 -21 -16
q-3 0 -96 -14l-412 -1573q-3 -17 -18 -17h-70q-9 0 -10.5 5t2.5 20l406 1556q-78 -14 -121 -24z" />
    <glyph glyph-name="periodcentered" unicode="&#xb7;" horiz-adv-x="512" 
d="M342 557q-64 0 -104.5 41.5t-40.5 108.5q0 56 39 100.5t106 44.5q76 0 114 -47t38 -105q0 -62 -41.5 -102.5t-110.5 -40.5z" />
    <glyph glyph-name="cedilla" unicode="&#xb8;" horiz-adv-x="542" 
d="M127 0h90l-113 -145q146 -43 146 -127q0 -45 -37 -81.5t-93 -56.5t-112 -30.5t-102 -10.5q-39 0 -39 37q0 33 37 33q57 0 104 29.5t47 66.5q0 27 -21 54.5t-57 42.5z" />
    <glyph glyph-name="onesuperior" unicode="&#xb9;" horiz-adv-x="688" 
d="M350 1028l86 270q29 86 29 97q0 16 -16 16q-7 0 -66 -16l-72 -21q-14 -7 -18 8l-12 31q-3 9 8 14l356 142q39 16 57 16q10 0 16.5 -5t6.5 -11q0 -16 -10 -41q-45 -120 -105 -301l-59 -183q-47 -139 -47 -153q0 -39 45 -39h55q15 0 10 -10l-6 -45q-3 -11 -12 -11l-84 4
q-84 3 -113 3q-36 0 -94.5 -1.5t-103.5 -3.5t-47 -2q-7 0 -7 11l9 45q3 10 14 10h45q30 0 51 8.5t39 36.5q5 9 9.5 21.5t15.5 47t20 62.5z" />
    <glyph glyph-name="ordmasculine" unicode="&#xba;" horiz-adv-x="714" 
d="M383 514q-97 0 -164 63t-67 191q0 63 26.5 132t73.5 116q55 55 112 74.5t140 19.5q98 0 160.5 -63t62.5 -142q0 -194 -111 -305q-44 -46 -96 -66t-137 -20zM365 600q44 0 88.5 47t73.5 109t47 116.5t18 75.5q0 32 -21 52t-55 20q-44 0 -90.5 -49t-89.5 -140
q-18 -36 -30.5 -83.5t-12.5 -77.5q0 -29 20.5 -49.5t51.5 -20.5z" />
    <glyph glyph-name="guillemotright" unicode="&#xbb;" horiz-adv-x="768" 
d="M154 786l256 -278q8 -8 8 -12q0 -5 -10 -15l-318 -297q-8 -8 -12 -8t-10 6l-23 23q-8 8 -8 14q0 2 10 19l146 247l-87 252q-2 4 -4 7.5t-3 5.5t-1 4q0 6 8 14l25 23q4 4 8 4q9 0 15 -9zM461 786l256 -278q8 -8 8 -12q0 -5 -10 -15l-318 -297q-8 -8 -12 -8t-10 6l-23 23
q-8 8 -8 14q0 2 10 19l146 247l-86 252q-2 4 -4 7.5t-3 5.5t-1 4q0 6 8 14l24 23q4 4 8 4q9 0 15 -9z" />
    <glyph glyph-name="onequarter" unicode="&#xbc;" horiz-adv-x="1536" 
d="M1106 174h-297q-45 0 -45 35q0 27 41 59l622 506q23 19 50 19q17 0 24.5 -16t-0.5 -38l-174 -450h105q5 0 7 -5.5t-1 -13.5l-33 -77q-9 -19 -19 -19h-102l-55 -154q-7 -20 -23 -20h-147q-8 0 -11.5 7t1.5 22zM946 289h201l86 213q7 20 -3.5 26.5t-25.5 -6.5l-254 -209
q-16 -12 -11 -21q2 -3 7 -3zM303 764l86 270q29 86 29 96q0 17 -17 17q-13 0 -65 -17l-72 -20q-14 -7 -18 8l-13 31q-3 8 9 14l356 142q39 16 57 16q10 0 16.5 -5t6.5 -11q0 -16 -10 -41q-45 -120 -105 -301l-59 -183q-47 -139 -47 -153q0 -39 45 -39h55q15 0 10 -10l-6 -46
q-3 -10 -12 -10l-84 3q-84 3 -113 3q-36 0 -95 -1.5t-104 -3t-47 -1.5q-6 0 -6 10l9 46q3 10 14 10h45q30 0 51 8.5t39 36.5q10 17 45 131zM1217 1315l53 -33q10 -3 10 -12q0 -12 -8 -23l-828 -1261q-10 -17 -20 -17q-4 0 -16 6l-54 37q-10 10 -10 15q0 11 10 24l828 1262
q5 8 18 8q5 0 17 -6z" />
    <glyph glyph-name="onehalf" unicode="&#xbd;" horiz-adv-x="1536" 
d="M303 764l86 270q29 86 29 96q0 17 -17 17q-13 0 -65 -17l-72 -20q-14 -7 -18 8l-13 31q-3 8 9 14l356 142q39 16 57 16q10 0 16.5 -5t6.5 -11q0 -16 -10 -41q-45 -120 -105 -301l-59 -183q-47 -139 -47 -153q0 -39 45 -39h55q15 0 10 -10l-6 -46q-3 -10 -12 -10l-84 3
q-84 3 -113 3q-36 0 -95 -1.5t-104 -3t-47 -1.5q-6 0 -6 10l9 46q3 10 14 10h45q30 0 51 8.5t39 36.5q10 17 45 131zM1210 1315l54 -33q10 -3 10 -12q0 -12 -8 -23l-828 -1261q-10 -17 -20 -17q-5 0 -17 6l-53 37q-10 10 -10 15q0 11 10 24l828 1262q5 8 18 8q4 0 16 -6z
M1231 0h-359q-30 0 -30 20t16 33q7 6 47.5 38t56 44t56 45.5t59.5 51.5t54 51.5t53.5 55.5t43 53.5t36.5 56.5t21 53t9 53q0 49 -27.5 80t-78.5 31q-44 0 -83.5 -26t-60.5 -60q-14 -22 -28 -17l-23 12q-10 7 -6 19q8 21 21.5 43.5t38.5 51.5t56 51t76.5 37.5t96.5 15.5
q105 0 159 -52.5t56 -146.5q1 -37 -12.5 -75t-33.5 -70t-53 -67t-61 -59.5t-68 -54t-62.5 -44.5t-57.5 -37.5t-41 -26.5l-4 -13h176q50 0 78 17t55 61q10 16 20 6l23 -14q9 -9 2 -16q-19 -33 -48 -104.5t-36 -106.5q-3 -13 -20 -13q-14 0 -27 15q-8 8 -90 8z" />
    <glyph glyph-name="threequarters" unicode="&#xbe;" horiz-adv-x="1536" 
d="M1255 1315l54 -33q10 -3 10 -12q0 -12 -8 -23l-828 -1261q-10 -17 -20 -17q-5 0 -17 6l-53 37q-10 10 -10 15q0 11 10 24l828 1262q5 8 18 8q4 0 16 -6zM283 514q-91 0 -145 41.5t-54 95.5q0 80 63 80q74 0 70 -92q-2 -18 20.5 -37.5t59.5 -19.5q74 0 128 63.5t54 149.5
q0 52 -23.5 90.5t-68.5 48.5q-22 5 -22 22q0 19 20 23q72 12 117 51.5t45 93.5q0 34 -23 62t-73 28q-73 0 -136 -75q-13 -13 -24 -6l-23 18q-5 7 2 20q83 150 281 150q88 0 135 -39t47 -86q0 -139 -192 -215q137 -52 137 -176q0 -123 -114 -207t-281 -84zM1137 174h-297
q-45 0 -45 35q0 27 41 59l622 506q23 19 49 19q17 0 24.5 -16t0.5 -38l-174 -450h104q5 0 7 -5.5t-1 -13.5l-32 -77q-10 -19 -19 -19h-102l-55 -154q-8 -20 -23 -20h-147q-9 0 -12.5 7t1.5 22zM977 289h201l86 213q7 20 -3.5 26.5t-25.5 -6.5l-254 -209q-16 -12 -11 -21
q2 -3 7 -3z" />
    <glyph glyph-name="questiondown" unicode="&#xbf;" horiz-adv-x="870" 
d="M338 -608q-82 0 -146 21t-99.5 51.5t-58.5 69.5t-30.5 69.5t-7.5 56.5q0 196 108.5 321t294.5 179q114 33 175 68t61 77q0 37 -26 55.5t-93 18.5q-44 0 -86.5 -15t-62 -29t-31.5 -26q-11 -11 -19 2l-20 23q-8 8 -4 16q27 44 91.5 90.5t137.5 46.5q97 0 157 -54t60 -163
q0 -210 -309 -364q-40 -20 -59.5 -30t-51 -29t-46.5 -32t-35 -34t-29 -42t-16 -48.5t-7 -59.5q0 -22 8.5 -47t26.5 -51t53 -42.5t80 -16.5q98 0 164 49t66 127q0 41 -18 60.5t-38 19.5q-24 0 -32 -19q10 -23 10 -49q0 -43 -29 -73.5t-82 -30.5q-43 0 -67.5 28t-24.5 72
q0 78 58 123t133 45q78 0 133 -43.5t55 -128.5q0 -44 -23 -89.5t-65 -84.5t-109 -63.5t-147 -24.5zM612 614q-52 0 -91.5 33t-39.5 92q0 53 34.5 94t92.5 41t93.5 -38.5t35.5 -96.5q0 -45 -34.5 -85t-90.5 -40z" />
    <glyph glyph-name="Agrave" unicode="&#xc0;" horiz-adv-x="1345" 
d="M926 614h-342l-201 -260q-127 -166 -127 -217q0 -63 84 -63h51q18 0 15 -21l-7 -43q-3 -16 -22 -16q-4 0 -40 1.5t-103 3t-146 1.5q-69 0 -125.5 -1.5t-87.5 -3t-37 -1.5q-19 0 -16 18l8 45q3 17 14 17h33q48 0 118 39.5t122 101.5l962 1137q15 18 47 18q36 0 158 16
q28 3 58.5 10t37.5 7q27 0 21 -21l-305 -1136q-23 -81 -23 -115q0 -25 21.5 -41t52.5 -16h43q9 0 13.5 -4.5t2.5 -10.5l-6 -47q-4 -18 -24 -18q-6 0 -41 1.5t-99.5 3t-142.5 1.5q-76 0 -136 -1.5t-92 -3t-42 -1.5q-13 0 -18 5t-3 15l8 43q3 17 17 17h41q27 0 44.5 5t37 20.5
t35.5 49.5t32 89zM639 688h309l152 510q6 21 -11.5 26.5t-29.5 -10.5zM1395 1509l-15 -20q-5 -5 -14 0l-317 145q-46 21 -60.5 53.5t-2.5 60.5t36.5 48.5t50.5 20.5q22 0 40.5 -8t27.5 -16.5t22 -23.5l228 -243q11 -7 4 -17z" />
    <glyph glyph-name="Aacute" unicode="&#xc1;" horiz-adv-x="1345" 
d="M926 614h-342l-201 -260q-127 -166 -127 -217q0 -63 84 -63h51q18 0 15 -21l-7 -43q-3 -16 -22 -16q-4 0 -40 1.5t-103 3t-146 1.5q-69 0 -125.5 -1.5t-87.5 -3t-37 -1.5q-19 0 -16 18l8 45q3 17 14 17h33q48 0 118 39.5t122 101.5l962 1137q15 18 47 18q36 0 158 16
q28 3 58.5 10t37.5 7q27 0 21 -21l-305 -1136q-23 -81 -23 -115q0 -25 21.5 -41t52.5 -16h43q9 0 13.5 -4.5t2.5 -10.5l-6 -47q-4 -18 -24 -18q-6 0 -41 1.5t-99.5 3t-142.5 1.5q-76 0 -136 -1.5t-92 -3t-42 -1.5q-13 0 -18 5t-3 15l8 43q3 17 17 17h41q27 0 44.5 5t37 20.5
t35.5 49.5t32 89zM639 688h309l152 510q6 21 -11.5 26.5t-29.5 -10.5zM1163 1493l-12 20q-5 10 6 21l270 233q42 37 82 37q47 0 74.5 -38t16 -84t-61.5 -64l-358 -127q-13 -6 -17 2z" />
    <glyph glyph-name="Acircumflex" unicode="&#xc2;" horiz-adv-x="1345" 
d="M926 614h-342l-201 -260q-127 -166 -127 -217q0 -63 84 -63h51q18 0 15 -21l-7 -43q-3 -16 -22 -16q-4 0 -40 1.5t-103 3t-146 1.5q-69 0 -125.5 -1.5t-87.5 -3t-37 -1.5q-19 0 -16 18l8 45q3 17 14 17h33q48 0 118 39.5t122 101.5l962 1137q15 18 47 18q36 0 158 16
q28 3 58.5 10t37.5 7q27 0 21 -21l-305 -1136q-23 -81 -23 -115q0 -25 21.5 -41t52.5 -16h43q9 0 13.5 -4.5t2.5 -10.5l-6 -47q-4 -18 -24 -18q-6 0 -41 1.5t-99.5 3t-142.5 1.5q-76 0 -136 -1.5t-92 -3t-42 -1.5q-13 0 -18 5t-3 15l8 43q3 17 17 17h41q27 0 44.5 5t37 20.5
t35.5 49.5t32 89zM639 688h309l152 510q6 21 -11.5 26.5t-29.5 -10.5zM1470 1499l-163 109l-258 -117q-11 -5 -19 6l-14 25q-2 5 4 14l301 301q7 9 18 8.5t17 -12.5l162 -303q6 -9 -5 -17l-20 -18q-9 -7 -23 4z" />
    <glyph glyph-name="Atilde" unicode="&#xc3;" horiz-adv-x="1345" 
d="M926 614h-342l-201 -260q-127 -166 -127 -217q0 -63 84 -63h51q18 0 15 -21l-7 -43q-3 -16 -22 -16q-4 0 -40 1.5t-103 3t-146 1.5q-69 0 -125.5 -1.5t-87.5 -3t-37 -1.5q-19 0 -16 18l8 45q3 17 14 17h33q48 0 118 39.5t122 101.5l962 1137q15 18 47 18q36 0 158 16
q28 3 58.5 10t37.5 7q27 0 21 -21l-305 -1136q-23 -81 -23 -115q0 -25 21.5 -41t52.5 -16h43q9 0 13.5 -4.5t2.5 -10.5l-6 -47q-4 -18 -24 -18q-6 0 -41 1.5t-99.5 3t-142.5 1.5q-76 0 -136 -1.5t-92 -3t-42 -1.5q-13 0 -18 5t-3 15l8 43q3 17 17 17h41q27 0 44.5 5t37 20.5
t35.5 49.5t32 89zM639 688h309l152 510q6 21 -11.5 26.5t-29.5 -10.5zM983 1530l-27 16q-7 7 -2 21q23 69 74.5 128.5t95.5 59.5q18 0 33.5 -1t34.5 -5t30.5 -6.5t39 -9t41.5 -9.5q68 -16 122 -16q72 0 105 59q7 15 16 9l31 -17q13 -6 -4 -43q-29 -63 -74 -110t-94 -47
q-65 0 -156 22q-97 25 -145 25q-26 0 -56.5 -21t-48.5 -49q-8 -12 -16 -6z" />
    <glyph glyph-name="Adieresis" unicode="&#xc4;" horiz-adv-x="1345" 
d="M926 614h-342l-201 -260q-127 -166 -127 -217q0 -63 84 -63h51q18 0 15 -21l-7 -43q-3 -16 -22 -16q-4 0 -40 1.5t-103 3t-146 1.5q-69 0 -125.5 -1.5t-87.5 -3t-37 -1.5q-19 0 -16 18l8 45q3 17 14 17h33q48 0 118 39.5t122 101.5l962 1137q15 18 47 18q36 0 158 16
q28 3 58.5 10t37.5 7q27 0 21 -21l-305 -1136q-23 -81 -23 -115q0 -25 21.5 -41t52.5 -16h43q9 0 13.5 -4.5t2.5 -10.5l-6 -47q-4 -18 -24 -18q-6 0 -41 1.5t-99.5 3t-142.5 1.5q-76 0 -136 -1.5t-92 -3t-42 -1.5q-13 0 -18 5t-3 15l8 43q3 17 17 17h41q27 0 44.5 5t37 20.5
t35.5 49.5t32 89zM639 688h309l152 510q6 21 -11.5 26.5t-29.5 -10.5zM1071 1532q-46 0 -82.5 25t-36.5 88q0 35 27 66.5t92 31.5q45 0 76 -28.5t31 -78.5q0 -46 -31 -75t-76 -29zM1477 1532q-46 0 -82.5 25t-36.5 88q0 35 27 66.5t92 31.5q45 0 75.5 -28.5t30.5 -78.5
q0 -46 -30.5 -75t-75.5 -29z" />
    <glyph glyph-name="Aring" unicode="&#xc5;" horiz-adv-x="1345" 
d="M926 614h-342l-201 -260q-127 -166 -127 -217q0 -63 84 -63h51q18 0 15 -21l-7 -43q-3 -16 -22 -16q-4 0 -40 1.5t-103 3t-146 1.5q-69 0 -125.5 -1.5t-87.5 -3t-37 -1.5q-19 0 -16 18l8 45q3 17 14 17h33q48 0 118 39.5t122 101.5l962 1137q15 18 47 18q113 0 158 6
q27 3 58 10t40 7q25 0 19 -21l-305 -1126q-23 -81 -23 -115q0 -25 21.5 -41t52.5 -16h43q9 0 13.5 -4.5t2.5 -10.5l-6 -47q-4 -18 -24 -18q-6 0 -41 1.5t-99.5 3t-142.5 1.5q-76 0 -136 -1.5t-92 -3t-42 -1.5q-13 0 -18 5t-3 15l8 43q3 17 17 17h41q27 0 44.5 5t37 20.5
t35.5 49.5t32 89zM639 688h309l152 510q6 21 -11.5 26.5t-29.5 -10.5zM1292 1845q102 0 169 -44.5t67 -129.5q0 -81 -72 -130.5t-178 -49.5q-102 0 -169 43.5t-67 120.5q0 88 74 139t176 51zM1282 1784q-34 0 -68 -32t-34 -85q0 -58 31.5 -86.5t74.5 -28.5q41 0 73 29t32 88
q0 61 -34 88t-75 27z" />
    <glyph glyph-name="AE" unicode="&#xc6;" horiz-adv-x="1933" 
d="M592 705h319l166 503q6 18 -2.5 22t-17.5 -7zM748 184l141 447h-363l-256 -314q-50 -60 -83 -116.5t-33 -77.5q0 -22 17 -35.5t40 -13.5h57q16 0 13 -21l-7 -43q-3 -16 -22 -16q-5 0 -38.5 1.5t-87 3t-108.5 1.5q-79 0 -142 -1.5t-95 -3t-37 -1.5q-19 0 -16 20l8 43
q3 17 16 17h37q58 0 125.5 39t128.5 106l936 1036q12 13 7 28t-23 15h-50q-18 0 -12 17l17 53q5 10 22 10q1 0 98 -3t187 -3q174 0 322 1.5t229 3t94 1.5q23 0 30 -7t13 -32l65 -280q3 -12 -8 -17l-26 -14q-14 -5 -29 10l-227 246q-12 14 -37 14h-275l-192 -596h182
q42 0 75 9.5t77.5 48.5t85.5 110q11 17 20 15l39 -13q14 -3 10 -14q-80 -185 -108 -407q-3 -15 -19 -15l-39 2q-9 0 -12 21q-10 92 -65 132t-158 40h-109l-174 -557h393q46 0 95.5 21t86.5 46.5t85.5 73t71 73t63.5 74.5q12 15 24 9l27 -19q10 -7 4 -26l-104 -297
q-7 -22 -16 -28.5t-29 -6.5q-10 0 -55 0.5t-133.5 1.5t-158.5 2q-92 0 -280.5 1t-263.5 1q-61 0 -128.5 -1t-78.5 -1q-16 -1 -29.5 -2t-20.5 -1.5t-10 -0.5q-23 0 -20 22l6 41q3 17 17 17h75q106 0 138 110z" />
    <glyph glyph-name="Ccedilla" unicode="&#xc7;" horiz-adv-x="1376" 
d="M1292 403l-145 -438q-5 -13 -23 -10l-43 10q-11 4 -6 17q6 30 6 34q0 10 -8 19.5t-22 9.5q-32 0 -80 -22q-29 -14 -102 -31t-144 -21l-84 -121q89 -21 125.5 -52.5t36.5 -82.5q0 -76 -112.5 -133t-252.5 -57q-39 0 -39 31q0 32 25 32q27 1 53.5 6.5t55 18t46 36.5
t17.5 56q0 28 -27.5 53t-70.5 37l131 178q-224 13 -354 140t-130 329q0 162 34 291t93.5 227t159.5 207q216 236 553 236q158 6 270 -68q70 -47 93 -47q40 0 53 43q6 18 18 15l43 -9q11 -4 6 -20l-108 -434q-6 -18 -23 -13l-45 4q-16 0 -12 21q7 79 -5 151t-43 133
t-90.5 97.5t-140.5 36.5q-99 0 -182 -54.5t-170 -179.5q-105 -154 -150.5 -325t-45.5 -318q0 -79 19 -143.5t48 -105t66.5 -68t71.5 -38.5t65 -11q48 0 91 6.5t99.5 29t105 59.5t101.5 104t97 157q5 12 20 8l45 -12q13 -4 10 -19z" />
    <glyph glyph-name="Egrave" unicode="&#xc8;" horiz-adv-x="1382" 
d="M827 1298l-172 -530h160q42 0 75 9.5t77.5 48.5t85.5 110q11 16 20 14l39 -12q14 -3 10 -14q-80 -185 -108 -408q-2 -14 -19 -14l-39 2q-9 0 -12 20q-10 92 -64.5 131t-158.5 39h-86l-197 -620h393q46 0 95.5 21t86.5 46.5t85.5 73t71 73t63.5 74.5q12 15 24 9l27 -19
q10 -7 4 -26l-104 -297q-7 -22 -16 -28.5t-29 -6.5q-10 0 -55 0.5t-132.5 1.5t-158.5 2q-93 0 -284 1t-269 1q-54 0 -117 -1t-76 -1q-16 -1 -30 -2l-21 -1.5t-10 -0.5q-22 0 -17 20l6 43q6 17 17 17h55q106 0 139 110l312 973q23 74 -7 107.5t-77 33.5h-72q-14 0 -8 17
l12 49q3 9 8 11.5t17 2.5q5 0 37 -1.5t101 -3t165 -1.5q174 0 322 1.5t229 3t94 1.5q23 0 30 -7t13 -32l65 -280q3 -12 -8 -17l-26 -14q-14 -5 -29 10l-227 246q-12 14 -37 14h-273zM1085 1509l-14 -20q-5 -5 -14 0l-318 145q-46 21 -60.5 53.5t-2 60.5t37 48.5t50.5 20.5
q22 0 40.5 -8t27.5 -16.5t22 -23.5l227 -243q11 -7 4 -17z" />
    <glyph glyph-name="Eacute" unicode="&#xc9;" horiz-adv-x="1382" 
d="M827 1298l-172 -530h160q42 0 75 9.5t77.5 48.5t85.5 110q11 16 20 14l39 -12q14 -3 10 -14q-80 -185 -108 -408q-2 -14 -19 -14l-39 2q-9 0 -12 20q-10 92 -64.5 131t-158.5 39h-86l-197 -620h393q46 0 95.5 21t86.5 46.5t85.5 73t71 73t63.5 74.5q12 15 24 9l27 -19
q10 -7 4 -26l-104 -297q-7 -22 -16 -28.5t-29 -6.5q-10 0 -55 0.5t-132.5 1.5t-158.5 2q-93 0 -284 1t-269 1q-54 0 -117 -1t-76 -1q-16 -1 -30 -2l-21 -1.5t-10 -0.5q-22 0 -17 20l6 43q6 17 17 17h55q106 0 139 110l312 973q23 74 -7 107.5t-77 33.5h-72q-14 0 -8 17
l12 49q3 9 8 11.5t17 2.5q5 0 37 -1.5t101 -3t165 -1.5q174 0 322 1.5t229 3t94 1.5q23 0 30 -7t13 -32l65 -280q3 -12 -8 -17l-26 -14q-14 -5 -29 10l-227 246q-12 14 -37 14h-273zM874 1493l-12 20q-5 10 6 21l271 233q42 37 82 37q47 0 74 -38t15.5 -84t-61.5 -64
l-358 -127q-13 -6 -17 2z" />
    <glyph glyph-name="Ecircumflex" unicode="&#xca;" horiz-adv-x="1382" 
d="M827 1298l-172 -530h160q42 0 75 9.5t77.5 48.5t85.5 110q11 16 20 14l39 -12q14 -3 10 -14q-80 -185 -108 -408q-2 -14 -19 -14l-39 2q-9 0 -12 20q-10 92 -64.5 131t-158.5 39h-86l-197 -620h393q46 0 95.5 21t86.5 46.5t85.5 73t71 73t63.5 74.5q12 15 24 9l27 -19
q10 -7 4 -26l-104 -297q-7 -22 -16 -28.5t-29 -6.5q-10 0 -55 0.5t-132.5 1.5t-158.5 2q-93 0 -284 1t-269 1q-54 0 -117 -1t-76 -1q-16 -1 -30 -2l-21 -1.5t-10 -0.5q-22 0 -17 20l6 43q6 17 17 17h55q106 0 139 110l312 973q23 74 -7 107.5t-77 33.5h-72q-14 0 -8 17
l12 49q3 9 8 11.5t17 2.5q5 0 37 -1.5t101 -3t165 -1.5q174 0 322 1.5t229 3t94 1.5q23 0 30 -7t13 -32l65 -280q3 -12 -8 -17l-26 -14q-14 -5 -29 10l-227 246q-12 14 -37 14h-273zM1171 1499l-163 109l-258 -117q-11 -5 -19 6l-14 25q-2 5 4 14l301 301q7 9 18 8.5
t17 -12.5l162 -303q6 -9 -5 -17l-20 -18q-9 -7 -23 4z" />
    <glyph glyph-name="Edieresis" unicode="&#xcb;" horiz-adv-x="1382" 
d="M827 1298l-172 -530h160q42 0 75 9.5t77.5 48.5t85.5 110q11 16 20 14l39 -12q14 -3 10 -14q-80 -185 -108 -408q-2 -14 -19 -14l-39 2q-9 0 -12 20q-10 92 -64.5 131t-158.5 39h-86l-197 -620h393q46 0 95.5 21t86.5 46.5t85.5 73t71 73t63.5 74.5q12 15 24 9l27 -19
q10 -7 4 -26l-104 -297q-7 -22 -16 -28.5t-29 -6.5q-10 0 -55 0.5t-132.5 1.5t-158.5 2q-93 0 -284 1t-269 1q-54 0 -117 -1t-76 -1q-16 -1 -30 -2l-21 -1.5t-10 -0.5q-22 0 -17 20l6 43q6 17 17 17h55q106 0 139 110l312 973q23 74 -7 107.5t-77 33.5h-72q-14 0 -8 17
l12 49q3 9 8 11.5t17 2.5q5 0 37 -1.5t101 -3t165 -1.5q174 0 322 1.5t229 3t94 1.5q23 0 30 -7t13 -32l65 -280q3 -12 -8 -17l-26 -14q-14 -5 -29 10l-227 246q-12 14 -37 14h-273zM772 1532q-46 0 -82.5 25t-36.5 88q0 35 27 66.5t92 31.5q45 0 76 -28.5t31 -78.5
q0 -46 -31 -75t-76 -29zM1178 1532q-46 0 -82.5 25t-36.5 88q0 35 27 66.5t92 31.5q45 0 75.5 -28.5t30.5 -78.5q0 -46 -30.5 -75t-75.5 -29z" />
    <glyph glyph-name="Igrave" unicode="&#xcc;" horiz-adv-x="788" 
d="M745 1157l-256 -944q-38 -139 80 -139h76q15 0 12 -21l-6 -43q-1 -7 -2.5 -10t-6.5 -4.5t-15 -1.5q-4 0 -44.5 1.5t-121.5 3t-182 1.5q-80 0 -150 -1.5t-109.5 -3t-44.5 -1.5q-19 0 -16 20l10 47q3 13 17 13h67q18 0 33 0.5t27.5 5t21.5 6t18 10.5t13.5 11.5t11 16.5
t9 18t8.5 24l7.5 25t8.5 30l256 942q16 75 2 105t-45 30h-94q-12 0 -16.5 4t-2.5 13l11 51q3 12 26 12q6 0 48.5 -1.5t115.5 -3t154 -1.5q78 0 145 1.5t104.5 3t45.5 1.5q28 0 22 -24l-10 -39q-3 -17 -23 -17h-63q-48 0 -83.5 -29t-58.5 -112zM788 1509l-14 -20q-5 -5 -14 0
l-318 145q-46 21 -60.5 53.5t-2 60.5t37 48.5t50.5 20.5q22 0 40.5 -8t27.5 -16.5t22 -23.5l227 -243q11 -7 4 -17z" />
    <glyph glyph-name="Iacute" unicode="&#xcd;" horiz-adv-x="788" 
d="M745 1157l-256 -944q-38 -139 80 -139h76q15 0 12 -21l-6 -43q-1 -7 -2.5 -10t-6.5 -4.5t-15 -1.5q-4 0 -44.5 1.5t-121.5 3t-182 1.5q-80 0 -150 -1.5t-109.5 -3t-44.5 -1.5q-19 0 -16 20l10 47q3 13 17 13h67q18 0 33 0.5t27.5 5t21.5 6t18 10.5t13.5 11.5t11 16.5
t9 18t8.5 24l7.5 25t8.5 30l256 942q16 75 2 105t-45 30h-94q-12 0 -16.5 4t-2.5 13l11 51q3 12 26 12q6 0 48.5 -1.5t115.5 -3t154 -1.5q78 0 145 1.5t104.5 3t45.5 1.5q28 0 22 -24l-10 -39q-3 -17 -23 -17h-63q-48 0 -83.5 -29t-58.5 -112zM659 1493l-12 20q-5 10 6 21
l271 233q42 37 82 37q47 0 74 -38t15.5 -84t-61.5 -64l-358 -127q-13 -6 -17 2z" />
    <glyph glyph-name="Icircumflex" unicode="&#xce;" horiz-adv-x="788" 
d="M745 1157l-256 -944q-38 -139 80 -139h76q15 0 12 -21l-6 -43q-1 -7 -2.5 -10t-6.5 -4.5t-15 -1.5q-4 0 -44.5 1.5t-121.5 3t-182 1.5q-80 0 -150 -1.5t-109.5 -3t-44.5 -1.5q-19 0 -16 20l10 47q3 13 17 13h67q18 0 33 0.5t27.5 5t21.5 6t18 10.5t13.5 11.5t11 16.5
t9 18t8.5 24l7.5 25t8.5 30l256 942q16 75 2 105t-45 30h-94q-12 0 -16.5 4t-2.5 13l11 51q3 12 26 12q6 0 48.5 -1.5t115.5 -3t154 -1.5q78 0 145 1.5t104.5 3t45.5 1.5q28 0 22 -24l-10 -39q-3 -17 -23 -17h-63q-48 0 -83.5 -29t-58.5 -112zM864 1499l-164 109l-258 -117
q-10 -5 -18 6l-14 25q-2 5 4 14l301 301q7 9 18 8.5t17 -12.5l161 -303q7 -10 -4 -17l-20 -18q-9 -7 -23 4z" />
    <glyph glyph-name="Idieresis" unicode="&#xcf;" horiz-adv-x="788" 
d="M745 1157l-256 -944q-38 -139 80 -139h76q15 0 12 -21l-6 -43q-1 -7 -2.5 -10t-6.5 -4.5t-15 -1.5q-4 0 -44.5 1.5t-121.5 3t-182 1.5q-80 0 -150 -1.5t-109.5 -3t-44.5 -1.5q-19 0 -16 20l10 47q3 13 17 13h67q18 0 33 0.5t27.5 5t21.5 6t18 10.5t13.5 11.5t11 16.5
t9 18t8.5 24l7.5 25t8.5 30l256 942q16 75 2 105t-45 30h-94q-12 0 -16.5 4t-2.5 13l11 51q3 12 26 12q6 0 48.5 -1.5t115.5 -3t154 -1.5q78 0 145 1.5t104.5 3t45.5 1.5q28 0 22 -24l-10 -39q-3 -17 -23 -17h-63q-48 0 -83.5 -29t-58.5 -112zM496 1532q-46 0 -82.5 25
t-36.5 88q0 35 27 66.5t92 31.5q45 0 75.5 -28.5t30.5 -78.5q0 -46 -30.5 -75t-75.5 -29zM901 1532q-46 0 -82.5 25t-36.5 88q0 35 27 66.5t92 31.5q45 0 76 -28.5t31 -78.5q0 -46 -31 -75t-76 -29z" />
    <glyph glyph-name="Eth" unicode="&#xd0;" horiz-adv-x="1624" 
d="M604 664l-108 -447q-15 -69 -15 -86q0 -25 31 -41t63 -16q289 0 494 164q106 84 181 242.5t75 328.5q0 100 -36 191t-99 151q-54 53 -93.5 80.5t-82.5 40.5q-94 31 -191 31q-16 0 -24 -0.5t-19 -2.5t-16.5 -7t-7.5 -13l-131 -530h309q8 0 11.5 -3.5t2.5 -9.5l-18 -61
q-6 -12 -23 -12h-303zM319 664h-190q-11 0 -8 16l16 55q3 15 19 15h184l109 440q14 54 -11 78t-63 24h-76q-15 0 -19 4t-1 13l12 49q3 9 8.5 11.5t24.5 2.5q61 0 149 6q31 1 83.5 2.5t92 2.5t66.5 1q122 0 217.5 -7.5t196.5 -27.5t184 -61t145 -102q89 -90 121.5 -178
t32.5 -193q0 -114 -28 -217t-68.5 -173.5t-95.5 -131.5t-99 -94.5t-88 -59.5q-73 -42 -156.5 -71.5t-146.5 -43.5t-144.5 -21.5t-119 -8t-102.5 -0.5h-25q-27 0 -118 3t-120 3q-95 0 -163 -1.5t-97.5 -3t-30.5 -1.5q-19 0 -16 20l12 45q4 15 21 15h24q56 0 97.5 33.5
t64.5 123.5z" />
    <glyph glyph-name="Ntilde" unicode="&#xd1;" horiz-adv-x="1515" 
d="M508 1061l-154 -537q-99 -346 -63 -422q13 -28 45 -28h82q19 0 16 -21l-6 -43q-3 -10 -7.5 -13t-17.5 -3q-5 0 -38.5 1.5t-87.5 3t-111 1.5q-62 0 -114.5 -1.5t-82 -3t-35.5 -1.5q-17 0 -14 20l6 43q3 17 19 17h35q70 0 117 66t98 225l223 700q20 62 21.5 110t-12.5 73
t-32.5 37.5t-38.5 12.5h-82q-11 0 -14 4.5t0 16.5l10 43q5 16 23 16q5 0 43.5 -1.5t117.5 -3t183 -1.5q30 0 48 -12.5t30 -40.5l471 -913q8 -15 17.5 -11t15.5 23l167 547q38 121 49 195t-2 106t-49 32h-55q-14 0 -17.5 3.5t-2.5 13.5l6 49q3 14 20 14q7 0 36 -1.5t81.5 -3
t116.5 -1.5q63 0 117 3t59 3q14 0 18 -5.5t2 -18.5l-8 -39q-2 -17 -18 -17h-51q-70 0 -146 -213l-364 -1032q-18 -53 -43 -53q-37 0 -58 41l-538 1024q-8 13 -17 11.5t-14 -15.5zM821 1530l-26 16q-7 7 -2 21q23 69 74.5 128.5t95.5 59.5q18 0 33.5 -1.5t34 -4.5t30.5 -6
t38.5 -9t41.5 -10q68 -16 123 -16q71 0 104 59q7 15 16 9l31 -17q13 -6 -4 -43q-29 -63 -74 -110t-94 -47q-65 0 -156 22q-97 25 -145 25q-26 0 -56 -21t-48 -49q-8 -12 -17 -6z" />
    <glyph glyph-name="Ograve" unicode="&#xd2;" horiz-adv-x="1564" 
d="M762 -31q-235 0 -375 129q-186 172 -186 471q0 130 33 252.5t99 228t157.5 184.5t215.5 124t265 45q260 0 415.5 -152.5t155.5 -439.5q0 -161 -57.5 -313.5t-158 -269.5t-248 -188t-316.5 -71zM735 72q99 0 197 80t170.5 208.5t117.5 299t46 341.5q0 143 -64 221t-178 78
q-86 0 -163 -44t-126 -111q-123 -149 -202.5 -349.5t-79.5 -381.5q0 -164 73.5 -253t208.5 -89zM1157 1509l-14 -20q-5 -5 -15 0l-317 145q-46 21 -60.5 53.5t-2 60.5t37 48.5t50.5 20.5q22 0 40.5 -8t27.5 -16.5t22 -23.5l227 -243q11 -7 4 -17z" />
    <glyph glyph-name="Oacute" unicode="&#xd3;" horiz-adv-x="1564" 
d="M762 -31q-235 0 -375 129q-186 172 -186 471q0 130 33 252.5t99 228t157.5 184.5t215.5 124t265 45q260 0 415.5 -152.5t155.5 -439.5q0 -161 -57.5 -313.5t-158 -269.5t-248 -188t-316.5 -71zM735 72q99 0 197 80t170.5 208.5t117.5 299t46 341.5q0 143 -64 221t-178 78
q-86 0 -163 -44t-126 -111q-123 -149 -202.5 -349.5t-79.5 -381.5q0 -164 73.5 -253t208.5 -89zM987 1493l-12 20q-5 10 6 21l270 233q42 37 82 37q47 0 74.5 -38t16 -84t-61.5 -64l-358 -127q-13 -6 -17 2z" />
    <glyph glyph-name="Ocircumflex" unicode="&#xd4;" horiz-adv-x="1564" 
d="M762 -31q-235 0 -375 129q-186 172 -186 471q0 130 33 252.5t99 228t157.5 184.5t215.5 124t265 45q260 0 415.5 -152.5t155.5 -439.5q0 -161 -57.5 -313.5t-158 -269.5t-248 -188t-316.5 -71zM735 72q99 0 197 80t170.5 208.5t117.5 299t46 341.5q0 143 -64 221t-178 78
q-86 0 -163 -44t-126 -111q-123 -149 -202.5 -349.5t-79.5 -381.5q0 -164 73.5 -253t208.5 -89zM1231 1499l-164 109l-258 -117q-10 -5 -18 6l-15 25q-2 5 4 14l301 301q7 9 18 8.5t17 -12.5l162 -303q7 -10 -4 -17l-21 -18q-8 -6 -22 4z" />
    <glyph glyph-name="Otilde" unicode="&#xd5;" horiz-adv-x="1564" 
d="M762 -31q-235 0 -375 129q-186 172 -186 471q0 130 33 252.5t99 228t157.5 184.5t215.5 124t265 45q260 0 415.5 -152.5t155.5 -439.5q0 -161 -57.5 -313.5t-158 -269.5t-248 -188t-316.5 -71zM735 72q99 0 197 80t170.5 208.5t117.5 299t46 341.5q0 143 -64 221t-178 78
q-86 0 -163 -44t-126 -111q-123 -149 -202.5 -349.5t-79.5 -381.5q0 -164 73.5 -253t208.5 -89zM733 1530l-26 16q-7 7 -2 21q23 69 74 128.5t95 59.5q18 0 33.5 -1t34.5 -5t30.5 -6.5t39 -9t41.5 -9.5q68 -16 123 -16q71 0 104 59q7 15 16 9l31 -17q13 -6 -4 -43
q-29 -63 -74 -110t-94 -47q-65 0 -156 22q-97 25 -145 25q-26 0 -56 -21t-48 -49q-8 -12 -17 -6z" />
    <glyph glyph-name="Odieresis" unicode="&#xd6;" horiz-adv-x="1564" 
d="M762 -31q-235 0 -375 129q-186 172 -186 471q0 130 33 252.5t99 228t157.5 184.5t215.5 124t265 45q260 0 415.5 -152.5t155.5 -439.5q0 -161 -57.5 -313.5t-158 -269.5t-248 -188t-316.5 -71zM735 72q99 0 197 80t170.5 208.5t117.5 299t46 341.5q0 143 -64 221t-178 78
q-86 0 -163 -44t-126 -111q-123 -149 -202.5 -349.5t-79.5 -381.5q0 -164 73.5 -253t208.5 -89zM842 1532q-46 0 -82.5 25t-36.5 88q0 35 27 66.5t92 31.5q45 0 75.5 -28.5t30.5 -78.5q0 -46 -30.5 -75t-75.5 -29zM1247 1532q-46 0 -82.5 25t-36.5 88q0 35 27 66.5t92 31.5
q45 0 76 -28.5t31 -78.5q0 -46 -31 -75t-76 -29z" />
    <glyph glyph-name="multiply" unicode="&#xd7;" 
d="M936 199l-102 -107l-306 299l-297 -299l-102 105l295 286l-295 293l107 107l301 -303l297 303l102 -107l-295 -287z" />
    <glyph glyph-name="Oslash" unicode="&#xd8;" horiz-adv-x="1564" 
d="M1249 1118l-733 -946q36 -47 90.5 -73.5t118.5 -26.5q102 0 202 80.5t173.5 208.5t119.5 295.5t46 334.5q0 99 -17 127zM475 246l737 958q-22 40 -72.5 68t-105.5 28q-175 0 -305 -157q-115 -141 -196.5 -349t-81.5 -372q0 -90 24 -176zM1303 1319l88 113q7 7 14 2
l53 -39q10 -6 0 -19l-90 -110q82 -70 128 -190t46 -232q0 -134 -34 -262t-101 -238.5t-159 -194.5t-215 -132t-261 -48q-221 0 -342 92l-92 -120q-10 -10 -16 -4l-50 40q-9 9 0 21l93 119q-79 82 -121.5 197.5t-42.5 213.5q0 140 30 268t93.5 239t154 192.5t219.5 128.5
t283 47q202 0 322 -84z" />
    <glyph glyph-name="Ugrave" unicode="&#xd9;" horiz-adv-x="1519" 
d="M737 1186l-168 -547q-1 -3 -10.5 -37t-16 -59.5t-15 -62.5t-13 -70.5t-4.5 -59.5q0 -67 20.5 -118t48 -77.5t64 -42.5t60.5 -20t45 -4q78 0 149.5 22t118.5 60q77 61 130.5 156.5t96.5 259.5l125 471q37 129 30 185t-59 56h-53q-13 0 -16.5 4.5t-1.5 12.5l6 43
q3 11 8 15.5t18 4.5q1 0 75.5 -3t144.5 -3q52 0 94 1.5t64 3t28 1.5q13 0 16.5 -5t1.5 -19l-6 -39q-3 -17 -22 -17h-23q-45 0 -81 -56t-72 -167l-156 -504q-36 -115 -72 -199t-92 -164t-125 -129.5t-168 -79.5t-223 -30q-131 0 -231.5 40t-161 126t-60.5 209q0 102 43 256
l175 571q18 69 3 98t-55 29h-73q-18 0 -15 17l10 47q2 9 7 12.5t20 3.5q5 0 39.5 -1.5t106 -3t167.5 -1.5q73 0 132 1.5t89.5 3t34.5 1.5q22 0 19 -24l-8 -39q-3 -17 -21 -17h-51q-81 0 -117 -112zM1176 1509l-15 -20q-5 -5 -14 0l-318 145q-46 21 -60.5 53.5t-2 60.5
t37 48.5t50.5 20.5q22 0 40.5 -8t27.5 -16.5t22 -23.5l227 -243q11 -8 5 -17z" />
    <glyph glyph-name="Uacute" unicode="&#xda;" horiz-adv-x="1519" 
d="M737 1186l-168 -547q-1 -3 -10.5 -37t-16 -59.5t-15 -62.5t-13 -70.5t-4.5 -59.5q0 -67 20.5 -118t48 -77.5t64 -42.5t60.5 -20t45 -4q78 0 149.5 22t118.5 60q77 61 130.5 156.5t96.5 259.5l125 471q37 129 30 185t-59 56h-53q-13 0 -16.5 4.5t-1.5 12.5l6 43
q3 11 8 15.5t18 4.5q1 0 75.5 -3t144.5 -3q52 0 94 1.5t64 3t28 1.5q13 0 16.5 -5t1.5 -19l-6 -39q-3 -17 -22 -17h-23q-45 0 -81 -56t-72 -167l-156 -504q-36 -115 -72 -199t-92 -164t-125 -129.5t-168 -79.5t-223 -30q-131 0 -231.5 40t-161 126t-60.5 209q0 102 43 256
l175 571q18 69 3 98t-55 29h-73q-18 0 -15 17l10 47q2 9 7 12.5t20 3.5q5 0 39.5 -1.5t106 -3t167.5 -1.5q73 0 132 1.5t89.5 3t34.5 1.5q22 0 19 -24l-8 -39q-3 -17 -21 -17h-51q-81 0 -117 -112zM1067 1493l-12 20q-5 10 6 21l270 233q42 37 82 37q47 0 74.5 -38t16 -84
t-61.5 -64l-359 -127q-12 -6 -16 2z" />
    <glyph glyph-name="Ucircumflex" unicode="&#xdb;" horiz-adv-x="1519" 
d="M737 1186l-168 -547q-1 -3 -10.5 -37t-16 -59.5t-15 -62.5t-13 -70.5t-4.5 -59.5q0 -67 20.5 -118t48 -77.5t64 -42.5t60.5 -20t45 -4q78 0 149.5 22t118.5 60q77 61 130.5 156.5t96.5 259.5l125 471q37 129 30 185t-59 56h-53q-13 0 -16.5 4.5t-1.5 12.5l6 43
q3 11 8 15.5t18 4.5q1 0 75.5 -3t144.5 -3q52 0 94 1.5t64 3t28 1.5q13 0 16.5 -5t1.5 -19l-6 -39q-3 -17 -22 -17h-23q-45 0 -81 -56t-72 -167l-156 -504q-36 -115 -72 -199t-92 -164t-125 -129.5t-168 -79.5t-223 -30q-131 0 -231.5 40t-161 126t-60.5 209q0 102 43 256
l175 571q18 69 3 98t-55 29h-73q-18 0 -15 17l10 47q2 9 7 12.5t20 3.5q5 0 39.5 -1.5t106 -3t167.5 -1.5q73 0 132 1.5t89.5 3t34.5 1.5q22 0 19 -24l-8 -39q-3 -17 -21 -17h-51q-81 0 -117 -112zM1311 1499l-164 109l-258 -117q-11 -5 -19 6l-14 25q-2 5 4 14l301 301
q7 9 18 8.5t17 -12.5l162 -303q7 -10 -4 -17l-21 -18q-8 -6 -22 4z" />
    <glyph glyph-name="Udieresis" unicode="&#xdc;" horiz-adv-x="1519" 
d="M737 1186l-168 -547q-1 -3 -10.5 -37t-16 -59.5t-15 -62.5t-13 -70.5t-4.5 -59.5q0 -67 20.5 -118t48 -77.5t64 -42.5t60.5 -20t45 -4q78 0 149.5 22t118.5 60q77 61 130.5 156.5t96.5 259.5l125 471q37 129 30 185t-59 56h-53q-13 0 -16.5 4.5t-1.5 12.5l6 43
q3 11 8 15.5t18 4.5q1 0 75.5 -3t144.5 -3q52 0 94 1.5t64 3t28 1.5q13 0 16.5 -5t1.5 -19l-6 -39q-3 -17 -22 -17h-23q-45 0 -81 -56t-72 -167l-156 -504q-36 -115 -72 -199t-92 -164t-125 -129.5t-168 -79.5t-223 -30q-131 0 -231.5 40t-161 126t-60.5 209q0 102 43 256
l175 571q18 69 3 98t-55 29h-73q-18 0 -15 17l10 47q2 9 7 12.5t20 3.5q5 0 39.5 -1.5t106 -3t167.5 -1.5q73 0 132 1.5t89.5 3t34.5 1.5q22 0 19 -24l-8 -39q-3 -17 -21 -17h-51q-81 0 -117 -112zM942 1532q-46 0 -82.5 25t-36.5 88q0 35 27 66.5t92 31.5q45 0 76 -28.5
t31 -78.5q0 -46 -31 -75t-76 -29zM1348 1532q-46 0 -82.5 25t-36.5 88q0 35 27 66.5t92 31.5q45 0 75.5 -28.5t30.5 -78.5q0 -46 -30.5 -75t-75.5 -29z" />
    <glyph glyph-name="Yacute" unicode="&#xdd;" horiz-adv-x="1187" 
d="M420 178l67 303q12 56 -2 105l-209 635q-26 77 -124 77h-48q-17 0 -14 17l8 47q1 10 5.5 13t15.5 3q7 0 36 -1.5t89.5 -3t144.5 -1.5q85 0 150.5 1.5t98.5 3t40 1.5q21 0 18 -16l-4 -47q-3 -17 -18 -17h-53q-71 0 -46 -94l142 -532q5 -18 13 -25.5t17.5 -2t18.5 23.5
q2 3 150 243t159 275q18 60 1 86t-62 26h-49q-19 0 -15 21l4 47q2 12 25 12q4 0 79 -3t142 -3q60 0 110 1.5t78.5 3t36.5 1.5q13 0 18 -4.5t3 -15.5l-6 -45q-3 -15 -17 -15h-39q-88 0 -145 -88q-5 -7 -209 -296t-221 -320q-31 -57 -57 -178l-52 -228q-9 -39 -9.5 -61.5
t10 -34.5t26 -15t47.5 -3h33q17 0 14 -17l-6 -47q-3 -16 -22 -16q-9 0 -41.5 1.5t-94.5 3t-141 1.5q-85 0 -148.5 -1.5t-94 -3t-35.5 -1.5q-10 0 -14 3.5t-3 12.5l8 47q0 17 19 17h39q111 0 133 104zM819 1493l-12 20q-5 10 6 21l270 233q42 37 82 37q47 0 74.5 -38t16 -84
t-61.5 -64l-358 -127q-13 -6 -17 2z" />
    <glyph glyph-name="Thorn" unicode="&#xde;" horiz-adv-x="1290" 
d="M207 233l246 928q7 29 9.5 50t0 42.5t-16.5 33t-40 11.5h-76q-16 0 -13 15l17 53q3 12 16 12q2 0 47.5 -1.5t118.5 -3t141 -1.5q73 0 167 3l94 3q12 0 16.5 -3.5t3.5 -12.5l-8 -47q-3 -17 -23 -17h-41q-44 0 -77.5 -33t-51.5 -89l-18 -62q27 -2 76 -2q158 0 251.5 -21
t165.5 -79q65 -53 91 -112t26 -159q0 -66 -21.5 -128t-69 -120t-117.5 -101t-174.5 -69t-231.5 -26q-131 0 -205 14l-23 -88q-9 -40 -8.5 -73t15 -54.5t41.5 -21.5h77q17 0 17 -17l-8 -51q-3 -12 -23 -12q-6 0 -39.5 1.5t-98 3t-145.5 1.5q-79 0 -142.5 -1.5t-97 -3
t-40.5 -1.5q-10 0 -15.5 4t-3.5 12l7 51q1 5 2.5 7.5t4 4t7.5 1.5h47q49 0 75.5 41t47.5 118zM700 1034l-165 -633q49 -28 161 -28q66 0 123.5 23t98 61.5t69.5 88t43 103t14 105.5q0 66 -20 118.5t-49.5 82.5t-66.5 49.5t-67 26.5t-55 7q-59 0 -86 -4z" />
    <glyph glyph-name="germandbls" unicode="&#xdf;" horiz-adv-x="1038" 
d="M610 -20q-102 0 -156.5 33t-54.5 89q0 40 24 69.5t56 29.5q80 0 103 -90q16 -62 59 -62q101 0 104 144q1 21 -11 50.5t-22.5 47t-33.5 51.5t-23 35q-3 5 -17.5 28.5t-18 29.5t-14.5 25.5t-14.5 27.5t-11 25t-9.5 28.5t-4.5 26.5t-2.5 30q0 41 13.5 80t42.5 77.5t46 57
t52 53.5q74 76 100.5 152t26.5 166q0 51 -30.5 94t-78.5 43q-29 0 -56 -17.5t-48.5 -44.5t-42 -70.5t-35 -84t-30.5 -98t-25.5 -99.5t-22.5 -100q-41 -188 -106.5 -442.5t-126.5 -430.5q-24 -69 -59 -140t-85 -144.5t-105.5 -129.5t-125.5 -92t-141 -36q-90 0 -141.5 36.5
t-51.5 94.5q0 51 25.5 79.5t72.5 28.5q49 0 76.5 -33t32.5 -79q4 -35 55 -35q127 0 254 541l160 692q20 86 33.5 135.5t42 127.5t71.5 147.5t103 136.5q44 49 142 97t190 48q143 0 206.5 -58.5t63.5 -154.5q0 -45 -16.5 -88.5t-49.5 -84t-64 -71t-77 -69.5q-4 -3 -17 -14
t-16.5 -14.5t-15 -13.5t-15 -15t-12 -15t-11.5 -16.5t-8.5 -17t-7.5 -19.5t-4 -21t-2 -24q0 -46 24 -90.5t73 -104.5q41 -49 71.5 -116.5t30.5 -129.5q0 -125 -91.5 -208.5t-242.5 -83.5z" />
    <glyph glyph-name="agrave" unicode="&#xe0;" horiz-adv-x="974" 
d="M807 885h145q10 0 15 -7t2 -18q-138 -391 -146 -426q-3 -12 -23.5 -81.5t-38.5 -134.5t-18 -79q0 -24 25 -24q9 0 22.5 9.5t28.5 26t25.5 29.5t24 30.5t14.5 18.5q12 14 20 9l25 -17q7 -5 -2 -26q-8 -16 -23 -38.5t-45 -54.5t-65.5 -58.5t-86 -45t-104.5 -18.5
q-43 0 -63.5 18.5t-20.5 46.5q0 34 80 266l-18 11q-90 -138 -144 -198q-130 -144 -264 -144q-44 0 -92.5 50.5t-48.5 108.5q0 77 28 175t80.5 195.5t119 179.5t151 133.5t168.5 51.5q101 0 159 -71l33 59q14 23 37 23zM274 207q0 -62 50 -62q25 0 87.5 71.5t119 154.5
t77.5 127q47 103 47 196q0 33 -29.5 62.5t-60.5 29.5q-76 0 -153 -139q-71 -127 -104.5 -241.5t-33.5 -198.5zM707 985l-15 -16q-7 -11 -18 0l-244 161q-43 29 -47.5 68.5t21.5 67.5t63 28q51 0 82 -49l158 -244q8 -8 0 -16z" />
    <glyph glyph-name="aacute" unicode="&#xe1;" horiz-adv-x="974" 
d="M807 885h145q10 0 15 -7t2 -18q-138 -391 -146 -426q-3 -12 -23.5 -81.5t-38.5 -134.5t-18 -79q0 -24 25 -24q9 0 22.5 9.5t28.5 26t25.5 29.5t24 30.5t14.5 18.5q12 14 20 9l25 -17q7 -5 -2 -26q-8 -16 -23 -38.5t-45 -54.5t-65.5 -58.5t-86 -45t-104.5 -18.5
q-43 0 -63.5 18.5t-20.5 46.5q0 34 80 266l-18 11q-90 -138 -144 -198q-130 -144 -264 -144q-44 0 -92.5 50.5t-48.5 108.5q0 77 28 175t80.5 195.5t119 179.5t151 133.5t168.5 51.5q101 0 159 -71l33 59q14 23 37 23zM274 207q0 -62 50 -62q25 0 87.5 71.5t119 154.5
t77.5 127q47 103 47 196q0 33 -29.5 62.5t-60.5 29.5q-76 0 -153 -139q-71 -127 -104.5 -241.5t-33.5 -198.5zM645 969l-14 20q-5 5 8 17l227 211q56 49 99 49q27 0 47.5 -20.5t26 -47.5t-9 -56t-50.5 -44l-317 -131q-13 -6 -17 2z" />
    <glyph glyph-name="acircumflex" unicode="&#xe2;" horiz-adv-x="974" 
d="M807 885h145q10 0 15 -7t2 -18q-138 -391 -146 -426q-3 -12 -23.5 -81.5t-38.5 -134.5t-18 -79q0 -24 25 -24q9 0 22.5 9.5t28.5 26t25.5 29.5t24 30.5t14.5 18.5q12 14 20 9l25 -17q7 -5 -2 -26q-8 -16 -23 -38.5t-45 -54.5t-65.5 -58.5t-86 -45t-104.5 -18.5
q-43 0 -63.5 18.5t-20.5 46.5q0 34 80 266l-18 11q-90 -138 -144 -198q-130 -144 -264 -144q-44 0 -92.5 50.5t-48.5 108.5q0 77 28 175t80.5 195.5t119 179.5t151 133.5t168.5 51.5q101 0 159 -71l33 59q14 23 37 23zM274 207q0 -62 50 -62q25 0 87.5 71.5t119 154.5
t77.5 127q47 103 47 196q0 33 -29.5 62.5t-60.5 29.5q-76 0 -153 -139q-71 -127 -104.5 -241.5t-33.5 -198.5zM774 1327l111 -323q4 -12 -4 -17l-17 -8q-10 -6 -16 0l-135 127l-219 -125q-10 -5 -15 2l-12 18q-7 7 2 19l276 315q7 9 16.5 6.5t12.5 -14.5z" />
    <glyph glyph-name="atilde" unicode="&#xe3;" horiz-adv-x="974" 
d="M807 885h145q10 0 15 -7t2 -18q-138 -391 -146 -426q-3 -12 -23.5 -81.5t-38.5 -134.5t-18 -79q0 -24 25 -24q9 0 22.5 9.5t28.5 26t25.5 29.5t24 30.5t14.5 18.5q12 14 20 9l25 -17q7 -5 -2 -26q-8 -16 -23 -38.5t-45 -54.5t-65.5 -58.5t-86 -45t-104.5 -18.5
q-43 0 -63.5 18.5t-20.5 46.5q0 34 80 266l-18 11q-90 -138 -144 -198q-130 -144 -264 -144q-44 0 -92.5 50.5t-48.5 108.5q0 77 28 175t80.5 195.5t119 179.5t151 133.5t168.5 51.5q101 0 159 -71l33 59q14 23 37 23zM274 207q0 -62 50 -62q25 0 87.5 71.5t119 154.5
t77.5 127q47 103 47 196q0 33 -29.5 62.5t-60.5 29.5q-76 0 -153 -139q-71 -127 -104.5 -241.5t-33.5 -198.5zM449 989l-27 17q-8 8 -2 20q27 66 76.5 122t97.5 56q36 0 121 -24q67 -21 116 -21q30 0 55 17t38 41q6 13 16 8l31 -17q9 -6 -4 -37q-28 -58 -74.5 -104.5
t-85.5 -46.5q-37 0 -135 24q-17 4 -40.5 11t-36.5 9.5t-26 0.5q-26 0 -57.5 -20.5t-48.5 -49.5q-7 -11 -14 -6z" />
    <glyph glyph-name="adieresis" unicode="&#xe4;" horiz-adv-x="974" 
d="M807 885h145q10 0 15 -7t2 -18q-138 -391 -146 -426q-3 -12 -23.5 -81.5t-38.5 -134.5t-18 -79q0 -24 25 -24q9 0 22.5 9.5t28.5 26t25.5 29.5t24 30.5t14.5 18.5q12 14 20 9l25 -17q7 -5 -2 -26q-8 -16 -23 -38.5t-45 -54.5t-65.5 -58.5t-86 -45t-104.5 -18.5
q-43 0 -63.5 18.5t-20.5 46.5q0 34 80 266l-18 11q-90 -138 -144 -198q-130 -144 -264 -144q-44 0 -92.5 50.5t-48.5 108.5q0 77 28 175t80.5 195.5t119 179.5t151 133.5t168.5 51.5q101 0 159 -71l33 59q14 23 37 23zM274 207q0 -62 50 -62q25 0 87.5 71.5t119 154.5
t77.5 127q47 103 47 196q0 33 -29.5 62.5t-60.5 29.5q-76 0 -153 -139q-71 -127 -104.5 -241.5t-33.5 -198.5zM508 1081q-42 0 -75.5 23.5t-33.5 79.5q0 32 25.5 62t83.5 30q42 0 70 -26.5t28 -73.5q0 -43 -28 -69t-70 -26zM868 1081q-42 0 -75 23.5t-33 79.5q0 33 25 62.5
t83 29.5q42 0 70.5 -26.5t28.5 -73.5q0 -43 -28.5 -69t-70.5 -26z" />
    <glyph glyph-name="aring" unicode="&#xe5;" horiz-adv-x="974" 
d="M807 885h145q10 0 15 -7t2 -18q-138 -391 -146 -426q-3 -12 -23.5 -81.5t-38.5 -134.5t-18 -79q0 -24 25 -24q9 0 22.5 9.5t28.5 26t25.5 29.5t24 30.5t14.5 18.5q12 14 20 9l25 -17q7 -5 -2 -26q-8 -16 -23 -38.5t-45 -54.5t-65.5 -58.5t-86 -45t-104.5 -18.5
q-43 0 -63.5 18.5t-20.5 46.5q0 34 80 266l-18 11q-90 -138 -144 -198q-130 -144 -264 -144q-44 0 -92.5 50.5t-48.5 108.5q0 77 28 175t80.5 195.5t119 179.5t151 133.5t168.5 51.5q101 0 159 -71l33 59q14 23 37 23zM274 207q0 -62 50 -62q25 0 87.5 71.5t119 154.5
t77.5 127q47 103 47 196q0 33 -29.5 62.5t-60.5 29.5q-76 0 -153 -139q-71 -127 -104.5 -241.5t-33.5 -198.5zM645 995q-84 0 -149.5 41.5t-65.5 110.5q0 54 37.5 95t88.5 59t103 18q53 0 100.5 -15t83.5 -53.5t36 -95.5q0 -73 -73 -116.5t-161 -43.5zM653 1055q38 0 63 26
t25 76q0 53 -28 76.5t-64 23.5q-32 0 -57 -26.5t-25 -77.5q0 -46 26 -72t60 -26z" />
    <glyph glyph-name="ae" unicode="&#xe6;" horiz-adv-x="1214" 
d="M737 367q140 85 201 157q70 82 70 176q0 81 -70 78q-35 0 -78 -66.5t-76 -161.5t-47 -183zM727 289v-68q0 -30 31 -67t88 -37q126 0 203 104q7 10 18 2l31 -22q13 -8 4 -23q-36 -65 -149.5 -131.5t-256.5 -66.5q-83 0 -141 49t-76 129q-203 -178 -354 -178q-45 0 -82 41
t-37 85q0 106 63.5 224.5t158.5 214.5t204.5 170t204.5 104q170 55 383 55q203 0 203 -153q0 -68 -40 -129t-126 -125q-22 -16 -47 -32t-45.5 -28.5t-47 -27t-43 -23t-43.5 -21t-38 -17.5t-36.5 -16t-29.5 -13zM248 213q0 -74 55 -74q51 0 170 92q1 118 63 248t140 209
q33 38 33 53q0 9 -8 15t-17 6q-38 0 -117 -56t-153 -147q-86 -104 -126 -202t-40 -144z" />
    <glyph glyph-name="ccedilla" unicode="&#xe7;" horiz-adv-x="677" 
d="M80 -188l137 172q-68 15 -117 72.5t-49 150.5q0 74 24 163.5t71 178t108 161.5t142.5 118.5t166.5 45.5q81 0 120.5 -37.5t39.5 -74.5q0 -46 -30 -82.5t-62 -36.5q-66 0 -82 53q-19 66 -66 66q-26 0 -46.5 -31t-51.5 -106q-34 -86 -45.5 -119.5t-24 -104t-12.5 -155.5
q0 -58 16 -93.5t62 -35.5q42 0 93.5 24t74.5 49q11 14 18 9l25 -21q12 -8 2 -22q-32 -46 -110 -101.5t-177 -70.5l-100 -129q74 -22 109.5 -52.5t35.5 -74.5q0 -45 -37 -81.5t-93 -56.5t-112 -30.5t-102 -10.5q-39 0 -39 37q0 33 37 33q57 0 104.5 29.5t47.5 66.5
q0 27 -21 54.5t-57 42.5z" />
    <glyph glyph-name="egrave" unicode="&#xe8;" horiz-adv-x="798" 
d="M645 227l33 -22q11 -8 4 -21q-21 -41 -72 -86t-138.5 -81.5t-180.5 -36.5q-107 0 -173.5 61t-66.5 168q0 129 61 272t187 250q166 143 342 143q81 0 120.5 -39t39.5 -102q0 -159 -187 -266q-139 -78 -301 -90q-16 -36 -16 -129q0 -56 30 -94.5t81 -38.5q123 0 221 106
q8 12 16 6zM330 453q31 -2 88.5 20.5t97.5 61.5q27 25 46.5 72t19.5 95q0 70 -56 70q-54 0 -112 -103t-84 -216zM700 985l-14 -16q-7 -11 -18 0l-244 161q-43 29 -47.5 68.5t21.5 67.5t63 28q51 0 82 -49l157 -244q8 -8 0 -16z" />
    <glyph glyph-name="eacute" unicode="&#xe9;" horiz-adv-x="798" 
d="M645 227l33 -22q11 -8 4 -21q-21 -41 -72 -86t-138.5 -81.5t-180.5 -36.5q-107 0 -173.5 61t-66.5 168q0 129 61 272t187 250q166 143 342 143q81 0 120.5 -39t39.5 -102q0 -159 -187 -266q-139 -78 -301 -90q-16 -36 -16 -129q0 -56 30 -94.5t81 -38.5q123 0 221 106
q8 12 16 6zM330 453q31 -2 88.5 20.5t97.5 61.5q27 25 46.5 72t19.5 95q0 70 -56 70q-54 0 -112 -103t-84 -216zM496 969l-15 20q-5 5 8 17l228 211q56 49 98 49q27 0 47.5 -20.5t26 -47.5t-9 -56t-50.5 -44l-317 -131q-12 -6 -16 2z" />
    <glyph glyph-name="ecircumflex" unicode="&#xea;" horiz-adv-x="798" 
d="M645 227l33 -22q11 -8 4 -21q-21 -41 -72 -86t-138.5 -81.5t-180.5 -36.5q-107 0 -173.5 61t-66.5 168q0 129 61 272t187 250q166 143 342 143q81 0 120.5 -39t39.5 -102q0 -159 -187 -266q-139 -78 -301 -90q-16 -36 -16 -129q0 -56 30 -94.5t81 -38.5q123 0 221 106
q8 12 16 6zM330 453q31 -2 88.5 20.5t97.5 61.5q27 25 46.5 72t19.5 95q0 70 -56 70q-54 0 -112 -103t-84 -216zM694 1327l111 -323q4 -12 -4 -17l-17 -8q-10 -6 -16 0l-135 127l-219 -125q-10 -5 -15 2l-12 18q-7 7 2 19l277 315q8 9 16.5 6.5t11.5 -14.5z" />
    <glyph glyph-name="edieresis" unicode="&#xeb;" horiz-adv-x="798" 
d="M645 227l33 -22q11 -8 4 -21q-21 -41 -72 -86t-138.5 -81.5t-180.5 -36.5q-107 0 -173.5 61t-66.5 168q0 129 61 272t187 250q166 143 342 143q81 0 120.5 -39t39.5 -102q0 -159 -187 -266q-139 -78 -301 -90q-16 -36 -16 -129q0 -56 30 -94.5t81 -38.5q123 0 221 106
q8 12 16 6zM330 453q31 -2 88.5 20.5t97.5 61.5q27 25 46.5 72t19.5 95q0 70 -56 70q-54 0 -112 -103t-84 -216zM461 1081q-42 0 -75.5 23.5t-33.5 79.5q0 32 25.5 62t83.5 30q42 0 70 -26.5t28 -73.5q0 -43 -28 -69t-70 -26zM821 1081q-42 0 -75 23.5t-33 79.5
q0 33 25 62.5t83 29.5q42 0 70.5 -26.5t28.5 -73.5q0 -43 -28.5 -69t-70.5 -26z" />
    <glyph glyph-name="igrave" unicode="&#xec;" horiz-adv-x="606" 
d="M535 238l24 -25q9 -9 2 -20q-8 -13 -20 -29.5t-49 -52t-79 -62t-109.5 -48t-141.5 -21.5q-80 0 -80 61q0 6 1 14t4.5 20.5t6.5 24.5t10 33l13 39t16.5 49t19.5 56t23.5 68t26.5 77l55 162q5 21 13.5 46.5t13 41t4.5 26.5t-7 19t-20 8q-22 0 -71 -49.5t-78 -87.5
q-13 -12 -23 -2l-18 18q-12 12 -6 19l8 10q7 10 16 21t24 28.5t31.5 34t38.5 36t45 36.5t50.5 33t55.5 27t60 18t64 7q45 0 67.5 -20t22.5 -53q0 -11 -2.5 -25t-5.5 -26t-10 -35t-12 -37.5t-17 -48.5t-19 -54l-110 -313q-33 -100 -33 -125q0 -28 27 -28q26 0 80.5 51.5
t70.5 75.5q8 11 17 2zM575 985l-14 -16q-7 -11 -18 0l-244 161q-43 29 -47.5 68.5t21.5 67.5t63 28q51 0 82 -49l157 -244q8 -8 0 -16z" />
    <glyph glyph-name="iacute" unicode="&#xed;" horiz-adv-x="606" 
d="M535 238l24 -25q9 -9 2 -20q-8 -13 -20 -29.5t-49 -52t-79 -62t-109.5 -48t-141.5 -21.5q-80 0 -80 61q0 6 1 14t4.5 20.5t6.5 24.5t10 33l13 39t16.5 49t19.5 56t23.5 68t26.5 77l55 162q5 21 13.5 46.5t13 41t4.5 26.5t-7 19t-20 8q-22 0 -71 -49.5t-78 -87.5
q-13 -12 -23 -2l-18 18q-12 12 -6 19l8 10q7 10 16 21t24 28.5t31.5 34t38.5 36t45 36.5t50.5 33t55.5 27t60 18t64 7q45 0 67.5 -20t22.5 -53q0 -11 -2.5 -25t-5.5 -26t-10 -35t-12 -37.5t-17 -48.5t-19 -54l-110 -313q-33 -100 -33 -125q0 -28 27 -28q26 0 80.5 51.5
t70.5 75.5q8 11 17 2zM410 969l-15 20q-5 5 8 17l228 211q56 49 98 49q27 0 47.5 -20.5t26 -47.5t-9 -56t-50.5 -44l-317 -131q-12 -6 -16 2z" />
    <glyph glyph-name="icircumflex" unicode="&#xee;" horiz-adv-x="606" 
d="M535 238l24 -25q9 -9 2 -20q-8 -13 -20 -29.5t-49 -52t-79 -62t-109.5 -48t-141.5 -21.5q-80 0 -80 61q0 6 1 14t4.5 20.5t6.5 24.5t10 33l13 39t16.5 49t19.5 56t23.5 68t26.5 77l55 162q5 21 13.5 46.5t13 41t4.5 26.5t-7 19t-20 8q-22 0 -71 -49.5t-78 -87.5
q-13 -12 -23 -2l-18 18q-12 12 -6 19l8 10q7 10 16 21t24 28.5t31.5 34t38.5 36t45 36.5t50.5 33t55.5 27t60 18t64 7q45 0 67.5 -20t22.5 -53q0 -11 -2.5 -25t-5.5 -26t-10 -35t-12 -37.5t-17 -48.5t-19 -54l-110 -313q-33 -100 -33 -125q0 -28 27 -28q26 0 80.5 51.5
t70.5 75.5q8 11 17 2zM567 1327l111 -323q4 -12 -4 -17l-17 -8q-10 -6 -16 0l-135 127l-219 -125q-10 -5 -15 2l-12 18q-7 7 2 19l277 315q8 9 16.5 6.5t11.5 -14.5z" />
    <glyph glyph-name="idieresis" unicode="&#xef;" horiz-adv-x="606" 
d="M535 238l24 -25q9 -9 2 -20q-8 -13 -20 -29.5t-49 -52t-79 -62t-109.5 -48t-141.5 -21.5q-80 0 -80 61q0 6 1 14t4.5 20.5t6.5 24.5t10 33l13 39t16.5 49t19.5 56t23.5 68t26.5 77l55 162q31 91 31 114q0 11 -7 19t-20 8q-22 0 -71 -49.5t-78 -87.5q-13 -12 -23 -2
l-18 18q-12 12 -6 19l8 10q7 10 16 21t24 28.5t31.5 34t38.5 36t45 36.5t50.5 33t55.5 27t60 18t64 7q45 0 67.5 -20t22.5 -53q0 -11 -2.5 -25t-5.5 -26t-10 -35t-12 -37.5t-17 -48.5t-19 -54l-110 -313q-33 -93 -33 -125q0 -28 27 -28q26 0 80.5 51.5t70.5 75.5q8 11 17 2z
M303 1081q-42 0 -75 23.5t-33 79.5q0 33 25 62.5t83 29.5q42 0 70 -26.5t28 -73.5q0 -43 -28 -69t-70 -26zM664 1081q-42 0 -75.5 23.5t-33.5 79.5q0 32 25.5 62t83.5 30q42 0 70 -26.5t28 -73.5q0 -43 -28 -69t-70 -26z" />
    <glyph glyph-name="eth" unicode="&#xf0;" horiz-adv-x="890" 
d="M340 57q53 2 126.5 123.5t125 269t51.5 226.5q0 110 -82 110q-117 0 -235 -323q-63 -177 -74 -240q-6 -31 -6 -57q0 -16 3 -32t12 -35t29.5 -31t49.5 -11zM451 1407l34 29q10 7 19 -2q56 -38 122 -105t99 -121l180 60q12 3 17 -8l18 -48q6 -17 -8 -20l-164 -55
q98 -181 98 -441q0 -70 -13 -147.5t-39 -159t-69.5 -154t-99 -130t-133.5 -91.5t-168 -34q-42 0 -79 7t-77.5 27.5t-69.5 53.5t-48 90.5t-19 132.5q0 73 15.5 150t52 155.5t88.5 139.5t133 99.5t178 38.5q73 0 119 -32l12 4q2 45 -9.5 115t-33.5 122l-231 -77q-15 -6 -21 8
l-18 49q-7 14 8 20l236 78q-36 86 -136 230q-3 6 7 16z" />
    <glyph glyph-name="ntilde" unicode="&#xf1;" horiz-adv-x="1087" 
d="M244 0h-174q-10 0 -16 7t-3 16l142 393q92 253 92 289q0 32 -27 32q-20 0 -64 -38t-73 -72q-11 -11 -21 -2l-20 22q-11 9 -2 21q15 20 30.5 38t52.5 51.5t75.5 56.5t96.5 41.5t118 18.5q41 0 61 -24.5t20 -54.5q0 -41 -98 -267l19 -14q87 128 139 187q154 173 295 173
q61 0 96 -44t35 -93q0 -32 -24 -107.5t-95 -275.5q-65 -184 -65 -209q0 -34 26 -34q17 0 55.5 32.5t57.5 55.5q9 11 20 0l19 -17q13 -10 2 -24q-15 -20 -38.5 -43t-67.5 -57t-107 -56t-131 -22q-43 0 -62.5 21.5t-19.5 55.5q0 37 106 340q82 234 82 269q0 45 -41 45
q-35 0 -126 -97.5t-154 -199.5q-9 -15 -26 -41.5t-26 -41t-20.5 -33.5t-18.5 -32.5t-10 -23.5l-80 -230q-6 -12 -30 -12zM506 989l-27 17q-8 8 -2 20q27 66 76.5 122t97.5 56q35 0 121 -24q67 -21 117 -21q30 0 54.5 17t37.5 41q6 13 16 8l31 -17q9 -6 -4 -37
q-28 -58 -74.5 -104.5t-85.5 -46.5q-37 0 -135 24q-15 4 -33 9t-26 7.5t-22 4.5t-21 0q-27 0 -58.5 -20.5t-48.5 -49.5q-7 -11 -14 -6z" />
    <glyph glyph-name="ograve" unicode="&#xf2;" horiz-adv-x="858" 
d="M334 -20q-37 0 -74 10t-73 34t-63 59t-44 89t-17 121q0 132 39.5 252.5t122.5 210.5q113 118 293 118q37 0 73 -7t76.5 -27.5t70 -52.5t49.5 -87t20 -127q0 -110 -42 -246t-130 -229q-59 -64 -130 -91t-171 -27zM305 98q50 0 101 45t110 158q49 92 87 203t38 166
q0 40 -18.5 64t-57.5 24q-57 0 -107 -54t-122 -184q-50 -88 -76.5 -176.5t-26.5 -155.5q0 -34 19.5 -62t52.5 -28zM670 985l-15 -16q-7 -11 -18 0l-244 161q-43 29 -47.5 68.5t21.5 67.5t63 28q51 0 82 -49l158 -244q8 -8 0 -16z" />
    <glyph glyph-name="oacute" unicode="&#xf3;" horiz-adv-x="858" 
d="M334 -20q-37 0 -74 10t-73 34t-63 59t-44 89t-17 121q0 132 39.5 252.5t122.5 210.5q113 118 293 118q37 0 73 -7t76.5 -27.5t70 -52.5t49.5 -87t20 -127q0 -110 -42 -246t-130 -229q-59 -64 -130 -91t-171 -27zM305 98q50 0 101 45t110 158q49 92 87 203t38 166
q0 40 -18.5 64t-57.5 24q-57 0 -107 -54t-122 -184q-50 -88 -76.5 -176.5t-26.5 -155.5q0 -34 19.5 -62t52.5 -28zM465 969l-14 20q-5 5 8 17l227 211q56 49 98 49q27 0 47.5 -20.5t26.5 -47.5t-8.5 -56t-50.5 -44l-318 -131q-12 -6 -16 2z" />
    <glyph glyph-name="ocircumflex" unicode="&#xf4;" horiz-adv-x="858" 
d="M334 -20q-37 0 -74 10t-73 34t-63 59t-44 89t-17 121q0 132 39.5 252.5t122.5 210.5q113 118 293 118q37 0 73 -7t76.5 -27.5t70 -52.5t49.5 -87t20 -127q0 -110 -42 -246t-130 -229q-59 -64 -130 -91t-171 -27zM305 98q50 0 101 45t110 158q49 92 87 203t38 166
q0 40 -18.5 64t-57.5 24q-57 0 -107 -54t-122 -184q-50 -88 -76.5 -176.5t-26.5 -155.5q0 -34 19.5 -62t52.5 -28zM664 1327l110 -323q4 -12 -4 -17l-16 -8q-10 -7 -17 0l-135 127l-219 -125q-9 -5 -14 2l-13 18q-7 7 2 19l277 315q7 9 16.5 6.5t12.5 -14.5z" />
    <glyph glyph-name="otilde" unicode="&#xf5;" horiz-adv-x="858" 
d="M334 -20q-37 0 -74 10t-73 34t-63 59t-44 89t-17 121q0 132 39.5 252.5t122.5 210.5q113 118 293 118q37 0 73 -7t76.5 -27.5t70 -52.5t49.5 -87t20 -127q0 -110 -42 -246t-130 -229q-59 -64 -130 -91t-171 -27zM305 98q50 0 101 45t110 158q49 92 87 203t38 166
q0 40 -18.5 64t-57.5 24q-57 0 -107 -54t-122 -184q-50 -88 -76.5 -176.5t-26.5 -155.5q0 -34 19.5 -62t52.5 -28zM319 989l-26 17q-8 8 -2 20q27 66 76.5 122t97.5 56q35 0 121 -24q68 -21 116 -21q30 0 55 17t38 41q6 13 16 8l31 -17q9 -6 -4 -37q-28 -58 -74.5 -104.5
t-85.5 -46.5q-37 0 -135 24q-17 4 -40.5 11t-36.5 9.5t-26 0.5q-26 0 -57.5 -20.5t-48.5 -49.5q-7 -11 -15 -6z" />
    <glyph glyph-name="odieresis" unicode="&#xf6;" horiz-adv-x="858" 
d="M334 -20q-37 0 -74 10t-73 34t-63 59t-44 89t-17 121q0 132 39.5 252.5t122.5 210.5q113 118 293 118q37 0 73 -7t76.5 -27.5t70 -52.5t49.5 -87t20 -127q0 -110 -42 -246t-130 -229q-59 -64 -130 -91t-171 -27zM305 98q50 0 101 45t110 158q49 92 87 203t38 166
q0 40 -18.5 64t-57.5 24q-57 0 -107 -54t-122 -184q-50 -88 -76.5 -176.5t-26.5 -155.5q0 -34 19.5 -62t52.5 -28zM410 1081q-42 0 -75.5 23.5t-33.5 79.5q0 32 25.5 62t83.5 30q42 0 70 -26.5t28 -73.5q0 -43 -28 -69t-70 -26zM770 1081q-42 0 -75 23.5t-33 79.5
q0 33 25 62.5t83 29.5q42 0 70 -26.5t28 -73.5q0 -43 -28 -69t-70 -26z" />
    <glyph glyph-name="divide" unicode="&#xf7;" 
d="M127 582h813v-148h-813v148zM535 940q51 0 85.5 -33t34.5 -82q0 -48 -33.5 -81t-86.5 -33q-57 0 -90 32.5t-33 81.5t35 82t88 33zM535 305q52 0 86 -32t34 -85t-33.5 -82.5t-86.5 -29.5t-88 30t-35 82q0 53 35.5 85t87.5 32z" />
    <glyph glyph-name="oslash" unicode="&#xf8;" horiz-adv-x="858" 
d="M98 -25l-32 27q-9 9 0 18l53 66q-56 85 -56 207q0 295 158 461q115 120 299 120q109 0 176 -57l47 60q8 8 15 4l41 -31q8 -8 0 -19l-47 -59q53 -82 53 -199q0 -67 -15 -144.5t-55.5 -169t-99.5 -155.5q-61 -67 -135 -95.5t-174 -28.5q-89 0 -160 59l-49 -62
q-7 -11 -19 -2zM643 651l-397 -520q37 -33 61 -33q48 0 106 50.5t117 146.5q43 68 82 177.5t39 166.5zM223 197l402 532q-22 27 -72 27q-55 0 -97.5 -42.5t-127.5 -176.5q-109 -174 -109 -336z" />
    <glyph glyph-name="ugrave" unicode="&#xf9;" horiz-adv-x="1067" 
d="M829 854h183q13 0 19 -7.5t1 -19.5l-143 -438q-74 -226 -74 -252q3 -24 27 -24q12 0 31 17t33.5 34.5t38.5 47.5q5 6 7 9q10 13 21 2l22 -16q7 -5 0 -23q-10 -20 -27 -42.5t-47.5 -52.5t-66 -53.5t-86.5 -39.5t-106 -16q-40 0 -63.5 18.5t-23.5 50.5q0 24 37 133t64 178
l-23 13q-24 -38 -38 -59t-48 -68t-60.5 -77t-67 -69.5t-76 -62.5t-80 -40t-86.5 -17q-38 0 -74 36t-33 64q0 42 16.5 100t34.5 104t72 177q82 201 82 252q0 15 -10 25t-25 10q-21 0 -62 -32t-77 -75q-11 -14 -23 -2l-20 20q-7 10 0 19q21 27 34 42.5t49 49t70 52.5t87 35.5
t110 16.5q49 0 78 -28t29 -68q0 -78 -111 -350q-86 -211 -86 -254q0 -16 11 -26.5t24 -10.5q25 0 127.5 118.5t144.5 188.5q48 82 88 199l66 197q5 14 30 14zM733 985l-14 -16q-8 -11 -19 0l-243 161q-43 29 -47.5 68.5t21.5 67.5t63 28q50 0 81 -49l158 -244q8 -8 0 -16z
" />
    <glyph glyph-name="uacute" unicode="&#xfa;" horiz-adv-x="1067" 
d="M829 854h183q13 0 19 -7.5t1 -19.5l-143 -438q-74 -226 -74 -252q3 -24 27 -24q12 0 31 17t33.5 34.5t38.5 47.5q5 6 7 9q10 13 21 2l22 -16q7 -5 0 -23q-10 -20 -27 -42.5t-47.5 -52.5t-66 -53.5t-86.5 -39.5t-106 -16q-40 0 -63.5 18.5t-23.5 50.5q0 24 37 133t64 178
l-23 13q-24 -38 -38 -59t-48 -68t-60.5 -77t-67 -69.5t-76 -62.5t-80 -40t-86.5 -17q-38 0 -74 36t-33 64q0 42 16.5 100t34.5 104t72 177q82 201 82 252q0 15 -10 25t-25 10q-21 0 -62 -32t-77 -75q-11 -14 -23 -2l-20 20q-7 10 0 19q21 27 34 42.5t49 49t70 52.5t87 35.5
t110 16.5q49 0 78 -28t29 -68q0 -78 -111 -350q-86 -211 -86 -254q0 -16 11 -26.5t24 -10.5q25 0 127.5 118.5t144.5 188.5q48 82 88 199l66 197q5 14 30 14zM651 969l-14 20q-5 5 8 17l227 211q56 49 99 49q27 0 47.5 -20.5t26 -47.5t-9 -56t-50.5 -44l-317 -131
q-13 -6 -17 2z" />
    <glyph glyph-name="ucircumflex" unicode="&#xfb;" horiz-adv-x="1067" 
d="M829 854h183q13 0 19 -7.5t1 -19.5l-143 -438q-74 -226 -74 -252q3 -24 27 -24q12 0 31 17t33.5 34.5t38.5 47.5q5 6 7 9q10 13 21 2l22 -16q7 -5 0 -23q-10 -20 -27 -42.5t-47.5 -52.5t-66 -53.5t-86.5 -39.5t-106 -16q-40 0 -63.5 18.5t-23.5 50.5q0 24 37 133t64 178
l-23 13q-24 -38 -38 -59t-48 -68t-60.5 -77t-67 -69.5t-76 -62.5t-80 -40t-86.5 -17q-38 0 -74 36t-33 64q0 42 16.5 100t34.5 104t72 177q82 201 82 252q0 15 -10 25t-25 10q-21 0 -62 -32t-77 -75q-11 -14 -23 -2l-20 20q-7 10 0 19q21 27 34 42.5t49 49t70 52.5t87 35.5
t110 16.5q49 0 78 -28t29 -68q0 -78 -111 -350q-86 -211 -86 -254q0 -16 11 -26.5t24 -10.5q25 0 127.5 118.5t144.5 188.5q48 82 88 199l66 197q5 14 30 14zM809 1327l111 -323q4 -11 -5 -17l-16 -8q-10 -6 -16 0l-135 127l-220 -125q-10 -5 -14 2l-12 18q-7 7 2 19
l276 315q7 9 16.5 6.5t12.5 -14.5z" />
    <glyph glyph-name="udieresis" unicode="&#xfc;" horiz-adv-x="1067" 
d="M829 854h183q13 0 19 -7.5t1 -19.5l-143 -438q-74 -226 -74 -252q3 -24 27 -24q12 0 31 17t33.5 34.5t38.5 47.5q5 6 7 9q10 13 21 2l22 -16q7 -5 0 -23q-10 -20 -27 -42.5t-47.5 -52.5t-66 -53.5t-86.5 -39.5t-106 -16q-40 0 -63.5 18.5t-23.5 50.5q0 24 37 133t64 178
l-23 13q-24 -38 -38 -59t-48 -68t-60.5 -77t-67 -69.5t-76 -62.5t-80 -40t-86.5 -17q-38 0 -74 36t-33 64q0 42 16.5 100t34.5 104t72 177q82 201 82 252q0 15 -10 25t-25 10q-21 0 -62 -32t-77 -75q-11 -14 -23 -2l-20 20q-7 10 0 19q21 27 34 42.5t49 49t70 52.5t87 35.5
t110 16.5q49 0 78 -28t29 -68q0 -78 -111 -350q-86 -211 -86 -254q0 -16 11 -26.5t24 -10.5q25 0 127.5 118.5t144.5 188.5q48 82 88 199l66 197q5 14 30 14zM535 1081q-42 0 -75.5 23.5t-33.5 79.5q0 32 25.5 62t83.5 30q42 0 70 -26.5t28 -73.5q0 -43 -28 -69t-70 -26z
M895 1081q-42 0 -75.5 23.5t-33.5 79.5q0 32 25.5 62t83.5 30q42 0 70 -26.5t28 -73.5q0 -43 -28 -69t-70 -26z" />
    <glyph glyph-name="yacute" unicode="&#xfd;" horiz-adv-x="911" 
d="M94 563l-31 6q-10 3 -4 29q4 16 12 39t31.5 68t54 80t82.5 62t113 27q64 0 96 -52.5t41 -190.5q11 -162 13.5 -335t-2.5 -218l24 -2q26 45 86.5 183t75.5 204q16 83 16 137q0 28 -18 89t-18 87q0 38 28.5 68t81.5 30q68 0 95.5 -40t27.5 -117q0 -54 -45 -175.5
t-104 -232.5q-96 -180 -242.5 -396t-267.5 -337q-32 -34 -54.5 -54.5t-67.5 -56t-93 -54.5t-95 -19q-67 0 -103 30.5t-36 77.5q0 53 32 89t71 36q38 0 71 -37q32 -32 66 -32q41 0 82 28q41 25 84.5 69.5t66 73.5t39.5 56q37 53 25 162q0 3 -35.5 330.5t-46.5 386.5
q-5 26 -12.5 37.5t-24.5 11.5q-28 0 -56.5 -46.5t-39.5 -91.5q-5 -13 -19 -10zM563 969l-14 20q-5 5 8 17l227 211q56 49 99 49q27 0 47.5 -20.5t26 -47.5t-9 -56t-50.5 -44l-317 -131q-13 -6 -17 2z" />
    <glyph glyph-name="thorn" unicode="&#xfe;" horiz-adv-x="1017" 
d="M551 1335l231 64q16 4 23 4q10 0 10 -10q0 -7 -4 -19l-209 -504q18 4 53 4q159 0 239.5 -75t80.5 -213q0 -248 -232 -426q-69 -54 -197.5 -100.5t-258.5 -59.5l-131 -401q-26 -79 -10 -109.5t81 -30.5h47q13 0 13 -16l-15 -45q-4 -12 -22 -12q-5 0 -34.5 1.5t-87.5 3
t-134 1.5q-84 0 -145 -1.5t-89.5 -3t-33.5 -1.5q-18 0 -15 16l10 41q4 16 17 16h26q63 0 102.5 37t70.5 125l382 1092q-65 -17 -132 -66t-97 -90q-10 -13 -22 -4l-21 18q-10 8 0 23q130 176 315 240l154 454q11 40 35 47zM567 766l-252 -690q53 8 110.5 33t113.5 68
t100.5 96t72 124t27.5 146q0 116 -40 171.5t-81 55.5q-37 0 -51 -4z" />
    <glyph glyph-name="ydieresis" unicode="&#xff;" horiz-adv-x="911" 
d="M94 563l-31 6q-10 3 -4 29q4 16 12 39t31.5 68t54 80t82.5 62t113 27q64 0 96 -52.5t41 -190.5q11 -162 13.5 -335t-2.5 -218l24 -2q26 45 86.5 183t75.5 204q16 83 16 137q0 28 -18 89t-18 87q0 38 28.5 68t81.5 30q68 0 95.5 -40t27.5 -117q0 -54 -45 -175.5
t-104 -232.5q-96 -180 -242.5 -396t-267.5 -337q-32 -34 -54.5 -54.5t-67.5 -56t-93 -54.5t-95 -19q-67 0 -103 30.5t-36 77.5q0 53 32 89t71 36q38 0 71 -37q32 -32 66 -32q41 0 82 28q41 25 84.5 69.5t66 73.5t39.5 56q37 53 25 162q0 3 -35.5 330.5t-46.5 386.5
q-5 26 -12.5 37.5t-24.5 11.5q-28 0 -56.5 -46.5t-39.5 -91.5q-5 -13 -19 -10zM446 1081q-42 0 -75 23.5t-33 79.5q0 33 25 62.5t83 29.5q42 0 70.5 -26.5t28.5 -73.5q0 -43 -28.5 -69t-70.5 -26zM807 1081q-42 0 -75.5 23.5t-33.5 79.5q0 32 25.5 62t83.5 30q42 0 70 -26.5
t28 -73.5q0 -43 -28 -69t-70 -26z" />
    <glyph glyph-name="Amacron" unicode="&#x100;" horiz-adv-x="1345" 
d="M926 614h-342l-201 -260q-127 -166 -127 -217q0 -63 84 -63h51q18 0 15 -21l-7 -43q-3 -16 -22 -16q-4 0 -40 1.5t-103 3t-146 1.5q-69 0 -125.5 -1.5t-87.5 -3t-37 -1.5q-19 0 -16 18l8 45q3 17 14 17h33q48 0 118 39.5t122 101.5l962 1137q15 18 47 18q36 0 158 16
q28 3 58.5 10t37.5 7q27 0 21 -21l-305 -1136q-23 -81 -23 -115q0 -25 21.5 -41t52.5 -16h43q9 0 13.5 -4.5t2.5 -10.5l-6 -47q-4 -18 -24 -18q-6 0 -41 1.5t-99.5 3t-142.5 1.5q-76 0 -136 -1.5t-92 -3t-42 -1.5q-13 0 -18 5t-3 15l8 43q3 17 17 17h41q27 0 44.5 5t37 20.5
t35.5 49.5t32 89zM639 688h309l152 510q6 21 -11.5 26.5t-29.5 -10.5zM985 1581v90q0 12 21 12h450q21 0 21 -14v-88q0 -14 -19 -14h-457q-16 0 -16 14z" />
    <glyph glyph-name="amacron" unicode="&#x101;" horiz-adv-x="974" 
d="M807 885h145q10 0 15 -7t2 -18q-138 -391 -146 -426q-3 -12 -23.5 -81.5t-38.5 -134.5t-18 -79q0 -24 25 -24q9 0 22.5 9.5t28.5 26t25.5 29.5t24 30.5t14.5 18.5q12 14 20 9l25 -17q7 -5 -2 -26q-8 -16 -23 -38.5t-45 -54.5t-65.5 -58.5t-86 -45t-104.5 -18.5
q-43 0 -63.5 18.5t-20.5 46.5q0 34 80 266l-18 11q-90 -138 -144 -198q-130 -144 -264 -144q-44 0 -92.5 50.5t-48.5 108.5q0 77 28 175t80.5 195.5t119 179.5t151 133.5t168.5 51.5q101 0 159 -71l33 59q14 23 37 23zM274 207q0 -62 50 -62q25 0 87.5 71.5t119 154.5
t77.5 127q47 103 47 196q0 33 -29.5 62.5t-60.5 29.5q-76 0 -153 -139q-71 -127 -104.5 -241.5t-33.5 -198.5zM477 1059v92q0 12 21 12h409q21 0 21 -14v-90q0 -15 -19 -15h-415q-17 0 -17 15z" />
    <glyph glyph-name="Abreve" unicode="&#x102;" horiz-adv-x="1345" 
d="M926 614h-342l-201 -260q-127 -166 -127 -217q0 -63 84 -63h51q18 0 15 -21l-7 -43q-3 -16 -22 -16q-4 0 -40 1.5t-103 3t-146 1.5q-69 0 -125.5 -1.5t-87.5 -3t-37 -1.5q-19 0 -16 18l8 45q3 17 14 17h33q48 0 118 39.5t122 101.5l962 1137q15 18 47 18q36 0 158 16
q28 3 58.5 10t37.5 7q27 0 21 -21l-305 -1136q-23 -81 -23 -115q0 -25 21.5 -41t52.5 -16h43q9 0 13.5 -4.5t2.5 -10.5l-6 -47q-4 -18 -24 -18q-6 0 -41 1.5t-99.5 3t-142.5 1.5q-76 0 -136 -1.5t-92 -3t-42 -1.5q-13 0 -18 5t-3 15l8 43q3 17 17 17h41q27 0 44.5 5t37 20.5
t35.5 49.5t32 89zM639 688h309l152 510q6 21 -11.5 26.5t-29.5 -10.5zM1278 1513q-183 0 -219 199q-5 26 6 29l20 6q6 2 31 -29q45 -61 191 -61q77 0 133 19.5t84 45.5q18 20 23.5 24t11.5 1l22 -10q10 -3 -2 -27q-52 -101 -121.5 -149t-179.5 -48z" />
    <glyph glyph-name="abreve" unicode="&#x103;" horiz-adv-x="974" 
d="M807 885h145q10 0 15 -7t2 -18q-138 -391 -146 -426q-3 -12 -23.5 -81.5t-38.5 -134.5t-18 -79q0 -24 25 -24q9 0 22.5 9.5t28.5 26t25.5 29.5t24 30.5t14.5 18.5q12 14 20 9l25 -17q7 -5 -2 -26q-8 -16 -23 -38.5t-45 -54.5t-65.5 -58.5t-86 -45t-104.5 -18.5
q-43 0 -63.5 18.5t-20.5 46.5q0 34 80 266l-18 11q-90 -138 -144 -198q-130 -144 -264 -144q-44 0 -92.5 50.5t-48.5 108.5q0 77 28 175t80.5 195.5t119 179.5t151 133.5t168.5 51.5q101 0 159 -71l33 59q14 23 37 23zM274 207q0 -62 50 -62q25 0 87.5 71.5t119 154.5
t77.5 127q47 103 47 196q0 33 -29.5 62.5t-60.5 29.5q-76 0 -153 -139q-71 -127 -104.5 -241.5t-33.5 -198.5zM676 997q-82 0 -138 52t-63 151q-3 22 8 25l21 6q5 1 8.5 -3t9.5 -16q48 -75 187 -75q133 0 213 80q11 13 13.5 14.5t10.5 -0.5l23 -10q9 -5 -2 -27
q-40 -85 -113 -141t-178 -56z" />
    <glyph glyph-name="Aogonek" unicode="&#x104;" horiz-adv-x="1345" 
d="M1401 1382l-305 -1136q-23 -81 -23 -115q0 -25 21.5 -41t52.5 -16h43q9 0 13.5 -4.5t2.5 -10.5l-6 -47q-4 -18 -24 -18q-5 0 -13 0.5t-23 1.5l-30 2q-12 0 -71 1t-109 1q-62 0 -117 -33t-89.5 -82.5t-54.5 -105.5t-20 -105q0 -70 33.5 -97.5t95.5 -27.5q20 0 51.5 13.5
t49.5 13.5q9 0 15.5 -12t6.5 -27q0 -25 -55 -51.5t-109 -26.5q-52 0 -93 5t-79.5 18t-64 34.5t-41 55.5t-15.5 80q0 58 43 124.5t95 115t105 98.5t65 73q32 61 65 175l109 376h-342l-201 -260q-127 -162 -127 -217q0 -63 84 -63h51q18 0 15 -21l-7 -43q-3 -16 -22 -16
q-4 0 -40 1.5t-103 3t-146 1.5q-69 0 -125.5 -1.5t-87.5 -3t-37 -1.5q-19 0 -16 18l8 45q3 17 14 17h33q48 0 118 39.5t122 101.5l962 1137q15 18 47 18q36 0 158 16q28 3 58.5 10t37.5 7q27 0 21 -21zM1100 1198q6 21 -11.5 26.5t-29.5 -10.5l-420 -526h309z" />
    <glyph glyph-name="aogonek" unicode="&#x105;" horiz-adv-x="974" 
d="M969 860q-138 -391 -146 -426q-3 -12 -23.5 -81.5t-38.5 -134.5t-18 -79q0 -24 25 -24q9 0 22.5 9.5t28.5 26t25.5 29.5t24 30.5t14.5 18.5q12 14 20 9l25 -17q7 -5 -2 -26q-17 -39 -48 -71.5t-80.5 -71t-66.5 -54.5q-63 -57 -116.5 -140t-53.5 -157q0 -37 40.5 -66.5
t76.5 -29.5q20 0 42 9t40 9q9 0 15.5 -11t6.5 -26q0 -24 -50 -46.5t-95 -22.5q-281 0 -281 161q0 50 24 98.5t63.5 87t77 66.5t77.5 50q-40 0 -60 19t-20 46q0 34 80 266l-18 11q-90 -138 -144 -198q-130 -144 -264 -144q-44 0 -92.5 50.5t-48.5 108.5q0 77 28 175
t80.5 195.5t119 179.5t151 133.5t168.5 51.5q101 0 159 -71l33 59q14 23 37 23h145q10 0 15 -7t2 -18zM655 694q0 33 -29.5 62.5t-60.5 29.5q-76 0 -153 -139q-71 -127 -104.5 -241.5t-33.5 -198.5q0 -62 50 -62q25 0 87.5 71.5t119 154.5t77.5 127q47 103 47 196z" />
    <glyph glyph-name="Cacute" unicode="&#x106;" horiz-adv-x="1396" 
d="M1313 403l-146 -438q-5 -13 -22 -10l-43 10q-11 4 -6 17q6 30 6 34q0 10 -8.5 19.5t-22.5 9.5q-32 0 -80 -22q-34 -17 -121 -35.5t-163 -18.5q-248 0 -394.5 129t-146.5 344q0 162 34 291t93.5 227t159.5 207q216 236 553 236q167 0 270 -68q70 -47 92 -47q40 0 53 43
q6 18 19 15l43 -9q11 -4 6 -20l-109 -434q-6 -18 -22 -13l-45 4q-17 0 -13 21q6 62 0 120.5t-25.5 113t-52 95t-84 65t-116.5 24.5q-99 0 -182 -54.5t-170 -179.5q-105 -154 -151 -325.5t-46 -317.5q0 -79 19 -143.5t48 -105t66.5 -68t71.5 -38.5t65 -11q48 0 91 6.5
t99.5 29t105 59.5t101.5 104t97 157q5 12 20 8l46 -12q13 -4 10 -19zM944 1493l-12 20q-5 10 6 21l270 233q42 37 82 37q47 0 74.5 -38t16 -84t-61.5 -64l-358 -127q-13 -6 -17 2z" />
    <glyph glyph-name="cacute" unicode="&#x107;" horiz-adv-x="677" 
d="M567 199l25 -21q12 -8 2 -22q-13 -20 -41.5 -46.5t-71.5 -57t-103.5 -51.5t-121.5 -21q-77 0 -141 59.5t-64 167.5q0 74 24 163.5t71 178t108 161.5t142.5 118.5t166.5 45.5q81 0 120.5 -37.5t39.5 -74.5q0 -46 -30 -82.5t-62 -36.5q-66 0 -82 53q-19 66 -66 66
q-26 0 -46.5 -31t-51.5 -106q-34 -86 -45.5 -119.5t-24 -104t-12.5 -155.5q0 -58 16 -93.5t62 -35.5q42 0 93.5 24t74.5 49q11 14 18 9zM498 969l-15 20q-4 4 9 17l227 211q56 49 98 49q27 0 47.5 -20.5t26 -47.5t-9 -56t-50.5 -44l-317 -131q-12 -6 -16 2z" />
    <glyph glyph-name="Ccaron" unicode="&#x10c;" horiz-adv-x="1396" 
d="M1313 403l-146 -438q-5 -13 -22 -10l-43 10q-11 4 -6 17q6 30 6 34q0 10 -8.5 19.5t-22.5 9.5q-32 0 -80 -22q-34 -17 -121 -35.5t-163 -18.5q-248 0 -394.5 129t-146.5 344q0 162 34 291t93.5 227t159.5 207q216 236 553 236q167 0 270 -68q70 -47 92 -47q40 0 53 43
q6 18 19 15l43 -9q11 -4 6 -20l-109 -434q-6 -18 -22 -13l-45 4q-17 0 -13 21q6 62 0 120.5t-25.5 113t-52 95t-84 65t-116.5 24.5q-99 0 -182 -54.5t-170 -179.5q-105 -154 -151 -325.5t-46 -317.5q0 -79 19 -143.5t48 -105t66.5 -68t71.5 -38.5t65 -11q48 0 91 6.5
t99.5 29t105 59.5t101.5 104t97 157q5 12 20 8l46 -12q13 -4 10 -19zM1075 1718l258 117q11 5 19 -6l14 -25q2 -5 -4 -14l-301 -301q-7 -9 -18 -8.5t-17 12.5l-162 303q-6 9 4 16l21 19q8 6 22 -4z" />
    <glyph glyph-name="ccaron" unicode="&#x10d;" horiz-adv-x="677" 
d="M567 199l25 -21q12 -8 2 -22q-13 -20 -41.5 -46.5t-71.5 -57t-103.5 -51.5t-121.5 -21q-77 0 -141 59.5t-64 167.5q0 74 24 163.5t71 178t108 161.5t142.5 118.5t166.5 45.5q81 0 120.5 -37.5t39.5 -74.5q0 -46 -30 -82.5t-62 -36.5q-66 0 -82 53q-19 66 -66 66
q-26 0 -46.5 -31t-51.5 -106q-34 -86 -45.5 -119.5t-24 -104t-12.5 -155.5q0 -58 16 -93.5t62 -35.5q42 0 93.5 24t74.5 49q11 14 18 9zM555 977l-111 323q-4 11 5 17l16 8q10 6 16 0l135 -127l220 125q10 5 14 -2l12 -18q7 -7 -2 -19l-276 -315q-7 -9 -16.5 -6.5
t-12.5 14.5z" />
    <glyph glyph-name="Dcaron" unicode="&#x10e;" horiz-adv-x="1624" 
d="M219 231l236 959q13 53 -10 77.5t-54 24.5h-92q-15 0 -19 4t-1 13l12 49q3 9 8.5 11.5t24.5 2.5q61 0 149 6q31 1 83.5 2.5t92 2.5t66.5 1q122 0 217.5 -7.5t196.5 -27.5t184 -61t145 -102q89 -90 121.5 -178t32.5 -193q0 -114 -28 -217t-68.5 -173.5t-95.5 -131.5
t-99 -94.5t-88 -59.5q-73 -42 -155.5 -71.5t-144.5 -43.5t-143 -21.5t-119 -8t-105 -0.5h-27q-27 0 -118 3t-120 3q-95 0 -163 -1.5t-97.5 -3t-30.5 -1.5q-19 0 -16 20l12 45q4 15 21 15h41q111 0 151 157zM754 1278l-258 -1061q-15 -69 -15 -86q0 -25 34 -41t67 -16
q282 0 487 164q106 84 181 242.5t75 328.5q0 100 -36 191t-99 151q-57 55 -91.5 80t-84.5 41q-94 31 -185 31q-70 0 -75 -25zM985 1718l258 117q11 5 19 -6l14 -25q2 -5 -4 -14l-301 -301q-7 -9 -18 -8.5t-17 12.5l-162 303q-6 9 4 16l21 19q8 6 22 -4z" />
    <glyph glyph-name="dcaron" unicode="&#x10f;" horiz-adv-x="1185" 
d="M758 1389h344q41 0 26 -43q-25 -66 -180.5 -566.5t-175.5 -586.5q-10 -43 -7.5 -66t21.5 -23q8 0 22 9t29.5 23.5t28.5 27.5t25.5 26.5t13.5 14.5q11 11 21 2l24 -25q9 -9 0 -20q-10 -13 -22 -26.5t-46.5 -44.5t-71 -53t-92 -40t-112.5 -18q-38 0 -58 16.5t-20 44.5
q0 60 74 274l-24 13q-35 -58 -62.5 -99t-68.5 -91.5t-78 -82t-83.5 -53.5t-92.5 -22q-71 0 -116.5 61.5t-45.5 130.5q0 109 60.5 259t176.5 278q155 165 310 165q99 0 155 -65l115 422q10 35 -4.5 59.5t-52.5 24.5h-60q-11 0 -14.5 4.5t-1.5 9.5l8 47q3 13 35 13zM666 666
q0 60 -26.5 97.5t-76.5 37.5q-51 0 -119 -118.5t-114.5 -262.5t-46.5 -223q0 -72 49 -72q15 0 36.5 18.5t55 62t52.5 70t61 86.5q48 67 88.5 157.5t40.5 146.5zM1159 913h-3.5h-4t-4 0.5t-4 1.5t-3 3t-2.5 5.5t-1 8.5q-2 20 20 26q48 12 100 57.5t52 104.5q0 32 -10 50
t-37 47q-1 1 -8.5 7t-13.5 13t-13.5 16.5t-12 21.5t-4.5 25q0 36 22.5 62.5t59.5 26.5q60 0 99 -62t39 -121q0 -63 -25 -116t-60 -84.5t-75.5 -53.5t-69 -30.5t-41.5 -8.5z" />
    <glyph glyph-name="Dcroat" unicode="&#x110;" horiz-adv-x="1624" 
d="M604 664l-108 -447q-15 -69 -15 -86q0 -25 31 -41t63 -16q289 0 494 164q106 84 181 242.5t75 328.5q0 100 -36 191t-99 151q-54 53 -93.5 80.5t-82.5 40.5q-94 31 -191 31q-16 0 -24 -0.5t-19 -2.5t-16.5 -7t-7.5 -13l-131 -530h309q8 0 11.5 -3.5t2.5 -9.5l-18 -61
q-6 -12 -23 -12h-303zM319 664h-190q-11 0 -8 16l16 55q3 15 19 15h184l109 440q14 54 -11 78t-63 24h-76q-15 0 -19 4t-1 13l12 49q3 9 8.5 11.5t24.5 2.5q61 0 149 6q31 1 83.5 2.5t92 2.5t66.5 1q122 0 217.5 -7.5t196.5 -27.5t184 -61t145 -102q89 -90 121.5 -178
t32.5 -193q0 -114 -28 -217t-68.5 -173.5t-95.5 -131.5t-99 -94.5t-88 -59.5q-73 -42 -156.5 -71.5t-146.5 -43.5t-144.5 -21.5t-119 -8t-102.5 -0.5h-25q-27 0 -118 3t-120 3q-95 0 -163 -1.5t-97.5 -3t-30.5 -1.5q-19 0 -16 20l12 45q4 15 21 15h24q56 0 97.5 33.5
t64.5 123.5z" />
    <glyph glyph-name="dcroat" unicode="&#x111;" horiz-adv-x="995" 
d="M666 666q0 60 -26.5 97.5t-76.5 37.5q-51 0 -119 -118.5t-114.5 -262.5t-46.5 -223q0 -72 49 -72q15 0 36.5 18.5t55 62t52.5 70t61 86.5q48 67 88.5 157.5t40.5 146.5zM1184 1167q21 0 18 -12l-10 -55q-3 -15 -25 -15h-120q-250 -784 -275 -892q-10 -43 -7.5 -66
t21.5 -23q8 0 22 9t29.5 23.5t28.5 27.5t25.5 26.5t13.5 14.5q11 11 21 2l24 -25q9 -9 0 -20q-10 -13 -22 -26.5t-46.5 -44.5t-71 -53t-92 -40t-112.5 -18q-38 0 -58 16.5t-20 44.5q0 60 74 274l-24 13q-35 -58 -62.5 -99t-68.5 -91.5t-78 -82t-83.5 -53.5t-92.5 -22
q-71 0 -116.5 61.5t-45.5 130.5q0 109 60.5 259t176.5 278q155 165 310 165q99 0 155 -65l76 276h-219q-9 0 -14.5 4.5t-4.5 10.5l9 55q3 12 20 12h231l17 64q8 35 -6 59.5t-51 24.5h-60q-11 0 -14.5 4.5t-1.5 9.5l8 47q3 13 35 13h344q41 0 26 -43q-10 -27 -57 -179h113z
" />
    <glyph glyph-name="Emacron" unicode="&#x112;" horiz-adv-x="1382" 
d="M827 1298l-172 -530h160q42 0 75 9.5t77.5 48.5t85.5 110q11 16 20 14l39 -12q14 -3 10 -14q-80 -185 -108 -408q-2 -14 -19 -14l-39 2q-9 0 -12 20q-10 92 -64.5 131t-158.5 39h-86l-197 -620h393q46 0 95.5 21t86.5 46.5t85.5 73t71 73t63.5 74.5q12 15 24 9l27 -19
q10 -7 4 -26l-104 -297q-7 -22 -16 -28.5t-29 -6.5q-10 0 -55 0.5t-132.5 1.5t-158.5 2q-93 0 -284 1t-269 1q-54 0 -117 -1t-76 -1q-16 -1 -30 -2l-21 -1.5t-10 -0.5q-22 0 -17 20l6 43q6 17 17 17h55q106 0 139 110l312 973q23 74 -7 107.5t-77 33.5h-72q-14 0 -8 17
l12 49q3 9 8 11.5t17 2.5q5 0 37 -1.5t101 -3t165 -1.5q174 0 322 1.5t229 3t94 1.5q23 0 30 -7t13 -32l65 -280q3 -12 -8 -17l-26 -14q-14 -5 -29 10l-227 246q-12 14 -37 14h-273zM717 1581v90q0 12 20 12h451q20 0 20 -14v-88q0 -14 -18 -14h-457q-16 0 -16 14z" />
    <glyph glyph-name="emacron" unicode="&#x113;" horiz-adv-x="798" 
d="M645 227l33 -22q11 -8 4 -21q-21 -41 -72 -86t-138.5 -81.5t-180.5 -36.5q-107 0 -173.5 61t-66.5 168q0 129 61 272t187 250q166 143 342 143q81 0 120.5 -39t39.5 -102q0 -159 -187 -266q-139 -78 -301 -90q-16 -36 -16 -129q0 -56 30 -94.5t81 -38.5q123 0 221 106
q8 12 16 6zM330 453q31 -2 88.5 20.5t97.5 61.5q27 25 46.5 72t19.5 95q0 70 -56 70q-54 0 -112 -103t-84 -216zM420 1059v92q0 12 20 12h410q20 0 20 -14v-90q0 -15 -18 -15h-416q-16 0 -16 15z" />
    <glyph glyph-name="Edotaccent" unicode="&#x116;" horiz-adv-x="1382" 
d="M827 1298l-172 -530h160q42 0 75 9.5t77.5 48.5t85.5 110q11 16 20 14l39 -12q14 -3 10 -14q-80 -185 -108 -408q-2 -14 -19 -14l-39 2q-9 0 -12 20q-10 92 -64.5 131t-158.5 39h-86l-197 -620h393q46 0 95.5 21t86.5 46.5t85.5 73t71 73t63.5 74.5q12 15 24 9l27 -19
q10 -7 4 -26l-104 -297q-7 -22 -16 -28.5t-29 -6.5q-10 0 -55 0.5t-132.5 1.5t-158.5 2q-93 0 -284 1t-269 1q-54 0 -117 -1t-76 -1q-16 -1 -30 -2l-21 -1.5t-10 -0.5q-22 0 -17 20l6 43q6 17 17 17h55q106 0 139 110l312 973q23 74 -7 107.5t-77 33.5h-72q-14 0 -8 17
l12 49q3 9 8 11.5t17 2.5q5 0 37 -1.5t101 -3t165 -1.5q174 0 322 1.5t229 3t94 1.5q23 0 30 -7t13 -32l65 -280q3 -12 -8 -17l-26 -14q-14 -5 -29 10l-227 246q-12 14 -37 14h-273zM969 1511q-51 0 -90 26t-39 89q0 44 30 81.5t99 37.5q48 0 82 -32.5t34 -88.5
q0 -50 -34 -81.5t-82 -31.5z" />
    <glyph glyph-name="edotaccent" unicode="&#x117;" horiz-adv-x="798" 
d="M645 227l33 -22q11 -8 4 -21q-21 -41 -72 -86t-138.5 -81.5t-180.5 -36.5q-107 0 -173.5 61t-66.5 168q0 129 61 272t187 250q166 143 342 143q81 0 120.5 -39t39.5 -102q0 -159 -187 -266q-139 -78 -301 -90q-16 -36 -16 -129q0 -56 30 -94.5t81 -38.5q123 0 221 106
q8 12 16 6zM330 453q31 -2 88.5 20.5t97.5 61.5q27 25 46.5 72t19.5 95q0 70 -56 70q-54 0 -112 -103t-84 -216zM668 1331q70 0 107.5 -32t37.5 -82q0 -49 -43 -92.5t-98 -43.5q-60 0 -95.5 33.5t-35.5 91.5q0 48 38 86.5t89 38.5z" />
    <glyph glyph-name="Eogonek" unicode="&#x118;" horiz-adv-x="1382" 
d="M1427 1059q3 -12 -8 -17l-26 -14q-14 -5 -29 10l-227 246q-12 14 -37 14h-273l-172 -530h160q42 0 75 9.5t77.5 48.5t85.5 110q11 16 20 14l39 -12q14 -3 10 -14q-80 -185 -108 -408q-2 -14 -19 -14l-39 2q-9 0 -12 20q-10 92 -64.5 131t-158.5 39h-86l-197 -620h393
q46 0 95.5 21t86.5 46.5t85.5 73t71 73t63.5 74.5q12 15 24 9l27 -19q10 -7 4 -26l-104 -297q-2 -8 -5 -13t-5 -8t-7.5 -5.5t-6.5 -3.5t-10 -2.5t-11 -2.5q-53 -15 -100.5 -71.5t-74 -125t-26.5 -123.5q0 -70 33.5 -97.5t95.5 -27.5q20 0 51 13.5t49 13.5q9 0 16 -12t7 -27
q0 -25 -55 -51.5t-109 -26.5q-52 0 -93 5t-79.5 18t-64 34.5t-41 55.5t-15.5 80q0 53 31.5 110t78.5 102t92 78.5t81 51.5l-2 2q-26 0 -101 1t-120 1q-180 2 -553 2q-154 0 -193 -2q-22 0 -41 -2l-20 -2q-22 0 -17 20l6 43q6 17 17 17h55q106 0 139 110l312 973
q23 74 -7 107.5t-77 33.5h-72q-14 0 -8 17l12 49q3 9 8 11.5t17 2.5q5 0 37 -1.5t101 -3t165 -1.5q174 0 322 1.5t229 3t94 1.5q23 0 30 -7t13 -32z" />
    <glyph glyph-name="eogonek" unicode="&#x119;" horiz-adv-x="798" 
d="M801 733q0 -159 -187 -266q-139 -78 -301 -90q-16 -36 -16 -129q0 -56 30 -94.5t81 -38.5q123 0 221 106q8 12 16 6l33 -22q11 -8 4 -21q-6 -11 -16 -23.5t-26.5 -26t-31 -24.5t-39.5 -28t-41.5 -27.5t-47.5 -30t-48 -30.5q-48 -31 -107 -131t-59 -162q0 -37 40.5 -66.5
t76.5 -29.5q20 0 42 9t40 9q9 0 15.5 -11t6.5 -26q0 -24 -50 -46.5t-95 -22.5q-281 0 -281 161q0 50 24 98.5t63.5 87t77 66.5t77.5 50q-114 0 -183 58t-69 171q0 129 61 272t187 250q166 143 342 143q81 0 120.5 -39t39.5 -102zM582 702q0 70 -56 70q-54 0 -112 -103
t-84 -216q31 -2 88.5 20.5t97.5 61.5q27 25 46.5 72t19.5 95z" />
    <glyph glyph-name="Ecaron" unicode="&#x11a;" horiz-adv-x="1382" 
d="M827 1298l-172 -530h160q42 0 75 9.5t77.5 48.5t85.5 110q11 16 20 14l39 -12q14 -3 10 -14q-80 -185 -108 -408q-2 -14 -19 -14l-39 2q-9 0 -12 20q-10 92 -64.5 131t-158.5 39h-86l-197 -620h393q46 0 95.5 21t86.5 46.5t85.5 73t71 73t63.5 74.5q12 15 24 9l27 -19
q10 -7 4 -26l-104 -297q-7 -22 -16 -28.5t-29 -6.5q-10 0 -55 0.5t-132.5 1.5t-158.5 2q-93 0 -284 1t-269 1q-54 0 -117 -1t-76 -1q-16 -1 -30 -2l-21 -1.5t-10 -0.5q-22 0 -17 20l6 43q6 17 17 17h55q106 0 139 110l312 973q23 74 -7 107.5t-77 33.5h-72q-14 0 -8 17
l12 49q3 9 8 11.5t17 2.5q5 0 37 -1.5t101 -3t165 -1.5q174 0 322 1.5t229 3t94 1.5q23 0 30 -7t13 -32l65 -280q3 -12 -8 -17l-26 -14q-14 -5 -29 10l-227 246q-12 14 -37 14h-273zM967 1718l258 117q10 5 18 -6l14 -25q2 -5 -4 -14l-301 -301q-7 -9 -17.5 -8.5t-16.5 12.5
l-162 303q-6 9 4 16l20 19q9 7 23 -4z" />
    <glyph glyph-name="ecaron" unicode="&#x11b;" horiz-adv-x="798" 
d="M645 227l33 -22q11 -8 4 -21q-21 -41 -72 -86t-138.5 -81.5t-180.5 -36.5q-107 0 -173.5 61t-66.5 168q0 129 61 272t187 250q166 143 342 143q81 0 120.5 -39t39.5 -102q0 -159 -187 -266q-139 -78 -301 -90q-16 -36 -16 -129q0 -56 30 -94.5t81 -38.5q123 0 221 106
q8 12 16 6zM330 453q31 -2 88.5 20.5t97.5 61.5q27 25 46.5 72t19.5 95q0 70 -56 70q-54 0 -112 -103t-84 -216zM604 977l-110 323q-4 12 4 17l16 8q10 6 16 0l136 -127l219 125q9 5 14 -2l12 -18q7 -7 -2 -19l-276 -315q-7 -9 -16.5 -6.5t-12.5 14.5z" />
    <glyph glyph-name="Gbreve" unicode="&#x11e;" horiz-adv-x="1515" 
d="M995 162l47 231q11 57 -6 78t-57 21h-72q-20 0 -14 20l8 43q3 16 23 16q8 0 43 -1.5t101.5 -3t152.5 -1.5q79 0 136.5 1.5t85.5 3t36 1.5q21 0 18 -24l-6 -39q-3 -16 -18 -16h-33q-87 0 -103 -70l-71 -316q-6 -21 -13.5 -29.5t-27.5 -17.5q-40 -18 -93 -35.5t-147.5 -36
t-181.5 -18.5q-146 0 -266 44t-198 120t-120.5 175.5t-42.5 211.5q0 246 119.5 449.5t320.5 318.5t437 115q115 0 199.5 -32.5t133.5 -70.5q26 -20 44 -20q12 0 24 14t31 49q7 15 22 9l31 -9q14 -4 12 -16l-116 -412q-2 -12 -19 -12l-53 2q-14 0 -14 23q3 56 -4.5 108
t-30.5 103.5t-59 89t-95.5 61t-136.5 23.5q-79 0 -159 -42t-148 -119t-121.5 -176t-84 -222.5t-30.5 -249.5q0 -88 21 -162.5t54 -124t75.5 -84t84.5 -50t81 -15.5q120 0 159 22q32 18 41 72zM1055 1513q-183 0 -219 199q-5 26 6 29l20 6q6 2 31 -29q45 -61 190 -61
q77 0 133 19.5t84 45.5q18 20 23.5 24t11.5 1l23 -10q10 -3 -2 -27q-52 -101 -121.5 -149t-179.5 -48z" />
    <glyph glyph-name="gbreve" unicode="&#x11f;" horiz-adv-x="960" 
d="M307 -608q-195 0 -328 76t-133 180q0 54 15 85t65 72q12 10 26.5 20t26.5 18t28.5 17l27.5 15t29.5 14.5t26.5 12.5t27.5 12.5t24.5 10.5t24.5 9.5t20.5 8.5q-44 33 -61.5 62t-17.5 65q0 35 50 76t134 77v4q-66 33 -101 62.5t-54 77.5t-19 122q0 45 17.5 96.5t54 102.5
t86.5 92.5t122 67.5t154 26q91 0 146 -30.5t77 -65.5q96 74 170 74q46 0 70 -28.5t26 -65.5q-1 -40 -25 -64t-61 -24q-35 0 -65 30q-23 23 -35 23q-27 0 -45 -18q12 -30 12 -109q0 -30 -13.5 -72.5t-42.5 -92t-69 -93t-99.5 -76t-127.5 -41.5q-91 -12 -92 -12
q-31 -13 -50.5 -37.5t-19.5 -48.5q0 -15 17 -32.5t34 -27.5q7 -4 106.5 -55.5t188.5 -101.5q160 -90 160 -209q0 -150 -160 -232q-72 -37 -151.5 -55t-196.5 -18zM346 385q0 -52 14.5 -74t47.5 -22q49 0 94 63.5t69.5 152.5t24.5 169q0 27 -0.5 39.5t-2 31t-5 26.5t-9.5 17
t-16 12t-24 3q-34 0 -58 -21t-53 -75q-40 -72 -58 -125t-21 -83t-3 -93v-21zM365 -532q76 0 141 38t65 109q0 62 -28 93t-121 85q-134 70 -189 107q-74 -45 -113.5 -94.5t-39.5 -124.5q0 -106 78 -159.5t207 -53.5zM557 997q-82 0 -138 52t-63 151q-3 22 9 25l20 6
q5 1 8.5 -3t9.5 -16q48 -75 187 -75q133 0 213 80q11 13 13.5 14.5t10.5 -0.5l23 -10q9 -5 -2 -27q-40 -85 -113 -141t-178 -56z" />
    <glyph glyph-name="Gcommaaccent" unicode="&#x122;" horiz-adv-x="1515" 
d="M995 162l47 231q11 57 -6 78t-57 21h-72q-20 0 -14 20l8 43q3 16 23 16q8 0 43 -1.5t101.5 -3t152.5 -1.5q79 0 136.5 1.5t85.5 3t36 1.5q21 0 18 -24l-6 -39q-3 -16 -18 -16h-33q-87 0 -103 -70l-71 -316q-6 -21 -13.5 -29.5t-27.5 -17.5q-40 -18 -93 -35.5t-147.5 -36
t-181.5 -18.5q-146 0 -266 44t-198 120t-120.5 175.5t-42.5 211.5q0 246 119.5 449.5t320.5 318.5t437 115q115 0 199.5 -32.5t133.5 -70.5q26 -20 44 -20q12 0 24 14t31 49q7 15 22 9l31 -9q14 -4 12 -16l-116 -412q-2 -12 -19 -12l-53 2q-14 0 -14 23q3 56 -4.5 108
t-30.5 103.5t-59 89t-95.5 61t-136.5 23.5q-79 0 -159 -42t-148 -119t-121.5 -176t-84 -222.5t-30.5 -249.5q0 -88 21 -162.5t54 -124t75.5 -84t84.5 -50t81 -15.5q120 0 159 22q32 18 41 72zM600 -598q-1 0 -5 -0.5t-6 0t-4.5 2t-4 5.5t-2.5 11q-3 21 20 27q48 12 100 57.5
t52 104.5q0 22 -6.5 39.5t-14 26t-27.5 30.5l-8 7q-8 7 -13.5 13.5t-13.5 16.5t-12 22t-4 25q0 36 22.5 62t59.5 26q60 0 98.5 -61.5t38.5 -120.5q0 -63 -25 -116t-60 -84.5t-75 -53.5t-68.5 -30.5t-41.5 -8.5z" />
    <glyph glyph-name="gcommaaccent" unicode="&#x123;" horiz-adv-x="960" 
d="M307 -608q-195 0 -328 76t-133 180q0 54 15 85t65 72q12 10 26.5 20t26.5 18t28.5 17l27.5 15t29.5 14.5t26.5 12.5t27.5 12.5t24.5 10.5t24.5 9.5t20.5 8.5q-44 33 -61.5 62t-17.5 65q0 35 50 76t134 77v4q-66 33 -101 62.5t-54 77.5t-19 122q0 45 17.5 96.5t54 102.5
t86.5 92.5t122 67.5t154 26q91 0 146 -30.5t77 -65.5q96 74 170 74q46 0 70 -28.5t26 -65.5q-1 -40 -25 -64t-61 -24q-35 0 -65 30q-23 23 -35 23q-27 0 -45 -18q12 -30 12 -109q0 -30 -13.5 -72.5t-42.5 -92t-69 -93t-99.5 -76t-127.5 -41.5q-91 -12 -92 -12
q-31 -13 -50.5 -37.5t-19.5 -48.5q0 -15 17 -32.5t34 -27.5q7 -4 106.5 -55.5t188.5 -101.5q160 -90 160 -209q0 -150 -160 -232q-72 -37 -151.5 -55t-196.5 -18zM346 385q0 -52 14.5 -74t47.5 -22q49 0 94 63.5t69.5 152.5t24.5 169q0 27 -0.5 39.5t-2 31t-5 26.5t-9.5 17
t-16 12t-24 3q-34 0 -58 -21t-53 -75q-40 -72 -58 -125t-21 -83t-3 -93v-21zM365 -532q76 0 141 38t65 109q0 62 -28 93t-121 85q-134 70 -189 107q-74 -45 -113.5 -94.5t-39.5 -124.5q0 -106 78 -159.5t207 -53.5zM727 1487h3.5h4t4 -0.5t4 -1.5t3.5 -3t3 -5.5t1 -8.5
q2 -19 -21 -26q-48 -12 -99.5 -57.5t-51.5 -104.5q0 -23 6.5 -39.5t13.5 -26t27 -30.5l8 -7q8 -7 13.5 -13.5t13.5 -16.5t12 -22t4 -25q0 -36 -22.5 -62t-59.5 -26q-60 0 -98.5 61.5t-38.5 120.5q0 63 25 116t60 84.5t75 53.5t68.5 30.5t41.5 8.5z" />
    <glyph glyph-name="Imacron" unicode="&#x12a;" horiz-adv-x="788" 
d="M745 1157l-256 -944q-38 -139 80 -139h76q15 0 12 -21l-6 -43q-1 -7 -2.5 -10t-6.5 -4.5t-15 -1.5q-4 0 -44.5 1.5t-121.5 3t-182 1.5q-80 0 -150 -1.5t-109.5 -3t-44.5 -1.5q-19 0 -16 20l10 47q3 13 17 13h67q18 0 33 0.5t27.5 5t21.5 6t18 10.5t13.5 11.5t11 16.5
t9 18t8.5 24l7.5 25t8.5 30l256 942q16 75 2 105t-45 30h-94q-12 0 -16.5 4t-2.5 13l11 51q3 12 26 12q6 0 48.5 -1.5t115.5 -3t154 -1.5q78 0 145 1.5t104.5 3t45.5 1.5q28 0 22 -24l-10 -39q-3 -17 -23 -17h-63q-48 0 -83.5 -29t-58.5 -112zM430 1581v90q0 12 21 12h450
q21 0 21 -14v-88q0 -14 -19 -14h-457q-16 0 -16 14z" />
    <glyph glyph-name="imacron" unicode="&#x12b;" horiz-adv-x="606" 
d="M535 238l24 -25q9 -9 2 -20q-8 -13 -20 -29.5t-49 -52t-79 -62t-109.5 -48t-141.5 -21.5q-80 0 -80 61q0 6 1 14t4.5 20.5t6.5 24.5t10 33l13 39t16.5 49t19.5 56t23.5 68t26.5 77l55 162q5 21 13.5 46.5t13 41t4.5 26.5t-7 19t-20 8q-22 0 -71 -49.5t-78 -87.5
q-13 -12 -23 -2l-18 18q-12 12 -6 19l8 10q7 10 16 21t24 28.5t31.5 34t38.5 36t45 36.5t50.5 33t55.5 27t60 18t64 7q45 0 67.5 -20t22.5 -53q0 -11 -2.5 -25t-5.5 -26t-10 -35t-12 -37.5t-17 -48.5t-19 -54l-110 -313q-33 -100 -33 -125q0 -28 27 -28q26 0 80.5 51.5
t70.5 75.5q8 11 17 2zM252 1059v92q0 12 20 12h410q20 0 20 -14v-90q0 -15 -18 -15h-416q-16 0 -16 15z" />
    <glyph glyph-name="Iogonek" unicode="&#x12e;" horiz-adv-x="788" 
d="M983 1354l-10 -39q-3 -17 -23 -17h-63q-48 0 -83.5 -29t-58.5 -112l-256 -944q-38 -139 80 -139h76q15 0 12 -21l-6 -43q-1 -7 -2.5 -10t-6.5 -4.5t-15 -1.5l-23 4q-22 4 -61 2t-99 -14q-76 -15 -141 -115.5t-65 -196.5q0 -70 33.5 -97.5t95.5 -27.5q20 0 51 13.5
t49 13.5q9 0 15.5 -12t6.5 -27q0 -25 -54.5 -51.5t-108.5 -26.5q-52 0 -93 5t-79.5 18t-64 34.5t-41 55.5t-15.5 80q0 55 34.5 115t84.5 106t96.5 79t79.5 48q-49 0 -129 -1t-107 -1q-26 -1 -54 -2t-43 -1.5t-20 -0.5q-22 0 -16 20l10 47q3 13 17 13h67q18 0 33 0.5t27.5 5
t21.5 6t18 10.5t13.5 11.5t11 16.5t9 18t8.5 24l7.5 25t8.5 30l256 942q16 75 2 105t-45 30h-94q-12 0 -16.5 4t-2.5 13l11 51q3 12 26 12q6 0 48.5 -1.5t115.5 -3t154 -1.5q78 0 145 1.5t104.5 3t45.5 1.5q28 0 22 -24z" />
    <glyph glyph-name="iogonek" unicode="&#x12f;" horiz-adv-x="606" 
d="M647 1286q0 -54 -48.5 -102.5t-109.5 -48.5q-66 0 -105.5 37.5t-39.5 101.5q0 54 42 96.5t99 42.5q78 0 120 -36t42 -91zM561 193q-7 -11 -76.5 -72t-150.5 -125q-64 -51 -119 -135t-55 -160q0 -37 40 -66.5t76 -29.5q20 0 42 9t40 9q9 0 16 -11t7 -26q0 -24 -50 -46.5
t-95 -22.5q-281 0 -281 161q0 51 24.5 100t64 88t78 67t77.5 49q-12 -2 -37 -2q-80 0 -80 61q0 6 1 14t4.5 20.5t6.5 24.5t10 33l13 39t16.5 49t19.5 56t23.5 68t26.5 77l55 162q31 91 31 114q0 11 -7 19t-20 8q-22 0 -71 -49.5t-78 -87.5q-13 -12 -23 -2l-18 18
q-12 12 -6 19l8 10q7 10 16 21t24 28.5t31.5 34t38.5 36t45 36.5t50.5 33t55.5 27t60 18t64 7q45 0 67.5 -20t22.5 -53q0 -11 -2.5 -25t-5.5 -26t-10 -35t-12 -37.5t-17 -48.5t-19 -54l-110 -313q-33 -93 -33 -125q0 -28 27 -28q26 0 80.5 51.5t70.5 75.5q8 11 17 2l24 -25
q9 -9 2 -20z" />
    <glyph glyph-name="Idotaccent" unicode="&#x130;" horiz-adv-x="788" 
d="M745 1157l-256 -944q-38 -139 80 -139h76q15 0 12 -21l-6 -43q-1 -7 -2.5 -10t-6.5 -4.5t-15 -1.5q-4 0 -44.5 1.5t-121.5 3t-182 1.5q-80 0 -150 -1.5t-109.5 -3t-44.5 -1.5q-19 0 -16 20l10 47q3 13 17 13h67q18 0 33 0.5t27.5 5t21.5 6t18 10.5t13.5 11.5t11 16.5
t9 18t8.5 24l7.5 25t8.5 30l256 942q16 75 2 105t-45 30h-94q-12 0 -16.5 4t-2.5 13l11 51q3 12 26 12q6 0 48.5 -1.5t115.5 -3t154 -1.5q78 0 145 1.5t104.5 3t45.5 1.5q28 0 22 -24l-10 -39q-3 -17 -23 -17h-63q-48 0 -83.5 -29t-58.5 -112zM713 1511q-51 0 -90 26t-39 89
q0 44 30 81.5t99 37.5q48 0 82 -32.5t34 -88.5q0 -50 -34 -81.5t-82 -31.5z" />
    <glyph glyph-name="dotlessi" unicode="&#x131;" horiz-adv-x="606" 
d="M535 238l24 -25q9 -9 2 -20q-8 -13 -20 -29.5t-49 -52t-79 -62t-109.5 -48t-141.5 -21.5q-80 0 -80 61q0 6 1 14t4.5 20.5t6.5 24.5t10 33l13 39t16.5 49t19.5 56t23.5 68t26.5 77l55 162q5 21 13.5 46.5t13 41t4.5 26.5t-7 19t-20 8q-22 0 -71 -49.5t-78 -87.5
q-13 -12 -23 -2l-18 18q-12 12 -6 19l8 10q7 10 16 21t24 28.5t31.5 34t38.5 36t45 36.5t50.5 33t55.5 27t60 18t64 7q45 0 67.5 -20t22.5 -53q0 -11 -2.5 -25t-5.5 -26t-10 -35t-12 -37.5t-17 -48.5t-19 -54l-110 -313q-33 -100 -33 -125q0 -28 27 -28q26 0 80.5 51.5
t70.5 75.5q8 11 17 2z" />
    <glyph glyph-name="Kcommaaccent" unicode="&#x136;" horiz-adv-x="1474" 
d="M786 1194l-149 -459q103 0 141 33q385 333 479 463q22 28 13 47.5t-49 19.5h-25q-20 0 -16 21l8 43q5 16 22 16q4 0 38.5 -1.5t96 -3t132.5 -1.5q54 0 99 1.5t69.5 3t29.5 1.5q13 0 19 -5.5t4 -16.5l-8 -37q-2 -6 -3 -8.5t-3.5 -6t-6 -5t-8.5 -1.5h-57q-69 0 -150 -59
q-46 -33 -181 -147t-263 -224.5t-139 -119.5q44 -78 188 -310t172 -270q29 -38 65.5 -66t65.5 -28h49q10 0 15.5 -6.5t3.5 -14.5l-11 -43q-2 -9 -6.5 -12.5t-17.5 -3.5q-5 0 -35.5 1.5t-100.5 3t-169 1.5q-72 0 -165 -3l-93 -3q-11 0 -15.5 4.5t-3.5 13.5l4 45q3 17 19 17
h20q38 0 57.5 19t6.5 46q-10 18 -124 235.5t-124 235.5q-23 43 -68 43l-145 -444q-18 -67 -1 -101t52 -34h45q18 0 15 -21l-9 -43q-3 -16 -26 -16q-5 0 -41.5 1.5t-101.5 3t-140 1.5q-81 0 -142 -1.5t-89 -3t-29 -1.5q-19 0 -16 26l8 37q3 17 26 17h31q44 0 78.5 30t54.5 89
l316 976q20 66 6.5 97.5t-53.5 31.5h-52q-25 0 -18 21l14 47q5 12 25 12q3 0 34.5 -1.5t94 -3t141.5 -1.5q81 0 142.5 1.5t92 3t36.5 1.5q15 0 12 -24l-6 -39q-2 -17 -25 -17h-41q-36 0 -67.5 -26.5t-47.5 -77.5zM498 -598q-1 0 -5 -0.5t-6 0t-5 2t-4.5 5.5t-2.5 11
q-3 20 21 27q48 12 99.5 57.5t51.5 104.5q0 23 -6.5 39.5t-13.5 26t-27 30.5l-8 7q-8 7 -13.5 13.5t-13.5 16.5t-12 22t-4 25q0 36 22.5 62t59.5 26q60 0 98.5 -61.5t38.5 -120.5q0 -63 -25 -116t-60 -84.5t-75 -53.5t-68.5 -30.5t-41.5 -8.5z" />
    <glyph glyph-name="kcommaaccent" unicode="&#x137;" horiz-adv-x="964" 
d="M406 512l-48 -113q58 -12 125.5 15t120 74.5t88 104t35.5 99.5q0 20 -12.5 35.5t-34.5 15.5q-35 0 -109.5 -59.5t-103.5 -95.5q-2 -3 -27.5 -32t-33.5 -44zM190 0h-180q-12 0 -16.5 10t0.5 21l452 1194q17 41 2.5 65.5t-55.5 24.5h-57q-16 0 -10 20l12 37q1 1 2 3.5
t2 3.5t2 3t2 2.5l3 1.5t3.5 1.5t4 1t5.5 0.5h375q14 0 17 -13.5t-4 -27.5l-310 -699l15 -8q65 85 165 159t195 74q62 0 101.5 -34t39.5 -99q0 -48 -30 -97t-73.5 -86.5t-98 -72t-97.5 -55.5t-79 -35v-16l151 -232q47 -69 80 -69q37 0 84 47q9 9 18 0l23 -27q6 -8 -6 -20
q-94 -98 -242 -98q-82 0 -123.5 27t-73.5 95l-88 205q-15 37 -65 37l-115 -330q-5 -14 -31 -14zM244 -598q-1 0 -5 -0.5t-6 0t-5 2t-4.5 5.5t-2.5 11q-3 20 21 27q48 12 99.5 57.5t51.5 104.5q0 23 -6.5 39.5t-13.5 26t-27 30.5l-8 7q-8 7 -13.5 13.5t-13.5 16.5t-12 22
t-4 25q0 36 22.5 62t59.5 26q60 0 98.5 -61.5t38.5 -120.5q0 -63 -25 -116t-60 -84.5t-75 -53.5t-68.5 -30.5t-41.5 -8.5z" />
    <glyph glyph-name="Lacute" unicode="&#x139;" horiz-adv-x="1351" 
d="M764 1161l-318 -1028q-18 -59 46 -59h157q208 0 260 8q27 4 46 15t49 38q47 42 129.5 130t91.5 102q11 23 22 20l37 -16q11 -5 8 -15q-19 -67 -106 -354q-10 -33 -27 -33q-3 0 -53 13q-46 12 -76 12q-9 0 -103 1.5t-253.5 3t-327.5 1.5q-72 0 -154.5 -1.5t-137 -3
t-60.5 -1.5q-20 0 -17 20l9 43q3 17 18 17h31q57 0 91 29.5t62 117.5l295 950q41 127 -53 127h-76q-19 0 -16 17l14 51q2 12 25 12q5 0 41.5 -1.5t105 -3t150.5 -1.5q93 0 168.5 1.5t115 3t43.5 1.5q20 0 17 -20l-10 -43q-6 -17 -25 -17h-72q-58 0 -90 -27.5t-57 -109.5z
M594 1493l-12 20q-5 10 6 21l270 233q42 37 82 37q47 0 74.5 -38t16 -84t-61.5 -64l-359 -127q-12 -6 -16 2z" />
    <glyph glyph-name="lacute" unicode="&#x13a;" horiz-adv-x="532" 
d="M322 1389h360q29 0 14 -37l-409 -1149q-16 -43 -12 -65.5t32 -22.5q48 0 148 100q9 9 18 0l23 -25q7 -10 0 -22q-4 -6 -22 -25t-54.5 -47.5t-80 -53.5t-104.5 -43.5t-122 -18.5q-31 0 -59.5 29.5t-28.5 56.5q0 28 57 190l321 930q45 129 -38 129h-60q-20 0 -16 18l12 41
q5 15 21 15zM512 1493l-12 20q-5 10 6 21l270 233q42 37 82 37q47 0 74.5 -38t16 -84t-61.5 -64l-359 -127q-12 -6 -16 2z" />
    <glyph glyph-name="Lcommaaccent" unicode="&#x13b;" horiz-adv-x="1351" 
d="M764 1161l-318 -1028q-18 -59 46 -59h157q208 0 260 8q27 4 46 15t49 38q47 42 129.5 130t91.5 102q11 23 22 20l37 -16q11 -5 8 -15q-19 -67 -106 -354q-10 -33 -27 -33q-3 0 -53 13q-46 12 -76 12q-9 0 -103 1.5t-253.5 3t-327.5 1.5q-72 0 -154.5 -1.5t-137 -3
t-60.5 -1.5q-20 0 -17 20l9 43q3 17 18 17h31q57 0 91 29.5t62 117.5l295 950q41 127 -53 127h-76q-19 0 -16 17l14 51q2 12 25 12q5 0 41.5 -1.5t105 -3t150.5 -1.5q93 0 168.5 1.5t115 3t43.5 1.5q20 0 17 -20l-10 -43q-6 -17 -25 -17h-72q-58 0 -90 -27.5t-57 -109.5z
M436 -598q-1 0 -5 -0.5t-6 0t-4.5 2t-4 5.5t-2.5 11q-3 21 20 27q48 12 100 57.5t52 104.5q0 23 -6.5 39.5t-13.5 26t-27 30.5l-8 7q-8 7 -14 13.5t-13.5 16.5t-12 22t-4.5 25q0 36 22.5 62t59.5 26q60 0 99 -61.5t39 -120.5q0 -63 -25 -116t-60 -84.5t-75.5 -53.5
t-69 -30.5t-41.5 -8.5z" />
    <glyph glyph-name="lcommaaccent" unicode="&#x13c;" horiz-adv-x="532" 
d="M322 1389h360q29 0 14 -37l-409 -1149q-16 -43 -12 -65.5t32 -22.5q48 0 148 100q9 9 18 0l23 -25q7 -10 0 -22q-4 -6 -22 -25t-54.5 -47.5t-80 -53.5t-104.5 -43.5t-122 -18.5q-31 0 -59.5 29.5t-28.5 56.5q0 28 57 190l321 930q45 129 -38 129h-60q-20 0 -16 18l12 41
q5 15 21 15zM-14 -598q-1 0 -5 -0.5t-6 0t-5 2t-4.5 5.5t-2.5 11q-3 20 21 27q48 12 99.5 57.5t51.5 104.5q0 23 -6.5 39.5t-13.5 26t-27 30.5l-8 7q-8 7 -13.5 13.5t-13.5 16.5t-12 22t-4 25q0 36 22.5 62t59.5 26q60 0 98.5 -61.5t38.5 -120.5q0 -63 -25 -116t-60 -84.5
t-75 -53.5t-68.5 -30.5t-41.5 -8.5z" />
    <glyph glyph-name="Lcaron" unicode="&#x13d;" horiz-adv-x="1351" 
d="M764 1161l-318 -1028q-18 -59 46 -59h157q208 0 260 8q27 4 46 15t49 38q47 42 129.5 130t91.5 102q11 23 22 20l37 -16q11 -5 8 -15q-19 -67 -106 -354q-10 -33 -27 -33q-3 0 -53 13q-46 12 -76 12q-9 0 -103 1.5t-253.5 3t-327.5 1.5q-72 0 -154.5 -1.5t-137 -3
t-60.5 -1.5q-20 0 -17 20l9 43q3 17 18 17h31q57 0 91 29.5t62 117.5l295 950q41 127 -53 127h-76q-19 0 -16 17l14 51q2 12 25 12q5 0 41.5 -1.5t105 -3t150.5 -1.5q93 0 168.5 1.5t115 3t43.5 1.5q20 0 17 -20l-10 -43q-6 -17 -25 -17h-72q-58 0 -90 -27.5t-57 -109.5z
M1153 897q-1 0 -5 -0.5t-6 0t-5 2t-4.5 5.5t-2.5 11q-3 20 21 27q48 12 100 57.5t52 104.5q0 22 -6.5 39.5t-14 26t-27.5 30.5l-8 7q-8 7 -13.5 13.5t-13.5 16.5t-12 22t-4 25q0 36 22.5 62t59.5 26q60 0 98.5 -61.5t38.5 -120.5q0 -63 -25 -116t-60 -84.5t-75 -53.5
t-68.5 -30.5t-41.5 -8.5z" />
    <glyph glyph-name="lcaron" unicode="&#x13e;" horiz-adv-x="731" 
d="M322 1389h360q29 0 14 -37l-409 -1149q-16 -43 -12 -65.5t32 -22.5q48 0 148 100q9 9 18 0l23 -25q7 -10 0 -22q-4 -6 -22 -25t-54.5 -47.5t-80 -53.5t-104.5 -43.5t-122 -18.5q-31 0 -59.5 29.5t-28.5 56.5q0 28 57 190l321 930q45 129 -38 129h-60q-20 0 -16 18l12 41
q5 15 21 15zM733 913h-3.5h-4t-4 0.5t-4 1.5t-3 3t-2.5 5.5t-1 8.5q-2 20 20 26q48 12 100 57.5t52 104.5q0 32 -10 50t-37 47q-1 1 -8.5 7t-13.5 13t-13.5 16.5t-12 21.5t-4.5 25q0 36 22.5 62.5t59.5 26.5q60 0 99 -62t39 -121q0 -63 -25 -116t-60 -84.5t-75.5 -53.5
t-69 -30.5t-41.5 -8.5z" />
    <glyph glyph-name="Lslash" unicode="&#x141;" horiz-adv-x="1351" 
d="M1292 356l-106 -354q-10 -33 -27 -33q-3 0 -53 13q-46 12 -76 12q-9 0 -103 1.5t-253.5 3t-327.5 1.5q-72 0 -154.5 -1.5t-137 -3t-60.5 -1.5q-22 0 -17 20l9 43q3 17 18 17h31q57 0 91 29.5t62 117.5l127 404l-192 -39q-14 -3 -17 14l-10 57q-2 12 10 15l236 47l141 452
q22 67 4.5 97t-77.5 30h-56q-19 0 -16 17l14 51q2 12 25 12q5 0 41.5 -1.5t105 -3t150.5 -1.5q93 0 168.5 1.5t115 3t43.5 1.5q20 0 17 -20l-10 -43q-6 -17 -25 -17h-72q-57 0 -88.5 -27t-58.5 -110l-123 -393l369 82q14 3 16 -8l10 -62q3 -12 -12 -16l-410 -90l-168 -541
q-18 -59 46 -59h157q208 0 260 8q27 4 46 15t49 38q47 42 129.5 130t91.5 102q11 23 22 20l37 -16q11 -5 8 -15z" />
    <glyph glyph-name="lslash" unicode="&#x142;" horiz-adv-x="632" 
d="M760 776q3 -12 -15 -16l-251 -60l-179 -497q-32 -88 19 -88q47 0 147 100q9 9 19 0l22 -25q7 -10 0 -22q-4 -6 -22 -25t-54.5 -47.5t-80 -53.5t-104.5 -43.5t-122 -18.5q-27 0 -57.5 27.5t-30.5 49.5q0 15 9.5 48t29 88.5t23.5 66.5l133 389l-148 -37q-12 -3 -16 11
l-12 53q-2 12 10 16l196 49l156 445q26 60 17.5 94.5t-64.5 34.5h-49q-18 0 -14 18l12 41q5 15 20 15h359q26 0 14 -37l-201 -559l201 51q18 4 21 -8z" />
    <glyph glyph-name="Nacute" unicode="&#x143;" horiz-adv-x="1515" 
d="M508 1061l-154 -537q-99 -346 -63 -422q13 -28 45 -28h82q19 0 16 -21l-6 -43q-3 -10 -7.5 -13t-17.5 -3q-5 0 -38.5 1.5t-87.5 3t-111 1.5q-62 0 -114.5 -1.5t-82 -3t-35.5 -1.5q-17 0 -14 20l6 43q3 17 19 17h35q70 0 117 66t98 225l223 700q20 62 21.5 110t-12.5 73
t-32.5 37.5t-38.5 12.5h-82q-11 0 -14 4.5t0 16.5l10 43q5 16 23 16q5 0 43.5 -1.5t117.5 -3t183 -1.5q30 0 48 -12.5t30 -40.5l471 -913q8 -15 17.5 -11t15.5 23l167 547q38 121 49 195t-2 106t-49 32h-55q-14 0 -17.5 3.5t-2.5 13.5l6 49q3 14 20 14q7 0 36 -1.5t81.5 -3
t116.5 -1.5q63 0 117 3t59 3q14 0 18 -5.5t2 -18.5l-8 -39q-2 -17 -18 -17h-51q-70 0 -146 -213l-364 -1032q-18 -53 -43 -53q-37 0 -58 41l-538 1024q-8 13 -17 11.5t-14 -15.5zM963 1493l-13 20q-5 10 6 21l271 233q42 37 82 37q47 0 74 -38t15.5 -84t-61.5 -64l-358 -127
q-12 -6 -16 2z" />
    <glyph glyph-name="nacute" unicode="&#x144;" horiz-adv-x="1087" 
d="M244 0h-174q-10 0 -16 7t-3 16l142 393q92 253 92 289q0 32 -27 32q-20 0 -64 -38t-73 -72q-11 -11 -21 -2l-20 22q-11 9 -2 21q15 20 30.5 38t52.5 51.5t75.5 56.5t96.5 41.5t118 18.5q41 0 61 -24.5t20 -54.5q0 -41 -98 -267l19 -14q87 128 139 187q154 173 295 173
q61 0 96 -44t35 -93q0 -32 -24 -107.5t-95 -275.5q-65 -184 -65 -209q0 -34 26 -34q17 0 55.5 32.5t57.5 55.5q9 11 20 0l19 -17q13 -10 2 -24q-15 -20 -38.5 -43t-67.5 -57t-107 -56t-131 -22q-43 0 -62.5 21.5t-19.5 55.5q0 37 106 340q82 234 82 269q0 45 -41 45
q-35 0 -126 -97.5t-154 -199.5q-9 -15 -26 -41.5t-26 -41t-20.5 -33.5t-18.5 -32.5t-10 -23.5l-80 -230q-6 -12 -30 -12zM621 969l-15 20q-4 5 8 17l228 211q56 49 98 49q27 0 47.5 -20.5t26 -47.5t-9 -56t-50.5 -44l-317 -131q-12 -6 -16 2z" />
    <glyph glyph-name="Ncommaaccent" unicode="&#x145;" horiz-adv-x="1515" 
d="M508 1061l-154 -537q-99 -346 -63 -422q13 -28 45 -28h82q19 0 16 -21l-6 -43q-3 -10 -7.5 -13t-17.5 -3q-5 0 -38.5 1.5t-87.5 3t-111 1.5q-62 0 -114.5 -1.5t-82 -3t-35.5 -1.5q-17 0 -14 20l6 43q3 17 19 17h35q70 0 117 66t98 225l223 700q20 62 21.5 110t-12.5 73
t-32.5 37.5t-38.5 12.5h-82q-11 0 -14 4.5t0 16.5l10 43q5 16 23 16q5 0 43.5 -1.5t117.5 -3t183 -1.5q30 0 48 -12.5t30 -40.5l471 -913q8 -15 17.5 -11t15.5 23l167 547q38 121 49 195t-2 106t-49 32h-55q-14 0 -17.5 3.5t-2.5 13.5l6 49q3 14 20 14q7 0 36 -1.5t81.5 -3
t116.5 -1.5q63 0 117 3t59 3q14 0 18 -5.5t2 -18.5l-8 -39q-2 -17 -18 -17h-51q-70 0 -146 -213l-364 -1032q-18 -53 -43 -53q-37 0 -58 41l-538 1024q-8 13 -17 11.5t-14 -15.5zM518 -557q-1 0 -5 -0.5t-6 0t-4.5 2t-4 5.5t-2.5 11q-3 21 20 27q48 12 100 57.5t52 104.5
q0 23 -6.5 39.5t-13.5 26t-27 30.5l-8 7q-8 7 -14 13.5t-13.5 16.5t-12 22t-4.5 25q0 36 22.5 62t59.5 26q60 0 98.5 -61.5t38.5 -120.5q0 -63 -25 -116t-60 -84.5t-75 -53.5t-68.5 -30.5t-41.5 -8.5z" />
    <glyph glyph-name="ncommaaccent" unicode="&#x146;" horiz-adv-x="1087" 
d="M244 0h-174q-10 0 -16 7t-3 16l142 393q92 253 92 289q0 32 -27 32q-20 0 -64 -38t-73 -72q-11 -11 -21 -2l-20 22q-11 9 -2 21q15 20 30.5 38t52.5 51.5t75.5 56.5t96.5 41.5t118 18.5q41 0 61 -24.5t20 -54.5q0 -41 -98 -267l19 -14q87 128 139 187q154 173 295 173
q61 0 96 -44t35 -93q0 -32 -24 -107.5t-95 -275.5q-65 -184 -65 -209q0 -34 26 -34q17 0 55.5 32.5t57.5 55.5q9 11 20 0l19 -17q13 -10 2 -24q-15 -20 -38.5 -43t-67.5 -57t-107 -56t-131 -22q-43 0 -62.5 21.5t-19.5 55.5q0 37 106 340q82 234 82 269q0 45 -41 45
q-35 0 -126 -97.5t-154 -199.5q-9 -15 -26 -41.5t-26 -41t-20.5 -33.5t-18.5 -32.5t-10 -23.5l-80 -230q-6 -12 -30 -12zM264 -598q-1 0 -5 -0.5t-6 0t-4.5 2t-4 5.5t-2.5 11q-3 21 20 27q48 12 100 57.5t52 104.5q0 23 -6.5 39.5t-13.5 26t-27 30.5l-8 7q-8 7 -14 13.5
t-13.5 16.5t-12 22t-4.5 25q0 36 22.5 62t59.5 26q60 0 99 -61.5t39 -120.5q0 -63 -25 -116t-60 -84.5t-75.5 -53.5t-69 -30.5t-41.5 -8.5z" />
    <glyph glyph-name="Ncaron" unicode="&#x147;" horiz-adv-x="1515" 
d="M508 1061l-154 -537q-99 -346 -63 -422q13 -28 45 -28h82q19 0 16 -21l-6 -43q-3 -10 -7.5 -13t-17.5 -3q-5 0 -38.5 1.5t-87.5 3t-111 1.5q-62 0 -114.5 -1.5t-82 -3t-35.5 -1.5q-17 0 -14 20l6 43q3 17 19 17h35q70 0 117 66t98 225l223 700q20 62 21.5 110t-12.5 73
t-32.5 37.5t-38.5 12.5h-82q-11 0 -14 4.5t0 16.5l10 43q5 16 23 16q5 0 43.5 -1.5t117.5 -3t183 -1.5q30 0 48 -12.5t30 -40.5l471 -913q8 -15 17.5 -11t15.5 23l167 547q38 121 49 195t-2 106t-49 32h-55q-14 0 -17.5 3.5t-2.5 13.5l6 49q3 14 20 14q7 0 36 -1.5t81.5 -3
t116.5 -1.5q63 0 117 3t59 3q14 0 18 -5.5t2 -18.5l-8 -39q-2 -17 -18 -17h-51q-70 0 -146 -213l-364 -1032q-18 -53 -43 -53q-37 0 -58 41l-538 1024q-8 13 -17 11.5t-14 -15.5zM1032 1677l258 117q11 5 19 -6l14 -25q2 -5 -4 -14l-301 -301q-7 -9 -18 -8.5t-17 12.5
l-162 303q-7 10 4 17l21 18q8 6 22 -4z" />
    <glyph glyph-name="ncaron" unicode="&#x148;" horiz-adv-x="1087" 
d="M244 0h-174q-10 0 -16 7t-3 16l142 393q92 253 92 289q0 32 -27 32q-20 0 -64 -38t-73 -72q-11 -11 -21 -2l-20 22q-11 9 -2 21q15 20 30.5 38t52.5 51.5t75.5 56.5t96.5 41.5t118 18.5q41 0 61 -24.5t20 -54.5q0 -41 -98 -267l19 -14q87 128 139 187q154 173 295 173
q61 0 96 -44t35 -93q0 -32 -24 -107.5t-95 -275.5q-65 -184 -65 -209q0 -34 26 -34q17 0 55.5 32.5t57.5 55.5q9 11 20 0l19 -17q13 -10 2 -24q-15 -20 -38.5 -43t-67.5 -57t-107 -56t-131 -22q-43 0 -62.5 21.5t-19.5 55.5q0 37 106 340q82 234 82 269q0 45 -41 45
q-35 0 -126 -97.5t-154 -199.5q-9 -15 -26 -41.5t-26 -41t-20.5 -33.5t-18.5 -32.5t-10 -23.5l-80 -230q-6 -12 -30 -12zM668 977l-111 323q-4 12 4 17l17 8q10 6 16 0l135 -127l219 125q10 5 15 -2l12 -18q7 -7 -2 -19l-277 -315q-8 -9 -16.5 -6.5t-11.5 14.5z" />
    <glyph glyph-name="Omacron" unicode="&#x14c;" horiz-adv-x="1564" 
d="M762 -31q-235 0 -375 129q-186 172 -186 471q0 130 33 252.5t99 228t157.5 184.5t215.5 124t265 45q260 0 415.5 -152.5t155.5 -439.5q0 -161 -57.5 -313.5t-158 -269.5t-248 -188t-316.5 -71zM735 72q99 0 197 80t170.5 208.5t117.5 299t46 341.5q0 143 -64 221t-178 78
q-86 0 -163 -44t-126 -111q-123 -149 -202.5 -349.5t-79.5 -381.5q0 -164 73.5 -253t208.5 -89zM809 1581v90q0 12 20 12h451q20 0 20 -14v-88q0 -14 -18 -14h-457q-16 0 -16 14z" />
    <glyph glyph-name="omacron" unicode="&#x14d;" horiz-adv-x="858" 
d="M334 -20q-37 0 -74 10t-73 34t-63 59t-44 89t-17 121q0 132 39.5 252.5t122.5 210.5q113 118 293 118q37 0 73 -7t76.5 -27.5t70 -52.5t49.5 -87t20 -127q0 -110 -42 -246t-130 -229q-59 -64 -130 -91t-171 -27zM305 98q50 0 101 45t110 158q49 92 87 203t38 166
q0 40 -18.5 64t-57.5 24q-57 0 -107 -54t-122 -184q-50 -88 -76.5 -176.5t-26.5 -155.5q0 -34 19.5 -62t52.5 -28zM348 1059v92q0 12 21 12h409q21 0 21 -14v-90q0 -15 -19 -15h-415q-17 0 -17 15z" />
    <glyph glyph-name="Ohungarumlaut" unicode="&#x150;" horiz-adv-x="1564" 
d="M762 -31q-235 0 -375 129q-186 172 -186 471q0 130 33 252.5t99 228t157.5 184.5t215.5 124t265 45q260 0 415.5 -152.5t155.5 -439.5q0 -161 -57.5 -313.5t-158 -269.5t-248 -188t-316.5 -71zM735 72q99 0 197 80t170.5 208.5t117.5 299t46 341.5q0 143 -64 221t-178 78
q-86 0 -163 -44t-126 -111q-123 -149 -202.5 -349.5t-79.5 -381.5q0 -164 73.5 -253t208.5 -89zM1149 1493l-12 18q-6 9 6 21l241 227q31 27 62 27q36 0 60 -31t19.5 -68t-40.5 -53l-318 -141q-11 -7 -18 0zM862 1493l-12 14q-7 10 4 21l213 254q35 39 76 39q21 0 42 -16.5
t32.5 -39.5t3.5 -51t-41 -47l-297 -174q-14 -11 -21 0z" />
    <glyph glyph-name="ohungarumlaut" unicode="&#x151;" horiz-adv-x="858" 
d="M334 -20q-37 0 -74 10t-73 34t-63 59t-44 89t-17 121q0 132 39.5 252.5t122.5 210.5q113 118 293 118q37 0 73 -7t76.5 -27.5t70 -52.5t49.5 -87t20 -127q0 -110 -42 -246t-130 -229q-59 -64 -130 -91t-171 -27zM305 98q50 0 101 45t110 158q49 92 87 203t38 166
q0 40 -18.5 64t-57.5 24q-57 0 -107 -54t-122 -184q-50 -88 -76.5 -176.5t-26.5 -155.5q0 -34 19.5 -62t52.5 -28zM664 973l-15 18q-7 7 8 19l201 211q14 14 24 22t26.5 14.5t35.5 6.5q30 0 52 -27t18.5 -62t-39.5 -53l-293 -149q-11 -7 -18 0zM422 971l-19 16q-7 7 7 21
l165 231q34 51 78 51q38 0 59.5 -25.5t16.5 -59.5t-37 -56l-252 -174q-11 -11 -18 -4z" />
    <glyph glyph-name="OE" unicode="&#x152;" horiz-adv-x="2252" 
d="M1505 694l-196 -620h393q46 0 95.5 21t86 46t85 73.5t70.5 73t64 74.5q12 15 25 9l26 -19q11 -7 5 -26l-105 -297q-7 -22 -16 -28.5t-29 -6.5q-10 0 -55 0.5t-132.5 1.5t-156.5 2q-91 0 -277.5 1t-259.5 1q-46 0 -184 -14q-125 -17 -170 -17q-268 0 -401 133
q-87 87 -129.5 188.5t-42.5 237.5q0 140 35 268t107.5 239t176 193t248.5 128.5t317 46.5q69 0 246 -14q157 -17 213 -17q243 0 451 4q63 0 126.5 1t67.5 1q23 0 30 -7t13 -32l66 -280q3 -12 -8 -17l-27 -14q-14 -5 -29 10l-227 246q-12 14 -37 14h-272l-172 -530h160
q42 0 74.5 9.5t77 48.5t85.5 110q11 16 21 14l38 -12q14 -4 11 -14q-81 -188 -109 -408q-2 -14 -18 -14l-39 2q-9 0 -12 20q-10 92 -65 131t-159 39h-86zM1094 311l254 815q25 79 -37.5 124.5t-163.5 45.5q-218 0 -381 -170q-138 -142 -236 -352.5t-98 -380.5
q0 -148 86.5 -237.5t208.5 -89.5q148 0 238.5 60t128.5 185z" />
    <glyph glyph-name="oe" unicode="&#x153;" horiz-adv-x="1249" 
d="M791 453q43 -2 98.5 20t95.5 70q66 74 66 157q0 31 -15.5 52.5t-38.5 21.5q-36 0 -71 -34.5t-61.5 -88t-44.5 -103.5t-29 -95zM1104 223l24 -18q11 -8 5 -21q-21 -42 -66.5 -86t-126.5 -81t-170 -37q-71 0 -125 33t-76 87q-44 -54 -116.5 -87t-147.5 -33q-44 0 -85 18
t-77 54.5t-58 102t-22 150.5q0 124 44.5 245.5t125.5 205.5q115 118 291 118q192 0 230 -165q77 84 169 124.5t177 40.5q79 0 118 -39t39 -102q0 -84 -42.5 -146t-131.5 -114q-140 -81 -311 -92q-18 -48 -18 -135q0 -51 29.5 -90t80.5 -39q75 0 127.5 25t93.5 79q7 11 19 2z
M301 102q58 0 99.5 42t93.5 135q151 279 151 393q0 32 -21 56t-67 24q-91 0 -209 -211q-57 -100 -90 -194t-33 -157q0 -36 23 -63t53 -25z" />
    <glyph glyph-name="Racute" unicode="&#x154;" horiz-adv-x="1443" 
d="M137 172l328 1018q17 50 2 76t-66 26h-59q-19 0 -16 17l10 47q2 9 7 12.5t19 3.5q125 0 303.5 3t200.5 3q52 0 90.5 -1.5t93.5 -8t95.5 -18.5t84 -34.5t71 -53.5t45.5 -78.5t18 -106.5q0 -147 -141.5 -257t-354.5 -132v-4q27 -8 49.5 -22.5t39 -35t24 -32.5t18.5 -33
q3 -4 83.5 -169.5t101.5 -198.5q73 -119 176 -119h51q17 0 14 -21l-6 -43q-3 -16 -20 -16q-6 0 -24.5 1.5t-57 3t-90.5 1.5q-83 0 -147.5 -3t-71.5 -3q-14 0 -25.5 13t-34.5 52q-20 33 -114 244.5t-113 259.5q-7 16 -14.5 29.5t-14.5 23t-16 17t-15.5 12.5t-16.5 8.5
t-15.5 5t-15.5 2.5t-13.5 1h-13h-11.5l-145 -441q-21 -57 -17 -90t16 -45t30 -12h88q17 0 14 -17l-6 -51q-2 -12 -25 -12q-5 0 -42 1.5t-103.5 3t-144.5 1.5q-73 0 -133.5 -1.5t-94 -3t-39.5 -1.5q-15 0 -12 20l8 43q3 17 21 17h65q24 0 47 28.5t35 69.5zM776 1307
l-180 -572q4 0 32.5 -0.5t41 0t43.5 3t53 7.5t54 15t63 24q75 34 132.5 118.5t57.5 187.5q0 36 -11.5 72t-35 70t-67 55.5t-99.5 21.5q-59 0 -84 -2zM823 1493l-12 20q-5 10 6 21l270 233q42 37 82 37q47 0 74.5 -38t16 -84t-61.5 -64l-358 -127q-13 -6 -17 2z" />
    <glyph glyph-name="racute" unicode="&#x155;" horiz-adv-x="798" 
d="M281 0h-177q-10 0 -15.5 5.5t-2.5 12.5l98 332q99 325 99 357q0 15 -10 26.5t-25 11.5q-24 0 -68 -38t-67 -74q-12 -18 -25 -8l-20 14q-8 6 0 25q15 28 41 59t67 67.5t99 60t120 23.5q55 0 81 -23.5t26 -57.5q0 -33 -73 -229l-15 -42l22 -12q164 364 324 364
q46 0 81.5 -31t35.5 -79q0 -51 -31.5 -92t-61.5 -41q-43 0 -67 16q-2 2 -11.5 8t-14 8.5t-14 5.5t-18.5 3q-44 0 -112.5 -89t-106.5 -177q-32 -78 -67 -185l-66 -207q-6 -14 -26 -14zM516 969l-14 20q-4 5 8 17l227 211q56 49 99 49q27 0 47.5 -20.5t26 -47.5t-9 -56
t-50.5 -44l-318 -131q-12 -6 -16 2z" />
    <glyph glyph-name="Rcommaaccent" unicode="&#x156;" horiz-adv-x="1443" 
d="M137 172l328 1018q17 50 2 76t-66 26h-59q-19 0 -16 17l10 47q2 9 7 12.5t19 3.5q125 0 303.5 3t200.5 3q52 0 90.5 -1.5t93.5 -8t95.5 -18.5t84 -34.5t71 -53.5t45.5 -78.5t18 -106.5q0 -147 -141.5 -257t-354.5 -132v-4q27 -8 49.5 -22.5t39 -35t24 -32.5t18.5 -33
q3 -4 83.5 -169.5t101.5 -198.5q73 -119 176 -119h51q17 0 14 -21l-6 -43q-3 -16 -20 -16q-6 0 -24.5 1.5t-57 3t-90.5 1.5q-83 0 -147.5 -3t-71.5 -3q-14 0 -25.5 13t-34.5 52q-20 33 -114 244.5t-113 259.5q-7 16 -14.5 29.5t-14.5 23t-16 17t-15.5 12.5t-16.5 8.5
t-15.5 5t-15.5 2.5t-13.5 1h-13h-11.5l-145 -441q-21 -57 -17 -90t16 -45t30 -12h88q17 0 14 -17l-6 -51q-2 -12 -25 -12q-5 0 -42 1.5t-103.5 3t-144.5 1.5q-73 0 -133.5 -1.5t-94 -3t-39.5 -1.5q-15 0 -12 20l8 43q3 17 21 17h65q24 0 47 28.5t35 69.5zM776 1307
l-180 -572q4 0 32.5 -0.5t41 0t43.5 3t53 7.5t54 15t63 24q75 34 132.5 118.5t57.5 187.5q0 36 -11.5 72t-35 70t-67 55.5t-99.5 21.5q-59 0 -84 -2zM524 -557q-1 0 -5 -0.5t-6 0t-4.5 2t-4 5.5t-2.5 11q-3 21 20 27q48 12 100 57.5t52 104.5q0 23 -6.5 39.5t-13.5 26
t-27 30.5l-8 7q-8 7 -14 13.5t-13.5 16.5t-12 22t-4.5 25q0 36 22.5 62t59.5 26q60 0 99 -61.5t39 -120.5q0 -63 -25 -116t-60 -84.5t-75.5 -53.5t-69 -30.5t-41.5 -8.5z" />
    <glyph glyph-name="rcommaaccent" unicode="&#x157;" horiz-adv-x="798" 
d="M281 0h-177q-10 0 -15.5 5.5t-2.5 12.5l98 332q99 325 99 357q0 15 -10 26.5t-25 11.5q-24 0 -68 -38t-67 -74q-12 -18 -25 -8l-20 14q-8 6 0 25q15 28 41 59t67 67.5t99 60t120 23.5q55 0 81 -23.5t26 -57.5q0 -33 -73 -229l-15 -42l22 -12q164 364 324 364
q46 0 81.5 -31t35.5 -79q0 -51 -31.5 -92t-61.5 -41q-43 0 -67 16q-2 2 -11.5 8t-14 8.5t-14 5.5t-18.5 3q-44 0 -112.5 -89t-106.5 -177q-32 -78 -67 -185l-66 -207q-6 -14 -26 -14zM16 -598q-1 0 -5 -0.5t-6 0t-4.5 2t-4 5.5t-2.5 11q-3 21 20 27q48 12 100 57.5t52 104.5
q0 23 -6.5 39.5t-13.5 26t-27 30.5l-8 7q-8 7 -13.5 13.5t-13.5 16.5t-12 22t-4 25q0 36 22.5 62t59.5 26q60 0 98.5 -61.5t38.5 -120.5q0 -63 -25 -116t-60 -84.5t-75.5 -53.5t-69 -30.5t-41.5 -8.5z" />
    <glyph glyph-name="Rcaron" unicode="&#x158;" horiz-adv-x="1443" 
d="M137 172l328 1018q17 50 2 76t-66 26h-59q-19 0 -16 17l10 47q2 9 7 12.5t19 3.5q125 0 303.5 3t200.5 3q52 0 90.5 -1.5t93.5 -8t95.5 -18.5t84 -34.5t71 -53.5t45.5 -78.5t18 -106.5q0 -147 -141.5 -257t-354.5 -132v-4q27 -8 49.5 -22.5t39 -35t24 -32.5t18.5 -33
q3 -4 83.5 -169.5t101.5 -198.5q73 -119 176 -119h51q17 0 14 -21l-6 -43q-3 -16 -20 -16q-6 0 -24.5 1.5t-57 3t-90.5 1.5q-83 0 -147.5 -3t-71.5 -3q-14 0 -25.5 13t-34.5 52q-20 33 -114 244.5t-113 259.5q-7 16 -14.5 29.5t-14.5 23t-16 17t-15.5 12.5t-16.5 8.5
t-15.5 5t-15.5 2.5t-13.5 1h-13h-11.5l-145 -441q-21 -57 -17 -90t16 -45t30 -12h88q17 0 14 -17l-6 -51q-2 -12 -25 -12q-5 0 -42 1.5t-103.5 3t-144.5 1.5q-73 0 -133.5 -1.5t-94 -3t-39.5 -1.5q-15 0 -12 20l8 43q3 17 21 17h65q24 0 47 28.5t35 69.5zM776 1307
l-180 -572q4 0 32.5 -0.5t41 0t43.5 3t53 7.5t54 15t63 24q75 34 132.5 118.5t57.5 187.5q0 36 -11.5 72t-35 70t-67 55.5t-99.5 21.5q-59 0 -84 -2zM936 1718l258 117q10 5 18 -6l15 -25q2 -5 -4 -14l-301 -301q-7 -9 -18 -8.5t-17 12.5l-162 303q-6 9 4 16l21 19
q8 6 22 -4z" />
    <glyph glyph-name="rcaron" unicode="&#x159;" horiz-adv-x="798" 
d="M281 0h-177q-10 0 -15.5 5.5t-2.5 12.5l98 332q99 325 99 357q0 15 -10 26.5t-25 11.5q-24 0 -68 -38t-67 -74q-12 -18 -25 -8l-20 14q-8 6 0 25q15 28 41 59t67 67.5t99 60t120 23.5q55 0 81 -23.5t26 -57.5q0 -33 -73 -229l-15 -42l22 -12q164 364 324 364
q46 0 81.5 -31t35.5 -79q0 -51 -31.5 -92t-61.5 -41q-43 0 -67 16q-2 2 -11.5 8t-14 8.5t-14 5.5t-18.5 3q-44 0 -112.5 -89t-106.5 -177q-32 -78 -67 -185l-66 -207q-6 -14 -26 -14zM563 977l-110 323q-4 12 4 17l16 8q10 6 16 0l136 -127l219 125q10 5 14 -2l12 -18
q7 -7 -2 -19l-276 -315q-7 -9 -16.5 -6.5t-12.5 14.5z" />
    <glyph glyph-name="Sacute" unicode="&#x15a;" horiz-adv-x="1085" 
d="M1100 1362l-74 -389q-3 -12 -16 -12l-45 2q-17 0 -17 18q2 24 0 52.5t-8.5 66t-22.5 72t-39.5 64t-62 47t-86.5 17.5q-79 0 -124.5 -57.5t-45.5 -122.5q0 -34 8.5 -65t19 -53t32.5 -49.5t37 -43t46 -45.5t46 -45q6 -6 32 -31.5t35.5 -36t34 -36.5t35 -43t29.5 -45.5
t28 -54t19.5 -57.5t15 -67.5t4.5 -74.5q0 -188 -122 -296t-310 -108q-162 0 -283 144q-13 16 -30.5 17t-24.5 -9q-45 -60 -53 -78q-7 -13 -21 -6l-26 10q-13 5 -9 21l152 446q5 11 18 8l45 -8q12 -4 9 -20q-13 -102 2 -185t50.5 -133t81 -77t95.5 -27q92 0 147.5 59
t55.5 139q0 35 -9.5 67t-33.5 66t-40 53t-55.5 59.5t-52.5 55.5q-104 114 -134 153q-98 131 -106 284q-1 17 -1 34q0 46 14 94t46 96.5t78 86t116.5 61t154.5 23.5q110 0 242 -92q10 -6 29 -6q20 0 32 67q3 9 21 6l26 -2q18 -3 15 -14zM727 1493l-12 20q-5 10 6 21l270 233
q42 37 82 37q47 0 74.5 -38t16 -84t-61.5 -64l-359 -127q-12 -6 -16 2z" />
    <glyph glyph-name="sacute" unicode="&#x15b;" horiz-adv-x="665" 
d="M197 -20q-107 0 -163.5 33t-56.5 89q0 46 25.5 73.5t63.5 27.5q69 0 110 -97q8 -22 23 -36.5t32 -14.5q94 0 97 138q1 30 -10 54.5t-41 67.5t-46 72q-7 11 -20.5 34t-18 31t-14 25t-13 25t-9 22t-7 24.5t-3 23.5t-1.5 28q0 113 90 193.5t250 80.5q45 0 83 -10.5t66 -40
t28 -73.5q0 -47 -24.5 -75t-68.5 -28q-80 0 -90 86q-3 25 -16 43.5t-33 18.5q-36 0 -55 -22t-19 -91q0 -76 107 -201q47 -57 61.5 -100.5t14.5 -108.5q0 -126 -91 -209t-251 -83zM410 969l-15 20q-5 5 8 17l228 211q56 49 98 49q27 0 47.5 -20.5t26 -47.5t-9 -56t-50.5 -44
l-317 -131q-12 -6 -16 2z" />
    <glyph glyph-name="Scedilla" unicode="&#x15e;" horiz-adv-x="1085" 
d="M588 -29l-82 -121q89 -21 125.5 -52.5t36.5 -82.5q0 -76 -112.5 -133t-252.5 -57q-39 0 -39 31q0 32 25 32q27 1 53.5 6.5t55 18t46 36.5t17.5 56q0 28 -28 53t-71 37l132 178q-127 22 -228 140q-13 16 -30.5 17t-24.5 -9q-45 -60 -53 -78q-7 -13 -21 -6l-26 10
q-13 5 -9 21l152 446q5 11 18 8l45 -8q12 -4 9 -20q-13 -102 2 -185t50.5 -133t81 -77t95.5 -27q92 0 147.5 59t55.5 139q0 35 -9.5 67t-33.5 66t-40 53t-55.5 59.5t-52.5 55.5q-104 114 -134 153q-98 131 -106 284q-1 17 -1 34q0 46 14 94t46 96.5t78 86t116.5 61
t154.5 23.5q110 0 242 -92q10 -6 29 -6q20 0 32 67q3 9 21 6l26 -2q18 -3 15 -14l-74 -389q-3 -12 -16 -12l-45 2q-17 0 -17 18q2 24 0 52.5t-8.5 66t-22.5 72t-39.5 64t-62 47t-86.5 17.5q-79 0 -124.5 -57.5t-45.5 -122.5q0 -34 8.5 -65t19 -53t32.5 -49.5t37 -43
t46 -45.5t46 -45q6 -6 32 -31.5t35.5 -36t34 -36.5t35 -43t29.5 -45.5t28 -54t19.5 -57.5t15 -67.5t4.5 -74.5q0 -178 -110 -284.5t-283 -117.5z" />
    <glyph glyph-name="Scedilla" unicode="&#xf6c1;" horiz-adv-x="1085" 
d="M588 -29l-82 -121q89 -21 125.5 -52.5t36.5 -82.5q0 -76 -112.5 -133t-252.5 -57q-39 0 -39 31q0 32 25 32q27 1 53.5 6.5t55 18t46 36.5t17.5 56q0 28 -28 53t-71 37l132 178q-127 22 -228 140q-13 16 -30.5 17t-24.5 -9q-45 -60 -53 -78q-7 -13 -21 -6l-26 10
q-13 5 -9 21l152 446q5 11 18 8l45 -8q12 -4 9 -20q-13 -102 2 -185t50.5 -133t81 -77t95.5 -27q92 0 147.5 59t55.5 139q0 35 -9.5 67t-33.5 66t-40 53t-55.5 59.5t-52.5 55.5q-104 114 -134 153q-98 131 -106 284q-1 17 -1 34q0 46 14 94t46 96.5t78 86t116.5 61
t154.5 23.5q110 0 242 -92q10 -6 29 -6q20 0 32 67q3 9 21 6l26 -2q18 -3 15 -14l-74 -389q-3 -12 -16 -12l-45 2q-17 0 -17 18q2 24 0 52.5t-8.5 66t-22.5 72t-39.5 64t-62 47t-86.5 17.5q-79 0 -124.5 -57.5t-45.5 -122.5q0 -34 8.5 -65t19 -53t32.5 -49.5t37 -43
t46 -45.5t46 -45q6 -6 32 -31.5t35.5 -36t34 -36.5t35 -43t29.5 -45.5t28 -54t19.5 -57.5t15 -67.5t4.5 -74.5q0 -178 -110 -284.5t-283 -117.5z" />
    <glyph glyph-name="scedilla" unicode="&#x15f;" horiz-adv-x="665" 
d="M266 -16l-100 -129q74 -22 109.5 -52.5t35.5 -74.5q0 -45 -37 -81.5t-93 -56.5t-112 -30.5t-102 -10.5q-39 0 -39 37q0 33 37 33q57 0 104.5 29.5t47.5 66.5q0 27 -21 54.5t-57 42.5l133 168q-96 4 -145.5 37t-49.5 85q0 46 25.5 73.5t63.5 27.5q69 0 110 -97
q8 -22 23 -36.5t32 -14.5q94 0 97 138q1 30 -10 54.5t-41 67.5t-46 72q-7 11 -20.5 34t-18 31t-14 25t-13 25t-9 22t-7 24.5t-3 23.5t-1.5 28q0 113 90 193.5t250 80.5q45 0 83 -10.5t66 -40t28 -73.5q0 -47 -24.5 -75t-68.5 -28q-80 0 -90 86q-3 25 -16 43.5t-33 18.5
q-36 0 -55 -22t-19 -91q0 -76 107 -201q47 -57 61.5 -101t14.5 -110q0 -110 -72 -189t-201 -97z" />
    <glyph glyph-name="scedilla" unicode="&#xf6c2;" horiz-adv-x="665" 
d="M266 -16l-100 -129q74 -22 109.5 -52.5t35.5 -74.5q0 -45 -37 -81.5t-93 -56.5t-112 -30.5t-102 -10.5q-39 0 -39 37q0 33 37 33q57 0 104.5 29.5t47.5 66.5q0 27 -21 54.5t-57 42.5l133 168q-96 4 -145.5 37t-49.5 85q0 46 25.5 73.5t63.5 27.5q69 0 110 -97
q8 -22 23 -36.5t32 -14.5q94 0 97 138q1 30 -10 54.5t-41 67.5t-46 72q-7 11 -20.5 34t-18 31t-14 25t-13 25t-9 22t-7 24.5t-3 23.5t-1.5 28q0 113 90 193.5t250 80.5q45 0 83 -10.5t66 -40t28 -73.5q0 -47 -24.5 -75t-68.5 -28q-80 0 -90 86q-3 25 -16 43.5t-33 18.5
q-36 0 -55 -22t-19 -91q0 -76 107 -201q47 -57 61.5 -101t14.5 -110q0 -110 -72 -189t-201 -97z" />
    <glyph glyph-name="Scaron" unicode="&#x160;" horiz-adv-x="1085" 
d="M1100 1362l-74 -389q-3 -12 -16 -12l-45 2q-17 0 -17 18q2 24 0 52.5t-8.5 66t-22.5 72t-39.5 64t-62 47t-86.5 17.5q-79 0 -124.5 -57.5t-45.5 -122.5q0 -34 8.5 -65t19 -53t32.5 -49.5t37 -43t46 -45.5t46 -45q6 -6 32 -31.5t35.5 -36t34 -36.5t35 -43t29.5 -45.5
t28 -54t19.5 -57.5t15 -67.5t4.5 -74.5q0 -188 -122 -296t-310 -108q-162 0 -283 144q-13 16 -30.5 17t-24.5 -9q-45 -60 -53 -78q-7 -13 -21 -6l-26 10q-13 5 -9 21l152 446q5 11 18 8l45 -8q12 -4 9 -20q-13 -102 2 -185t50.5 -133t81 -77t95.5 -27q92 0 147.5 59
t55.5 139q0 35 -9.5 67t-33.5 66t-40 53t-55.5 59.5t-52.5 55.5q-104 114 -134 153q-98 131 -106 284q-1 17 -1 34q0 46 14 94t46 96.5t78 86t116.5 61t154.5 23.5q110 0 242 -92q10 -6 29 -6q20 0 32 67q3 9 21 6l26 -2q18 -3 15 -14zM776 1718l258 117q11 5 19 -6l14 -25
q2 -5 -4 -14l-301 -301q-7 -9 -18 -8.5t-17 12.5l-162 303q-6 9 4 16l21 19q8 6 22 -4z" />
    <glyph glyph-name="scaron" unicode="&#x161;" horiz-adv-x="665" 
d="M197 -20q-107 0 -163.5 33t-56.5 89q0 46 25.5 73.5t63.5 27.5q69 0 110 -97q8 -22 23 -36.5t32 -14.5q94 0 97 138q1 30 -10 54.5t-41 67.5t-46 72q-7 11 -20.5 34t-18 31t-14 25t-13 25t-9 22t-7 24.5t-3 23.5t-1.5 28q0 113 90 193.5t250 80.5q45 0 83 -10.5t66 -40
t28 -73.5q0 -47 -24.5 -75t-68.5 -28q-80 0 -90 86q-3 25 -16 43.5t-33 18.5q-36 0 -55 -22t-19 -91q0 -76 107 -201q47 -57 61.5 -100.5t14.5 -108.5q0 -126 -91 -209t-251 -83zM416 977l-111 323q-4 12 4 17l17 8q10 6 16 0l135 -127l219 125q10 5 15 -2l12 -18
q7 -7 -2 -19l-277 -315q-7 -9 -16 -6.5t-12 14.5z" />
    <glyph glyph-name="Tcommaaccent" unicode="&#x162;" horiz-adv-x="1351" 
d="M211 14l6 43q3 17 23 17h55q79 0 118 44t76 163l308 1013q-177 0 -247 -9t-108 -42q-108 -96 -237 -229q-8 -8 -19 -4l-41 22q-10 3 -2 19q17 31 84.5 184.5t71.5 165.5q7 20 20 20q8 0 46 -20q59 -29 383 -29h432q152 0 227 8.5t109 28.5q21 12 28 12q9 0 15.5 -4
t5.5 -10q-5 -44 -14 -206.5t-5 -215.5q0 -9 -3 -11.5t-13 -4.5l-37 -6q-9 -2 -15.5 4.5t-13.5 25.5q-4 10 -25.5 72.5t-36.5 99.5t-28 56q-48 73 -301 73l-315 -1044q-29 -98 -9 -137t97 -39h80q18 0 14 -21l-8 -43q-3 -16 -27 -16q-5 0 -46.5 1.5t-133 3t-219.5 1.5
q-65 0 -129 -1.5t-104 -3t-46 -1.5q-11 0 -14.5 4.5t-1.5 15.5zM395 -598q-1 0 -5 -0.5t-6 0t-4.5 2t-4 5.5t-2.5 11q-3 21 20 27q48 12 100 57.5t52 104.5q0 23 -6.5 39.5t-13.5 26t-27 30.5l-8 7q-8 7 -14 13.5t-13.5 16.5t-12 22t-4.5 25q0 36 22.5 62t59.5 26
q60 0 99 -61.5t39 -120.5q0 -63 -25 -116t-60 -84.5t-75.5 -53.5t-69 -30.5t-41.5 -8.5z" />
    <glyph glyph-name="tcommaaccent" unicode="&#x163;" horiz-adv-x="657" 
d="M674 1106l-131 -293h207q16 0 10 -18l-15 -54q-6 -18 -26 -18h-207l-168 -451q-2 -8 -8.5 -26.5t-10 -31t-7 -27t-3.5 -23.5q0 -16 12 -27.5t33 -11.5q26 0 94 42.5t81 57.5q8 10 18 0l22 -24q9 -9 7 -17q-14 -18 -47.5 -47.5t-87.5 -67t-128 -63.5t-147 -26
q-50 0 -78 23t-28 50q0 71 22 127l186 543h-159q-9 0 -12.5 6.5t-0.5 15.5l13 54q6 14 22 14h170l68 221q6 16 18.5 22t50.5 7q35 3 98 28.5t83 38.5q22 13 32 13t16 -13t1 -24zM-33 -598q-1 0 -5 -0.5t-6 0t-4.5 2t-4 5.5t-2.5 11q-3 21 20 27q48 12 100 57.5t52 104.5
q0 23 -6.5 39.5t-13.5 26t-27 30.5l-8 7q-8 7 -14 13.5t-13.5 16.5t-12 22t-4.5 25q0 36 22.5 62t59.5 26q60 0 99 -61.5t39 -120.5q0 -63 -25 -116t-60 -84.5t-75.5 -53.5t-69 -30.5t-41.5 -8.5z" />
    <glyph glyph-name="Tcaron" unicode="&#x164;" horiz-adv-x="1351" 
d="M211 14l6 43q3 17 23 17h55q79 0 118 44t76 163l308 1013q-177 0 -247 -9t-108 -42q-108 -96 -237 -229q-8 -8 -19 -4l-41 22q-10 3 -2 19q17 31 84.5 184.5t71.5 165.5q7 20 20 20q8 0 46 -20q59 -29 383 -29h432q152 0 227 8.5t109 28.5q21 12 28 12q9 0 15.5 -4
t5.5 -10q-5 -44 -14 -206.5t-5 -215.5q0 -9 -3 -11.5t-13 -4.5l-37 -6q-9 -2 -15.5 4.5t-13.5 25.5q-4 10 -25.5 72.5t-36.5 99.5t-28 56q-48 73 -301 73l-315 -1044q-29 -98 -9 -137t97 -39h80q18 0 14 -21l-8 -43q-3 -16 -27 -16q-5 0 -46.5 1.5t-133 3t-219.5 1.5
q-65 0 -129 -1.5t-104 -3t-46 -1.5q-11 0 -14.5 4.5t-1.5 15.5zM1022 1718l258 117q10 5 18 -6l15 -25q2 -5 -4 -14l-301 -301q-7 -9 -18 -8.5t-17 12.5l-162 303q-6 9 4 16l21 19q8 6 22 -4z" />
    <glyph glyph-name="tcaron" unicode="&#x165;" horiz-adv-x="800" 
d="M674 1106l-131 -293h207q16 0 10 -18l-15 -54q-6 -18 -26 -18h-207l-168 -451q-2 -8 -8.5 -26.5t-10 -31t-7 -27t-3.5 -23.5q0 -16 12 -27.5t33 -11.5q26 0 94 42.5t81 57.5q8 10 18 0l22 -24q9 -9 7 -17q-14 -18 -47.5 -47.5t-87.5 -67t-128 -63.5t-147 -26
q-50 0 -78 23t-28 50q0 71 22 127l186 543h-159q-9 0 -12.5 6.5t-0.5 15.5l13 54q6 14 22 14h170l68 221q6 16 18.5 22t50.5 7q35 3 98 28.5t83 38.5q22 13 32 13t16 -13t1 -24zM766 907h-3.5h-4t-4 0.5t-4 1.5t-3.5 3t-3 5.5t-1 8.5q-2 19 21 26q48 12 99.5 57.5
t51.5 104.5q0 23 -6.5 39.5t-13.5 26t-27 30.5l-8 7q-8 7 -13.5 13.5t-13.5 16.5t-12 22t-4 25q0 36 22.5 62t59.5 26q60 0 98.5 -61.5t38.5 -120.5q0 -63 -25 -116t-60 -84.5t-75 -53.5t-68.5 -30.5t-41.5 -8.5z" />
    <glyph glyph-name="Umacron" unicode="&#x16a;" horiz-adv-x="1519" 
d="M737 1186l-168 -547q-1 -3 -10.5 -37t-16 -59.5t-15 -62.5t-13 -70.5t-4.5 -59.5q0 -67 20.5 -118t48 -77.5t64 -42.5t60.5 -20t45 -4q78 0 149.5 22t118.5 60q77 61 130.5 156.5t96.5 259.5l125 471q37 129 30 185t-59 56h-53q-13 0 -16.5 4.5t-1.5 12.5l6 43
q3 11 8 15.5t18 4.5q1 0 75.5 -3t144.5 -3q52 0 94 1.5t64 3t28 1.5q13 0 16.5 -5t1.5 -19l-6 -39q-3 -17 -22 -17h-23q-45 0 -81 -56t-72 -167l-156 -504q-36 -115 -72 -199t-92 -164t-125 -129.5t-168 -79.5t-223 -30q-131 0 -231.5 40t-161 126t-60.5 209q0 102 43 256
l175 571q18 69 3 98t-55 29h-73q-18 0 -15 17l10 47q2 9 7 12.5t20 3.5q5 0 39.5 -1.5t106 -3t167.5 -1.5q73 0 132 1.5t89.5 3t34.5 1.5q22 0 19 -24l-8 -39q-3 -17 -21 -17h-51q-81 0 -117 -112zM889 1581v90q0 12 20 12h451q20 0 20 -14v-88q0 -14 -18 -14h-457
q-16 0 -16 14z" />
    <glyph glyph-name="umacron" unicode="&#x16b;" horiz-adv-x="1067" 
d="M829 854h183q13 0 19 -7.5t1 -19.5l-143 -438q-74 -226 -74 -252q3 -24 27 -24q12 0 31 17t33.5 34.5t38.5 47.5q5 6 7 9q10 13 21 2l22 -16q7 -5 0 -23q-10 -20 -27 -42.5t-47.5 -52.5t-66 -53.5t-86.5 -39.5t-106 -16q-40 0 -63.5 18.5t-23.5 50.5q0 24 37 133t64 178
l-23 13q-24 -38 -38 -59t-48 -68t-60.5 -77t-67 -69.5t-76 -62.5t-80 -40t-86.5 -17q-38 0 -74 36t-33 64q0 42 16.5 100t34.5 104t72 177q82 201 82 252q0 15 -10 25t-25 10q-21 0 -62 -32t-77 -75q-11 -14 -23 -2l-20 20q-7 10 0 19q21 27 34 42.5t49 49t70 52.5t87 35.5
t110 16.5q49 0 78 -28t29 -68q0 -78 -111 -350q-86 -211 -86 -254q0 -16 11 -26.5t24 -10.5q25 0 127.5 118.5t144.5 188.5q48 82 88 199l66 197q5 14 30 14zM483 1059v92q0 12 21 12h409q21 0 21 -14v-90q0 -15 -19 -15h-415q-17 0 -17 15z" />
    <glyph glyph-name="Uring" unicode="&#x16e;" horiz-adv-x="1519" 
d="M737 1186l-168 -547q-1 -3 -10.5 -37t-16 -59.5t-15 -62.5t-13 -70.5t-4.5 -59.5q0 -67 20.5 -118t48 -77.5t64 -42.5t60.5 -20t45 -4q78 0 149.5 22t118.5 60q77 61 130.5 156.5t96.5 259.5l125 471q37 129 30 185t-59 56h-53q-13 0 -16.5 4.5t-1.5 12.5l6 43
q3 11 8 15.5t18 4.5q1 0 75.5 -3t144.5 -3q52 0 94 1.5t64 3t28 1.5q13 0 16.5 -5t1.5 -19l-6 -39q-3 -17 -22 -17h-23q-45 0 -81 -56t-72 -167l-156 -504q-36 -115 -72 -199t-92 -164t-125 -129.5t-168 -79.5t-223 -30q-131 0 -231.5 40t-161 126t-60.5 209q0 102 43 256
l175 571q18 69 3 98t-55 29h-73q-18 0 -15 17l10 47q2 9 7 12.5t20 3.5q5 0 39.5 -1.5t106 -3t167.5 -1.5q73 0 132 1.5t89.5 3t34.5 1.5q22 0 19 -24l-8 -39q-3 -17 -21 -17h-51q-81 0 -117 -112zM1087 1831q102 0 169 -44.5t67 -129.5q0 -81 -72 -130.5t-178 -49.5
q-102 0 -168.5 43t-66.5 120q0 88 74 139.5t175 51.5zM1077 1769q-34 0 -68 -31.5t-34 -84.5q0 -58 31.5 -86.5t74.5 -28.5q41 0 73 29t32 88q0 60 -34 87t-75 27z" />
    <glyph glyph-name="uring" unicode="&#x16f;" horiz-adv-x="1067" 
d="M829 854h183q13 0 19 -7.5t1 -19.5l-143 -438q-74 -226 -74 -252q3 -24 27 -24q12 0 31 17t33.5 34.5t38.5 47.5q5 6 7 9q10 13 21 2l22 -16q7 -5 0 -23q-10 -20 -27 -42.5t-47.5 -52.5t-66 -53.5t-86.5 -39.5t-106 -16q-40 0 -63.5 18.5t-23.5 50.5q0 24 37 133t64 178
l-23 13q-24 -38 -38 -59t-48 -68t-60.5 -77t-67 -69.5t-76 -62.5t-80 -40t-86.5 -17q-38 0 -74 36t-33 64q0 42 16.5 100t34.5 104t72 177q82 201 82 252q0 15 -10 25t-25 10q-21 0 -62 -32t-77 -75q-11 -14 -23 -2l-20 20q-7 10 0 19q21 27 34 42.5t49 49t70 52.5t87 35.5
t110 16.5q49 0 78 -28t29 -68q0 -78 -111 -350q-86 -211 -86 -254q0 -16 11 -26.5t24 -10.5q25 0 127.5 118.5t144.5 188.5q48 82 88 199l66 197q5 14 30 14zM713 995q-84 0 -149.5 41.5t-65.5 110.5q0 54 37.5 95t88.5 59t103 18q53 0 100 -15t83 -53.5t36 -95.5
q0 -73 -72.5 -116.5t-160.5 -43.5zM721 1055q38 0 63 26t25 76q0 53 -28 76.5t-64 23.5q-32 0 -57 -26.5t-25 -77.5q0 -46 26 -72t60 -26z" />
    <glyph glyph-name="Uhungarumlaut" unicode="&#x170;" horiz-adv-x="1519" 
d="M737 1186l-168 -547q-1 -3 -10.5 -37t-16 -59.5t-15 -62.5t-13 -70.5t-4.5 -59.5q0 -67 20.5 -118t48 -77.5t64 -42.5t60.5 -20t45 -4q78 0 149.5 22t118.5 60q77 61 130.5 156.5t96.5 259.5l125 471q37 129 30 185t-59 56h-53q-13 0 -16.5 4.5t-1.5 12.5l6 43
q3 11 8 15.5t18 4.5q1 0 75.5 -3t144.5 -3q52 0 94 1.5t64 3t28 1.5q13 0 16.5 -5t1.5 -19l-6 -39q-3 -17 -22 -17h-23q-45 0 -81 -56t-72 -167l-156 -504q-36 -115 -72 -199t-92 -164t-125 -129.5t-168 -79.5t-223 -30q-131 0 -231.5 40t-161 126t-60.5 209q0 102 43 256
l175 571q18 69 3 98t-55 29h-73q-18 0 -15 17l10 47q2 9 7 12.5t20 3.5q5 0 39.5 -1.5t106 -3t167.5 -1.5q73 0 132 1.5t89.5 3t34.5 1.5q22 0 19 -24l-8 -39q-3 -17 -21 -17h-51q-81 0 -117 -112zM1147 1493l-12 18q-6 9 6 21l241 227q31 27 62 27q36 0 60 -31t19.5 -68
t-40.5 -53l-318 -141q-11 -7 -18 0zM860 1493l-12 14q-7 10 4 21l213 254q35 39 76 39q21 0 42 -16.5t32.5 -39.5t3.5 -51t-41 -47l-297 -174q-14 -11 -21 0z" />
    <glyph glyph-name="uhungarumlaut" unicode="&#x171;" horiz-adv-x="1067" 
d="M829 854h183q13 0 19 -7.5t1 -19.5l-143 -438q-74 -226 -74 -252q3 -24 27 -24q12 0 31 17t33.5 34.5t38.5 47.5q5 6 7 9q10 13 21 2l22 -16q7 -5 0 -23q-10 -20 -27 -42.5t-47.5 -52.5t-66 -53.5t-86.5 -39.5t-106 -16q-40 0 -63.5 18.5t-23.5 50.5q0 24 37 133t64 178
l-23 13q-24 -38 -38 -59t-48 -68t-60.5 -77t-67 -69.5t-76 -62.5t-80 -40t-86.5 -17q-38 0 -74 36t-33 64q0 42 16.5 100t34.5 104t72 177q82 201 82 252q0 15 -10 25t-25 10q-21 0 -62 -32t-77 -75q-11 -14 -23 -2l-20 20q-7 10 0 19q21 27 34 42.5t49 49t70 52.5t87 35.5
t110 16.5q49 0 78 -28t29 -68q0 -78 -111 -350q-86 -211 -86 -254q0 -16 11 -26.5t24 -10.5q25 0 127.5 118.5t144.5 188.5q48 82 88 199l66 197q5 14 30 14zM788 973l-14 18q-7 7 8 19l201 211q14 14 24 22t26.5 14.5t35.5 6.5q30 0 52 -27t18.5 -62t-39.5 -53l-293 -149
q-11 -8 -19 0zM547 971l-19 16q-7 7 7 21l165 231q34 51 78 51q38 0 59.5 -25.5t16.5 -59.5t-37 -56l-252 -174q-11 -11 -18 -4z" />
    <glyph glyph-name="Uogonek" unicode="&#x172;" horiz-adv-x="1519" 
d="M1724 1354l-6 -39q-3 -17 -22 -17h-23q-45 0 -82 -56.5t-71 -166.5l-156 -504q-75 -244 -179 -379t-298 -206q-53 -19 -110.5 -132t-57.5 -180q0 -70 33.5 -97.5t95.5 -27.5q20 0 51 13.5t49 13.5q9 0 16 -12t7 -27q0 -25 -55 -51.5t-109 -26.5q-52 0 -93 5t-79.5 18
t-64 34.5t-41 55.5t-15.5 80q0 59 34.5 117t75.5 93.5t79.5 65.5t41.5 37q-15 -1 -37 1.5t-42 2.5q-195 2 -315 100.5t-120 274.5q0 102 43 256l175 571q18 69 3 98t-55 29h-73q-18 0 -15 17l10 47q2 9 7 12.5t20 3.5q5 0 39.5 -1.5t106 -3t167.5 -1.5q73 0 132 1.5t89.5 3
t34.5 1.5q22 0 19 -24l-8 -39q-3 -17 -21 -17h-51q-81 0 -117 -112l-168 -547q-59 -190 -59 -289q0 -67 20.5 -118t48 -77.5t64 -42.5t60.5 -20t45 -4q78 0 149.5 22t118.5 60q77 61 130.5 156.5t96.5 259.5l125 471q23 88 28 139.5t-8.5 76.5t-48.5 25h-53q-13 0 -16.5 4.5
t-1.5 12.5l6 43q3 11 8 15.5t18 4.5q1 0 75.5 -3t144.5 -3q52 0 94 1.5t64 3t28 1.5q13 0 16.5 -5t1.5 -19z" />
    <glyph glyph-name="uogonek" unicode="&#x173;" horiz-adv-x="1067" 
d="M1032 827l-143 -438q-74 -226 -74 -252q3 -24 27 -24q12 0 31 17t33.5 34.5t38.5 47.5q5 6 7 9q10 13 21 2l20 -16q9 -6 2 -23q-19 -36 -71.5 -82t-95.5 -74l-42 -28q-64 -57 -118 -140.5t-54 -158.5q0 -37 40.5 -66.5t76.5 -29.5q20 0 42 9t40 9q9 0 16 -11t7 -26
q0 -24 -50.5 -46.5t-95.5 -22.5q-280 0 -280 161q0 50 24 98.5t63 87t76.5 66.5t77.5 50q-35 3 -55.5 21.5t-20.5 47.5q0 24 37 133t64 178l-23 13q-24 -38 -38 -59t-48 -68t-60.5 -77t-67 -69.5t-76 -62.5t-80 -40t-86.5 -17q-38 0 -74 36t-33 64q0 42 16.5 100t34.5 104
t72 177q82 201 82 252q0 15 -10 25t-25 10q-21 0 -62 -32t-77 -75q-11 -14 -23 -2l-20 20q-7 10 0 19q21 27 34 42.5t49 49t70 52.5t87 35.5t110 16.5q49 0 78 -28t29 -68q0 -78 -111 -350q-86 -211 -86 -254q0 -16 11 -26.5t24 -10.5q25 0 127.5 118.5t144.5 188.5
q48 82 88 199l66 197q5 14 30 14h183q13 0 19 -7.5t1 -19.5z" />
    <glyph glyph-name="Ydieresis" unicode="&#x178;" horiz-adv-x="1187" 
d="M420 178l67 303q12 56 -2 105l-209 635q-26 77 -124 77h-48q-17 0 -14 17l8 47q1 10 5.5 13t15.5 3q7 0 36 -1.5t89.5 -3t144.5 -1.5q85 0 150.5 1.5t98.5 3t40 1.5q21 0 18 -16l-4 -47q-3 -17 -18 -17h-53q-71 0 -46 -94l142 -532q5 -18 13 -25.5t17.5 -2t18.5 23.5
q2 3 150 243t159 275q18 60 1 86t-62 26h-49q-19 0 -15 21l4 47q2 12 25 12q4 0 79 -3t142 -3q60 0 110 1.5t78.5 3t36.5 1.5q13 0 18 -4.5t3 -15.5l-6 -45q-3 -15 -17 -15h-39q-88 0 -145 -88q-5 -7 -209 -296t-221 -320q-31 -57 -57 -178l-52 -228q-9 -39 -9.5 -61.5
t10 -34.5t26 -15t47.5 -3h33q17 0 14 -17l-6 -47q-3 -16 -22 -16q-9 0 -41.5 1.5t-94.5 3t-141 1.5q-85 0 -148.5 -1.5t-94 -3t-35.5 -1.5q-10 0 -14 3.5t-3 12.5l8 47q0 17 19 17h39q111 0 133 104zM674 1532q-46 0 -82.5 25t-36.5 88q0 35 27 66.5t92 31.5
q45 0 75.5 -28.5t30.5 -78.5q0 -46 -30.5 -75t-75.5 -29zM1079 1532q-46 0 -82 25t-36 88q0 35 26.5 66.5t91.5 31.5q45 0 76 -28.5t31 -78.5q0 -46 -31 -75t-76 -29z" />
    <glyph glyph-name="Zacute" unicode="&#x179;" horiz-adv-x="1388" 
d="M741 0h-643q-12 0 -21 7.5t-9 17.5q0 19 16 38l1040 1231q-443 0 -579 -47q-59 -23 -116 -73.5t-91 -122.5q-10 -17 -27 -13l-35 15q-13 3 -8 14l92 315q8 31 21 31t31 -14q20 -15 120 -21t179 -6h731q14 0 22.5 -7t8.5 -17q0 -22 -15 -41l-1028 -1227q244 0 361 8.5
t227 42.5q54 18 121 72.5t118 138.5q10 15 21 10l33 -16q16 -6 8 -25l-111 -323q-6 -23 -22 -23q-18 0 -39 12q-38 23 -406 23zM797 1493l-13 20q-5 9 7 21l270 233q42 37 82 37q47 0 74 -38t15.5 -84t-61.5 -64l-358 -127q-12 -6 -16 2z" />
    <glyph glyph-name="zacute" unicode="&#x17a;" horiz-adv-x="995" 
d="M213 229l412 389l-9 13q-77 -12 -127 3.5t-94 61.5q-4 4 -20.5 21t-25 25t-22.5 20t-25.5 17t-22.5 5q-13 0 -24 -8.5t-11 -19.5q0 -23 20 -37q43 -31 41 -82q3 -33 -23.5 -60.5t-58.5 -27.5q-54 0 -86.5 31.5t-32.5 89.5q0 81 71.5 142.5t193.5 61.5q158 0 258 -65
q6 -4 17.5 -11.5t15.5 -10t12.5 -8t12 -7t10 -5t9.5 -4.5t8.5 -2.5t9.5 -2t9 -0.5q30 0 51 69q11 35 43 65t78 30q31 0 50.5 -18t19.5 -42q0 -52 -59 -113t-132 -104l-411 -383l4 -14q63 3 107 -9.5t62 -27t46 -45.5q13 -14 30.5 -33.5t27.5 -30t23 -24.5t21.5 -21.5
t18.5 -14.5t18 -10t16 -3q31 0 52.5 17.5t21.5 39.5q0 28 -22 61q-33 47 -33 101q0 35 29 58.5t69 23.5q105 0 105 -129q0 -38 -9.5 -73.5t-33 -70.5t-60 -60.5t-94.5 -41.5t-131 -16q-102 0 -157.5 20.5t-104.5 67.5q-7 7 -23 24t-25 25.5t-22 19.5t-23 16t-18 5
q-21 0 -40 -18t-29 -54q-23 -76 -109 -76q-31 0 -47 21.5t-16 48.5q0 63 61 118t127 72zM492 969l-15 20q-5 5 8 17l228 211q56 49 98 49q27 0 47.5 -20.5t26 -47.5t-9 -56t-50.5 -44l-317 -131q-12 -6 -16 2z" />
    <glyph glyph-name="Zdotaccent" unicode="&#x17b;" horiz-adv-x="1388" 
d="M741 0h-643q-12 0 -21 7.5t-9 17.5q0 19 16 38l1040 1231q-443 0 -579 -47q-59 -23 -116 -73.5t-91 -122.5q-10 -17 -27 -13l-35 15q-13 3 -8 14l92 315q8 31 21 31t31 -14q20 -15 120 -21t179 -6h731q14 0 22.5 -7t8.5 -17q0 -22 -15 -41l-1028 -1227q244 0 361 8.5
t227 42.5q54 18 121 72.5t118 138.5q10 15 21 10l33 -16q16 -6 8 -25l-111 -323q-6 -23 -22 -23q-18 0 -39 12q-38 23 -406 23zM950 1511q-51 0 -90 26t-39 89q0 44 30 81.5t99 37.5q48 0 82.5 -32.5t34.5 -88.5q0 -50 -34 -81.5t-83 -31.5z" />
    </font>
</defs>
</svg>
