<?xml version="1.0" standalone="no"?>
<!DOCTYPE svg PUBLIC "-//W3C//DTD SVG 1.1//EN" "http://www.w3.org/Graphics/SVG/1.1/DTD/svg11.dtd" >
<svg xmlns="http://www.w3.org/2000/svg" xmlns:xlink="http://www.w3.org/1999/xlink" version="1.1">
<metadata>
Created by FontForge 20201107 at Sat Jan  9 07:38:26 2016
 By 
Copyright (c) 2004-2009, Joshua Darden &#38; Phil's Fonts, Inc. All rights reserved. Published by Garagefonts USA 301-879-9222 www.garagefonts.com
</metadata>
<defs>
<font id="FreightTextProBook-Italic" horiz-adv-x="500" >
  <font-face 
    font-family="FreightTextProBook-Italic"
    font-weight="400"
    font-style="italic"
    font-stretch="normal"
    units-per-em="1000"
    panose-1="2 0 6 6 6 0 0 9 0 4"
    ascent="727"
    descent="-273"
    x-height="462"
    cap-height="625"
    bbox="-229 -267 1332 980"
    underline-thickness="20"
    underline-position="-173"
    slope="-12"
    unicode-range="U+0020-FB04"
  />
<missing-glyph 
 />
    <glyph glyph-name="ff" unicode="ff" horiz-adv-x="502" 
d="M651 627q0 -22 -12.5 -37.5t-32.5 -15.5q-24 0 -39 18t-17 48l-67 -16q-21 -37 -47 -176h122l4 -45h-134l-53 -288q-42 -228 -98 -288q-47 -47 -97 -47q-30 0 -51 17t-21 42q0 21 13 35t32 14q24 0 38.5 -18t17.5 -46l52 32q22 49 45 186l58 361h-181l-57 -315
q-42 -228 -98 -288q-43 -46 -106 -46q-30 0 -50.5 16.5t-20.5 41.5q0 22 12.5 36t32.5 14q23 0 37.5 -18t17.5 -46l59 31q17 39 44 186l67 385l-90 4l3 28l94 21q25 114 75 167q23 24 56.5 38.5t62.5 14.5q35 0 57 -18.5t22 -44.5q0 -50 -38 -50q-49 0 -56 65l-73 -18
q-18 -30 -43 -159h181q28 133 81 189q23 24 56.5 38.5t62.5 14.5q35 0 57 -18.5t22 -44.5z" />
    <glyph glyph-name="fi" unicode="fi" horiz-adv-x="484" 
d="M183 403l-57 -315q-40 -226 -98 -288q-43 -46 -106 -46q-30 0 -50.5 16.5t-20.5 41.5q0 22 12.5 36t32.5 14q23 0 37.5 -18t17.5 -46l59 31q17 39 44 186l67 385l-90 4l3 28l94 21q22 126 82 184q25 25 63.5 41t79.5 16q40 0 65.5 -20t25.5 -47q0 -22 -13 -37.5
t-33 -15.5q-23 0 -39 19t-21 49l-99 -18q-31 -56 -48 -176h138q22 14 38 14t42 -17.5t23 -28.5l-103 -373l23 -8l90 69l16 -18q-21 -35 -61.5 -68t-67.5 -33q-15 0 -39 18.5t-22 27.5l98 369l-7 3h-176z" />
    <glyph glyph-name="fl" unicode="fl" horiz-adv-x="495" 
d="M359 403h-176l-57 -315q-40 -226 -98 -288q-43 -46 -106 -46q-30 0 -50.5 16.5t-20.5 41.5q0 22 12.5 36t32.5 14q23 0 37.5 -18t17.5 -46l61 31q23 45 45 186l61 385l-87 4l3 28l94 21q22 126 82 184q25 25 63.5 41t79.5 16q31 0 56 -14l77 17l-145 -651l28 -9l86 67
l15 -18q-21 -35 -61.5 -68t-67.5 -33q-15 0 -39 18.5t-22 27.5zM400 597q-19 -5 -33.5 8t-19.5 39l-105 -17q-33 -57 -51 -179h177z" />
    <glyph glyph-name="ffi" unicode="ffi" horiz-adv-x="729" 
d="M455 637q25 25 63.5 41t79.5 16q40 0 65.5 -20t25.5 -47q0 -22 -13 -37.5t-33 -15.5q-23 0 -39 19t-21 49l-99 -18q-33 -60 -48 -176h138q22 14 38 14t42 -17.5t23 -28.5l-103 -373l23 -8l90 69l16 -18q-21 -35 -61.5 -68t-67.5 -33q-15 0 -39 18.5t-22 27.5l98 369l-7 3
h-176l-53 -288q-44 -231 -98 -288q-47 -47 -97 -47q-30 0 -51 17t-21 42q0 21 13 35t32 14q24 0 38.5 -18t17.5 -46l52 32q22 49 45 186l58 361h-181l-57 -315q-40 -226 -98 -288q-43 -46 -106 -46q-30 0 -50.5 16.5t-20.5 41.5q0 22 12.5 36t32.5 14q23 0 37.5 -18
t17.5 -46l59 31q17 39 44 186l67 385l-90 4l3 28l94 21q22 121 79 178q52 54 125 54q38 0 62.5 -19.5t24.5 -45.5q0 -21 -12.5 -36t-31.5 -15q-46 0 -58 65l-81 -18q-32 -71 -45 -168h181q22 129 83 189z" />
    <glyph glyph-name="ffl" unicode="ffl" horiz-adv-x="740" 
d="M419 620q0 -21 -12.5 -36t-31.5 -15q-46 0 -58 65l-81 -18q-32 -71 -45 -168h181q22 129 83 189q25 25 63.5 41t79.5 16q32 0 56 -14l77 17l-145 -651l28 -9l85 67l16 -18q-21 -35 -61.5 -68t-67.5 -33q-15 0 -39 18.5t-22 27.5l79 372h-176l-53 -288q-42 -228 -98 -288
q-47 -47 -97 -47q-30 0 -51 17t-21 42q0 21 13 35t32 14q24 0 38.5 -18t17.5 -46l52 32q22 49 45 186l58 361h-181l-57 -315q-40 -226 -98 -288q-43 -46 -106 -46q-30 0 -50.5 16.5t-20.5 41.5q0 22 12.5 36t32.5 14q23 0 37.5 -18t17.5 -46l59 31q17 39 44 186l67 385
l-90 4l3 28l94 21q22 121 79 178q52 54 125 54q38 0 62.5 -19.5t24.5 -45.5zM645 597q-19 -5 -34 7.5t-19 39.5l-105 -17q-36 -61 -51 -179h177z" />
    <glyph glyph-name=".notdef" 
 />
    <glyph glyph-name=".null" horiz-adv-x="0" 
 />
    <glyph glyph-name="nonmarkingreturn" horiz-adv-x="333" 
 />
    <glyph glyph-name="space" unicode=" " horiz-adv-x="228" 
 />
    <glyph glyph-name="exclam" unicode="!" horiz-adv-x="281" 
d="M236 600l-90 -403q-1 -6 -11 -5.5t-10 6.5l16 406q2 36 38 36h15q52 0 42 -40zM175 42q0 -23 -16 -40t-40 -17q-25 0 -42 17t-16 40q0 22 16.5 38.5t41.5 16.5q24 0 40 -16.5t16 -38.5z" />
    <glyph glyph-name="quotedbl" unicode="&#x22;" horiz-adv-x="355" 
d="M385 621l-156 -218h-34l115 244h1zM228 621l-156 -218h-33l114 244h1z" />
    <glyph glyph-name="numbersign" unicode="#" horiz-adv-x="561" 
d="M578 406h-140l-51 -190h131v-35h-140l-50 -187h-36l50 187h-175l-50 -187h-36l50 187h-129v35h138l51 190h-129v35h138l53 190h36l-52 -190h175l51 190h36l-51 -190h130v-35zM351 216l51 190h-174l-52 -190h175z" />
    <glyph glyph-name="dollar" unicode="$" horiz-adv-x="498" 
d="M180 -15l-41 -151h-36l41 153q-62 5 -124 25l10 177h39l25 -138q27 -14 62 -20l71 262q-72 40 -108.5 80.5t-36.5 103.5q0 73 64.5 117.5t147.5 44.5q18 0 26 -1l28 100h36q-27 -101 -28 -101q40 -5 69 -12l53 13l-26 -192h-41l-10 125q-20 11 -57 20l-64 -235
q39 -22 59.5 -36t46.5 -38t38 -51.5t12 -61.5q0 -84 -67.5 -134t-166.5 -50h-22zM258 274l-66 -247q8 -1 25 -1q64 0 103.5 30t39.5 84q1 42 -25 72t-77 62zM249 375q4 14 10 37t19.5 71.5t21.5 80.5l9 32q-18 2 -30 2q-48 0 -85 -24.5t-37 -68.5q-1 -41 22 -70.5t70 -59.5z
" />
    <glyph glyph-name="percent" unicode="%" horiz-adv-x="746" 
d="M395 500q0 -78 -53.5 -132.5t-130.5 -54.5q-66 0 -111 41t-45 108q0 76 53.5 130.5t128.5 54.5q67 0 112.5 -40t45.5 -107zM734 639l-632 -654h-57l632 654h57zM729 164q0 -77 -54 -132t-130 -55q-68 0 -111 40t-43 107q0 78 52.5 132.5t129.5 54.5q66 0 111 -40t45 -107
zM349 490q0 51 -32.5 84t-83.5 33q-56 0 -95 -43t-39 -100q0 -50 33.5 -81.5t82.5 -31.5q57 0 95.5 41t38.5 98zM685 158q0 49 -33.5 81t-82.5 32q-56 0 -95 -43t-39 -100q0 -50 32.5 -81.5t81.5 -31.5q56 0 96 42.5t40 100.5z" />
    <glyph glyph-name="ampersand" unicode="&#x26;" horiz-adv-x="618" 
d="M370 126h-1q-60 -71 -112 -106.5t-116 -35.5q-58 0 -96.5 43t-38.5 104q0 80 52.5 129.5t129.5 67.5v1q-69 74 -69 143q0 71 54.5 119t130.5 48q66 0 111 -36t45 -93q0 -121 -188 -172v-1l133 -145h1l123 115v2q-21 4 -33.5 19t-12.5 32q0 21 15.5 34t38.5 13
q25 0 41 -18t16 -41q0 -68 -111 -139l-58 -38l149 -162l-81 -24zM387 504q0 44 -24 72t-66 28q-47 0 -76 -32t-29 -79q0 -42 14.5 -70t46.5 -66q68 33 101 66.5t33 80.5zM351 146l-146 165q-126 -66 -126 -161q0 -46 25.5 -75.5t60.5 -29.5q68 0 186 101z" />
    <glyph glyph-name="quotesingle" unicode="'" horiz-adv-x="198" 
d="M228 621l-156 -218h-34l115 244h1z" />
    <glyph glyph-name="parenleft" unicode="(" horiz-adv-x="395" 
d="M358 -252q-43 21 -87 61t-85 97t-67 137t-26 166t26 166t67 137t85 97t87 61q24 -32 24 -34q-89 -47 -164 -163.5t-75 -263.5q0 -77 23 -149.5t59.5 -125.5t76.5 -91.5t80 -59.5z" />
    <glyph glyph-name="parenright" unicode=")" horiz-adv-x="395" 
d="M38 -252q-25 32 -25 34q89 47 164 163.5t75 263.5t-75 263.5t-164 163.5l25 34q43 -21 86.5 -61t84.5 -97t67 -137t26 -166t-26 -166t-67 -137t-84.5 -97t-86.5 -61z" />
    <glyph glyph-name="asterisk" unicode="*" horiz-adv-x="347" 
d="M375 463l-56 -27l-88 31l-10 -13l53 -74l-11 -62l-21 -5l-40 46l6 92l-15 4l-55 -73l-62 -13l-13 18l34 57l87 24l1 17l-85 26l-31 54l13 18l63 -12l49 -76l17 5l3 93l42 45l22 -7l5 -62l-61 -74l10 -13l90 30l54 -27z" />
    <glyph glyph-name="plus" unicode="+" horiz-adv-x="480" 
d="M448 210h-182v-186h-51v186h-183l3 49h180v185h51v-185h179z" />
    <glyph glyph-name="comma" unicode="," horiz-adv-x="226" 
d="M157 21q-3 -96 -163 -189l-21 18q98 59 102 130q1 15 -5.5 28.5t-16 22.5t-19 16t-16.5 11l-7 3q1 21 19.5 36t44.5 15q34 0 58.5 -26.5t23.5 -64.5z" />
    <glyph glyph-name="hyphen" unicode="-" horiz-adv-x="328" 
d="M287 209h-262l3 51h256z" />
    <glyph glyph-name="period" unicode="." horiz-adv-x="227" 
d="M153 47q0 -25 -17.5 -43.5t-43.5 -18.5q-27 0 -45 18.5t-17 43.5q0 25 17.5 42.5t44.5 17.5t44.5 -18t16.5 -42z" />
    <glyph glyph-name="slash" unicode="/" horiz-adv-x="279" 
d="M9 -211l214 874h45l-214 -874h-45z" />
    <glyph glyph-name="zero" unicode="0" horiz-adv-x="505" 
d="M459 270q0 -72 -27.5 -137t-81 -106.5t-119.5 -41.5q-84 0 -137.5 58t-53.5 157q0 112 64.5 197.5t164.5 85.5q84 0 137 -57.5t53 -155.5zM400 270q0 70 -38 115t-96 45q-55 0 -95 -39t-56 -89t-16 -102q0 -71 38 -117t97 -46q55 0 94.5 39.5t55.5 90.5t16 103z" />
    <glyph glyph-name="one" unicode="1" horiz-adv-x="366" 
d="M297 0h-269l4 34l79 10q18 1 20 18l48 355l-113 14l7 29l184 17l-56 -415q-2 -17 16 -18l78 -10z" />
    <glyph glyph-name="two" unicode="2" horiz-adv-x="448" 
d="M10 0l2 55q24 17 63.5 44.5t62 43.5t52.5 39t47 39.5t34 36t24.5 38t7.5 37.5q0 42 -29.5 66t-73.5 24q-70 0 -140 -62l-9 23q36 41 89.5 69t104.5 28q59 0 99.5 -32t40.5 -88q0 -31 -15.5 -62t-38 -56t-61.5 -54t-72.5 -50.5t-84.5 -52.5q-22 -13 -33 -20l-1 -5h29
q95 0 137 4t61 14.5t33 36.5l24 49h41l-48 -165h-346z" />
    <glyph glyph-name="three" unicode="3" horiz-adv-x="415" 
d="M360 30q0 -62 -42.5 -117t-105.5 -85t-125 -30q-16 0 -35 3.5t-39 10.5t-33 20.5t-13 31.5q0 20 15 34.5t35 14.5q27 0 47 -21.5t23 -49.5q15 -4 33 -4q63 0 110.5 49.5t47.5 114.5q0 53 -32.5 86t-88.5 33q-43 0 -81 -16l-9 24q6 4 33 19.5t40 24t38 25t39 30t30 31
t23 35.5t7 37q0 44 -27 68.5t-70 24.5q-65 0 -144 -61l-10 23q100 96 200 96q59 0 101 -33t42 -91q0 -99 -186 -193v-2q15 3 35 3q60 0 101 -38t41 -98z" />
    <glyph glyph-name="four" unicode="4" horiz-adv-x="467" 
d="M444 39h-106l-29 -223h-71l29 223h-279l1 36l379 411h29l-53 -403h113zM273 83l42 287h-4l-262 -287h224z" />
    <glyph glyph-name="five" unicode="5" horiz-adv-x="427" 
d="M411 470l-12 -75h-229l-53 -141q233 -89 229 -238q-4 -96 -80 -157t-179 -61q-43 0 -83 17t-39 50q1 21 16 35.5t35 14.5q28 0 47.5 -21.5t21.5 -50.5q13 -4 31 -4q63 0 109.5 40t48.5 99q1 38 -17.5 72.5t-53 61.5t-71.5 47.5t-81 37.5l106 273h254z" />
    <glyph glyph-name="six" unicode="6" horiz-adv-x="506" 
d="M460 223q0 -95 -70.5 -166.5t-156.5 -71.5q-83 0 -137.5 66t-54.5 168q0 106 71 203t183 157.5t235 73.5l13 -27q-155 -32 -266 -118t-161 -212l10 -1q35 49 84 78.5t95 29.5q66 0 110.5 -48.5t44.5 -131.5zM385 216q0 64 -33 105t-75 41q-88 0 -153 -106
q-10 -44 -10 -68q0 -69 33 -119.5t89 -50.5q60 0 104.5 58t44.5 140z" />
    <glyph glyph-name="seven" unicode="7" horiz-adv-x="447" 
d="M443 427l-381 -612h-51l366 580v5h-138q-78 0 -97 -4.5t-29 -24.5q-32 -56 -33 -60h-33l42 159h354v-43z" />
    <glyph glyph-name="eight" unicode="8" horiz-adv-x="487" 
d="M438 157q-3 -84 -63 -129t-151 -43q-76 2 -130.5 49t-51.5 119q4 113 155 163v2q-101 59 -97 150q2 75 58.5 121.5t138.5 44.5q69 -2 117 -46t45 -111q-4 -107 -135 -155v-2q118 -67 114 -163zM386 475q2 53 -25.5 91t-79.5 39q-49 1 -78.5 -29t-31.5 -78
q-3 -49 32.5 -87t97.5 -74q81 48 85 138zM368 128q1 29 -10.5 55t-37.5 48.5t-46 36.5t-54 34q-101 -60 -104 -149q-3 -60 31.5 -97.5t97.5 -38.5q54 -2 87 27.5t36 83.5z" />
    <glyph glyph-name="nine" unicode="9" horiz-adv-x="506" 
d="M44 244q0 95 70 166.5t156 71.5q83 0 138 -66t55 -168q0 -106 -71 -203t-183 -157.5t-236 -73.5l-12 27q155 32 265.5 117.5t161.5 212.5l-10 1q-35 -49 -84.5 -78.5t-94.5 -29.5q-66 0 -110.5 48.5t-44.5 131.5zM119 251q0 -64 32.5 -105t74.5 -41q88 0 153 106
q10 44 10 68q0 69 -32.5 119.5t-89.5 50.5q-59 0 -103.5 -58t-44.5 -140z" />
    <glyph glyph-name="colon" unicode=":" horiz-adv-x="226" 
d="M195 357q-1 -25 -18.5 -43t-43.5 -18q-27 0 -44.5 18t-17.5 43t18 42.5t44 17.5q27 0 44.5 -17.5t17.5 -42.5zM153 47q0 -25 -17.5 -43.5t-43.5 -18.5q-27 0 -45 18.5t-17 43.5q0 25 17.5 42.5t44.5 17.5t44.5 -18t16.5 -42z" />
    <glyph glyph-name="semicolon" unicode=";" horiz-adv-x="226" 
d="M194 357q0 -25 -17.5 -43t-43.5 -18q-27 0 -44.5 18t-17.5 43t17.5 42.5t44.5 17.5t44.5 -18t16.5 -42zM157 21q-3 -96 -163 -189l-21 18q98 59 102 130q1 15 -5.5 28.5t-16 22.5t-19 16t-16.5 11l-7 3q1 21 19.5 36t44.5 15q34 0 58.5 -26.5t23.5 -64.5z" />
    <glyph glyph-name="less" unicode="&#x3c;" horiz-adv-x="480" 
d="M429 35l-400 188v24l400 188l12 -45l-326 -152v-5l326 -153z" />
    <glyph glyph-name="equal" unicode="=" horiz-adv-x="480" 
d="M435 296h-390l-3 49h396zM438 122h-396l3 49h390z" />
    <glyph glyph-name="greater" unicode="&#x3e;" horiz-adv-x="480" 
d="M451 223l-400 -188l-12 45l326 153v5l-326 152l12 45l400 -188v-24z" />
    <glyph glyph-name="question" unicode="?" horiz-adv-x="355" 
d="M346 479q0 -61 -32 -89.5t-90 -47.5q-63 -22 -80 -38q-17 -18 -17 -44q0 -34 40 -79l-31 2q-55 55 -55 105q0 51 33.5 77t93.5 45q35 12 50 17.5t31 19.5t16 31q0 34 -46.5 60.5t-113.5 26.5q-23 0 -47 -4q-5 7 -5 22q0 25 19 40t54 15q75 0 127 -48.5t53 -110.5zM174 42
q0 -23 -15.5 -40t-40.5 -17t-41.5 17t-16.5 40q0 22 16.5 38.5t41.5 16.5t40.5 -16t15.5 -39z" />
    <glyph glyph-name="at" unicode="@" horiz-adv-x="834" 
d="M489 114l35 153h-13q-111 -215 -181 -215q-40 0 -70.5 31t-30.5 66q0 60 35.5 143t80.5 128q46 46 98 46q35 0 61.5 -22t38.5 -57h11l25 67h47l-57 -163l-22 -178q-3 -18 10.5 -29.5t43.5 -11.5q70 0 117 62.5t52 155.5q7 133 -86 221t-233 92q-141 3 -246 -98t-111 -242
q-7 -152 86.5 -252.5t234.5 -100.5q58 0 123 20l10 -33q-69 -23 -136 -23q-157 0 -261.5 110.5t-96.5 277.5q4 104 59 191.5t145.5 137t194.5 47.5q156 -4 260 -102t97 -246q-5 -110 -69 -181.5t-152 -71.5q-65 0 -86.5 25t-13.5 52zM523 351q-13 25 -41.5 48.5t-58.5 23.5
q-27 0 -43 -16q-28 -27 -55.5 -109t-27.5 -135q0 -32 17.5 -48.5t37.5 -16.5t65.5 64.5t91.5 148.5q14 26 14 40z" />
    <glyph glyph-name="A" unicode="A" horiz-adv-x="577" 
d="M564 0h-250l3 34l59 8q20 4 16 26l-26 158h-196l-48 -114q-24 -61 6 -68l54 -10l3 -34h-217l3 34l47 10q16 5 25 15t20 33l220 494v29l93 23l103 -569q2 -8 4 -12t7 -8t14 -5l57 -10zM359 267l-46 285h-5l-121 -285h172z" />
    <glyph glyph-name="B" unicode="B" horiz-adv-x="571" 
d="M528 176q0 -65 -47 -112q-65 -64 -208 -64h-260l3 34l62 10q17 3 20 18l67 501q2 14 -16 18l-58 10l-3 34h243q103 0 156 -39t53 -105q0 -59 -45 -101t-116 -58l3 -4q68 -13 107 -52t39 -90zM437 169q0 61 -46 97.5t-115 36.5h-63l-33 -253q3 0 37.5 -6.5t37.5 -6.5h37
q62 0 103.5 36.5t41.5 95.5zM454 465q0 60 -43 91.5t-115 31.5h-44l-34 -249h67q74 0 121.5 33t47.5 93z" />
    <glyph glyph-name="C" unicode="C" horiz-adv-x="613" 
d="M560 188l-48 -189l-46 10q-76 -24 -137 -24q-134 0 -206.5 73.5t-72.5 201.5q0 77 29 149.5t82 125.5q104 104 245 104q74 0 135 -19l71 16l-27 -203h-41l-10 133q-61 34 -131 34q-110 0 -187.5 -99.5t-77.5 -244.5q0 -117 67 -184q48 -48 129 -48q60 0 120 30l59 134h47
z" />
    <glyph glyph-name="D" unicode="D" horiz-adv-x="650" 
d="M623 350q0 -145 -98 -242q-50 -51 -127 -79.5t-168 -28.5h-217l3 34l62 10q17 3 20 18l67 501q2 14 -16 18l-58 10l-3 34h239q135 0 215.5 -75t80.5 -200zM533 353q0 109 -58.5 172t-167.5 63h-56l-71 -537l73 -14q123 5 201.5 88t78.5 228z" />
    <glyph glyph-name="E" unicode="E" horiz-adv-x="574" 
d="M529 177l-42 -177h-474l3 34l62 10q17 3 20 18l67 501q3 14 -15 18l-58 10l-3 34h480l-24 -181h-43l-9 101q-3 25 -19 32q-26 11 -188 11h-34l-34 -251h34q64 0 80 3t23 16l32 67h34l-49 -208h-33l4 64q1 9 -4.5 13t-27 6.5t-66.5 2.5h-32l-35 -264h23q110 0 155 3.5
t60.5 11t24.5 28.5l40 97h48z" />
    <glyph glyph-name="F" unicode="F" horiz-adv-x="551" 
d="M537 444h-44l-9 101q-2 17 -6 24t-27.5 12t-58.5 6t-115 1h-25l-35 -257h40q64 0 80.5 3t23.5 16l32 67h34l-49 -208h-33l4 64q1 9 -5 13t-27.5 6.5t-66.5 2.5h-38l-31 -233q-3 -14 15 -18l65 -10l3 -34h-251l3 34l62 10q17 3 20 18l67 501q3 14 -15 18l-58 10l-3 34h472
z" />
    <glyph glyph-name="G" unicode="G" horiz-adv-x="655" 
d="M626 275l-3 -33l-57 -10q-18 -4 -21 -19l-22 -152l56 -10l2 -27q-140 -39 -253 -39q-133 0 -205.5 74.5t-72.5 200.5q0 77 29 149.5t82 125.5q104 104 245 104q71 0 132 -19l71 16l-27 -203h-41l-10 133q-61 34 -128 34q-109 0 -187 -99t-78 -245q0 -116 67 -183
q47 -49 130 -49q57 0 107 22l23 167q3 17 -16 19l-65 10l-3 33h245z" />
    <glyph glyph-name="H" unicode="H" horiz-adv-x="717" 
d="M645 0h-244l3 34l62 10q17 3 20 18l32 238h-304l-32 -238q-1 -14 16 -18l58 -10l3 -34h-244l3 34l61 10q18 3 20 18l67 501q3 14 -15 18l-58 10l-3 34h244l-3 -34l-62 -10q-17 -3 -20 -18l-29 -222h303l30 222q1 9 -1.5 12.5t-13.5 5.5l-59 10l-3 34h245l-4 -34l-61 -10
q-17 -3 -20 -18l-67 -501q-3 -14 15 -18l58 -10z" />
    <glyph glyph-name="I" unicode="I" horiz-adv-x="350" 
d="M277 0h-259l3 34l69 10q17 3 20 18l67 501q3 15 -15 18l-66 10l-3 34h258l-3 -34l-69 -10q-17 -3 -20 -18l-66 -501q-3 -15 15 -18l66 -10z" />
    <glyph glyph-name="J" unicode="J" horiz-adv-x="390" 
d="M415 625l-3 -34l-68 -10q-18 -3 -20 -18l-43 -325q-17 -126 -70 -189.5t-134 -63.5q-44 0 -73 18t-28 47q1 20 14 32t34 12q58 -2 68 -76h1q42 8 65 51.5t38 158.5l45 335q2 15 -15 18l-75 10l-3 34h267z" />
    <glyph glyph-name="K" unicode="K" horiz-adv-x="632" 
d="M596 0h-215l3 34l40 9q13 3 3 19l-139 252l-84 -72l-23 -180q-3 -14 15 -18l59 -10l3 -34h-245l3 34l62 10q17 3 20 18l67 501q3 14 -15 18l-58 10l-3 34h244l-4 -34l-61 -10q-17 -3 -20 -18l-35 -265l225 204q6 5 14.5 13t13 12.5t10.5 10t9 9t6 8t4.5 7t1.5 5.5
q0 11 -20 18l-41 7l-3 34h237l-3 -33l-30 -4q-38 -6 -94 -52l-196 -175l168 -290q8 -12 15 -18.5t11.5 -8t15.5 -4.5l36 -7z" />
    <glyph glyph-name="L" unicode="L" horiz-adv-x="549" 
d="M512 199l-48 -199h-451l3 34l62 10q17 3 20 18l66 501q3 15 -15 18l-60 10l-3 34h255l-3 -34l-71 -10q-17 -2 -20 -18l-69 -526h20q100 0 141 3.5t56 11t23 28.5l47 119h47z" />
    <glyph glyph-name="M" unicode="M" horiz-adv-x="790" 
d="M750 0h-255l3 34l66 11q12 2 18.5 28t14.5 108l39 378h-5l-265 -539h-58l-91 546h-5l-63 -382l-12 -77q-4 -25 -4 -40t2 -18t8 -4l65 -11l3 -34h-222l3 34l68 11q9 1 14.5 7.5t13.5 37.5t18 94l63 381q3 14 -13 17l-68 9l-3 34h204l81 -498h5l242 498h192l-3 -34l-69 -10
q-18 -3 -20 -18l-38 -382q-6 -56 -6.5 -86.5t3 -39.5t11.5 -10l60 -11z" />
    <glyph glyph-name="N" unicode="N" horiz-adv-x="700" 
d="M731 625l-3 -34l-61 -8q-15 -3 -22 -11.5t-14 -37.5t-16 -93l-60 -449h-50l-288 550h-4l-46 -358q-7 -53 -9.5 -76.5t-1 -40t6.5 -20t17 -5.5l58 -8l3 -34h-233l3 34l61 8q22 4 30.5 27t21.5 115l44 330q4 32 -1 46t-22 18l-55 13l-3 34h177l261 -502h4l43 318
q15 115 9 130q-5 9 -21 12l-59 8l-3 34h233z" />
    <glyph glyph-name="O" unicode="O" horiz-adv-x="688" 
d="M662 346q0 -75 -26.5 -144t-75.5 -119q-93 -98 -227 -98q-125 0 -204 83.5t-79 208.5q0 143 86 248q96 114 243 114q124 0 203.5 -84t79.5 -209zM572 358q0 124 -64 188q-52 54 -138 54q-57 0 -103 -32.5t-72.5 -83.5t-40.5 -107t-14 -110q0 -124 65 -189q53 -53 137 -53
q57 0 103 32.5t72.5 83.5t40.5 107t14 110z" />
    <glyph glyph-name="P" unicode="P" horiz-adv-x="549" 
d="M547 453q0 -92 -74 -145.5t-178 -53.5q-41 0 -87 7l-27 -199q-3 -17 15 -18l79 -10l3 -34h-265l3 34l62 10q17 3 20 18l67 501q3 14 -15 18l-58 10l-3 34h232q102 0 164 -47t62 -125zM458 453q0 64 -41.5 100t-110.5 36q-48 0 -54 -1l-39 -289q43 -9 79 -9q74 0 120 43.5
t46 119.5z" />
    <glyph glyph-name="Q" unicode="Q" horiz-adv-x="690" 
d="M629 -181q-47 -11 -111 -11q-107 0 -163.5 38.5t-108.5 150.5q-90 26 -143 101t-53 179q0 143 86 248q96 114 243 114q124 0 203.5 -84t79.5 -209q0 -75 -26.5 -144t-75.5 -119q-84 -90 -209 -98q39 -80 103.5 -110t173.5 -24zM572 358q0 124 -64 188q-52 54 -138 54
q-57 0 -103 -32.5t-72.5 -83.5t-40.5 -107t-14 -110q0 -124 65 -189q53 -53 137 -53q57 0 103 32.5t72.5 83.5t40.5 107t14 110z" />
    <glyph glyph-name="R" unicode="R" horiz-adv-x="592" 
d="M562 0h-138l-33 69l-101 206l-80 3l-29 -216q-3 -15 15 -18l65 -10l3 -34h-250l3 34l61 10q17 3 20 18l66 501q3 14 -15 18l-59 10l-3 34h258q98 0 151 -41.5t53 -106.5q0 -72 -48 -121.5t-131 -71.5l109 -201q9 -18 17.5 -27.5t12 -11t12.5 -3.5l38 -7zM457 461
q0 60 -40.5 94t-113.5 33l-53 -1l-34 -266l86 -13q71 9 113 48.5t42 104.5z" />
    <glyph glyph-name="S" unicode="S" horiz-adv-x="494" 
d="M436 169q0 -84 -67.5 -134t-166.5 -50q-98 0 -182 27l10 177h39l25 -138q48 -25 123 -25q64 0 103.5 30t39.5 84q0 26 -9 47.5t-30.5 40.5t-40.5 31.5t-54 33.5q-50 30 -76.5 50t-47 55t-20.5 79q0 73 64.5 117.5t147.5 44.5q67 0 131 -14l53 13l-26 -192h-41l-10 125
q-52 27 -122 27q-48 0 -85 -24.5t-37 -68.5q-1 -50 31.5 -82.5t103.5 -73.5q34 -20 55 -34.5t44 -36.5t34 -49t11 -60z" />
    <glyph glyph-name="T" unicode="T" horiz-adv-x="614" 
d="M602 433h-41l-9 105q-2 21 -10 30t-40 14.5t-102 5.5h-7l-69 -526q-3 -15 15 -18l74 -10l3 -34h-277l4 34l78 10q16 1 20 18l69 526h-7q-100 0 -126 -7t-39 -36l-41 -112h-47l42 192h535z" />
    <glyph glyph-name="U" unicode="U" horiz-adv-x="712" 
d="M733 625l-3 -34l-61 -8q-15 -3 -22 -11.5t-14 -37t-16 -93.5l-33 -242q-15 -106 -83 -160t-171 -54q-100 0 -161.5 48.5t-61.5 140.5q0 19 5 66l45 323q2 14 -16 18l-58 10l-3 34h245l-3 -34l-62 -10q-18 -3 -20 -18l-43 -318q-5 -35 -5 -55q0 -78 44.5 -116.5
t122.5 -38.5q159 0 184 173l31 233q7 52 10 76.5t1 40.5t-6.5 19.5t-16.5 5.5l-59 8l-3 34h233z" />
    <glyph glyph-name="V" unicode="V" horiz-adv-x="581" 
d="M643 625l-3 -34l-48 -10q-17 -5 -26 -15t-19 -33l-246 -534h-75l-107 557q-3 22 -25 25l-57 10l-3 34h250l-3 -34l-60 -8q-21 -4 -15 -26l83 -477h4l204 464q13 30 -16 37l-53 10l-3 34h218z" />
    <glyph glyph-name="W" unicode="W" horiz-adv-x="858" 
d="M923 625l-3 -34l-48 -10q-32 -11 -47 -48l-217 -534h-80l-63 414h-4l-181 -414h-80l-86 557q-3 22 -25 25l-57 10l-3 34h250l-3 -34l-60 -8q-19 -4 -15 -26l64 -480l4 -1l178 416l-10 64q-3 21 -26 25l-57 10l-3 34h248l-3 -34l-60 -8q-20 -4 -16 -26l71 -479l3 -1
l184 467q5 10 1 21.5t-18 15.5l-53 10l-3 34h218z" />
    <glyph glyph-name="X" unicode="X" horiz-adv-x="622" 
d="M594 0h-246l4 34l50 6q19 2 20 15.5t-14 40.5l-98 186h-3l-162 -201q-24 -30 14 -38l48 -9l3 -34h-229l3 34l39 7q42 9 75 51l188 224l-122 217q-13 24 -22 33.5t-25 14.5l-46 10l-2 34h245l-4 -34l-51 -6q-34 -4 -5 -56l84 -163h5l142 178q25 31 -14 39l-48 8l-3 34h229
l-3 -34l-39 -7q-40 -9 -75 -51l-168 -201l135 -240q13 -24 22 -33.5t24 -14.5l46 -10z" />
    <glyph glyph-name="Y" unicode="Y" horiz-adv-x="591" 
d="M648 625l-3 -34l-40 -7q-23 -5 -38.5 -15.5t-32.5 -35.5l-186 -265l-27 -206q-3 -15 15 -18l74 -10l3 -34h-277l3 34l79 10q16 1 20 18l26 205l-131 266q-11 23 -21 33t-27 15l-45 10l-3 34h244l-4 -34l-50 -6q-12 -1 -16.5 -8t-1.5 -19t12 -31l102 -220h4l162 237
q19 32 -14 39l-52 8l-3 34h228z" />
    <glyph glyph-name="Z" unicode="Z" horiz-adv-x="545" 
d="M514 187l-46 -187h-469l4 34l466 550v4h-109q-89 0 -130 -5.5t-54 -15.5t-25 -36l-32 -91h-41l24 185h470l-5 -35l-464 -550l-1 -4l100 1q98 1 142.5 6t59 13.5t25.5 31.5l38 99h47z" />
    <glyph glyph-name="bracketleft" unicode="[" horiz-adv-x="368" 
d="M347 -220h-252v871h252v-42h-203v-787h203v-42z" />
    <glyph glyph-name="backslash" unicode="\" horiz-adv-x="279" 
d="M269 -211h-45l-214 874h45z" />
    <glyph glyph-name="bracketright" unicode="]" horiz-adv-x="368" 
d="M21 -220v42h203v787h-203v42h252v-871h-252z" />
    <glyph glyph-name="asciicircum" unicode="^" horiz-adv-x="400" 
d="M352 508h-21l-89 132h-2l-126 -132h-22l110 184h89z" />
    <glyph glyph-name="underscore" unicode="_" horiz-adv-x="470" 
d="M448 -52h-486l3 51h480z" />
    <glyph glyph-name="grave" unicode="`" horiz-adv-x="400" 
d="M279 508h-22l-141 184h94z" />
    <glyph glyph-name="a" unicode="a" horiz-adv-x="472" 
d="M339 387h7l20 75h62l-49 -178l-53 -238l30 -9l79 67l17 -18q-19 -35 -57.5 -68t-65.5 -33q-18 0 -45 11t-27 21q0 17 57 196h-9q-60 -110 -105 -169t-87 -59q-41 0 -66 35.5t-25 93.5q0 76 32 157t79 128q64 64 124 64q52 0 82 -76zM332 334q-21 31 -53.5 57t-62.5 26
q-20 0 -40 -20q-28 -28 -56.5 -115t-28.5 -150q0 -88 49 -88q26 0 63 50t115 182z" />
    <glyph glyph-name="b" unicode="b" horiz-adv-x="447" 
d="M417 322q0 -77 -27.5 -152t-72.5 -120q-67 -67 -142 -67q-39 0 -87.5 27t-45.5 40l109 540q3 17 -7 20l-69 22l3 25l163 40l-55 -233l-59 -237h9q58 110 105 173t88 63q39 0 63.5 -41.5t24.5 -99.5zM347 304q0 42 -12.5 70t-35.5 29q-24 0 -62.5 -53.5t-114.5 -187.5
l-19 -82q25 -25 58 -43t57 -18q23 0 45 24q32 32 58 113t26 148z" />
    <glyph glyph-name="c" unicode="c" horiz-adv-x="373" 
d="M297 396q-5 8 -32 17.5t-49 9.5q-10 0 -30 -20q-29 -29 -57.5 -106t-28.5 -145q0 -54 26 -84t64 -30q36 0 120 64l14 -18q-85 -99 -161 -99q-57 0 -95 44.5t-38 110.5q0 120 72 221t165 101q44 0 76 -22t32 -55q0 -22 -13 -37.5t-33 -15.5q-39 0 -39 37q0 17 7 27z" />
    <glyph glyph-name="d" unicode="d" horiz-adv-x="472" 
d="M452 86q-19 -35 -57.5 -68t-65.5 -33q-18 0 -45 11t-27 21q0 17 57 196h-9q-60 -110 -105 -169t-87 -59q-41 0 -66 35.5t-25 93.5q0 76 32 157t79 128q64 64 124 64q52 0 82 -76h7l40 203q3 17 -7 20l-69 22l4 25l162 40l-99 -421l-51 -230l30 -9l79 67zM332 334
q-21 31 -53.5 57t-62.5 26q-20 0 -40 -20q-28 -28 -56.5 -115t-28.5 -150q0 -88 49 -88q26 0 63 50t115 182z" />
    <glyph glyph-name="e" unicode="e" horiz-adv-x="367" 
d="M101 174q-1 -7 -1 -22q0 -54 26 -84t64 -30q36 0 120 64l14 -18q-85 -99 -161 -99q-57 0 -95 44.5t-38 110.5q0 121 71.5 221.5t160.5 100.5q47 0 76 -26t29 -63q0 -43 -43 -74t-190 -108q-22 -11 -33 -17zM102 204l2 -1q119 64 158 97.5t39 71.5q0 18 -26.5 32.5
t-47.5 14.5q-27 0 -46 -19q-21 -22 -43.5 -75.5t-35.5 -120.5z" />
    <glyph glyph-name="f" unicode="f" horiz-adv-x="270" 
d="M419 623q0 -21 -12.5 -36t-31.5 -15q-46 0 -58 65l-81 -18q-30 -66 -45 -171h119l4 -45h-131l-57 -315q-40 -226 -98 -288q-43 -46 -106 -46q-30 0 -50.5 16.5t-20.5 41.5q0 22 12.5 36t32.5 14q23 0 37.5 -18t17.5 -46l59 31q17 39 44 186l67 385l-90 4l3 28l95 21
q24 126 79 181q52 54 124 54q38 0 62.5 -19.5t24.5 -45.5z" />
    <glyph glyph-name="g" unicode="g" horiz-adv-x="426" 
d="M446 378l-117 23v-8q43 -49 43 -98q0 -65 -53.5 -113.5t-113.5 -48.5q-32 0 -66 13q-23 -6 -37 -21.5t-14 -30.5q0 -20 17.5 -32t67.5 -30l46 -16q72 -24 110 -52t38 -74q0 -55 -67 -96t-178 -41q-75 0 -128 33t-53 90q0 41 40.5 73t91.5 50v5q-48 26 -48 67q0 56 90 86
v5q-61 44 -61 121q0 76 58 127.5t137 51.5q46 0 115 -18h101zM312 340q0 31 -30.5 57t-61.5 26q-26 0 -48 -20q-24 -24 -38.5 -62t-13.5 -76q1 -59 28 -86q17 -17 37 -17q41 0 77 36q50 50 50 142zM308 -129q0 26 -26 43.5t-78 36.5q-11 4 -48.5 16.5t-56.5 20.5
q-96 -46 -96 -101q0 -41 46.5 -68.5t116.5 -27.5q58 0 100 23t42 57z" />
    <glyph glyph-name="h" unicode="h" horiz-adv-x="491" 
d="M450 86q-19 -35 -57.5 -68t-65.5 -33q-18 0 -43.5 11t-25.5 21q0 19 52 192q40 128 40 148q0 17 -15 30.5t-33 13.5q-42 0 -184 -283l-22 -123l-74 5l35 147l91 443q3 17 -7 20l-69 22l3 25l163 40l-56 -234l-67 -288h9q91 193 148 253q33 34 69 34q28 0 51.5 -20.5
t23.5 -49.5q0 -39 -42 -181l-49 -165l29 -9l80 67z" />
    <glyph glyph-name="i" unicode="i" horiz-adv-x="255" 
d="M269 616q0 -27 -15 -46t-35 -19q-23 0 -36.5 14.5t-13.5 36.5q0 27 15.5 46t35.5 19q23 0 36 -14.5t13 -36.5zM234 86q-20 -35 -58.5 -68t-65.5 -33q-17 0 -43.5 11.5t-24.5 20.5l102 385l-30 5l-77 -80l-17 18q19 40 56.5 78.5t63.5 38.5q11 0 29 -4.5t32 -12.5t12 -15
l-106 -384l30 -9l80 67z" />
    <glyph glyph-name="j" unicode="j" horiz-adv-x="244" 
d="M265 616q0 -27 -15 -46t-35 -19q-23 0 -36 14t-13 37q0 27 15 46t35 19q23 0 36 -14.5t13 -36.5zM211 430l-85 -367q-26 -113 -51.5 -182.5t-60.5 -104.5q-38 -38 -82 -38q-26 0 -45.5 15t-19.5 39q-1 20 13.5 33.5t34.5 13.5q40 0 58 -49l20 4q29 53 67 234l82 374
l-30 5l-77 -80l-17 18q19 40 56.5 78.5t63.5 38.5q11 0 29 -4.5t32 -12.5t12 -15z" />
    <glyph glyph-name="k" unicode="k" horiz-adv-x="432" 
d="M288 -15q-10 0 -29 10.5t-21 17.5l-69 222l-39 -18l-37 -222l-73 5l37 147l91 443q3 17 -7 20l-69 22l3 25l163 40l-56 -234l-52 -216h6l198 108l8 14q-40 9 -40 46q0 20 16.5 35t37.5 15q23 0 39 -17t16 -37q0 -39 -23.5 -63.5t-79.5 -50.5l-85 -39l73 -214h22l71 71
l17 -18q-19 -39 -55 -75.5t-63 -36.5z" />
    <glyph glyph-name="l" unicode="l" horiz-adv-x="245" 
d="M219 86q-19 -35 -57.5 -68t-65.5 -33q-10 0 -27 5.5t-30 13t-12 13.5l122 573q3 17 -7 20l-69 22l4 25l160 40l-145 -651l30 -9l80 67z" />
    <glyph glyph-name="m" unicode="m" horiz-adv-x="744" 
d="M716 86q-19 -35 -57.5 -68t-65.5 -33q-18 0 -43.5 11t-25.5 21q0 19 52 192q40 128 40 148q0 17 -15 30.5t-33 13.5q-44 0 -184 -283l-28 -123l-74 5l59 209q4 16 12.5 43.5t13.5 44.5t9 34.5t4 25.5q0 17 -15 30.5t-33 13.5q-42 0 -182 -283l-23 -123l-73 5l34 147
l54 255l-30 5l-78 -80l-17 18q19 40 56.5 78.5t63.5 38.5q18 0 45 -11t27 -21q0 -9 -63 -255h10q93 197 146 253q33 34 69 34q27 0 46 -20.5t19 -52.5q0 -30 -55 -214h9q91 193 148 253q33 34 69 34q29 0 52 -20.5t23 -49.5q0 -42 -43 -181q-15 -53 -49 -165l30 -9l79 67z
" />
    <glyph glyph-name="n" unicode="n" horiz-adv-x="509" 
d="M482 86q-19 -35 -58 -68t-66 -33q-17 0 -42.5 11t-25.5 21q0 19 52 192q39 132 39 148q0 17 -15 30.5t-33 13.5q-43 0 -183 -283l-23 -123l-73 5l34 147l53 251l-29 6l-79 -77l-16 18q19 40 56.5 78.5t63.5 38.5q17 0 44.5 -11t27.5 -21q0 -9 -63 -255h10q94 197 147 253
q33 34 69 34q29 0 52 -20.5t23 -49.5q0 -45 -42 -181q-44 -147 -50 -165l30 -9l80 67z" />
    <glyph glyph-name="o" unicode="o" horiz-adv-x="437" 
d="M402 270q0 -103 -65 -194t-156 -91q-73 0 -110.5 54t-37.5 138q0 66 28 131t80 109.5t113 44.5q73 0 110.5 -54t37.5 -138zM333 298q0 55 -20.5 94t-61.5 39q-46 0 -82.5 -56t-53.5 -118q-14 -53 -14 -102q0 -56 20.5 -97.5t61.5 -41.5q34 0 64 33t46.5 70.5t26.5 75.5
q13 55 13 103z" />
    <glyph glyph-name="p" unicode="p" horiz-adv-x="475" 
d="M120 21h-2l-40 -205q-3 -17 14 -18l74 -10l3 -34h-245l2 34l63 10q18 1 21 18l132 584l-31 7l-77 -80l-17 18q19 40 56.5 78.5t63.5 38.5q18 0 46 -11t28 -21q0 -14 -57 -203h9q58 110 105 173t88 63q39 0 63.5 -41.5t24.5 -99.5q0 -74 -30.5 -151t-76.5 -124
q-63 -63 -132 -63q-48 0 -85 37zM131 87q64 -68 106 -68q21 0 45 24q33 33 62.5 114.5t29.5 146.5q0 42 -12.5 70t-35.5 29q-24 0 -62.5 -53.5t-114.5 -187.5z" />
    <glyph glyph-name="q" unicode="q" horiz-adv-x="440" 
d="M305 213q-60 -110 -105 -169t-87 -59q-41 0 -66 35.5t-25 93.5q0 76 32 157t79 128q64 64 124 64q52 0 82 -76h7l19 72l62 -2l-48 -173l-101 -468q-3 -15 14 -18l65 -10l2 -34h-240l2 34l66 10q17 1 21 18l55 226q40 137 51 171h-9zM332 334q-21 31 -53.5 57t-62.5 26
q-20 0 -40 -20q-28 -28 -56.5 -115t-28.5 -150q0 -88 49 -88q26 0 63 50t115 182z" />
    <glyph glyph-name="r" unicode="r" horiz-adv-x="393" 
d="M332 401l-17 6q-20 -18 -78 -122t-87 -167l-23 -123l-73 5l34 147l53 255l-30 5l-77 -80l-17 18q19 40 56.5 78.5t63.5 38.5q18 0 45 -11t27 -21q0 -27 -64 -255h13q20 54 56.5 129t58.5 102q27 34 43 45t41 11q26 0 43 -17.5t17 -42.5t-13.5 -41t-33.5 -16
q-22 0 -33.5 15t-4.5 41z" />
    <glyph glyph-name="s" unicode="s" horiz-adv-x="340" 
d="M334 391q0 -21 -13 -34.5t-33 -13.5q-16 0 -26 11.5t-10 27.5q0 11 5 23q-47 20 -84 21q-20 -6 -36 -27t-17 -42q-1 -18 11 -38.5t23 -31.5t42 -41q26 -25 40 -40.5t31 -44.5t15 -53q-4 -54 -53 -88.5t-105 -34.5q-128 0 -128 73q0 20 13 33.5t34 13.5q16 0 26 -11.5
t10 -27.5q0 -10 -6 -22q45 -20 94 -23q20 8 37 30t18 43q1 17 -11.5 37.5t-26 34t-39.5 37.5q-89 84 -86 138q4 56 52.5 88.5t103.5 32.5q119 0 119 -71z" />
    <glyph glyph-name="t" unicode="t" horiz-adv-x="295" 
d="M132 461l24 124h64l-27 -137h123l3 -45h-135l-75 -357l30 -9l80 67l17 -18q-20 -35 -58.5 -68t-65.5 -33q-18 0 -44 9.5t-24 18.5l78 387l-83 4l3 29l15 5q9 3 29 9t33 10z" />
    <glyph glyph-name="u" unicode="u" horiz-adv-x="509" 
d="M29 345q20 40 57.5 78.5t63.5 38.5q17 0 43.5 -11t26.5 -21q0 -19 -52 -192q-40 -128 -40 -147q0 -17 15 -31t33 -14q42 0 184 283l24 123l73 -5l-35 -147q-47 -231 -54 -254l30 -9l79 67l17 -18q-19 -35 -57.5 -68t-65.5 -33q-18 0 -44 11t-26 21q0 13 62 255h-9
q-93 -194 -148 -253q-33 -34 -72 -34q-28 0 -50 20.5t-22 49.5q0 39 42 181l49 166l-30 5l-77 -80z" />
    <glyph glyph-name="v" unicode="v" horiz-adv-x="427" 
d="M309 172l-116 -172l-72 -15v414l-29 6l-77 -80l-17 18q20 40 56.5 79.5t62.5 39.5q18 0 45 -12t27 -23l-5 -379h7l120 193q46 71 46 111q-1 20 -16.5 33.5t-42.5 18.5q12 59 63 59q27 0 46 -18t18 -52q1 -34 -26 -82.5t-90 -138.5z" />
    <glyph glyph-name="w" unicode="w" horiz-adv-x="664" 
d="M357 306h-3l-158 -306l-72 -15l-3 414l-29 6l-77 -80l-17 18q20 40 56.5 79.5t62.5 39.5q18 0 45 -12t27 -23l-1 -379h5l161 328l-2 83l30 -6l36 -7l12 -398h6l106 193q44 77 43 110q0 41 -58 53q12 59 63 59q27 0 45.5 -18t18.5 -51q0 -18 -5.5 -37.5t-24.5 -52.5
t-32.5 -55t-49.5 -77l-108 -172l-72 -15z" />
    <glyph glyph-name="x" unicode="x" horiz-adv-x="469" 
d="M482 406q-1 -25 -14.5 -41.5t-33.5 -16.5q-22 0 -32.5 14t-7.5 39l-29 3l-99 -170l71 -193h23l57 73l15 -18q-61 -111 -102 -111q-10 0 -31.5 10.5t-23.5 17.5l-52 177h-4q-66 -133 -94 -169t-61 -36q-32 0 -53.5 16t-20.5 40q0 25 13 41.5t33 16.5q22 0 33 -14.5
t9 -40.5l28 -3l104 179l-70 186h-23l-57 -72l-15 18q60 111 101 111q10 0 32 -10.5t24 -17.5l51 -175h2q58 123 88.5 162.5t63.5 39.5q32 0 53.5 -16t21.5 -40z" />
    <glyph glyph-name="y" unicode="y" horiz-adv-x="429" 
d="M430 400q0 -50 -90 -178l-116 -173l-59 -105q-56 -107 -100.5 -153.5t-97.5 -46.5q-31 0 -54.5 18t-23.5 46q0 21 15 35.5t33 14.5q23 0 40.5 -18t15.5 -43l27 -2l137 197l-39 11l3 396l-29 6l-77 -80l-17 18q20 40 56.5 79.5t62.5 39.5q18 0 45 -12t27 -23l-8 -379h10
l173 289l3 16q-50 18 -50 55q0 23 14.5 39.5t36.5 16.5q28 0 45 -17.5t17 -46.5z" />
    <glyph glyph-name="z" unicode="z" horiz-adv-x="395" 
d="M304 337q-29 11 -94.5 48.5t-75.5 41.5l-19 -19q19 -25 19 -43q0 -17 -11 -28t-29 -11q-21 0 -32.5 11.5t-11.5 28.5q0 35 33.5 64.5t87.5 31.5q30 0 54 -9t41.5 -28.5t24 -29t18.5 -31.5q2 -3 3 -5l9 1l28 102q26 -1 42 -14t16 -31q0 -41 -67 -85l-242 -213
q34 -14 101 -57t78 -47l21 21q-25 26 -25 47q0 15 12 26t32 11q19 0 29.5 -11t10.5 -29q0 -35 -30 -64.5t-81 -34.5q-57 0 -97 34.5t-59 80.5l-9 -1l-29 -110q-26 1 -42.5 15t-16.5 32q0 44 64 86z" />
    <glyph glyph-name="braceleft" unicode="{" horiz-adv-x="333" 
d="M301 -233q-91 4 -140.5 43.5t-49.5 106.5q0 44 29.5 102.5t29.5 90.5q0 72 -131 78l-11 28l11 27q131 4 131 78q0 32 -29.5 90.5t-29.5 103.5q0 67 49 105.5t141 44.5v-33q-57 -5 -90 -31.5t-33 -62.5q0 -32 29.5 -91t29.5 -104q0 -47 -42 -83.5t-86 -38.5v-12
q44 -3 86 -39t42 -83q0 -44 -29.5 -102t-29.5 -90q0 -36 33 -64t90 -33v-31z" />
    <glyph glyph-name="bar" unicode="|" horiz-adv-x="278" 
d="M117 -186v874h44v-874h-44z" />
    <glyph glyph-name="braceright" unicode="}" horiz-adv-x="333" 
d="M298 216l-11 -28q-131 -6 -131 -78q0 -32 29.5 -90.5t29.5 -102.5q0 -67 -49.5 -106.5t-140.5 -43.5v31q57 5 90 33t33 64q0 32 -29.5 90t-29.5 102q0 47 42 83t86 39v12q-44 2 -86 38.5t-42 83.5q0 45 29.5 104t29.5 91q0 36 -33 62.5t-90 31.5v33q92 -6 141 -44.5
t49 -105.5q0 -45 -29.5 -103.5t-29.5 -90.5q0 -74 131 -78z" />
    <glyph glyph-name="asciitilde" unicode="~" horiz-adv-x="378" 
d="M267 217q16 0 29.5 13.5t32.5 52.5h27q-18 -58 -44 -84.5t-66 -26.5q-21 0 -42.5 11.5t-36 25t-31 25t-28.5 11.5q-17 0 -30 -13.5t-33 -52.5h-26q17 58 43.5 84.5t65.5 26.5q34 0 79 -36.5t60 -36.5z" />
    <glyph glyph-name="nbspace" unicode="&#xa0;" horiz-adv-x="228" 
 />
    <glyph glyph-name="exclamdown" unicode="&#xa1;" horiz-adv-x="281" 
d="M134 582q0 23 16 40t41 17q24 0 40.5 -16.5t16.5 -40.5q1 -22 -16 -38.5t-41 -16.5q-25 0 -41 16.5t-16 38.5zM74 24l90 403q1 6 10.5 6t9.5 -6l-16 -407q-2 -35 -37 -35h-15q-28 0 -37.5 10.5t-4.5 28.5z" />
    <glyph glyph-name="cent" unicode="&#xa2;" horiz-adv-x="369" 
d="M168 -14l-40 -152h-35l41 153q-46 9 -75 51.5t-29 101.5q0 121 67.5 220.5t160.5 101.5h3l48 174h35l-49 -178q35 -8 56.5 -29t21.5 -48q0 -22 -14 -37t-34 -15t-33 13.5t-16 30.5l-92 -335q30 -3 124 64l16 -18q-82 -94 -156 -98zM152 43l100 367q-15 9 -42 9
q-11 0 -27 -16q-29 -29 -56 -107.5t-27 -143.5q0 -87 52 -109z" />
    <glyph glyph-name="sterling" unicode="&#xa3;" horiz-adv-x="462" 
d="M140 298q6 87 9 117q13 98 70.5 156t143.5 58q49 0 80.5 -20.5t31.5 -52.5q0 -22 -13.5 -37.5t-35.5 -15.5q-27 0 -41 22t-4 52q-20 16 -51 16q-85 2 -104 -153q-5 -44 -11 -142h157l3 -39h-164q-3 -34 -9 -65q-13 -70 -44 -110v-4q4 -1 41 -14.5t63.5 -20t48.5 -6.5
q35 0 54 19q15 15 44 67l20 -7q-7 -61 -39.5 -101.5t-91.5 -40.5q-33 0 -68.5 17t-49 28t-41.5 35q-62 -66 -161 -81l-6 36q78 18 112.5 59t44.5 114q5 39 8 75h-102l3 39h102z" />
    <glyph glyph-name="currency" unicode="&#xa4;" horiz-adv-x="433" 
d="M392 501l-56 -56q24 -38 24 -86q0 -47 -25 -86l62 -62l-34 -34l-61 61q-39 -26 -87 -26q-49 0 -87 25l-56 -56l-33 33l56 56q-26 38 -26 89q0 52 25 87l-58 58l34 34l58 -58q39 26 87 26q51 0 89 -27l55 55zM317 359q0 44 -28 74.5t-74 30.5t-74.5 -30.5t-28.5 -74.5
q0 -43 28.5 -74t74.5 -31t74 31t28 74z" />
    <glyph glyph-name="yen" unicode="&#xa5;" horiz-adv-x="612" 
d="M644 625l-3 -34l-30 -5q-45 -12 -74 -54l-163 -226h158l4 -40h-184l-11 -85h191l4 -40h-200l-11 -79q-3 -15 15 -18l78 -10l3 -34h-276l3 34l80 10q16 1 20 18l11 79h-174l2 40h176l12 85h-190l3 40h174l-125 250q-11 21 -37 28l-41 7l-3 34h237l-3 -34l-51 -6
q-18 -2 -17.5 -19.5t19.5 -57.5l92 -190h3l148 213q31 48 -2 55l-37 5l-3 34h202z" />
    <glyph glyph-name="brokenbar" unicode="&#xa6;" horiz-adv-x="278" 
d="M117 307v335h44v-335h-44zM117 -139v335h44v-335h-44z" />
    <glyph glyph-name="section" unicode="&#xa7;" horiz-adv-x="430" 
d="M405 260q0 -43 -29.5 -79t-72.5 -53q14 -28 14 -55q0 -50 -45 -92.5t-114 -42.5q-38 0 -75.5 19t-37.5 53q0 21 14 35t34 14q50 0 55 -75q19 -10 44 -10q29 0 47.5 21.5t18.5 51.5q0 24 -17 48.5t-34 38.5t-52 39q-37 26 -56.5 43t-37.5 45.5t-18 59.5q0 43 30 78t73 52
q-14 28 -14 55q0 51 44 90.5t109 39.5q38 0 75.5 -19t37.5 -53q0 -20 -14 -34.5t-33 -14.5q-25 0 -39.5 20.5t-16.5 55.5q-18 9 -35 9q-33 0 -51 -20t-18 -47q0 -25 17 -49.5t33.5 -38t53.5 -39.5q29 -22 41.5 -32t32.5 -30t28 -40t8 -44zM347 226q0 32 -20.5 56.5
t-56.5 52.5q-3 2 -13.5 9.5t-13.5 10t-12 9.5t-13 10t-11.5 9t-11 9.5t-10 9.5t-10 10t-8 9.5t-8.5 10.5q-24 -12 -41 -33.5t-17 -44.5q0 -29 20 -54.5t61 -55.5q5 -4 19.5 -14.5t21 -15.5t18.5 -14.5t19.5 -16.5t16 -16.5t14.5 -18.5q56 27 56 78z" />
    <glyph glyph-name="dieresis" unicode="&#xa8;" horiz-adv-x="400" 
d="M402 597q0 -24 -15 -41.5t-40 -17.5t-40 17.5t-15 41.5t15.5 41.5t39.5 17.5t39.5 -17.5t15.5 -41.5zM202 597q0 -24 -15 -41.5t-40 -17.5t-40 17.5t-15 41.5t15.5 41.5t39.5 17.5q25 0 40 -17.5t15 -41.5z" />
    <glyph glyph-name="copyright" unicode="&#xa9;" horiz-adv-x="734" 
d="M694 312q0 -136 -95.5 -231.5t-231.5 -95.5t-231.5 95.5t-95.5 231.5t95.5 232t231.5 96t231.5 -96t95.5 -232zM658 312q0 121 -85.5 208t-205.5 87t-205.5 -87t-85.5 -208t85.5 -207.5t205.5 -86.5t205.5 86.5t85.5 207.5zM508 252l-13 -118l-28 6q-40 -14 -88 -14
q-88 0 -138.5 50t-50.5 130q0 84 52.5 138t134.5 54q44 0 81 -11l45 11v-127h-26l-21 74q-30 21 -84 21t-90 -40t-36 -105q0 -74 37.5 -119t103.5 -45q39 0 63 16l31 79h27z" />
    <glyph glyph-name="ordfeminine" unicode="&#xaa;" horiz-adv-x="345" 
d="M283 583h6l13 56h42l-31 -131l-38 -173l19 -5l68 59l9 -13q-19 -29 -51 -57.5t-52 -28.5q-11 0 -25 12.5t-14 21.5q0 7 5.5 25.5t19.5 61t25 80.5h-5q-102 -201 -153 -201q-32 0 -49.5 28.5t-17.5 73.5q0 50 23 109.5t56 92.5q45 45 91 45q36 0 59 -56zM271 539
q-13 22 -35 41.5t-45 19.5q-14 0 -28 -14q-21 -21 -39.5 -78t-18.5 -106q0 -31 11 -48.5t27 -17.5q26 0 118 166z" />
    <glyph glyph-name="guillemotleft" unicode="&#xab;" horiz-adv-x="487" 
d="M420 68l-12 -19l-195 153l1 40l240 157l7 -21l-178 -158zM235 78l-13 -19l-197 143l1 40l240 147l7 -21l-168 -148z" />
    <glyph glyph-name="logicalnot" unicode="&#xac;" horiz-adv-x="480" 
d="M445 307v-210h-51v161h-359l3 49h407z" />
    <glyph glyph-name="uni00AD" unicode="&#xad;" horiz-adv-x="328" 
d="M287 209h-262l3 51h256z" />
    <glyph glyph-name="registered" unicode="&#xae;" horiz-adv-x="734" 
d="M694 312q0 -136 -95.5 -231.5t-231.5 -95.5t-231.5 95.5t-95.5 231.5t95.5 232t231.5 96t231.5 -96t95.5 -232zM658 312q0 121 -85.5 208t-205.5 87t-205.5 -87t-85.5 -208t85.5 -207.5t205.5 -86.5t205.5 86.5t85.5 207.5zM549 137h-93l-22 40l-69 109l-47 2v-105
q0 -10 10 -11l43 -6l2 -29h-158l3 29l37 6q10 1 10 11v263q0 10 -10 11l-37 6l-3 29h158q64 0 97 -26.5t33 -64.5q0 -76 -87 -103l71 -108q14 -17 25 -20l34 -4zM445 392q0 73 -97 69l-30 -1v-140l46 -5q81 7 81 77z" />
    <glyph glyph-name="macron" unicode="&#xaf;" horiz-adv-x="400" 
d="M360 539h-247l7 41h240v-41z" />
    <glyph glyph-name="degree" unicode="&#xb0;" horiz-adv-x="411" 
d="M413 501q0 -78 -53.5 -132.5t-130.5 -54.5q-66 0 -111 41t-45 108q0 76 53.5 130.5t128.5 54.5q67 0 112.5 -40t45.5 -107zM367 491q1 51 -32 83.5t-84 32.5q-56 1 -94 -42t-39 -100q-1 -50 32.5 -81t82.5 -32q56 -1 94.5 40t39.5 99z" />
    <glyph glyph-name="plusminus" unicode="&#xb1;" horiz-adv-x="480" 
d="M448 230h-182v-149h-51v149h-183l3 49h180v165h51v-165h179zM448 14h-416l3 49h410z" />
    <glyph glyph-name="twosuperior" unicode="&#xb2;" horiz-adv-x="330" 
d="M4 273l2 34q23 18 70 53.5t67.5 52.5t47.5 43t37.5 47t10.5 43q0 32 -23 51t-56 19q-51 0 -110 -45l-6 14q72 74 149 74q45 0 77.5 -26.5t32.5 -67.5q0 -18 -7 -36.5t-22.5 -37t-30.5 -34t-42 -35.5t-45 -33t-50.5 -35t-48.5 -34q-1 -3 0 -3h52q86 0 110.5 5t37.5 24
l17 29h28l-34 -102h-264z" />
    <glyph glyph-name="threesuperior" unicode="&#xb3;" horiz-adv-x="330" 
d="M104 259q-33 0 -64.5 12.5t-31.5 37.5q0 13 10 22.5t24 9.5q22 0 36 -16.5t14 -37.5q18 -3 25 -3q46 0 74 29.5t29 68.5q0 29 -19.5 47t-51.5 18q-24 0 -60 -12l-7 17q95 44 118 63q28 25 29 51q0 24 -19 37.5t-43 13.5q-52 0 -109 -39l-5 16q67 65 149 65q39 0 69.5 -20
t30.5 -53q0 -19 -10.5 -36t-22.5 -27.5t-35.5 -22t-34.5 -16t-35 -12.5v-1q16 4 36 4q38 0 62.5 -22t24.5 -60q0 -57 -57.5 -95.5t-125.5 -38.5z" />
    <glyph glyph-name="acute" unicode="&#xb4;" horiz-adv-x="400" 
d="M393 692l-190 -184h-23l119 184h94z" />
    <glyph glyph-name="mu" unicode="&#xb5;" horiz-adv-x="526" 
d="M67 -246l14 357l2 283q0 4 -0.5 6t-1.5 3.5t-4 2.5l-6 1q-3 0 -9 0.5t-11 1.5l-38 4l-3 33h149l-4 -304q-3 -96 93 -96q56 0 119 54v294q0 13 -27 15l-50 4l-3 33h152v-384q0 -16 9 -19l72 -16l-3 -24l-150 -18v76h-5q-20 -25 -33.5 -38.5t-36.5 -25.5t-49 -12
q-64 0 -93 58h-3l8 -280z" />
    <glyph glyph-name="mu" unicode="&#x3bc;" horiz-adv-x="526" 
d="M67 -246l14 357l2 283q0 4 -0.5 6t-1.5 3.5t-4 2.5l-6 1q-3 0 -9 0.5t-11 1.5l-38 4l-3 33h149l-4 -304q-3 -96 93 -96q56 0 119 54v294q0 13 -27 15l-50 4l-3 33h152v-384q0 -16 9 -19l72 -16l-3 -24l-150 -18v76h-5q-20 -25 -33.5 -38.5t-36.5 -25.5t-49 -12
q-64 0 -93 58h-3l8 -280z" />
    <glyph glyph-name="paragraph" unicode="&#xb6;" horiz-adv-x="494" 
d="M377 -32h-47l39 301q-53 -11 -82 -11q-96 0 -157 45.5t-61 122.5q0 101 68 150t174 49h152z" />
    <glyph glyph-name="periodcentered" unicode="&#xb7;" horiz-adv-x="226" 
d="M153 227q0 -25 -17.5 -43t-43.5 -18q-27 0 -45 18t-17 43q0 25 17.5 42.5t44.5 17.5t44.5 -18t16.5 -42z" />
    <glyph glyph-name="cedilla" unicode="&#xb8;" horiz-adv-x="400" 
d="M37 -267l-4 22q168 23 168 95q0 47 -78 47q-26 0 -59 -5l2 17l118 110h41l-85 -78q54 2 86.5 -19t32.5 -59q0 -52 -60 -87.5t-162 -42.5z" />
    <glyph glyph-name="onesuperior" unicode="&#xb9;" horiz-adv-x="330" 
d="M37 273l1 25l73 7q16 2 18 14l42 289l-89 10l4 19l151 21l-49 -339q-2 -13 13 -14l62 -7l2 -25h-228z" />
    <glyph glyph-name="ordmasculine" unicode="&#xba;" horiz-adv-x="319" 
d="M330 498q0 -76 -46.5 -142t-115.5 -66q-54 0 -81 39t-27 101q0 76 46.5 142.5t114.5 66.5q54 0 81.5 -39.5t27.5 -101.5zM279 519q0 40 -15 67t-45 27q-33 0 -59.5 -40.5t-39.5 -86.5q-9 -36 -9 -72q0 -41 14.5 -69.5t44.5 -28.5q35 0 61.5 41.5t38.5 88.5q9 38 9 73z
" />
    <glyph glyph-name="guillemotright" unicode="&#xbb;" horiz-adv-x="487" 
d="M445 202l-241 -146l-7 21l169 148l-131 142l13 19l198 -144zM256 202l-240 -156l-6 21l177 158l-136 152l11 19l195 -154z" />
    <glyph glyph-name="onequarter" unicode="&#xbc;" horiz-adv-x="715" 
d="M529 -143l16 111h-176v25l234 250l38 -5l-35 -239h70l-9 -31h-65l-17 -111h-56zM406 -1h143l26 175h-5zM20 -116l635 741h51l-636 -741h-50zM57 273l1 25l73 7q16 2 18 14l42 289l-89 10l4 19l151 21l-49 -339q-2 -13 13 -14l62 -7l2 -25h-228z" />
    <glyph glyph-name="onehalf" unicode="&#xbd;" horiz-adv-x="715" 
d="M369 -143l2 34q23 18 70 53.5t67.5 52.5t47.5 43t37.5 47t10.5 43q0 32 -23 51t-56 19q-51 0 -110 -45l-6 14q72 74 149 74q45 0 77.5 -26.5t32.5 -67.5q0 -18 -7 -36.5t-22.5 -37t-30.5 -34t-42 -35.5t-45 -33t-50.5 -35t-48.5 -34q-1 -3 0 -3h52q86 0 110.5 5t37.5 24
l17 29h28l-34 -102h-264zM20 -116l635 741h51l-636 -741h-50zM57 273l1 25l73 7q16 2 18 14l42 289l-89 10l4 19l151 21l-49 -339q-2 -13 13 -14l62 -7l2 -25h-228z" />
    <glyph glyph-name="threequarters" unicode="&#xbe;" horiz-adv-x="715" 
d="M529 -143l16 111h-176v25l234 250l38 -5l-35 -239h70l-9 -31h-65l-17 -111h-56zM406 -1h143l26 175h-5zM20 -116l635 741h51l-636 -741h-50zM124 259q-33 0 -64.5 12.5t-31.5 37.5q0 13 10 22.5t24 9.5q22 0 36 -16.5t14 -37.5q18 -3 25 -3q46 0 74 29.5t29 68.5
q0 29 -19.5 47t-51.5 18q-24 0 -60 -12l-7 17q95 44 118 63q28 25 29 51q0 24 -19 37.5t-43 13.5q-52 0 -109 -39l-5 16q67 65 149 65q39 0 69.5 -20t30.5 -53q0 -19 -10.5 -36t-22.5 -27.5t-35.5 -22t-34.5 -16t-35 -12.5v-1q16 4 36 4q38 0 62.5 -22t24.5 -60
q0 -57 -57.5 -95.5t-125.5 -38.5z" />
    <glyph glyph-name="questiondown" unicode="&#xbf;" horiz-adv-x="355" 
d="M195 586q0 23 16 40t40 17q25 0 42 -17t16 -40q0 -22 -16.5 -38.5t-41.5 -16.5q-24 0 -40 16.5t-16 38.5zM24 149q0 61 32 90t89 47q27 9 37.5 13.5t28.5 14.5t24.5 23t6.5 31q0 36 -40 79l31 -2q56 -56 56 -105q0 -50 -34 -76.5t-93 -44.5q-34 -11 -50.5 -17.5
t-32 -20.5t-15.5 -31q0 -34 46.5 -60t113.5 -26q29 0 47 3q6 -9 6 -22q0 -25 -19.5 -40t-54.5 -15q-75 0 -127 48.5t-52 110.5z" />
    <glyph glyph-name="Agrave" unicode="&#xc0;" horiz-adv-x="577" 
d="M564 0h-250l3 34l59 8q20 4 16 26l-26 158h-196l-48 -114q-24 -61 6 -68l54 -10l3 -34h-217l3 34l47 10q16 5 25 15t20 33l220 494v29l93 23l103 -569q2 -8 4 -12t7 -8t14 -5l57 -10zM359 267l-46 285h-5l-121 -285h172zM368 680h-22l-141 184h94z" />
    <glyph glyph-name="Aacute" unicode="&#xc1;" horiz-adv-x="577" 
d="M564 0h-250l3 34l59 8q20 4 16 26l-26 158h-196l-48 -114q-24 -61 6 -68l54 -10l3 -34h-217l3 34l47 10q16 5 25 15t20 33l220 494v29l93 23l103 -569q2 -8 4 -12t7 -8t14 -5l57 -10zM359 267l-46 285h-5l-121 -285h172zM511 864l-190 -184h-23l119 184h94z" />
    <glyph glyph-name="Acircumflex" unicode="&#xc2;" horiz-adv-x="577" 
d="M564 0h-250l3 34l59 8q20 4 16 26l-26 158h-196l-48 -114q-24 -61 6 -68l54 -10l3 -34h-217l3 34l47 10q16 5 25 15t20 33l220 494v29l93 23l103 -569q2 -8 4 -12t7 -8t14 -5l57 -10zM359 267l-46 285h-5l-121 -285h172zM462 680h-21l-89 132h-2l-126 -132h-22l110 184
h89z" />
    <glyph glyph-name="Atilde" unicode="&#xc3;" horiz-adv-x="577" 
d="M564 0h-250l3 34l59 8q20 4 16 26l-26 158h-196l-48 -114q-24 -61 6 -68l54 -10l3 -34h-217l3 34l47 10q16 5 25 15t20 33l220 494v29l93 23l103 -569q2 -8 4 -12t7 -8t14 -5l57 -10zM359 267l-46 285h-5l-121 -285h172zM520 809q-37 -117 -111 -117q-34 0 -78.5 36
t-59.5 36q-17 0 -30 -13.5t-33 -51.5h-26q35 117 110 117q34 0 78.5 -36t59.5 -36q16 0 29.5 13.5t33.5 51.5h27z" />
    <glyph glyph-name="Adieresis" unicode="&#xc4;" horiz-adv-x="577" 
d="M564 0h-250l3 34l59 8q20 4 16 26l-26 158h-196l-48 -114q-24 -61 6 -68l54 -10l3 -34h-217l3 34l47 10q16 5 25 15t20 33l220 494v29l93 23l103 -569q2 -8 4 -12t7 -8t14 -5l57 -10zM359 267l-46 285h-5l-121 -285h172zM490 769q0 -24 -15 -41.5t-40 -17.5t-40 17.5
t-15 41.5t15.5 41.5t39.5 17.5t39.5 -17.5t15.5 -41.5zM290 769q0 -24 -15 -41.5t-40 -17.5t-40 17.5t-15 41.5t15.5 41.5t39.5 17.5q25 0 40 -17.5t15 -41.5z" />
    <glyph glyph-name="Aring" unicode="&#xc5;" horiz-adv-x="577" 
d="M294 611q-41 25 -41 78q1 38 25 64t64 26t65 -26t24 -64q0 -60 -49 -82l97 -538q3 -22 25 -25l57 -10l3 -34h-250l3 34l59 8q20 4 16 26l-26 158h-196l-48 -114q-24 -61 6 -68l54 -10l3 -34h-217l3 34l47 10q16 5 25 15t20 33zM359 267l-46 285h-5l-121 -285h172z
M402 689q0 26 -16.5 44.5t-43.5 18.5t-43 -18.5t-16 -44.5q0 -27 16.5 -45.5t43.5 -18.5t43 18.5t16 45.5z" />
    <glyph glyph-name="AE" unicode="&#xc6;" horiz-adv-x="802" 
d="M760 177l-42 -177h-458l4 34l63 10q17 3 20 18l22 164h-188l-48 -76q-46 -76 -46 -88q-1 -14 17 -18l53 -10l3 -34h-217l3 34l47 10q29 9 54 49l299 470q9 14 -12 18l-61 10l-2 34h530l-24 -181h-44l-9 101q-2 16 -6 23t-27 12.5t-59 6.5t-114 1h-23l-35 -251h23
q64 0 80.5 3t23.5 16l31 67h35l-49 -208h-34l4 64q1 9 -4.5 13t-27 6.5t-66.5 2.5h-21l-34 -264h12q84 0 125 1t67.5 6.5t33.5 12.5t14 23l39 97h48zM374 267l44 321h-9l-202 -321h167z" />
    <glyph glyph-name="Ccedilla" unicode="&#xc7;" horiz-adv-x="613" 
d="M284 -13q-113 13 -173.5 84.5t-60.5 188.5q0 77 29 149.5t82 125.5q104 104 245 104q74 0 135 -19l71 16l-27 -203h-41l-10 133q-61 34 -131 34q-110 0 -187.5 -99.5t-77.5 -244.5q0 -117 67 -184q48 -48 129 -48q60 0 120 30l59 134h47l-48 -189l-46 10
q-76 -24 -137 -24h-7l-48 -44q54 2 86.5 -19t32.5 -59q0 -52 -60 -87.5t-162 -42.5l-4 22q168 23 168 95q0 47 -78 47q-26 0 -59 -5l2 17z" />
    <glyph glyph-name="Egrave" unicode="&#xc8;" horiz-adv-x="574" 
d="M529 177l-42 -177h-474l3 34l62 10q17 3 20 18l67 501q3 14 -15 18l-58 10l-3 34h480l-24 -181h-43l-9 101q-3 25 -19 32q-26 11 -188 11h-34l-34 -251h34q64 0 80 3t23 16l32 67h34l-49 -208h-33l4 64q1 9 -4.5 13t-27 6.5t-66.5 2.5h-32l-35 -264h23q110 0 155 3.5
t60.5 11t24.5 28.5l40 97h48zM380 680h-22l-141 184h94z" />
    <glyph glyph-name="Eacute" unicode="&#xc9;" horiz-adv-x="574" 
d="M529 177l-42 -177h-474l3 34l62 10q17 3 20 18l67 501q3 14 -15 18l-58 10l-3 34h480l-24 -181h-43l-9 101q-3 25 -19 32q-26 11 -188 11h-34l-34 -251h34q64 0 80 3t23 16l32 67h34l-49 -208h-33l4 64q1 9 -4.5 13t-27 6.5t-66.5 2.5h-32l-35 -264h23q110 0 155 3.5
t60.5 11t24.5 28.5l40 97h48zM480 864l-190 -184h-23l119 184h94z" />
    <glyph glyph-name="Ecircumflex" unicode="&#xca;" horiz-adv-x="574" 
d="M529 177l-42 -177h-474l3 34l62 10q17 3 20 18l67 501q3 14 -15 18l-58 10l-3 34h480l-24 -181h-43l-9 101q-3 25 -19 32q-26 11 -188 11h-34l-34 -251h34q64 0 80 3t23 16l32 67h34l-49 -208h-33l4 64q1 9 -4.5 13t-27 6.5t-66.5 2.5h-32l-35 -264h23q110 0 155 3.5
t60.5 11t24.5 28.5l40 97h48zM468 680h-21l-89 132h-2l-126 -132h-22l110 184h89z" />
    <glyph glyph-name="Edieresis" unicode="&#xcb;" horiz-adv-x="574" 
d="M529 177l-42 -177h-474l3 34l62 10q17 3 20 18l67 501q3 14 -15 18l-58 10l-3 34h480l-24 -181h-43l-9 101q-3 25 -19 32q-26 11 -188 11h-34l-34 -251h34q64 0 80 3t23 16l32 67h34l-49 -208h-33l4 64q1 9 -4.5 13t-27 6.5t-66.5 2.5h-32l-35 -264h23q110 0 155 3.5
t60.5 11t24.5 28.5l40 97h48zM502 769q0 -24 -15 -41.5t-40 -17.5t-40 17.5t-15 41.5t15.5 41.5t39.5 17.5t39.5 -17.5t15.5 -41.5zM302 769q0 -24 -15 -41.5t-40 -17.5t-40 17.5t-15 41.5t15.5 41.5t39.5 17.5q25 0 40 -17.5t15 -41.5z" />
    <glyph glyph-name="Igrave" unicode="&#xcc;" horiz-adv-x="350" 
d="M277 0h-259l3 34l69 10q17 3 20 18l67 501q3 15 -15 18l-66 10l-3 34h258l-3 -34l-69 -10q-17 -3 -20 -18l-66 -501q-3 -15 15 -18l66 -10zM245 680h-22l-141 184h94z" />
    <glyph glyph-name="Iacute" unicode="&#xcd;" horiz-adv-x="350" 
d="M277 0h-259l3 34l69 10q17 3 20 18l67 501q3 15 -15 18l-66 10l-3 34h258l-3 -34l-69 -10q-17 -3 -20 -18l-66 -501q-3 -15 15 -18l66 -10zM425 864l-190 -184h-23l119 184h94z" />
    <glyph glyph-name="Icircumflex" unicode="&#xce;" horiz-adv-x="350" 
d="M277 0h-259l3 34l69 10q17 3 20 18l67 501q3 15 -15 18l-66 10l-3 34h258l-3 -34l-69 -10q-17 -3 -20 -18l-66 -501q-3 -15 15 -18l66 -10zM358 680h-21l-89 132h-2l-126 -132h-22l110 184h89z" />
    <glyph glyph-name="Idieresis" unicode="&#xcf;" horiz-adv-x="350" 
d="M277 0h-259l3 34l69 10q17 3 20 18l67 501q3 15 -15 18l-66 10l-3 34h258l-3 -34l-69 -10q-17 -3 -20 -18l-66 -501q-3 -15 15 -18l66 -10zM389 769q0 -24 -15 -41.5t-40 -17.5t-40 17.5t-15 41.5t15.5 41.5t39.5 17.5t39.5 -17.5t15.5 -41.5zM189 769q0 -24 -15 -41.5
t-40 -17.5t-40 17.5t-15 41.5t15.5 41.5t39.5 17.5q25 0 40 -17.5t15 -41.5z" />
    <glyph glyph-name="Eth" unicode="&#xd0;" horiz-adv-x="650" 
d="M130 300h-86l3 39h88l30 224q2 14 -16 18l-58 10l-3 34h239q135 0 215.5 -75t80.5 -200q0 -145 -98 -242q-50 -51 -127 -79.5t-168 -28.5h-217l3 34l62 10q17 3 20 18zM218 339h116l3 -39h-124l-33 -249l73 -14q123 5 201.5 88t78.5 228q0 109 -58.5 172t-167.5 63h-56z
" />
    <glyph glyph-name="Ntilde" unicode="&#xd1;" horiz-adv-x="700" 
d="M731 625l-3 -34l-61 -8q-15 -3 -22 -11.5t-14 -37.5t-16 -93l-60 -449h-50l-288 550h-4l-46 -358q-7 -53 -9.5 -76.5t-1 -40t6.5 -20t17 -5.5l58 -8l3 -34h-233l3 34l61 8q22 4 30.5 27t21.5 115l44 330q4 32 -1 46t-22 18l-55 13l-3 34h177l261 -502h4l43 318
q15 115 9 130q-5 9 -21 12l-59 8l-3 34h233zM559 809q-37 -117 -111 -117q-34 0 -78.5 36t-59.5 36q-17 0 -30 -13.5t-33 -51.5h-26q35 117 110 117q34 0 78.5 -36t59.5 -36q16 0 29.5 13.5t33.5 51.5h27z" />
    <glyph glyph-name="Ograve" unicode="&#xd2;" horiz-adv-x="688" 
d="M662 346q0 -75 -26.5 -144t-75.5 -119q-93 -98 -227 -98q-125 0 -204 83.5t-79 208.5q0 143 86 248q96 114 243 114q124 0 203.5 -84t79.5 -209zM572 358q0 124 -64 188q-52 54 -138 54q-57 0 -103 -32.5t-72.5 -83.5t-40.5 -107t-14 -110q0 -124 65 -189q53 -53 137 -53
q57 0 103 32.5t72.5 83.5t40.5 107t14 110zM414 680h-22l-141 184h94z" />
    <glyph glyph-name="Oacute" unicode="&#xd3;" horiz-adv-x="688" 
d="M662 346q0 -75 -26.5 -144t-75.5 -119q-93 -98 -227 -98q-125 0 -204 83.5t-79 208.5q0 143 86 248q96 114 243 114q124 0 203.5 -84t79.5 -209zM572 358q0 124 -64 188q-52 54 -138 54q-57 0 -103 -32.5t-72.5 -83.5t-40.5 -107t-14 -110q0 -124 65 -189q53 -53 137 -53
q57 0 103 32.5t72.5 83.5t40.5 107t14 110zM569 864l-190 -184h-23l119 184h94z" />
    <glyph glyph-name="Ocircumflex" unicode="&#xd4;" horiz-adv-x="688" 
d="M662 346q0 -75 -26.5 -144t-75.5 -119q-93 -98 -227 -98q-125 0 -204 83.5t-79 208.5q0 143 86 248q96 114 243 114q124 0 203.5 -84t79.5 -209zM572 358q0 124 -64 188q-52 54 -138 54q-57 0 -103 -32.5t-72.5 -83.5t-40.5 -107t-14 -110q0 -124 65 -189q53 -53 137 -53
q57 0 103 32.5t72.5 83.5t40.5 107t14 110zM531 680h-21l-89 132h-2l-126 -132h-22l110 184h89z" />
    <glyph glyph-name="Otilde" unicode="&#xd5;" horiz-adv-x="688" 
d="M662 346q0 -75 -26.5 -144t-75.5 -119q-93 -98 -227 -98q-125 0 -204 83.5t-79 208.5q0 143 86 248q96 114 243 114q124 0 203.5 -84t79.5 -209zM572 358q0 124 -64 188q-52 54 -138 54q-57 0 -103 -32.5t-72.5 -83.5t-40.5 -107t-14 -110q0 -124 65 -189q53 -53 137 -53
q57 0 103 32.5t72.5 83.5t40.5 107t14 110zM581 809q-37 -117 -111 -117q-34 0 -78.5 36t-59.5 36q-17 0 -30 -13.5t-33 -51.5h-26q35 117 110 117q34 0 78.5 -36t59.5 -36q16 0 29.5 13.5t33.5 51.5h27z" />
    <glyph glyph-name="Odieresis" unicode="&#xd6;" horiz-adv-x="688" 
d="M662 346q0 -75 -26.5 -144t-75.5 -119q-93 -98 -227 -98q-125 0 -204 83.5t-79 208.5q0 143 86 248q96 114 243 114q124 0 203.5 -84t79.5 -209zM572 358q0 124 -64 188q-52 54 -138 54q-57 0 -103 -32.5t-72.5 -83.5t-40.5 -107t-14 -110q0 -124 65 -189q53 -53 137 -53
q57 0 103 32.5t72.5 83.5t40.5 107t14 110zM546 769q0 -24 -15 -41.5t-40 -17.5t-40 17.5t-15 41.5t15.5 41.5t39.5 17.5t39.5 -17.5t15.5 -41.5zM346 769q0 -24 -15 -41.5t-40 -17.5t-40 17.5t-15 41.5t15.5 41.5t39.5 17.5q25 0 40 -17.5t15 -41.5z" />
    <glyph glyph-name="multiply" unicode="&#xd7;" horiz-adv-x="480" 
d="M444 404l-169 -169l169 -170l-34 -35l-170 170l-170 -170l-34 35l169 170l-169 169l34 34l170 -169l170 169z" />
    <glyph glyph-name="Oslash" unicode="&#xd8;" horiz-adv-x="688" 
d="M165 37q-54 40 -84.5 102.5t-30.5 137.5q0 143 86 248q96 114 243 114q78 0 137 -35l53 84h44q-65 -103 -65 -104q54 -39 84 -101t30 -137t-26.5 -144t-75.5 -119q-93 -98 -227 -98q-77 0 -136 33l-15 -23l-28 -46l-15 -23h-43zM196 87l294 474q-48 39 -120 39
q-57 0 -103 -32.5t-72.5 -83.5t-40.5 -107t-14 -110q0 -115 56 -180zM518 536l-294 -474q46 -37 118 -37q57 0 103 32.5t72.5 83.5t40.5 107t14 110q0 114 -54 178z" />
    <glyph glyph-name="Ugrave" unicode="&#xd9;" horiz-adv-x="712" 
d="M733 625l-3 -34l-61 -8q-15 -3 -22 -11.5t-14 -37t-16 -93.5l-33 -242q-15 -106 -83 -160t-171 -54q-100 0 -161.5 48.5t-61.5 140.5q0 19 5 66l45 323q2 14 -16 18l-58 10l-3 34h245l-3 -34l-62 -10q-18 -3 -20 -18l-43 -318q-5 -35 -5 -55q0 -78 44.5 -116.5
t122.5 -38.5q159 0 184 173l31 233q7 52 10 76.5t1 40.5t-6.5 19.5t-16.5 5.5l-59 8l-3 34h233zM440 680h-22l-141 184h94z" />
    <glyph glyph-name="Uacute" unicode="&#xda;" horiz-adv-x="712" 
d="M733 625l-3 -34l-61 -8q-15 -3 -22 -11.5t-14 -37t-16 -93.5l-33 -242q-15 -106 -83 -160t-171 -54q-100 0 -161.5 48.5t-61.5 140.5q0 19 5 66l45 323q2 14 -16 18l-58 10l-3 34h245l-3 -34l-62 -10q-18 -3 -20 -18l-43 -318q-5 -35 -5 -55q0 -78 44.5 -116.5
t122.5 -38.5q159 0 184 173l31 233q7 52 10 76.5t1 40.5t-6.5 19.5t-16.5 5.5l-59 8l-3 34h233zM599 864l-190 -184h-23l119 184h94z" />
    <glyph glyph-name="Ucircumflex" unicode="&#xdb;" horiz-adv-x="712" 
d="M733 625l-3 -34l-61 -8q-15 -3 -22 -11.5t-14 -37t-16 -93.5l-33 -242q-15 -106 -83 -160t-171 -54q-100 0 -161.5 48.5t-61.5 140.5q0 19 5 66l45 323q2 14 -16 18l-58 10l-3 34h245l-3 -34l-62 -10q-18 -3 -20 -18l-43 -318q-5 -35 -5 -55q0 -78 44.5 -116.5
t122.5 -38.5q159 0 184 173l31 233q7 52 10 76.5t1 40.5t-6.5 19.5t-16.5 5.5l-59 8l-3 34h233zM545 680h-21l-89 132h-2l-126 -132h-22l110 184h89z" />
    <glyph glyph-name="Udieresis" unicode="&#xdc;" horiz-adv-x="712" 
d="M733 625l-3 -34l-61 -8q-15 -3 -22 -11.5t-14 -37t-16 -93.5l-33 -242q-15 -106 -83 -160t-171 -54q-100 0 -161.5 48.5t-61.5 140.5q0 19 5 66l45 323q2 14 -16 18l-58 10l-3 34h245l-3 -34l-62 -10q-18 -3 -20 -18l-43 -318q-5 -35 -5 -55q0 -78 44.5 -116.5
t122.5 -38.5q159 0 184 173l31 233q7 52 10 76.5t1 40.5t-6.5 19.5t-16.5 5.5l-59 8l-3 34h233zM558 769q0 -24 -15 -41.5t-40 -17.5t-40 17.5t-15 41.5t15.5 41.5t39.5 17.5t39.5 -17.5t15.5 -41.5zM358 769q0 -24 -15 -41.5t-40 -17.5t-40 17.5t-15 41.5t15.5 41.5
t39.5 17.5q25 0 40 -17.5t15 -41.5z" />
    <glyph glyph-name="Yacute" unicode="&#xdd;" horiz-adv-x="591" 
d="M648 625l-3 -34l-40 -7q-23 -5 -38.5 -15.5t-32.5 -35.5l-186 -265l-27 -206q-3 -15 15 -18l74 -10l3 -34h-277l3 34l79 10q16 1 20 18l26 205l-131 266q-11 23 -21 33t-27 15l-45 10l-3 34h244l-4 -34l-50 -6q-12 -1 -16.5 -8t-1.5 -19t12 -31l102 -220h4l162 237
q19 32 -14 39l-52 8l-3 34h228zM539 864l-190 -184h-23l119 184h94z" />
    <glyph glyph-name="Thorn" unicode="&#xde;" horiz-adv-x="549" 
d="M531 330q0 -92 -74 -145.5t-178 -53.5q-41 0 -87 7l-11 -76q-3 -17 15 -18l79 -10l3 -34h-265l3 34l62 10q17 3 20 18l68 501q3 14 -15 18l-58 10l-3 34h244l-3 -34l-62 -10q-17 -3 -20 -18l-8 -61h64q102 0 164 -47t62 -125zM442 330q0 63 -42 99.5t-110 36.5
q-40 0 -54 -2l-39 -288q40 -10 79 -10q74 0 120 43.5t46 120.5z" />
    <glyph glyph-name="germandbls" unicode="&#xdf;" horiz-adv-x="501" 
d="M336 417q58 -41 98.5 -106t36.5 -138q-4 -74 -59 -131.5t-122 -55.5q-51 1 -81 25.5t-28 60.5q1 24 17.5 41t40.5 17q29 0 40 -20t4 -44t-26 -35q13 -11 39 -13q42 -1 74 36t34 90q5 68 -32 137.5t-114 126.5l4 20q147 8 155 131q2 36 -22 65t-61 30q-56 1 -86.5 -48.5
t-49.5 -157.5l-65 -360q-42 -228 -98 -288q-46 -46 -106 -46q-30 0 -50.5 16.5t-20.5 41.5q0 22 12.5 36t32.5 14q23 0 37.5 -18t17.5 -46l59 31q17 39 44 186l64 385l-87 4l3 28l94 21q25 124 74.5 180.5t129.5 56.5q65 0 106 -38.5t37 -93.5q-5 -113 -146 -141z" />
    <glyph glyph-name="agrave" unicode="&#xe0;" horiz-adv-x="472" 
d="M339 387h7l20 75h62l-49 -178l-53 -238l30 -9l79 67l17 -18q-19 -35 -57.5 -68t-65.5 -33q-18 0 -45 11t-27 21q0 17 57 196h-9q-60 -110 -105 -169t-87 -59q-41 0 -66 35.5t-25 93.5q0 76 32 157t79 128q64 64 124 64q52 0 82 -76zM332 334q-21 31 -53.5 57t-62.5 26
q-20 0 -40 -20q-28 -28 -56.5 -115t-28.5 -150q0 -88 49 -88q26 0 63 50t115 182zM316 508h-22l-141 184h94z" />
    <glyph glyph-name="aacute" unicode="&#xe1;" horiz-adv-x="472" 
d="M339 387h7l20 75h62l-49 -178l-53 -238l30 -9l79 67l17 -18q-19 -35 -57.5 -68t-65.5 -33q-18 0 -45 11t-27 21q0 17 57 196h-9q-60 -110 -105 -169t-87 -59q-41 0 -66 35.5t-25 93.5q0 76 32 157t79 128q64 64 124 64q52 0 82 -76zM332 334q-21 31 -53.5 57t-62.5 26
q-20 0 -40 -20q-28 -28 -56.5 -115t-28.5 -150q0 -88 49 -88q26 0 63 50t115 182zM432 692l-190 -184h-23l119 184h94z" />
    <glyph glyph-name="acircumflex" unicode="&#xe2;" horiz-adv-x="472" 
d="M339 387h7l20 75h62l-49 -178l-53 -238l30 -9l79 67l17 -18q-19 -35 -57.5 -68t-65.5 -33q-18 0 -45 11t-27 21q0 17 57 196h-9q-60 -110 -105 -169t-87 -59q-41 0 -66 35.5t-25 93.5q0 76 32 157t79 128q64 64 124 64q52 0 82 -76zM332 334q-21 31 -53.5 57t-62.5 26
q-20 0 -40 -20q-28 -28 -56.5 -115t-28.5 -150q0 -88 49 -88q26 0 63 50t115 182zM399 508h-21l-89 132h-2l-126 -132h-22l110 184h89z" />
    <glyph glyph-name="atilde" unicode="&#xe3;" horiz-adv-x="472" 
d="M339 387h7l20 75h62l-49 -178l-53 -238l30 -9l79 67l17 -18q-19 -35 -57.5 -68t-65.5 -33q-18 0 -45 11t-27 21q0 17 57 196h-9q-60 -110 -105 -169t-87 -59q-41 0 -66 35.5t-25 93.5q0 76 32 157t79 128q64 64 124 64q52 0 82 -76zM332 334q-21 31 -53.5 57t-62.5 26
q-20 0 -40 -20q-28 -28 -56.5 -115t-28.5 -150q0 -88 49 -88q26 0 63 50t115 182zM448 637q-37 -117 -111 -117q-34 0 -78.5 36t-59.5 36q-17 0 -30 -13.5t-33 -51.5h-26q35 117 110 117q34 0 78.5 -36t59.5 -36q16 0 29.5 13.5t33.5 51.5h27z" />
    <glyph glyph-name="adieresis" unicode="&#xe4;" horiz-adv-x="472" 
d="M339 387h7l20 75h62l-49 -178l-53 -238l30 -9l79 67l17 -18q-19 -35 -57.5 -68t-65.5 -33q-18 0 -45 11t-27 21q0 17 57 196h-9q-60 -110 -105 -169t-87 -59q-41 0 -66 35.5t-25 93.5q0 76 32 157t79 128q64 64 124 64q52 0 82 -76zM332 334q-21 31 -53.5 57t-62.5 26
q-20 0 -40 -20q-28 -28 -56.5 -115t-28.5 -150q0 -88 49 -88q26 0 63 50t115 182zM438 597q0 -24 -15 -41.5t-40 -17.5t-40 17.5t-15 41.5t15.5 41.5t39.5 17.5t39.5 -17.5t15.5 -41.5zM238 597q0 -24 -15 -41.5t-40 -17.5t-40 17.5t-15 41.5t15.5 41.5t39.5 17.5
q25 0 40 -17.5t15 -41.5z" />
    <glyph glyph-name="aring" unicode="&#xe5;" horiz-adv-x="472" 
d="M373 605q0 -38 -24.5 -64t-64.5 -26t-64.5 26t-24.5 64q1 38 25 64t64 26t65 -26t24 -64zM339 387h7l20 75h62l-49 -178l-53 -238l30 -9l79 67l17 -18q-19 -35 -57.5 -68t-65.5 -33q-18 0 -45 11t-27 21q0 17 57 196h-9q-60 -110 -105 -169t-87 -59q-41 0 -66 35.5
t-25 93.5q0 76 32 157t79 128q64 64 124 64q52 0 82 -76zM344 605q0 27 -16.5 45.5t-43.5 18.5t-43 -18.5t-16 -45.5q0 -26 16.5 -44.5t43.5 -18.5t43 18.5t16 44.5zM332 334q-21 31 -53.5 57t-62.5 26q-20 0 -40 -20q-28 -28 -56.5 -115t-28.5 -150q0 -88 49 -88
q26 0 63 50t115 182z" />
    <glyph glyph-name="ae" unicode="&#xe6;" horiz-adv-x="605" 
d="M344 356q71 106 156 106q46 0 75 -26t29 -61q0 -39 -38.5 -68t-164.5 -96q-40 -21 -63 -33q-1 -7 -1 -26q0 -54 26 -84t64 -30q36 0 120 64l14 -18q-85 -99 -161 -99q-57 0 -95 44.5t-38 110.5q0 2 0.5 8t0.5 11q-44 -79 -88 -126.5t-73 -47.5q-41 0 -63 40.5t-22 102.5
q0 76 28.5 150t75.5 121q64 64 124 64q34 0 58 -33t36 -74zM341 208q124 67 161.5 98t37.5 66q0 18 -29 32.5t-52 14.5q-21 0 -39 -16q-22 -22 -45 -75t-36 -120h2zM321 315q-18 40 -50 71t-64 31q-19 0 -39 -20q-27 -27 -52 -107t-25 -144q0 -43 11.5 -70.5t28.5 -27.5
t36.5 17t46 58.5t41.5 67.5t47 85q3 5 10 20t9 19z" />
    <glyph glyph-name="ccedilla" unicode="&#xe7;" horiz-adv-x="373" 
d="M143 -13q-50 8 -81.5 50.5t-31.5 102.5q0 120 72 221t165 101q44 0 76 -22t32 -55q0 -22 -13 -37.5t-33 -15.5q-39 0 -39 37q0 17 7 27q-5 8 -32 17.5t-49 9.5q-10 0 -30 -20q-29 -29 -57.5 -106t-28.5 -145q0 -54 26 -84t64 -30q36 0 120 64l14 -18q-75 -87 -140 -97
l-50 -46q54 2 86.5 -19t32.5 -59q0 -52 -60 -87.5t-162 -42.5l-4 22q168 23 168 95q0 47 -78 47q-26 0 -59 -5l2 17q83 77 83 78z" />
    <glyph glyph-name="egrave" unicode="&#xe8;" horiz-adv-x="367" 
d="M101 174q-1 -7 -1 -22q0 -54 26 -84t64 -30q36 0 120 64l14 -18q-85 -99 -161 -99q-57 0 -95 44.5t-38 110.5q0 121 71.5 221.5t160.5 100.5q47 0 76 -26t29 -63q0 -43 -43 -74t-190 -108q-22 -11 -33 -17zM102 204l2 -1q119 64 158 97.5t39 71.5q0 18 -26.5 32.5
t-47.5 14.5q-27 0 -46 -19q-21 -22 -43.5 -75.5t-35.5 -120.5zM294 508h-22l-141 184h94z" />
    <glyph glyph-name="eacute" unicode="&#xe9;" horiz-adv-x="367" 
d="M101 174q-1 -7 -1 -22q0 -54 26 -84t64 -30q36 0 120 64l14 -18q-85 -99 -161 -99q-57 0 -95 44.5t-38 110.5q0 121 71.5 221.5t160.5 100.5q47 0 76 -26t29 -63q0 -43 -43 -74t-190 -108q-22 -11 -33 -17zM102 204l2 -1q119 64 158 97.5t39 71.5q0 18 -26.5 32.5
t-47.5 14.5q-27 0 -46 -19q-21 -22 -43.5 -75.5t-35.5 -120.5zM417 692l-190 -184h-23l119 184h94z" />
    <glyph glyph-name="ecircumflex" unicode="&#xea;" horiz-adv-x="367" 
d="M101 174q-1 -7 -1 -22q0 -54 26 -84t64 -30q36 0 120 64l14 -18q-85 -99 -161 -99q-57 0 -95 44.5t-38 110.5q0 121 71.5 221.5t160.5 100.5q47 0 76 -26t29 -63q0 -43 -43 -74t-190 -108q-22 -11 -33 -17zM102 204l2 -1q119 64 158 97.5t39 71.5q0 18 -26.5 32.5
t-47.5 14.5q-27 0 -46 -19q-21 -22 -43.5 -75.5t-35.5 -120.5zM381 508h-21l-89 132h-2l-126 -132h-22l110 184h89z" />
    <glyph glyph-name="edieresis" unicode="&#xeb;" horiz-adv-x="367" 
d="M101 174q-1 -7 -1 -22q0 -54 26 -84t64 -30q36 0 120 64l14 -18q-85 -99 -161 -99q-57 0 -95 44.5t-38 110.5q0 121 71.5 221.5t160.5 100.5q47 0 76 -26t29 -63q0 -43 -43 -74t-190 -108q-22 -11 -33 -17zM102 204l2 -1q119 64 158 97.5t39 71.5q0 18 -26.5 32.5
t-47.5 14.5q-27 0 -46 -19q-21 -22 -43.5 -75.5t-35.5 -120.5zM416 597q0 -24 -15 -41.5t-40 -17.5t-40 17.5t-15 41.5t15.5 41.5t39.5 17.5t39.5 -17.5t15.5 -41.5zM216 597q0 -24 -15 -41.5t-40 -17.5t-40 17.5t-15 41.5t15.5 41.5t39.5 17.5q25 0 40 -17.5t15 -41.5z" />
    <glyph glyph-name="igrave" unicode="&#xec;" horiz-adv-x="255" 
d="M234 86q-20 -35 -58.5 -68t-65.5 -33q-17 0 -43.5 11.5t-24.5 20.5l102 385l-30 5l-77 -80l-17 18q19 40 56.5 78.5t63.5 38.5q11 0 29 -4.5t32 -12.5t12 -15l-106 -384l30 -9l80 67zM210 508h-22l-141 184h94z" />
    <glyph glyph-name="iacute" unicode="&#xed;" horiz-adv-x="255" 
d="M234 86q-20 -35 -58.5 -68t-65.5 -33q-17 0 -43.5 11.5t-24.5 20.5l102 385l-30 5l-77 -80l-17 18q19 40 56.5 78.5t63.5 38.5q11 0 29 -4.5t32 -12.5t12 -15l-106 -384l30 -9l80 67zM330 692l-190 -184h-23l119 184h94z" />
    <glyph glyph-name="icircumflex" unicode="&#xee;" horiz-adv-x="255" 
d="M234 86q-20 -35 -58.5 -68t-65.5 -33q-17 0 -43.5 11.5t-24.5 20.5l102 385l-30 5l-77 -80l-17 18q19 40 56.5 78.5t63.5 38.5q11 0 29 -4.5t32 -12.5t12 -15l-106 -384l30 -9l80 67zM297 508h-21l-89 132h-2l-126 -132h-22l110 184h89z" />
    <glyph glyph-name="idieresis" unicode="&#xef;" horiz-adv-x="255" 
d="M234 86q-20 -35 -58.5 -68t-65.5 -33q-17 0 -43.5 11.5t-24.5 20.5l102 385l-30 5l-77 -80l-17 18q19 40 56.5 78.5t63.5 38.5q11 0 29 -4.5t32 -12.5t12 -15l-106 -384l30 -9l80 67zM329 597q0 -24 -15 -41.5t-40 -17.5t-40 17.5t-15 41.5t15.5 41.5t39.5 17.5
t39.5 -17.5t15.5 -41.5zM129 597q0 -24 -15 -41.5t-40 -17.5t-40 17.5t-15 41.5t15.5 41.5t39.5 17.5q25 0 40 -17.5t15 -41.5z" />
    <glyph glyph-name="eth" unicode="&#xf0;" horiz-adv-x="437" 
d="M279 564l-159 -49l9 41l119 37q-40 32 -101 54l21 34q76 -25 129 -73l145 45l-9 -41l-105 -33q89 -97 91 -236q0 -135 -70.5 -246.5t-167.5 -111.5q-73 0 -110.5 54t-37.5 138q0 66 27 131t78 109.5t112 44.5q73 0 101 -71q-10 102 -72 173zM115 257q-14 -53 -14 -102
q0 -56 20.5 -97.5t61.5 -41.5q34 0 64 33t46.5 70.5t26.5 75.5q13 55 13 103q0 55 -20.5 94t-61.5 39q-46 0 -82.5 -56t-53.5 -118z" />
    <glyph glyph-name="ntilde" unicode="&#xf1;" horiz-adv-x="509" 
d="M482 86q-19 -35 -58 -68t-66 -33q-17 0 -42.5 11t-25.5 21q0 19 52 192q39 132 39 148q0 17 -15 30.5t-33 13.5q-43 0 -183 -283l-23 -123l-73 5l34 147l53 251l-29 6l-79 -77l-16 18q19 40 56.5 78.5t63.5 38.5q17 0 44.5 -11t27.5 -21q0 -9 -63 -255h10q94 197 147 253
q33 34 69 34q29 0 52 -20.5t23 -49.5q0 -45 -42 -181q-44 -147 -50 -165l30 -9l80 67zM463 637q-37 -117 -111 -117q-34 0 -78.5 36t-59.5 36q-17 0 -30 -13.5t-33 -51.5h-26q35 117 110 117q34 0 78.5 -36t59.5 -36q16 0 29.5 13.5t33.5 51.5h27z" />
    <glyph glyph-name="ograve" unicode="&#xf2;" horiz-adv-x="437" 
d="M402 270q0 -103 -65 -194t-156 -91q-73 0 -110.5 54t-37.5 138q0 66 28 131t80 109.5t113 44.5q73 0 110.5 -54t37.5 -138zM333 298q0 55 -20.5 94t-61.5 39q-46 0 -82.5 -56t-53.5 -118q-14 -53 -14 -102q0 -56 20.5 -97.5t61.5 -41.5q34 0 64 33t46.5 70.5t26.5 75.5
q13 55 13 103zM311 508h-22l-141 184h94z" />
    <glyph glyph-name="oacute" unicode="&#xf3;" horiz-adv-x="437" 
d="M402 270q0 -103 -65 -194t-156 -91q-73 0 -110.5 54t-37.5 138q0 66 28 131t80 109.5t113 44.5q73 0 110.5 -54t37.5 -138zM333 298q0 55 -20.5 94t-61.5 39q-46 0 -82.5 -56t-53.5 -118q-14 -53 -14 -102q0 -56 20.5 -97.5t61.5 -41.5q34 0 64 33t46.5 70.5t26.5 75.5
q13 55 13 103zM435 692l-190 -184h-23l119 184h94z" />
    <glyph glyph-name="ocircumflex" unicode="&#xf4;" horiz-adv-x="437" 
d="M402 270q0 -103 -65 -194t-156 -91q-73 0 -110.5 54t-37.5 138q0 66 28 131t80 109.5t113 44.5q73 0 110.5 -54t37.5 -138zM333 298q0 55 -20.5 94t-61.5 39q-46 0 -82.5 -56t-53.5 -118q-14 -53 -14 -102q0 -56 20.5 -97.5t61.5 -41.5q34 0 64 33t46.5 70.5t26.5 75.5
q13 55 13 103zM395 508h-21l-89 132h-2l-126 -132h-22l110 184h89z" />
    <glyph glyph-name="otilde" unicode="&#xf5;" horiz-adv-x="437" 
d="M402 270q0 -103 -65 -194t-156 -91q-73 0 -110.5 54t-37.5 138q0 66 28 131t80 109.5t113 44.5q73 0 110.5 -54t37.5 -138zM333 298q0 55 -20.5 94t-61.5 39q-46 0 -82.5 -56t-53.5 -118q-14 -53 -14 -102q0 -56 20.5 -97.5t61.5 -41.5q34 0 64 33t46.5 70.5t26.5 75.5
q13 55 13 103zM448 637q-37 -117 -111 -117q-34 0 -78.5 36t-59.5 36q-17 0 -30 -13.5t-33 -51.5h-26q35 117 110 117q34 0 78.5 -36t59.5 -36q16 0 29.5 13.5t33.5 51.5h27z" />
    <glyph glyph-name="odieresis" unicode="&#xf6;" horiz-adv-x="437" 
d="M402 270q0 -103 -65 -194t-156 -91q-73 0 -110.5 54t-37.5 138q0 66 28 131t80 109.5t113 44.5q73 0 110.5 -54t37.5 -138zM333 298q0 55 -20.5 94t-61.5 39q-46 0 -82.5 -56t-53.5 -118q-14 -53 -14 -102q0 -56 20.5 -97.5t61.5 -41.5q34 0 64 33t46.5 70.5t26.5 75.5
q13 55 13 103zM437 597q0 -24 -15 -41.5t-40 -17.5t-40 17.5t-15 41.5t15.5 41.5t39.5 17.5t39.5 -17.5t15.5 -41.5zM237 597q0 -24 -15 -41.5t-40 -17.5t-40 17.5t-15 41.5t15.5 41.5t39.5 17.5q25 0 40 -17.5t15 -41.5z" />
    <glyph glyph-name="divide" unicode="&#xf7;" horiz-adv-x="480" 
d="M448 210h-416l3 49h410zM293 94q0 -21 -14.5 -36.5t-36.5 -15.5t-37 15.5t-15 36.5t15 36t37 15t36.5 -15t14.5 -36zM293 374q0 -21 -15 -36.5t-37 -15.5t-36.5 15.5t-14.5 36.5t14.5 36.5t36.5 15.5t37 -15.5t15 -36.5z" />
    <glyph glyph-name="oslash" unicode="&#xf8;" horiz-adv-x="437" 
d="M77 30q-44 51 -44 147q0 66 28 131t80 109.5t113 44.5q45 0 76 -22l81 133h38q-93 -154 -94 -155q47 -51 47 -148q0 -103 -65 -194t-156 -91q-47 0 -78 23l-73 -120h-39zM111 84l196 317q-23 30 -56 30q-46 0 -82.5 -56t-53.5 -118q-14 -53 -14 -102q0 -40 10 -71z
M323 366q-195 -318 -196 -318q22 -32 56 -32t64 33t46.5 70.5t26.5 75.5q13 55 13 103q0 38 -10 68z" />
    <glyph glyph-name="ugrave" unicode="&#xf9;" horiz-adv-x="509" 
d="M29 345q20 40 57.5 78.5t63.5 38.5q17 0 43.5 -11t26.5 -21q0 -19 -52 -192q-40 -128 -40 -147q0 -17 15 -31t33 -14q42 0 184 283l24 123l73 -5l-35 -147q-47 -231 -54 -254l30 -9l79 67l17 -18q-19 -35 -57.5 -68t-65.5 -33q-18 0 -44 11t-26 21q0 13 62 255h-9
q-93 -194 -148 -253q-33 -34 -72 -34q-28 0 -50 20.5t-22 49.5q0 39 42 181l49 166l-30 5l-77 -80zM327 508h-22l-141 184h94z" />
    <glyph glyph-name="uacute" unicode="&#xfa;" horiz-adv-x="509" 
d="M29 345q20 40 57.5 78.5t63.5 38.5q17 0 43.5 -11t26.5 -21q0 -19 -52 -192q-40 -128 -40 -147q0 -17 15 -31t33 -14q42 0 184 283l24 123l73 -5l-35 -147q-47 -231 -54 -254l30 -9l79 67l17 -18q-19 -35 -57.5 -68t-65.5 -33q-18 0 -44 11t-26 21q0 13 62 255h-9
q-93 -194 -148 -253q-33 -34 -72 -34q-28 0 -50 20.5t-22 49.5q0 39 42 181l49 166l-30 5l-77 -80zM461 692l-190 -184h-23l119 184h94z" />
    <glyph glyph-name="ucircumflex" unicode="&#xfb;" horiz-adv-x="509" 
d="M29 345q20 40 57.5 78.5t63.5 38.5q17 0 43.5 -11t26.5 -21q0 -19 -52 -192q-40 -128 -40 -147q0 -17 15 -31t33 -14q42 0 184 283l24 123l73 -5l-35 -147q-47 -231 -54 -254l30 -9l79 67l17 -18q-19 -35 -57.5 -68t-65.5 -33q-18 0 -44 11t-26 21q0 13 62 255h-9
q-93 -194 -148 -253q-33 -34 -72 -34q-28 0 -50 20.5t-22 49.5q0 39 42 181l49 166l-30 5l-77 -80zM424 508h-21l-89 132h-2l-126 -132h-22l110 184h89z" />
    <glyph glyph-name="udieresis" unicode="&#xfc;" horiz-adv-x="509" 
d="M29 345q20 40 57.5 78.5t63.5 38.5q17 0 43.5 -11t26.5 -21q0 -19 -52 -192q-40 -128 -40 -147q0 -17 15 -31t33 -14q42 0 184 283l24 123l73 -5l-35 -147q-47 -231 -54 -254l30 -9l79 67l17 -18q-19 -35 -57.5 -68t-65.5 -33q-18 0 -44 11t-26 21q0 13 62 255h-9
q-93 -194 -148 -253q-33 -34 -72 -34q-28 0 -50 20.5t-22 49.5q0 39 42 181l49 166l-30 5l-77 -80zM266 597q0 -24 -15 -41.5t-40 -17.5t-40 17.5t-15 41.5t15.5 41.5t39.5 17.5q25 0 40 -17.5t15 -41.5zM466 597q0 -24 -15 -41.5t-40 -17.5t-40 17.5t-15 41.5t15.5 41.5
t39.5 17.5t39.5 -17.5t15.5 -41.5z" />
    <glyph glyph-name="yacute" unicode="&#xfd;" horiz-adv-x="429" 
d="M430 400q0 -50 -90 -178l-116 -173l-59 -105q-56 -107 -100.5 -153.5t-97.5 -46.5q-31 0 -54.5 18t-23.5 46q0 21 15 35.5t33 14.5q23 0 40.5 -18t15.5 -43l27 -2l137 197l-39 11l3 396l-29 6l-77 -80l-17 18q20 40 56.5 79.5t62.5 39.5q18 0 45 -12t27 -23l-8 -379h10
l173 289l3 16q-50 18 -50 55q0 23 14.5 39.5t36.5 16.5q28 0 45 -17.5t17 -46.5zM421 692l-190 -184h-23l119 184h94z" />
    <glyph glyph-name="thorn" unicode="&#xfe;" horiz-adv-x="445" 
d="M414 322q0 -75 -29.5 -150.5t-75.5 -121.5q-68 -66 -134 -66q-48 0 -85 37h-2l-41 -205q-2 -17 14 -18l75 -10l3 -34h-245l2 34l63 10q18 1 21 18l168 774q5 17 -7 20l-69 22l3 25l163 40l-55 -233l-62 -246h8q64 122 109.5 183t86.5 62q39 0 64 -41.5t25 -99.5zM344 304
q0 42 -12.5 70t-35.5 29q-24 0 -62.5 -53.5t-113.5 -187.5l-17 -75q61 -68 104 -68q21 0 42 21q35 35 65 117t30 147z" />
    <glyph glyph-name="ydieresis" unicode="&#xff;" horiz-adv-x="429" 
d="M430 400q0 -50 -90 -178l-116 -173l-59 -105q-56 -107 -100.5 -153.5t-97.5 -46.5q-31 0 -54.5 18t-23.5 46q0 21 15 35.5t33 14.5q23 0 40.5 -18t15.5 -43l27 -2l137 197l-39 11l3 396l-29 6l-77 -80l-17 18q20 40 56.5 79.5t62.5 39.5q18 0 45 -12t27 -23l-8 -379h10
l173 289l3 16q-50 18 -50 55q0 23 14.5 39.5t36.5 16.5q28 0 45 -17.5t17 -46.5zM426 597q0 -24 -15 -41.5t-40 -17.5t-40 17.5t-15 41.5t15.5 41.5t39.5 17.5t39.5 -17.5t15.5 -41.5zM226 597q0 -24 -15 -41.5t-40 -17.5t-40 17.5t-15 41.5t15.5 41.5t39.5 17.5
q25 0 40 -17.5t15 -41.5z" />
    <glyph glyph-name="Amacron" unicode="&#x100;" horiz-adv-x="578" 
d="M564 0h-250l3 34l59 8q20 4 16 26l-26 158h-196l-48 -114q-24 -61 6 -68l54 -10l3 -34h-217l3 34l47 10q16 5 25 15t20 33l220 494v29l93 23l103 -569q2 -8 4 -12t7 -8t14 -5l57 -10zM359 267l-46 285h-5l-121 -285h172zM470 700h-247l7 41h240v-41z" />
    <glyph glyph-name="amacron" unicode="&#x101;" horiz-adv-x="472" 
d="M339 387h7l20 75h62l-49 -178l-53 -238l30 -9l79 67l17 -18q-19 -35 -57.5 -68t-65.5 -33q-18 0 -45 11t-27 21q0 17 57 196h-9q-60 -110 -105 -169t-87 -59q-41 0 -66 35.5t-25 93.5q0 76 32 157t79 128q64 64 124 64q52 0 82 -76zM332 334q-21 31 -53.5 57t-62.5 26
q-20 0 -40 -20q-28 -28 -56.5 -115t-28.5 -150q0 -88 49 -88q26 0 63 50t115 182zM436 539h-247l7 41h240v-41z" />
    <glyph glyph-name="Abreve" unicode="&#x102;" horiz-adv-x="578" 
d="M564 0h-250l3 34l59 8q20 4 16 26l-26 158h-196l-48 -114q-24 -61 6 -68l54 -10l3 -34h-217l3 34l47 10q16 5 25 15t20 33l220 494v29l93 23l103 -569q2 -8 4 -12t7 -8t14 -5l57 -10zM359 267l-46 285h-5l-121 -285h172zM501 853q-14 -42 -25.5 -67.5t-31 -57t-46 -47
t-59.5 -15.5t-55 15.5t-33 47.5t-15.5 56.5t-8.5 67.5h23q17 -66 38.5 -102t57.5 -36t66 35t66 103h23z" />
    <glyph glyph-name="abreve" unicode="&#x103;" horiz-adv-x="472" 
d="M339 387h7l20 75h62l-49 -178l-53 -238l30 -9l79 67l17 -18q-19 -35 -57.5 -68t-65.5 -33q-18 0 -45 11t-27 21q0 17 57 196h-9q-60 -110 -105 -169t-87 -59q-41 0 -66 35.5t-25 93.5q0 76 32 157t79 128q64 64 124 64q52 0 82 -76zM332 334q-21 31 -53.5 57t-62.5 26
q-20 0 -40 -20q-28 -28 -56.5 -115t-28.5 -150q0 -88 49 -88q26 0 63 50t115 182zM456 692q-14 -42 -25.5 -67.5t-31 -57t-46 -47t-59.5 -15.5t-55 15.5t-33 47.5t-15.5 56.5t-8.5 67.5h23q17 -66 38.5 -102t57.5 -36t66 35t66 103h23z" />
    <glyph glyph-name="Aogonek" unicode="&#x104;" horiz-adv-x="578" 
d="M442 -210q-39 4 -60 28t-13 63q7 36 41 68t80 51h-176l3 34l59 8q20 4 16 27l-26 157h-196l-47 -114q-25 -61 5 -68l54 -10l3 -34h-217l3 34l47 10q17 5 26 15t19 33l220 494v29l93 23l103 -569q2 -8 4 -12t7 -8t14 -5l57 -10l3 -34q-46 -8 -85 -39.5t-44 -67.5
q-7 -49 37 -54q32 -3 55 15l9 -13q-12 -23 -37 -38.5t-57 -12.5zM359 267l-46 285h-5l-121 -285h172z" />
    <glyph glyph-name="aogonek" unicode="&#x105;" horiz-adv-x="472" 
d="M292 -210q-38 4 -57.5 30t-10.5 66q11 56 81 102q-48 15 -48 29q0 17 57 196h-9q-60 -110 -105 -169t-87 -59q-41 0 -66 35.5t-25 93.5q0 76 32 157t79 128q65 65 124 65q52 0 82 -77h7l20 76h62l-49 -179l-53 -238l30 -9l79 67l17 -18q-14 -25 -40 -52t-51 -42
q-29 -18 -47.5 -43t-23.5 -50q-6 -24 2 -41t31 -19q31 -3 54 15l9 -13q-11 -23 -36.5 -38.5t-57.5 -12.5zM332 334q-21 31 -53.5 57t-62.5 26q-20 0 -40 -20q-28 -28 -56 -115t-28 -150q0 -88 48 -88q26 0 63 50t115 182z" />
    <glyph glyph-name="Cacute" unicode="&#x106;" horiz-adv-x="613" 
d="M557 853l-190 -184h-23l119 184h94zM560 188l-48 -189l-46 10q-76 -24 -137 -24q-134 0 -206.5 73.5t-72.5 201.5q0 77 29 149.5t82 125.5q104 104 245 104q74 0 135 -19l71 16l-27 -203h-41l-10 133q-61 34 -131 34q-110 0 -187.5 -99.5t-77.5 -244.5q0 -117 67 -184
q48 -48 129 -48q60 0 120 30l59 134h47z" />
    <glyph glyph-name="cacute" unicode="&#x107;" horiz-adv-x="373" 
d="M410 692l-190 -184h-23l119 184h94zM297 396q-5 8 -32 17.5t-49 9.5q-10 0 -30 -20q-29 -29 -57.5 -106t-28.5 -145q0 -54 26 -84t64 -30q36 0 120 64l14 -18q-85 -99 -161 -99q-57 0 -95 44.5t-38 110.5q0 120 72 221t165 101q44 0 76 -22t32 -55q0 -22 -13 -37.5
t-33 -15.5q-39 0 -39 37q0 17 7 27z" />
    <glyph glyph-name="Ccircumflex" unicode="&#x108;" horiz-adv-x="613" 
d="M516 669h-21l-89 132h-2l-126 -132h-22l110 184h89zM560 188l-48 -189l-46 10q-76 -24 -137 -24q-134 0 -206.5 73.5t-72.5 201.5q0 77 29 149.5t82 125.5q104 104 245 104q74 0 135 -19l71 16l-27 -203h-41l-10 133q-61 34 -131 34q-110 0 -187.5 -99.5t-77.5 -244.5
q0 -117 67 -184q48 -48 129 -48q60 0 120 30l59 134h47z" />
    <glyph glyph-name="ccircumflex" unicode="&#x109;" horiz-adv-x="373" 
d="M384 508h-21l-89 132h-2l-126 -132h-22l110 184h89zM297 396q-5 8 -32 17.5t-49 9.5q-10 0 -30 -20q-29 -29 -57.5 -106t-28.5 -145q0 -54 26 -84t64 -30q36 0 120 64l14 -18q-85 -99 -161 -99q-57 0 -95 44.5t-38 110.5q0 120 72 221t165 101q44 0 76 -22t32 -55
q0 -22 -13 -37.5t-33 -15.5q-39 0 -39 37q0 17 7 27z" />
    <glyph glyph-name="Cdotaccent" unicode="&#x10a;" horiz-adv-x="613" 
d="M560 188l-48 -189l-46 10q-76 -24 -137 -24q-134 0 -206.5 73.5t-72.5 201.5q0 77 29 149.5t82 125.5q104 104 245 104q74 0 135 -19l71 16l-27 -203h-41l-10 133q-61 34 -131 34q-110 0 -187.5 -99.5t-77.5 -244.5q0 -117 67 -184q48 -48 129 -48q60 0 120 30l59 134h47
zM466 764q0 -25 -15.5 -43t-40.5 -18q-26 0 -41.5 18t-15.5 43t15.5 42.5t41.5 17.5q25 0 40.5 -18t15.5 -42z" />
    <glyph glyph-name="cdotaccent" unicode="&#x10b;" horiz-adv-x="373" 
d="M297 396q-5 8 -32 17.5t-49 9.5q-10 0 -30 -20q-29 -29 -57.5 -106t-28.5 -145q0 -54 26 -84t64 -30q36 0 120 64l14 -18q-85 -99 -161 -99q-57 0 -95 44.5t-38 110.5q0 120 72 221t165 101q44 0 76 -22t32 -55q0 -22 -13 -37.5t-33 -15.5q-39 0 -39 37q0 17 7 27z
M333 603q0 -25 -15.5 -43t-40.5 -18q-26 0 -41.5 18t-15.5 43t15.5 42.5t41.5 17.5q25 0 40.5 -18t15.5 -42z" />
    <glyph glyph-name="Ccaron" unicode="&#x10c;" horiz-adv-x="613" 
d="M539 853l-110 -184h-89l-61 184h21l90 -131h2l125 131h22zM560 188l-48 -189l-46 10q-76 -24 -137 -24q-134 0 -206.5 73.5t-72.5 201.5q0 77 29 149.5t82 125.5q104 104 245 104q74 0 135 -19l71 16l-27 -203h-41l-10 133q-61 34 -131 34q-110 0 -187.5 -99.5
t-77.5 -244.5q0 -117 67 -184q48 -48 129 -48q60 0 120 30l59 134h47z" />
    <glyph glyph-name="ccaron" unicode="&#x10d;" horiz-adv-x="373" 
d="M394 692l-110 -184h-89l-61 184h21l90 -131h2l125 131h22zM297 396q-5 8 -32 17.5t-49 9.5q-10 0 -30 -20q-29 -29 -57.5 -106t-28.5 -145q0 -54 26 -84t64 -30q36 0 120 64l14 -18q-85 -99 -161 -99q-57 0 -95 44.5t-38 110.5q0 120 72 221t165 101q44 0 76 -22t32 -55
q0 -22 -13 -37.5t-33 -15.5q-39 0 -39 37q0 17 7 27z" />
    <glyph glyph-name="Dcaron" unicode="&#x10e;" horiz-adv-x="650" 
d="M623 350q0 -145 -98 -242q-50 -51 -127 -79.5t-168 -28.5h-217l3 34l62 10q17 3 20 18l67 501q2 14 -16 18l-58 10l-3 34h239q135 0 215.5 -75t80.5 -200zM533 353q0 109 -58.5 172t-167.5 63h-56l-71 -537l73 -14q123 5 201.5 88t78.5 228zM475 853l-110 -184h-89
l-61 184h21l90 -131h2l125 131h22z" />
    <glyph glyph-name="dcaron" unicode="&#x10f;" horiz-adv-x="666" 
d="M684 607q-3 -99 -164 -189l-20 18q98 59 102 129q1 15 -5.5 29t-16 23t-19 15.5t-16.5 9.5l-7 4q1 22 19.5 37t44.5 15q34 0 58.5 -26.5t23.5 -64.5zM452 86q-19 -35 -57.5 -68t-65.5 -33q-18 0 -45 11t-27 21q0 17 57 196h-9q-60 -110 -105 -169t-87 -59q-41 0 -66 35.5
t-25 93.5q0 76 32 157t79 128q64 64 124 64q52 0 82 -76h7l40 203q3 17 -7 20l-69 22l4 25l162 40l-99 -421l-51 -230l30 -9l79 67zM332 334q-21 31 -53.5 57t-62.5 26q-20 0 -40 -20q-28 -28 -56.5 -115t-28.5 -150q0 -88 49 -88q26 0 63 50t115 182z" />
    <glyph glyph-name="Dcroat" unicode="&#x110;" horiz-adv-x="650" 
d="M130 300h-86l3 39h88l30 224q2 14 -16 18l-58 10l-3 34h239q135 0 215.5 -75t80.5 -200q0 -145 -98 -242q-50 -51 -127 -79.5t-168 -28.5h-217l3 34l62 10q17 3 20 18zM218 339h116l3 -39h-124l-33 -249l73 -14q123 5 201.5 88t78.5 228q0 109 -58.5 172t-167.5 63h-56z
" />
    <glyph glyph-name="dcroat" unicode="&#x111;" horiz-adv-x="472" 
d="M452 86q-19 -35 -57.5 -68t-65.5 -33q-18 0 -45 11t-27 21q0 17 57 196h-9q-60 -110 -105 -169t-87 -59q-41 0 -66 35.5t-25 93.5q0 76 32 157t79 128q64 64 124 64q52 0 82 -76h7l27 139h-108l8 36h107l6 28q3 17 -7 20l-69 22l4 25l162 40l-32 -135h70l-1 -36h-77
l-59 -250l-51 -230l30 -9l79 67zM332 334q-21 31 -53.5 57t-62.5 26q-20 0 -40 -20q-28 -28 -56.5 -115t-28.5 -150q0 -88 49 -88q26 0 63 50t115 182z" />
    <glyph glyph-name="Emacron" unicode="&#x112;" horiz-adv-x="574" 
d="M529 177l-42 -177h-474l3 34l62 10q17 3 20 18l67 501q3 14 -15 18l-58 10l-3 34h480l-24 -181h-43l-9 101q-3 25 -19 32q-26 11 -188 11h-34l-34 -251h34q64 0 80 3t23 16l32 67h34l-49 -208h-33l4 64q1 9 -4.5 13t-27 6.5t-66.5 2.5h-32l-35 -264h23q110 0 155 3.5
t60.5 11t24.5 28.5l40 97h48zM476 700h-247l7 41h240v-41z" />
    <glyph glyph-name="emacron" unicode="&#x113;" horiz-adv-x="368" 
d="M101 174q-1 -7 -1 -22q0 -54 26 -84t64 -30q36 0 120 64l14 -18q-85 -99 -161 -99q-57 0 -95 44.5t-38 110.5q0 121 71.5 221.5t160.5 100.5q47 0 76 -26t29 -63q0 -43 -43 -74t-190 -108q-22 -11 -33 -17zM102 204l2 -1q119 64 158 97.5t39 71.5q0 18 -26.5 32.5
t-47.5 14.5q-27 0 -46 -19q-21 -22 -43.5 -75.5t-35.5 -120.5zM370 539h-247l7 41h240v-41z" />
    <glyph glyph-name="Ebreve" unicode="&#x114;" horiz-adv-x="574" 
d="M529 177l-42 -177h-474l3 34l62 10q17 3 20 18l67 501q3 14 -15 18l-58 10l-3 34h480l-24 -181h-43l-9 101q-3 25 -19 32q-26 11 -188 11h-34l-34 -251h34q64 0 80 3t23 16l32 67h34l-49 -208h-33l4 64q1 9 -4.5 13t-27 6.5t-66.5 2.5h-32l-35 -264h23q110 0 155 3.5
t60.5 11t24.5 28.5l40 97h48zM510 853q-14 -42 -25.5 -67.5t-31 -57t-46 -47t-59.5 -15.5t-55 15.5t-33 47.5t-15.5 56.5t-8.5 67.5h23q17 -66 38.5 -102t57.5 -36t66 35t66 103h23z" />
    <glyph glyph-name="ebreve" unicode="&#x115;" horiz-adv-x="368" 
d="M101 174q-1 -7 -1 -22q0 -54 26 -84t64 -30q36 0 120 64l14 -18q-85 -99 -161 -99q-57 0 -95 44.5t-38 110.5q0 121 71.5 221.5t160.5 100.5q47 0 76 -26t29 -63q0 -43 -43 -74t-190 -108q-22 -11 -33 -17zM102 204l2 -1q119 64 158 97.5t39 71.5q0 18 -26.5 32.5
t-47.5 14.5q-27 0 -46 -19q-21 -22 -43.5 -75.5t-35.5 -120.5zM406 692q-14 -42 -25.5 -67.5t-31 -57t-46 -47t-59.5 -15.5t-55 15.5t-33 47.5t-15.5 56.5t-8.5 67.5h23q17 -66 38.5 -102t57.5 -36t66 35t66 103h23z" />
    <glyph glyph-name="Edotaccent" unicode="&#x116;" horiz-adv-x="574" 
d="M529 177l-42 -177h-474l3 34l62 10q17 3 20 18l67 501q3 14 -15 18l-58 10l-3 34h480l-24 -181h-43l-9 101q-3 25 -19 32q-26 11 -188 11h-34l-34 -251h34q64 0 80 3t23 16l32 67h34l-49 -208h-33l4 64q1 9 -4.5 13t-27 6.5t-66.5 2.5h-32l-35 -264h23q110 0 155 3.5
t60.5 11t24.5 28.5l40 97h48zM411 764q0 -25 -15.5 -43t-40.5 -18q-26 0 -41.5 18t-15.5 43t15.5 42.5t41.5 17.5q25 0 40.5 -18t15.5 -42z" />
    <glyph glyph-name="edotaccent" unicode="&#x117;" horiz-adv-x="368" 
d="M101 174q-1 -7 -1 -22q0 -54 26 -84t64 -30q36 0 120 64l14 -18q-85 -99 -161 -99q-57 0 -95 44.5t-38 110.5q0 121 71.5 221.5t160.5 100.5q47 0 76 -26t29 -63q0 -43 -43 -74t-190 -108q-22 -11 -33 -17zM102 204l2 -1q119 64 158 97.5t39 71.5q0 18 -26.5 32.5
t-47.5 14.5q-27 0 -46 -19q-21 -22 -43.5 -75.5t-35.5 -120.5zM322 603q0 -25 -15.5 -43t-40.5 -18q-26 0 -41.5 18t-15.5 43t15.5 42.5t41.5 17.5q25 0 40.5 -18t15.5 -42z" />
    <glyph glyph-name="Eogonek" unicode="&#x118;" horiz-adv-x="574" 
d="M366 -210q-38 4 -57.5 30t-11.5 66q13 65 101 114h-385l3 34l62 10q17 3 20 19l67 500q3 14 -15 18l-58 10l-3 34h481l-25 -181h-43l-9 101q-3 25 -19 32q-28 11 -187 11h-35l-34 -251h34q64 0 80 3t23 16l32 67h34l-49 -208h-33l4 64q1 9 -4.5 13t-27 6.5t-66.5 2.5h-32
l-35 -264h23q110 0 155 3.5t60.5 11t24.5 28.5l40 97h48l-42 -177h-46q-67 -47 -78 -101q-5 -24 3 -41t30 -19q32 -3 55 15l9 -13q-12 -23 -37 -38.5t-57 -12.5z" />
    <glyph glyph-name="eogonek" unicode="&#x119;" horiz-adv-x="368" 
d="M145 -210q-39 4 -57.5 30t-11.5 66q4 31 27 57.5t56 42.5q-54 0 -91.5 44.5t-37.5 109.5q0 79 33 154t87 122t112 47q46 0 75.5 -26.5t29.5 -63.5q0 -45 -45.5 -76.5t-220.5 -121.5q-1 -4 -1 -23q0 -53 26.5 -83.5t63.5 -30.5t120 65l14 -18q-53 -63 -111 -97
q-59 -35 -72 -90q-12 -53 36 -59q31 -5 54 15l9 -13q-10 -24 -36.5 -39t-58.5 -12zM102 204q2 -1 2 0q120 63 158.5 96.5t38.5 71.5q0 18 -26.5 32.5t-47.5 14.5q-27 0 -46 -19q-21 -22 -43.5 -75.5t-35.5 -120.5z" />
    <glyph glyph-name="Ecaron" unicode="&#x11a;" horiz-adv-x="574" 
d="M506 853l-110 -184h-89l-61 184h21l90 -131h2l125 131h22zM529 177l-42 -177h-474l3 34l62 10q17 3 20 18l67 501q3 14 -15 18l-58 10l-3 34h480l-24 -181h-43l-9 101q-3 25 -19 32q-26 11 -188 11h-34l-34 -251h34q64 0 80 3t23 16l32 67h34l-49 -208h-33l4 64
q1 9 -4.5 13t-27 6.5t-66.5 2.5h-32l-35 -264h23q110 0 155 3.5t60.5 11t24.5 28.5l40 97h48z" />
    <glyph glyph-name="ecaron" unicode="&#x11b;" horiz-adv-x="368" 
d="M407 692l-110 -184h-89l-61 184h21l90 -131h2l125 131h22zM101 174q-1 -7 -1 -22q0 -54 26 -84t64 -30q36 0 120 64l14 -18q-85 -99 -161 -99q-57 0 -95 44.5t-38 110.5q0 121 71.5 221.5t160.5 100.5q47 0 76 -26t29 -63q0 -43 -43 -74t-190 -108q-22 -11 -33 -17z
M102 204l2 -1q119 64 158 97.5t39 71.5q0 18 -26.5 32.5t-47.5 14.5q-27 0 -46 -19q-21 -22 -43.5 -75.5t-35.5 -120.5z" />
    <glyph glyph-name="Gcircumflex" unicode="&#x11c;" horiz-adv-x="655" 
d="M518 669h-21l-89 132h-2l-126 -132h-22l110 184h89zM626 275l-3 -33l-57 -10q-18 -4 -21 -19l-22 -152l56 -10l2 -27q-140 -39 -253 -39q-133 0 -205.5 74.5t-72.5 200.5q0 77 29 149.5t82 125.5q104 104 245 104q71 0 132 -19l71 16l-27 -203h-41l-10 133
q-61 34 -128 34q-109 0 -187 -99t-78 -245q0 -116 67 -183q47 -49 130 -49q57 0 107 22l23 167q3 17 -16 19l-65 10l-3 33h245z" />
    <glyph glyph-name="gcircumflex" unicode="&#x11d;" horiz-adv-x="427" 
d="M404 508h-21l-89 132h-2l-126 -132h-22l110 184h89zM446 378l-117 23v-8q43 -49 43 -98q0 -65 -53.5 -113.5t-113.5 -48.5q-32 0 -66 13q-23 -6 -37 -21.5t-14 -30.5q0 -20 17.5 -32t67.5 -30l46 -16q72 -24 110 -52t38 -74q0 -55 -67 -96t-178 -41q-75 0 -128 33t-53 90
q0 41 40.5 73t91.5 50v5q-48 26 -48 67q0 56 90 86v5q-61 44 -61 121q0 76 58 127.5t137 51.5q46 0 115 -18h101zM312 340q0 31 -30.5 57t-61.5 26q-26 0 -48 -20q-24 -24 -38.5 -62t-13.5 -76q1 -59 28 -86q17 -17 37 -17q41 0 77 36q50 50 50 142zM308 -129q0 26 -26 43.5
t-78 36.5q-11 4 -48.5 16.5t-56.5 20.5q-96 -46 -96 -101q0 -41 46.5 -68.5t116.5 -27.5q58 0 100 23t42 57z" />
    <glyph glyph-name="Gbreve" unicode="&#x11e;" horiz-adv-x="655" 
d="M626 275l-3 -33l-57 -10q-18 -4 -21 -19l-22 -152l56 -10l2 -27q-140 -39 -253 -39q-133 0 -205.5 74.5t-72.5 200.5q0 77 29 149.5t82 125.5q104 104 245 104q71 0 132 -19l71 16l-27 -203h-41l-10 133q-61 34 -128 34q-109 0 -187 -99t-78 -245q0 -116 67 -183
q47 -49 130 -49q57 0 107 22l23 167q3 17 -16 19l-65 10l-3 33h245zM555 853q-14 -42 -25.5 -67.5t-31 -57t-46 -47t-59.5 -15.5t-55 15.5t-33 47.5t-15.5 56.5t-8.5 67.5h23q17 -66 38.5 -102t57.5 -36t66 35t66 103h23z" />
    <glyph glyph-name="gbreve" unicode="&#x11f;" horiz-adv-x="427" 
d="M446 378l-117 23v-8q43 -49 43 -98q0 -65 -53.5 -113.5t-113.5 -48.5q-32 0 -66 13q-23 -6 -37 -21.5t-14 -30.5q0 -20 17.5 -32t67.5 -30l46 -16q72 -24 110 -52t38 -74q0 -55 -67 -96t-178 -41q-75 0 -128 33t-53 90q0 41 40.5 73t91.5 50v5q-48 26 -48 67q0 56 90 86
v5q-61 44 -61 121q0 76 58 127.5t137 51.5q46 0 115 -18h101zM308 -129q0 26 -26 43.5t-78 36.5q-11 4 -48.5 16.5t-56.5 20.5q-96 -46 -96 -101q0 -41 46.5 -68.5t116.5 -27.5q58 0 100 23t42 57zM312 340q0 31 -30.5 57t-61.5 26q-26 0 -48 -20q-24 -24 -38.5 -62
t-13.5 -76q1 -59 28 -86q17 -17 37 -17q41 0 77 36q50 50 50 142zM430 692q-14 -42 -25.5 -67.5t-31 -57t-46 -47t-59.5 -15.5t-55 15.5t-33 47.5t-15.5 56.5t-8.5 67.5h23q17 -66 38.5 -102t57.5 -36t66 35t66 103h23z" />
    <glyph glyph-name="Gdotaccent" unicode="&#x120;" horiz-adv-x="655" 
d="M626 275l-3 -33l-57 -10q-18 -4 -21 -19l-22 -152l56 -10l2 -27q-140 -39 -253 -39q-133 0 -205.5 74.5t-72.5 200.5q0 77 29 149.5t82 125.5q104 104 245 104q71 0 132 -19l71 16l-27 -203h-41l-10 133q-61 34 -128 34q-109 0 -187 -99t-78 -245q0 -116 67 -183
q47 -49 130 -49q57 0 107 22l23 167q3 17 -16 19l-65 10l-3 33h245zM476 764q0 -25 -15.5 -43t-40.5 -18q-26 0 -41.5 18t-15.5 43t15.5 42.5t41.5 17.5q25 0 40.5 -18t15.5 -42z" />
    <glyph glyph-name="gdotaccent" unicode="&#x121;" horiz-adv-x="427" 
d="M446 378l-117 23v-8q43 -49 43 -98q0 -65 -53.5 -113.5t-113.5 -48.5q-32 0 -66 13q-23 -6 -37 -21.5t-14 -30.5q0 -20 17.5 -32t67.5 -30l46 -16q72 -24 110 -52t38 -74q0 -55 -67 -96t-178 -41q-75 0 -128 33t-53 90q0 41 40.5 73t91.5 50v5q-48 26 -48 67q0 56 90 86
v5q-61 44 -61 121q0 76 58 127.5t137 51.5q46 0 115 -18h101zM312 340q0 31 -30.5 57t-61.5 26q-26 0 -48 -20q-24 -24 -38.5 -62t-13.5 -76q1 -59 28 -86q17 -17 37 -17q41 0 77 36q50 50 50 142zM308 -129q0 26 -26 43.5t-78 36.5q-11 4 -48.5 16.5t-56.5 20.5
q-96 -46 -96 -101q0 -41 46.5 -68.5t116.5 -27.5q58 0 100 23t42 57zM345 603q0 -25 -15.5 -43t-40.5 -18q-26 0 -41.5 18t-15.5 43t15.5 42.5t41.5 17.5q25 0 40.5 -18t15.5 -42z" />
    <glyph glyph-name="Gcommaaccent" unicode="&#x122;" horiz-adv-x="655" 
d="M366 -136q-10 -47 -50 -78t-90 -45l-12 18q72 21 85 78q2 11 1 20t-5 16t-9.5 12.5t-11.5 9.5t-10.5 6.5t-7.5 4.5l-3 1q4 20 20 32t41 9q28 -4 43 -29t9 -55zM626 275l-3 -33l-57 -10q-18 -4 -21 -19l-22 -152l56 -10l2 -27q-140 -39 -253 -39q-133 0 -205.5 74.5
t-72.5 200.5q0 77 29 149.5t82 125.5q104 104 245 104q71 0 132 -19l71 16l-27 -203h-41l-10 133q-61 34 -128 34q-109 0 -187 -99t-78 -245q0 -116 67 -183q47 -49 130 -49q57 0 107 22l23 167q3 17 -16 19l-65 10l-3 33h245z" />
    <glyph glyph-name="gcommaaccent" unicode="&#x123;" horiz-adv-x="427" 
d="M247 591q10 47 50 78t90 45l12 -18q-72 -21 -85 -78q-2 -11 -1 -20t5 -16t9.5 -12.5t11.5 -9.5t10.5 -6.5t7.5 -3.5l3 -2q-4 -20 -20 -32t-41 -9q-28 4 -43 29t-9 55zM446 378l-117 23v-8q43 -49 43 -98q0 -65 -53.5 -113.5t-113.5 -48.5q-32 0 -66 13q-23 -6 -37 -21.5
t-14 -30.5q0 -20 17.5 -32t67.5 -30l46 -16q72 -24 110 -52t38 -74q0 -55 -67 -96t-178 -41q-75 0 -128 33t-53 90q0 41 40.5 73t91.5 50v5q-48 26 -48 67q0 56 90 86v5q-61 44 -61 121q0 76 58 127.5t137 51.5q46 0 115 -18h101zM312 340q0 31 -30.5 57t-61.5 26
q-26 0 -48 -20q-24 -24 -38.5 -62t-13.5 -76q1 -59 28 -86q17 -17 37 -17q41 0 77 36q50 50 50 142zM308 -129q0 26 -26 43.5t-78 36.5q-11 4 -48.5 16.5t-56.5 20.5q-96 -46 -96 -101q0 -41 46.5 -68.5t116.5 -27.5q58 0 100 23t42 57z" />
    <glyph glyph-name="Hcircumflex" unicode="&#x124;" horiz-adv-x="717" 
d="M538 669h-21l-89 132h-2l-126 -132h-22l110 184h89zM645 0h-244l3 34l62 10q17 3 20 18l32 238h-304l-32 -238q-1 -14 16 -18l58 -10l3 -34h-244l3 34l61 10q18 3 20 18l67 501q3 14 -15 18l-58 10l-3 34h244l-3 -34l-62 -10q-17 -3 -20 -18l-29 -222h303l30 222
q1 9 -1.5 12.5t-13.5 5.5l-59 10l-3 34h245l-4 -34l-61 -10q-17 -3 -20 -18l-67 -501q-3 -14 15 -18l58 -10z" />
    <glyph glyph-name="hcircumflex" unicode="&#x125;" horiz-adv-x="491" 
d="M450 86q-19 -35 -57.5 -68t-65.5 -33q-18 0 -43.5 11t-25.5 21q0 19 52 192q40 128 40 148q0 17 -15 30.5t-33 13.5q-42 0 -184 -283l-22 -123l-74 5l35 147l91 443q3 17 -7 20l-69 22l3 25l163 40l-56 -234l-67 -288h9q91 193 148 253q33 34 69 34q28 0 51.5 -20.5
t23.5 -49.5q0 -39 -42 -181l-49 -165l29 -9l80 67zM311 718h-21l-89 132h-2l-126 -132h-22l110 184h89z" />
    <glyph glyph-name="Hbar" unicode="&#x126;" horiz-adv-x="717" 
d="M646 0h-245l3 34l62 10q17 3 20 19l32 237h-304l-31 -237q-3 -15 15 -19l58 -10l3 -34h-244l3 34l61 10q19 3 20 19l50 377h-96l6 38h96l11 85q3 14 -15 18l-58 10l-3 34h244l-3 -34l-62 -10q-17 -3 -20 -18l-11 -85h303l12 85q1 9 -1.5 12.5t-13.5 5.5l-59 10l-3 34h245
l-4 -34l-61 -10q-17 -3 -20 -18l-12 -85h83v-38h-88l-50 -377q-3 -15 15 -19l59 -10zM220 341h303l13 99h-303z" />
    <glyph glyph-name="hbar" unicode="&#x127;" horiz-adv-x="491" 
d="M450 86q-19 -35 -57.5 -68t-65.5 -33q-18 0 -43.5 11t-25.5 21q0 19 52 192q40 128 40 148q0 17 -15 30.5t-33 13.5q-44 0 -183 -282l-23 -124l-74 5l35 147l76 379h-69l7 36h71l6 28q3 17 -7 20l-69 22l3 25l163 40l-32 -135h107l-1 -36h-116l-14 -63l-67 -287h9
q95 196 148 252q33 35 69 35q28 0 51.5 -21t23.5 -50q0 -37 -42 -181l-49 -165l29 -9l80 67z" />
    <glyph glyph-name="Imacron" unicode="&#x12a;" horiz-adv-x="350" 
d="M277 0h-259l3 34l69 10q17 3 20 18l67 501q3 15 -15 18l-66 10l-3 34h258l-3 -34l-69 -10q-17 -3 -20 -18l-66 -501q-3 -15 15 -18l66 -10zM356 700h-247l7 41h240v-41z" />
    <glyph glyph-name="imacron" unicode="&#x12b;" horiz-adv-x="255" 
d="M234 86q-20 -35 -58.5 -68t-65.5 -33q-17 0 -43.5 11.5t-24.5 20.5l102 385l-30 5l-77 -80l-17 18q19 40 56.5 78.5t63.5 38.5q11 0 29 -4.5t32 -12.5t12 -15l-106 -384l30 -9l80 67zM302 539h-247l7 41h240v-41z" />
    <glyph glyph-name="Ibreve" unicode="&#x12c;" horiz-adv-x="350" 
d="M277 0h-259l3 34l69 10q17 3 20 18l67 501q3 15 -15 18l-66 10l-3 34h258l-3 -34l-69 -10q-17 -3 -20 -18l-66 -501q-3 -15 15 -18l66 -10zM390 853q-14 -42 -25.5 -67.5t-31 -57t-46 -47t-59.5 -15.5t-55 15.5t-33 47.5t-15.5 56.5t-8.5 67.5h23q17 -66 38.5 -102
t57.5 -36t66 35t66 103h23z" />
    <glyph glyph-name="ibreve" unicode="&#x12d;" horiz-adv-x="255" 
d="M234 86q-20 -35 -58.5 -68t-65.5 -33q-17 0 -43.5 11.5t-24.5 20.5l102 385l-30 5l-77 -80l-17 18q19 40 56.5 78.5t63.5 38.5q11 0 29 -4.5t32 -12.5t12 -15l-106 -384l30 -9l80 67zM337 692q-14 -42 -25.5 -67.5t-31 -57t-46 -47t-59.5 -15.5t-55 15.5t-33 47.5
t-15.5 56.5t-8.5 67.5h23q17 -66 38.5 -102t57.5 -36t66 35t66 103h23z" />
    <glyph glyph-name="Iogonek" unicode="&#x12e;" horiz-adv-x="350" 
d="M154 -210q-39 4 -59.5 27t-14.5 65q6 37 43 69t84 49h-189l3 34l69 10q17 3 20 19l67 500q3 15 -15 18l-66 10l-3 34h258l-3 -34l-69 -10q-17 -3 -20 -18l-66 -500q-3 -16 15 -19l66 -10l3 -34q-46 -9 -86 -40.5t-45 -64.5q-6 -53 39 -56q34 -2 54 15l9 -13
q-11 -23 -36.5 -38.5t-57.5 -12.5z" />
    <glyph glyph-name="iogonek" unicode="&#x12f;" horiz-adv-x="255" 
d="M72 -210q-38 4 -57.5 30t-11.5 66q6 31 31.5 59t58.5 46q-16 2 -30.5 11t-12.5 15l102 385l-30 5l-77 -80l-17 18q19 40 56.5 79t63.5 39q11 0 29 -5t32 -13t12 -15l-106 -384l30 -9l80 67l17 -18q-16 -29 -47.5 -58.5t-58.5 -42.5q-56 -30 -66 -86q-6 -24 2 -41t30 -19
q32 -3 55 15l9 -13q-11 -23 -36.5 -38.5t-57.5 -12.5zM277 616q0 -27 -15 -46t-35 -19q-23 0 -36.5 14.5t-13.5 36.5q0 27 15.5 46t35.5 19q23 0 36 -14.5t13 -36.5z" />
    <glyph glyph-name="Idotaccent" unicode="&#x130;" horiz-adv-x="350" 
d="M277 0h-259l3 34l69 10q17 3 20 18l67 501q3 15 -15 18l-66 10l-3 34h258l-3 -34l-69 -10q-17 -3 -20 -18l-66 -501q-3 -15 15 -18l66 -10zM296 764q0 -25 -15.5 -43t-40.5 -18q-26 0 -41.5 18t-15.5 43t15.5 42.5t41.5 17.5q25 0 40.5 -18t15.5 -42z" />
    <glyph glyph-name="dotlessi" unicode="&#x131;" horiz-adv-x="255" 
d="M234 86q-20 -35 -58.5 -68t-65.5 -33q-17 0 -43.5 11.5t-24.5 20.5l102 385l-30 5l-77 -80l-17 18q19 40 56.5 78.5t63.5 38.5q11 0 29 -4.5t32 -12.5t12 -15l-106 -384l30 -9l80 67z" />
    <glyph glyph-name="Jcircumflex" unicode="&#x134;" horiz-adv-x="391" 
d="M413 669h-21l-89 132h-2l-126 -132h-22l110 184h89zM415 625l-3 -34l-68 -10q-18 -3 -20 -18l-43 -325q-17 -126 -70 -189.5t-134 -63.5q-44 0 -73 18t-28 47q1 20 14 32t34 12q58 -2 68 -76h1q42 8 65 51.5t38 158.5l45 335q2 15 -15 18l-75 10l-3 34h267z" />
    <glyph glyph-name="jcircumflex" unicode="&#x135;" horiz-adv-x="244" 
d="M211 430l-85 -367q-26 -113 -51.5 -182.5t-60.5 -104.5q-38 -38 -82 -38q-26 0 -45.5 15t-19.5 39q-1 20 13.5 33.5t34.5 13.5q40 0 58 -49l20 4q29 53 67 234l82 374l-30 5l-77 -80l-17 18q19 40 56.5 78.5t63.5 38.5q11 0 29 -4.5t32 -12.5t12 -15zM298 508h-21
l-89 132h-2l-126 -132h-22l110 184h89z" />
    <glyph glyph-name="Kcommaaccent" unicode="&#x136;" horiz-adv-x="632" 
d="M353 -136q-10 -47 -50 -78t-90 -45l-12 18q72 21 85 78q2 11 1 20t-5 16t-9.5 12.5t-11.5 9.5t-10.5 6.5t-7.5 4.5l-3 1q4 20 20 32t41 9q28 -4 43 -29t9 -55zM596 0h-215l3 34l40 9q13 3 3 19l-139 252l-84 -72l-23 -180q-3 -14 15 -18l59 -10l3 -34h-245l3 34l62 10
q17 3 20 18l67 501q3 14 -15 18l-58 10l-3 34h244l-4 -34l-61 -10q-17 -3 -20 -18l-35 -265l225 204q6 5 14.5 13t13 12.5t10.5 10t9 9t6 8t4.5 7t1.5 5.5q0 11 -20 18l-41 7l-3 34h237l-3 -33l-30 -4q-38 -6 -94 -52l-196 -175l168 -290q8 -12 15 -18.5t11.5 -8t15.5 -4.5
l36 -7z" />
    <glyph glyph-name="kcommaaccent" unicode="&#x137;" horiz-adv-x="432" 
d="M224 -136q-10 -47 -50 -78t-90 -45l-12 18q72 21 85 78q2 11 1 20t-5 16t-9.5 12.5t-11.5 9.5t-10.5 6.5t-7.5 4.5l-3 1q4 20 20 32t41 9q28 -4 43 -29t9 -55zM288 -15q-10 0 -29 10.5t-21 17.5l-69 222l-39 -18l-37 -222l-73 5l37 147l91 443q3 17 -7 20l-69 22l3 25
l163 40l-56 -234l-52 -216h6l198 108l8 14q-40 9 -40 46q0 20 16.5 35t37.5 15q23 0 39 -17t16 -37q0 -39 -23.5 -63.5t-79.5 -50.5l-85 -39l73 -214h22l71 71l17 -18q-19 -39 -55 -75.5t-63 -36.5z" />
    <glyph glyph-name="Lacute" unicode="&#x139;" horiz-adv-x="549" 
d="M397 853l-190 -184h-23l119 184h94zM512 199l-48 -199h-451l3 34l62 10q17 3 20 18l66 501q3 15 -15 18l-60 10l-3 34h255l-3 -34l-71 -10q-17 -2 -20 -18l-69 -526h20q100 0 141 3.5t56 11t23 28.5l47 119h47z" />
    <glyph glyph-name="lacute" unicode="&#x13a;" horiz-adv-x="245" 
d="M361 903l-190 -184h-23l119 184h94zM219 86q-19 -35 -57.5 -68t-65.5 -33q-10 0 -27 5.5t-30 13t-12 13.5l122 573q3 17 -7 20l-69 22l4 25l160 40l-145 -651l30 -9l80 67z" />
    <glyph glyph-name="Lcommaaccent" unicode="&#x13b;" horiz-adv-x="549" 
d="M304 -136q-10 -47 -50 -78t-90 -45l-12 18q72 21 85 78q2 11 1 20t-5 16t-9.5 12.5t-11.5 9.5t-10.5 6.5t-7.5 4.5l-3 1q4 20 20 32t41 9q28 -4 43 -29t9 -55zM512 199l-48 -199h-451l3 34l62 10q17 3 20 18l66 501q3 15 -15 18l-60 10l-3 34h255l-3 -34l-71 -10
q-17 -2 -20 -18l-69 -526h20q100 0 141 3.5t56 11t23 28.5l47 119h47z" />
    <glyph glyph-name="lcommaaccent" unicode="&#x13c;" horiz-adv-x="245" 
d="M128 -136q-10 -47 -50 -78t-90 -45l-12 18q72 21 85 78q2 11 1 20t-5 16t-9.5 12.5t-11.5 9.5t-10.5 6.5t-7.5 4.5l-3 1q4 20 20 32t41 9q28 -4 43 -29t9 -55zM218 86q-19 -35 -57.5 -68t-65.5 -33q-10 0 -27 5.5t-30 13t-12 13.5l122 573q3 17 -7 20l-69 22l4 25l160 40
l-145 -651l30 -9l80 67z" />
    <glyph glyph-name="Lcaron" unicode="&#x13d;" horiz-adv-x="648" 
d="M693 548q-3 -99 -164 -189l-20 18q98 59 102 129q1 15 -5.5 29t-16 23t-19 15.5t-16.5 10.5l-7 3q1 22 19.5 37t44.5 15q34 0 58.5 -26.5t23.5 -64.5zM512 199l-48 -199h-451l3 34l62 10q17 3 20 18l66 501q3 15 -15 18l-60 10l-3 34h255l-3 -34l-71 -10q-17 -2 -20 -18
l-69 -526h20q100 0 141 3.5t56 11t23 28.5l47 119h47z" />
    <glyph glyph-name="lcaron" unicode="&#x13e;" horiz-adv-x="427" 
d="M446 606q-3 -99 -164 -189l-20 18q98 59 102 129q1 15 -5.5 29t-16 23t-19 15.5t-16.5 10.5l-7 3q1 22 19.5 37t44.5 15q34 0 58.5 -26.5t23.5 -64.5zM219 86q-19 -35 -57.5 -68t-65.5 -33q-10 0 -27 5.5t-30 13t-12 13.5l122 573q3 17 -7 20l-69 22l4 25l160 40
l-145 -651l30 -9l80 67z" />
    <glyph glyph-name="Ldot" unicode="&#x13f;" horiz-adv-x="657" 
d="M693 294q0 -25 -17.5 -43t-43.5 -18q-27 0 -45 18t-17 43q0 24 18 42t44 18q27 0 44.5 -18t16.5 -42zM512 199l-48 -199h-451l3 34l62 10q17 3 20 18l66 501q3 15 -15 18l-60 10l-3 34h255l-3 -34l-71 -10q-17 -2 -20 -18l-69 -526h20q100 0 141 3.5t56 11t23 28.5
l47 119h47z" />
    <glyph glyph-name="ldotaccent" unicode="&#x140;" horiz-adv-x="382" 
d="M422 312q0 -25 -17.5 -43t-43.5 -18q-27 0 -45 18t-17 43q0 24 18 42t44 18q27 0 44.5 -18t16.5 -42zM219 86q-19 -35 -57.5 -68t-65.5 -33q-10 0 -27 5.5t-30 13t-12 13.5l122 573q3 17 -7 20l-69 22l4 25l160 40l-145 -651l30 -9l80 67z" />
    <glyph glyph-name="Lslash" unicode="&#x141;" horiz-adv-x="549" 
d="M117 203l-80 -21v41l85 23l42 317q3 15 -15 18l-60 10l-3 34h255l-3 -34l-71 -10q-17 -2 -20 -18l-39 -294l111 29v-42q-116 -31 -117 -31l-6 -47l-12 -94l-6 -47h20q100 0 141 3.5t56 11t23 28.5l47 119h47l-48 -199h-451l3 34l62 10q17 3 20 18z" />
    <glyph glyph-name="lslash" unicode="&#x142;" horiz-adv-x="265" 
d="M86 203l-20 -5l-42 -12l-20 -5v41q6 2 15.5 4.5t29.5 8t33 9.5l13 3l73 343q3 17 -7 20l-69 22l4 25l160 40l-95 -432l80 22v-42l-90 -24q-37 -166 -40 -175l30 -9l80 67l17 -18q-19 -35 -57.5 -68t-65.5 -33q-16 0 -41.5 18.5t-23.5 27.5z" />
    <glyph glyph-name="Nacute" unicode="&#x143;" horiz-adv-x="700" 
d="M572 853l-190 -184h-23l119 184h94zM731 625l-3 -34l-61 -8q-15 -3 -22 -11.5t-14 -37.5t-16 -93l-60 -449h-50l-288 550h-4l-46 -358q-7 -53 -9.5 -76.5t-1 -40t6.5 -20t17 -5.5l58 -8l3 -34h-233l3 34l61 8q22 4 30.5 27t21.5 115l44 330q4 32 -1 46t-22 18l-55 13
l-3 34h177l261 -502h4l43 318q15 115 9 130q-5 9 -21 12l-59 8l-3 34h233z" />
    <glyph glyph-name="nacute" unicode="&#x144;" horiz-adv-x="509" 
d="M451 692l-190 -184h-23l119 184h94zM482 86q-19 -35 -58 -68t-66 -33q-17 0 -42.5 11t-25.5 21q0 19 52 192q39 132 39 148q0 17 -15 30.5t-33 13.5q-43 0 -183 -283l-23 -123l-73 5l34 147l53 251l-29 6l-79 -77l-16 18q19 40 56.5 78.5t63.5 38.5q17 0 44.5 -11
t27.5 -21q0 -9 -63 -255h10q94 197 147 253q33 34 69 34q29 0 52 -20.5t23 -49.5q0 -45 -42 -181q-44 -147 -50 -165l30 -9l80 67z" />
    <glyph glyph-name="Ncommaaccent" unicode="&#x145;" horiz-adv-x="700" 
d="M379 -136q-10 -47 -50 -78t-90 -45l-12 18q72 21 85 78q2 11 1 20t-5 16t-9.5 12.5t-11.5 9.5t-10.5 6.5t-7.5 4.5l-3 1q4 20 20 32t41 9q28 -4 43 -29t9 -55zM731 625l-3 -34l-61 -8q-15 -3 -22 -11.5t-14 -37.5t-16 -93l-60 -449h-50l-288 550h-4l-46 -358
q-7 -53 -9.5 -76.5t-1 -40t6.5 -20t17 -5.5l58 -8l3 -34h-233l3 34l61 8q22 4 30.5 27t21.5 115l44 330q4 32 -1 46t-22 18l-55 13l-3 34h177l261 -502h4l43 318q15 115 9 130q-5 9 -21 12l-59 8l-3 34h233z" />
    <glyph glyph-name="ncommaaccent" unicode="&#x146;" horiz-adv-x="509" 
d="M261 -136q-10 -47 -50 -78t-90 -45l-12 18q72 21 85 78q2 11 1 20t-5 16t-9.5 12.5t-11.5 9.5t-10.5 6.5t-7.5 4.5l-3 1q4 20 20 32t41 9q28 -4 43 -29t9 -55zM482 86q-19 -35 -58 -68t-66 -33q-17 0 -42.5 11t-25.5 21q0 19 52 192q39 132 39 148q0 17 -15 30.5
t-33 13.5q-43 0 -183 -283l-23 -123l-73 5l34 147l53 251l-29 6l-79 -77l-16 18q19 40 56.5 78.5t63.5 38.5q17 0 44.5 -11t27.5 -21q0 -9 -63 -255h10q94 197 147 253q33 34 69 34q29 0 52 -20.5t23 -49.5q0 -45 -42 -181q-44 -147 -50 -165l30 -9l80 67z" />
    <glyph glyph-name="Ncaron" unicode="&#x147;" horiz-adv-x="700" 
d="M559 853l-110 -184h-89l-61 184h21l90 -131h2l125 131h22zM731 625l-3 -34l-61 -8q-15 -3 -22 -11.5t-14 -37.5t-16 -93l-60 -449h-50l-288 550h-4l-46 -358q-7 -53 -9.5 -76.5t-1 -40t6.5 -20t17 -5.5l58 -8l3 -34h-233l3 34l61 8q22 4 30.5 27t21.5 115l44 330
q4 32 -1 46t-22 18l-55 13l-3 34h177l261 -502h4l43 318q15 115 9 130q-5 9 -21 12l-59 8l-3 34h233z" />
    <glyph glyph-name="ncaron" unicode="&#x148;" horiz-adv-x="509" 
d="M438 692l-110 -184h-89l-61 184h21l90 -131h2l125 131h22zM482 86q-19 -35 -58 -68t-66 -33q-17 0 -42.5 11t-25.5 21q0 19 52 192q39 132 39 148q0 17 -15 30.5t-33 13.5q-43 0 -183 -283l-23 -123l-73 5l34 147l53 251l-29 6l-79 -77l-16 18q19 40 56.5 78.5t63.5 38.5
q17 0 44.5 -11t27.5 -21q0 -9 -63 -255h10q94 197 147 253q33 34 69 34q29 0 52 -20.5t23 -49.5q0 -45 -42 -181q-44 -147 -50 -165l30 -9l80 67z" />
    <glyph glyph-name="Omacron" unicode="&#x14c;" horiz-adv-x="688" 
d="M517 700h-247l7 41h240v-41zM662 346q0 -75 -26.5 -144t-75.5 -119q-93 -98 -227 -98q-125 0 -204 83.5t-79 208.5q0 143 86 248q96 114 243 114q124 0 203.5 -84t79.5 -209zM572 358q0 124 -64 188q-52 54 -138 54q-57 0 -103 -32.5t-72.5 -83.5t-40.5 -107t-14 -110
q0 -124 65 -189q53 -53 137 -53q57 0 103 32.5t72.5 83.5t40.5 107t14 110z" />
    <glyph glyph-name="omacron" unicode="&#x14d;" horiz-adv-x="437" 
d="M399 539h-247l7 41h240v-41zM402 270q0 -103 -65 -194t-156 -91q-73 0 -110.5 54t-37.5 138q0 66 28 131t80 109.5t113 44.5q73 0 110.5 -54t37.5 -138zM333 298q0 55 -20.5 94t-61.5 39q-46 0 -82.5 -56t-53.5 -118q-14 -53 -14 -102q0 -56 20.5 -97.5t61.5 -41.5
q34 0 64 33t46.5 70.5t26.5 75.5q13 55 13 103z" />
    <glyph glyph-name="Obreve" unicode="&#x14e;" horiz-adv-x="688" 
d="M662 346q0 -75 -26.5 -144t-75.5 -119q-93 -98 -227 -98q-125 0 -204 83.5t-79 208.5q0 143 86 248q96 114 243 114q124 0 203.5 -84t79.5 -209zM572 358q0 124 -64 188q-52 54 -138 54q-57 0 -103 -32.5t-72.5 -83.5t-40.5 -107t-14 -110q0 -124 65 -189q53 -53 137 -53
q57 0 103 32.5t72.5 83.5t40.5 107t14 110zM561 853q-14 -42 -25.5 -67.5t-31 -57t-46 -47t-59.5 -15.5t-55 15.5t-33 47.5t-15.5 56.5t-8.5 67.5h23q17 -66 38.5 -102t57.5 -36t66 35t66 103h23z" />
    <glyph glyph-name="obreve" unicode="&#x14f;" horiz-adv-x="437" 
d="M402 270q0 -103 -65 -194t-156 -91q-73 0 -110.5 54t-37.5 138q0 66 28 131t80 109.5t113 44.5q73 0 110.5 -54t37.5 -138zM333 298q0 55 -20.5 94t-61.5 39q-46 0 -82.5 -56t-53.5 -118q-14 -53 -14 -102q0 -56 20.5 -97.5t61.5 -41.5q34 0 64 33t46.5 70.5t26.5 75.5
q13 55 13 103zM424 692q-14 -42 -25.5 -67.5t-31 -57t-46 -47t-59.5 -15.5t-55 15.5t-33 47.5t-15.5 56.5t-8.5 67.5h23q17 -66 38.5 -102t57.5 -36t66 35t66 103h23z" />
    <glyph glyph-name="Ohungarumlaut" unicode="&#x150;" horiz-adv-x="688" 
d="M606 853l-173 -184h-22l111 184h84zM455 853l-172 -184h-23l111 184h84zM662 346q0 -75 -26.5 -144t-75.5 -119q-93 -98 -227 -98q-125 0 -204 83.5t-79 208.5q0 143 86 248q96 114 243 114q124 0 203.5 -84t79.5 -209zM572 358q0 124 -64 188q-52 54 -138 54
q-57 0 -103 -32.5t-72.5 -83.5t-40.5 -107t-14 -110q0 -124 65 -189q53 -53 137 -53q57 0 103 32.5t72.5 83.5t40.5 107t14 110z" />
    <glyph glyph-name="ohungarumlaut" unicode="&#x151;" horiz-adv-x="437" 
d="M487 692l-173 -184h-22l111 184h84zM336 692l-172 -184h-23l111 184h84zM402 270q0 -103 -65 -194t-156 -91q-73 0 -110.5 54t-37.5 138q0 66 28 131t80 109.5t113 44.5q73 0 110.5 -54t37.5 -138zM333 298q0 55 -20.5 94t-61.5 39q-46 0 -82.5 -56t-53.5 -118
q-14 -53 -14 -102q0 -56 20.5 -97.5t61.5 -41.5q34 0 64 33t46.5 70.5t26.5 75.5q13 55 13 103z" />
    <glyph glyph-name="OE" unicode="&#x152;" horiz-adv-x="898" 
d="M857 177l-42 -177h-468q-136 0 -216.5 75t-80.5 200q0 144 98 242q51 51 128 79.5t168 28.5h453l-31 -181h-36l-9 101q-3 25 -19 32q-26 11 -188 11h-34l-34 -251h34q61 0 81.5 5t29.5 19l24 62h34l-49 -208h-33l4 64q1 9 -4.5 13t-27 6.5t-66.5 2.5h-32l-35 -264h23
q110 0 155 3.5t60.5 11t24.5 28.5l40 97h48zM494 574l-73 14q-123 -5 -202 -88t-79 -228q0 -109 58.5 -172t167.5 -63h57z" />
    <glyph glyph-name="oe" unicode="&#x153;" horiz-adv-x="654" 
d="M653 375q0 -39 -37 -67t-168 -97q-13 -7 -20.5 -11t-19.5 -10t-22 -12v-26q0 -54 26 -84t63 -30t121 64l14 -18q-87 -99 -161 -99q-43 0 -73 23.5t-42 63.5q-63 -87 -153 -87q-74 0 -111 53.5t-37 138.5q0 104 63.5 194.5t157.5 90.5q102 0 131 -106q31 49 73.5 77.5
t89.5 28.5q46 0 75.5 -26t29.5 -61zM333 298q0 55 -20.5 94t-61.5 39q-46 0 -82.5 -56t-53.5 -118q-14 -53 -14 -102q0 -56 20.5 -97.5t61.5 -41.5q34 0 64 33t46.5 70.5t26.5 75.5q13 55 13 103zM390 208q124 67 161.5 98t37.5 66q0 18 -29 32.5t-53 14.5q-21 0 -39 -16
q-21 -22 -44 -75.5t-36 -119.5h2z" />
    <glyph glyph-name="Racute" unicode="&#x154;" horiz-adv-x="593" 
d="M491 853l-190 -184h-23l119 184h94zM562 0h-138l-33 69l-101 206l-80 3l-29 -216q-3 -15 15 -18l65 -10l3 -34h-250l3 34l61 10q17 3 20 18l66 501q3 14 -15 18l-59 10l-3 34h258q98 0 151 -41.5t53 -106.5q0 -72 -48 -121.5t-131 -71.5l109 -201q9 -18 17.5 -27.5
t12 -11t12.5 -3.5l38 -7zM457 461q0 60 -40.5 94t-113.5 33l-53 -1l-34 -266l86 -13q71 9 113 48.5t42 104.5z" />
    <glyph glyph-name="racute" unicode="&#x155;" horiz-adv-x="393" 
d="M420 692l-190 -184h-23l119 184h94zM332 401l-17 6q-20 -18 -78 -122t-87 -167l-23 -123l-73 5l34 147l53 255l-30 5l-77 -80l-17 18q19 40 56.5 78.5t63.5 38.5q18 0 45 -11t27 -21q0 -27 -64 -255h13q20 54 56.5 129t58.5 102q27 34 43 45t41 11q26 0 43 -17.5
t17 -42.5t-13.5 -41t-33.5 -16q-22 0 -33.5 15t-4.5 41z" />
    <glyph glyph-name="Rcommaaccent" unicode="&#x156;" horiz-adv-x="593" 
d="M364 -136q-10 -47 -50 -78t-90 -45l-12 18q72 21 85 78q2 11 1 20t-5 16t-9.5 12.5t-11.5 9.5t-10.5 6.5t-7.5 4.5l-3 1q4 20 20 32t41 9q28 -4 43 -29t9 -55zM562 0h-138l-33 69l-101 206l-80 3l-29 -216q-3 -15 15 -18l65 -10l3 -34h-250l3 34l61 10q17 3 20 18l66 501
q3 14 -15 18l-59 10l-3 34h258q98 0 151 -41.5t53 -106.5q0 -72 -48 -121.5t-131 -71.5l109 -201q9 -18 17.5 -27.5t12 -11t12.5 -3.5l38 -7zM457 461q0 60 -40.5 94t-113.5 33l-53 -1l-34 -266l86 -13q71 9 113 48.5t42 104.5z" />
    <glyph glyph-name="rcommaaccent" unicode="&#x157;" horiz-adv-x="393" 
d="M140 -136q-10 -47 -50 -78t-90 -45l-12 18q72 21 85 78q2 11 1 20t-5 16t-9.5 12.5t-11.5 9.5t-10.5 6.5t-7.5 4.5l-3 1q4 20 20 32t41 9q28 -4 43 -29t9 -55zM332 401l-17 6q-20 -18 -78 -122t-87 -167l-23 -123l-73 5l34 147l53 255l-30 5l-77 -80l-17 18
q19 40 56.5 78.5t63.5 38.5q18 0 45 -11t27 -21q0 -27 -64 -255h13q20 54 56.5 129t58.5 102q27 34 43 45t41 11q26 0 43 -17.5t17 -42.5t-13.5 -41t-33.5 -16q-22 0 -33.5 15t-4.5 41z" />
    <glyph glyph-name="Rcaron" unicode="&#x158;" horiz-adv-x="593" 
d="M480 853l-110 -184h-89l-61 184h21l90 -131h2l125 131h22zM562 0h-138l-33 69l-101 206l-80 3l-29 -216q-3 -15 15 -18l65 -10l3 -34h-250l3 34l61 10q17 3 20 18l66 501q3 14 -15 18l-59 10l-3 34h258q98 0 151 -41.5t53 -106.5q0 -72 -48 -121.5t-131 -71.5l109 -201
q9 -18 17.5 -27.5t12 -11t12.5 -3.5l38 -7zM457 461q0 60 -40.5 94t-113.5 33l-53 -1l-34 -266l86 -13q71 9 113 48.5t42 104.5z" />
    <glyph glyph-name="rcaron" unicode="&#x159;" horiz-adv-x="393" 
d="M399 692l-110 -184h-89l-61 184h21l90 -131h2l125 131h22zM332 401l-17 6q-20 -18 -78 -122t-87 -167l-23 -123l-73 5l34 147l53 255l-30 5l-77 -80l-17 18q19 40 56.5 78.5t63.5 38.5q18 0 45 -11t27 -21q0 -27 -64 -255h13q20 54 56.5 129t58.5 102q27 34 43 45t41 11
q26 0 43 -17.5t17 -42.5t-13.5 -41t-33.5 -16q-22 0 -33.5 15t-4.5 41z" />
    <glyph glyph-name="Sacute" unicode="&#x15a;" horiz-adv-x="494" 
d="M449 853l-190 -184h-23l119 184h94zM436 169q0 -84 -67.5 -134t-166.5 -50q-98 0 -182 27l10 177h39l25 -138q48 -25 123 -25q64 0 103.5 30t39.5 84q0 26 -9 47.5t-30.5 40.5t-40.5 31.5t-54 33.5q-50 30 -76.5 50t-47 55t-20.5 79q0 73 64.5 117.5t147.5 44.5
q67 0 131 -14l53 13l-26 -192h-41l-10 125q-52 27 -122 27q-48 0 -85 -24.5t-37 -68.5q-1 -50 31.5 -82.5t103.5 -73.5q34 -20 55 -34.5t44 -36.5t34 -49t11 -60z" />
    <glyph glyph-name="sacute" unicode="&#x15b;" horiz-adv-x="340" 
d="M382 692l-190 -184h-23l119 184h94zM334 391q0 -21 -13 -34.5t-33 -13.5q-16 0 -26 11.5t-10 27.5q0 11 5 23q-47 20 -84 21q-20 -6 -36 -27t-17 -42q-1 -18 11 -38.5t23 -31.5t42 -41q26 -25 40 -40.5t31 -44.5t15 -53q-4 -54 -53 -88.5t-105 -34.5q-128 0 -128 73
q0 20 13 33.5t34 13.5q16 0 26 -11.5t10 -27.5q0 -10 -6 -22q45 -20 94 -23q20 8 37 30t18 43q1 17 -11.5 37.5t-26 34t-39.5 37.5q-89 84 -86 138q4 56 52.5 88.5t103.5 32.5q119 0 119 -71z" />
    <glyph glyph-name="Scircumflex" unicode="&#x15c;" horiz-adv-x="494" 
d="M424 669h-21l-89 132h-2l-126 -132h-22l110 184h89zM436 169q0 -84 -67.5 -134t-166.5 -50q-98 0 -182 27l10 177h39l25 -138q48 -25 123 -25q64 0 103.5 30t39.5 84q0 26 -9 47.5t-30.5 40.5t-40.5 31.5t-54 33.5q-50 30 -76.5 50t-47 55t-20.5 79q0 73 64.5 117.5
t147.5 44.5q67 0 131 -14l53 13l-26 -192h-41l-10 125q-52 27 -122 27q-48 0 -85 -24.5t-37 -68.5q-1 -50 31.5 -82.5t103.5 -73.5q34 -20 55 -34.5t44 -36.5t34 -49t11 -60z" />
    <glyph glyph-name="scircumflex" unicode="&#x15d;" horiz-adv-x="340" 
d="M355 508h-21l-89 132h-2l-126 -132h-22l110 184h89zM334 391q0 -21 -13 -34.5t-33 -13.5q-16 0 -26 11.5t-10 27.5q0 11 5 23q-47 20 -84 21q-20 -6 -36 -27t-17 -42q-1 -18 11 -38.5t23 -31.5t42 -41q26 -25 40 -40.5t31 -44.5t15 -53q-4 -54 -53 -88.5t-105 -34.5
q-128 0 -128 73q0 20 13 33.5t34 13.5q16 0 26 -11.5t10 -27.5q0 -10 -6 -22q45 -20 94 -23q20 8 37 30t18 43q1 17 -11.5 37.5t-26 34t-39.5 37.5q-89 84 -86 138q4 56 52.5 88.5t103.5 32.5q119 0 119 -71z" />
    <glyph glyph-name="Scedilla" unicode="&#x15e;" horiz-adv-x="494" 
d="M98 -267l-4 22q168 23 168 95q0 47 -78 47q-26 0 -59 -5l2 17l81 76h-6q-98 0 -182 27l10 177h39l25 -138q48 -25 123 -25q64 0 103.5 30t39.5 84q0 26 -9 47.5t-30.5 40.5t-40.5 31.5t-54 33.5q-50 30 -76.5 50t-47 55t-20.5 79q0 73 64.5 117.5t147.5 44.5
q67 0 131 -14l53 13l-26 -192h-41l-10 125q-52 27 -122 27q-48 0 -85 -24.5t-37 -68.5q-1 -50 31.5 -82.5t103.5 -73.5q34 -20 55 -34.5t44 -36.5t34 -49t11 -60q0 -72 -51 -119.5t-132 -60.5l-52 -48q54 2 86.5 -19t32.5 -59q0 -52 -60 -87.5t-162 -42.5z" />
    <glyph glyph-name="scedilla" unicode="&#x15f;" horiz-adv-x="340" 
d="M7 -267l-4 22q168 23 168 95q0 47 -78 47q-26 0 -59 -5l2 17l81 76q-121 2 -121 73q0 20 13 33.5t34 13.5q16 0 26 -11.5t10 -27.5q0 -10 -6 -22q45 -20 94 -23q20 8 37 30t18 43q1 17 -11.5 37.5t-26 34t-39.5 37.5q-89 84 -86 138q4 56 52.5 88.5t103.5 32.5
q119 0 119 -71q0 -21 -13 -34.5t-33 -13.5q-16 0 -26 11.5t-10 27.5q0 11 5 23q-47 20 -84 21q-20 -6 -36 -27t-17 -42q-1 -18 11 -38.5t23 -31.5t42 -41q26 -25 40 -40.5t31 -44.5t15 -53q-3 -45 -37.5 -76t-81.5 -42l-53 -49q54 2 86.5 -19t32.5 -59q0 -52 -60 -87.5
t-162 -42.5z" />
    <glyph glyph-name="Scaron" unicode="&#x160;" horiz-adv-x="494" 
d="M436 169q0 -84 -67.5 -134t-166.5 -50q-98 0 -182 27l10 177h39l25 -138q48 -25 123 -25q64 0 103.5 30t39.5 84q0 26 -9 47.5t-30.5 40.5t-40.5 31.5t-54 33.5q-50 30 -76.5 50t-47 55t-20.5 79q0 73 64.5 117.5t147.5 44.5q67 0 131 -14l53 13l-26 -192h-41l-10 125
q-52 27 -122 27q-48 0 -85 -24.5t-37 -68.5q-1 -50 31.5 -82.5t103.5 -73.5q34 -20 55 -34.5t44 -36.5t34 -49t11 -60zM458 864l-110 -184h-89l-61 184h21l90 -131h2l125 131h22z" />
    <glyph glyph-name="scaron" unicode="&#x161;" horiz-adv-x="340" 
d="M334 391q0 -21 -13 -34.5t-33 -13.5q-16 0 -26 11.5t-10 27.5q0 11 5 23q-47 20 -84 21q-20 -6 -36 -27t-17 -42q-1 -18 11 -38.5t23 -31.5t42 -41q26 -25 40 -40.5t31 -44.5t15 -53q-4 -54 -53 -88.5t-105 -34.5q-128 0 -128 73q0 20 13 33.5t34 13.5q16 0 26 -11.5
t10 -27.5q0 -10 -6 -22q45 -20 94 -23q20 8 37 30t18 43q1 17 -11.5 37.5t-26 34t-39.5 37.5q-89 84 -86 138q4 56 52.5 88.5t103.5 32.5q119 0 119 -71zM377 692l-110 -184h-89l-61 184h21l90 -131h2l125 131h22z" />
    <glyph glyph-name="Tcommaaccent" unicode="&#x162;" horiz-adv-x="614" 
d="M602 433h-41l-9 105q-2 21 -10 30t-40 14.5t-102 5.5h-7l-69 -526q-3 -15 15 -18l74 -10l3 -34h-277l4 34l78 10q16 1 20 18l69 526h-7q-100 0 -126 -7t-39 -36l-41 -112h-47l42 192h535zM329 -136q-10 -47 -50 -78t-90 -45l-12 18q72 21 85 78q2 11 1 20t-5 16
t-9.5 12.5t-11.5 9.5t-10.5 6.5t-7.5 4.5l-3 1q4 20 20 32t41 9q28 -4 43 -29t9 -55z" />
    <glyph glyph-name="tcommaaccent" unicode="&#x163;" horiz-adv-x="296" 
d="M154 -140q-10 -47 -50 -78t-90 -45l-12 18q72 21 85 78q2 11 1 20t-5 16t-9.5 12.5t-11.5 9.5t-10.5 6.5t-7.5 4.5l-3 1q4 20 20 32t41 9q28 -4 43 -29t9 -55zM132 461l24 124h64l-27 -137h123l3 -45h-135l-75 -357l30 -9l80 67l17 -18q-20 -35 -58.5 -68t-65.5 -33
q-18 0 -44 9.5t-24 18.5l78 387l-83 4l3 29l15 5q9 3 29 9t33 10z" />
    <glyph glyph-name="Tcaron" unicode="&#x164;" horiz-adv-x="614" 
d="M602 433h-41l-9 105q-2 21 -10 30t-40 14.5t-102 5.5h-7l-69 -526q-3 -15 15 -18l74 -10l3 -34h-277l4 34l78 10q16 1 20 18l69 526h-7q-100 0 -126 -7t-39 -36l-41 -112h-47l42 192h535zM516 853l-110 -184h-89l-61 184h21l90 -131h2l125 131h22z" />
    <glyph glyph-name="tcaron" unicode="&#x165;" horiz-adv-x="368" 
d="M390 640q-2 -81 -133 -154l-17 15q80 47 83 105q1 13 -4.5 24t-13 18t-15.5 12.5t-14 8.5l-5 3q1 17 16 29.5t36 12.5q28 0 48 -21.5t19 -52.5zM132 461l24 124h64l-27 -137h123l3 -45h-135l-75 -357l30 -9l80 67l17 -18q-20 -35 -58.5 -68t-65.5 -33q-18 0 -44 9.5
t-24 18.5l78 387l-83 4l3 29l15 5q9 3 29 9t33 10z" />
    <glyph glyph-name="Umacron" unicode="&#x16a;" horiz-adv-x="712" 
d="M733 625l-3 -34l-61 -8q-15 -3 -22 -11.5t-14 -37t-16 -93.5l-33 -242q-15 -106 -83 -160t-171 -54q-100 0 -161.5 48.5t-61.5 140.5q0 19 5 66l45 323q2 14 -16 18l-58 10l-3 34h245l-3 -34l-62 -10q-18 -3 -20 -18l-43 -318q-5 -35 -5 -55q0 -78 44.5 -116.5
t122.5 -38.5q159 0 184 173l31 233q7 52 10 76.5t1 40.5t-6.5 19.5t-16.5 5.5l-59 8l-3 34h233zM547 700h-247l7 41h240v-41z" />
    <glyph glyph-name="umacron" unicode="&#x16b;" horiz-adv-x="509" 
d="M29 345q20 40 57.5 78.5t63.5 38.5q17 0 43.5 -11t26.5 -21q0 -19 -52 -192q-40 -128 -40 -147q0 -17 15 -31t33 -14q42 0 184 283l24 123l73 -5l-35 -147q-47 -231 -54 -254l30 -9l79 67l17 -18q-19 -35 -57.5 -68t-65.5 -33q-18 0 -44 11t-26 21q0 13 62 255h-9
q-93 -194 -148 -253q-33 -34 -72 -34q-28 0 -50 20.5t-22 49.5q0 39 42 181l49 166l-30 5l-77 -80zM428 539h-247l7 41h240v-41z" />
    <glyph glyph-name="Ubreve" unicode="&#x16c;" horiz-adv-x="712" 
d="M733 625l-3 -34l-61 -8q-15 -3 -22 -11.5t-14 -37t-16 -93.5l-33 -242q-15 -106 -83 -160t-171 -54q-100 0 -161.5 48.5t-61.5 140.5q0 19 5 66l45 323q2 14 -16 18l-58 10l-3 34h245l-3 -34l-62 -10q-18 -3 -20 -18l-43 -318q-5 -35 -5 -55q0 -78 44.5 -116.5
t122.5 -38.5q159 0 184 173l31 233q7 52 10 76.5t1 40.5t-6.5 19.5t-16.5 5.5l-59 8l-3 34h233zM582 853q-14 -42 -25.5 -67.5t-31 -57t-46 -47t-59.5 -15.5t-55 15.5t-33 47.5t-15.5 56.5t-8.5 67.5h23q17 -66 38.5 -102t57.5 -36t66 35t66 103h23z" />
    <glyph glyph-name="ubreve" unicode="&#x16d;" horiz-adv-x="509" 
d="M29 345q20 40 57.5 78.5t63.5 38.5q17 0 43.5 -11t26.5 -21q0 -19 -52 -192q-40 -128 -40 -147q0 -17 15 -31t33 -14q42 0 184 283l24 123l73 -5l-35 -147q-47 -231 -54 -254l30 -9l79 67l17 -18q-19 -35 -57.5 -68t-65.5 -33q-18 0 -44 11t-26 21q0 13 62 255h-9
q-93 -194 -148 -253q-33 -34 -72 -34q-28 0 -50 20.5t-22 49.5q0 39 42 181l49 166l-30 5l-77 -80zM464 692q-14 -42 -25.5 -67.5t-31 -57t-46 -47t-59.5 -15.5t-55 15.5t-33 47.5t-15.5 56.5t-8.5 67.5h23q17 -66 38.5 -102t57.5 -36t66 35t66 103h23z" />
    <glyph glyph-name="Uring" unicode="&#x16e;" horiz-adv-x="712" 
d="M513 766q0 -38 -24.5 -64t-64.5 -26t-64.5 26t-24.5 64q1 38 25 64t64 26t65 -26t24 -64zM484 766q0 27 -16.5 45.5t-43.5 18.5t-43 -18.5t-16 -45.5q0 -26 16.5 -44.5t43.5 -18.5t43 18.5t16 44.5zM733 625l-3 -34l-61 -8q-15 -3 -22 -11.5t-14 -37t-16 -93.5l-33 -242
q-15 -106 -83 -160t-171 -54q-100 0 -161.5 48.5t-61.5 140.5q0 19 5 66l45 323q2 14 -16 18l-58 10l-3 34h245l-3 -34l-62 -10q-18 -3 -20 -18l-43 -318q-5 -35 -5 -55q0 -78 44.5 -116.5t122.5 -38.5q159 0 184 173l31 233q7 52 10 76.5t1 40.5t-6.5 19.5t-16.5 5.5l-59 8
l-3 34h233z" />
    <glyph glyph-name="uring" unicode="&#x16f;" horiz-adv-x="509" 
d="M29 345q20 40 57.5 78.5t63.5 38.5q17 0 43.5 -11t26.5 -21q0 -19 -52 -192q-40 -128 -40 -147q0 -17 15 -31t33 -14q42 0 184 283l24 123l73 -5l-35 -147q-47 -231 -54 -254l30 -9l79 67l17 -18q-19 -35 -57.5 -68t-65.5 -33q-18 0 -44 11t-26 21q0 13 62 255h-9
q-93 -194 -148 -253q-33 -34 -72 -34q-28 0 -50 20.5t-22 49.5q0 39 42 181l49 166l-30 5l-77 -80zM402 605q0 -38 -24.5 -64t-64.5 -26t-64.5 26t-24.5 64q1 38 25 64t64 26t65 -26t24 -64zM373 605q0 27 -16.5 45.5t-43.5 18.5t-43 -18.5t-16 -45.5q0 -26 16.5 -44.5
t43.5 -18.5t43 18.5t16 44.5z" />
    <glyph glyph-name="Uhungarumlaut" unicode="&#x170;" horiz-adv-x="712" 
d="M733 625l-3 -34l-61 -8q-15 -3 -22 -11.5t-14 -37t-16 -93.5l-33 -242q-15 -106 -83 -160t-171 -54q-100 0 -161.5 48.5t-61.5 140.5q0 19 5 66l45 323q2 14 -16 18l-58 10l-3 34h245l-3 -34l-62 -10q-18 -3 -20 -18l-43 -318q-5 -35 -5 -55q0 -78 44.5 -116.5
t122.5 -38.5q159 0 184 173l31 233q7 52 10 76.5t1 40.5t-6.5 19.5t-16.5 5.5l-59 8l-3 34h233zM652 853l-173 -184h-22l111 184h84zM501 853l-172 -184h-23l111 184h84z" />
    <glyph glyph-name="uhungarumlaut" unicode="&#x171;" horiz-adv-x="509" 
d="M29 345q20 40 57.5 78.5t63.5 38.5q17 0 43.5 -11t26.5 -21q0 -19 -52 -192q-40 -128 -40 -147q0 -17 15 -31t33 -14q42 0 184 283l24 123l73 -5l-35 -147q-47 -231 -54 -254l30 -9l79 67l17 -18q-19 -35 -57.5 -68t-65.5 -33q-18 0 -44 11t-26 21q0 13 62 255h-9
q-93 -194 -148 -253q-33 -34 -72 -34q-28 0 -50 20.5t-22 49.5q0 39 42 181l49 166l-30 5l-77 -80zM382 692l-172 -184h-23l111 184h84zM533 692l-173 -184h-22l111 184h84z" />
    <glyph glyph-name="Uogonek" unicode="&#x172;" horiz-adv-x="712" 
d="M358 -210q-38 4 -58.5 28.5t-13.5 64.5q11 58 93 106q-26 -4 -49 -4q-100 0 -161.5 48.5t-61.5 140.5q0 19 5 66l45 323q2 14 -16 18l-58 10l-3 34h245l-3 -34l-62 -10q-18 -3 -20 -18l-43 -317q-5 -37 -5 -56q0 -78 44.5 -116.5t122.5 -38.5q159 0 184 173l31 233
q7 52 10 76.5t1 40.5t-6.5 19.5t-16.5 5.5l-59 8l-3 34h233l-3 -34l-61 -8q-15 -3 -22 -11.5t-14 -37t-16 -93.5l-33 -242q-20 -140 -139 -200q-80 -41 -93 -103q-10 -53 37 -57q32 -3 54 15l9 -13q-11 -23 -36.5 -38.5t-57.5 -12.5z" />
    <glyph glyph-name="uogonek" unicode="&#x173;" horiz-adv-x="509" 
d="M323 -210q-38 4 -57.5 30t-11.5 66q6 31 31.5 59t58.5 46q-15 2 -29 10.5t-14 15.5q0 13 62 255h-9q-93 -194 -148 -253q-33 -34 -72 -34q-28 0 -50 20.5t-22 49.5q0 39 42 181l49 166l-30 5l-77 -80l-17 18q20 40 57.5 79t63.5 39q17 0 43.5 -11.5t26.5 -21.5
q0 -20 -52 -191q-40 -131 -40 -148t15 -31t33 -14q42 0 184 283l24 123l73 -5l-35 -147q-47 -231 -54 -254l30 -9l79 67l17 -18q-17 -30 -48.5 -60t-58.5 -43q-26 -13 -44 -36.5t-23 -47.5t3 -41t30 -19q32 -3 55 15l9 -13q-12 -23 -37 -38.5t-57 -12.5z" />
    <glyph glyph-name="Wcircumflex" unicode="&#x174;" horiz-adv-x="859" 
d="M614 669h-21l-89 132h-2l-126 -132h-22l110 184h89zM923 625l-3 -34l-48 -10q-32 -11 -47 -48l-217 -534h-80l-63 414h-4l-181 -414h-80l-86 557q-3 22 -25 25l-57 10l-3 34h250l-3 -34l-60 -8q-19 -4 -15 -26l64 -480l4 -1l178 416l-10 64q-3 21 -26 25l-57 10l-3 34
h248l-3 -34l-60 -8q-20 -4 -16 -26l71 -479l3 -1l184 467q5 10 1 21.5t-18 15.5l-53 10l-3 34h218z" />
    <glyph glyph-name="wcircumflex" unicode="&#x175;" horiz-adv-x="664" 
d="M530 508h-21l-89 132h-2l-126 -132h-22l110 184h89zM357 306h-3l-158 -306l-72 -15l-3 414l-29 6l-77 -80l-17 18q20 40 56.5 79.5t62.5 39.5q18 0 45 -12t27 -23l-1 -379h5l161 328l-2 83l30 -6l36 -7l12 -398h6l106 193q44 77 43 110q0 41 -58 53q12 59 63 59
q27 0 45.5 -18t18.5 -51q0 -18 -5.5 -37.5t-24.5 -52.5t-32.5 -55t-49.5 -77l-108 -172l-72 -15z" />
    <glyph glyph-name="Ycircumflex" unicode="&#x176;" horiz-adv-x="592" 
d="M648 625l-3 -34l-40 -7q-23 -5 -38.5 -15.5t-32.5 -35.5l-186 -265l-27 -206q-3 -15 15 -18l74 -10l3 -34h-277l3 34l79 10q16 1 20 18l26 205l-131 266q-11 23 -21 33t-27 15l-45 10l-3 34h244l-4 -34l-50 -6q-12 -1 -16.5 -8t-1.5 -19t12 -31l102 -220h4l162 237
q19 32 -14 39l-52 8l-3 34h228zM484 669h-21l-89 132h-2l-126 -132h-22l110 184h89z" />
    <glyph glyph-name="ycircumflex" unicode="&#x177;" horiz-adv-x="429" 
d="M430 400q0 -50 -90 -178l-116 -173l-59 -105q-56 -107 -100.5 -153.5t-97.5 -46.5q-31 0 -54.5 18t-23.5 46q0 21 15 35.5t33 14.5q23 0 40.5 -18t15.5 -43l27 -2l137 197l-39 11l3 396l-29 6l-77 -80l-17 18q20 40 56.5 79.5t62.5 39.5q18 0 45 -12t27 -23l-8 -379h10
l173 289l3 16q-50 18 -50 55q0 23 14.5 39.5t36.5 16.5q28 0 45 -17.5t17 -46.5zM390 508h-21l-89 132h-2l-126 -132h-22l110 184h89z" />
    <glyph glyph-name="Ydieresis" unicode="&#x178;" horiz-adv-x="591" 
d="M648 625l-3 -34l-40 -7q-23 -5 -38.5 -15.5t-32.5 -35.5l-186 -265l-27 -206q-3 -15 15 -18l74 -10l3 -34h-277l3 34l79 10q16 1 20 18l26 205l-131 266q-11 23 -21 33t-27 15l-45 10l-3 34h244l-4 -34l-50 -6q-12 -1 -16.5 -8t-1.5 -19t12 -31l102 -220h4l162 237
q19 32 -14 39l-52 8l-3 34h228zM520 769q0 -24 -15 -41.5t-40 -17.5t-40 17.5t-15 41.5t15.5 41.5t39.5 17.5t39.5 -17.5t15.5 -41.5zM320 769q0 -24 -15 -41.5t-40 -17.5t-40 17.5t-15 41.5t15.5 41.5t39.5 17.5q25 0 40 -17.5t15 -41.5z" />
    <glyph glyph-name="Zacute" unicode="&#x179;" horiz-adv-x="545" 
d="M485 853l-190 -184h-23l119 184h94zM514 187l-46 -187h-469l4 34l466 550v4h-109q-89 0 -130 -5.5t-54 -15.5t-25 -36l-32 -91h-41l24 185h470l-5 -35l-464 -550l-1 -4l100 1q98 1 142.5 6t59 13.5t25.5 31.5l38 99h47z" />
    <glyph glyph-name="zacute" unicode="&#x17a;" horiz-adv-x="396" 
d="M420 692l-190 -184h-23l119 184h94zM304 337q-29 11 -94.5 48.5t-75.5 41.5l-19 -19q19 -25 19 -43q0 -17 -11 -28t-29 -11q-21 0 -32.5 11.5t-11.5 28.5q0 35 33.5 64.5t87.5 31.5q30 0 54 -9t41.5 -28.5t24 -29t18.5 -31.5q2 -3 3 -5l9 1l28 102q26 -1 42 -14t16 -31
q0 -41 -67 -85l-242 -213q34 -14 101 -57t78 -47l21 21q-25 26 -25 47q0 15 12 26t32 11q19 0 29.5 -11t10.5 -29q0 -35 -30 -64.5t-81 -34.5q-57 0 -97 34.5t-59 80.5l-9 -1l-29 -110q-26 1 -42.5 15t-16.5 32q0 44 64 86z" />
    <glyph glyph-name="Zdotaccent" unicode="&#x17b;" horiz-adv-x="545" 
d="M514 187l-46 -187h-469l4 34l466 550v4h-109q-89 0 -130 -5.5t-54 -15.5t-25 -36l-32 -91h-41l24 185h470l-5 -35l-464 -550l-1 -4l100 1q98 1 142.5 6t59 13.5t25.5 31.5l38 99h47zM398 764q0 -25 -15.5 -43t-40.5 -18q-26 0 -41.5 18t-15.5 43t15.5 42.5t41.5 17.5
q25 0 40.5 -18t15.5 -42z" />
    <glyph glyph-name="zdotaccent" unicode="&#x17c;" horiz-adv-x="396" 
d="M304 337q-29 11 -94.5 48.5t-75.5 41.5l-19 -19q19 -25 19 -43q0 -17 -11 -28t-29 -11q-21 0 -32.5 11.5t-11.5 28.5q0 35 33.5 64.5t87.5 31.5q30 0 54 -9t41.5 -28.5t24 -29t18.5 -31.5q2 -3 3 -5l9 1l28 102q26 -1 42 -14t16 -31q0 -41 -67 -85l-242 -213
q34 -14 101 -57t78 -47l21 21q-25 26 -25 47q0 15 12 26t32 11q19 0 29.5 -11t10.5 -29q0 -35 -30 -64.5t-81 -34.5q-57 0 -97 34.5t-59 80.5l-9 -1l-29 -110q-26 1 -42.5 15t-16.5 32q0 44 64 86zM322 603q0 -25 -15.5 -43t-40.5 -18q-26 0 -41.5 18t-15.5 43t15.5 42.5
t41.5 17.5q25 0 40.5 -18t15.5 -42z" />
    <glyph glyph-name="Zcaron" unicode="&#x17d;" horiz-adv-x="545" 
d="M514 187l-46 -187h-469l4 34l466 550v4h-109q-89 0 -130 -5.5t-54 -15.5t-25 -36l-32 -91h-41l24 185h470l-5 -35l-464 -550l-1 -4l100 1q98 1 142.5 6t59 13.5t25.5 31.5l38 99h47zM503 864l-110 -184h-89l-61 184h21l90 -131h2l125 131h22z" />
    <glyph glyph-name="zcaron" unicode="&#x17e;" horiz-adv-x="395" 
d="M304 337q-29 11 -94.5 48.5t-75.5 41.5l-19 -19q19 -25 19 -43q0 -17 -11 -28t-29 -11q-21 0 -32.5 11.5t-11.5 28.5q0 35 33.5 64.5t87.5 31.5q30 0 54 -9t41.5 -28.5t24 -29t18.5 -31.5q2 -3 3 -5l9 1l28 102q26 -1 42 -14t16 -31q0 -41 -67 -85l-242 -213
q34 -14 101 -57t78 -47l21 21q-25 26 -25 47q0 15 12 26t32 11q19 0 29.5 -11t10.5 -29q0 -35 -30 -64.5t-81 -34.5q-57 0 -97 34.5t-59 80.5l-9 -1l-29 -110q-26 1 -42.5 15t-16.5 32q0 44 64 86zM402 692l-110 -184h-89l-61 184h21l90 -131h2l125 131h22z" />
    <glyph glyph-name="florin" unicode="&#x192;" horiz-adv-x="511" 
d="M516 569q0 -23 -12.5 -38.5t-32.5 -15.5q-24 0 -39 18t-17 48l-60 -15q-18 -29 -48 -178h123l3 -45h-131q-49 -251 -108 -312q-47 -47 -110 -47q-30 0 -50.5 17t-20.5 42q0 21 12.5 35t32.5 14q23 0 38 -18.5t17 -45.5l60 28q22 46 46 189l15 95l-87 4l3 28l94 21
q30 132 82 187q21 22 53.5 36t60.5 14q34 0 55 -17.5t21 -43.5z" />
    <glyph glyph-name="Aringacute" unicode="&#x1fa;" horiz-adv-x="578" 
d="M521 980l-190 -184h-23l119 184h94zM294 611q-41 25 -41 78q1 38 25 64t64 26t65 -26t24 -64q0 -60 -49 -82l97 -538q3 -22 25 -25l57 -10l3 -34h-250l3 34l59 8q20 4 16 26l-26 158h-196l-48 -114q-24 -61 6 -68l54 -10l3 -34h-217l3 34l47 10q16 5 25 15t20 33z
M359 267l-46 285h-5l-121 -285h172zM402 689q0 26 -16.5 44.5t-43.5 18.5t-43 -18.5t-16 -44.5q0 -27 16.5 -45.5t43.5 -18.5t43 18.5t16 45.5z" />
    <glyph glyph-name="aringacute" unicode="&#x1fb;" horiz-adv-x="472" 
d="M468 907l-190 -184h-23l119 184h94zM373 605q0 -38 -24.5 -64t-64.5 -26t-64.5 26t-24.5 64q1 38 25 64t64 26t65 -26t24 -64zM339 387h7l20 75h62l-49 -178l-53 -238l30 -9l79 67l17 -18q-19 -35 -57.5 -68t-65.5 -33q-18 0 -45 11t-27 21q0 17 57 196h-9
q-60 -110 -105 -169t-87 -59q-41 0 -66 35.5t-25 93.5q0 76 32 157t79 128q64 64 124 64q52 0 82 -76zM344 605q0 27 -16.5 45.5t-43.5 18.5t-43 -18.5t-16 -45.5q0 -26 16.5 -44.5t43.5 -18.5t43 18.5t16 44.5zM332 334q-21 31 -53.5 57t-62.5 26q-20 0 -40 -20
q-28 -28 -56.5 -115t-28.5 -150q0 -88 49 -88q26 0 63 50t115 182z" />
    <glyph glyph-name="AEacute" unicode="&#x1fc;" horiz-adv-x="802" 
d="M710 853l-190 -184h-23l119 184h94zM760 177l-42 -177h-458l4 34l63 10q17 3 20 18l22 164h-188l-48 -76q-46 -76 -46 -88q-1 -14 17 -18l53 -10l3 -34h-217l3 34l47 10q29 9 54 49l299 470q9 14 -12 18l-61 10l-2 34h530l-24 -181h-44l-9 101q-2 16 -6 23t-27 12.5
t-59 6.5t-114 1h-23l-35 -251h23q64 0 80.5 3t23.5 16l31 67h35l-49 -208h-34l4 64q1 9 -4.5 13t-27 6.5t-66.5 2.5h-21l-34 -264h12q84 0 125 1t67.5 6.5t33.5 12.5t14 23l39 97h48zM374 267l44 321h-9l-202 -321h167z" />
    <glyph glyph-name="aeacute" unicode="&#x1fd;" horiz-adv-x="605" 
d="M539 692l-190 -184h-23l119 184h94zM344 356q71 106 156 106q46 0 75 -26t29 -61q0 -39 -38.5 -68t-164.5 -96q-40 -21 -63 -33q-1 -7 -1 -26q0 -54 26 -84t64 -30q36 0 120 64l14 -18q-85 -99 -161 -99q-57 0 -95 44.5t-38 110.5q0 2 0.5 8t0.5 11q-44 -79 -88 -126.5
t-73 -47.5q-41 0 -63 40.5t-22 102.5q0 76 28.5 150t75.5 121q64 64 124 64q34 0 58 -33t36 -74zM341 208q124 67 161.5 98t37.5 66q0 18 -29 32.5t-52 14.5q-21 0 -39 -16q-22 -22 -45 -75t-36 -120h2zM321 315q-18 40 -50 71t-64 31q-19 0 -39 -20q-27 -27 -52 -107
t-25 -144q0 -43 11.5 -70.5t28.5 -27.5t36.5 17t46 58.5t41.5 67.5t47 85q3 5 10 20t9 19z" />
    <glyph glyph-name="Oslashacute" unicode="&#x1fe;" horiz-adv-x="688" 
d="M165 37q-54 40 -84.5 102.5t-30.5 137.5q0 143 86 248q96 114 243 114q78 0 137 -35l53 84h44q-65 -103 -65 -104q54 -39 84 -101t30 -137t-26.5 -144t-75.5 -119q-93 -98 -227 -98q-77 0 -136 33l-15 -23l-28 -46l-15 -23h-43zM196 87l294 474q-48 39 -120 39
q-57 0 -103 -32.5t-72.5 -83.5t-40.5 -107t-14 -110q0 -115 56 -180zM518 536l-294 -474q46 -37 118 -37q57 0 103 32.5t72.5 83.5t40.5 107t14 110q0 114 -54 178zM543 853l-190 -184h-23l119 184h94z" />
    <glyph glyph-name="oslashacute" unicode="&#x1ff;" horiz-adv-x="437" 
d="M77 30q-44 51 -44 147q0 66 28 131t80 109.5t113 44.5q45 0 76 -22l81 133h38q-93 -154 -94 -155q47 -51 47 -148q0 -103 -65 -194t-156 -91q-47 0 -78 23l-73 -120h-39zM111 84l196 317q-23 30 -56 30q-46 0 -82.5 -56t-53.5 -118q-14 -53 -14 -102q0 -40 10 -71z
M323 366q-195 -318 -196 -318q22 -32 56 -32t64 33t46.5 70.5t26.5 75.5q13 55 13 103q0 38 -10 68zM417 692l-190 -184h-23l119 184h94z" />
    <glyph glyph-name="Scommaaccent" unicode="&#x218;" horiz-adv-x="494" 
d="M261 -136q-10 -47 -50 -78t-90 -45l-12 18q72 21 85 78q2 11 1 20t-5 16t-9.5 12.5t-11.5 9.5t-10.5 6.5t-7.5 4.5l-3 1q4 20 20 32t41 9q28 -4 43 -29t9 -55zM436 169q0 -84 -67.5 -134t-166.5 -50q-98 0 -182 27l10 177h39l25 -138q48 -25 123 -25q64 0 103.5 30
t39.5 84q0 26 -9 47.5t-30.5 40.5t-40.5 31.5t-54 33.5q-50 30 -76.5 50t-47 55t-20.5 79q0 73 64.5 117.5t147.5 44.5q67 0 131 -14l53 13l-26 -192h-41l-10 125q-52 27 -122 27q-48 0 -85 -24.5t-37 -68.5q-1 -50 31.5 -82.5t103.5 -73.5q34 -20 55 -34.5t44 -36.5t34 -49
t11 -60z" />
    <glyph glyph-name="scommaaccent" unicode="&#x219;" horiz-adv-x="340" 
d="M164 -136q-10 -47 -50 -78t-90 -45l-12 18q72 21 85 78q2 11 1 20t-5 16t-9.5 12.5t-11.5 9.5t-10.5 6.5t-7.5 4.5l-3 1q4 20 20 32t41 9q28 -4 43 -29t9 -55zM334 391q0 -21 -13 -34.5t-33 -13.5q-16 0 -26 11.5t-10 27.5q0 11 5 23q-47 20 -84 21q-20 -6 -36 -27
t-17 -42q-1 -18 11 -38.5t23 -31.5t42 -41q26 -25 40 -40.5t31 -44.5t15 -53q-4 -54 -53 -88.5t-105 -34.5q-128 0 -128 73q0 20 13 33.5t34 13.5q16 0 26 -11.5t10 -27.5q0 -10 -6 -22q45 -20 94 -23q20 8 37 30t18 43q1 17 -11.5 37.5t-26 34t-39.5 37.5q-89 84 -86 138
q4 56 52.5 88.5t103.5 32.5q119 0 119 -71z" />
    <glyph glyph-name="uni021A" unicode="&#x21a;" horiz-adv-x="614" 
d="M602 433h-41l-9 105q-2 21 -10 30t-40 14.5t-102 5.5h-7l-69 -526q-3 -15 15 -18l74 -10l3 -34h-277l4 34l78 10q16 1 20 18l69 526h-7q-100 0 -126 -7t-39 -36l-41 -112h-47l42 192h535zM329 -136q-10 -47 -50 -78t-90 -45l-12 18q72 21 85 78q2 11 1 20t-5 16
t-9.5 12.5t-11.5 9.5t-10.5 6.5t-7.5 4.5l-3 1q4 20 20 32t41 9q28 -4 43 -29t9 -55z" />
    <glyph glyph-name="uni021B" unicode="&#x21b;" horiz-adv-x="296" 
d="M154 -140q-10 -47 -50 -78t-90 -45l-12 18q72 21 85 78q2 11 1 20t-5 16t-9.5 12.5t-11.5 9.5t-10.5 6.5t-7.5 4.5l-3 1q4 20 20 32t41 9q28 -4 43 -29t9 -55zM132 461l24 124h64l-27 -137h123l3 -45h-135l-75 -357l30 -9l80 67l17 -18q-20 -35 -58.5 -68t-65.5 -33
q-18 0 -44 9.5t-24 18.5l78 387l-83 4l3 29l15 5q9 3 29 9t33 10z" />
    <glyph glyph-name="dotlessj" unicode="&#x237;" horiz-adv-x="244" 
d="M211 430l-85 -367q-26 -113 -51.5 -182.5t-60.5 -104.5q-38 -38 -82 -38q-26 0 -45.5 15t-19.5 39q-1 20 13.5 33.5t34.5 13.5q40 0 58 -49l20 4q29 53 67 234l82 374l-30 5l-77 -80l-17 18q19 40 56.5 78.5t63.5 38.5q11 0 29 -4.5t32 -12.5t12 -15z" />
    <glyph glyph-name="circumflex" unicode="&#x2c6;" horiz-adv-x="400" 
d="M360 508h-21l-89 132h-2l-126 -132h-22l110 184h89z" />
    <glyph glyph-name="caron" unicode="&#x2c7;" horiz-adv-x="400" 
d="M384 692l-110 -184h-89l-61 184h21l90 -131h2l125 131h22z" />
    <glyph glyph-name="breve" unicode="&#x2d8;" horiz-adv-x="400" 
d="M391 692q-14 -42 -25.5 -67.5t-31 -57t-46 -47t-59.5 -15.5t-55 15.5t-33 47.5t-15.5 56.5t-8.5 67.5h23q17 -66 38.5 -102t57.5 -36t66 35t66 103h23z" />
    <glyph glyph-name="dotaccent" unicode="&#x2d9;" horiz-adv-x="400" 
d="M304 603q0 -25 -15.5 -43t-40.5 -18q-26 0 -41.5 18t-15.5 43t15.5 42.5t41.5 17.5q25 0 40.5 -18t15.5 -42z" />
    <glyph glyph-name="ring" unicode="&#x2da;" horiz-adv-x="400" 
d="M337 605q0 -38 -24.5 -64t-64.5 -26t-64.5 26t-24.5 64q1 38 25 64t64 26t65 -26t24 -64zM308 605q0 27 -16.5 45.5t-43.5 18.5t-43 -18.5t-16 -45.5q0 -26 16.5 -44.5t43.5 -18.5t43 18.5t16 44.5z" />
    <glyph glyph-name="ogonek" unicode="&#x2db;" horiz-adv-x="400" 
d="M248 -201q-53 -36 -103 -36q-42 0 -72 26t-28 65q1 51 46.5 94.5t111.5 67.5h46q-144 -66 -147 -151q-2 -28 17.5 -47t52.5 -19q30 0 71 22z" />
    <glyph glyph-name="tilde" unicode="&#x2dc;" horiz-adv-x="400" 
d="M409 637q-37 -117 -111 -117q-34 0 -78.5 36t-59.5 36q-17 0 -30 -13.5t-33 -51.5h-26q35 117 110 117q34 0 78.5 -36t59.5 -36q16 0 29.5 13.5t33.5 51.5h27z" />
    <glyph glyph-name="hungarumlaut" unicode="&#x2dd;" horiz-adv-x="400" 
d="M452 692l-173 -184h-22l111 184h84zM301 692l-172 -184h-23l111 184h84z" />
    <glyph glyph-name="Wgrave" unicode="&#x1e80;" horiz-adv-x="859" 
d="M923 625l-3 -34l-48 -10q-32 -11 -47 -48l-217 -534h-80l-63 414h-4l-181 -414h-80l-86 557q-3 22 -25 25l-57 10l-3 34h250l-3 -34l-60 -8q-19 -4 -15 -26l64 -480l4 -1l178 416l-10 64q-3 21 -26 25l-57 10l-3 34h248l-3 -34l-60 -8q-20 -4 -16 -26l71 -479l3 -1
l184 467q5 10 1 21.5t-18 15.5l-53 10l-3 34h218zM537 669h-22l-141 184h94z" />
    <glyph glyph-name="wgrave" unicode="&#x1e81;" horiz-adv-x="664" 
d="M357 306h-3l-158 -306l-72 -15l-3 414l-29 6l-77 -80l-17 18q20 40 56.5 79.5t62.5 39.5q18 0 45 -12t27 -23l-1 -379h5l161 328l-2 83l30 -6l36 -7l12 -398h6l106 193q44 77 43 110q0 41 -58 53q12 59 63 59q27 0 45.5 -18t18.5 -51q0 -18 -5.5 -37.5t-24.5 -52.5
t-32.5 -55t-49.5 -77l-108 -172l-72 -15zM412 508h-22l-141 184h94z" />
    <glyph glyph-name="Wacute" unicode="&#x1e82;" horiz-adv-x="859" 
d="M635 853l-190 -184h-23l119 184h94zM923 625l-3 -34l-48 -10q-32 -11 -47 -48l-217 -534h-80l-63 414h-4l-181 -414h-80l-86 557q-3 22 -25 25l-57 10l-3 34h250l-3 -34l-60 -8q-19 -4 -15 -26l64 -480l4 -1l178 416l-10 64q-3 21 -26 25l-57 10l-3 34h248l-3 -34l-60 -8
q-20 -4 -16 -26l71 -479l3 -1l184 467q5 10 1 21.5t-18 15.5l-53 10l-3 34h218z" />
    <glyph glyph-name="wacute" unicode="&#x1e83;" horiz-adv-x="664" 
d="M564 692l-190 -184h-23l119 184h94zM357 306h-3l-158 -306l-72 -15l-3 414l-29 6l-77 -80l-17 18q20 40 56.5 79.5t62.5 39.5q18 0 45 -12t27 -23l-1 -379h5l161 328l-2 83l30 -6l36 -7l12 -398h6l106 193q44 77 43 110q0 41 -58 53q12 59 63 59q27 0 45.5 -18t18.5 -51
q0 -18 -5.5 -37.5t-24.5 -52.5t-32.5 -55t-49.5 -77l-108 -172l-72 -15z" />
    <glyph glyph-name="Wdieresis" unicode="&#x1e84;" horiz-adv-x="859" 
d="M640 758q0 -24 -15 -41.5t-40 -17.5t-40 17.5t-15 41.5t15.5 41.5t39.5 17.5t39.5 -17.5t15.5 -41.5zM440 758q0 -24 -15 -41.5t-40 -17.5t-40 17.5t-15 41.5t15.5 41.5t39.5 17.5q25 0 40 -17.5t15 -41.5zM923 625l-3 -34l-48 -10q-32 -11 -47 -48l-217 -534h-80
l-63 414h-4l-181 -414h-80l-86 557q-3 22 -25 25l-57 10l-3 34h250l-3 -34l-60 -8q-19 -4 -15 -26l64 -480l4 -1l178 416l-10 64q-3 21 -26 25l-57 10l-3 34h248l-3 -34l-60 -8q-20 -4 -16 -26l71 -479l3 -1l184 467q5 10 1 21.5t-18 15.5l-53 10l-3 34h218z" />
    <glyph glyph-name="wdieresis" unicode="&#x1e85;" horiz-adv-x="664" 
d="M547 597q0 -24 -15 -41.5t-40 -17.5t-40 17.5t-15 41.5t15.5 41.5t39.5 17.5t39.5 -17.5t15.5 -41.5zM347 597q0 -24 -15 -41.5t-40 -17.5t-40 17.5t-15 41.5t15.5 41.5t39.5 17.5q25 0 40 -17.5t15 -41.5zM357 306h-3l-158 -306l-72 -15l-3 414l-29 6l-77 -80l-17 18
q20 40 56.5 79.5t62.5 39.5q18 0 45 -12t27 -23l-1 -379h5l161 328l-2 83l30 -6l36 -7l12 -398h6l106 193q44 77 43 110q0 41 -58 53q12 59 63 59q27 0 45.5 -18t18.5 -51q0 -18 -5.5 -37.5t-24.5 -52.5t-32.5 -55t-49.5 -77l-108 -172l-72 -15z" />
    <glyph glyph-name="thinspace" unicode="&#x2009;" horiz-adv-x="76" 
 />
    <glyph glyph-name="endash" unicode="&#x2013;" horiz-adv-x="470" 
d="M447 207h-420l3 49h414z" />
    <glyph glyph-name="emdash" unicode="&#x2014;" horiz-adv-x="938" 
d="M915 207h-888l3 49h881z" />
    <glyph glyph-name="quoteleft" unicode="&#x2018;" horiz-adv-x="226" 
d="M208 432q-5 -22 -23 -36t-44 -14q-35 0 -57.5 24.5t-20.5 59.5q2 61 58 115t139 90l14 -19q-47 -25 -82.5 -64t-37.5 -78q-1 -22 13 -40.5t27 -27.5z" />
    <glyph glyph-name="quoteright" unicode="&#x2019;" horiz-adv-x="226" 
d="M231 568q-3 -99 -164 -189l-20 18q98 59 102 129q1 15 -5.5 29t-16 23t-19 15.5t-16.5 10.5l-7 3q1 22 19.5 37t44.5 15q34 0 58.5 -26.5t23.5 -64.5z" />
    <glyph glyph-name="quotesinglbase" unicode="&#x201a;" horiz-adv-x="226" 
d="M157 21q-3 -99 -164 -189l-20 18q98 59 102 129q1 15 -5.5 29t-16 23t-19 15.5t-16.5 9.5l-7 4q1 22 19.5 37t44.5 15q34 0 58.5 -26.5t23.5 -64.5z" />
    <glyph glyph-name="quotedblleft" unicode="&#x201c;" horiz-adv-x="424" 
d="M416 433q-1 -21 -19.5 -36t-44.5 -15q-34 0 -58.5 26.5t-23.5 64.5q3 96 163 189l21 -18q-98 -59 -102 -130q-1 -15 5.5 -28.5t16 -22.5t19 -16t16.5 -11zM208 433q-1 -21 -19.5 -36t-44.5 -15q-34 0 -58.5 26.5t-23.5 64.5q3 96 163 189l21 -18q-98 -59 -102 -130
q-1 -15 5.5 -28.5t16 -22.5t19 -16t16.5 -11z" />
    <glyph glyph-name="quotedblright" unicode="&#x201d;" horiz-adv-x="424" 
d="M444 568q-3 -99 -164 -189l-20 18q98 59 102 129q1 15 -5.5 29t-16 23t-19 15.5t-16.5 10.5l-7 3q1 22 19.5 37t44.5 15q34 0 58.5 -26.5t23.5 -64.5zM236 568q-3 -99 -164 -189l-20 18q98 60 101 129q1 15 -5.5 29t-15.5 23t-18.5 15.5t-16.5 10.5l-7 3q1 22 19.5 37
t44.5 15q34 0 58.5 -26.5t23.5 -64.5z" />
    <glyph glyph-name="quotedblbase" unicode="&#x201e;" horiz-adv-x="424" 
d="M370 21q-3 -99 -164 -189l-20 18q98 59 102 129q1 15 -5.5 29t-16 23t-19 15.5t-16.5 9.5l-7 4q1 22 19.5 37t44.5 15q34 0 58.5 -26.5t23.5 -64.5zM162 21q-3 -99 -164 -189l-20 18q98 60 101 129q1 15 -5.5 29t-15.5 23t-18.5 15.5t-16.5 9.5l-7 4q1 22 19.5 37
t44.5 15q34 0 58.5 -26.5t23.5 -64.5z" />
    <glyph glyph-name="dagger" unicode="&#x2020;" horiz-adv-x="470" 
d="M449 432l-4 -39h-180v-549h-38v549h-179l-4 39h183v193h38v-193h184z" />
    <glyph glyph-name="daggerdbl" unicode="&#x2021;" horiz-adv-x="470" 
d="M459 21h-184v-177h-39l1 177h-183l4 39h179v348h-179l-4 39h183v178h38v-178h184l-4 -39h-180v-348h180z" />
    <glyph glyph-name="bullet" unicode="&#x2022;" horiz-adv-x="455" 
d="M420 232q0 -22 -20 -71.5t-36 -65.5q-15 -15 -65 -35.5t-72 -20.5q-21 0 -71 20.5t-64 35.5q-15 16 -36 66t-21 71q0 22 21 71.5t36 64.5t65 35.5t71 20.5q22 0 71.5 -20.5t64.5 -35.5t35.5 -64.5t20.5 -71.5z" />
    <glyph glyph-name="ellipsis" unicode="&#x2026;" horiz-adv-x="680" 
d="M606 47q0 -25 -17.5 -43.5t-43.5 -18.5q-27 0 -45 18.5t-17 43.5q0 25 18 42.5t44 17.5q27 0 44.5 -17.5t16.5 -42.5zM380 47q0 -25 -17.5 -43.5t-44.5 -18.5q-26 0 -44 18.5t-18 43.5t18 42.5t45 17.5q26 0 43.5 -17.5t17.5 -42.5zM153 47q0 -25 -17.5 -43.5
t-43.5 -18.5q-27 0 -45 18.5t-17 43.5q0 25 17.5 42.5t44.5 17.5t44.5 -18t16.5 -42z" />
    <glyph glyph-name="perthousand" unicode="&#x2030;" horiz-adv-x="1126" 
d="M395 500q0 -78 -53.5 -132.5t-130.5 -54.5q-66 0 -111 41t-45 108q0 76 53.5 130.5t128.5 54.5q67 0 112.5 -40t45.5 -107zM734 639l-632 -654h-57l632 654h57zM1110 164q0 -77 -54 -132t-130 -55q-68 0 -111 40t-43 107q0 78 52.5 132.5t129.5 54.5q66 0 111 -40
t45 -107zM729 164q0 -77 -54 -132t-130 -55q-68 0 -111 40t-43 107q0 78 52.5 132.5t129.5 54.5q66 0 111 -40t45 -107zM349 490q0 51 -32.5 84t-83.5 33q-56 0 -95 -43t-39 -100q0 -50 33.5 -81.5t82.5 -31.5q57 0 95.5 41t38.5 98zM1065 158q0 49 -33 81t-82 32
q-56 0 -95 -43t-39 -100q0 -50 32.5 -81.5t81.5 -31.5q56 0 95.5 42.5t39.5 100.5zM685 158q0 49 -33.5 81t-82.5 32q-56 0 -95 -43t-39 -100q0 -50 32.5 -81.5t81.5 -31.5q56 0 96 42.5t40 100.5z" />
    <glyph glyph-name="guilsinglleft" unicode="&#x2039;" horiz-adv-x="303" 
d="M238 68l-12 -19l-195 153l1 40l240 157l7 -21l-179 -158z" />
    <glyph glyph-name="guilsinglright" unicode="&#x203a;" horiz-adv-x="303" 
d="M265 200l-235 -154l-7 21l168 155l-127 155l12 19l195 -154z" />
    <glyph glyph-name="fraction" unicode="&#x2044;" horiz-adv-x="607" 
d="M628 639l-579 -654h-59l579 654h59z" />
    <glyph glyph-name="zerosuperior" unicode="&#x2070;" horiz-adv-x="330" 
d="M146 265q-65 0 -95.5 44.5t-30.5 107.5q0 36 9.5 76t29 78.5t53.5 63t78 24.5q65 0 96.5 -45t31.5 -108q0 -50 -16.5 -102.5t-57.5 -95.5t-98 -43zM147 287q28 0 50 28t33.5 70t17.5 82t6 71q0 39 -14.5 69t-51.5 30q-27 0 -48.5 -28.5t-33 -71t-17 -82t-5.5 -70.5
q0 -98 63 -98z" />
    <glyph glyph-name="foursuperior" unicode="&#x2074;" horiz-adv-x="330" 
d="M164 273l16 111h-176v25l234 250l38 -5l-35 -239h70l-9 -31h-65l-17 -111h-56zM41 415h143l26 175h-5z" />
    <glyph glyph-name="fivesuperior" unicode="&#x2075;" horiz-adv-x="330" 
d="M120 262q-42 0 -74.5 13.5t-32.5 42.5q0 13 10.5 23t24.5 10q23 0 35.5 -16t12.5 -39q15 -9 41 -9q39 0 65 21t26 54q0 50 -47 78.5t-121 34.5l69 174h194l-8 -53h-175l-30 -76q26 -3 52 -10t56 -20.5t48.5 -38.5t18.5 -58q0 -57 -50.5 -94t-114.5 -37z" />
    <glyph glyph-name="sixsuperior" unicode="&#x2076;" horiz-adv-x="330" 
d="M155 265q-58 0 -94 41t-36 102q0 96 88 170t219 86l5 -19q-189 -37 -246 -187h3q49 60 115 60q42 0 71 -28.5t29 -76.5q0 -59 -46.5 -103.5t-107.5 -44.5zM157 288q36 0 63 33t27 83q0 37 -19.5 60t-46.5 23q-50 0 -87 -53q-7 -23 -7 -48q0 -42 18.5 -70t51.5 -28z" />
    <glyph glyph-name="sevensuperior" unicode="&#x2077;" horiz-adv-x="330" 
d="M56 268l240 331v3h-101q-61 0 -76 -3t-23 -16q-22 -34 -23 -36h-23l29 104h270v-25l-245 -358h-48z" />
    <glyph glyph-name="eightsuperior" unicode="&#x2078;" horiz-adv-x="330" 
d="M153 264q-51 0 -90.5 27t-39.5 72q0 72 102 98v2q-63 35 -64 89q0 49 39.5 78t93.5 29q47 0 81.5 -25.5t34.5 -67.5q-1 -68 -90 -94v-2q75 -40 74 -97q-1 -52 -42.5 -80.5t-98.5 -28.5zM201 481q52 30 52 83q0 32 -18 53t-52 21q-31 0 -49 -17t-18 -46q0 -49 85 -94z
M164 285q33 0 53.5 17t20.5 49q0 22 -16.5 42.5t-33 31.5t-44.5 27q-63 -36 -63 -89q0 -35 22 -56.5t61 -21.5z" />
    <glyph glyph-name="ninesuperior" unicode="&#x2079;" horiz-adv-x="330" 
d="M13 260l-5 19q189 37 246 186q-2 1 -3 1q-48 -60 -115 -60q-42 0 -71 28t-29 77q0 59 47 103.5t107 44.5q58 0 94 -41t36 -102q0 -96 -88 -170t-219 -86zM164 437q50 0 87 53q8 21 8 48q0 42 -19 70t-53 28q-35 0 -61.5 -33t-26.5 -84q0 -36 19 -59t46 -23z" />
    <glyph glyph-name="plussuperior" unicode="&#x207a;" horiz-adv-x="330" 
d="M296 448h-110v-112h-30v112h-110l2 30h108v111h30v-111h108z" />
    <glyph glyph-name="minussuperior" unicode="&#x207b;" horiz-adv-x="330" 
d="M300 446h-250l1 33h247z" />
    <glyph glyph-name="zeroinferior" unicode="&#x2080;" horiz-adv-x="330" 
d="M146 -151q-65 0 -95.5 44.5t-30.5 107.5q0 36 9.5 76t29 78.5t53.5 63t78 24.5q65 0 96.5 -45t31.5 -108q0 -50 -16.5 -102.5t-57.5 -95.5t-98 -43zM147 -129q28 0 50 28t33.5 70t17.5 82t6 71q0 39 -14.5 69t-51.5 30q-27 0 -48.5 -28.5t-33 -71t-17 -82t-5.5 -70.5
q0 -98 63 -98z" />
    <glyph glyph-name="oneinferior" unicode="&#x2081;" horiz-adv-x="330" 
d="M37 -143l1 25l73 7q16 2 18 14l42 289l-89 10l4 19l151 21l-49 -339q-2 -13 13 -14l62 -7l2 -25h-228z" />
    <glyph glyph-name="twoinferior" unicode="&#x2082;" horiz-adv-x="330" 
d="M4 -143l2 34q23 18 70 53.5t67.5 52.5t47.5 43t37.5 47t10.5 43q0 32 -23 51t-56 19q-51 0 -110 -45l-6 14q72 74 149 74q45 0 77.5 -26.5t32.5 -67.5q0 -18 -7 -36.5t-22.5 -37t-30.5 -34t-42 -35.5t-45 -33t-50.5 -35t-48.5 -34q-1 -3 0 -3h52q86 0 110.5 5t37.5 24
l17 29h28l-34 -102h-264z" />
    <glyph glyph-name="threeinferior" unicode="&#x2083;" horiz-adv-x="330" 
d="M104 -157q-33 0 -64.5 12.5t-31.5 37.5q0 13 10 22.5t24 9.5q22 0 36 -16.5t14 -37.5q18 -3 25 -3q46 0 74 29.5t29 68.5q0 29 -19.5 47t-51.5 18q-24 0 -60 -12l-7 17q95 44 118 63q28 25 29 51q0 24 -19 37.5t-43 13.5q-52 0 -109 -39l-5 16q67 65 149 65
q39 0 69.5 -20t30.5 -53q0 -19 -10.5 -36t-22.5 -27.5t-35.5 -22t-34.5 -16t-35 -12.5v-1q16 4 36 4q38 0 62.5 -22t24.5 -60q0 -57 -57.5 -95.5t-125.5 -38.5z" />
    <glyph glyph-name="fourinferior" unicode="&#x2084;" horiz-adv-x="330" 
d="M164 -143l16 111h-176v25l234 250l38 -5l-35 -239h70l-9 -31h-65l-17 -111h-56zM41 -1h143l26 175h-5z" />
    <glyph glyph-name="fiveinferior" unicode="&#x2085;" horiz-adv-x="330" 
d="M120 -154q-42 0 -74.5 13.5t-32.5 42.5q0 13 10.5 23t24.5 10q23 0 35.5 -16t12.5 -39q15 -9 41 -9q39 0 65 21t26 54q0 50 -47 78.5t-121 34.5l69 174h194l-8 -53h-175l-30 -76q26 -3 52 -10t56 -20.5t48.5 -38.5t18.5 -58q0 -57 -50.5 -94t-114.5 -37z" />
    <glyph glyph-name="sixinferior" unicode="&#x2086;" horiz-adv-x="330" 
d="M155 -151q-58 0 -94 41t-36 102q0 96 88 170t219 86l5 -19q-189 -37 -246 -187h3q49 60 115 60q42 0 71 -28.5t29 -76.5q0 -59 -46.5 -103.5t-107.5 -44.5zM157 -128q36 0 63 33t27 83q0 37 -19.5 60t-46.5 23q-50 0 -87 -53q-7 -23 -7 -48q0 -42 18.5 -70t51.5 -28z" />
    <glyph glyph-name="seveninferior" unicode="&#x2087;" horiz-adv-x="330" 
d="M56 -148l240 331v3h-101q-61 0 -76 -3t-23 -16q-22 -34 -23 -36h-23l29 104h270v-25l-245 -358h-48z" />
    <glyph glyph-name="eightinferior" unicode="&#x2088;" horiz-adv-x="330" 
d="M153 -152q-51 0 -90.5 27t-39.5 72q0 72 102 98v2q-63 35 -64 89q0 49 39.5 78t93.5 29q47 0 81.5 -25.5t34.5 -67.5q-1 -68 -90 -94v-2q75 -40 74 -97q-1 -52 -42.5 -80.5t-98.5 -28.5zM201 65q52 30 52 83q0 32 -18 53t-52 21q-31 0 -49 -17t-18 -46q0 -49 85 -94z
M164 -131q33 0 53.5 17t20.5 49q0 22 -16.5 42.5t-33 31.5t-44.5 27q-63 -36 -63 -89q0 -35 22 -56.5t61 -21.5z" />
    <glyph glyph-name="nineinferior" unicode="&#x2089;" horiz-adv-x="330" 
d="M13 -156l-5 19q189 37 246 186q-2 1 -3 1q-48 -60 -115 -60q-42 0 -71 28t-29 77q0 59 47 103.5t107 44.5q58 0 94 -41t36 -102q0 -96 -88 -170t-219 -86zM164 21q50 0 87 53q8 21 8 48q0 42 -19 70t-53 28q-35 0 -61.5 -33t-26.5 -84q0 -36 19 -59t46 -23z" />
    <glyph glyph-name="Euro" unicode="&#x20ac;" horiz-adv-x="502" 
d="M156 212q9 -78 50.5 -126.5t107.5 -48.5q74 0 145 67l14 -22q-33 -44 -81.5 -70.5t-102.5 -26.5q-92 0 -146.5 64.5t-65.5 162.5h-67l3 39h61v8q2 45 7 78h-60l3 39h65q30 112 108 182.5t179 70.5q65 0 106.5 -24t41.5 -62q0 -22 -12 -37t-34 -15q-25 0 -40 23.5
t-15 54.5q-26 21 -74 21q-71 0 -120 -57t-66 -157h205l3 -39h-213q-5 -30 -5 -76v-10h203l4 -39h-204z" />
    <glyph glyph-name="trademark" unicode="&#x2122;" horiz-adv-x="911" 
d="M913 253h-164l2 27l38 6q7 1 8.5 9.5t1.5 35.5l-6 254h-10l-111 -320h-45l-91 322h-10l-8 -228q-1 -47 0 -59t9 -15l40 -5l1 -27h-139l2 27l39 5q6 1 9 5.5t5 20.5t3 48l7 221q0 11 -9 12l-42 6l-2 27h141l76 -286h9l97 286h141l-2 -27l-41 -6q-11 -1 -11 -12l6 -249
q1 -42 15 -45l39 -6zM386 625v-131h-29l-7 35q-13 44 -29.5 56t-71.5 12h-3v-300q0 -10 9 -11l51 -6l1 -27h-181l2 27l51 6q10 1 10 11v300h-5q-48 0 -66 -13t-32 -55l-9 -35h-27l8 131h328z" />
    <glyph glyph-name="minus" unicode="&#x2212;" horiz-adv-x="480" 
d="M448 210h-416l3 49h410z" />
    <glyph glyph-name="uni2215" unicode="&#x2215;" horiz-adv-x="607" 
d="M628 639l-579 -654h-59l579 654h59z" />
    <glyph glyph-name="approxequal" unicode="&#x2248;" horiz-adv-x="480" 
d="M154 327q-16 0 -25.5 -2t-23.5 -16t-23 -40h-42q10 52 39 79.5t72 27.5q27 0 90 -33t85 -33q16 0 25.5 2t23.5 16t23 40h42q-10 -52 -39 -79.5t-72 -27.5q-34 0 -96.5 33t-78.5 33zM154 159q-16 0 -25.5 -2t-23.5 -16t-23 -40h-42q10 52 39 79.5t72 27.5q27 0 90 -33
t85 -33q16 0 25.5 2t23.5 16t23 40h42q-10 -52 -39 -79.5t-72 -27.5q-34 0 -96.5 33t-78.5 33z" />
    <glyph glyph-name="notequal" unicode="&#x2260;" horiz-adv-x="480" 
d="M144 -23l41 145h-143l3 49h154l35 125h-189l-3 49h206l39 137h48l-39 -137h142l-3 -49h-153l-35 -125h188l3 -49h-205l-41 -145h-48z" />
    <glyph glyph-name="lessequal" unicode="&#x2264;" horiz-adv-x="480" 
d="M427 99l-395 163v26l395 166l11 -43l-313 -131v-9l313 -132zM448 14h-416l3 49h410z" />
    <glyph glyph-name="greaterequal" unicode="&#x2265;" horiz-adv-x="480" 
d="M448 14h-416l3 49h410zM448 262l-395 -163l-11 40l313 132v9l-313 131l11 43l395 -166v-26z" />
    <glyph glyph-name="pcircle" unicode="&#x24df;" horiz-adv-x="734" 
d="M694 312q0 -136 -95.5 -231.5t-231.5 -95.5t-231.5 95.5t-95.5 231.5t95.5 232t231.5 96t231.5 -96t95.5 -232zM658 312q0 121 -85.5 208t-205.5 87t-205.5 -87t-85.5 -208t85.5 -207.5t205.5 -86.5t205.5 86.5t85.5 207.5zM521 393q0 -53 -40 -87t-95 -34q-22 0 -46 3
v-92q0 -9 10 -11l48 -6l1 -29h-161l2 29l38 6q10 1 10 11v264q0 9 -10 10l-38 7l-2 28h143q69 0 104.5 -27t35.5 -72zM467 383q0 38 -25 58.5t-70 19.5h-32v-155q25 -5 44 -5q38 0 60.5 22t22.5 60z" />
    <glyph glyph-name="commaaccent" unicode="&#xf6c3;" horiz-adv-x="400" 
d="M180 -136q-10 -47 -50 -78t-90 -45l-12 18q72 21 85 78q2 11 1 20t-5 16t-9.5 12.5t-11.5 9.5t-10.5 6.5t-7.5 4.5l-3 1q4 20 20 32t41 9q28 -4 43 -29t9 -55z" />
    <glyph glyph-name="J.alt" horiz-adv-x="465" 
d="M507 625l-3 -34l-70 -10q-17 -3 -20 -18l-49 -375q-14 -100 -71.5 -151.5t-141.5 -51.5q-64 0 -117 33.5t-53 89.5q0 27 17 45t42 17q20 -1 33 -13t13 -31q0 -31 -22 -50q12 -23 37.5 -38t51.5 -15q112 0 133 167l50 373q2 15 -15 18l-77 10l-3 34h265z" />
    <glyph glyph-name="Jcircumflex.alt" horiz-adv-x="465" 
d="M508 669h-21l-89 132h-2l-126 -132h-22l110 184h89zM507 625l-3 -34l-70 -10q-17 -3 -20 -18l-49 -375q-14 -100 -71.5 -151.5t-141.5 -51.5q-64 0 -117 33.5t-53 89.5q0 27 17 45t42 17q20 -1 33 -13t13 -31q0 -31 -22 -50q12 -23 37.5 -38t51.5 -15q112 0 133 167
l50 373q2 15 -15 18l-77 10l-3 34h265z" />
    <glyph glyph-name="dot" horiz-adv-x="226" 
d="M153 227q0 -25 -17.5 -43t-43.5 -18q-27 0 -45 18t-17 43q0 25 17.5 42.5t44.5 17.5t44.5 -18t16.5 -42z" />
    <glyph glyph-name="a.smallcap" horiz-adv-x="436" 
d="M110 159l-28 -61q-10 -24 -13 -35.5t0 -17t13 -7.5l33 -6l3 -32h-161l2 32l26 5q24 4 35.5 19t45.5 88l132 283v19l86 24l81 -417q2 -10 17 -13q3 -1 4 -1l36 -7l3 -32h-201l2 32l37 5q17 3 19.5 11.5t-4.5 44.5l-12 66h-156zM260 192l-36 205h-9l-92 -205h137z" />
    <glyph glyph-name="b.smallcap" horiz-adv-x="468" 
d="M417 129q0 -45 -35 -82q-46 -47 -175 -47h-190l2 32l43 8q13 3 15 14l46 351q2 10 -11 14l-41 7l-2 32h203q157 0 157 -105q0 -45 -37 -76t-98 -38v-5q61 -7 92 -36t31 -69zM337 127q0 45 -33 69t-89 24h-40l-24 -180q2 0 23.5 -4t23.5 -4h32q46 0 76.5 25.5t30.5 69.5z
M348 341q0 41 -29.5 63t-84.5 22h-32l-24 -177l52 1q54 1 86 24t32 67z" />
    <glyph glyph-name="c.smallcap" horiz-adv-x="511" 
d="M445 146l-35 -146l-40 8q-62 -19 -116 -19q-95 0 -155.5 53.5t-60.5 151.5q0 53 21 104.5t58 87.5q80 82 199 82q50 0 103 -15l61 13l-22 -157h-43l-9 100q-39 24 -93 24q-88 0 -141.5 -72.5t-53.5 -174.5q0 -81 45 -126q36 -36 98 -36q54 0 97 22l45 100h42z" />
    <glyph glyph-name="d.smallcap" horiz-adv-x="522" 
d="M489 263q0 -104 -75 -182q-83 -81 -225 -81h-172l2 32l43 8q13 3 15 14l46 351q2 10 -11 14l-41 7l-2 32q183 2 184 2q107 1 171.5 -55t64.5 -142zM408 253q-1 81 -47 127t-131 46h-29l-49 -376l54 -15q91 -4 146.5 58.5t55.5 159.5z" />
    <glyph glyph-name="e.smallcap" horiz-adv-x="478" 
d="M429 139l-32 -139h-380l2 32l43 8q13 3 15 14l46 351q2 10 -11 14l-41 7l-2 32h389l-18 -143h-40l-6 68q-2 13 -5.5 19.5t-10.5 12t-25.5 7t-41 2.5t-65.5 1h-45l-23 -178h39q41 0 53.5 3t18.5 16l23 49h31l-37 -163h-30v47q0 11 -11.5 15t-54.5 4h-35l-24 -185h39
q74 0 105 3t43.5 11t22.5 28l25 64h43z" />
    <glyph glyph-name="f.smallcap" horiz-adv-x="463" 
d="M433 315h-39l-7 68q-4 29 -27 35.5t-121 6.5h-37l-25 -184h39q41 0 54 3.5t20 15.5l23 49h31l-37 -164h-30v48q0 11 -11.5 15t-54.5 4h-37l-21 -158q-2 -11 11 -14l52 -8l3 -32h-202l2 32l43 8q13 3 15 14l46 351q2 10 -11 14l-41 7l-2 32h382z" />
    <glyph glyph-name="g.smallcap" horiz-adv-x="534" 
d="M491 204l-2 -31l-43 -8q-14 -3 -16 -15l-13 -97l40 -5l2 -22q-97 -37 -208 -37q-95 0 -154 53.5t-59 151.5q0 53 21 104.5t58 87.5q80 82 199 82q47 0 102 -15l61 13l-23 -157h-43l-8 100q-39 24 -92 24q-87 0 -141 -72.5t-54 -174.5q0 -83 44 -127q35 -35 96 -35
q48 0 85 15l14 111q2 12 -13 15l-45 8l-3 31h195z" />
    <glyph glyph-name="h.smallcap" horiz-adv-x="570" 
d="M501 0h-191l4 32l41 8q14 3 15 14l22 165h-217l-22 -165q-2 -11 11 -14l41 -8l3 -32h-191l2 32l43 8q13 3 15 14l46 351q2 10 -11 14l-41 7l-2 32h191l-3 -32l-43 -7q-14 -4 -16 -14l-19 -154h217l21 154q1 11 -12 14l-40 7l-3 32h191l-3 -32l-42 -7q-15 -5 -17 -14
l-45 -351q-2 -11 12 -14l40 -8z" />
    <glyph glyph-name="i.smallcap" horiz-adv-x="294" 
d="M223 0h-203l3 32l47 8q14 1 16 14l46 351q2 11 -11 14l-46 7l-3 32h202l-3 -32l-47 -7q-14 -3 -16 -14l-46 -351q-2 -13 13 -14l45 -8z" />
    <glyph glyph-name="j.smallcap" horiz-adv-x="312" 
d="M313 458l-3 -32l-45 -7q-14 -4 -16 -14l-29 -215q-13 -101 -56.5 -151.5t-112.5 -49.5q-34 1 -54 16.5t-18 38.5q2 17 14 27t29 10q20 -1 34.5 -17.5t16.5 -44.5h1q28 11 42.5 42.5t24.5 104.5l32 239q2 11 -12 14l-52 7l-2 32h206z" />
    <glyph glyph-name="j.smallcap.alt" horiz-adv-x="381" 
d="M383 458l-2 -32l-47 -7q-15 -3 -17 -14l-32 -255q-9 -70 -55 -116t-107 -46q-67 0 -101 25.5t-34 63.5q0 23 14 37t33 14q17 0 28 -10.5t11 -27.5q0 -24 -16 -40q18 -28 62 -28q37 0 61 31.5t32 89.5l34 262q2 11 -12 14l-53 7l-2 32h203z" />
    <glyph glyph-name="k.smallcap" horiz-adv-x="504" 
d="M472 0h-178l3 32l25 6q9 3 3 14q-96 175 -97 175l-15 -13q-15 -12 -30 -25l-15 -13l-15 -122q-2 -11 11 -14l41 -8l3 -32h-191l2 32l43 8q13 3 15 14l46 351q2 10 -11 14l-41 7l-2 32h191l-3 -32l-43 -7q-14 -4 -16 -14l-24 -186l146 133q47 41 51 52q1 3 1 6
q0 11 -16 14l-22 3l-3 31h184l-3 -31l-25 -5q-43 -7 -82 -41l-120 -104l125 -217q3 -6 6.5 -10t8 -6t6.5 -3t9 -3l6 -1l23 -5z" />
    <glyph glyph-name="l.smallcap" horiz-adv-x="448" 
d="M405 153l-36 -153h-352l2 32l43 8q13 3 15 14l46 351q2 10 -11 14l-41 7l-2 32h195l-2 -32l-48 -7q-14 -3 -16 -14l-48 -369h21q71 0 99.5 3t40.5 10.5t22 28.5l30 75h42z" />
    <glyph glyph-name="m.smallcap" horiz-adv-x="632" 
d="M589 0h-199l2 32l45 8q10 2 14 18.5t11 82.5l29 267h-9l-192 -393h-57l-67 398h-9l-44 -270q-17 -95 -11 -101q2 -1 7 -2l47 -8l3 -32h-164l2 32l46 8q8 1 11.5 4.5t9.5 26t14 72.5l44 262q2 11 -10 14l-47 7l-3 32h172l57 -350h9l171 350h160l-3 -32l-49 -7
q-13 -3 -15 -15l-27 -263q-5 -46 -5.5 -67.5t2 -27t9.5 -6.5l43 -8z" />
    <glyph glyph-name="n.smallcap" horiz-adv-x="558" 
d="M557 458l-2 -32l-44 -7q-15 -2 -22 -21t-17 -92l-42 -311h-56l-207 395h-8l-31 -238q-6 -50 -6.5 -74.5t3 -30.5t12.5 -8l43 -7l2 -32h-171l2 32l43 7q15 3 22 21t17 92q29 220 29 221q4 33 -15 42l-38 11l-3 32h144l191 -366h8l29 214q7 51 7.5 74.5t-3 30t-13.5 8.5
l-43 7l-2 32h171z" />
    <glyph glyph-name="o.smallcap" horiz-adv-x="528" 
d="M495 258q0 -121 -78 -197q-72 -72 -168 -72q-94 0 -152.5 60t-58.5 149q0 115 70 191q69 79 176 79q92 0 151.5 -60.5t59.5 -149.5zM413 272q0 83 -40 126q-37 35 -89 35q-77 0 -121 -79t-44 -170q0 -82 45 -129q34 -32 85 -32q54 0 93 41.5t55 96t16 111.5z" />
    <glyph glyph-name="p.smallcap" horiz-adv-x="458" 
d="M436 324q0 -66 -60 -106.5t-135 -40.5q-40 0 -72 5l-16 -128q-2 -13 11 -14l53 -8l2 -32h-202l2 32l43 8q13 3 15 14l46 351q2 10 -11 14l-41 7l-2 32h184q88 0 135.5 -37t47.5 -97zM353 323q0 46 -31.5 74t-77.5 28q-39 0 -43 -1l-27 -207q30 -7 62 -7q50 -1 83.5 30.5
t33.5 82.5z" />
    <glyph glyph-name="q.smallcap" horiz-adv-x="528" 
d="M452 -133q-40 -8 -82 -8q-79 0 -114.5 26.5t-77.5 113.5q-65 20 -102.5 73.5t-37.5 125.5q0 115 70 191q69 79 176 79q92 0 151.5 -60.5t59.5 -149.5q0 -121 -78 -197q-61 -62 -145 -71q30 -59 65 -77t115 -14v-32zM413 272q0 83 -40 126q-37 35 -89 35q-77 0 -121 -79
t-44 -170q0 -82 45 -129q34 -32 85 -32q54 0 93 41.5t55 96t16 111.5z" />
    <glyph glyph-name="r.smallcap" horiz-adv-x="483" 
d="M449 0h-122l-29 66l-62 129l-64 4l-19 -145q-2 -11 11 -14l41 -8l3 -32h-191l2 32l43 8q13 3 15 14l46 351q2 10 -11 14l-41 7l-2 32h198q92 0 135 -33t43 -83q0 -52 -36.5 -87.5t-96.5 -50.5l72 -140q10 -22 37 -26l25 -6zM361 330q0 44 -29.5 71t-84.5 26l-46 -1
l-25 -192l71 -10q50 5 82 31.5t32 74.5z" />
    <glyph glyph-name="s.smallcap" horiz-adv-x="414" 
d="M355 129q0 -61 -50 -100.5t-135 -39.5q-75 0 -147 21l9 138h38l19 -105q43 -18 89 -18q50 0 79 22t29 58q0 31 -26 53t-74 45q-28 15 -44.5 25.5t-36.5 27.5t-29.5 38t-9.5 47q0 56 44.5 91.5t127.5 35.5q57 0 105 -10l41 11l-19 -150h-37l-14 95q-38 18 -83 18
q-46 0 -71.5 -17t-25.5 -50t24.5 -55.5t78.5 -48.5q28 -14 44.5 -24.5t36 -27t28.5 -36.5t9 -44z" />
    <glyph glyph-name="t.smallcap" horiz-adv-x="481" 
d="M461 306h-40l-6 70q-4 30 -21.5 38.5t-81.5 8.5h-9l-48 -369q-2 -11 11 -14l50 -8l3 -32h-209l2 32l52 8q13 3 15 14l48 369h-7q-65 0 -85 -7t-31 -35l-29 -75h-41l33 152h413z" />
    <glyph glyph-name="u.smallcap" horiz-adv-x="538" 
d="M542 458l-2 -32l-44 -7q-15 -2 -22 -21t-17 -92l-22 -163q-9 -73 -58 -114t-127 -41q-80 0 -126 38t-46 107q0 11 2 35l33 237q2 10 -11 14l-41 7l-3 32h192l-3 -32l-43 -7q-14 -4 -16 -14l-31 -223q-2 -11 -2 -33q0 -57 32 -86t88 -29q54 0 87.5 31.5t41.5 92.5l20 148
q7 51 7.5 74.5t-3 30t-13.5 8.5l-42 7l-3 32h172z" />
    <glyph glyph-name="v.smallcap" horiz-adv-x="440" 
d="M489 458l-2 -33l-27 -4q-24 -5 -35.5 -20t-46.5 -87l-150 -316h-74l-84 407q-1 3 -2 5t-2 3t-3 2l-3 1q-1 1 -5 2t-6 1l-36 6l-3 33h200l-2 -33l-38 -4q-16 -3 -17.5 -11.5t6.5 -43.5l59 -303h8l119 261q18 40 23.5 60.5t1 28t-18.5 9.5l-27 3l-3 33h168z" />
    <glyph glyph-name="w.smallcap" horiz-adv-x="686" 
d="M730 458l-3 -33l-25 -5q-21 -6 -37 -25t-46 -81l-149 -316h-65l-51 308h-8l-140 -308h-66l-80 407q-3 11 -21 14l-37 6l-3 33h204l-3 -33l-39 -4q-15 -2 -17 -11.5t5 -43.5l51 -285h8l127 275l-8 49q-2 10 -21 14l-37 6l-2 33h206l-2 -33l-39 -4q-21 -3 -12 -55l46 -285
h8l106 232q10 23 17 40t10.5 28.5t5 18.5t-0.5 11t-4.5 6t-7.5 3l-31 5l-3 33h164z" />
    <glyph glyph-name="x.smallcap" horiz-adv-x="478" 
d="M444 0h-194l3 32l32 4q24 3 -1 52l-57 112h-4l-97 -119q-14 -17 -18 -26t-0.5 -12.5t14.5 -5.5l29 -5l3 -32h-171l3 32l35 7q24 4 53 36l132 150l-97 171q-11 20 -25 23l-35 7l-3 32h192l-2 -32l-33 -4q-8 -1 -11 -5.5t0 -16t13 -30.5l51 -101h4l89 108q14 17 18 26
t0.5 13t-15.5 6l-28 4l-3 32h171l-3 -32l-35 -6q-24 -5 -53 -37l-124 -140l104 -184q8 -14 26 -20l34 -7z" />
    <glyph glyph-name="y.smallcap" horiz-adv-x="436" 
d="M474 458l-2 -33l-22 -4q-32 -9 -66 -54l-131 -178l-18 -135q-2 -13 12 -14l51 -8l2 -32h-212l3 32l53 8q13 1 15 14l17 131l-105 212q-8 18 -27 23l-28 5l-2 33h192l-2 -33l-34 -4q-30 -3 -4 -61l63 -142h8l107 149q36 51 4 55l-26 3l-3 33h155z" />
    <glyph glyph-name="z.smallcap" horiz-adv-x="449" 
d="M406 146l-35 -146h-368l4 33l344 386v4h-87q-82 0 -105.5 -9t-36.5 -40l-23 -63h-38l19 147h368l-4 -34l-345 -385v-4h84q63 0 93.5 5t41.5 13.5t19 28.5l27 64h42z" />
    <glyph glyph-name="fi.smallcap" horiz-adv-x="758" 
d="M686 0h-203l3 32l48 8q14 1 16 14l45 351q2 11 -11 14l-46 7l-3 32h203l-3 -32l-47 -7q-15 -3 -17 -14l-45 -351q-2 -13 12 -14l45 -8zM433 315h-39l-7 68q-4 29 -27 35.5t-121 6.5h-37l-25 -184h39q41 0 54 3.5t20 15.5l23 49h31l-37 -164h-30v48q0 11 -11.5 15t-54.5 4
h-37l-21 -158q-2 -11 11 -14l52 -8l3 -32h-202l2 32l43 8q13 3 15 14l46 351q2 10 -11 14l-41 7l-2 32h382z" />
    <glyph glyph-name="fl.smallcap" horiz-adv-x="912" 
d="M869 153l-37 -153h-352l3 32l42 8q13 3 15 14l46 351q2 10 -11 14l-40 7l-3 32h195l-2 -32l-47 -7q-14 -3 -16 -14l-48 -369h21q71 0 99.5 3t40.5 10.5t22 28.5l30 75h42zM433 315h-39l-7 68q-4 29 -27 35.5t-121 6.5h-37l-25 -184h39q41 0 54 3.5t20 15.5l23 49h31
l-37 -164h-30v48q0 11 -11.5 15t-54.5 4h-37l-21 -158q-2 -11 11 -14l52 -8l3 -32h-202l2 32l43 8q13 3 15 14l46 351q2 10 -11 14l-41 7l-2 32h382z" />
    <glyph glyph-name="ff.smallcap" horiz-adv-x="927" 
d="M433 315h-39l-7 68q-4 29 -27 35.5t-121 6.5h-37l-24 -184h38q41 0 54.5 3.5t19.5 15.5l23 49h31l-37 -164h-30v48q0 11 -11.5 15t-54.5 4h-37l-21 -158q-2 -11 12 -14l51 -8l3 -32h-202l3 32l42 8q13 3 15 14l46 351q2 10 -11 14l-41 7l-2 32h383zM897 315h-40l-6 68
q-3 16 -7 23t-21.5 12t-41.5 6t-78 1h-37l-25 -184h39q41 0 54 3.5t19 15.5l24 49h31l-38 -164h-29v48q0 11 -11.5 15t-54.5 4h-38l-21 -158q-2 -11 12 -14l51 -8l3 -32h-202l3 32l42 8q13 3 15 14l46 351q2 10 -11 14l-40 7l-2 32h382z" />
    <glyph glyph-name="ffi.smallcap" horiz-adv-x="1221" 
d="M433 315h-39l-7 68q-4 29 -27 35.5t-121 6.5h-37l-24 -184h38q41 0 54.5 3.5t19.5 15.5l23 49h31l-37 -164h-30v48q0 11 -11.5 15t-54.5 4h-37l-21 -158q-2 -11 12 -14l51 -8l3 -32h-202l3 32l42 8q13 3 15 14l46 351q2 10 -11 14l-41 7l-2 32h383zM897 315h-40l-6 68
q-3 16 -7 23t-21.5 12t-41.5 6t-78 1h-37l-25 -184h39q41 0 54 3.5t19 15.5l24 49h31l-38 -164h-29v48q0 11 -11.5 15t-54.5 4h-38l-21 -158q-2 -11 12 -14l51 -8l3 -32h-202l3 32l42 8q13 3 15 14l46 351q2 10 -11 14l-40 7l-2 32h382zM1149 0h-202l3 32l47 8q14 1 16 14
l46 351q2 11 -12 14l-46 7l-3 32h203l-3 -32l-47 -7q-14 -3 -16 -14l-46 -351q-2 -13 12 -14l45 -8z" />
    <glyph glyph-name="ffl.smallcap" horiz-adv-x="1375" 
d="M433 315h-39l-7 68q-4 29 -27 35.5t-121 6.5h-37l-24 -184h38q41 0 54.5 3.5t19.5 15.5l23 49h31l-37 -164h-30v48q0 11 -11.5 15t-54.5 4h-37l-21 -158q-2 -11 12 -14l51 -8l3 -32h-202l3 32l42 8q13 3 15 14l46 351q2 10 -11 14l-41 7l-2 32h383zM897 315h-40l-6 68
q-3 16 -7 23t-21.5 12t-41.5 6t-78 1h-37l-25 -184h39q41 0 54 3.5t19 15.5l24 49h31l-38 -164h-29v48q0 11 -11.5 15t-54.5 4h-38l-21 -158q-2 -11 12 -14l51 -8l3 -32h-202l3 32l42 8q13 3 15 14l46 351q2 10 -11 14l-40 7l-2 32h382zM1332 153l-36 -153h-352l2 32l42 8
q14 3 16 14l46 351q2 10 -12 14l-40 7l-2 32h195l-2 -32l-48 -7q-14 -3 -16 -14l-48 -369h21q71 0 99.5 3t40.5 10.5t22 28.5l30 75h42z" />
    <glyph glyph-name="germandbls.smallcap" horiz-adv-x="827" 
d="M768 129q0 -62 -49.5 -101t-134.5 -39q-75 0 -148 21l10 138h38l19 -105q41 -18 89 -18q50 0 79 22t29 58q0 31 -26 53t-74 45q-28 14 -45 25t-37 28t-29.5 38t-9.5 47q0 56 45 91.5t127 35.5q57 0 105 -10l42 11l-20 -150h-36l-14 95q-38 18 -84 18q-45 0 -71 -17.5
t-26 -49.5q0 -33 24.5 -55t78.5 -49q28 -15 44.5 -25t36 -26.5t28.5 -36.5t9 -44zM355 129q0 -61 -50 -100.5t-135 -39.5q-75 0 -147 21l9 138h38l19 -105q43 -18 89 -18q50 0 79 22t29 58q0 31 -26 53t-74 45q-28 15 -44.5 25.5t-36.5 27.5t-29.5 38t-9.5 47
q0 56 44.5 91.5t127.5 35.5q57 0 105 -10l41 11l-19 -150h-37l-14 95q-38 18 -83 18q-46 0 -71.5 -17t-25.5 -50t24.5 -55.5t78.5 -48.5q28 -14 44.5 -24.5t36 -27t28.5 -36.5t9 -44z" />
    <glyph glyph-name="agrave.smallcap" horiz-adv-x="436" 
d="M126 159l-28 -61q-10 -24 -13 -35.5t0 -17t13 -7.5l33 -6l3 -32h-161l2 32l26 5q24 4 35.5 19t45.5 88l132 283v19l86 24l81 -417q2 -10 17 -13q3 -1 4 -1l36 -7l3 -32h-201l2 32l37 5q17 3 19.5 11.5t-4.5 44.5l-12 66h-156zM276 192l-36 205h-9l-92 -205h137zM271 508
h-22l-141 184h94z" />
    <glyph glyph-name="aacute.smallcap" horiz-adv-x="436" 
d="M110 159l-28 -61q-10 -24 -13 -35.5t0 -17t13 -7.5l33 -6l3 -32h-161l2 32l26 5q24 4 35.5 19t45.5 88l132 283v19l86 24l81 -417q2 -10 17 -13q3 -1 4 -1l36 -7l3 -32h-201l2 32l37 5q17 3 19.5 11.5t-4.5 44.5l-12 66h-156zM260 192l-36 205h-9l-92 -205h137zM417 692
l-190 -184h-23l119 184h94z" />
    <glyph glyph-name="acircumflex.smallcap" horiz-adv-x="436" 
d="M110 159l-28 -61q-10 -24 -13 -35.5t0 -17t13 -7.5l33 -6l3 -32h-161l2 32l26 5q24 4 35.5 19t45.5 88l132 283v19l86 24l81 -417q2 -10 17 -13q3 -1 4 -1l36 -7l3 -32h-201l2 32l37 5q17 3 19.5 11.5t-4.5 44.5l-12 66h-156zM260 192l-36 205h-9l-92 -205h137zM377 508
h-21l-89 132h-2l-126 -132h-22l110 184h89z" />
    <glyph glyph-name="atilde.smallcap" horiz-adv-x="436" 
d="M110 159l-28 -61q-10 -24 -13 -35.5t0 -17t13 -7.5l33 -6l3 -32h-161l2 32l26 5q24 4 35.5 19t45.5 88l132 283v19l86 24l81 -417q2 -10 17 -13q3 -1 4 -1l36 -7l3 -32h-201l2 32l37 5q17 3 19.5 11.5t-4.5 44.5l-12 66h-156zM426 637q-37 -117 -111 -117q-34 0 -78.5 36
t-59.5 36q-17 0 -30 -13.5t-33 -51.5h-26q35 117 110 117q34 0 78.5 -36t59.5 -36q16 0 29.5 13.5t33.5 51.5h27zM260 192l-36 205h-9l-92 -205h137z" />
    <glyph glyph-name="adieresis.smallcap" horiz-adv-x="436" 
d="M110 159l-28 -61q-10 -24 -13 -35.5t0 -17t13 -7.5l33 -6l3 -32h-161l2 32l26 5q24 4 35.5 19t45.5 88l132 283v19l86 24l81 -417q2 -10 17 -13q3 -1 4 -1l36 -7l3 -32h-201l2 32l37 5q17 3 19.5 11.5t-4.5 44.5l-12 66h-156zM260 192l-36 205h-9l-92 -205h137zM419 597
q0 -24 -15 -41.5t-40 -17.5t-40 17.5t-15 41.5t15.5 41.5t39.5 17.5t39.5 -17.5t15.5 -41.5zM219 597q0 -24 -15 -41.5t-40 -17.5t-40 17.5t-15 41.5t15.5 41.5t39.5 17.5q25 0 40 -17.5t15 -41.5z" />
    <glyph glyph-name="aring.smallcap" horiz-adv-x="436" 
d="M290 439l75 -386q2 -10 17 -13q3 -1 4 -1l36 -7l3 -32h-201l2 32l37 5q17 3 19.5 11.5t-4.5 44.5l-12 66h-156l-28 -61q-10 -24 -13 -35.5t0 -17t13 -7.5l33 -6l3 -32h-161l2 32l26 5q23 4 34 19t47 88l140 300q-43 25 -41 78q0 38 24.5 64t64.5 26t64.5 -26t24.5 -64
q-2 -61 -53 -83zM313 522q0 26 -16 45t-43 19t-43 -19t-17 -45q0 -26 16.5 -45t43.5 -19t43 19t16 45zM260 192l-36 205h-9l-92 -205h137z" />
    <glyph glyph-name="aringacute.smallcap" horiz-adv-x="436" 
d="M430 810l-190 -184h-23l119 184h94zM290 439l75 -386q2 -10 17 -13q3 -1 4 -1l36 -7l3 -32h-201l2 32l37 5q17 3 19.5 11.5t-4.5 44.5l-12 66h-156l-28 -61q-10 -24 -13 -35.5t0 -17t13 -7.5l33 -6l3 -32h-161l2 32l26 5q23 4 34 19t47 88l140 300q-43 25 -41 78
q0 38 24.5 64t64.5 26t64.5 -26t24.5 -64q-2 -61 -53 -83zM313 522q0 26 -16 45t-43 19t-43 -19t-17 -45q0 -26 16.5 -45t43.5 -19t43 19t16 45zM260 192l-36 205h-9l-92 -205h137z" />
    <glyph glyph-name="amacron.smallcap" horiz-adv-x="436" 
d="M110 159l-28 -61q-10 -24 -13 -35.5t0 -17t13 -7.5l33 -6l3 -32h-161l2 32l26 5q24 4 35.5 19t45.5 88l132 283v19l86 24l81 -417q2 -10 17 -13q3 -1 4 -1l36 -7l3 -32h-201l2 32l37 5q17 3 19.5 11.5t-4.5 44.5l-12 66h-156zM260 192l-36 205h-9l-92 -205h137zM378 539
h-247l7 41h240v-41z" />
    <glyph glyph-name="abreve.smallcap" horiz-adv-x="436" 
d="M110 159l-28 -61q-10 -24 -13 -35.5t0 -17t13 -7.5l33 -6l3 -32h-161l2 32l26 5q24 4 35.5 19t45.5 88l132 283v19l86 24l81 -417q2 -10 17 -13q3 -1 4 -1l36 -7l3 -32h-201l2 32l37 5q17 3 19.5 11.5t-4.5 44.5l-12 66h-156zM408 692q-14 -42 -25.5 -67.5t-31 -57
t-46 -47t-59.5 -15.5t-55 15.5t-33 47.5t-15.5 56.5t-8.5 67.5h23q17 -66 38.5 -102t57.5 -36t66 35t66 103h23zM260 192l-36 205h-9l-92 -205h137z" />
    <glyph glyph-name="aogonek.smallcap" horiz-adv-x="436" 
d="M314 -210q-38 4 -57.5 30t-11.5 66q8 36 39.5 66.5t70.5 47.5h-131l2 32l37 5q17 3 19.5 11.5t-4.5 44.5l-12 66h-156l-28 -61q-10 -24 -13 -35.5t0 -17t13 -7.5l33 -6l3 -32h-161l2 32l26 5q24 5 35.5 20t45.5 87l132 283v19l86 24l81 -417q2 -10 17 -13q3 -1 4 -1
l36 -7l3 -32q-46 -7 -77 -36.5t-37 -65.5q-11 -55 34 -59q31 -3 54 15l9 -13q-12 -23 -37 -38.5t-57 -12.5zM260 192l-36 205h-9l-92 -205h137z" />
    <glyph glyph-name="ae.smallcap" horiz-adv-x="682" 
d="M633 139l-32 -139h-378l4 32l44 8q12 1 14 14l14 110h-155l-32 -44q-37 -50 -37 -69q-1 -10 11 -13l32 -6l3 -32h-164l3 32l27 5q15 4 35.5 24.5t67.5 83.5l171 242q21 29 -9 34l-37 5l-2 32h449l-18 -143h-40l-7 68q-3 29 -25.5 35.5t-121.5 6.5h-45l-23 -178h39
q41 0 53.5 3t18.5 16l23 49h31l-37 -163h-30v47q0 11 -11.5 15t-55.5 4l-35 1l-24 -186h40q73 0 104 3t44 11t23 28l25 64h43zM304 196l30 231h-7l-163 -231h140z" />
    <glyph glyph-name="aeacute.smallcap" horiz-adv-x="682" 
d="M606 692l-190 -184h-23l119 184h94zM633 139l-32 -139h-378l4 32l44 8q12 1 14 14l14 110h-155l-32 -44q-37 -50 -37 -69q-1 -10 11 -13l32 -6l3 -32h-164l3 32l27 5q15 4 35.5 24.5t67.5 83.5l171 242q21 29 -9 34l-37 5l-2 32h449l-18 -143h-40l-7 68q-3 29 -25.5 35.5
t-121.5 6.5h-45l-23 -178h39q41 0 53.5 3t18.5 16l23 49h31l-37 -163h-30v47q0 11 -11.5 15t-55.5 4l-35 1l-24 -186h40q73 0 104 3t44 11t23 28l25 64h43zM304 196l30 231h-7l-163 -231h140z" />
    <glyph glyph-name="ccedilla.smallcap" horiz-adv-x="511" 
d="M226 -10q-84 8 -136 60.5t-52 143.5q0 53 21 104.5t58 87.5q80 82 199 82q50 0 103 -15l61 13l-22 -157h-43l-9 100q-39 24 -93 24q-88 0 -141.5 -72.5t-53.5 -174.5q0 -81 45 -126q36 -36 98 -36q54 0 97 22l45 100h42l-35 -146l-40 8q-57 -17 -104 -19l-53 -48
q54 2 86.5 -19t32.5 -59q0 -52 -60 -87.5t-162 -42.5l-4 22q168 23 168 95q0 47 -78 47q-26 0 -59 -5l2 17z" />
    <glyph glyph-name="cacute.smallcap" horiz-adv-x="511" 
d="M476 692l-190 -184h-23l119 184h94zM445 146l-35 -146l-40 8q-62 -19 -116 -19q-95 0 -155.5 53.5t-60.5 151.5q0 53 21 104.5t58 87.5q80 82 199 82q50 0 103 -15l61 13l-22 -157h-43l-9 100q-39 24 -93 24q-88 0 -141.5 -72.5t-53.5 -174.5q0 -81 45 -126
q36 -36 98 -36q54 0 97 22l45 100h42z" />
    <glyph glyph-name="ccircumflex.smallcap" horiz-adv-x="511" 
d="M422 508h-21l-89 132h-2l-126 -132h-22l110 184h89zM445 146l-35 -146l-40 8q-62 -19 -116 -19q-95 0 -155.5 53.5t-60.5 151.5q0 53 21 104.5t58 87.5q80 82 199 82q50 0 103 -15l61 13l-22 -157h-43l-9 100q-39 24 -93 24q-88 0 -141.5 -72.5t-53.5 -174.5
q0 -81 45 -126q36 -36 98 -36q54 0 97 22l45 100h42z" />
    <glyph glyph-name="cdotaccent.smallcap" horiz-adv-x="511" 
d="M445 146l-35 -146l-40 8q-62 -19 -116 -19q-95 0 -155.5 53.5t-60.5 151.5q0 53 21 104.5t58 87.5q80 82 199 82q50 0 103 -15l61 13l-22 -157h-43l-9 100q-39 24 -93 24q-88 0 -141.5 -72.5t-53.5 -174.5q0 -81 45 -126q36 -36 98 -36q54 0 97 22l45 100h42zM383 603
q0 -25 -15.5 -43t-40.5 -18q-26 0 -41.5 18t-15.5 43t15.5 42.5t41.5 17.5q25 0 40.5 -18t15.5 -42z" />
    <glyph glyph-name="ccaron.smallcap" horiz-adv-x="511" 
d="M452 692l-110 -184h-89l-61 184h21l90 -131h2l125 131h22zM445 146l-35 -146l-40 8q-62 -19 -116 -19q-95 0 -155.5 53.5t-60.5 151.5q0 53 21 104.5t58 87.5q80 82 199 82q50 0 103 -15l61 13l-22 -157h-43l-9 100q-39 24 -93 24q-88 0 -141.5 -72.5t-53.5 -174.5
q0 -81 45 -126q36 -36 98 -36q54 0 97 22l45 100h42z" />
    <glyph glyph-name="dcaron.smallcap" horiz-adv-x="524" 
d="M489 263q0 -104 -75 -182q-83 -81 -225 -81h-172l2 32l43 8q13 3 15 14l46 351q2 10 -11 14l-41 7l-2 32q183 2 184 2q107 1 171.5 -55t64.5 -142zM408 253q-1 81 -47 127t-131 46h-29l-49 -376l54 -15q91 -4 146.5 58.5t55.5 159.5zM418 693l-111 -184h-89l-60 184h21
l89 -132h2l125 132h23z" />
    <glyph glyph-name="eth.smallcap" horiz-adv-x="539" 
d="M115 214h-75l3 39h77l20 152q2 10 -11 14l-41 7l-2 32q183 2 184 2q107 1 171.5 -55t64.5 -142q0 -104 -75 -182q-83 -81 -225 -81h-172l2 32l43 8q13 3 15 14zM195 253h107l3 -39h-115l-21 -164l54 -15q91 -4 146.5 58.5t55.5 159.5q-1 81 -47 127t-131 46h-29z" />
    <glyph glyph-name="dcroat.smallcap" horiz-adv-x="539" 
d="M115 214h-75l3 39h77l20 152q2 10 -11 14l-41 7l-2 32q183 2 184 2q107 1 171.5 -55t64.5 -142q0 -104 -75 -182q-83 -81 -225 -81h-172l2 32l43 8q13 3 15 14zM195 253h107l3 -39h-115l-21 -164l54 -15q91 -4 146.5 58.5t55.5 159.5q-1 81 -47 127t-131 46h-29z" />
    <glyph glyph-name="egrave.smallcap" horiz-adv-x="475" 
d="M461 139l-32 -139h-380l2 32l43 8q13 3 15 14l46 351q2 10 -11 14l-41 7l-2 32h389l-18 -143h-40l-6 68q-2 13 -5.5 19.5t-10.5 12t-25.5 7t-41 2.5t-65.5 1h-45l-23 -178h39q41 0 53.5 3t18.5 16l23 49h31l-37 -163h-30v47q0 11 -11.5 15t-54.5 4h-35l-24 -185h39
q74 0 105 3t43.5 11t22.5 28l25 64h43zM278 508h-22l-141 184h94z" />
    <glyph glyph-name="eacute.smallcap" horiz-adv-x="478" 
d="M429 139l-32 -139h-380l2 32l43 8q13 3 15 14l46 351q2 10 -11 14l-41 7l-2 32h389l-18 -143h-40l-6 68q-2 13 -5.5 19.5t-10.5 12t-25.5 7t-41 2.5t-65.5 1h-45l-23 -178h39q41 0 53.5 3t18.5 16l23 49h31l-37 -163h-30v47q0 11 -11.5 15t-54.5 4h-35l-24 -185h39
q74 0 105 3t43.5 11t22.5 28l25 64h43zM454 692l-190 -184h-23l119 184h94z" />
    <glyph glyph-name="ecircumflex.smallcap" horiz-adv-x="478" 
d="M429 139l-32 -139h-380l2 32l43 8q13 3 15 14l46 351q2 10 -11 14l-41 7l-2 32h389l-18 -143h-40l-6 68q-2 13 -5.5 19.5t-10.5 12t-25.5 7t-41 2.5t-65.5 1h-45l-23 -178h39q41 0 53.5 3t18.5 16l23 49h31l-37 -163h-30v47q0 11 -11.5 15t-54.5 4h-35l-24 -185h39
q74 0 105 3t43.5 11t22.5 28l25 64h43zM411 508h-21l-89 132h-2l-126 -132h-22l110 184h89z" />
    <glyph glyph-name="edieresis.smallcap" horiz-adv-x="478" 
d="M429 139l-32 -139h-380l2 32l43 8q13 3 15 14l46 351q2 10 -11 14l-41 7l-2 32h389l-18 -143h-40l-6 68q-2 13 -5.5 19.5t-10.5 12t-25.5 7t-41 2.5t-65.5 1h-45l-23 -178h39q41 0 53.5 3t18.5 16l23 49h31l-37 -163h-30v47q0 11 -11.5 15t-54.5 4h-35l-24 -185h39
q74 0 105 3t43.5 11t22.5 28l25 64h43zM439 597q0 -24 -15 -41.5t-40 -17.5t-40 17.5t-15 41.5t15.5 41.5t39.5 17.5t39.5 -17.5t15.5 -41.5zM239 597q0 -24 -15 -41.5t-40 -17.5t-40 17.5t-15 41.5t15.5 41.5t39.5 17.5q25 0 40 -17.5t15 -41.5z" />
    <glyph glyph-name="emacron.smallcap" horiz-adv-x="478" 
d="M429 139l-32 -139h-380l2 32l43 8q13 3 15 14l46 351q2 10 -11 14l-41 7l-2 32h389l-18 -143h-40l-6 68q-2 13 -5.5 19.5t-10.5 12t-25.5 7t-41 2.5t-65.5 1h-45l-23 -178h39q41 0 53.5 3t18.5 16l23 49h31l-37 -163h-30v47q0 11 -11.5 15t-54.5 4h-35l-24 -185h39
q74 0 105 3t43.5 11t22.5 28l25 64h43zM412 539h-247l7 41h240v-41z" />
    <glyph glyph-name="ebreve.smallcap" horiz-adv-x="478" 
d="M429 139l-32 -139h-380l2 32l43 8q13 3 15 14l46 351q2 10 -11 14l-41 7l-2 32h389l-18 -143h-40l-6 68q-2 13 -5.5 19.5t-10.5 12t-25.5 7t-41 2.5t-65.5 1h-45l-23 -178h39q41 0 53.5 3t18.5 16l23 49h31l-37 -163h-30v47q0 11 -11.5 15t-54.5 4h-35l-24 -185h39
q74 0 105 3t43.5 11t22.5 28l25 64h43zM432 692q-14 -42 -25.5 -67.5t-31 -57t-46 -47t-59.5 -15.5t-55 15.5t-33 47.5t-15.5 56.5t-8.5 67.5h23q17 -66 38.5 -102t57.5 -36t66 35t66 103h23z" />
    <glyph glyph-name="edotaccent.smallcap" horiz-adv-x="478" 
d="M429 139l-32 -139h-380l2 32l43 8q13 3 15 14l46 351q2 10 -11 14l-41 7l-2 32h389l-18 -143h-40l-6 68q-2 13 -5.5 19.5t-10.5 12t-25.5 7t-41 2.5t-65.5 1h-45l-23 -178h39q41 0 53.5 3t18.5 16l23 49h31l-37 -163h-30v47q0 11 -11.5 15t-54.5 4h-35l-24 -185h39
q74 0 105 3t43.5 11t22.5 28l25 64h43zM356 603q0 -25 -15.5 -43t-40.5 -18q-26 0 -41.5 18t-15.5 43t15.5 42.5t41.5 17.5q25 0 40.5 -18t15.5 -42z" />
    <glyph glyph-name="eogonek.smallcap" horiz-adv-x="478" 
d="M287 -210q-38 4 -57.5 30t-11.5 66q13 64 100 114h-301l3 32l42 8q13 3 15 14l46 351q2 10 -11 14l-41 7l-2 32h389l-18 -143h-40l-6 68q-2 13 -5.5 19.5t-10.5 12t-25.5 7t-41 2.5t-65.5 1h-45l-22 -178h38q41 0 53.5 3t18.5 16l23 49h31l-37 -163h-30v47q0 11 -11.5 15
t-54.5 4h-35l-24 -185h39q74 0 105 3t43.5 11t22.5 28l25 64h43l-32 -139h-35q-67 -48 -78 -101q-5 -24 3 -41t30 -19q32 -3 55 15l9 -13q-11 -23 -36.5 -38.5t-57.5 -12.5z" />
    <glyph glyph-name="ecaron.smallcap" horiz-adv-x="478" 
d="M439 692l-110 -184h-89l-61 184h21l90 -131h2l125 131h22zM429 139l-32 -139h-380l2 32l43 8q13 3 15 14l46 351q2 10 -11 14l-41 7l-2 32h389l-18 -143h-40l-6 68q-2 13 -5.5 19.5t-10.5 12t-25.5 7t-41 2.5t-65.5 1h-45l-23 -178h39q41 0 53.5 3t18.5 16l23 49h31
l-37 -163h-30v47q0 11 -11.5 15t-54.5 4h-35l-24 -185h39q74 0 105 3t43.5 11t22.5 28l25 64h43z" />
    <glyph glyph-name="gcircumflex.smallcap" horiz-adv-x="534" 
d="M446 508h-21l-89 132h-2l-126 -132h-22l110 184h89zM491 204l-2 -31l-43 -8q-14 -3 -16 -15l-13 -97l40 -5l2 -22q-97 -37 -208 -37q-95 0 -154 53.5t-59 151.5q0 53 21 104.5t58 87.5q80 82 199 82q47 0 102 -15l61 13l-23 -157h-43l-8 100q-39 24 -92 24
q-87 0 -141 -72.5t-54 -174.5q0 -83 44 -127q35 -35 96 -35q48 0 85 15l14 111q2 12 -13 15l-45 8l-3 31h195z" />
    <glyph glyph-name="gbreve.smallcap" horiz-adv-x="534" 
d="M491 204l-2 -31l-43 -8q-14 -3 -16 -15l-13 -97l40 -5l2 -22q-97 -37 -208 -37q-95 0 -154 53.5t-59 151.5q0 53 21 104.5t58 87.5q80 82 199 82q47 0 102 -15l61 13l-23 -157h-43l-8 100q-39 24 -92 24q-87 0 -141 -72.5t-54 -174.5q0 -83 44 -127q35 -35 96 -35
q48 0 85 15l14 111q2 12 -13 15l-45 8l-3 31h195zM473 692q-14 -42 -25.5 -67.5t-31 -57t-46 -47t-59.5 -15.5t-55 15.5t-33 47.5t-15.5 56.5t-8.5 67.5h23q17 -66 38.5 -102t57.5 -36t66 35t66 103h23z" />
    <glyph glyph-name="gdotaccent.smallcap" horiz-adv-x="534" 
d="M491 204l-2 -31l-43 -8q-14 -3 -16 -15l-13 -97l40 -5l2 -22q-97 -37 -208 -37q-95 0 -154 53.5t-59 151.5q0 53 21 104.5t58 87.5q80 82 199 82q47 0 102 -15l61 13l-23 -157h-43l-8 100q-39 24 -92 24q-87 0 -141 -72.5t-54 -174.5q0 -83 44 -127q35 -35 96 -35
q48 0 85 15l14 111q2 12 -13 15l-45 8l-3 31h195zM387 603q0 -25 -15.5 -43t-40.5 -18q-26 0 -41.5 18t-15.5 43t15.5 42.5t41.5 17.5q25 0 40.5 -18t15.5 -42z" />
    <glyph glyph-name="gcommaaccent.smallcap" horiz-adv-x="534" 
d="M300 -137q-10 -47 -50 -78t-90 -45l-12 18q72 21 85 78q2 11 1 20t-5 16t-9.5 12.5t-11.5 9.5t-10.5 6.5t-7.5 3.5l-3 2q4 20 20 32t41 9q28 -4 43 -29t9 -55zM491 204l-2 -31l-43 -8q-14 -3 -16 -15l-13 -97l40 -5l2 -22q-97 -37 -208 -37q-95 0 -154 53.5t-59 151.5
q0 53 21 104.5t58 87.5q80 82 199 82q47 0 102 -15l61 13l-23 -157h-43l-8 100q-39 24 -92 24q-87 0 -141 -72.5t-54 -174.5q0 -83 44 -127q35 -35 96 -35q48 0 85 15l14 111q2 12 -13 15l-45 8l-3 31h195z" />
    <glyph glyph-name="hcircumflex.smallcap" horiz-adv-x="570" 
d="M447 509h-21l-89 132h-2l-126 -132h-22l110 184h89zM501 0h-191l4 32l41 8q14 3 15 14l22 165h-217l-22 -165q-2 -11 11 -14l41 -8l3 -32h-191l2 32l43 8q13 3 15 14l46 351q2 10 -11 14l-41 7l-2 32h191l-3 -32l-43 -7q-14 -4 -16 -14l-19 -154h217l21 154q1 11 -12 14
l-40 7l-3 32h191l-3 -32l-42 -7q-15 -5 -17 -14l-45 -351q-2 -11 12 -14l40 -8z" />
    <glyph glyph-name="hbar.smallcap" horiz-adv-x="570" 
d="M502 0h-192l4 32l41 8q15 3 16 14l21 165h-217l-22 -165q-2 -11 12 -14l40 -8l3 -32h-191l3 32l42 8q13 3 15 14l33 254h-91l6 35h90l8 62q2 10 -11 14l-41 7l-2 32h191l-3 -32l-43 -7q-14 -4 -16 -14l-7 -62h218l8 62q1 11 -12 14l-40 7l-2 32h190l-3 -32l-42 -7
q-14 -4 -16 -14l-8 -62h80v-35h-85l-33 -254q-2 -11 12 -14l41 -8zM179 251h217l8 57h-218z" />
    <glyph glyph-name="igrave.smallcap" horiz-adv-x="294" 
d="M223 0h-203l3 32l47 8q14 1 16 14l46 351q2 11 -11 14l-46 7l-3 32h202l-3 -32l-47 -7q-14 -3 -16 -14l-46 -351q-2 -13 13 -14l45 -8zM209 508h-22l-141 184h94z" />
    <glyph glyph-name="iacute.smallcap" horiz-adv-x="294" 
d="M223 0h-203l3 32l47 8q14 1 16 14l46 351q2 11 -11 14l-46 7l-3 32h202l-3 -32l-47 -7q-14 -3 -16 -14l-46 -351q-2 -13 13 -14l45 -8zM361 692l-190 -184h-23l119 184h94z" />
    <glyph glyph-name="icircumflex.smallcap" horiz-adv-x="294" 
d="M223 0h-203l3 32l47 8q14 1 16 14l46 351q2 11 -11 14l-46 7l-3 32h202l-3 -32l-47 -7q-14 -3 -16 -14l-46 -351q-2 -13 13 -14l45 -8zM307 508h-21l-89 132h-2l-126 -132h-22l110 184h89z" />
    <glyph glyph-name="idieresis.smallcap" horiz-adv-x="294" 
d="M223 0h-203l3 32l47 8q14 1 16 14l46 351q2 11 -11 14l-46 7l-3 32h202l-3 -32l-47 -7q-14 -3 -16 -14l-46 -351q-2 -13 13 -14l45 -8zM348 597q0 -24 -15 -41.5t-40 -17.5t-40 17.5t-15 41.5t15.5 41.5t39.5 17.5t39.5 -17.5t15.5 -41.5zM148 597q0 -24 -15 -41.5
t-40 -17.5t-40 17.5t-15 41.5t15.5 41.5t39.5 17.5q25 0 40 -17.5t15 -41.5z" />
    <glyph glyph-name="imacron.smallcap" horiz-adv-x="294" 
d="M223 0h-203l3 32l47 8q14 1 16 14l46 351q2 11 -11 14l-46 7l-3 32h202l-3 -32l-47 -7q-14 -3 -16 -14l-46 -351q-2 -13 13 -14l45 -8zM310 539h-247l7 41h240v-41z" />
    <glyph glyph-name="ibreve.smallcap" horiz-adv-x="294" 
d="M223 0h-203l3 32l47 8q14 1 16 14l46 351q2 11 -11 14l-46 7l-3 32h202l-3 -32l-47 -7q-14 -3 -16 -14l-46 -351q-2 -13 13 -14l45 -8zM340 692q-14 -42 -25.5 -67.5t-31 -57t-46 -47t-59.5 -15.5t-55 15.5t-33 47.5t-15.5 56.5t-8.5 67.5h23q17 -66 38.5 -102t57.5 -36
t66 35t66 103h23z" />
    <glyph glyph-name="iogonek.smallcap" horiz-adv-x="294" 
d="M106 -210q-38 4 -58 30t-11 66q7 36 38.5 66.5t71.5 47.5h-127l3 32l47 8q14 1 16 14l46 351q2 11 -11 14l-46 7l-3 32h202l-2 -32l-48 -7q-14 -3 -16 -14l-46 -351q-2 -13 13 -14l45 -8l3 -32q-47 -7 -81 -37t-39 -65q-11 -55 34 -59q31 -3 54 15l9 -13
q-12 -23 -37 -38.5t-57 -12.5z" />
    <glyph glyph-name="idotaccent.smallcap" horiz-adv-x="294" 
d="M223 0h-203l3 32l47 8q14 1 16 14l46 351q2 11 -11 14l-46 7l-3 32h202l-3 -32l-47 -7q-14 -3 -16 -14l-46 -351q-2 -13 13 -14l45 -8zM254 603q0 -25 -15.5 -43t-40.5 -18q-26 0 -41.5 18t-15.5 43t15.5 42.5t41.5 17.5q25 0 40.5 -18t15.5 -42z" />
    <glyph glyph-name="dotlessi.smallcap" horiz-adv-x="294" 
d="M223 0h-203l3 32l47 8q14 1 16 14l46 351q2 11 -11 14l-46 7l-3 32h202l-3 -32l-47 -7q-14 -3 -16 -14l-46 -351q-2 -13 13 -14l45 -8z" />
    <glyph glyph-name="jcircumflex.smallcap" horiz-adv-x="312" 
d="M313 458l-3 -32l-45 -7q-14 -4 -16 -14l-28 -215q-13 -101 -57 -151.5t-113 -49.5q-34 1 -54 17t-18 38q2 17 14 27t29 10q20 -1 35 -17.5t16 -44.5h1q28 11 43 42.5t25 104.5l31 239q2 11 -12 14l-52 7l-2 32h206zM358 508h-21l-89 132h-2l-126 -132h-22l110 184h89z
" />
    <glyph glyph-name="jcircumflex.smallcap.alt" horiz-adv-x="381" 
d="M415 508h-21l-89 132h-2l-126 -132h-22l110 184h89zM383 458l-2 -32l-47 -7q-15 -3 -17 -14l-32 -255q-9 -70 -55 -116t-107 -46q-67 0 -101 25.5t-34 63.5q0 23 14 37t33 14q17 0 28 -10.5t11 -27.5q0 -24 -16 -40q18 -28 62 -28q37 0 61 31.5t32 89.5l34 262
q2 11 -12 14l-53 7l-2 32h203z" />
    <glyph glyph-name="dotlessj.smallcap" horiz-adv-x="312" 
d="M313 458l-3 -32l-45 -7q-14 -4 -16 -14l-28 -215q-13 -101 -57 -151.5t-113 -49.5q-34 1 -54 17t-18 38q2 17 14 27t29 10q20 -1 35 -17.5t16 -44.5h1q28 11 43 42.5t25 104.5l31 239q2 11 -12 14l-52 7l-2 32h206z" />
    <glyph glyph-name="kcommaaccent.smallcap" horiz-adv-x="504" 
d="M295 -136q-10 -47 -50 -78t-90 -45l-12 18q72 21 85 78q2 11 1 20t-5 16t-9.5 12.5t-11.5 9.5t-10.5 6.5t-7.5 4.5l-3 1q4 20 20 32t41 9q28 -4 43 -29t9 -55zM472 0h-178l3 32l25 6q9 3 3 14q-96 175 -97 175l-15 -13q-15 -12 -30 -25l-15 -13l-15 -122q-2 -11 11 -14
l41 -8l3 -32h-191l2 32l43 8q13 3 15 14l46 351q2 10 -11 14l-41 7l-2 32h191l-3 -32l-43 -7q-14 -4 -16 -14l-24 -186l146 133q47 41 51 52q1 3 1 6q0 11 -16 14l-22 3l-3 31h184l-3 -31l-25 -5q-43 -7 -82 -41l-120 -104l125 -217q3 -6 6.5 -10t8 -6t6.5 -3t9 -3l6 -1
l23 -5z" />
    <glyph glyph-name="lacute.smallcap" horiz-adv-x="449" 
d="M353 673l-190 -184h-23l119 184h94zM405 153l-36 -153h-352l2 32l43 8q13 3 15 14l46 351q2 10 -11 14l-41 7l-2 32h195l-2 -32l-48 -7q-14 -3 -16 -14l-48 -369h21q71 0 99.5 3t40.5 10.5t22 28.5l30 75h42z" />
    <glyph glyph-name="lcommaaccent.smallcap" horiz-adv-x="449" 
d="M264 -136q-10 -47 -50 -78t-90 -45l-12 18q72 21 85 78q2 11 1 20t-5 16t-9.5 12.5t-11.5 9.5t-10.5 6.5t-7.5 4.5l-3 1q4 20 20 32t41 9q28 -4 43 -29t9 -55zM405 153l-36 -153h-352l2 32l43 8q13 3 15 14l46 351q2 10 -11 14l-41 7l-2 32h195l-2 -32l-48 -7
q-14 -3 -16 -14l-48 -369h21q71 0 99.5 3t40.5 10.5t22 28.5l30 75h42z" />
    <glyph glyph-name="lcaron.smallcap" horiz-adv-x="619" 
d="M641 380q-3 -99 -164 -189l-20 18q98 59 102 129q1 15 -5.5 29t-16 23t-19 15.5t-16.5 10.5l-7 3q1 22 19.5 37t44.5 15q34 0 58.5 -26.5t23.5 -64.5zM405 153l-36 -153h-352l2 32l43 8q13 3 15 14l46 351q2 10 -11 14l-41 7l-2 32h195l-2 -32l-48 -7q-14 -3 -16 -14
l-48 -369h21q71 0 99.5 3t40.5 10.5t22 28.5l30 75h42z" />
    <glyph glyph-name="ldotaccent.smallcap" horiz-adv-x="568" 
d="M598 242q0 -25 -17.5 -43t-43.5 -18q-27 0 -45 18t-17 43q0 24 17.5 42t44.5 18t44.5 -18t16.5 -42zM405 153l-36 -153h-352l2 32l43 8q13 3 15 14l46 351q2 10 -11 14l-41 7l-2 32h195l-2 -32l-48 -7q-14 -3 -16 -14l-48 -369h21q71 0 99.5 3t40.5 10.5t22 28.5l30 75
h42z" />
    <glyph glyph-name="lslash.smallcap" horiz-adv-x="465" 
d="M189 204l-22 -168h21q71 0 99.5 3t40.5 10.5t22 28.5l30 75h42l-36 -153h-352l2 32l43 8q13 3 15 14l17 129l-17 -5q-18 -4 -36 -9l-18 -5l1 42q5 1 12.5 3.5t24.5 6.5l27 8l11 2l24 179q2 10 -11 14l-41 7l-2 32h195l-2 -32l-48 -7q-14 -3 -16 -14q-20 -157 -21 -157
l92 25v-42q-97 -26 -97 -27z" />
    <glyph glyph-name="ntilde.smallcap" horiz-adv-x="558" 
d="M557 458l-2 -32l-44 -7q-15 -2 -22 -21t-17 -92l-42 -311h-56l-207 395h-8l-31 -238q-6 -50 -6.5 -74.5t3 -30.5t12.5 -8l43 -7l2 -32h-171l2 32l43 7q15 3 22 21t17 92q29 220 29 221q4 33 -15 42l-38 11l-3 32h144l191 -366h8l29 214q7 51 7.5 74.5t-3 30t-13.5 8.5
l-43 7l-2 32h171zM491 637q-37 -117 -111 -117q-34 0 -78.5 36t-59.5 36q-17 0 -30 -13.5t-33 -51.5h-26q35 117 110 117q34 0 78.5 -36t59.5 -36q16 0 29.5 13.5t33.5 51.5h27z" />
    <glyph glyph-name="nacute.smallcap" horiz-adv-x="558" 
d="M489 692l-190 -184h-23l119 184h94zM557 458l-2 -32l-44 -7q-15 -2 -22 -21t-17 -92l-42 -311h-56l-207 395h-8l-31 -238q-6 -50 -6.5 -74.5t3 -30.5t12.5 -8l43 -7l2 -32h-171l2 32l43 7q15 3 22 21t17 92q29 220 29 221q4 33 -15 42l-38 11l-3 32h144l191 -366h8
l29 214q7 51 7.5 74.5t-3 30t-13.5 8.5l-43 7l-2 32h171z" />
    <glyph glyph-name="ncommaaccent.smallcap" horiz-adv-x="558" 
d="M293 -136q-10 -47 -50 -78t-90 -45l-12 18q72 21 85 78q2 11 1 20t-5 16t-9.5 12.5t-11.5 9.5t-10.5 6.5t-7.5 4.5l-3 1q4 20 20 32t41 9q28 -4 43 -29t9 -55zM557 458l-2 -32l-44 -7q-15 -2 -22 -21t-17 -92l-42 -311h-56l-207 395h-8l-31 -238q-6 -50 -6.5 -74.5
t3 -30.5t12.5 -8l43 -7l2 -32h-171l2 32l43 7q15 3 22 21t17 92q29 220 29 221q4 33 -15 42l-38 11l-3 32h144l191 -366h8l29 214q7 51 7.5 74.5t-3 30t-13.5 8.5l-43 7l-2 32h171z" />
    <glyph glyph-name="ncaron.smallcap" horiz-adv-x="558" 
d="M466 692l-110 -184h-89l-61 184h21l90 -131h2l125 131h22zM557 458l-2 -32l-44 -7q-15 -2 -22 -21t-17 -92l-42 -311h-56l-207 395h-8l-31 -238q-6 -50 -6.5 -74.5t3 -30.5t12.5 -8l43 -7l2 -32h-171l2 32l43 7q15 3 22 21t17 92q29 220 29 221q4 33 -15 42l-38 11l-3 32
h144l191 -366h8l29 214q7 51 7.5 74.5t-3 30t-13.5 8.5l-43 7l-2 32h171z" />
    <glyph glyph-name="ograve.smallcap" horiz-adv-x="528" 
d="M543 258q0 -121 -78 -197q-72 -72 -168 -72q-94 0 -152.5 60t-58.5 149q0 115 70 191q69 79 176 79q92 0 151.5 -60.5t59.5 -149.5zM461 272q0 83 -40 126q-37 35 -89 35q-77 0 -121 -79t-44 -170q0 -82 45 -129q34 -32 85 -32q54 0 93 41.5t55 96t16 111.5zM285 508h-22
l-141 184h94z" />
    <glyph glyph-name="oacute.smallcap" horiz-adv-x="528" 
d="M495 258q0 -121 -78 -197q-72 -72 -168 -72q-94 0 -152.5 60t-58.5 149q0 115 70 191q69 79 176 79q92 0 151.5 -60.5t59.5 -149.5zM413 272q0 83 -40 126q-37 35 -89 35q-77 0 -121 -79t-44 -170q0 -82 45 -129q34 -32 85 -32q54 0 93 41.5t55 96t16 111.5zM480 692
l-190 -184h-23l119 184h94z" />
    <glyph glyph-name="ocircumflex.smallcap" horiz-adv-x="528" 
d="M495 258q0 -121 -78 -197q-72 -72 -168 -72q-94 0 -152.5 60t-58.5 149q0 115 70 191q69 79 176 79q92 0 151.5 -60.5t59.5 -149.5zM413 272q0 83 -40 126q-37 35 -89 35q-77 0 -121 -79t-44 -170q0 -82 45 -129q34 -32 85 -32q54 0 93 41.5t55 96t16 111.5zM424 508h-21
l-89 132h-2l-126 -132h-22l110 184h89z" />
    <glyph glyph-name="otilde.smallcap" horiz-adv-x="528" 
d="M495 258q0 -121 -78 -197q-72 -72 -168 -72q-94 0 -152.5 60t-58.5 149q0 115 70 191q69 79 176 79q92 0 151.5 -60.5t59.5 -149.5zM413 272q0 83 -40 126q-37 35 -89 35q-77 0 -121 -79t-44 -170q0 -82 45 -129q34 -32 85 -32q54 0 93 41.5t55 96t16 111.5zM480 637
q-37 -117 -111 -117q-34 0 -78.5 36t-59.5 36q-17 0 -30 -13.5t-33 -51.5h-26q35 117 110 117q34 0 78.5 -36t59.5 -36q16 0 29.5 13.5t33.5 51.5h27z" />
    <glyph glyph-name="odieresis.smallcap" horiz-adv-x="528" 
d="M495 258q0 -121 -78 -197q-72 -72 -168 -72q-94 0 -152.5 60t-58.5 149q0 115 70 191q69 79 176 79q92 0 151.5 -60.5t59.5 -149.5zM413 272q0 83 -40 126q-37 35 -89 35q-77 0 -121 -79t-44 -170q0 -82 45 -129q34 -32 85 -32q54 0 93 41.5t55 96t16 111.5zM473 597
q0 -24 -15 -41.5t-40 -17.5t-40 17.5t-15 41.5t15.5 41.5t39.5 17.5t39.5 -17.5t15.5 -41.5zM273 597q0 -24 -15 -41.5t-40 -17.5t-40 17.5t-15 41.5t15.5 41.5t39.5 17.5q25 0 40 -17.5t15 -41.5z" />
    <glyph glyph-name="omacron.smallcap" horiz-adv-x="528" 
d="M431 539h-247l7 41h240v-41zM495 258q0 -121 -78 -197q-72 -72 -168 -72q-94 0 -152.5 60t-58.5 149q0 115 70 191q69 79 176 79q92 0 151.5 -60.5t59.5 -149.5zM413 272q0 83 -40 126q-37 35 -89 35q-77 0 -121 -79t-44 -170q0 -82 45 -129q34 -32 85 -32q54 0 93 41.5
t55 96t16 111.5z" />
    <glyph glyph-name="obreve.smallcap" horiz-adv-x="528" 
d="M495 258q0 -121 -78 -197q-72 -72 -168 -72q-94 0 -152.5 60t-58.5 149q0 115 70 191q69 79 176 79q92 0 151.5 -60.5t59.5 -149.5zM413 272q0 83 -40 126q-37 35 -89 35q-77 0 -121 -79t-44 -170q0 -82 45 -129q34 -32 85 -32q54 0 93 41.5t55 96t16 111.5zM461 692
q-14 -42 -25.5 -67.5t-31 -57t-46 -47t-59.5 -15.5t-55 15.5t-33 47.5t-15.5 56.5t-8.5 67.5h23q17 -66 38.5 -102t57.5 -36t66 35t66 103h23z" />
    <glyph glyph-name="ohungarumlaut.smallcap" horiz-adv-x="528" 
d="M522 692l-173 -184h-22l111 184h84zM371 692l-172 -184h-23l111 184h84zM495 258q0 -121 -78 -197q-72 -72 -168 -72q-94 0 -152.5 60t-58.5 149q0 115 70 191q69 79 176 79q92 0 151.5 -60.5t59.5 -149.5zM413 272q0 83 -40 126q-37 35 -89 35q-77 0 -121 -79t-44 -170
q0 -82 45 -129q34 -32 85 -32q54 0 93 41.5t55 96t16 111.5z" />
    <glyph glyph-name="oslash.smallcap" horiz-adv-x="528" 
d="M110 36q-72 62 -72 162q0 115 70 191q69 79 176 79q64 0 114 -31l51 71h38q-63 -89 -64 -89q72 -61 72 -161q0 -121 -78 -197q-72 -72 -168 -72q-61 0 -113 29l-56 -78h-39q2 3 5.5 7.5t12.5 17.5t17 24t16 22.5t13 18.5zM143 82l228 318q-35 33 -87 33q-77 0 -121 -79
t-44 -170q0 -60 24 -102zM391 373l-228 -317l1 -1q34 -32 85 -32q54 0 93 41.5t55 96t16 111.5q0 59 -22 101z" />
    <glyph glyph-name="oslashacute.smallcap" horiz-adv-x="528" 
d="M110 36q-72 62 -72 162q0 115 70 191q69 79 176 79q64 0 114 -31l51 71h38q-63 -89 -64 -89q72 -61 72 -161q0 -121 -78 -197q-72 -72 -168 -72q-61 0 -113 29l-56 -78h-39q2 3 5.5 7.5t12.5 17.5t17 24t16 22.5t13 18.5zM143 82l228 318q-35 33 -87 33q-77 0 -121 -79
t-44 -170q0 -60 24 -102zM391 373l-228 -317l1 -1q34 -32 85 -32q54 0 93 41.5t55 96t16 111.5q0 59 -22 101zM464 692l-190 -184h-23l119 184h94z" />
    <glyph glyph-name="oe.smallcap" horiz-adv-x="735" 
d="M277 0q-110 -1 -174.5 54t-64.5 145q0 101 77 178q81 81 224 81h376l-18 -143h-40l-7 68q-3 29 -25.5 35.5t-121.5 6.5h-48l-23 -178h42q41 0 53.5 3t18.5 16l23 49h31l-37 -163h-30v47q0 11 -11.5 15t-54.5 4h-39l-24 -185h43q73 0 104 3t44 11t23 28l25 64h43l-32 -139
h-377zM121 205q0 -81 46 -127t131 -46h29l49 376l-53 15q-92 4 -147 -58.5t-55 -159.5z" />
    <glyph glyph-name="thorn.smallcap" horiz-adv-x="466" 
d="M435 245q0 -67 -61 -107.5t-137 -39.5q-41 0 -73 5l-6 -49q-2 -13 13 -14l48 -8l3 -32h-205l2 32l48 8q14 1 16 14l45 351q2 11 -11 14l-46 7l-2 32h201l-2 -33l-48 -6q-14 -3 -16 -14l-3 -27h48q88 0 137 -36.5t49 -96.5zM352 243q0 46 -32.5 74t-79.5 28h-44l-27 -208
q30 -7 64 -7q50 -1 84.5 31t34.5 82z" />
    <glyph glyph-name="racute.smallcap" horiz-adv-x="483" 
d="M431 692l-190 -184h-23l119 184h94zM449 0h-122l-29 66l-62 129l-64 4l-19 -145q-2 -11 11 -14l41 -8l3 -32h-191l2 32l43 8q13 3 15 14l46 351q2 10 -11 14l-41 7l-2 32h198q92 0 135 -33t43 -83q0 -52 -36.5 -87.5t-96.5 -50.5l72 -140q10 -22 37 -26l25 -6zM361 330
q0 44 -29.5 71t-84.5 26l-46 -1l-25 -192l71 -10q50 5 82 31.5t32 74.5z" />
    <glyph glyph-name="rcommaaccent.smallcap" horiz-adv-x="483" 
d="M291 -136q-10 -47 -50 -78t-90 -45l-12 18q72 21 85 78q2 11 1 20t-5 16t-9.5 12.5t-11.5 9.5t-10.5 6.5t-7.5 4.5l-3 1q4 20 20 32t41 9q28 -4 43 -29t9 -55zM449 0h-122l-29 66l-62 129l-64 4l-19 -145q-2 -11 11 -14l41 -8l3 -32h-191l2 32l43 8q13 3 15 14l46 351
q2 10 -11 14l-41 7l-2 32h198q92 0 135 -33t43 -83q0 -52 -36.5 -87.5t-96.5 -50.5l72 -140q10 -22 37 -26l25 -6zM361 330q0 44 -29.5 71t-84.5 26l-46 -1l-25 -192l71 -10q50 5 82 31.5t32 74.5z" />
    <glyph glyph-name="rcaron.smallcap" horiz-adv-x="483" 
d="M422 692l-110 -184h-89l-61 184h21l90 -131h2l125 131h22zM449 0h-122l-29 66l-62 129l-64 4l-19 -145q-2 -11 11 -14l41 -8l3 -32h-191l2 32l43 8q13 3 15 14l46 351q2 10 -11 14l-41 7l-2 32h198q92 0 135 -33t43 -83q0 -52 -36.5 -87.5t-96.5 -50.5l72 -140
q10 -22 37 -26l25 -6zM361 330q0 44 -29.5 71t-84.5 26l-46 -1l-25 -192l71 -10q50 5 82 31.5t32 74.5z" />
    <glyph glyph-name="sacute.smallcap" horiz-adv-x="414" 
d="M388 692l-190 -184h-23l119 184h94zM355 129q0 -61 -50 -100.5t-135 -39.5q-75 0 -147 21l9 138h38l19 -105q43 -18 89 -18q50 0 79 22t29 58q0 31 -26 53t-74 45q-28 15 -44.5 25.5t-36.5 27.5t-29.5 38t-9.5 47q0 56 44.5 91.5t127.5 35.5q57 0 105 -10l41 11l-19 -150
h-37l-14 95q-38 18 -83 18q-46 0 -71.5 -17t-25.5 -50t24.5 -55.5t78.5 -48.5q28 -14 44.5 -24.5t36 -27t28.5 -36.5t9 -44z" />
    <glyph glyph-name="scircumflex.smallcap" horiz-adv-x="414" 
d="M361 508h-21l-89 132h-2l-126 -132h-22l110 184h89zM355 129q0 -61 -50 -100.5t-135 -39.5q-75 0 -147 21l9 138h38l19 -105q43 -18 89 -18q50 0 79 22t29 58q0 31 -26 53t-74 45q-28 15 -44.5 25.5t-36.5 27.5t-29.5 38t-9.5 47q0 56 44.5 91.5t127.5 35.5q57 0 105 -10
l41 11l-19 -150h-37l-14 95q-38 18 -83 18q-46 0 -71.5 -17t-25.5 -50t24.5 -55.5t78.5 -48.5q28 -14 44.5 -24.5t36 -27t28.5 -36.5t9 -44z" />
    <glyph glyph-name="scedilla.smallcap" horiz-adv-x="414" 
d="M49 -267l-4 22q168 23 168 95q0 47 -78 47q-26 0 -59 -5l2 17l86 80q-71 1 -141 21l9 138h38l19 -105q43 -18 89 -18q50 0 79 22t29 58q0 31 -26 53t-74 45q-28 15 -44.5 25.5t-36.5 27.5t-29.5 38t-9.5 47q0 56 44.5 91.5t127.5 35.5q57 0 105 -10l41 11l-19 -150h-37
l-14 95q-38 18 -83 18q-46 0 -71.5 -17t-25.5 -50t24.5 -55.5t78.5 -48.5q28 -14 44.5 -24.5t36 -27t28.5 -36.5t9 -44q0 -55 -39.5 -92.5t-109.5 -45.5l-54 -50q54 2 86.5 -19t32.5 -59q0 -52 -60 -87.5t-162 -42.5z" />
    <glyph glyph-name="scommaaccent.smallcap" horiz-adv-x="414" 
d="M236 -136q-10 -47 -50 -78t-90 -45l-12 18q72 21 85 78q2 11 1 20t-5 16t-9.5 12.5t-11.5 9.5t-10.5 6.5t-7.5 4.5l-3 1q4 20 20 32t41 9q28 -4 43 -29t9 -55zM355 129q0 -61 -50 -100.5t-135 -39.5q-75 0 -147 21l9 138h38l19 -105q43 -18 89 -18q50 0 79 22t29 58
q0 31 -26 53t-74 45q-28 15 -44.5 25.5t-36.5 27.5t-29.5 38t-9.5 47q0 56 44.5 91.5t127.5 35.5q57 0 105 -10l41 11l-19 -150h-37l-14 95q-38 18 -83 18q-46 0 -71.5 -17t-25.5 -50t24.5 -55.5t78.5 -48.5q28 -14 44.5 -24.5t36 -27t28.5 -36.5t9 -44z" />
    <glyph glyph-name="scaron.smallcap" horiz-adv-x="414" 
d="M355 129q0 -61 -50 -100.5t-135 -39.5q-75 0 -147 21l9 138h38l19 -105q43 -18 89 -18q50 0 79 22t29 58q0 31 -26 53t-74 45q-28 15 -44.5 25.5t-36.5 27.5t-29.5 38t-9.5 47q0 56 44.5 91.5t127.5 35.5q57 0 105 -10l41 11l-19 -150h-37l-14 95q-38 18 -83 18
q-46 0 -71.5 -17t-25.5 -50t24.5 -55.5t78.5 -48.5q28 -14 44.5 -24.5t36 -27t28.5 -36.5t9 -44zM391 692l-110 -184h-89l-61 184h21l90 -131h2l125 131h22z" />
    <glyph glyph-name="tcommaaccent.smallcap" horiz-adv-x="481" 
d="M461 306h-40l-6 70q-4 30 -21.5 38.5t-81.5 8.5h-9l-48 -369q-2 -11 11 -14l50 -8l3 -32h-209l2 32l52 8q13 3 15 14l48 369h-7q-65 0 -85 -7t-31 -35l-29 -75h-41l33 152h413zM259 -136q-10 -47 -50 -78t-90 -45l-12 18q72 21 85 78q2 11 1 20t-5 16t-9.5 12.5
t-11.5 9.5t-10.5 6.5t-7.5 4.5l-3 1q4 20 20 32t41 9q28 -4 43 -29t9 -55z" />
    <glyph glyph-name="tcaron.smallcap" horiz-adv-x="480" 
d="M461 306h-40l-6 70q-4 30 -21.5 38.5t-81.5 8.5h-9l-48 -369q-2 -11 11 -14l50 -8l3 -32h-209l2 32l52 8q13 3 15 14l48 369h-7q-65 0 -85 -7t-31 -35l-29 -75h-41l33 152h413zM425 693l-110 -184h-89l-61 184h22l89 -132h2l125 132h22z" />
    <glyph glyph-name="ugrave.smallcap" horiz-adv-x="538" 
d="M592 458l-2 -32l-44 -7q-15 -2 -22 -21t-17 -92l-22 -163q-9 -73 -58 -114t-127 -41q-80 0 -126 38t-46 107q0 11 2 35l33 237q2 10 -11 14l-41 7l-3 32h192l-3 -32l-43 -7q-14 -4 -16 -14l-31 -223q-2 -11 -2 -33q0 -57 32 -86t88 -29q54 0 87.5 31.5t41.5 92.5l20 148
q7 51 7.5 74.5t-3 30t-13.5 8.5l-42 7l-3 32h172zM298 508h-22l-141 184h94z" />
    <glyph glyph-name="uacute.smallcap" horiz-adv-x="538" 
d="M542 458l-2 -32l-44 -7q-15 -2 -22 -21t-17 -92l-22 -163q-9 -73 -58 -114t-127 -41q-80 0 -126 38t-46 107q0 11 2 35l33 237q2 10 -11 14l-41 7l-3 32h192l-3 -32l-43 -7q-14 -4 -16 -14l-31 -223q-2 -11 -2 -33q0 -57 32 -86t88 -29q54 0 87.5 31.5t41.5 92.5l20 148
q7 51 7.5 74.5t-3 30t-13.5 8.5l-42 7l-3 32h172zM487 692l-190 -184h-23l119 184h94z" />
    <glyph glyph-name="ucircumflex.smallcap" horiz-adv-x="538" 
d="M542 458l-2 -32l-44 -7q-15 -2 -22 -21t-17 -92l-22 -163q-9 -73 -58 -114t-127 -41q-80 0 -126 38t-46 107q0 11 2 35l33 237q2 10 -11 14l-41 7l-3 32h192l-3 -32l-43 -7q-14 -4 -16 -14l-31 -223q-2 -11 -2 -33q0 -57 32 -86t88 -29q54 0 87.5 31.5t41.5 92.5l20 148
q7 51 7.5 74.5t-3 30t-13.5 8.5l-42 7l-3 32h172zM436 508h-21l-89 132h-2l-126 -132h-22l110 184h89z" />
    <glyph glyph-name="udieresis.smallcap" horiz-adv-x="538" 
d="M542 458l-2 -32l-44 -7q-15 -2 -22 -21t-17 -92l-22 -163q-9 -73 -58 -114t-127 -41q-80 0 -126 38t-46 107q0 11 2 35l33 237q2 10 -11 14l-41 7l-3 32h192l-3 -32l-43 -7q-14 -4 -16 -14l-31 -223q-2 -11 -2 -33q0 -57 32 -86t88 -29q54 0 87.5 31.5t41.5 92.5l20 148
q7 51 7.5 74.5t-3 30t-13.5 8.5l-42 7l-3 32h172zM471 597q0 -24 -15 -41.5t-40 -17.5t-40 17.5t-15 41.5t15.5 41.5t39.5 17.5t39.5 -17.5t15.5 -41.5zM271 597q0 -24 -15 -41.5t-40 -17.5t-40 17.5t-15 41.5t15.5 41.5t39.5 17.5q25 0 40 -17.5t15 -41.5z" />
    <glyph glyph-name="umacron.smallcap" horiz-adv-x="538" 
d="M542 458l-2 -32l-44 -7q-15 -2 -22 -21t-17 -92l-22 -163q-9 -73 -58 -114t-127 -41q-80 0 -126 38t-46 107q0 11 2 35l33 237q2 10 -11 14l-41 7l-3 32h192l-3 -32l-43 -7q-14 -4 -16 -14l-31 -223q-2 -11 -2 -33q0 -57 32 -86t88 -29q54 0 87.5 31.5t41.5 92.5l20 148
q7 51 7.5 74.5t-3 30t-13.5 8.5l-42 7l-3 32h172zM443 539h-247l7 41h240v-41z" />
    <glyph glyph-name="ubreve.smallcap" horiz-adv-x="538" 
d="M542 458l-2 -32l-44 -7q-15 -2 -22 -21t-17 -92l-22 -163q-9 -73 -58 -114t-127 -41q-80 0 -126 38t-46 107q0 11 2 35l33 237q2 10 -11 14l-41 7l-3 32h192l-3 -32l-43 -7q-14 -4 -16 -14l-31 -223q-2 -11 -2 -33q0 -57 32 -86t88 -29q54 0 87.5 31.5t41.5 92.5l20 148
q7 51 7.5 74.5t-3 30t-13.5 8.5l-42 7l-3 32h172zM471 692q-14 -42 -25.5 -67.5t-31 -57t-46 -47t-59.5 -15.5t-55 15.5t-33 47.5t-15.5 56.5t-8.5 67.5h23q17 -66 38.5 -102t57.5 -36t66 35t66 103h23z" />
    <glyph glyph-name="uring.smallcap" horiz-adv-x="538" 
d="M410 605q0 -38 -24.5 -64t-64.5 -26t-64.5 26t-24.5 64q1 38 25 64t64 26t65 -26t24 -64zM381 605q0 27 -16.5 45.5t-43.5 18.5t-43 -18.5t-16 -45.5q0 -26 16.5 -44.5t43.5 -18.5t43 18.5t16 44.5zM542 458l-2 -32l-44 -7q-15 -2 -22 -21t-17 -92l-22 -163
q-9 -73 -58 -114t-127 -41q-80 0 -126 38t-46 107q0 11 2 35l33 237q2 10 -11 14l-41 7l-3 32h192l-3 -32l-43 -7q-14 -4 -16 -14l-31 -223q-2 -11 -2 -33q0 -57 32 -86t88 -29q54 0 87.5 31.5t41.5 92.5l20 148q7 51 7.5 74.5t-3 30t-13.5 8.5l-42 7l-3 32h172z" />
    <glyph glyph-name="uhungarumlaut.smallcap" horiz-adv-x="538" 
d="M542 458l-2 -32l-44 -7q-15 -2 -22 -21t-17 -92l-22 -163q-9 -73 -58 -114t-127 -41q-80 0 -126 38t-46 107q0 11 2 35l33 237q2 10 -11 14l-41 7l-3 32h192l-3 -32l-43 -7q-14 -4 -16 -14l-31 -223q-2 -11 -2 -33q0 -57 32 -86t88 -29q54 0 87.5 31.5t41.5 92.5l20 148
q7 51 7.5 74.5t-3 30t-13.5 8.5l-42 7l-3 32h172zM552 692l-173 -184h-22l111 184h84zM401 692l-172 -184h-23l111 184h84z" />
    <glyph glyph-name="uogonek.smallcap" horiz-adv-x="538" 
d="M246 -210q-38 4 -57.5 30t-11.5 66q6 31 31 58.5t56 44.5q-1 0 -6.5 -0.5t-7.5 -0.5q-80 0 -126 38t-46 107q0 11 2 35l33 237q2 10 -11 14l-40 7l-4 32h192l-3 -32l-42 -7q-15 -4 -17 -14l-30 -223q-3 -16 -3 -33q0 -57 32 -86t88 -29q54 0 87.5 31.5t41.5 92.5l20 148
q7 51 7.5 74.5t-3 30t-13.5 8.5l-42 7l-3 32h172l-2 -32l-43 -7q-15 -2 -22.5 -21t-17.5 -92l-21 -163q-14 -100 -111 -149q-70 -35 -82 -95q-10 -56 33 -60q32 -3 55 15l9 -13q-11 -23 -36.5 -38.5t-57.5 -12.5z" />
    <glyph glyph-name="wcircumflex.smallcap" horiz-adv-x="686" 
d="M509 508h-21l-89 132h-2l-126 -132h-22l110 184h89zM730 458l-3 -33l-25 -5q-21 -6 -37 -25t-46 -81l-149 -316h-65l-51 308h-8l-140 -308h-66l-80 407q-3 11 -21 14l-37 6l-3 33h204l-3 -33l-39 -4q-15 -2 -17 -11.5t5 -43.5l51 -285h8l127 275l-8 49q-2 10 -21 14
l-37 6l-2 33h206l-2 -33l-39 -4q-21 -3 -12 -55l46 -285h8l106 232q10 23 17 40t10.5 28.5t5 18.5t-0.5 11t-4.5 6t-7.5 3l-31 5l-3 33h164z" />
    <glyph glyph-name="wgrave.smallcap" horiz-adv-x="686" 
d="M730 458l-3 -33l-25 -5q-21 -6 -37 -25t-46 -81l-149 -316h-65l-51 308h-8l-140 -308h-66l-80 407q-3 11 -21 14l-37 6l-3 33h204l-3 -33l-39 -4q-15 -2 -17 -11.5t5 -43.5l51 -285h8l127 275l-8 49q-2 10 -21 14l-37 6l-2 33h206l-2 -33l-39 -4q-21 -3 -12 -55l46 -285
h8l106 232q10 23 17 40t10.5 28.5t5 18.5t-0.5 11t-4.5 6t-7.5 3l-31 5l-3 33h164zM426 508h-22l-141 184h94z" />
    <glyph glyph-name="wacute.smallcap" horiz-adv-x="686" 
d="M536 692l-190 -184h-23l119 184h94zM730 458l-3 -33l-25 -5q-21 -6 -37 -25t-46 -81l-149 -316h-65l-51 308h-8l-140 -308h-66l-80 407q-3 11 -21 14l-37 6l-3 33h204l-3 -33l-39 -4q-15 -2 -17 -11.5t5 -43.5l51 -285h8l127 275l-8 49q-2 10 -21 14l-37 6l-2 33h206
l-2 -33l-39 -4q-21 -3 -12 -55l46 -285h8l106 232q10 23 17 40t10.5 28.5t5 18.5t-0.5 11t-4.5 6t-7.5 3l-31 5l-3 33h164z" />
    <glyph glyph-name="wdieresis.smallcap" horiz-adv-x="686" 
d="M539 597q0 -24 -15 -41.5t-40 -17.5t-40 17.5t-15 41.5t15.5 41.5t39.5 17.5t39.5 -17.5t15.5 -41.5zM339 597q0 -24 -15 -41.5t-40 -17.5t-40 17.5t-15 41.5t15.5 41.5t39.5 17.5q25 0 40 -17.5t15 -41.5zM730 458l-3 -33l-25 -5q-21 -6 -37 -25t-46 -81l-149 -316h-65
l-51 308h-8l-140 -308h-66l-80 407q-3 11 -21 14l-37 6l-3 33h204l-3 -33l-39 -4q-15 -2 -17 -11.5t5 -43.5l51 -285h8l127 275l-8 49q-2 10 -21 14l-37 6l-2 33h206l-2 -33l-39 -4q-21 -3 -12 -55l46 -285h8l106 232q10 23 17 40t10.5 28.5t5 18.5t-0.5 11t-4.5 6t-7.5 3
l-31 5l-3 33h164z" />
    <glyph glyph-name="yacute.smallcap" horiz-adv-x="436" 
d="M474 458l-2 -33l-22 -4q-32 -9 -66 -54l-131 -178l-18 -135q-2 -13 12 -14l51 -8l2 -32h-212l3 32l53 8q13 1 15 14l17 131l-105 212q-8 18 -27 23l-28 5l-2 33h192l-2 -33l-34 -4q-30 -3 -4 -61l63 -142h8l107 149q36 51 4 55l-26 3l-3 33h155zM448 692l-190 -184h-23
l119 184h94z" />
    <glyph glyph-name="ycircumflex.smallcap" horiz-adv-x="436" 
d="M474 458l-2 -33l-22 -4q-32 -9 -66 -54l-131 -178l-18 -135q-2 -13 12 -14l51 -8l2 -32h-212l3 32l53 8q13 1 15 14l17 131l-105 212q-8 18 -27 23l-28 5l-2 33h192l-2 -33l-34 -4q-30 -3 -4 -61l63 -142h8l107 149q36 51 4 55l-26 3l-3 33h155zM382 508h-21l-89 132h-2
l-126 -132h-22l110 184h89z" />
    <glyph glyph-name="ydieresis.smallcap" horiz-adv-x="436" 
d="M474 458l-2 -33l-22 -4q-32 -9 -66 -54l-131 -178l-18 -135q-2 -13 12 -14l51 -8l2 -32h-212l3 32l53 8q13 1 15 14l17 131l-105 212q-8 18 -27 23l-28 5l-2 33h192l-2 -33l-34 -4q-30 -3 -4 -61l63 -142h8l107 149q36 51 4 55l-26 3l-3 33h155zM419 597q0 -24 -15 -41.5
t-40 -17.5t-40 17.5t-15 41.5t15.5 41.5t39.5 17.5t39.5 -17.5t15.5 -41.5zM219 597q0 -24 -15 -41.5t-40 -17.5t-40 17.5t-15 41.5t15.5 41.5t39.5 17.5q25 0 40 -17.5t15 -41.5z" />
    <glyph glyph-name="zacute.smallcap" horiz-adv-x="449" 
d="M438 692l-190 -184h-23l119 184h94zM406 146l-35 -146h-368l4 33l344 386v4h-87q-82 0 -105.5 -9t-36.5 -40l-23 -63h-38l19 147h368l-4 -34l-345 -385v-4h84q63 0 93.5 5t41.5 13.5t19 28.5l27 64h42z" />
    <glyph glyph-name="zdotaccent.smallcap" horiz-adv-x="449" 
d="M406 146l-35 -146h-368l4 33l344 386v4h-87q-82 0 -105.5 -9t-36.5 -40l-23 -63h-38l19 147h368l-4 -34l-345 -385v-4h84q63 0 93.5 5t41.5 13.5t19 28.5l27 64h42zM327 603q0 -25 -15.5 -43t-40.5 -18q-26 0 -41.5 18t-15.5 43t15.5 42.5t41.5 17.5q25 0 40.5 -18
t15.5 -42z" />
    <glyph glyph-name="zcaron.smallcap" horiz-adv-x="449" 
d="M406 146l-35 -146h-368l4 33l344 386v4h-87q-82 0 -105.5 -9t-36.5 -40l-23 -63h-38l19 147h368l-4 -34l-345 -385v-4h84q63 0 93.5 5t41.5 13.5t19 28.5l27 64h42zM409 692l-110 -184h-89l-61 184h21l90 -131h2l125 131h22z" />
    <glyph glyph-name="solidus" horiz-adv-x="228" 
d="M-229 -116l635 741h51l-636 -741h-50z" />
    <glyph glyph-name="plusinferior" horiz-adv-x="330" 
d="M296 32h-110v-112h-30v112h-110l2 30h108v111h30v-111h108z" />
    <glyph glyph-name="minusinferior" horiz-adv-x="330" 
d="M300 30h-250l1 33h247z" />
    <glyph glyph-name="zero.lnum" 
d="M481 382q0 -46 -9.5 -97.5t-30.5 -104.5t-50 -96t-73.5 -70t-96.5 -27q-50 0 -87.5 23t-58 62t-30.5 82t-10 90q0 59 15 124t44 127t81 102.5t117 40.5q66 0 110.5 -41t61.5 -96.5t17 -118.5zM401 423q0 45 -8 82t-35 68t-71 31q-46 0 -82 -45.5t-54.5 -113t-27.5 -130.5
t-9 -113q0 -32 4.5 -60.5t15.5 -57.5t34.5 -46t56.5 -17q46 0 82.5 45.5t55.5 113t28.5 131t9.5 112.5z" />
    <glyph glyph-name="one.lnum" 
d="M400 0h-339l1 37l117 13q24 4 26 23l67 493l-143 16l6 29l216 22l-76 -560q-2 -20 20 -23l103 -13z" />
    <glyph glyph-name="two.lnum" horiz-adv-x="496" 
d="M458 165l-49 -165h-396l3 53q33 29 93 78.5t89.5 75t70.5 64.5t60 65.5t34 58.5t15 62q0 56 -35.5 88.5t-90.5 32.5q-80 0 -169 -77l-7 23q106 115 217 115q65 0 114.5 -43.5t49.5 -109.5q0 -36 -17.5 -74.5t-41 -69t-68 -71.5t-76.5 -67t-89.5 -71t-86.5 -68q-3 -4 0 -4
h82q95 0 137 4t62 15t33 36l25 49h41z" />
    <glyph glyph-name="three.lnum" 
d="M429 198q0 -92 -87.5 -156t-188.5 -64q-48 0 -92 17.5t-44 54.5q0 20 14 34t34 14q28 0 49.5 -23t22.5 -54q18 -5 41 -5q76 0 122.5 49.5t47.5 114.5q0 49 -33 80.5t-84 31.5q-54 0 -100 -20l-9 25q128 63 165 89q70 50 70 106q0 43 -30 66t-67 23q-80 0 -165 -63l-8 25
q40 39 97.5 68t116.5 29q57 0 102.5 -33t45.5 -87q0 -26 -9 -49t-29 -42.5t-35.5 -32t-46.5 -28t-42 -20t-42 -17.5v-1q3 0 12 2t18.5 3t17.5 1q59 0 97.5 -37.5t38.5 -100.5z" />
    <glyph glyph-name="four.lnum" 
d="M448 188h-100l-26 -188h-69l25 188h-273l1 36l353 410h47l-52 -399h107zM284 235l40 300h-7l-260 -300h227z" />
    <glyph glyph-name="five.lnum" 
d="M487 620l-12 -75h-260l-50 -140q25 -1 55 -7t68.5 -21.5t68.5 -37.5t51 -59t21 -83q0 -94 -76 -154t-175 -60q-57 0 -105 22.5t-48 63.5q1 20 15 34.5t34 14.5q29 0 47.5 -22.5t19.5 -55.5q27 -18 69 -18q63 0 104.5 37t41.5 92q0 87 -73 136.5t-184 57.5l100 275h288z
" />
    <glyph glyph-name="six.lnum" 
d="M43 217q0 109 65.5 204t169.5 154t224 73l6 -26q-293 -66 -385 -324h5q36 51 85.5 80t94.5 29q65 0 110.5 -47.5t45.5 -130.5q0 -99 -69.5 -170t-159.5 -71q-85 0 -138.5 65t-53.5 164zM117 192q0 -73 33.5 -122t89.5 -49q61 0 104.5 57.5t43.5 141.5q0 62 -34 101.5
t-77 39.5q-90 0 -152 -102q-8 -32 -8 -67z" />
    <glyph glyph-name="seven.lnum" 
d="M524 583l-372 -590h-59l366 558v5h-177q-81 0 -102 -4.5t-31 -25.5l-31 -60h-32l40 159h398v-42z" />
    </font>
</defs>
</svg>
