<?xml version="1.0" standalone="no"?>
<!DOCTYPE svg PUBLIC "-//W3C//DTD SVG 1.1//EN" "http://www.w3.org/Graphics/SVG/1.1/DTD/svg11.dtd" >
<svg xmlns="http://www.w3.org/2000/svg" xmlns:xlink="http://www.w3.org/1999/xlink" version="1.1">
<metadata>
Created by FontForge 20201107 at Sat Jan  9 07:44:55 2016
 By 
Copyright (c) 2004-2009, Joshua Darden &#38; Phil's Fonts, Inc. All rights reserved. Published by Garagefonts USA 301-879-9222 www.garagefonts.com
</metadata>
<defs>
<font id="FreightTextProBlack-Regular" horiz-adv-x="500" >
  <font-face 
    font-family="FreightTextProBlack-Regular"
    font-weight="400"
    font-stretch="normal"
    units-per-em="1000"
    panose-1="2 0 10 3 8 0 0 2 0 4"
    ascent="719"
    descent="-281"
    x-height="458"
    cap-height="625"
    bbox="-199 -307 1571 995"
    underline-thickness="20"
    underline-position="-173"
    unicode-range="U+0020-FB04"
  />
<missing-glyph 
 />
    <glyph glyph-name="ff" unicode="ff" horiz-adv-x="683" 
d="M460 602q74 85 189 85q56 0 95.5 -26t39.5 -67q0 -32 -20.5 -51.5t-49.5 -19.5q-35 0 -56.5 23.5t-32.5 76.5l-1 4l-29 2q-42 -36 -42 -154v-27h137l-7 -71h-130v-314q0 -16 38 -18l29 -2l3 -43h-277l3 43l20 2q34 3 34 19v313h-174v-314q0 -16 38 -18l29 -2l3 -43h-277
l3 43l20 2q34 3 34 19v309l-78 9l6 66h67l2 14q8 96 79.5 160.5t169.5 64.5q53 0 92 -23.5t43 -61.5zM415 527q-11 -4 -25 -4q-35 0 -56.5 23.5t-32.5 76.5l-1 4l-29 2q-42 -36 -42 -154v-27h169l2 14q3 35 15 65z" />
    <glyph glyph-name="fi" unicode="fi" horiz-adv-x="628" 
d="M600 0h-262l3 43l18 2q34 5 34 19v313h-164v-314q0 -16 38 -18l29 -2l3 -43h-277l3 43l20 2q34 3 34 19v309l-78 9l6 66h67l2 24q9 107 86 166t197 59q79 0 125.5 -29t46.5 -80q0 -33 -21.5 -53t-55.5 -20t-59 25t-36 77l-1 4l-67 10q-26 -22 -44 -67t-18 -107v-9h211
l105 25v-410q0 -3 1 -5.5t3.5 -4.5t5 -3t7 -2t7 -1.5t7.5 -1t7 -0.5l14 -2z" />
    <glyph glyph-name="fl" unicode="fl" horiz-adv-x="624" 
d="M393 377h-164v-314q0 -16 38 -18l29 -2l3 -43h-277l3 43l20 2q34 3 34 19v309l-78 9l6 66h67l2 24q9 107 86 166t197 59q78 0 123 -28l63 28v-634q0 -8 7.5 -12t30.5 -6l13 -2l3 -43h-261l3 43l18 2q34 3 34 19v313zM393 542q-24 27 -34 75l-1 4l-67 10q-26 -22 -44 -67
t-18 -107v-9h164v94z" />
    <glyph glyph-name="ffi" unicode="ffi" horiz-adv-x="952" 
d="M458 612q77 85 225 85q79 0 125.5 -29t46.5 -80q0 -33 -21.5 -53t-55.5 -20t-59 25t-36 77l-1 4l-67 10q-26 -22 -44 -67t-18 -107v-9h211l105 25v-410q0 -3 1 -5.5t3.5 -4.5t5 -3t7 -2t7 -1.5t7.5 -1t7 -0.5l14 -2l3 -43h-262l3 43l18 2q34 5 34 19v313h-164v-314
q0 -16 38 -18l29 -2l3 -43h-277l3 43l20 2q34 3 34 19v313h-174v-314q0 -16 38 -18l29 -2l3 -43h-277l3 43l20 2q34 3 34 19v309l-78 9l6 66h67l2 14q8 96 79.5 160.5t169.5 64.5q49 0 86.5 -20.5t46.5 -54.5zM410 526q-9 -3 -20 -3q-35 0 -56.5 23.5t-32.5 76.5l-1 4l-29 2
q-42 -36 -42 -154v-27h169l2 24q3 31 10 54z" />
    <glyph glyph-name="ffl" unicode="ffl" horiz-adv-x="948" 
d="M806 669l63 28v-634q0 -8 7.5 -12t30.5 -6l13 -2l3 -43h-261l3 43l18 2q34 3 34 19v313h-164v-314q0 -16 38 -18l29 -2l3 -43h-277l3 43l20 2q34 3 34 19v313h-174v-314q0 -16 38 -18l29 -2l3 -43h-277l3 43l20 2q34 3 34 19v309l-78 9l6 66h67l2 14q8 96 79.5 160.5
t169.5 64.5q49 0 86.5 -20.5t46.5 -54.5q77 85 225 85q78 0 123 -28zM717 448v94q-24 27 -34 75l-1 4l-67 10q-26 -22 -44 -67t-18 -107v-9h164zM410 526q-9 -3 -20 -3q-35 0 -56.5 23.5t-32.5 76.5l-1 4l-29 2q-42 -36 -42 -154v-27h169l2 24q3 31 10 54z" />
    <glyph glyph-name=".notdef" 
 />
    <glyph glyph-name=".null" horiz-adv-x="0" 
 />
    <glyph glyph-name="nonmarkingreturn" horiz-adv-x="333" 
 />
    <glyph glyph-name="space" unicode=" " horiz-adv-x="228" 
 />
    <glyph glyph-name="exclam" unicode="!" horiz-adv-x="304" 
d="M235 577l-63 -371q-2 -9 -15 -9t-15 9l-63 371q-5 28 17.5 45t59.5 17h2q37 0 59 -17t18 -45zM236 63q0 -32 -23 -55.5t-56 -23.5t-56 23t-23 56t23 56.5t56 23.5t56 -23.5t23 -56.5z" />
    <glyph glyph-name="quotedbl" unicode="&#x22;" horiz-adv-x="420" 
d="M399 610l-165 -207h-52l115 242h1zM219 610l-165 -207h-52l114 242h2z" />
    <glyph glyph-name="numbersign" unicode="#" horiz-adv-x="596" 
d="M586 392h-136l-43 -161h121v-56h-136l-48 -181h-58l48 181h-144l-49 -181h-59l49 181h-121v56h136l43 161h-121v56h136l50 183h59l-49 -183h143l49 183h58l-49 -183h121v-56zM349 231l43 161h-144l-43 -161h144z" />
    <glyph glyph-name="dollar" unicode="$" horiz-adv-x="580" 
d="M237 -15l-30 -124h-61l31 129q-44 5 -114 22l-6 206h89l41 -167h5l47 197q-97 28 -144 70t-47 117q0 88 68.5 145.5t187.5 57.5q20 0 29 -1l24 100h61l-25 -105q47 -8 65 -11l54 15v-216h-83l-46 151h-5l-43 -177q107 -32 155.5 -76t48.5 -122q0 -91 -69 -151.5
t-190 -60.5q-30 0 -43 1zM296 231l-44 -185q9 -1 28 -1q61 0 89 24.5t28 64.5q0 36 -24 57.5t-77 39.5zM278 411l40 166h-18q-55 0 -86 -22t-31 -57q0 -32 23 -51.5t72 -35.5z" />
    <glyph glyph-name="percent" unicode="%" horiz-adv-x="746" 
d="M349 482q0 -69 -45.5 -117t-120.5 -48q-74 0 -120 48t-46 117q0 70 45.5 118.5t120.5 48.5t120.5 -48t45.5 -119zM654 639l-507 -654h-54l507 654h54zM729 142q0 -70 -45.5 -118.5t-120.5 -48.5t-120.5 48t-45.5 119q0 69 45.5 117t120.5 48q74 0 120 -48t46 -117z
M300 482q0 52 -32 87t-85 35t-85 -35t-32 -87q0 -49 32 -84.5t85 -35.5t85 35.5t32 84.5zM680 142q0 49 -32 84.5t-85 35.5t-85 -35.5t-32 -84.5q0 -52 32 -87t85 -35t85 35t32 87z" />
    <glyph glyph-name="ampersand" unicode="&#x26;" horiz-adv-x="739" 
d="M740 74q-52 -50 -84 -67q-45 -23 -96 -23q-104 0 -150 103q-45 -50 -93 -76.5t-114 -26.5q-77 0 -127 46t-50 115q0 63 43.5 111t102.5 64q-102 58 -102 157q0 69 66 115.5t163 46.5q79 0 132 -33.5t53 -93.5q0 -56 -42 -92t-93 -43q89 -45 150 -130l32 39q25 34 23 48.5
t-26 21.5l-32 10l-3 43h228l-3 -43l-38 -10q-26 -8 -56 -42l-101 -109q5 -10 15.5 -32t18.5 -36t21 -30t30 -24t38 -8q45 0 79 20zM347 503q0 38 -18.5 64t-49.5 26q-30 0 -48 -21.5t-18 -53.5q0 -77 99 -123q35 39 35 108zM395 127q-29 66 -75 106.5t-113 68.5
q-36 -39 -36 -98q0 -52 31.5 -85t83.5 -33q28 0 60 12.5t49 28.5z" />
    <glyph glyph-name="quotesingle" unicode="'" horiz-adv-x="240" 
d="M219 610l-165 -207h-52l115 242h1z" />
    <glyph glyph-name="parenleft" unicode="(" horiz-adv-x="395" 
d="M359 -228q-45 22 -90 62.5t-87 97.5t-68 137t-26 166t26 165.5t68 137t87 97.5t90 63l29 -42q-41 -22 -81.5 -60.5t-77 -91t-59 -123.5t-22.5 -146q0 -145 75 -259t165 -161z" />
    <glyph glyph-name="parenright" unicode=")" horiz-adv-x="395" 
d="M38 -228l-30 41q90 49 164.5 163t74.5 259q0 144 -74.5 258t-164.5 163l30 42q44 -23 88.5 -63t86.5 -97.5t68 -137t26 -165.5t-26 -166t-68 -137t-86.5 -97.5t-88.5 -62.5z" />
    <glyph glyph-name="asterisk" unicode="*" horiz-adv-x="359" 
d="M359 463l-43 -44l-112 48l-10 -13l83 -92l-26 -52l-21 -8l-56 25l7 124l-15 4l-56 -108l-61 6l-15 17l5 62l118 32v21l-118 32l-5 62l15 17l61 6l56 -107l16 5l-8 122l56 25l21 -8l26 -52l-83 -92l10 -13l112 48l43 -45v-22z" />
    <glyph glyph-name="plus" unicode="+" horiz-adv-x="480" 
d="M453 205h-182v-181h-61v181h-183l3 61h180v181h61v-181h179z" />
    <glyph glyph-name="comma" unicode="," horiz-adv-x="232" 
d="M214 30q0 -121 -168 -224l-32 33q52 34 75.5 64t23.5 68q0 31 -25 54t-50 33.5t-25 11.5q0 31 24.5 57t62.5 26q50 0 82 -35.5t32 -87.5z" />
    <glyph glyph-name="hyphen" unicode="-" horiz-adv-x="338" 
d="M307 221h-274l3 67h268z" />
    <glyph glyph-name="period" unicode="." horiz-adv-x="232" 
d="M204 72q0 -36 -25.5 -62t-62.5 -26t-62.5 25.5t-25.5 62.5t25.5 63t62.5 26q36 0 62 -26.5t26 -62.5z" />
    <glyph glyph-name="slash" unicode="/" horiz-adv-x="279" 
d="M2 -177l217 877h56l-217 -877h-56z" />
    <glyph glyph-name="zero" unicode="0" horiz-adv-x="580" 
d="M539 241q0 -114 -70 -185t-181 -71q-110 0 -178.5 70t-68.5 184q0 115 69.5 187t179.5 72q111 0 180 -71t69 -186zM436 239q0 69 -41.5 114.5t-106.5 45.5q-64 0 -104 -44.5t-40 -113.5t41 -113.5t105 -44.5q65 0 105.5 43.5t40.5 112.5z" />
    <glyph glyph-name="one" unicode="1" horiz-adv-x="383" 
d="M364 0h-315l3 48l54 11q23 5 23 23v306l-105 11l3 38l254 67v-422q0 -19 23 -23l57 -11z" />
    <glyph glyph-name="two" unicode="2" horiz-adv-x="508" 
d="M479 177l-16 -177h-424l-8 83q12 9 35 25q43 30 63 45t49.5 39.5t42.5 40.5t23.5 37t10.5 41q0 38 -24.5 63t-59.5 25q-34 0 -58.5 -17.5t-53.5 -54.5l-24 13q23 79 84.5 118.5t134.5 39.5q71 0 116 -36t45 -95q0 -29 -14 -55.5t-48 -56t-57 -46.5t-77.5 -52t-73.5 -48
v-5h68q125 0 156 4.5t42 23.5l25 45h43z" />
    <glyph glyph-name="three" unicode="3" horiz-adv-x="453" 
d="M236 190v-5q84 3 139.5 -41t55.5 -115q0 -102 -78.5 -165.5t-193.5 -63.5q-67 0 -110 28t-43 75q0 27 18.5 46t44.5 19q40 0 61 -35t24 -81h6q51 0 87.5 36.5t36.5 99.5q0 56 -32.5 90t-84.5 34q-35 0 -82 -18l-15 39q108 66 136 93q41 38 41 84q0 36 -27.5 62.5
t-66.5 26.5q-65 0 -121 -72l-24 13q22 75 86.5 116.5t133.5 41.5q72 0 120 -37t48 -90q0 -57 -40 -97t-120 -84z" />
    <glyph glyph-name="four" unicode="4" horiz-adv-x="567" 
d="M555 9h-118v-193h-141v193h-273l-6 43l311 440h109v-400h125zM296 92v263h-6l-185 -263h191z" />
    <glyph glyph-name="five" unicode="5" horiz-adv-x="470" 
d="M132 273q145 -33 214.5 -92.5t69.5 -137.5q0 -97 -84 -169.5t-178 -72.5q-75 0 -117.5 26.5t-42.5 78.5q0 28 18 47t45 19q33 0 55.5 -29.5t25.5 -79.5q28 -12 48 -12q42 0 72.5 36t30.5 85q0 71 -58 115.5t-185 71.5l79 324h302l-3 -123h-270z" />
    <glyph glyph-name="six" unicode="6" horiz-adv-x="565" 
d="M525 220q0 -96 -73.5 -165.5t-170.5 -69.5q-107 0 -175 75.5t-68 196.5q0 169 123 289t323 134l20 -44q-126 -18 -206.5 -94.5t-101.5 -169.5l4 -4q72 53 149 53q73 0 124.5 -55t51.5 -146zM366 177q0 78 -29 118.5t-76 40.5q-34 0 -56 -19q-4 -28 -4 -62
q0 -82 25.5 -146.5t70.5 -64.5q69 0 69 133z" />
    <glyph glyph-name="seven" unicode="7" horiz-adv-x="525" 
d="M505 445l-315 -629h-91l295 553v1h-100q-83 0 -120.5 -3.5t-49 -9t-20.5 -20.5l-33 -60h-43l27 206h445z" />
    <glyph glyph-name="eight" unicode="8" horiz-adv-x="560" 
d="M519 173q-2 -78 -68.5 -133t-176.5 -55q-99 0 -165.5 42.5t-65.5 117.5q1 48 34.5 87.5t94.5 54.5v1q-58 32 -90 69t-31 96q2 73 61 130t171 57q100 0 162 -43.5t61 -115.5q-1 -48 -34.5 -81t-94.5 -49v-1q64 -34 103.5 -75t38.5 -102zM366 464q1 55 -27 91t-74 36
q-39 0 -62.5 -22.5t-23.5 -53.5q0 -15 3.5 -28.5t8 -23t16 -20.5t17 -16.5t23.5 -15.5t23.5 -13t27.5 -13.5t27 -12.5q40 34 41 92zM389 108q0 16 -4 30.5t-9.5 25.5t-18 22.5t-20.5 18t-26 17t-26 14.5t-30 14t-28 13q-43 -37 -44 -101q-1 -55 30 -91.5t82 -36.5
q41 0 67.5 21t26.5 53z" />
    <glyph glyph-name="nine" unicode="9" horiz-adv-x="565" 
d="M522 226q0 -169 -123 -289t-323 -134l-20 44q126 18 206.5 94.5t101.5 169.5l-4 4q-72 -53 -149 -53q-73 0 -124.5 55t-51.5 146q0 96 73.5 165.5t170.5 69.5q107 0 175 -75.5t68 -196.5zM359 228q0 82 -25.5 146.5t-70.5 64.5q-69 0 -69 -133q0 -78 29 -118.5t76 -40.5
q34 0 56 19q4 28 4 62z" />
    <glyph glyph-name="colon" unicode=":" horiz-adv-x="232" 
d="M204 371q0 -36 -25.5 -62t-62.5 -26t-62.5 25.5t-25.5 62.5t25.5 63t62.5 26q36 0 62 -26.5t26 -62.5zM204 73q0 -36 -25.5 -62t-62.5 -26t-62.5 25.5t-25.5 62.5t25.5 63t62.5 26q36 0 62 -26.5t26 -62.5z" />
    <glyph glyph-name="semicolon" unicode=";" horiz-adv-x="232" 
d="M196 371q0 -36 -25.5 -62t-62.5 -26t-62.5 25.5t-25.5 62.5t25.5 63t62.5 26q36 0 62 -26.5t26 -62.5zM214 30q0 -121 -168 -224l-32 33q52 34 75.5 64t23.5 68q0 31 -25 54t-50 33.5t-25 11.5q0 31 24.5 57t62.5 26q50 0 82 -35.5t32 -87.5z" />
    <glyph glyph-name="less" unicode="&#x3c;" horiz-adv-x="480" 
d="M433 33l-409 186v31l409 187l15 -55l-324 -146v-1l324 -147z" />
    <glyph glyph-name="equal" unicode="=" horiz-adv-x="480" 
d="M440 288h-400l-3 61h406zM443 120h-406l3 61h400z" />
    <glyph glyph-name="greater" unicode="&#x3e;" horiz-adv-x="480" 
d="M456 219l-409 -186l-15 55l324 147v1l-324 146l15 55l409 -187v-31z" />
    <glyph glyph-name="question" unicode="?" horiz-adv-x="423" 
d="M391 442q0 -69 -28 -97t-97 -53q-55 -20 -66 -32q-6 -8 -6 -18q0 -13 26 -52h-52q-33 16 -52.5 43t-19.5 55q0 49 33.5 74t105.5 45q71 20 83 32q5 6 5 13q0 23 -46 37t-102 14q-18 0 -87 -9q-14 8 -23.5 26t-9.5 35q0 38 27.5 61t84.5 23q81 0 152.5 -58.5t71.5 -138.5z
M274 63q0 -32 -23 -56t-56 -24q-32 0 -55.5 23.5t-23.5 56.5t23 56.5t56 23.5t56 -23.5t23 -56.5z" />
    <glyph glyph-name="at" unicode="@" horiz-adv-x="910" 
d="M482 102q0 12 7.5 36.5t19 56.5t14.5 43h-11q-12 -19 -36 -56.5t-36 -54t-30.5 -38.5t-36.5 -30.5t-39 -8.5q-52 0 -84.5 34.5t-32.5 96.5q0 61 32 128t82 116q63 63 129 63q40 0 60.5 -21t32.5 -63h10l31 84h121l-62 -173l-51 -183q-3 -13 20.5 -25.5t55.5 -12.5
q62 0 104 66.5t42 154.5q0 149 -98 233t-259 84q-157 0 -268.5 -115.5t-111.5 -270.5q0 -164 103 -264.5t266 -100.5q59 0 130 21l12 -39q-78 -26 -150 -26q-173 0 -291.5 116t-118.5 286q0 181 125 308.5t310 127.5q174 0 286.5 -95.5t112.5 -259.5q0 -117 -71.5 -204.5
t-179.5 -87.5q-51 0 -95 22t-44 52zM537 355q-16 27 -48.5 46t-52.5 19q-17 0 -30 -13q-17 -17 -38.5 -80.5t-21.5 -106.5q0 -32 12.5 -52.5t32.5 -20.5q11 0 22 6.5t23 20.5t21 26.5t25 35.5t25 36z" />
    <glyph glyph-name="A" unicode="A" horiz-adv-x="662" 
d="M680 0h-337l3 46l28 4q34 4 37 26t-19 82l-12 34h-203l-2 -6q-38 -124 24 -135l27 -5l3 -46h-252l3 46l21 6q28 8 40.5 17t33 47.5t51.5 121.5l118 322v47l155 32l190 -535q14 -39 64 -51l24 -7zM363 247l-77 236h-11l-81 -236h169z" />
    <glyph glyph-name="B" unicode="B" horiz-adv-x="650" 
d="M617 164q0 -79 -72 -121.5t-239 -42.5h-275l3 44l31 4q34 3 34 19v491q0 16 -41 19l-24 4l-3 44h293q144 0 210.5 -34t66.5 -107q0 -64 -54 -103.5t-131 -50.5v-5q88 -11 144.5 -50.5t56.5 -110.5zM308 40q57 1 93 35t36 89q0 65 -41 98.5t-106 33.5h-23v-249zM421 458
q0 54 -33 88t-91 34h-30v-240l40 1q48 2 81 32t33 85z" />
    <glyph glyph-name="C" unicode="C" horiz-adv-x="737" 
d="M672 218l-17 -218l-81 16q-91 -32 -177 -32q-164 0 -260.5 81.5t-96.5 235.5q0 150 101 244t259 94q94 0 163 -28l104 28v-239h-92l-55 162q-48 22 -100 22q-98 0 -147.5 -71t-49.5 -195q0 -131 50 -205.5t141 -74.5q55 0 99 19l60 161h99z" />
    <glyph glyph-name="D" unicode="D" horiz-adv-x="748" 
d="M707 327q0 -133 -103.5 -230t-273.5 -97h-299l3 44l31 4q34 3 34 19v491q0 16 -41 19l-24 4l-3 44l296 4q175 2 277.5 -82t102.5 -220zM523 304q0 128 -54.5 201.5t-166.5 73.5h-35v-522l71 -15q85 4 135 78t50 184z" />
    <glyph glyph-name="E" unicode="E" horiz-adv-x="690" 
d="M642 212l-20 -212h-591l3 44l31 4q34 3 34 19v491q0 16 -41 19l-24 4l-3 44h595v-225h-88l-20 69q-19 71 -54.5 88.5t-139.5 17.5h-57v-236h23q69 0 84 42l25 69h65l-25 -268h-62l-12 63q-4 25 -20 34t-59 9h-19v-238h69q99 0 135 18.5t61 88.5l20 55h90z" />
    <glyph glyph-name="F" unicode="F" horiz-adv-x="636" 
d="M607 400h-89l-19 69q-19 71 -55 88.5t-139 17.5h-38v-252h21q69 0 84 41l25 70h65l-25 -268h-62l-12 63q-4 25 -20 33.5t-59 8.5h-17v-205q0 -16 38 -18l48 -4l3 -44h-325l3 44l31 4q34 3 34 19v491q0 16 -41 19l-24 4l-3 44h576v-225z" />
    <glyph glyph-name="G" unicode="G" horiz-adv-x="750" 
d="M708 288l-3 -44l-31 -4q-34 -3 -34 -19v-134l62 -7l3 -33q-49 -25 -140 -44t-172 -19q-167 0 -260 87.5t-93 231.5q0 151 102 243.5t255 92.5q90 0 159 -28l95 28v-233h-100l-51 157q-39 21 -95 21q-84 0 -132.5 -73.5t-48.5 -189.5q0 -138 45 -210.5t131 -72.5
q48 0 77 19v165q0 16 -38 18l-32 4l-3 44h304z" />
    <glyph glyph-name="H" unicode="H" horiz-adv-x="773" 
d="M743 0h-305l3 44l31 2q34 2 34 21v224h-239v-225q0 -16 38 -18l28 -4l3 -44h-305l3 44l31 4q34 3 34 19v491q0 16 -41 19l-24 4l-3 44h305l-3 -44l-32 -4q-34 -2 -34 -19v-212h239v213q0 16 -38 18l-27 4l-3 44h305l-3 -44l-32 -4q-34 -3 -34 -19v-491q0 -16 41 -19
l25 -4z" />
    <glyph glyph-name="I" unicode="I" horiz-adv-x="386" 
d="M356 0h-326l3 44l42 4q34 3 34 19v491q0 16 -41 19l-35 4l-3 44h326l-3 -44l-42 -4q-34 -2 -34 -19v-492q0 -16 38 -18l38 -4z" />
    <glyph glyph-name="J" unicode="J" horiz-adv-x="475" 
d="M447 625l-3 -44l-30 -4q-34 -3 -34 -19v-257q0 -173 -61 -245t-178 -72q-60 0 -100.5 27t-40.5 70q0 30 20 49t49 19q36 0 66 -30q31 -31 37 -91h1q38 42 38 168v363q0 16 -38 18l-47 4l-3 44h324z" />
    <glyph glyph-name="K" unicode="K" horiz-adv-x="718" 
d="M717 0h-311l3 44l14 7q25 9 5 47l-105 186l-56 -54v-164q0 -16 38 -18l28 -4l3 -44h-305l3 44l31 4q34 3 34 19v491q0 16 -41 19l-24 4l-3 44h305l-3 -44l-32 -4q-34 -2 -34 -19v-259l153 166q79 85 26 108l-27 8l-3 44h291l-3 -44l-45 -12q-64 -16 -140 -90l-80 -79
l181 -291q30 -49 75 -60l19 -5z" />
    <glyph glyph-name="L" unicode="L" horiz-adv-x="584" 
d="M562 209l-19 -209h-512l3 44l31 6q34 3 34 19v487q0 16 -41 19l-24 6l-3 44h303l-3 -44l-30 -6q-34 -2 -34 -19v-506h2q70 0 101.5 8t47.5 28t34 71l20 52h90z" />
    <glyph glyph-name="M" unicode="M" horiz-adv-x="933" 
d="M905 0h-322l3 43l46 8q10 2 14.5 14t6 50.5t0.5 115.5l-6 326h-11l-167 -537h-126l-145 525h-11l-17 -310q-3 -66 -4 -100.5t1 -54t6 -24t13 -5.5l53 -8l3 -43h-221l3 43l48 8q13 2 18.5 8.5t12 47.5t10.5 128l15 295q1 10 -13.5 23.5t-30.5 17.5l-47 9l-3 45h319
l109 -413h10l119 413h310l-3 -45l-57 -5q-23 -1 -23 -32l4 -312q1 -78 6 -118.5t11 -50t17 -11.5l46 -8z" />
    <glyph glyph-name="N" unicode="N" horiz-adv-x="714" 
d="M709 625l-3 -44l-47 -13q-11 -3 -17.5 -12t-13 -55.5t-6.5 -131.5v-376h-133l-322 455h-10v-194q0 -85 5.5 -130.5t11.5 -55t16 -11.5l59 -13l3 -44h-242l3 44l47 13q10 3 16.5 11.5t13.5 55t7 130.5v268q0 19 -31 36l-44 23l-3 44h230l303 -430h10v174q0 85 -5.5 131
t-11.5 56t-16 12l-59 13l-3 44h242z" />
    <glyph glyph-name="O" unicode="O" horiz-adv-x="776" 
d="M736 317q0 -149 -102.5 -241t-248.5 -92q-160 0 -252.5 88t-92.5 234q0 149 103 241t249 92q160 0 252 -87.5t92 -234.5zM554 305q0 135 -47 207t-122 72q-73 0 -118 -68t-45 -198q0 -134 47.5 -206.5t122.5 -72.5q72 0 117 67.5t45 198.5z" />
    <glyph glyph-name="P" unicode="P" horiz-adv-x="627" 
d="M605 445q0 -91 -85 -147.5t-200 -56.5q-8 0 -53 3v-178q0 -16 38 -18l36 -4l3 -44h-313l3 44l31 4q34 3 34 19v491q0 16 -41 19l-24 4l-3 44h304q130 0 200 -48t70 -132zM422 430q0 69 -31.5 109.5t-92.5 40.5h-31v-287q30 -4 50 -4q47 0 76 39.5t29 101.5z" />
    <glyph glyph-name="Q" unicode="Q" horiz-adv-x="776" 
d="M791 -157q-82 -25 -167 -25q-104 0 -170.5 39.5t-122.5 128.5q-137 16 -214 101.5t-77 218.5q0 149 103 241t249 92q160 0 252 -87.5t92 -234.5q0 -114 -61 -195.5t-160 -115.5q38 -60 109 -92.5t160 -29.5zM554 305q0 135 -47 207t-122 72q-73 0 -118 -68t-45 -198
q0 -134 47.5 -206.5t122.5 -72.5q72 0 117 67.5t45 198.5z" />
    <glyph glyph-name="R" unicode="R" horiz-adv-x="665" 
d="M465 297l133 -213q19 -29 43 -35l24 -5l3 -44h-225l-43 89l-94 176l-39 1v-200q0 -16 38 -18l15 -4l3 -44h-292l3 44l31 4q34 3 34 19v491q0 16 -41 19l-24 4l-3 44h324q125 0 189 -42t64 -114q0 -120 -143 -172zM425 442q0 66 -35.5 102.5t-93.5 36.5h-29v-266l51 -6
q107 17 107 133z" />
    <glyph glyph-name="S" unicode="S" horiz-adv-x="580" 
d="M539 196q0 -91 -69 -151.5t-190 -60.5q-103 0 -217 28l-6 206h89l44 -160q45 -13 90 -13q61 0 89 24.5t28 64.5q0 43 -33 65t-111 45q-105 29 -155 71t-50 120q0 88 68.5 145.5t187.5 57.5q61 0 154 -17l54 15v-216h-83l-50 146q-36 11 -79 11q-55 0 -86 -22t-31 -57
q0 -37 30 -57t98 -40q121 -34 174.5 -78.5t53.5 -126.5z" />
    <glyph glyph-name="T" unicode="T" horiz-adv-x="662" 
d="M644 401h-85l-19 70q-10 35 -22.5 57.5t-28.5 32t-30 12.5t-35 3h-9v-510q0 -16 38 -18l38 -4l3 -44h-326l3 44l42 4q34 3 34 19v509h-6q-44 0 -72 -21.5t-47 -86.5l-19 -67h-93l21 224h613v-224z" />
    <glyph glyph-name="U" unicode="U" horiz-adv-x="707" 
d="M701 625l-3 -44l-47 -13q-11 -3 -17.5 -12t-13 -55.5t-6.5 -131.5v-154q0 -109 -69 -175t-186 -66q-121 0 -196 52t-75 148v384q0 16 -41 19l-24 4l-3 44h304l-3 -44l-31 -4q-34 -2 -34 -19v-337q0 -78 35.5 -125t105.5 -47q80 0 118.5 45t38.5 144v131q0 85 -5.5 131
t-11.5 56t-16 12l-59 13l-3 44h242z" />
    <glyph glyph-name="V" unicode="V" horiz-adv-x="660" 
d="M691 625l-3 -46l-21 -6q-27 -7 -40.5 -18.5t-33 -49.5t-51.5 -123l-143 -382h-152l-181 521q-9 24 -19.5 35t-32.5 16l-23 7l-3 46h324l-3 -46l-28 -4q-34 -4 -37 -25t19 -83l113 -329h15l102 301q38 123 -24 135l-37 5l-3 46h262z" />
    <glyph glyph-name="W" unicode="W" horiz-adv-x="987" 
d="M1030 625l-2 -46l-23 -7q-30 -9 -47 -23t-36 -52t-43 -115l-122 -382h-141l-104 371h-10l-122 -371h-144l-169 521q-8 24 -19 35.5t-33 15.5l-29 7l-3 46h336l-3 -46l-33 -4q-49 -6 -18 -108l91 -335h10l103 328l-16 61q-10 40 -52 51l-29 7l-3 46h336l-3 -46l-33 -4
q-27 -4 -30.5 -27t12.5 -81l84 -334h10l69 249q27 100 22 141t-42 51l-29 5l-4 46h269z" />
    <glyph glyph-name="X" unicode="X" horiz-adv-x="651" 
d="M656 0h-324l3 44l24 7q21 6 23 27t-22 58l-70 111h-5l-62 -84q-71 -95 2 -113l25 -6l3 -44h-257l3 44l43 12q9 3 22 13t20.5 18t23.5 27t19 22l129 151l-136 189q-2 3 -6 8q-54 77 -68 84l-4 2l-35 11l-3 44h326l-3 -44l-25 -7q-21 -6 -24 -25t23 -60l57 -92h5l64 88
q58 76 -2 90l-25 6l-3 44h239l-3 -44l-43 -12q-9 -2 -25 -16t-28 -28t-30 -35.5t-23 -26.5l-89 -103l152 -224q29 -43 43.5 -60t27.5 -21l35 -11z" />
    <glyph glyph-name="Y" unicode="Y" horiz-adv-x="610" 
d="M629 625l-3 -46l-25 -8q-24 -7 -45.5 -32t-68.5 -107l-99 -174v-192q0 -16 38 -18l38 -4l3 -44h-326l3 44l42 4q34 3 34 19v180l-162 283q-18 32 -44 41l-26 8l-3 46h312l-3 -46l-30 -6q-43 -10 5 -106l77 -155h10l66 120q40 71 40 102.5t-35 37.5l-32 7l-3 46h237z" />
    <glyph glyph-name="Z" unicode="Z" horiz-adv-x="640" 
d="M612 211l-21 -211h-557v54l370 514v5h-104q-61 1 -88.5 -18.5t-43.5 -82.5l-20 -71h-90v224h544v-54l-380 -515v-5l132 -1q51 0 80.5 13.5t41 32.5t25.5 59l20 56h91z" />
    <glyph glyph-name="bracketleft" unicode="[" horiz-adv-x="368" 
d="M352 -197h-262v873h262v-51h-203v-770h203v-52z" />
    <glyph glyph-name="backslash" unicode="\" horiz-adv-x="279" 
d="M276 -177h-56l-217 877h56z" />
    <glyph glyph-name="bracketright" unicode="]" horiz-adv-x="368" 
d="M16 -197v52h203v770h-203v51h262v-873h-262z" />
    <glyph glyph-name="asciicircum" unicode="^" horiz-adv-x="400" 
d="M359 520h-47l-111 102h-2l-111 -102h-47l127 207h64z" />
    <glyph glyph-name="underscore" unicode="_" horiz-adv-x="470" 
d="M479 -53h-488l3 53h482z" />
    <glyph glyph-name="grave" unicode="`" horiz-adv-x="399" 
d="M279 520h-67l-185 177h155z" />
    <glyph glyph-name="a" unicode="a" horiz-adv-x="531" 
d="M531 72q-25 -36 -63.5 -63t-72.5 -27q-35 0 -62.5 23t-29.5 70h-5q-35 -45 -66.5 -67.5t-71.5 -22.5q-54 0 -90 31t-36 87q0 60 64 102t203 79v7q2 48 -25 79t-76 31q-16 0 -31.5 -3t-24 -6.5t-8.5 -5.5q0 -1 7 -8.5t14 -21.5t7 -30q0 -20 -19 -38t-46 -18
q-30 0 -49.5 15.5t-19.5 40.5q0 52 78.5 99t174.5 47q177 0 169 -189l-7 -160q-1 -28 4 -37.5t22 -9.5q14 0 45 26zM296 119l3 125q-73 -22 -100 -47t-27 -58q0 -27 18 -40.5t45 -13.5q18 0 35.5 11t25.5 23z" />
    <glyph glyph-name="b" unicode="b" horiz-adv-x="589" 
d="M554 250q0 -112 -73 -188.5t-192 -76.5q-52 0 -133 30h-1l-70 -36h-16v552q0 32 -23 45l-35 20l3 33l207 68v-306h5q63 77 141 77t132.5 -63t54.5 -155zM391 201q0 75 -32 120t-82 45q-35 0 -56 -14v-257q51 -61 91 -61q34 0 56.5 44t22.5 123z" />
    <glyph glyph-name="c" unicode="c" horiz-adv-x="496" 
d="M474 143q-22 -76 -78 -117t-141 -41q-94 0 -157.5 62t-63.5 166q0 112 73.5 186t189.5 74q79 0 123.5 -29t44.5 -79q0 -34 -20 -51.5t-53 -17.5q-40 0 -60 37.5t-10 80.5v1q-10 6 -27 6q-43 0 -71 -40.5t-28 -119.5q0 -81 33.5 -129.5t91.5 -48.5q73 0 129 73z" />
    <glyph glyph-name="d" unicode="d" horiz-adv-x="595" 
d="M577 40l-3 -33l-207 -22v74h-3q-26 -31 -66.5 -52t-78.5 -21q-84 0 -134 61.5t-50 155.5q0 113 72.5 189t195.5 76q30 0 63 -6h1v112q0 34 -21 45l-51 22l4 32l220 24v-597q0 -42 23 -49zM367 109v248q-51 61 -90 61q-34 0 -56.5 -44t-22.5 -123q0 -76 29 -124t74 -48
q29 0 66 30z" />
    <glyph glyph-name="e" unicode="e" horiz-adv-x="504" 
d="M473 143q-22 -76 -78 -117t-141 -41q-94 0 -157 62t-63 166q0 110 72 185t184 75q77 0 129 -42.5t52 -117.5q0 -29 -6 -56l-271 4v-11q2 -79 35 -123t91 -44q73 0 129 73zM328 300q3 58 -11.5 90.5t-41.5 32.5q-36 0 -57.5 -32t-24.5 -95z" />
    <glyph glyph-name="f" unicode="f" horiz-adv-x="359" 
d="M460 604q0 -32 -20.5 -51.5t-49.5 -19.5q-35 0 -56.5 23.5t-32.5 76.5l-1 4l-29 2q-42 -36 -42 -154v-37h137l-7 -71h-130v-314q0 -16 38 -18l29 -2l3 -43h-277l3 43l20 2q34 3 34 19v309l-78 9l6 66h67l2 24q8 96 79.5 160.5t169.5 64.5q56 0 95.5 -26t39.5 -67z" />
    <glyph glyph-name="g" unicode="g" horiz-adv-x="517" 
d="M521 349l-88 16v-4q8 -24 8 -40q0 -87 -56.5 -135.5t-161.5 -48.5q-23 0 -53 5q-5 -3 -10.5 -12.5t-5.5 -17.5q0 -23 14 -32.5t48 -9.5q19 0 65 1.5t67 1.5q65 0 108 -40t43 -105q0 -81 -81.5 -142t-211.5 -61q-91 0 -146 31t-55 85q0 40 24.5 64.5t74.5 41.5v5
q-72 29 -72 93q0 34 27.5 65t67.5 39v4q-98 40 -98 144q0 74 51.5 125t156.5 51q74 0 133 -31h155zM385 -126q0 42 -35 60q-13 7 -203 7q-23 -23 -23 -64q0 -40 35.5 -67t98.5 -27q52 0 89.5 27t37.5 64zM298 299q0 83 -30 113q-15 15 -32 15q-62 0 -62 -122q0 -82 27 -109
q14 -14 32 -14q26 0 40 14q25 25 25 103z" />
    <glyph glyph-name="h" unicode="h" horiz-adv-x="595" 
d="M585 0h-262l3 43l13 2q34 2 34 19v184q0 70 -19.5 94t-62.5 24q-17 0 -37 -6.5t-28 -13.5v-283q0 -8 7.5 -12t30.5 -6l19 -2l3 -43h-269l3 43l20 2q34 3 34 19v467q0 30 -23 45l-37 20l3 33l209 68v-301h5q99 77 168 77q49 0 88 -39q38 -38 38 -118v-252q0 -7 8 -11
t33 -8l16 -2z" />
    <glyph glyph-name="i" unicode="i" horiz-adv-x="320" 
d="M244 614q0 -37 -26.5 -63t-63.5 -26t-62.5 26t-25.5 63t25.5 63t62.5 26t63.5 -26t26.5 -63zM292 0h-262l3 43l18 2q34 3 34 19v228q0 46 -8 60t-35 22l-15 5l1 35l209 59v-410q0 -8 7.5 -12t30.5 -6l14 -2z" />
    <glyph glyph-name="j" unicode="j" horiz-adv-x="303" 
d="M237 614q0 -37 -26.5 -63t-63.5 -26t-62.5 26t-25.5 63t25.5 63t62.5 26t63.5 -26t26.5 -63zM230 21q-9 -132 -71.5 -207t-150.5 -75q-46 0 -72.5 21.5t-26.5 56.5q0 26 19.5 43.5t43.5 17.5q58 0 82 -72q24 8 24 175v311q0 46 -8 60t-35 22l-15 5l1 35l209 59v-452z" />
    <glyph glyph-name="k" unicode="k" horiz-adv-x="568" 
d="M560 0h-195l-40 90l-63 125l-36 -35v-117q0 -8 6.5 -11.5t26.5 -6.5l14 -2l3 -43h-259l3 43l20 2q34 3 34 19v467q0 30 -23 45l-37 20l3 33l209 68v-458l11 10q36 32 49.5 44.5t32.5 32t25 31.5t6 23q0 26 -33 33l-6 1l-3 44h243l-3 -44l-27 -7q-44 -12 -145 -99l-7 -7
l124 -212q13 -20 24 -28.5t31 -14.5l9 -3z" />
    <glyph glyph-name="l" unicode="l" horiz-adv-x="310" 
d="M285 0h-261l3 43l18 2q34 3 34 19v467q0 32 -23 45l-35 20l3 33l207 68v-634q0 -8 7.5 -12t30.5 -6l13 -2z" />
    <glyph glyph-name="m" unicode="m" horiz-adv-x="890" 
d="M881 0h-262l3 43l13 2q34 2 34 19v184q0 70 -20.5 94t-60.5 24q-34 0 -62 -20v-282q0 -7 8 -11t33 -8l12 -2l3 -43h-258l4 43l12 2q34 2 34 19v184q0 70 -20.5 94t-60.5 24q-34 0 -62 -20v-283q0 -8 7.5 -12t30.5 -6l13 -2l3 -43h-263l3 43l20 2q34 3 34 19v228
q0 46 -8 60t-35 22l-15 5l1 35l209 59v-76h5q95 76 165 76q50 0 88 -38q16 -16 27 -44h4q85 82 176 82q50 0 88 -38q37 -37 37 -118v-253q0 -7 8 -11t33 -8l16 -2z" />
    <glyph glyph-name="n" unicode="n" horiz-adv-x="599" 
d="M590 0h-262l3 43l13 2q34 2 34 19v184q0 70 -19.5 94t-62.5 24q-17 0 -37 -6.5t-28 -13.5v-283q0 -8 7.5 -12t30.5 -6l19 -2l3 -43h-269l3 43l20 2q34 3 34 19v228q0 46 -8 60t-35 22l-15 5l1 35l209 59v-77h5q99 77 168 77q49 0 88 -39q38 -38 38 -118v-252q0 -7 8 -11
t33 -8l16 -2z" />
    <glyph glyph-name="o" unicode="o" horiz-adv-x="580" 
d="M544 232q0 -105 -75 -176t-190 -71q-113 0 -178 69t-65 170q0 105 76 177t190 72q112 0 177 -69.5t65 -171.5zM376 209q0 149 -41 190q-19 22 -47 22q-39 0 -61.5 -47t-22.5 -127t7.5 -125.5t30.5 -68.5q18 -18 49 -18q39 0 62 48.5t23 125.5z" />
    <glyph glyph-name="p" unicode="p" horiz-adv-x="593" 
d="M559 250q0 -111 -72 -188t-184 -77q-42 0 -74 12h-3v-180q0 -8 7.5 -12t30.5 -6l29 -2l3 -43h-287l3 43l28 2q34 3 34 19v474q0 46 -8 60t-35 22l-15 5l1 35l209 59v-82h5q63 77 141 77t132.5 -63t54.5 -155zM396 201q0 75 -32 120t-82 45q-35 0 -56 -14v-257
q51 -61 91 -61q34 0 56.5 44t22.5 123z" />
    <glyph glyph-name="q" unicode="q" horiz-adv-x="586" 
d="M578 -246h-286l3 43l38 2q34 3 34 19v241h-3q-26 -31 -66.5 -52t-78.5 -21q-84 0 -134 61.5t-50 155.5q0 113 72.5 189t195.5 76q64 0 120 -26h1l85 30h10v-655q0 -8 7.5 -12t30.5 -6l19 -2zM367 109v248q-51 61 -90 61q-34 0 -56.5 -44t-22.5 -123q0 -76 29 -124t74 -48
q29 0 66 30z" />
    <glyph glyph-name="r" unicode="r" horiz-adv-x="441" 
d="M450 389q0 -30 -19 -52.5t-47 -22.5q-49 0 -75 46q-49 -35 -78 -76v-221q0 -8 7.5 -12t30.5 -6l29 -2l3 -43h-277l3 43l18 2q34 3 34 19v228q0 46 -8 60t-35 22l-15 5l1 35l209 59v-123h5q33 59 63 91t69 32q37 0 59.5 -22t22.5 -62z" />
    <glyph glyph-name="s" unicode="s" horiz-adv-x="457" 
d="M425 136q0 -67 -57 -109t-158 -42q-106 0 -173 27l-4 133h85l26 -93q48 -16 71 -16q41 0 63.5 17.5t22.5 46.5q0 9 -3 16.5t-10.5 14t-13.5 10.5t-19.5 10t-20 8.5t-24.5 8.5l-24 8q-73 26 -110 57t-37 94q0 66 52.5 106t141.5 40q64 0 116 -16l57 10l4 -154h-77l-34 92
q-32 16 -64 16q-34 0 -53.5 -15.5t-19.5 -39.5q0 -15 4.5 -25.5t22 -20.5t25.5 -13l43 -15q7 -3 11 -4q37 -13 59.5 -23t48 -28t37.5 -43t12 -58z" />
    <glyph glyph-name="t" unicode="t" horiz-adv-x="390" 
d="M383 66q-67 -81 -175 -81q-68 0 -102.5 39t-33.5 114l3 235l-75 9l3 40l77 72l77 73l62 -6l-1 -113h162l-7 -71h-156l-2 -192q0 -58 21 -81t59 -23q47 0 85 18z" />
    <glyph glyph-name="u" unicode="u" horiz-adv-x="590" 
d="M578 40l-3 -33l-207 -22v77h-5q-99 -77 -168 -77q-49 0 -88 39q-38 38 -38 118v252q0 7 -8 11t-33 8l-16 2l-3 43h215l-3 -248q-1 -70 19 -94t63 -24q17 0 37 6.5t28 13.5v283q0 8 -7.5 12t-30.5 6l-19 2l-4 43h213v-358q0 -42 23 -49z" />
    <glyph glyph-name="v" unicode="v" horiz-adv-x="507" 
d="M527 458l-3 -43l-33 -5q-26 -4 -42 -46l-141 -373h-108l-146 380q-11 27 -38 33l-26 11l-3 43h276l-3 -43l-35 -12q-18 -6 -10 -40l83 -248l87 243q12 36 -10 44l-39 13l-3 43h194z" />
    <glyph glyph-name="w" unicode="w" horiz-adv-x="786" 
d="M805 458l-3 -43l-33 -10q-30 -9 -42 -41l-127 -373h-105l-105 295l-94 -295h-106l-138 380q-9 24 -38 34l-25 10l-3 43h276l-3 -43l-35 -12q-22 -7 -11 -40l72 -247l76 249l-2 6q-8 22 -38 33l-29 11l-3 43h278l-3 -43l-35 -12q-22 -7 -11 -40l72 -247l74 241
q13 35 -11 46l-34 12l-3 43h189z" />
    <glyph glyph-name="x" unicode="x" horiz-adv-x="512" 
d="M527 0h-282l4 43l9 2q22 5 25 16t-13 35l-50 78h-5l-57 -73q-35 -44 3 -57l3 -1l2 -43h-175l3 43l30 10q32 10 60 42l103 119l-117 157q-21 26 -41 34l-25 10l-2 43h282l-3 -43l-9 -2q-42 -9 -12 -51l45 -71h5l52 66q35 44 -3 57l-3 1l-3 43h175l-3 -43l-30 -10
q-33 -11 -60 -42l-97 -113l121 -163q13 -16 46 -34l20 -10z" />
    <glyph glyph-name="y" unicode="y" horiz-adv-x="507" 
d="M527 458l-3 -43l-33 -5q-26 -4 -42 -46l-123 -319l-64 -183q-43 -124 -135 -124q-34 0 -59.5 20t-25.5 50q0 27 17 46.5t46 19.5q25 0 43.5 -15.5t25.5 -35.5q26 9 47 79l11 37v10l-178 422q-8 21 -38 33l-26 11l-3 43h276l-3 -43l-35 -12q-22 -7 -10 -40l91 -236l81 231
q13 35 -12 44l-39 13l-3 43h194z" />
    <glyph glyph-name="z" unicode="z" horiz-adv-x="513" 
d="M478 415l-281 -364l73 2q48 1 71.5 9t33 19t26.5 42l39 72h65l-45 -195h-435v43l276 364l-57 -2q-57 -3 -75 -14.5t-33 -51.5l-29 -72h-63v191h434v-43z" />
    <glyph glyph-name="braceleft" unicode="{" horiz-adv-x="362" 
d="M341 -212q-120 4 -177 44.5t-57 107.5q0 33 24.5 96.5t24.5 85.5q0 39 -22 56.5t-96 26.5l-11 35l11 33q68 11 93 28.5t25 54.5q0 22 -24.5 85.5t-24.5 96.5q0 67 57 107.5t177 44.5v-40q-56 -5 -76.5 -24.5t-20.5 -56.5q0 -27 24.5 -92t24.5 -103q0 -48 -44.5 -82
t-135.5 -47v-11q91 -12 135.5 -47t44.5 -83q0 -38 -24.5 -103t-24.5 -93q0 -37 20.5 -56t76.5 -24v-40z" />
    <glyph glyph-name="bar" unicode="|" horiz-adv-x="275" 
d="M111 -157v877h53v-877h-53z" />
    <glyph glyph-name="braceright" unicode="}" horiz-adv-x="362" 
d="M341 240l-11 -35q-73 -9 -95.5 -26.5t-22.5 -56.5q0 -22 24.5 -85.5t24.5 -96.5q0 -67 -57 -107.5t-176 -44.5v40q56 5 76.5 24t20.5 56q0 28 -24.5 93t-24.5 103q0 48 44.5 83t134.5 47v11q-91 13 -135 47.5t-44 81.5q0 38 24.5 103t24.5 92q0 37 -20.5 56.5t-76.5 24.5
v40q119 -4 176 -44.5t57 -107.5q0 -33 -24.5 -96.5t-24.5 -85.5q0 -37 25 -54.5t93 -28.5z" />
    <glyph glyph-name="asciitilde" unicode="~" horiz-adv-x="400" 
d="M384 325q-7 -80 -34.5 -113.5t-75.5 -33.5q-30 0 -86.5 34t-72.5 34q-20 0 -29 -28q-2 -5 -9 -31h-61q8 81 35 114t75 33q30 0 84.5 -33.5t70.5 -33.5q17 0 27 14t19 44h57z" />
    <glyph glyph-name="nbspace" unicode="&#xa0;" horiz-adv-x="228" 
 />
    <glyph glyph-name="exclamdown" unicode="&#xa1;" horiz-adv-x="304" 
d="M236 560q0 -33 -23 -56.5t-56 -23.5t-56 23.5t-23 56.5q0 32 23 55.5t56 23.5t56 -23t23 -56zM235 46q5 -28 -17.5 -45t-59.5 -17h-2q-37 0 -59.5 17t-17.5 45l63 371q2 9 15 9t15 -9z" />
    <glyph glyph-name="cent" unicode="&#xa2;" horiz-adv-x="481" 
d="M255 -16l-37 -149h-56l39 156q-75 19 -120.5 80.5t-45.5 151.5q0 110 75 180t187 70q15 0 22 -1l41 164h56l-42 -172q44 -11 68 -37t24 -62q0 -27 -18.5 -46t-44.5 -19q-43 0 -60 38l-61 -247q21 -8 44 -8q33 0 69 19.5t61 52.5l21 -13q-20 -69 -78 -113.5t-139 -44.5h-5
zM234 126l72 293q-4 1 -11 1q-43 0 -70.5 -40t-27.5 -119q0 -86 37 -135z" />
    <glyph glyph-name="sterling" unicode="&#xa3;" horiz-adv-x="577" 
d="M153 305q-1 18 -1 61q0 118 67 190.5t188 72.5q65 0 98 -24.5t33 -67.5q0 -31 -20 -50.5t-49 -19.5q-35 0 -53.5 30.5t-7.5 70.5q-13 15 -38 15q-31 0 -49 -33t-18 -121q0 -10 0.5 -41t0.5 -51v-32h137l3 -51h-142q-7 -109 -34 -143l-1 -5q82 -16 125 -16q64 0 90 26
q22 22 32 67l30 -8q16 -94 -19.5 -146.5t-111.5 -52.5q-31 0 -63 12t-51.5 25.5t-42 31t-26.5 20.5q-71 -69 -172 -91l-16 60q60 11 88 46t28 100q0 10 -1.5 35t-1.5 39h-112l3 51h107z" />
    <glyph glyph-name="currency" unicode="&#xa4;" horiz-adv-x="435" 
d="M405 501l-56 -56q22 -38 22 -86q0 -44 -23 -86l62 -62l-44 -44l-61 61q-37 -24 -87 -24q-45 0 -87 23l-56 -56l-43 43l56 56q-24 38 -24 89q0 49 23 87l-58 58l44 44l58 -58q37 24 87 24q51 0 89 -25l55 55zM312 359q0 40 -26 68.5t-68 28.5q-43 0 -69 -28.5t-26 -68.5
q0 -39 26 -68t69 -29q42 0 68 29t26 68z" />
    <glyph glyph-name="yen" unicode="&#xa5;" horiz-adv-x="612" 
d="M620 625l-3 -45l-23 -7q-28 -9 -48 -31t-64 -95l-83 -142h157l3 -51h-173v-76h170l3 -51h-169v-49q0 -20 23 -24l54 -11l3 -43h-318l3 43l54 11q23 4 23 24v49h-169l3 51h170v76h-173l3 51h148l-143 237q-13 21 -34 27l-37 11l-3 45h307l-3 -45l-28 -6
q-18 -2 -16.5 -30.5t24.5 -72.5l71 -144h5l66 120q20 35 29.5 56.5t11 37.5t-7 23.5t-27.5 11.5l-21 4l-3 45h215z" />
    <glyph glyph-name="brokenbar" unicode="&#xa6;" horiz-adv-x="275" 
d="M111 307v335h53v-335h-53zM111 -139v335h53v-335h-53z" />
    <glyph glyph-name="section" unicode="&#xa7;" horiz-adv-x="480" 
d="M453 294q0 -80 -79 -129q38 -35 38 -79q0 -59 -56 -105t-137 -46q-69 0 -110.5 23.5t-41.5 62.5q0 29 18.5 47t45.5 18q34 0 63.5 -28t30.5 -65q23 -9 41 -9q25 0 40 16.5t15 40.5q0 6 -2 12t-7 12t-9.5 10.5t-13.5 10.5t-15.5 10t-19 10t-19.5 9.5t-22 10.5t-22 10
q-42 20 -60.5 30t-47.5 29.5t-41 41t-12 47.5q0 81 79 128q-38 36 -38 80q0 59 53.5 103t134.5 44q68 0 104.5 -23t36.5 -63q0 -29 -18.5 -47t-45.5 -18q-32 0 -52.5 26.5t-21.5 64.5q-20 11 -50 11q-25 0 -37.5 -15.5t-12.5 -37.5q0 -6 2 -12t7 -12t9.5 -10.5t13.5 -10.5
t15.5 -10t19 -10t19.5 -9.5t22 -10.5t22 -10q33 -16 48 -23t41.5 -23.5t38.5 -29t22.5 -32t10.5 -40.5zM369 230q0 30 -24.5 50.5t-77.5 46.5q-6 3 -58 26t-75 39q-20 -17 -20 -44q0 -30 24.5 -50.5t77.5 -46.5q6 -3 58 -26t75 -39q20 17 20 44z" />
    <glyph glyph-name="dieresis" unicode="&#xa8;" horiz-adv-x="400" 
d="M386 605q0 -31 -19.5 -53t-52.5 -22q-32 0 -51 21.5t-19 53.5t19 54t51 22q33 0 52.5 -22t19.5 -54zM157 605q0 -32 -19 -53.5t-52 -21.5t-52.5 22t-19.5 53t19.5 53.5t52.5 22.5t52 -22t19 -54z" />
    <glyph glyph-name="copyright" unicode="&#xa9;" horiz-adv-x="801" 
d="M771 311q0 -154 -108 -262.5t-262 -108.5q-155 0 -263 108t-108 263t108.5 263.5t262.5 108.5t262 -108.5t108 -263.5zM727 311q0 135 -95.5 232.5t-230.5 97.5t-231 -97.5t-96 -232.5t96 -232t231 -97t230.5 97t95.5 232zM565 250l-11 -133l-46 10q-45 -20 -100 -20
q-109 0 -162 59t-53 147q0 86 64.5 143t152.5 57q53 0 93 -17l59 16v-145h-58l-30 97q-25 16 -67 16q-52 0 -82.5 -40.5t-30.5 -120.5q0 -74 32 -127t88 -53q32 0 53 12l36 99h62z" />
    <glyph glyph-name="ordfeminine" unicode="&#xaa;" horiz-adv-x="397" 
d="M406 327q-15 -18 -42 -31.5t-55 -13.5q-61 0 -73 62h-5q-51 -62 -106 -62q-34 0 -60 24t-26 62q0 90 194 119l2 24q3 33 -17 54.5t-53 21.5q-10 0 -19.5 -2.5t-15 -5.5t-5.5 -5q0 -1 4.5 -7t9 -15t4.5 -18q0 -19 -14 -31.5t-36 -12.5q-24 0 -39 12.5t-15 35.5
q0 36 64 68.5t127 32.5q49 0 83.5 -27.5t33.5 -72.5l-6 -150q-1 -24 5 -34.5t22 -10.5q18 0 35 11zM231 374l2 85q-84 -13 -84 -61q0 -20 11 -33.5t27 -13.5q21 0 44 23z" />
    <glyph glyph-name="guillemotleft" unicode="&#xab;" horiz-adv-x="510" 
d="M502 50l-14 -22l-249 157v72l249 157l14 -22l-160 -171zM270 61l-13 -22l-238 146v72l238 146l13 -22l-137 -160z" />
    <glyph glyph-name="logicalnot" unicode="&#xac;" horiz-adv-x="480" 
d="M445 313v-216h-61v155h-349l3 61h407z" />
    <glyph glyph-name="uni00AD" unicode="&#xad;" horiz-adv-x="338" 
d="M307 221h-274l3 67h268z" />
    <glyph glyph-name="registered" unicode="&#xae;" horiz-adv-x="802" 
d="M772 314q0 -154 -108 -262.5t-263 -108.5t-263 108.5t-108 262.5t108.5 262.5t262.5 108.5t262.5 -108.5t108.5 -262.5zM728 314q0 135 -96 232.5t-231 97.5t-231 -97.5t-96 -232.5q0 -136 96 -232.5t231 -96.5q136 0 231.5 96.5t95.5 232.5zM600 120h-124l-23 43
l-72 122l-23 2v-110q0 -9 14 -14l21 -7l4 -36h-182l3 36l28 7q15 4 15 14v271q0 11 -15 15l-28 7l-3 37h202q76 0 113.5 -27.5t37.5 -70.5q0 -79 -94 -105l86 -126q4 -6 14 -10l11 -5l12 -7zM466 391q0 38 -24 60t-59 22h-25v-151l32 -4q76 3 76 73z" />
    <glyph glyph-name="macron" unicode="&#xaf;" horiz-adv-x="400" 
d="M369 551h-338l9 74h320z" />
    <glyph glyph-name="degree" unicode="&#xb0;" horiz-adv-x="410" 
d="M371 482q0 -69 -45.5 -117t-120.5 -48q-74 0 -120 48t-46 117q0 70 45.5 118.5t120.5 48.5t120.5 -48t45.5 -119zM205 604q-53 0 -85 -35t-32 -87q0 -49 32 -84.5t85 -35.5t85 35.5t32 84.5q0 52 -32 87t-85 35z" />
    <glyph glyph-name="plusminus" unicode="&#xb1;" horiz-adv-x="480" 
d="M448 0h-416l3 61h410zM449 234h-178v-159h-61v159h-179l3 61h176v161h61v-161h175z" />
    <glyph glyph-name="twosuperior" unicode="&#xb2;" horiz-adv-x="330" 
d="M17 273l-6 41q19 18 61 56.5t59 56t33.5 47t16.5 57.5q0 23 -18 38t-46 15q-44 0 -100 -40l-9 17q63 100 157 100q61 0 95 -29t34 -82q0 -43 -40.5 -82t-149.5 -116v-4h42q106 0 113 3q4 2 6 5l18 29h29l-26 -112h-269z" />
    <glyph glyph-name="threesuperior" unicode="&#xb3;" horiz-adv-x="330" 
d="M129 258q-46 0 -81.5 20t-35.5 53q0 18 13.5 32t31.5 14q31 0 44.5 -26t14.5 -59h10q26 0 45.5 24t19.5 60q0 28 -17 48.5t-40 20.5q-12 0 -36 -12l-15 25q9 5 26.5 15t26.5 16t20.5 14.5t16.5 18t5 20.5q0 21 -16.5 32.5t-39.5 11.5q-58 0 -100 -48l-16 21
q64 102 176 102q50 0 80.5 -23t30.5 -55q0 -39 -35.5 -64t-96.5 -45v-4q55 15 99.5 -6t44.5 -72q0 -54 -51 -94t-125 -40z" />
    <glyph glyph-name="acute" unicode="&#xb4;" horiz-adv-x="399" 
d="M372 697l-185 -177h-66l97 177h154z" />
    <glyph glyph-name="mu" unicode="&#xb5;" horiz-adv-x="590" 
d="M578 40l-3 -33l-207 -22v60h-5q-39 -60 -93 -60q-52 0 -80 61h-6l16 -285l-144 -7l13 388v252q0 7 -8 11t-33 8l-16 2l-3 43h215l-3 -289q0 -77 79 -77q34 0 68 31v272q0 8 -7.5 12t-30.5 6l-19 2l-4 43h213v-358q0 -42 23 -49z" />
    <glyph glyph-name="mu" unicode="&#x3bc;" horiz-adv-x="590" 
d="M578 40l-3 -33l-207 -22v60h-5q-39 -60 -93 -60q-52 0 -80 61h-6l16 -285l-144 -7l13 388v252q0 7 -8 11t-33 8l-16 2l-3 43h215l-3 -289q0 -77 79 -77q34 0 68 31v272q0 8 -7.5 12t-30.5 6l-19 2l-4 43h213v-358q0 -42 23 -49z" />
    <glyph glyph-name="paragraph" unicode="&#xb6;" horiz-adv-x="477" 
d="M418 -32h-75v276q-35 -7 -67 -7q-122 0 -188.5 53t-66.5 140q0 100 68.5 147.5t205.5 47.5h123v-657z" />
    <glyph glyph-name="periodcentered" unicode="&#xb7;" horiz-adv-x="232" 
d="M204 250q0 -36 -25.5 -62t-62.5 -26t-62.5 25.5t-25.5 62.5t25.5 63t62.5 26q36 0 62 -26.5t26 -62.5z" />
    <glyph glyph-name="cedilla" unicode="&#xb8;" horiz-adv-x="400" 
d="M324 -150q0 -57 -64.5 -91.5t-168.5 -38.5l-11 30q76 8 117 28t41 49q0 50 -84 50q-43 0 -76 -8v28l121 124h57l-74 -73q66 -4 104 -29.5t38 -68.5z" />
    <glyph glyph-name="onesuperior" unicode="&#xb9;" horiz-adv-x="330" 
d="M41 273l2 36l53 8q15 6 15 14v243l-70 8l2 25l187 59v-335q0 -10 15 -14l41 -8l2 -36h-247z" />
    <glyph glyph-name="ordmasculine" unicode="&#xba;" horiz-adv-x="426" 
d="M393 463q0 -77 -49.5 -129t-131.5 -52q-83 0 -131 51t-48 125q0 77 50.5 129t132.5 52t129.5 -50.5t47.5 -125.5zM274 444q0 105 -33 138q-16 16 -34 16q-27 0 -41 -34t-14 -88q0 -106 36 -142q12 -12 31 -12q27 0 41 34t14 88z" />
    <glyph glyph-name="guillemotright" unicode="&#xbb;" horiz-adv-x="510" 
d="M507 185l-239 -146l-13 22l137 160l-137 160l13 22l239 -146v-72zM287 185l-250 -157l-13 22l159 171l-159 171l13 22l250 -157v-72z" />
    <glyph glyph-name="onequarter" unicode="&#xbc;" horiz-adv-x="715" 
d="M554 -143v98h-162l-7 36l191 247h80v-241h61l-4 -42h-57v-98h-102zM429 -3h125v159h-3zM79 -116l535 741h63l-535 -741h-63zM41 273l2 36l53 8q15 6 15 14v243l-70 8l2 25l187 59v-335q0 -10 15 -14l41 -8l2 -36h-247z" />
    <glyph glyph-name="onehalf" unicode="&#xbd;" horiz-adv-x="715" 
d="M64 -116l535 741h63l-535 -741h-63zM41 273l2 36l53 8q15 6 15 14v243l-70 8l2 25l187 59v-335q0 -10 15 -14l41 -8l2 -36h-247zM402 -143l-6 41q19 18 61 56.5t59 56t33.5 47t16.5 57.5q0 23 -18 38t-46 15q-44 0 -100 -40l-9 17q63 100 157 100q61 0 95 -29t34 -82
q0 -43 -40.5 -82t-149.5 -116v-4h42q106 0 113 3q4 2 6 5l18 29h29l-26 -112h-269z" />
    <glyph glyph-name="threequarters" unicode="&#xbe;" horiz-adv-x="715" 
d="M554 -143v98h-162l-7 36l191 247h80v-241h61l-4 -42h-57v-98h-102zM129 258q-46 0 -81.5 20t-35.5 53q0 18 13.5 32t31.5 14q31 0 44.5 -26t14.5 -59h10q26 0 45.5 24t19.5 60q0 28 -17 48.5t-40 20.5q-12 0 -36 -12l-15 25q9 5 26.5 15t26.5 16t20.5 14.5t16.5 18
t5 20.5q0 21 -16.5 32.5t-39.5 11.5q-58 0 -100 -48l-16 21q64 102 176 102q50 0 80.5 -23t30.5 -55q0 -39 -35.5 -64t-96.5 -45v-4q55 15 99.5 -6t44.5 -72q0 -54 -51 -94t-125 -40zM79 -116l535 741h63l-535 -741h-63zM429 -3h125v159h-3z" />
    <glyph glyph-name="questiondown" unicode="&#xbf;" horiz-adv-x="423" 
d="M307 559q0 -33 -23.5 -56.5t-55.5 -23.5q-33 0 -56 23.5t-23 56.5q0 32 23 56t56 24q32 0 55.5 -23.5t23.5 -56.5zM368 67q0 -38 -27.5 -61t-84.5 -23q-81 0 -152.5 58.5t-71.5 138.5q0 69 28 97t97 53q55 20 66 32q6 9 6 18q0 13 -26 52h52q33 -16 52.5 -43t19.5 -55
q0 -49 -33.5 -74t-105.5 -45q-71 -20 -83 -32q-5 -6 -5 -13q0 -23 46 -37t102 -14q18 0 87 9q14 -8 23.5 -26t9.5 -35z" />
    <glyph glyph-name="Agrave" unicode="&#xc0;" horiz-adv-x="662" 
d="M680 0h-337l3 46l28 4q34 4 37 26t-19 82l-12 34h-203l-2 -6q-38 -124 24 -135l27 -5l3 -46h-252l3 46l21 6q28 8 40.5 17t33 47.5t51.5 121.5l118 322v47l155 32l190 -535q14 -39 64 -51l24 -7zM363 247l-77 236h-11l-81 -236h169zM371 687h-67l-185 177h155z" />
    <glyph glyph-name="Aacute" unicode="&#xc1;" horiz-adv-x="662" 
d="M680 0h-337l3 46l28 4q34 4 37 26t-19 82l-12 34h-203l-2 -6q-38 -124 24 -135l27 -5l3 -46h-252l3 46l21 6q28 8 40.5 17t33 47.5t51.5 121.5l118 322v47l155 32l190 -535q14 -39 64 -51l24 -7zM363 247l-77 236h-11l-81 -236h169zM524 864l-185 -177h-66l97 177h154z
" />
    <glyph glyph-name="Acircumflex" unicode="&#xc2;" horiz-adv-x="662" 
d="M680 0h-337l3 46l28 4q34 4 37 26t-19 82l-12 34h-203l-2 -6q-38 -124 24 -135l27 -5l3 -46h-252l3 46l21 6q28 8 40.5 17t33 47.5t51.5 121.5l118 322v47l155 32l190 -535q14 -39 64 -51l24 -7zM363 247l-77 236h-11l-81 -236h169zM490 687h-47l-111 102h-2l-111 -102
h-47l127 207h64z" />
    <glyph glyph-name="Atilde" unicode="&#xc3;" horiz-adv-x="662" 
d="M680 0h-337l3 46l28 4q34 4 37 26t-19 82l-12 34h-203l-2 -6q-38 -124 24 -135l27 -5l3 -46h-252l3 46l21 6q28 8 40.5 17t33 47.5t51.5 121.5l118 322v47l155 32l190 -535q14 -39 64 -51l24 -7zM363 247l-77 236h-11l-81 -236h169zM515 840q-7 -80 -34.5 -113.5
t-75.5 -33.5q-30 0 -86.5 34t-72.5 34q-11 0 -17.5 -6.5t-10 -16.5t-8.5 -28q-1 -5 -2 -8h-61q8 81 35 114t75 33q30 0 84.5 -33.5t70.5 -33.5q17 0 27 14t19 44h57z" />
    <glyph glyph-name="Adieresis" unicode="&#xc4;" horiz-adv-x="662" 
d="M680 0h-337l3 46l28 4q34 4 37 26t-19 82l-12 34h-203l-2 -6q-38 -124 24 -135l27 -5l3 -46h-252l3 46l21 6q28 8 40.5 17t33 47.5t51.5 121.5l118 322v47l155 32l190 -535q14 -39 64 -51l24 -7zM363 247l-77 236h-11l-81 -236h169zM517 772q0 -31 -19.5 -53t-52.5 -22
q-32 0 -51 21.5t-19 53.5t19 54t51 22q33 0 52.5 -22t19.5 -54zM288 772q0 -32 -19 -53.5t-52 -21.5t-52.5 22t-19.5 53t19.5 53.5t52.5 22.5t52 -22t19 -54z" />
    <glyph glyph-name="Aring" unicode="&#xc5;" horiz-adv-x="662" 
d="M264 608q-43 31 -43 89q0 46 29.5 77.5t78.5 31.5t78.5 -31.5t29.5 -77.5t-29 -77l181 -516q14 -39 64 -51l24 -7l3 -46h-337l3 46l28 4q34 4 37 26t-19 82l-12 34h-203l-2 -6q-38 -124 24 -135l27 -5l3 -46h-252l3 46l21 6q26 8 39.5 20.5t31.5 48t54 122.5zM398 697
q0 29 -19 50.5t-50 21.5t-50 -21.5t-19 -50.5t19 -50.5t50 -21.5t50 21.5t19 50.5zM363 242l-82 244h-5l-82 -244h169z" />
    <glyph glyph-name="AE" unicode="&#xc6;" horiz-adv-x="1002" 
d="M954 212l-20 -212h-583l3 43l44 11q23 5 23 24v141h-198l-16 -29q-70 -127 2 -140l28 -5l3 -45h-251l3 45l23 6q40 10 67 42t90 150l132 248q18 38 9.5 57.5t-38.5 25.5l-42 8l-3 43h708v-225h-88l-20 69q-19 71 -54.5 88.5t-139.5 17.5l-57 1v-237h23q69 0 84 42l25 69
h65l-25 -268h-62l-12 63q-4 25 -20 34t-59 9h-19v-239l69 1q99 0 135 18.5t61 88.5l20 55h90zM421 268v309h-7l-165 -309h172z" />
    <glyph glyph-name="Ccedilla" unicode="&#xc7;" horiz-adv-x="737" 
d="M371 -15q-153 6 -242 87.5t-89 228.5q0 150 101 244t259 94q94 0 163 -28l104 28v-239h-92l-55 162q-48 22 -100 22q-98 0 -147.5 -71t-49.5 -195q0 -131 50 -205.5t141 -74.5q55 0 99 19l60 161h99l-17 -218l-81 16q-78 -27 -146 -31l-38 -37q66 -4 104 -29.5t38 -68.5
q0 -57 -64.5 -91.5t-168.5 -38.5l-11 30q76 8 117 28t41 49q0 50 -84 50q-43 0 -76 -8v28z" />
    <glyph glyph-name="Egrave" unicode="&#xc8;" horiz-adv-x="690" 
d="M642 212l-20 -212h-591l3 44l31 4q34 3 34 19v491q0 16 -41 19l-24 4l-3 44h595v-225h-88l-20 69q-19 71 -54.5 88.5t-139.5 17.5h-57v-236h23q69 0 84 42l25 69h65l-25 -268h-62l-12 63q-4 25 -20 34t-59 9h-19v-238h69q99 0 135 18.5t61 88.5l20 55h90zM409 687h-67
l-185 177h155z" />
    <glyph glyph-name="Eacute" unicode="&#xc9;" horiz-adv-x="690" 
d="M642 212l-20 -212h-591l3 44l31 4q34 3 34 19v491q0 16 -41 19l-24 4l-3 44h595v-225h-88l-20 69q-19 71 -54.5 88.5t-139.5 17.5h-57v-236h23q69 0 84 42l25 69h65l-25 -268h-62l-12 63q-4 25 -20 34t-59 9h-19v-238h69q99 0 135 18.5t61 88.5l20 55h90zM518 864
l-185 -177h-66l97 177h154z" />
    <glyph glyph-name="Ecircumflex" unicode="&#xca;" horiz-adv-x="690" 
d="M642 212l-20 -212h-591l3 44l31 4q34 3 34 19v491q0 16 -41 19l-24 4l-3 44h595v-225h-88l-20 69q-19 71 -54.5 88.5t-139.5 17.5h-57v-236h23q69 0 84 42l25 69h65l-25 -268h-62l-12 63q-4 25 -20 34t-59 9h-19v-238h69q99 0 135 18.5t61 88.5l20 55h90zM504 687h-47
l-111 102h-2l-111 -102h-47l127 207h64z" />
    <glyph glyph-name="Edieresis" unicode="&#xcb;" horiz-adv-x="690" 
d="M642 212l-20 -212h-591l3 44l31 4q34 3 34 19v491q0 16 -41 19l-24 4l-3 44h595v-225h-88l-20 69q-19 71 -54.5 88.5t-139.5 17.5h-57v-236h23q69 0 84 42l25 69h65l-25 -268h-62l-12 63q-4 25 -20 34t-59 9h-19v-238h69q99 0 135 18.5t61 88.5l20 55h90zM531 772
q0 -31 -19.5 -53t-52.5 -22q-32 0 -51 21.5t-19 53.5t19 54t51 22q33 0 52.5 -22t19.5 -54zM302 772q0 -32 -19 -53.5t-52 -21.5t-52.5 22t-19.5 53t19.5 53.5t52.5 22.5t52 -22t19 -54z" />
    <glyph glyph-name="Igrave" unicode="&#xcc;" horiz-adv-x="386" 
d="M356 0h-326l3 44l42 4q34 3 34 19v491q0 16 -41 19l-35 4l-3 44h326l-3 -44l-42 -4q-34 -2 -34 -19v-492q0 -16 38 -18l38 -4zM243 687h-67l-185 177h155z" />
    <glyph glyph-name="Iacute" unicode="&#xcd;" horiz-adv-x="386" 
d="M356 0h-326l3 44l42 4q34 3 34 19v491q0 16 -41 19l-35 4l-3 44h326l-3 -44l-42 -4q-34 -2 -34 -19v-492q0 -16 38 -18l38 -4zM396 864l-185 -177h-66l97 177h154z" />
    <glyph glyph-name="Icircumflex" unicode="&#xce;" horiz-adv-x="386" 
d="M356 0h-326l3 44l42 4q34 3 34 19v491q0 16 -41 19l-35 4l-3 44h326l-3 -44l-42 -4q-34 -2 -34 -19v-492q0 -16 38 -18l38 -4zM352 687h-47l-111 102h-2l-111 -102h-47l127 207h64z" />
    <glyph glyph-name="Idieresis" unicode="&#xcf;" horiz-adv-x="386" 
d="M356 0h-326l3 44l42 4q34 3 34 19v491q0 16 -41 19l-35 4l-3 44h326l-3 -44l-42 -4q-34 -2 -34 -19v-492q0 -16 38 -18l38 -4zM379 772q0 -31 -19.5 -53t-52.5 -22q-32 0 -51 21.5t-19 53.5t19 54t51 22q33 0 52.5 -22t19.5 -54zM150 772q0 -32 -19 -53.5t-52 -21.5
t-52.5 22t-19.5 53t19.5 53.5t52.5 22.5t52 -22t19 -54z" />
    <glyph glyph-name="Eth" unicode="&#xd0;" horiz-adv-x="739" 
d="M99 288h-67l3 51h64v207q0 19 -23 24l-42 11l-3 44l296 4q175 2 277.5 -82t102.5 -220q0 -133 -103.5 -230t-273.5 -97h-299l3 44l42 11q23 5 23 24v209zM267 339h116l3 -51h-119v-223l71 -15q85 0 135 72t50 182q0 128 -54.5 199t-166.5 71h-35v-235z" />
    <glyph glyph-name="Ntilde" unicode="&#xd1;" horiz-adv-x="714" 
d="M709 625l-3 -44l-47 -13q-11 -3 -17.5 -12t-13 -55.5t-6.5 -131.5v-376h-133l-322 455h-10v-194q0 -85 5.5 -130.5t11.5 -55t16 -11.5l59 -13l3 -44h-242l3 44l47 13q10 3 16.5 11.5t13.5 55t7 130.5v268q0 19 -31 36l-44 23l-3 44h230l303 -430h10v174q0 85 -5.5 131
t-11.5 56t-16 12l-59 13l-3 44h242zM541 840q-7 -80 -34.5 -113.5t-75.5 -33.5q-30 0 -86.5 34t-72.5 34q-11 0 -17.5 -6.5t-10 -16.5t-8.5 -28q-1 -5 -2 -8h-61q8 81 35 114t75 33q30 0 84.5 -33.5t70.5 -33.5q17 0 27 14t19 44h57z" />
    <glyph glyph-name="Ograve" unicode="&#xd2;" horiz-adv-x="776" 
d="M736 317q0 -149 -102.5 -241t-248.5 -92q-160 0 -252.5 88t-92.5 234q0 149 103 241t249 92q160 0 252 -87.5t92 -234.5zM554 305q0 135 -47 207t-122 72q-73 0 -118 -68t-45 -198q0 -134 47.5 -206.5t122.5 -72.5q72 0 117 67.5t45 198.5zM468 687h-67l-185 177h155z
" />
    <glyph glyph-name="Oacute" unicode="&#xd3;" horiz-adv-x="776" 
d="M736 317q0 -149 -102.5 -241t-248.5 -92q-160 0 -252.5 88t-92.5 234q0 149 103 241t249 92q160 0 252 -87.5t92 -234.5zM554 305q0 135 -47 207t-122 72q-73 0 -118 -68t-45 -198q0 -134 47.5 -206.5t122.5 -72.5q72 0 117 67.5t45 198.5zM591 864l-185 -177h-66l97 177
h154z" />
    <glyph glyph-name="Ocircumflex" unicode="&#xd4;" horiz-adv-x="776" 
d="M736 317q0 -149 -102.5 -241t-248.5 -92q-160 0 -252.5 88t-92.5 234q0 149 103 241t249 92q160 0 252 -87.5t92 -234.5zM554 305q0 135 -47 207t-122 72q-73 0 -118 -68t-45 -198q0 -134 47.5 -206.5t122.5 -72.5q72 0 117 67.5t45 198.5zM547 687h-47l-111 102h-2
l-111 -102h-47l127 207h64z" />
    <glyph glyph-name="Otilde" unicode="&#xd5;" horiz-adv-x="776" 
d="M736 317q0 -149 -102.5 -241t-248.5 -92q-160 0 -252.5 88t-92.5 234q0 149 103 241t249 92q160 0 252 -87.5t92 -234.5zM554 305q0 135 -47 207t-122 72q-73 0 -118 -68t-45 -198q0 -134 47.5 -206.5t122.5 -72.5q72 0 117 67.5t45 198.5zM572 840q-7 -80 -34.5 -113.5
t-75.5 -33.5q-30 0 -86.5 34t-72.5 34q-20 0 -29 -28q-2 -7 -7 -23l-2 -8h-61q8 81 35 114t75 33q30 0 84.5 -33.5t70.5 -33.5q17 0 27 14t19 44h57z" />
    <glyph glyph-name="Odieresis" unicode="&#xd6;" horiz-adv-x="776" 
d="M736 317q0 -149 -102.5 -241t-248.5 -92q-160 0 -252.5 88t-92.5 234q0 149 103 241t249 92q160 0 252 -87.5t92 -234.5zM554 305q0 135 -47 207t-122 72q-73 0 -118 -68t-45 -198q0 -134 47.5 -206.5t122.5 -72.5q72 0 117 67.5t45 198.5zM574 772q0 -31 -19.5 -53
t-52.5 -22q-32 0 -51 21.5t-19 53.5t19 54t51 22q33 0 52.5 -22t19.5 -54zM345 772q0 -32 -19 -53.5t-52 -21.5t-52.5 22t-19.5 53t19.5 53.5t52.5 22.5t52 -22t19 -54z" />
    <glyph glyph-name="multiply" unicode="&#xd7;" horiz-adv-x="480" 
d="M449 401l-166 -165l166 -166l-44 -43l-165 166l-165 -166l-44 43l166 166l-166 165l44 43l165 -165l165 165z" />
    <glyph glyph-name="Oslash" unicode="&#xd8;" horiz-adv-x="776" 
d="M736 317q0 -149 -102.5 -241t-248.5 -92q-80 0 -144 23l-47 -81h-56l58 100q-75 40 -115.5 112.5t-40.5 167.5q0 149 103 241t249 92q81 0 146 -24l42 73h56q-54 -92 -54 -93q74 -39 114 -111t40 -167zM491 534q-44 50 -106 50q-73 0 -118 -68t-45 -198q0 -114 36 -186z
M554 305q0 110 -34 183q-232 -400 -232 -401q42 -48 104 -48q72 0 117 67.5t45 198.5z" />
    <glyph glyph-name="Ugrave" unicode="&#xd9;" horiz-adv-x="707" 
d="M701 625l-3 -44l-47 -13q-11 -3 -17.5 -12t-13 -55.5t-6.5 -131.5v-154q0 -109 -69 -175t-186 -66q-121 0 -196 52t-75 148v384q0 16 -41 19l-24 4l-3 44h304l-3 -44l-31 -4q-34 -2 -34 -19v-337q0 -78 35.5 -125t105.5 -47q80 0 118.5 45t38.5 144v131q0 85 -5.5 131
t-11.5 56t-16 12l-59 13l-3 44h242zM433 687h-67l-185 177h155z" />
    <glyph glyph-name="Uacute" unicode="&#xda;" horiz-adv-x="707" 
d="M701 625l-3 -44l-47 -13q-11 -3 -17.5 -12t-13 -55.5t-6.5 -131.5v-154q0 -109 -69 -175t-186 -66q-121 0 -196 52t-75 148v384q0 16 -41 19l-24 4l-3 44h304l-3 -44l-31 -4q-34 -2 -34 -19v-337q0 -78 35.5 -125t105.5 -47q80 0 118.5 45t38.5 144v131q0 85 -5.5 131
t-11.5 56t-16 12l-59 13l-3 44h242zM586 864l-185 -177h-66l97 177h154z" />
    <glyph glyph-name="Ucircumflex" unicode="&#xdb;" horiz-adv-x="707" 
d="M701 625l-3 -44l-47 -13q-11 -3 -17.5 -12t-13 -55.5t-6.5 -131.5v-154q0 -109 -69 -175t-186 -66q-121 0 -196 52t-75 148v384q0 16 -41 19l-24 4l-3 44h304l-3 -44l-31 -4q-34 -2 -34 -19v-337q0 -78 35.5 -125t105.5 -47q80 0 118.5 45t38.5 144v131q0 85 -5.5 131
t-11.5 56t-16 12l-59 13l-3 44h242zM532 687h-47l-111 102h-2l-111 -102h-47l127 207h64z" />
    <glyph glyph-name="Udieresis" unicode="&#xdc;" horiz-adv-x="707" 
d="M701 625l-3 -44l-47 -13q-11 -3 -17.5 -12t-13 -55.5t-6.5 -131.5v-154q0 -109 -69 -175t-186 -66q-121 0 -196 52t-75 148v384q0 16 -41 19l-24 4l-3 44h304l-3 -44l-31 -4q-34 -2 -34 -19v-337q0 -78 35.5 -125t105.5 -47q80 0 118.5 45t38.5 144v131q0 85 -5.5 131
t-11.5 56t-16 12l-59 13l-3 44h242zM569 772q0 -31 -19.5 -53t-52.5 -22q-32 0 -51 21.5t-19 53.5t19 54t51 22q33 0 52.5 -22t19.5 -54zM340 772q0 -32 -19 -53.5t-52 -21.5t-52.5 22t-19.5 53t19.5 53.5t52.5 22.5t52 -22t19 -54z" />
    <glyph glyph-name="Yacute" unicode="&#xdd;" horiz-adv-x="610" 
d="M629 625l-3 -46l-25 -8q-24 -7 -45.5 -32t-68.5 -107l-99 -174v-192q0 -16 38 -18l38 -4l3 -44h-326l3 44l42 4q34 3 34 19v180l-162 283q-18 32 -44 41l-26 8l-3 46h312l-3 -46l-30 -6q-43 -10 5 -106l77 -155h10l66 120q40 71 40 102.5t-35 37.5l-32 7l-3 46h237z
M478 864l-185 -177h-66l97 177h154z" />
    <glyph glyph-name="Thorn" unicode="&#xde;" horiz-adv-x="642" 
d="M605 325q0 -91 -85 -147.5t-200 -56.5q-8 0 -53 3v-58q0 -16 38 -18l36 -4l3 -44h-313l3 44l31 4q34 3 34 19v492q0 16 -41 19l-24 4l-3 44l305 -1l-3 -44l-32 -4q-34 -2 -34 -19v-53h68q130 0 200 -48t70 -132zM422 310q0 69 -31.5 109.5t-92.5 40.5h-31v-287
q30 -4 50 -4q47 0 76 39.5t29 101.5z" />
    <glyph glyph-name="germandbls" unicode="&#xdf;" horiz-adv-x="637" 
d="M407 421q89 -39 144 -100t55 -131q0 -88 -54.5 -147t-134.5 -59q-70 0 -111.5 28.5t-41.5 75.5q0 33 20.5 54t52.5 21q45 0 60 -38t-2 -80q17 -10 31 -10q26 0 44.5 19.5t18.5 47.5q0 62 -41 113t-150 98v116q61 16 84 45.5t23 76.5q0 43 -21.5 67t-60.5 24
q-94 0 -94 -152v-490h-207l3 43l20 2q34 3 34 19v309l-78 9l6 66h67l2 24q9 99 75.5 162t175.5 63q101 0 159 -41t58 -112q0 -50 -35.5 -78t-101.5 -45z" />
    <glyph glyph-name="agrave" unicode="&#xe0;" horiz-adv-x="531" 
d="M531 72q-25 -36 -63.5 -63t-72.5 -27q-35 0 -62.5 23t-29.5 70h-5q-35 -45 -66.5 -67.5t-71.5 -22.5q-54 0 -90 31t-36 87q0 60 64 102t203 79v7q2 48 -25 79t-76 31q-16 0 -31.5 -3t-24 -6.5t-8.5 -5.5q0 -1 7 -8.5t14 -21.5t7 -30q0 -20 -19 -38t-46 -18
q-30 0 -49.5 15.5t-19.5 40.5q0 52 78.5 99t174.5 47q177 0 169 -189l-7 -160q-1 -28 4 -37.5t22 -9.5q14 0 45 26zM296 119l3 125q-73 -22 -100 -47t-27 -58q0 -27 18 -40.5t45 -13.5q18 0 35.5 11t25.5 23zM284 520h-67l-185 177h155z" />
    <glyph glyph-name="aacute" unicode="&#xe1;" horiz-adv-x="531" 
d="M531 72q-25 -36 -63.5 -63t-72.5 -27q-35 0 -62.5 23t-29.5 70h-5q-35 -45 -66.5 -67.5t-71.5 -22.5q-54 0 -90 31t-36 87q0 60 64 102t203 79v7q2 48 -25 79t-76 31q-16 0 -31.5 -3t-24 -6.5t-8.5 -5.5q0 -1 7 -8.5t14 -21.5t7 -30q0 -20 -19 -38t-46 -18
q-30 0 -49.5 15.5t-19.5 40.5q0 52 78.5 99t174.5 47q177 0 169 -189l-7 -160q-1 -28 4 -37.5t22 -9.5q14 0 45 26zM296 119l3 125q-73 -22 -100 -47t-27 -58q0 -27 18 -40.5t45 -13.5q18 0 35.5 11t25.5 23zM436 697l-185 -177h-66l97 177h154z" />
    <glyph glyph-name="acircumflex" unicode="&#xe2;" horiz-adv-x="531" 
d="M531 72q-25 -36 -63.5 -63t-72.5 -27q-35 0 -62.5 23t-29.5 70h-5q-35 -45 -66.5 -67.5t-71.5 -22.5q-54 0 -90 31t-36 87q0 60 64 102t203 79v7q2 48 -25 79t-76 31q-16 0 -31.5 -3t-24 -6.5t-8.5 -5.5q0 -1 7 -8.5t14 -21.5t7 -30q0 -20 -19 -38t-46 -18
q-30 0 -49.5 15.5t-19.5 40.5q0 52 78.5 99t174.5 47q177 0 169 -189l-7 -160q-1 -28 4 -37.5t22 -9.5q14 0 45 26zM296 119l3 125q-73 -22 -100 -47t-27 -58q0 -27 18 -40.5t45 -13.5q18 0 35.5 11t25.5 23zM414 520h-47l-111 102h-2l-111 -102h-47l127 207h64z" />
    <glyph glyph-name="atilde" unicode="&#xe3;" horiz-adv-x="531" 
d="M531 72q-25 -36 -63.5 -63t-72.5 -27q-35 0 -62.5 23t-29.5 70h-5q-35 -45 -66.5 -67.5t-71.5 -22.5q-54 0 -90 31t-36 87q0 60 64 102t203 79v7q2 48 -25 79t-76 31q-16 0 -31.5 -3t-24 -6.5t-8.5 -5.5q0 -1 7 -8.5t14 -21.5t7 -30q0 -20 -19 -38t-46 -18
q-30 0 -49.5 15.5t-19.5 40.5q0 52 78.5 99t174.5 47q177 0 169 -189l-7 -160q-1 -28 4 -37.5t22 -9.5q14 0 45 26zM296 119l3 125q-73 -22 -100 -47t-27 -58q0 -27 18 -40.5t45 -13.5q18 0 35.5 11t25.5 23zM439 673q-7 -80 -34.5 -113.5t-75.5 -33.5q-30 0 -86.5 34
t-72.5 34q-11 0 -17.5 -6.5t-10 -16.5t-8.5 -28q-1 -5 -2 -8h-61q8 81 35 114t75 33q30 0 84.5 -33.5t70.5 -33.5q17 0 27 14t19 44h57z" />
    <glyph glyph-name="adieresis" unicode="&#xe4;" horiz-adv-x="531" 
d="M531 72q-25 -36 -63.5 -63t-72.5 -27q-35 0 -62.5 23t-29.5 70h-5q-35 -45 -66.5 -67.5t-71.5 -22.5q-54 0 -90 31t-36 87q0 60 64 102t203 79v7q2 48 -25 79t-76 31q-16 0 -31.5 -3t-24 -6.5t-8.5 -5.5q0 -1 7 -8.5t14 -21.5t7 -30q0 -20 -19 -38t-46 -18
q-30 0 -49.5 15.5t-19.5 40.5q0 52 78.5 99t174.5 47q177 0 169 -189l-7 -160q-1 -28 4 -37.5t22 -9.5q14 0 45 26zM296 119l3 125q-73 -22 -100 -47t-27 -58q0 -27 18 -40.5t45 -13.5q18 0 35.5 11t25.5 23zM440 605q0 -31 -19.5 -53t-52.5 -22q-32 0 -51 21.5t-19 53.5
t19 54t51 22q33 0 52.5 -22t19.5 -54zM211 605q0 -32 -19 -53.5t-52 -21.5t-52.5 22t-19.5 53t19.5 53.5t52.5 22.5t52 -22t19 -54z" />
    <glyph glyph-name="aring" unicode="&#xe5;" horiz-adv-x="526" 
d="M356 619q0 -46 -29.5 -77.5t-78.5 -31.5t-78.5 31.5t-29.5 77.5t29.5 77.5t78.5 31.5t78.5 -31.5t29.5 -77.5zM531 72q-25 -36 -63.5 -63t-72.5 -27q-35 0 -62.5 23t-29.5 70h-5q-35 -45 -66.5 -67.5t-71.5 -22.5q-54 0 -90 31t-36 87q0 60 64 102t203 79v7q2 48 -25 79
t-76 31q-16 0 -31.5 -3t-24 -6.5t-8.5 -5.5q0 -1 7 -8.5t14 -21.5t7 -30q0 -20 -19 -38t-46 -18q-30 0 -49.5 15.5t-19.5 40.5q0 52 78.5 99t174.5 47q177 0 169 -189l-7 -160q-1 -28 4 -37.5t22 -9.5q14 0 45 26zM317 619q0 29 -19 50.5t-50 21.5t-50 -21.5t-19 -50.5
t19 -50.5t50 -21.5t50 21.5t19 50.5zM296 119l3 125q-73 -22 -100 -47t-27 -58q0 -27 18 -40.5t45 -13.5q18 0 35.5 11t25.5 23z" />
    <glyph glyph-name="ae" unicode="&#xe6;" horiz-adv-x="764" 
d="M323 93q-30 -51 -74.5 -79.5t-88.5 -28.5q-54 0 -90 31t-36 87q0 60 64 102t203 79v7q2 48 -25 79t-76 31q-16 0 -31.5 -3t-24 -6.5t-8.5 -5.5q0 -1 7 -8.5t14 -21.5t7 -30q0 -20 -19 -38t-46 -18q-30 0 -49.5 15.5t-19.5 40.5q0 53 77.5 99.5t176.5 46.5q84 0 125 -38
q62 39 141 39q77 0 129 -42.5t52 -117.5q0 -29 -6 -56l-271 4v-11q2 -79 35 -123t91 -44q73 0 129 73l24 -13q-22 -76 -78 -117t-141 -41q-62 0 -112.5 28.5t-78.5 79.5zM588 300q3 58 -11.5 90.5t-41.5 32.5q-36 0 -57.5 -32t-24.5 -95zM296 243q-124 -34 -124 -104
q0 -27 18 -40.5t45 -13.5q38 0 74 38q-15 41 -15 90q0 16 2 30z" />
    <glyph glyph-name="ccedilla" unicode="&#xe7;" horiz-adv-x="496" 
d="M242 -15q-89 5 -148.5 66.5t-59.5 161.5q0 112 73.5 186t189.5 74q79 0 123.5 -29t44.5 -79q0 -34 -20 -51.5t-53 -17.5q-40 0 -60 37.5t-10 80.5v1q-10 6 -27 6q-43 0 -71 -40.5t-28 -119.5q0 -81 33.5 -129.5t91.5 -48.5q73 0 129 73l24 -13q-38 -134 -173 -155
l-41 -40q66 -4 104 -29.5t38 -68.5q0 -57 -64.5 -91.5t-168.5 -38.5l-11 30q76 8 117 28t41 49q0 50 -84 50q-43 0 -76 -8v28z" />
    <glyph glyph-name="egrave" unicode="&#xe8;" horiz-adv-x="504" 
d="M473 143q-22 -76 -78 -117t-141 -41q-94 0 -157 62t-63 166q0 110 72 185t184 75q77 0 129 -42.5t52 -117.5q0 -29 -6 -56l-271 4v-11q2 -79 35 -123t91 -44q73 0 129 73zM328 300q3 58 -11.5 90.5t-41.5 32.5q-36 0 -57.5 -32t-24.5 -95zM332 520h-67l-185 177h155z" />
    <glyph glyph-name="eacute" unicode="&#xe9;" horiz-adv-x="504" 
d="M473 143q-22 -76 -78 -117t-141 -41q-94 0 -157 62t-63 166q0 110 72 185t184 75q77 0 129 -42.5t52 -117.5q0 -29 -6 -56l-271 4v-11q2 -79 35 -123t91 -44q73 0 129 73zM328 300q3 58 -11.5 90.5t-41.5 32.5q-36 0 -57.5 -32t-24.5 -95zM445 697l-185 -177h-66l97 177
h154z" />
    <glyph glyph-name="ecircumflex" unicode="&#xea;" horiz-adv-x="504" 
d="M473 143q-22 -76 -78 -117t-141 -41q-94 0 -157 62t-63 166q0 110 72 185t184 75q77 0 129 -42.5t52 -117.5q0 -29 -6 -56l-271 4v-11q2 -79 35 -123t91 -44q73 0 129 73zM328 300q3 58 -11.5 90.5t-41.5 32.5q-36 0 -57.5 -32t-24.5 -95zM411 520h-47l-111 102h-2
l-111 -102h-47l127 207h64z" />
    <glyph glyph-name="edieresis" unicode="&#xeb;" horiz-adv-x="504" 
d="M473 143q-22 -76 -78 -117t-141 -41q-94 0 -157 62t-63 166q0 110 72 185t184 75q77 0 129 -42.5t52 -117.5q0 -29 -6 -56l-271 4v-11q2 -79 35 -123t91 -44q73 0 129 73zM328 300q3 58 -11.5 90.5t-41.5 32.5q-36 0 -57.5 -32t-24.5 -95zM438 605q0 -31 -19.5 -53
t-52.5 -22q-32 0 -51 21.5t-19 53.5t19 54t51 22q33 0 52.5 -22t19.5 -54zM209 605q0 -32 -19 -53.5t-52 -21.5t-52.5 22t-19.5 53t19.5 53.5t52.5 22.5t52 -22t19 -54z" />
    <glyph glyph-name="igrave" unicode="&#xec;" horiz-adv-x="320" 
d="M292 0h-262l3 43l18 2q34 3 34 19v228q0 46 -8 60t-35 22l-15 5l1 35l209 59v-410q0 -8 7.5 -12t30.5 -6l14 -2zM240 520h-67l-185 177h155z" />
    <glyph glyph-name="iacute" unicode="&#xed;" horiz-adv-x="320" 
d="M292 0h-262l3 43l18 2q34 3 34 19v228q0 46 -8 60t-35 22l-15 5l1 35l209 59v-410q0 -8 7.5 -12t30.5 -6l14 -2zM333 697l-185 -177h-66l97 177h154z" />
    <glyph glyph-name="icircumflex" unicode="&#xee;" horiz-adv-x="320" 
d="M292 0h-262l3 43l18 2q34 3 34 19v228q0 46 -8 60t-35 22l-15 5l1 35l209 59v-410q0 -8 7.5 -12t30.5 -6l14 -2zM319 520h-47l-111 102h-2l-111 -102h-47l127 207h64z" />
    <glyph glyph-name="idieresis" unicode="&#xef;" horiz-adv-x="320" 
d="M292 0h-262l3 43l18 2q34 3 34 19v228q0 46 -8 60t-35 22l-15 5l1 35l209 59v-410q0 -8 7.5 -12t30.5 -6l14 -2zM346 605q0 -31 -19.5 -53t-52.5 -22q-32 0 -51 21.5t-19 53.5t19 54t51 22q33 0 52.5 -22t19.5 -54zM117 605q0 -32 -19 -53.5t-52 -21.5t-52.5 22t-19.5 53
t19.5 53.5t52.5 22.5t52 -22t19 -54z" />
    <glyph glyph-name="eth" unicode="&#xf0;" horiz-adv-x="565" 
d="M268 551l-137 -46v53l89 30q-42 26 -92 40l19 42q89 -16 159 -54l116 39v-53l-60 -20q160 -114 160 -314q0 -126 -72 -205t-170 -79q-113 0 -178.5 69.5t-65.5 171.5q0 104 61.5 175t155.5 71q55 0 92 -36q-27 69 -77 116zM199 250q0 -145 49 -194q17 -17 42 -17
q37 0 56 46.5t19 120.5q0 145 -45 190q-21 21 -46 21q-37 0 -56 -46.5t-19 -120.5z" />
    <glyph glyph-name="ntilde" unicode="&#xf1;" horiz-adv-x="599" 
d="M590 0h-262l3 43l13 2q34 2 34 19v184q0 70 -19.5 94t-62.5 24q-17 0 -37 -6.5t-28 -13.5v-283q0 -8 7.5 -12t30.5 -6l19 -2l3 -43h-269l3 43l20 2q34 3 34 19v228q0 46 -8 60t-35 22l-15 5l1 35l209 59v-77h5q99 77 168 77q49 0 88 -39q38 -38 38 -118v-252q0 -7 8 -11
t33 -8l16 -2zM483 673q-7 -80 -34.5 -113.5t-75.5 -33.5q-30 0 -86.5 34t-72.5 34q-11 0 -17.5 -6.5t-10 -16.5t-8.5 -28q-1 -5 -2 -8h-61q8 81 35 114t75 33q30 0 84.5 -33.5t70.5 -33.5q17 0 27 14t19 44h57z" />
    <glyph glyph-name="ograve" unicode="&#xf2;" horiz-adv-x="580" 
d="M544 232q0 -105 -75 -176t-190 -71q-113 0 -178 69t-65 170q0 105 76 177t190 72q112 0 177 -69.5t65 -171.5zM376 209q0 149 -41 190q-19 22 -47 22q-39 0 -61.5 -47t-22.5 -127t7.5 -125.5t30.5 -68.5q18 -18 49 -18q39 0 62 48.5t23 125.5zM332 520h-67l-185 177h155z
" />
    <glyph glyph-name="oacute" unicode="&#xf3;" horiz-adv-x="580" 
d="M544 232q0 -105 -75 -176t-190 -71q-113 0 -178 69t-65 170q0 105 76 177t190 72q112 0 177 -69.5t65 -171.5zM376 209q0 149 -41 190q-19 22 -47 22q-39 0 -61.5 -47t-22.5 -127t7.5 -125.5t30.5 -68.5q18 -18 49 -18q39 0 62 48.5t23 125.5zM480 697l-185 -177h-66
l97 177h154z" />
    <glyph glyph-name="ocircumflex" unicode="&#xf4;" horiz-adv-x="580" 
d="M544 232q0 -105 -75 -176t-190 -71q-113 0 -178 69t-65 170q0 105 76 177t190 72q112 0 177 -69.5t65 -171.5zM376 209q0 149 -41 190q-19 22 -47 22q-39 0 -61.5 -47t-22.5 -127t7.5 -125.5t30.5 -68.5q18 -18 49 -18q39 0 62 48.5t23 125.5zM446 520h-47l-111 102h-2
l-111 -102h-47l127 207h64z" />
    <glyph glyph-name="otilde" unicode="&#xf5;" horiz-adv-x="580" 
d="M544 232q0 -105 -75 -176t-190 -71q-113 0 -178 69t-65 170q0 105 76 177t190 72q112 0 177 -69.5t65 -171.5zM376 209q0 149 -41 190q-19 22 -47 22q-39 0 -61.5 -47t-22.5 -127t7.5 -125.5t30.5 -68.5q18 -18 49 -18q39 0 62 48.5t23 125.5zM471 673
q-7 -80 -34.5 -113.5t-75.5 -33.5q-30 0 -86.5 34t-72.5 34q-11 0 -17.5 -6.5t-10 -16.5t-8.5 -28q-1 -5 -2 -8h-61q8 81 35 114t75 33q30 0 84.5 -33.5t70.5 -33.5q17 0 27 14t19 44h57z" />
    <glyph glyph-name="odieresis" unicode="&#xf6;" horiz-adv-x="580" 
d="M544 232q0 -105 -75 -176t-190 -71q-113 0 -178 69t-65 170q0 105 76 177t190 72q112 0 177 -69.5t65 -171.5zM376 209q0 149 -41 190q-19 22 -47 22q-39 0 -61.5 -47t-22.5 -127t7.5 -125.5t30.5 -68.5q18 -18 49 -18q39 0 62 48.5t23 125.5zM473 605q0 -31 -19.5 -53
t-52.5 -22q-32 0 -51 21.5t-19 53.5t19 54t51 22q33 0 52.5 -22t19.5 -54zM244 605q0 -32 -19 -53.5t-52 -21.5t-52.5 22t-19.5 53t19.5 53.5t52.5 22.5t52 -22t19 -54z" />
    <glyph glyph-name="divide" unicode="&#xf7;" horiz-adv-x="480" 
d="M294 374q0 -22 -15.5 -38t-38.5 -16t-38 16t-15 38t15 38t38 16t38.5 -16t15.5 -38zM442 205h-404l3 61h398zM294 97q0 -22 -15.5 -38t-38.5 -16t-38 16t-15 38t15 38t38 16t38.5 -16t15.5 -38z" />
    <glyph glyph-name="oslash" unicode="&#xf8;" horiz-adv-x="574" 
d="M512 573q-80 -139 -81 -139q50 -32 78.5 -86t28.5 -116q0 -105 -70 -176.5t-183 -71.5q-56 0 -103 19l-76 -132l-40 24l75 130q-49 33 -77 86t-28 114q0 105 71 176.5t184 71.5q55 0 99 -18l82 142zM347 381q-20 36 -68 36q-41 0 -63 -45t-22 -122q0 -64 11 -114z
M380 206q0 68 -12 118l-142 -246q21 -39 69 -39q41 0 63 45t22 122z" />
    <glyph glyph-name="ugrave" unicode="&#xf9;" horiz-adv-x="590" 
d="M578 40l-3 -33l-207 -22v77h-5q-99 -77 -168 -77q-49 0 -88 39q-38 38 -38 118v252q0 7 -8 11t-33 8l-16 2l-3 43h215l-3 -248q-1 -70 19 -94t63 -24q17 0 37 6.5t28 13.5v283q0 8 -7.5 12t-30.5 6l-19 2l-4 43h213v-358q0 -42 23 -49zM345 520h-67l-185 177h155z" />
    <glyph glyph-name="uacute" unicode="&#xfa;" horiz-adv-x="590" 
d="M578 40l-3 -33l-207 -22v77h-5q-99 -77 -168 -77q-49 0 -88 39q-38 38 -38 118v252q0 7 -8 11t-33 8l-16 2l-3 43h215l-3 -248q-1 -70 19 -94t63 -24q17 0 37 6.5t28 13.5v283q0 8 -7.5 12t-30.5 6l-19 2l-4 43h213v-358q0 -42 23 -49zM468 697l-185 -177h-66l97 177h154
z" />
    <glyph glyph-name="ucircumflex" unicode="&#xfb;" horiz-adv-x="590" 
d="M578 40l-3 -33l-207 -22v77h-5q-99 -77 -168 -77q-49 0 -88 39q-38 38 -38 118v252q0 7 -8 11t-33 8l-16 2l-3 43h215l-3 -248q-1 -70 19 -94t63 -24q17 0 37 6.5t28 13.5v283q0 8 -7.5 12t-30.5 6l-19 2l-4 43h213v-358q0 -42 23 -49zM439 520h-47l-111 102h-2
l-111 -102h-47l127 207h64z" />
    <glyph glyph-name="udieresis" unicode="&#xfc;" horiz-adv-x="590" 
d="M578 40l-3 -33l-207 -22v77h-5q-99 -77 -168 -77q-49 0 -88 39q-38 38 -38 118v252q0 7 -8 11t-33 8l-16 2l-3 43h215l-3 -248q-1 -70 19 -94t63 -24q17 0 37 6.5t28 13.5v283q0 8 -7.5 12t-30.5 6l-19 2l-4 43h213v-358q0 -42 23 -49zM241 605q0 -32 -19 -53.5
t-52 -21.5t-52.5 22t-19.5 53t19.5 53.5t52.5 22.5t52 -22t19 -54zM470 605q0 -31 -19.5 -53t-52.5 -22q-32 0 -51 21.5t-19 53.5t19 54t51 22q33 0 52.5 -22t19.5 -54z" />
    <glyph glyph-name="yacute" unicode="&#xfd;" horiz-adv-x="507" 
d="M527 458l-3 -43l-33 -5q-26 -4 -42 -46l-123 -319l-64 -183q-43 -124 -135 -124q-34 0 -59.5 20t-25.5 50q0 27 17 46.5t46 19.5q25 0 43.5 -15.5t25.5 -35.5q26 9 47 79l11 37v10l-178 422q-8 21 -38 33l-26 11l-3 43h276l-3 -43l-35 -12q-22 -7 -10 -40l91 -236l81 231
q13 35 -12 44l-39 13l-3 43h194zM426 697l-185 -177h-66l97 177h154z" />
    <glyph glyph-name="thorn" unicode="&#xfe;" horiz-adv-x="588" 
d="M554 250q0 -111 -72 -188t-184 -77q-42 0 -74 12h-3v-180q0 -7 12 -12t26 -6l29 -2l3 -43h-287l3 43l28 2q34 3 34 19v713q0 31 -23 45l-35 20l3 33l207 68v-306h5q63 77 141 77t132.5 -63t54.5 -155zM391 201q0 75 -32 120t-82 45q-35 0 -56 -14v-257q51 -61 91 -61
q34 0 56.5 44t22.5 123z" />
    <glyph glyph-name="ydieresis" unicode="&#xff;" horiz-adv-x="507" 
d="M527 458l-3 -43l-33 -5q-26 -4 -42 -46l-123 -319l-64 -183q-43 -124 -135 -124q-34 0 -59.5 20t-25.5 50q0 27 17 46.5t46 19.5q25 0 43.5 -15.5t25.5 -35.5q26 9 47 79l11 37v10l-178 422q-8 21 -38 33l-26 11l-3 43h276l-3 -43l-35 -12q-22 -7 -10 -40l91 -236l81 231
q13 35 -12 44l-39 13l-3 43h194zM449 605q0 -31 -19.5 -53t-52.5 -22q-32 0 -51 21.5t-19 53.5t19 54t51 22q33 0 52.5 -22t19.5 -54zM220 605q0 -32 -19 -53.5t-52 -21.5t-52.5 22t-19.5 53t19.5 53.5t52.5 22.5t52 -22t19 -54z" />
    <glyph glyph-name="Amacron" unicode="&#x100;" horiz-adv-x="662" 
d="M680 0h-337l3 46l28 4q34 4 37 26t-19 82l-12 34h-203l-2 -6q-38 -124 24 -135l27 -5l3 -46h-252l3 46l21 6q28 8 40.5 17t33 47.5t51.5 121.5l118 322v47l155 32l190 -535q14 -39 64 -51l24 -7zM363 247l-77 236h-11l-81 -236h169zM520 718h-338l9 74h320z" />
    <glyph glyph-name="amacron" unicode="&#x101;" horiz-adv-x="531" 
d="M531 72q-25 -36 -63.5 -63t-72.5 -27q-35 0 -62.5 23t-29.5 70h-5q-35 -45 -66.5 -67.5t-71.5 -22.5q-54 0 -90 31t-36 87q0 60 64 102t203 79v7q2 48 -25 79t-76 31q-16 0 -31.5 -3t-24 -6.5t-8.5 -5.5q0 -1 7 -8.5t14 -21.5t7 -30q0 -20 -19 -38t-46 -18
q-30 0 -49.5 15.5t-19.5 40.5q0 52 78.5 99t174.5 47q177 0 169 -189l-7 -160q-1 -28 4 -37.5t22 -9.5q14 0 45 26zM296 119l3 125q-73 -22 -100 -47t-27 -58q0 -27 18 -40.5t45 -13.5q18 0 35.5 11t25.5 23zM423 551h-338l9 74h320z" />
    <glyph glyph-name="Abreve" unicode="&#x102;" horiz-adv-x="662" 
d="M680 0h-337l3 46l28 4q34 4 37 26t-19 82l-12 34h-203l-2 -6q-38 -124 24 -135l27 -5l3 -46h-252l3 46l21 6q28 8 40.5 17t33 47.5t51.5 121.5l118 322v47l155 32l190 -535q14 -39 64 -51l24 -7zM502 864q-22 -182 -164 -182q-68 0 -110.5 45.5t-53.5 136.5h66
q31 -102 98 -102t100 102h64zM363 247l-77 236h-11l-81 -236h169z" />
    <glyph glyph-name="abreve" unicode="&#x103;" horiz-adv-x="531" 
d="M531 72q-25 -36 -63.5 -63t-72.5 -27q-35 0 -62.5 23t-29.5 70h-5q-35 -45 -66.5 -67.5t-71.5 -22.5q-54 0 -90 31t-36 87q0 60 64 102t203 79v7q2 48 -25 79t-76 31q-16 0 -31.5 -3t-24 -6.5t-8.5 -5.5q0 -1 7 -8.5t14 -21.5t7 -30q0 -20 -19 -38t-46 -18
q-30 0 -49.5 15.5t-19.5 40.5q0 52 78.5 99t174.5 47q177 0 169 -189l-7 -160q-1 -28 4 -37.5t22 -9.5q14 0 45 26zM416 697q-22 -182 -164 -182q-68 0 -110.5 45.5t-53.5 136.5h66q31 -102 98 -102t100 102h64zM296 119l3 125q-73 -22 -100 -47t-27 -58q0 -27 18 -40.5
t45 -13.5q18 0 35.5 11t25.5 23z" />
    <glyph glyph-name="Aogonek" unicode="&#x104;" horiz-adv-x="662" 
d="M566 -225q-51 0 -80 22.5t-29 67.5q0 47 40 83.5t95 51.5h-249l3 46l28 4q34 4 37 26t-19 82l-12 34h-203l-2 -6q-38 -124 24 -135l27 -5l3 -46h-252l3 46l21 6q28 8 40.5 17t33 47.5t51.5 121.5l118 322v47l155 32l190 -535q14 -39 64 -51l24 -7l4 -46q-50 -8 -84 -34.5
t-34 -64.5q0 -22 16.5 -37.5t38.5 -15.5q31 0 53 22l10 -12q-4 -34 -35.5 -58.5t-79.5 -24.5zM363 247l-77 236h-11l-81 -236h169z" />
    <glyph glyph-name="aogonek" unicode="&#x105;" horiz-adv-x="531" 
d="M391 -225q-111 0 -111 89q0 38 31 72t69 51q-31 1 -53.5 23.5t-23.5 64.5h-5q-35 -45 -66.5 -67.5t-71.5 -22.5q-54 0 -90 31t-36 87q0 60 64 102t203 79v7q2 48 -25 79t-76 31q-16 0 -31.5 -3t-24 -6.5t-8.5 -5.5q0 -1 7 -8.5t14 -21.5t7 -30q0 -20 -19 -38t-46 -18
q-30 0 -49.5 15.5t-19.5 40.5q0 52 78.5 99t174.5 47q177 0 169 -189l-7 -160q-1 -28 4 -37.5t22 -9.5q14 0 45 26l15 -30q-31 -46 -83 -80q-61 -41 -61 -91q0 -24 16.5 -38.5t39.5 -14.5q31 0 53 22l10 -12q-4 -34 -35.5 -58.5t-79.5 -24.5zM296 119l3 125
q-73 -22 -100 -47t-27 -58q0 -27 18 -40.5t45 -13.5q18 0 35.5 11t25.5 23z" />
    <glyph glyph-name="Cacute" unicode="&#x106;" horiz-adv-x="737" 
d="M672 218l-17 -218l-81 16q-91 -32 -177 -32q-164 0 -260.5 81.5t-96.5 235.5q0 150 101 244t259 94q94 0 163 -28l104 28v-239h-92l-55 162q-48 22 -100 22q-98 0 -147.5 -71t-49.5 -195q0 -131 50 -205.5t141 -74.5q55 0 99 19l60 161h99zM591 864l-185 -177h-66l97 177
h154z" />
    <glyph glyph-name="cacute" unicode="&#x107;" horiz-adv-x="496" 
d="M474 143q-22 -76 -78 -117t-141 -41q-94 0 -157.5 62t-63.5 166q0 112 73.5 186t189.5 74q79 0 123.5 -29t44.5 -79q0 -34 -20 -51.5t-53 -17.5q-40 0 -60 37.5t-10 80.5v1q-10 6 -27 6q-43 0 -71 -40.5t-28 -119.5q0 -81 33.5 -129.5t91.5 -48.5q73 0 129 73zM438 697
l-185 -177h-66l97 177h154z" />
    <glyph glyph-name="Ccircumflex" unicode="&#x108;" horiz-adv-x="737" 
d="M672 218l-17 -218l-81 16q-91 -32 -177 -32q-164 0 -260.5 81.5t-96.5 235.5q0 150 101 244t259 94q94 0 163 -28l104 28v-239h-92l-55 162q-48 22 -100 22q-98 0 -147.5 -71t-49.5 -195q0 -131 50 -205.5t141 -74.5q55 0 99 19l60 161h99zM567 687h-47l-111 102h-2
l-111 -102h-47l127 207h64z" />
    <glyph glyph-name="ccircumflex" unicode="&#x109;" horiz-adv-x="496" 
d="M474 143q-22 -76 -78 -117t-141 -41q-94 0 -157.5 62t-63.5 166q0 112 73.5 186t189.5 74q79 0 123.5 -29t44.5 -79q0 -34 -20 -51.5t-53 -17.5q-40 0 -60 37.5t-10 80.5v1q-10 6 -27 6q-43 0 -71 -40.5t-28 -119.5q0 -81 33.5 -129.5t91.5 -48.5q73 0 129 73zM437 520
h-47l-111 102h-2l-111 -102h-47l127 207h64z" />
    <glyph glyph-name="Cdotaccent" unicode="&#x10a;" horiz-adv-x="737" 
d="M672 218l-17 -218l-81 16q-91 -32 -177 -32q-164 0 -260.5 81.5t-96.5 235.5q0 150 101 244t259 94q94 0 163 -28l104 28v-239h-92l-55 162q-48 22 -100 22q-98 0 -147.5 -71t-49.5 -195q0 -131 50 -205.5t141 -74.5q55 0 99 19l60 161h99zM493 782q0 -33 -20.5 -56
t-55.5 -23q-34 0 -54 23t-20 56t20 56.5t54 23.5q35 0 55.5 -23.5t20.5 -56.5z" />
    <glyph glyph-name="cdotaccent" unicode="&#x10b;" horiz-adv-x="496" 
d="M474 143q-22 -76 -78 -117t-141 -41q-94 0 -157.5 62t-63.5 166q0 112 73.5 186t189.5 74q79 0 123.5 -29t44.5 -79q0 -34 -20 -51.5t-53 -17.5q-40 0 -60 37.5t-10 80.5v1q-10 6 -27 6q-43 0 -71 -40.5t-28 -119.5q0 -81 33.5 -129.5t91.5 -48.5q73 0 129 73zM354 615
q0 -33 -20.5 -56t-55.5 -23q-34 0 -54 23t-20 56t20 56.5t54 23.5q35 0 55.5 -23.5t20.5 -56.5z" />
    <glyph glyph-name="Ccaron" unicode="&#x10c;" horiz-adv-x="737" 
d="M672 218l-17 -218l-81 16q-91 -32 -177 -32q-164 0 -260.5 81.5t-96.5 235.5q0 150 101 244t259 94q94 0 163 -28l104 28v-239h-92l-55 162q-48 22 -100 22q-98 0 -147.5 -71t-49.5 -195q0 -131 50 -205.5t141 -74.5q55 0 99 19l60 161h99zM567 894l-127 -207h-64
l-127 207h47l111 -102h2l111 102h47z" />
    <glyph glyph-name="ccaron" unicode="&#x10d;" horiz-adv-x="496" 
d="M474 143q-22 -76 -78 -117t-141 -41q-94 0 -157.5 62t-63.5 166q0 112 73.5 186t189.5 74q79 0 123.5 -29t44.5 -79q0 -34 -20 -51.5t-53 -17.5q-40 0 -60 37.5t-10 80.5v1q-10 6 -27 6q-43 0 -71 -40.5t-28 -119.5q0 -81 33.5 -129.5t91.5 -48.5q73 0 129 73zM445 727
l-127 -207h-64l-127 207h47l111 -102h2l111 102h47z" />
    <glyph glyph-name="Dcaron" unicode="&#x10e;" horiz-adv-x="748" 
d="M707 327q0 -133 -103.5 -230t-273.5 -97h-299l3 44l31 4q34 3 34 19v491q0 16 -41 19l-24 4l-3 44l296 4q175 2 277.5 -82t102.5 -220zM523 304q0 128 -54.5 201.5t-166.5 73.5h-35v-522l71 -15q85 4 135 78t50 184zM523 894l-127 -207h-64l-127 207h47l111 -102h2
l111 102h47z" />
    <glyph glyph-name="dcaron" unicode="&#x10f;" horiz-adv-x="819" 
d="M577 40l-3 -33l-207 -22v74h-3q-26 -31 -66.5 -52t-78.5 -21q-84 0 -134 61.5t-50 155.5q0 113 72.5 189t195.5 76q30 0 63 -6h1v112q0 34 -21 45l-51 22l4 32l220 24v-597q0 -42 23 -49zM367 109v248q-51 61 -90 61q-34 0 -56.5 -44t-22.5 -123q0 -76 29 -124t74 -48
q29 0 66 30zM784 573q0 -121 -168 -224l-32 33q52 34 75.5 64t23.5 68q0 31 -25 54t-50 33.5t-25 11.5q0 31 24.5 57t62.5 26q50 0 82 -35.5t32 -87.5z" />
    <glyph glyph-name="Dcroat" unicode="&#x110;" horiz-adv-x="739" 
d="M99 288h-67l3 51h64v207q0 19 -23 24l-42 11l-3 44l296 4q175 2 277.5 -82t102.5 -220q0 -133 -103.5 -230t-273.5 -97h-299l3 44l42 11q23 5 23 24v209zM267 339h116l3 -51h-119v-223l71 -15q85 0 135 72t50 182q0 128 -54.5 199t-166.5 71h-35v-235z" />
    <glyph glyph-name="dcroat" unicode="&#x111;" horiz-adv-x="595" 
d="M577 40l-3 -33l-207 -22v74h-3q-26 -31 -66.5 -52t-78.5 -21q-84 0 -134 61.5t-50 155.5q0 113 72.5 189t195.5 76q30 0 63 -6h1v52h-130l4 54h126v6q0 34 -21 45l-51 22l4 32l220 24v-129h62l2 -54l-64 -1v-413q0 -42 23 -49zM367 109v248q-51 61 -90 61
q-34 0 -56.5 -44t-22.5 -123q0 -76 29 -124t74 -48q29 0 66 30z" />
    <glyph glyph-name="Emacron" unicode="&#x112;" horiz-adv-x="690" 
d="M642 212l-20 -212h-591l3 44l31 4q34 3 34 19v491q0 16 -41 19l-24 4l-3 44h595v-225h-88l-20 69q-19 71 -54.5 88.5t-139.5 17.5h-57v-236h23q69 0 84 42l25 69h65l-25 -268h-62l-12 63q-4 25 -20 34t-59 9h-19v-238h69q99 0 135 18.5t61 88.5l20 55h90zM514 718h-338
l9 74h320z" />
    <glyph glyph-name="emacron" unicode="&#x113;" horiz-adv-x="504" 
d="M473 143q-22 -76 -78 -117t-141 -41q-94 0 -157 62t-63 166q0 110 72 185t184 75q77 0 129 -42.5t52 -117.5q0 -29 -6 -56l-271 4v-11q2 -79 35 -123t91 -44q73 0 129 73zM328 300q3 58 -11.5 90.5t-41.5 32.5q-36 0 -57.5 -32t-24.5 -95zM440 551h-338l9 74h320z" />
    <glyph glyph-name="Ebreve" unicode="&#x114;" horiz-adv-x="690" 
d="M642 212l-20 -212h-591l3 44l31 4q34 3 34 19v491q0 16 -41 19l-24 4l-3 44h595v-225h-88l-20 69q-19 71 -54.5 88.5t-139.5 17.5h-57v-236h23q69 0 84 42l25 69h65l-25 -268h-62l-12 63q-4 25 -20 34t-59 9h-19v-238h69q99 0 135 18.5t61 88.5l20 55h90zM529 864
q-22 -182 -164 -182q-68 0 -110.5 45.5t-53.5 136.5h66q31 -102 98 -102t100 102h64z" />
    <glyph glyph-name="ebreve" unicode="&#x115;" horiz-adv-x="504" 
d="M473 143q-22 -76 -78 -117t-141 -41q-94 0 -157 62t-63 166q0 110 72 185t184 75q77 0 129 -42.5t52 -117.5q0 -29 -6 -56l-271 4v-11q2 -79 35 -123t91 -44q73 0 129 73zM328 300q3 58 -11.5 90.5t-41.5 32.5q-36 0 -57.5 -32t-24.5 -95zM434 697q-22 -182 -164 -182
q-68 0 -110.5 45.5t-53.5 136.5h66q31 -102 98 -102t100 102h64z" />
    <glyph glyph-name="Edotaccent" unicode="&#x116;" horiz-adv-x="690" 
d="M642 212l-20 -212h-591l3 44l31 4q34 3 34 19v491q0 16 -41 19l-24 4l-3 44h595v-225h-88l-20 69q-19 71 -54.5 88.5t-139.5 17.5h-57v-236h23q69 0 84 42l25 69h65l-25 -268h-62l-12 63q-4 25 -20 34t-59 9h-19v-238h69q99 0 135 18.5t61 88.5l20 55h90zM428 782
q0 -33 -20.5 -56t-55.5 -23q-34 0 -54 23t-20 56t20 56.5t54 23.5q35 0 55.5 -23.5t20.5 -56.5z" />
    <glyph glyph-name="edotaccent" unicode="&#x117;" horiz-adv-x="504" 
d="M473 143q-22 -76 -78 -117t-141 -41q-94 0 -157 62t-63 166q0 110 72 185t184 75q77 0 129 -42.5t52 -117.5q0 -29 -6 -56l-271 4v-11q2 -79 35 -123t91 -44q73 0 129 73zM328 300q3 58 -11.5 90.5t-41.5 32.5q-36 0 -57.5 -32t-24.5 -95zM355 615q0 -33 -20.5 -56
t-55.5 -23q-34 0 -54 23t-20 56t20 56.5t54 23.5q35 0 55.5 -23.5t20.5 -56.5z" />
    <glyph glyph-name="Eogonek" unicode="&#x118;" horiz-adv-x="690" 
d="M512 -225q-49 0 -78 25.5t-29 69.5q0 71 103 130h-477l3 44l31 4q34 3 34 19v491q0 16 -41 19l-24 4l-3 44h595v-225h-88l-20 69q-19 71 -54.5 88.5t-139.5 17.5h-57v-236h23q69 0 84 42l25 69h65l-25 -268h-62l-12 63q-4 25 -20 34t-59 9h-19v-238h69q99 0 135 18.5
t61 88.5l20 55h90l-20 -212h-55q-53 -45 -53 -94q0 -23 14.5 -40.5t35.5 -17.5q31 0 53 22l10 -12q-4 -34 -35.5 -58.5t-79.5 -24.5z" />
    <glyph glyph-name="eogonek" unicode="&#x119;" horiz-adv-x="504" 
d="M301 -225q-110 0 -110 89q0 38 27 70t65 52q-6 -1 -29 -1q-94 0 -157 62t-63 166q0 110 72 185t184 75q77 0 129 -42.5t52 -117.5q0 -29 -6 -56l-271 4v-11q2 -79 35 -123t91 -44q73 0 129 73l24 -13q-26 -89 -98 -133q-77 -47 -77 -109q0 -26 16 -39.5t39 -13.5
q31 0 53 22l10 -12q-4 -34 -35.5 -58.5t-79.5 -24.5zM328 300q3 58 -11.5 90.5t-41.5 32.5q-36 0 -57.5 -32t-24.5 -95z" />
    <glyph glyph-name="Ecaron" unicode="&#x11a;" horiz-adv-x="690" 
d="M642 212l-20 -212h-591l3 44l31 4q34 3 34 19v491q0 16 -41 19l-24 4l-3 44h595v-225h-88l-20 69q-19 71 -54.5 88.5t-139.5 17.5h-57v-236h23q69 0 84 42l25 69h65l-25 -268h-62l-12 63q-4 25 -20 34t-59 9h-19v-238h69q99 0 135 18.5t61 88.5l20 55h90zM506 894
l-127 -207h-64l-127 207h47l111 -102h2l111 102h47z" />
    <glyph glyph-name="ecaron" unicode="&#x11b;" horiz-adv-x="504" 
d="M473 143q-22 -76 -78 -117t-141 -41q-94 0 -157 62t-63 166q0 110 72 185t184 75q77 0 129 -42.5t52 -117.5q0 -29 -6 -56l-271 4v-11q2 -79 35 -123t91 -44q73 0 129 73zM328 300q3 58 -11.5 90.5t-41.5 32.5q-36 0 -57.5 -32t-24.5 -95zM422 727l-127 -207h-64
l-127 207h47l111 -102h2l111 102h47z" />
    <glyph glyph-name="Gcircumflex" unicode="&#x11c;" horiz-adv-x="750" 
d="M708 288l-3 -44l-31 -4q-34 -3 -34 -19v-134l62 -7l3 -33q-49 -25 -140 -44t-172 -19q-167 0 -260 87.5t-93 231.5q0 151 102 243.5t255 92.5q90 0 159 -28l95 28v-233h-100l-51 157q-39 21 -95 21q-84 0 -132.5 -73.5t-48.5 -189.5q0 -138 45 -210.5t131 -72.5
q48 0 77 19v165q0 16 -38 18l-32 4l-3 44h304zM543 687h-47l-111 102h-2l-111 -102h-47l127 207h64z" />
    <glyph glyph-name="gcircumflex" unicode="&#x11d;" horiz-adv-x="517" 
d="M521 349l-88 16v-4q8 -24 8 -40q0 -87 -56.5 -135.5t-161.5 -48.5q-23 0 -53 5q-5 -3 -10.5 -12.5t-5.5 -17.5q0 -23 14 -32.5t48 -9.5q19 0 65 1.5t67 1.5q65 0 108 -40t43 -105q0 -81 -81.5 -142t-211.5 -61q-91 0 -146 31t-55 85q0 40 24.5 64.5t74.5 41.5v5
q-72 29 -72 93q0 34 27.5 65t67.5 39v4q-98 40 -98 144q0 74 51.5 125t156.5 51q74 0 133 -31h155zM385 -126q0 42 -35 60q-13 7 -203 7q-23 -23 -23 -64q0 -40 35.5 -67t98.5 -27q52 0 89.5 27t37.5 64zM407 520h-47l-111 102h-2l-111 -102h-47l127 207h64zM298 299
q0 83 -30 113q-15 15 -32 15q-62 0 -62 -122q0 -82 27 -109q14 -14 32 -14q26 0 40 14q25 25 25 103z" />
    <glyph glyph-name="Gbreve" unicode="&#x11e;" horiz-adv-x="750" 
d="M708 288l-3 -44l-31 -4q-34 -3 -34 -19v-134l62 -7l3 -33q-49 -25 -140 -44t-172 -19q-167 0 -260 87.5t-93 231.5q0 151 102 243.5t255 92.5q90 0 159 -28l95 28v-233h-100l-51 157q-39 21 -95 21q-84 0 -132.5 -73.5t-48.5 -189.5q0 -138 45 -210.5t131 -72.5
q48 0 77 19v165q0 16 -38 18l-32 4l-3 44h304zM559 864q-22 -182 -164 -182q-68 0 -110.5 45.5t-53.5 136.5h66q31 -102 98 -102t100 102h64z" />
    <glyph glyph-name="gbreve" unicode="&#x11f;" horiz-adv-x="517" 
d="M521 349l-88 16v-4q8 -24 8 -40q0 -87 -56.5 -135.5t-161.5 -48.5q-23 0 -53 5q-5 -3 -10.5 -12.5t-5.5 -17.5q0 -23 14 -32.5t48 -9.5q19 0 65 1.5t67 1.5q65 0 108 -40t43 -105q0 -81 -81.5 -142t-211.5 -61q-91 0 -146 31t-55 85q0 40 24.5 64.5t74.5 41.5v5
q-72 29 -72 93q0 34 27.5 65t67.5 39v4q-98 40 -98 144q0 74 51.5 125t156.5 51q74 0 133 -31h155zM385 -126q0 42 -35 60q-13 7 -203 7q-23 -23 -23 -64q0 -40 35.5 -67t98.5 -27q52 0 89.5 27t37.5 64zM413 697q-22 -182 -164 -182q-68 0 -110.5 45.5t-53.5 136.5h66
q31 -102 98 -102t100 102h64zM298 299q0 83 -30 113q-15 15 -32 15q-62 0 -62 -122q0 -82 27 -109q14 -14 32 -14q26 0 40 14q25 25 25 103z" />
    <glyph glyph-name="Gdotaccent" unicode="&#x120;" horiz-adv-x="750" 
d="M708 288l-3 -44l-31 -4q-34 -3 -34 -19v-134l62 -7l3 -33q-49 -25 -140 -44t-172 -19q-167 0 -260 87.5t-93 231.5q0 151 102 243.5t255 92.5q90 0 159 -28l95 28v-233h-100l-51 157q-39 21 -95 21q-84 0 -132.5 -73.5t-48.5 -189.5q0 -138 45 -210.5t131 -72.5
q48 0 77 19v165q0 16 -38 18l-32 4l-3 44h304zM470 782q0 -33 -20.5 -56t-55.5 -23q-34 0 -54 23t-20 56t20 56.5t54 23.5q35 0 55.5 -23.5t20.5 -56.5z" />
    <glyph glyph-name="gdotaccent" unicode="&#x121;" horiz-adv-x="517" 
d="M521 349l-88 16v-4q8 -24 8 -40q0 -87 -56.5 -135.5t-161.5 -48.5q-23 0 -53 5q-5 -3 -10.5 -12.5t-5.5 -17.5q0 -23 14 -32.5t48 -9.5q19 0 65 1.5t67 1.5q65 0 108 -40t43 -105q0 -81 -81.5 -142t-211.5 -61q-91 0 -146 31t-55 85q0 40 24.5 64.5t74.5 41.5v5
q-72 29 -72 93q0 34 27.5 65t67.5 39v4q-98 40 -98 144q0 74 51.5 125t156.5 51q74 0 133 -31h155zM385 -126q0 42 -35 60q-13 7 -203 7q-23 -23 -23 -64q0 -40 35.5 -67t98.5 -27q52 0 89.5 27t37.5 64zM298 299q0 83 -30 113q-15 15 -32 15q-62 0 -62 -122q0 -82 27 -109
q14 -14 32 -14q26 0 40 14q25 25 25 103zM324 615q0 -33 -20.5 -56t-55.5 -23q-34 0 -54 23t-20 56t20 56.5t54 23.5q35 0 55.5 -23.5t20.5 -56.5z" />
    <glyph glyph-name="Gcommaaccent" unicode="&#x122;" horiz-adv-x="750" 
d="M708 288l-3 -44l-31 -4q-34 -3 -34 -19v-134l62 -7l3 -33q-49 -25 -140 -44t-172 -19q-167 0 -260 87.5t-93 231.5q0 151 102 243.5t255 92.5q90 0 159 -28l95 28v-233h-100l-51 157q-39 21 -95 21q-84 0 -132.5 -73.5t-48.5 -189.5q0 -138 45 -210.5t131 -72.5
q48 0 77 19v165q0 16 -38 18l-32 4l-3 44h304zM500 -148q0 -91 -138 -152l-22 28q38 16 56 35t18 48q0 24 -20 41t-39.5 24.5t-19.5 8.5q0 24 21 44.5t52 20.5q41 0 66.5 -28t25.5 -70z" />
    <glyph glyph-name="gcommaaccent" unicode="&#x123;" horiz-adv-x="517" 
d="M521 349l-88 16v-4q8 -24 8 -40q0 -87 -56.5 -135.5t-161.5 -48.5q-23 0 -53 5q-5 -3 -10.5 -12.5t-5.5 -17.5q0 -23 14 -32.5t48 -9.5q19 0 65 1.5t67 1.5q65 0 108 -40t43 -105q0 -81 -81.5 -142t-211.5 -61q-91 0 -146 31t-55 85q0 40 24.5 64.5t74.5 41.5v5
q-72 29 -72 93q0 34 27.5 65t67.5 39v4q-98 40 -98 144q0 74 51.5 125t156.5 51q74 0 133 -31h155zM385 -126q0 42 -35 60q-13 7 -203 7q-23 -23 -23 -64q0 -40 35.5 -67t98.5 -27q52 0 89.5 27t37.5 64zM298 299q0 83 -30 113q-15 15 -32 15q-62 0 -62 -122q0 -82 27 -109
q14 -14 32 -14q26 0 40 14q25 25 25 103zM175 615q0 91 138 152l22 -28q-38 -16 -56 -35t-18 -48q0 -24 19.5 -41t39.5 -24.5t20 -8.5q0 -24 -21 -44.5t-52 -20.5q-41 0 -66.5 28t-25.5 70z" />
    <glyph glyph-name="Hcircumflex" unicode="&#x124;" horiz-adv-x="773" 
d="M743 0h-305l3 44l31 2q34 2 34 21v224h-239v-225q0 -16 38 -18l28 -4l3 -44h-305l3 44l31 4q34 3 34 19v491q0 16 -41 19l-24 4l-3 44h305l-3 -44l-32 -4q-34 -2 -34 -19v-212h239v213q0 16 -38 18l-27 4l-3 44h305l-3 -44l-32 -4q-34 -3 -34 -19v-491q0 -16 41 -19
l25 -4zM545 687h-47l-111 102h-2l-111 -102h-47l127 207h64z" />
    <glyph glyph-name="hcircumflex" unicode="&#x125;" horiz-adv-x="595" 
d="M585 0h-262l3 43l13 2q34 2 34 19v184q0 70 -19.5 94t-62.5 24q-17 0 -37 -6.5t-28 -13.5v-283q0 -8 7.5 -12t30.5 -6l19 -2l3 -43h-269l3 43l20 2q34 3 34 19v467q0 30 -23 45l-37 20l3 33l209 68v-301h5q99 77 168 77q49 0 88 -39q38 -38 38 -118v-252q0 -7 8 -11
t33 -8l16 -2zM449 727h-47l-111 102h-2l-111 -102h-47l127 207h64z" />
    <glyph glyph-name="Hbar" unicode="&#x126;" horiz-adv-x="773" 
d="M743 0h-305l3 44l31 2q34 2 34 21v224h-239v-225q0 -16 38 -18l28 -4l3 -44h-305l3 44l31 4q34 3 34 19v368h-98l9 57h89v66q0 16 -41 19l-24 4l-3 44h305l-3 -44l-32 -4q-34 -2 -34 -19v-66h239v67q0 16 -38 18l-27 4l-3 44h305l-3 -44l-32 -4q-34 -3 -34 -19v-66h96
l9 -57h-105v-368q0 -16 41 -19l25 -4zM267 346h239v89h-239v-89z" />
    <glyph glyph-name="hbar" unicode="&#x127;" horiz-adv-x="595" 
d="M585 0h-262l3 43l13 2q34 2 34 19v184q0 70 -19.5 94t-62.5 24q-17 0 -37 -6.5t-28 -13.5v-283q0 -8 7.5 -12t30.5 -6l19 -2l3 -43h-269l3 43l20 2q34 3 34 19v440h-64l2 54h55q-7 10 -16 18l-37 20l3 33l209 68v-139h126l4 -54h-130v-108h5q99 77 168 77q49 0 88 -39
q38 -38 38 -118v-252q0 -7 8 -11t33 -8l16 -2z" />
    <glyph glyph-name="Imacron" unicode="&#x12a;" horiz-adv-x="386" 
d="M356 0h-326l3 44l42 4q34 3 34 19v491q0 16 -41 19l-35 4l-3 44h326l-3 -44l-42 -4q-34 -2 -34 -19v-492q0 -16 38 -18l38 -4zM362 718h-338l9 74h320z" />
    <glyph glyph-name="imacron" unicode="&#x12b;" horiz-adv-x="320" 
d="M292 0h-262l3 43l18 2q34 3 34 19v228q0 46 -8 60t-35 22l-15 5l1 35l209 59v-410q0 -8 7.5 -12t30.5 -6l14 -2zM329 551h-338l9 74h320z" />
    <glyph glyph-name="Ibreve" unicode="&#x12c;" horiz-adv-x="386" 
d="M356 0h-326l3 44l42 4q34 3 34 19v491q0 16 -41 19l-35 4l-3 44h326l-3 -44l-42 -4q-34 -2 -34 -19v-492q0 -16 38 -18l38 -4zM357 864q-22 -182 -164 -182q-68 0 -110.5 45.5t-53.5 136.5h66q31 -102 98 -102t100 102h64z" />
    <glyph glyph-name="ibreve" unicode="&#x12d;" horiz-adv-x="320" 
d="M292 0h-262l3 43l18 2q34 3 34 19v228q0 46 -8 60t-35 22l-15 5l1 35l209 59v-410q0 -8 7.5 -12t30.5 -6l14 -2zM324 697q-22 -182 -164 -182q-68 0 -110.5 45.5t-53.5 136.5h66q31 -102 98 -102t100 102h64z" />
    <glyph glyph-name="Iogonek" unicode="&#x12e;" horiz-adv-x="386" 
d="M239 -225q-51 0 -80.5 22t-29.5 68q0 82 130 135h-229l3 44l42 4q34 3 34 19v491q0 16 -41 19l-35 4l-3 44h326l-3 -44l-42 -4q-34 -2 -34 -19v-492q0 -16 38 -18l38 -4l3 -44q-50 -8 -85 -34t-35 -65q0 -25 16 -39t39 -14q31 0 53 22l10 -12q-4 -34 -35.5 -58.5
t-79.5 -24.5z" />
    <glyph glyph-name="iogonek" unicode="&#x12f;" horiz-adv-x="320" 
d="M177 -225q-112 0 -112 90q0 44 36 78.5t90 56.5h-161l3 43l18 2q34 3 34 19v228q0 46 -8 60t-35 22l-15 5l1 35l209 59v-410q0 -8 7.5 -12t30.5 -6l14 -2l3 -43q-46 -8 -82 -35.5t-36 -65.5q0 -25 16 -38t39 -13q31 0 53 22l10 -12q-4 -34 -35.5 -58.5t-79.5 -24.5z
M244 614q0 -37 -26.5 -63t-63.5 -26t-62.5 26t-25.5 63t25.5 63t62.5 26t63.5 -26t26.5 -63z" />
    <glyph glyph-name="Idotaccent" unicode="&#x130;" horiz-adv-x="386" 
d="M356 0h-326l3 44l42 4q34 3 34 19v491q0 16 -41 19l-35 4l-3 44h326l-3 -44l-42 -4q-34 -2 -34 -19v-492q0 -16 38 -18l38 -4zM268 782q0 -33 -20.5 -56t-55.5 -23q-34 0 -54 23t-20 56t20 56.5t54 23.5q35 0 55.5 -23.5t20.5 -56.5z" />
    <glyph glyph-name="dotlessi" unicode="&#x131;" horiz-adv-x="320" 
d="M292 0h-262l3 43l18 2q34 3 34 19v228q0 46 -8 60t-35 22l-15 5l1 35l209 59v-410q0 -8 7.5 -12t30.5 -6l14 -2z" />
    <glyph glyph-name="Jcircumflex" unicode="&#x134;" horiz-adv-x="475" 
d="M447 625l-3 -44l-30 -4q-34 -3 -34 -19v-257q0 -173 -61 -245t-178 -72q-60 0 -100.5 27t-40.5 70q0 30 20 49t49 19q36 0 66 -30q31 -31 37 -91h1q38 42 38 168v363q0 16 -38 18l-47 4l-3 44h324zM446 687h-47l-111 102h-2l-111 -102h-47l127 207h64z" />
    <glyph glyph-name="jcircumflex" unicode="&#x135;" horiz-adv-x="303" 
d="M230 21q-9 -132 -71.5 -207t-150.5 -75q-46 0 -72.5 21.5t-26.5 56.5q0 26 19.5 43.5t43.5 17.5q58 0 82 -72q24 8 24 175v311q0 46 -8 60t-35 22l-15 5l1 35l209 59v-452zM303 520h-47l-111 102h-2l-111 -102h-47l127 207h64z" />
    <glyph glyph-name="Kcommaaccent" unicode="&#x136;" horiz-adv-x="718" 
d="M717 0h-311l3 44l14 7q25 9 5 47l-105 186l-56 -54v-164q0 -16 38 -18l28 -4l3 -44h-305l3 44l31 4q34 3 34 19v491q0 16 -41 19l-24 4l-3 44h305l-3 -44l-32 -4q-34 -2 -34 -19v-259l153 166q79 85 26 108l-27 8l-3 44h291l-3 -44l-45 -12q-64 -16 -140 -90l-80 -79
l181 -291q30 -49 75 -60l19 -5zM457 -148q0 -91 -138 -152l-22 28q38 16 56 35t18 48q0 24 -19.5 41t-39.5 24.5t-20 8.5q0 24 21 44.5t52 20.5q41 0 66.5 -28t25.5 -70z" />
    <glyph glyph-name="kcommaaccent" unicode="&#x137;" horiz-adv-x="568" 
d="M560 0h-195l-40 90l-63 125l-36 -35v-117q0 -8 6.5 -11.5t26.5 -6.5l14 -2l3 -43h-259l3 43l20 2q34 3 34 19v467q0 30 -23 45l-37 20l3 33l209 68v-458l11 10q36 32 49.5 44.5t32.5 32t25 31.5t6 23q0 26 -33 33l-6 1l-3 44h243l-3 -44l-27 -7q-44 -12 -145 -99l-7 -7
l124 -212q13 -20 24 -28.5t31 -14.5l9 -3zM389 -148q0 -91 -138 -152l-22 28q38 16 56 35t18 48q0 24 -19.5 41t-39.5 24.5t-20 8.5q0 24 21 44.5t52 20.5q41 0 66.5 -28t25.5 -70z" />
    <glyph glyph-name="Lacute" unicode="&#x139;" horiz-adv-x="584" 
d="M562 209l-19 -209h-512l3 44l31 6q34 3 34 19v487q0 16 -41 19l-24 6l-3 44h303l-3 -44l-30 -6q-34 -2 -34 -19v-506h2q70 0 101.5 8t47.5 28t34 71l20 52h90zM393 864l-185 -177h-66l97 177h154z" />
    <glyph glyph-name="lacute" unicode="&#x13a;" horiz-adv-x="310" 
d="M285 0h-261l3 43l18 2q34 3 34 19v467q0 32 -23 45l-35 20l3 33l207 68v-634q0 -8 7.5 -12t30.5 -6l13 -2zM328 895l-185 -177h-66l97 177h154z" />
    <glyph glyph-name="Lcommaaccent" unicode="&#x13b;" horiz-adv-x="584" 
d="M562 209l-19 -209h-512l3 44l31 6q34 3 34 19v487q0 16 -41 19l-24 6l-3 44h303l-3 -44l-30 -6q-34 -2 -34 -19v-506h2q70 0 101.5 8t47.5 28t34 71l20 52h90zM389 -148q0 -91 -138 -152l-22 28q38 16 56 35t18 48q0 24 -19.5 41t-39.5 24.5t-20 8.5q0 24 21 44.5
t52 20.5q41 0 66.5 -28t25.5 -70z" />
    <glyph glyph-name="lcommaaccent" unicode="&#x13c;" horiz-adv-x="310" 
d="M285 0h-261l3 43l18 2q34 3 34 19v467q0 32 -23 45l-35 20l3 33l207 68v-634q0 -8 7.5 -12t30.5 -6l13 -2zM242 -148q0 -91 -138 -152l-22 28q38 16 56 35t18 48q0 24 -19.5 41t-39.5 24.5t-20 8.5q0 24 21 44.5t52 20.5q41 0 66.5 -28t25.5 -70z" />
    <glyph glyph-name="Lcaron" unicode="&#x13d;" horiz-adv-x="833" 
d="M562 209l-19 -209h-512l3 44l31 6q34 3 34 19v487q0 16 -41 19l-24 6l-3 44h303l-3 -44l-30 -6q-34 -2 -34 -19v-506h2q70 0 101.5 8t47.5 28t34 71l20 52h90zM813 536q0 -121 -168 -224l-32 33q52 34 75.5 64t23.5 68q0 31 -25 54t-50 33.5t-25 11.5q0 31 24.5 57
t62.5 26q50 0 82 -35.5t32 -87.5z" />
    <glyph glyph-name="lcaron" unicode="&#x13e;" horiz-adv-x="531" 
d="M285 0h-261l3 43l18 2q34 3 34 19v467q0 32 -23 45l-35 20l3 33l207 68v-634q0 -8 7.5 -12t30.5 -6l13 -2zM496 573q0 -121 -168 -224l-32 33q52 34 75.5 64t23.5 68q0 31 -25 54t-50 33.5t-25 11.5q0 31 24.5 57t62.5 26q50 0 82 -35.5t32 -87.5z" />
    <glyph glyph-name="Ldot" unicode="&#x13f;" horiz-adv-x="700" 
d="M562 209l-19 -209h-512l3 44l31 6q34 3 34 19v487q0 16 -41 19l-24 6l-3 44h303l-3 -44l-30 -6q-34 -2 -34 -19v-506h2q70 0 101.5 8t47.5 28t34 71l20 52h90zM777 292q0 -36 -25.5 -62t-62.5 -26t-62.5 25.5t-25.5 62.5t25.5 63t62.5 26q36 0 62 -26.5t26 -62.5z" />
    <glyph glyph-name="ldotaccent" unicode="&#x140;" horiz-adv-x="514" 
d="M285 0h-261l3 43l18 2q34 3 34 19v467q0 32 -23 45l-35 20l3 33l207 68v-634q0 -8 7.5 -12t30.5 -6l13 -2zM486 312q0 -36 -25.5 -62t-62.5 -26t-62.5 25.5t-25.5 62.5t25.5 63t62.5 26q36 0 62 -26.5t26 -62.5z" />
    <glyph glyph-name="Lslash" unicode="&#x141;" horiz-adv-x="583" 
d="M102 187l-68 -19v53l68 19v307q0 19 -23 24l-44 11l-3 43h298l-3 -43l-44 -11q-23 -5 -23 -24v-264l95 26v-53l-95 -26v-181h6q73 0 105.5 7t48.5 26t33 66l21 60h85l-20 -208h-507l3 43l44 11q23 5 23 24v109z" />
    <glyph glyph-name="lslash" unicode="&#x142;" horiz-adv-x="310" 
d="M231 222v-139q0 -21 23 -29l29 -11l3 -43h-262l3 43l29 11q23 13 23 29v98l-79 -22v53l79 22v297q0 30 -23 44l-35 21l3 33l207 68v-422l79 22v-53z" />
    <glyph glyph-name="Nacute" unicode="&#x143;" horiz-adv-x="714" 
d="M709 625l-3 -44l-47 -13q-11 -3 -17.5 -12t-13 -55.5t-6.5 -131.5v-376h-133l-322 455h-10v-194q0 -85 5.5 -130.5t11.5 -55t16 -11.5l59 -13l3 -44h-242l3 44l47 13q10 3 16.5 11.5t13.5 55t7 130.5v268q0 19 -31 36l-44 23l-3 44h230l303 -430h10v174q0 85 -5.5 131
t-11.5 56t-16 12l-59 13l-3 44h242zM550 864l-185 -177h-66l97 177h154z" />
    <glyph glyph-name="nacute" unicode="&#x144;" horiz-adv-x="599" 
d="M590 0h-262l3 43l13 2q34 2 34 19v184q0 70 -19.5 94t-62.5 24q-17 0 -37 -6.5t-28 -13.5v-283q0 -8 7.5 -12t30.5 -6l19 -2l3 -43h-269l3 43l20 2q34 3 34 19v228q0 46 -8 60t-35 22l-15 5l1 35l209 59v-77h5q99 77 168 77q49 0 88 -39q38 -38 38 -118v-252q0 -7 8 -11
t33 -8l16 -2zM494 697l-185 -177h-66l97 177h154z" />
    <glyph glyph-name="Ncommaaccent" unicode="&#x145;" horiz-adv-x="714" 
d="M709 625l-3 -44l-47 -13q-11 -3 -17.5 -12t-13 -55.5t-6.5 -131.5v-376h-133l-322 455h-10v-194q0 -85 5.5 -130.5t11.5 -55t16 -11.5l59 -13l3 -44h-242l3 44l47 13q10 3 16.5 11.5t13.5 55t7 130.5v268q0 19 -31 36l-44 23l-3 44h230l303 -430h10v174q0 85 -5.5 131
t-11.5 56t-16 12l-59 13l-3 44h242zM446 -148q0 -91 -138 -152l-22 28q38 16 56 35t18 48q0 24 -20 41t-39.5 24.5t-19.5 8.5q0 24 21 44.5t52 20.5q41 0 66.5 -28t25.5 -70z" />
    <glyph glyph-name="ncommaaccent" unicode="&#x146;" horiz-adv-x="599" 
d="M590 0h-262l3 43l13 2q34 2 34 19v184q0 70 -19.5 94t-62.5 24q-17 0 -37 -6.5t-28 -13.5v-283q0 -8 7.5 -12t30.5 -6l19 -2l3 -43h-269l3 43l20 2q34 3 34 19v228q0 46 -8 60t-35 22l-15 5l1 35l209 59v-77h5q99 77 168 77q49 0 88 -39q38 -38 38 -118v-252q0 -7 8 -11
t33 -8l16 -2zM394 -148q0 -91 -138 -152l-22 28q38 16 56 35t18 48q0 24 -20 41t-39.5 24.5t-19.5 8.5q0 24 21 44.5t52 20.5q41 0 66.5 -28t25.5 -70z" />
    <glyph glyph-name="Ncaron" unicode="&#x147;" horiz-adv-x="714" 
d="M709 625l-3 -44l-47 -13q-11 -3 -17.5 -12t-13 -55.5t-6.5 -131.5v-376h-133l-322 455h-10v-194q0 -85 5.5 -130.5t11.5 -55t16 -11.5l59 -13l3 -44h-242l3 44l47 13q10 3 16.5 11.5t13.5 55t7 130.5v268q0 19 -31 36l-44 23l-3 44h230l303 -430h10v174q0 85 -5.5 131
t-11.5 56t-16 12l-59 13l-3 44h242zM526 894l-127 -207h-64l-127 207h47l111 -102h2l111 102h47z" />
    <glyph glyph-name="ncaron" unicode="&#x148;" horiz-adv-x="599" 
d="M590 0h-262l3 43l13 2q34 2 34 19v184q0 70 -19.5 94t-62.5 24q-17 0 -37 -6.5t-28 -13.5v-283q0 -8 7.5 -12t30.5 -6l19 -2l3 -43h-269l3 43l20 2q34 3 34 19v228q0 46 -8 60t-35 22l-15 5l1 35l209 59v-77h5q99 77 168 77q49 0 88 -39q38 -38 38 -118v-252q0 -7 8 -11
t33 -8l16 -2zM452 727l-127 -207h-64l-127 207h47l111 -102h2l111 102h47z" />
    <glyph glyph-name="Omacron" unicode="&#x14c;" horiz-adv-x="776" 
d="M736 317q0 -149 -102.5 -241t-248.5 -92q-160 0 -252.5 88t-92.5 234q0 149 103 241t249 92q160 0 252 -87.5t92 -234.5zM554 305q0 135 -47 207t-122 72q-73 0 -118 -68t-45 -198q0 -134 47.5 -206.5t122.5 -72.5q72 0 117 67.5t45 198.5zM567 718h-338l9 74h320z" />
    <glyph glyph-name="omacron" unicode="&#x14d;" horiz-adv-x="580" 
d="M544 232q0 -105 -75 -176t-190 -71q-113 0 -178 69t-65 170q0 105 76 177t190 72q112 0 177 -69.5t65 -171.5zM376 209q0 149 -41 190q-19 22 -47 22q-39 0 -61.5 -47t-22.5 -127t7.5 -125.5t30.5 -68.5q18 -18 49 -18q39 0 62 48.5t23 125.5zM469 551h-338l9 74h320z
" />
    <glyph glyph-name="Obreve" unicode="&#x14e;" horiz-adv-x="776" 
d="M736 317q0 -149 -102.5 -241t-248.5 -92q-160 0 -252.5 88t-92.5 234q0 149 103 241t249 92q160 0 252 -87.5t92 -234.5zM554 305q0 135 -47 207t-122 72q-73 0 -118 -68t-45 -198q0 -134 47.5 -206.5t122.5 -72.5q72 0 117 67.5t45 198.5zM552 864q-22 -182 -164 -182
q-68 0 -110.5 45.5t-53.5 136.5h66q31 -102 98 -102t100 102h64z" />
    <glyph glyph-name="obreve" unicode="&#x14f;" horiz-adv-x="580" 
d="M544 232q0 -105 -75 -176t-190 -71q-113 0 -178 69t-65 170q0 105 76 177t190 72q112 0 177 -69.5t65 -171.5zM376 209q0 149 -41 190q-19 22 -47 22q-39 0 -61.5 -47t-22.5 -127t7.5 -125.5t30.5 -68.5q18 -18 49 -18q39 0 62 48.5t23 125.5zM455 697
q-22 -182 -164 -182q-68 0 -110.5 45.5t-53.5 136.5h66q31 -102 98 -102t100 102h64z" />
    <glyph glyph-name="Ohungarumlaut" unicode="&#x150;" horiz-adv-x="776" 
d="M736 317q0 -149 -102.5 -241t-248.5 -92q-160 0 -252.5 88t-92.5 234q0 149 103 241t249 92q160 0 252 -87.5t92 -234.5zM554 305q0 135 -47 207t-122 72q-73 0 -118 -68t-45 -198q0 -134 47.5 -206.5t122.5 -72.5q72 0 117 67.5t45 198.5zM688 864l-185 -177h-59l97 177
h147zM488 864l-185 -177h-59l97 177h147z" />
    <glyph glyph-name="ohungarumlaut" unicode="&#x151;" horiz-adv-x="580" 
d="M544 232q0 -105 -75 -176t-190 -71q-113 0 -178 69t-65 170q0 105 76 177t190 72q112 0 177 -69.5t65 -171.5zM376 209q0 149 -41 190q-19 22 -47 22q-39 0 -61.5 -47t-22.5 -127t7.5 -125.5t30.5 -68.5q18 -18 49 -18q39 0 62 48.5t23 125.5zM590 697l-185 -177h-59
l97 177h147zM390 697l-185 -177h-59l97 177h147z" />
    <glyph glyph-name="OE" unicode="&#x152;" horiz-adv-x="1053" 
d="M1006 208l-20 -208h-595q-157 0 -253.5 82t-96.5 215q0 134 103 231t274 97h572v-220h-83l-20 73q-18 66 -53 82t-143 16h-54v-237h23q36 0 57 7.5t29 31.5l25 69h61l-24 -261h-59l-11 63q-4 24 -20 32t-62 8h-19v-240h63q105 0 141 17t59 82l21 60h85zM479 49v512
l-71 15q-89 0 -141.5 -72.5t-52.5 -183.5q0 -128 57.5 -199.5t173.5 -71.5h34z" />
    <glyph glyph-name="oe" unicode="&#x153;" horiz-adv-x="843" 
d="M445 39q-71 -54 -169 -54q-112 0 -176 68.5t-64 170.5q0 105 74.5 177t188.5 72q100 0 164 -58q69 58 166 58q77 0 129 -42.5t52 -117.5q0 -29 -6 -56l-281 4v-11q1 -78 38.5 -122.5t97.5 -44.5q73 0 129 73l24 -13q-22 -76 -78 -117t-141 -41q-88 0 -148 54zM667 300
q3 58 -11.5 90.5t-41.5 32.5q-37 0 -63 -33t-29 -94zM373 209q0 149 -41 190q-19 22 -47 22q-39 0 -61.5 -47t-22.5 -127t7.5 -125.5t30.5 -68.5q18 -18 49 -18q39 0 62 48.5t23 125.5z" />
    <glyph glyph-name="Racute" unicode="&#x154;" horiz-adv-x="665" 
d="M465 297l133 -213q19 -29 43 -35l24 -5l3 -44h-225l-43 89l-94 176l-39 1v-200q0 -16 38 -18l15 -4l3 -44h-292l3 44l31 4q34 3 34 19v491q0 16 -41 19l-24 4l-3 44h324q125 0 189 -42t64 -114q0 -120 -143 -172zM425 442q0 66 -35.5 102.5t-93.5 36.5h-29v-266l51 -6
q107 17 107 133zM505 864l-185 -177h-66l97 177h154z" />
    <glyph glyph-name="racute" unicode="&#x155;" horiz-adv-x="441" 
d="M450 389q0 -30 -19 -52.5t-47 -22.5q-49 0 -75 46q-49 -35 -78 -76v-221q0 -8 7.5 -12t30.5 -6l29 -2l3 -43h-277l3 43l18 2q34 3 34 19v228q0 46 -8 60t-35 22l-15 5l1 35l209 59v-123h5q33 59 63 91t69 32q37 0 59.5 -22t22.5 -62zM423 697l-185 -177h-66l97 177h154z
" />
    <glyph glyph-name="Rcommaaccent" unicode="&#x156;" horiz-adv-x="665" 
d="M465 297l133 -213q19 -29 43 -35l24 -5l3 -44h-225l-43 89l-94 176l-39 1v-200q0 -16 38 -18l15 -4l3 -44h-292l3 44l31 4q34 3 34 19v491q0 16 -41 19l-24 4l-3 44h324q125 0 189 -42t64 -114q0 -120 -143 -172zM425 442q0 66 -35.5 102.5t-93.5 36.5h-29v-266l51 -6
q107 17 107 133zM451 -148q0 -91 -138 -152l-22 28q38 16 56 35t18 48q0 24 -19.5 41t-39.5 24.5t-20 8.5q0 24 21 44.5t52 20.5q41 0 66.5 -28t25.5 -70z" />
    <glyph glyph-name="rcommaaccent" unicode="&#x157;" horiz-adv-x="441" 
d="M450 389q0 -30 -19 -52.5t-47 -22.5q-49 0 -75 46q-49 -35 -78 -76v-221q0 -8 7.5 -12t30.5 -6l29 -2l3 -43h-277l3 43l18 2q34 3 34 19v228q0 46 -8 60t-35 22l-15 5l1 35l209 59v-123h5q33 59 63 91t69 32q37 0 59.5 -22t22.5 -62zM245 -148q0 -91 -138 -152l-22 28
q38 16 56 35t18 48q0 24 -19.5 41t-39.5 24.5t-20 8.5q0 24 21 44.5t52 20.5q41 0 66.5 -28t25.5 -70z" />
    <glyph glyph-name="Rcaron" unicode="&#x158;" horiz-adv-x="665" 
d="M465 297l133 -213q19 -29 43 -35l24 -5l3 -44h-225l-43 89l-94 176l-39 1v-200q0 -16 38 -18l15 -4l3 -44h-292l3 44l31 4q34 3 34 19v491q0 16 -41 19l-24 4l-3 44h324q125 0 189 -42t64 -114q0 -120 -143 -172zM425 442q0 66 -35.5 102.5t-93.5 36.5h-29v-266l51 -6
q107 17 107 133zM491 894l-127 -207h-64l-127 207h47l111 -102h2l111 102h47z" />
    <glyph glyph-name="rcaron" unicode="&#x159;" horiz-adv-x="441" 
d="M450 389q0 -30 -19 -52.5t-47 -22.5q-49 0 -75 46q-49 -35 -78 -76v-221q0 -8 7.5 -12t30.5 -6l29 -2l3 -43h-277l3 43l18 2q34 3 34 19v228q0 46 -8 60t-35 22l-15 5l1 35l209 59v-123h5q33 59 63 91t69 32q37 0 59.5 -22t22.5 -62zM409 727l-127 -207h-64l-127 207h47
l111 -102h2l111 102h47z" />
    <glyph glyph-name="Sacute" unicode="&#x15a;" horiz-adv-x="580" 
d="M539 196q0 -91 -69 -151.5t-190 -60.5q-103 0 -217 28l-6 206h89l44 -160q45 -13 90 -13q61 0 89 24.5t28 64.5q0 43 -33 65t-111 45q-105 29 -155 71t-50 120q0 88 68.5 145.5t187.5 57.5q61 0 154 -17l54 15v-216h-83l-50 146q-36 11 -79 11q-55 0 -86 -22t-31 -57
q0 -37 30 -57t98 -40q121 -34 174.5 -78.5t53.5 -126.5zM477 864l-185 -177h-66l97 177h154z" />
    <glyph glyph-name="sacute" unicode="&#x15b;" horiz-adv-x="457" 
d="M425 136q0 -67 -57 -109t-158 -42q-106 0 -173 27l-4 133h85l26 -93q48 -16 71 -16q41 0 63.5 17.5t22.5 46.5q0 9 -3 16.5t-10.5 14t-13.5 10.5t-19.5 10t-20 8.5t-24.5 8.5l-24 8q-73 26 -110 57t-37 94q0 66 52.5 106t141.5 40q64 0 116 -16l57 10l4 -154h-77l-34 92
q-32 16 -64 16q-34 0 -53.5 -15.5t-19.5 -39.5q0 -15 4.5 -25.5t22 -20.5t25.5 -13l43 -15q7 -3 11 -4q37 -13 59.5 -23t48 -28t37.5 -43t12 -58zM412 697l-185 -177h-66l97 177h154z" />
    <glyph glyph-name="Scircumflex" unicode="&#x15c;" horiz-adv-x="580" 
d="M539 196q0 -91 -69 -151.5t-190 -60.5q-103 0 -217 28l-6 206h89l44 -160q45 -13 90 -13q61 0 89 24.5t28 64.5q0 43 -33 65t-111 45q-105 29 -155 71t-50 120q0 88 68.5 145.5t187.5 57.5q61 0 154 -17l54 15v-216h-83l-50 146q-36 11 -79 11q-55 0 -86 -22t-31 -57
q0 -37 30 -57t98 -40q121 -34 174.5 -78.5t53.5 -126.5zM449 687h-47l-111 102h-2l-111 -102h-47l127 207h64z" />
    <glyph glyph-name="scircumflex" unicode="&#x15d;" horiz-adv-x="457" 
d="M425 136q0 -67 -57 -109t-158 -42q-106 0 -173 27l-4 133h85l26 -93q48 -16 71 -16q41 0 63.5 17.5t22.5 46.5q0 9 -3 16.5t-10.5 14t-13.5 10.5t-19.5 10t-20 8.5t-24.5 8.5l-24 8q-73 26 -110 57t-37 94q0 66 52.5 106t141.5 40q64 0 116 -16l57 10l4 -154h-77l-34 92
q-32 16 -64 16q-34 0 -53.5 -15.5t-19.5 -39.5q0 -15 4.5 -25.5t22 -20.5t25.5 -13l43 -15q7 -3 11 -4q37 -13 59.5 -23t48 -28t37.5 -43t12 -58zM397 520h-47l-111 102h-2l-111 -102h-47l127 207h64z" />
    <glyph glyph-name="Scedilla" unicode="&#x15e;" horiz-adv-x="580" 
d="M414 -150q0 -57 -64.5 -91.5t-168.5 -38.5l-11 30q76 8 117 28t41 49q0 50 -84 50q-43 0 -76 -8v28l85 87q-83 2 -190 28l-6 206h89l44 -160q45 -13 90 -13q61 0 89 24.5t28 64.5q0 43 -33 65t-111 45q-105 29 -155 71t-50 120q0 88 68.5 145.5t187.5 57.5q61 0 154 -17
l54 15v-216h-83l-50 146q-36 11 -79 11q-55 0 -86 -22t-31 -57q0 -37 30 -57t98 -40q121 -34 174.5 -78.5t53.5 -126.5q0 -85 -60.5 -144t-169.5 -67l-37 -37q66 -4 104 -29.5t38 -68.5z" />
    <glyph glyph-name="scedilla" unicode="&#x15f;" horiz-adv-x="457" 
d="M352 -150q0 -57 -64.5 -91.5t-168.5 -38.5l-11 30q76 8 117 28t41 49q0 50 -84 50q-43 0 -76 -8v28l86 88q-96 4 -155 27l-4 133h85l26 -93q48 -16 71 -16q41 0 63.5 17.5t22.5 46.5q0 9 -3 16.5t-10.5 14t-13.5 10.5t-19.5 10t-20 8.5t-24.5 8.5l-24 8q-73 26 -110 57
t-37 94q0 66 52.5 106t141.5 40q64 0 116 -16l57 10l4 -154h-77l-34 92q-32 16 -64 16q-34 0 -53.5 -15.5t-19.5 -39.5q0 -15 4.5 -25.5t22 -20.5t25.5 -13l43 -15q7 -3 11 -4q37 -13 59.5 -23t48 -28t37.5 -43t12 -58q0 -60 -46.5 -100.5t-129.5 -48.5l-39 -39
q66 -4 104 -29.5t38 -68.5z" />
    <glyph glyph-name="Scaron" unicode="&#x160;" horiz-adv-x="580" 
d="M539 196q0 -91 -69 -151.5t-190 -60.5q-103 0 -217 28l-6 206h89l44 -160q45 -13 90 -13q61 0 89 24.5t28 64.5q0 43 -33 65t-111 45q-105 29 -155 71t-50 120q0 88 68.5 145.5t187.5 57.5q61 0 154 -17l54 15v-216h-83l-50 146q-36 11 -79 11q-55 0 -86 -22t-31 -57
q0 -37 30 -57t98 -40q121 -34 174.5 -78.5t53.5 -126.5zM449 894l-127 -207h-64l-127 207h47l111 -102h2l111 102h47z" />
    <glyph glyph-name="scaron" unicode="&#x161;" horiz-adv-x="457" 
d="M425 136q0 -67 -57 -109t-158 -42q-106 0 -173 27l-4 133h85l26 -93q48 -16 71 -16q41 0 63.5 17.5t22.5 46.5q0 9 -3 16.5t-10.5 14t-13.5 10.5t-19.5 10t-20 8.5t-24.5 8.5l-24 8q-73 26 -110 57t-37 94q0 66 52.5 106t141.5 40q64 0 116 -16l57 10l4 -154h-77l-34 92
q-32 16 -64 16q-34 0 -53.5 -15.5t-19.5 -39.5q0 -15 4.5 -25.5t22 -20.5t25.5 -13l43 -15q7 -3 11 -4q37 -13 59.5 -23t48 -28t37.5 -43t12 -58zM385 727l-127 -207h-64l-127 207h47l111 -102h2l111 102h47z" />
    <glyph glyph-name="Tcommaaccent" unicode="&#x162;" horiz-adv-x="662" 
d="M644 401h-85l-19 70q-10 35 -22.5 57.5t-28.5 32t-30 12.5t-35 3h-9v-510q0 -16 38 -18l38 -4l3 -44h-326l3 44l42 4q34 3 34 19v509h-6q-44 0 -72 -21.5t-47 -86.5l-19 -67h-93l21 224h613v-224zM417 -148q0 -91 -138 -152l-22 28q38 16 56 35t18 48q0 24 -19.5 41
t-39.5 24.5t-20 8.5q0 24 21 44.5t52 20.5q41 0 66.5 -28t25.5 -70z" />
    <glyph glyph-name="tcommaaccent" unicode="&#x163;" horiz-adv-x="390" 
d="M383 66q-67 -81 -175 -81q-68 0 -102.5 39t-33.5 114l3 235l-75 9l3 40l77 72l77 73l62 -6l-1 -113h162l-7 -71h-156l-2 -192q0 -58 21 -81t59 -23q47 0 85 18zM311 -154q0 -91 -138 -152l-22 28q38 16 56 35t18 48q0 24 -19.5 41t-39.5 24.5t-20 8.5q0 24 21 44.5
t52 20.5q41 0 66.5 -28t25.5 -70z" />
    <glyph glyph-name="Tcaron" unicode="&#x164;" horiz-adv-x="662" 
d="M644 401h-85l-19 70q-10 35 -22.5 57.5t-28.5 32t-30 12.5t-35 3h-9v-510q0 -16 38 -18l38 -4l3 -44h-326l3 44l42 4q34 3 34 19v509h-6q-44 0 -72 -21.5t-47 -86.5l-19 -67h-93l21 224h613v-224zM490 894l-127 -207h-64l-127 207h47l111 -102h2l111 102h47z" />
    <glyph glyph-name="tcaron" unicode="&#x165;" horiz-adv-x="434" 
d="M383 66q-67 -81 -175 -81q-68 0 -102.5 39t-33.5 114l3 235l-75 9l3 40l77 72l77 73l62 -6l-1 -113h162l-7 -71h-156l-2 -192q0 -58 21 -81t59 -23q47 0 85 18zM427 658q0 -97 -134 -179l-26 26q41 27 60 51t19 55q0 25 -20 43t-40 26.5t-20 9.5q0 24 20 45t50 21
q40 0 65.5 -28.5t25.5 -69.5z" />
    <glyph glyph-name="Umacron" unicode="&#x16a;" horiz-adv-x="707" 
d="M701 625l-3 -44l-47 -13q-11 -3 -17.5 -12t-13 -55.5t-6.5 -131.5v-154q0 -109 -69 -175t-186 -66q-121 0 -196 52t-75 148v384q0 16 -41 19l-24 4l-3 44h304l-3 -44l-31 -4q-34 -2 -34 -19v-337q0 -78 35.5 -125t105.5 -47q80 0 118.5 45t38.5 144v131q0 85 -5.5 131
t-11.5 56t-16 12l-59 13l-3 44h242zM562 718h-338l9 74h320z" />
    <glyph glyph-name="umacron" unicode="&#x16b;" horiz-adv-x="590" 
d="M578 40l-3 -33l-207 -22v77h-5q-99 -77 -168 -77q-49 0 -88 39q-38 38 -38 118v252q0 7 -8 11t-33 8l-16 2l-3 43h215l-3 -248q-1 -70 19 -94t63 -24q17 0 37 6.5t28 13.5v283q0 8 -7.5 12t-30.5 6l-19 2l-4 43h213v-358q0 -42 23 -49zM454 551h-338l9 74h320z" />
    <glyph glyph-name="Ubreve" unicode="&#x16c;" horiz-adv-x="707" 
d="M701 625l-3 -44l-47 -13q-11 -3 -17.5 -12t-13 -55.5t-6.5 -131.5v-154q0 -109 -69 -175t-186 -66q-121 0 -196 52t-75 148v384q0 16 -41 19l-24 4l-3 44h304l-3 -44l-31 -4q-34 -2 -34 -19v-337q0 -78 35.5 -125t105.5 -47q80 0 118.5 45t38.5 144v131q0 85 -5.5 131
t-11.5 56t-16 12l-59 13l-3 44h242zM547 864q-22 -182 -164 -182q-68 0 -110.5 45.5t-53.5 136.5h66q31 -102 98 -102t100 102h64z" />
    <glyph glyph-name="ubreve" unicode="&#x16d;" horiz-adv-x="590" 
d="M578 40l-3 -33l-207 -22v77h-5q-99 -77 -168 -77q-49 0 -88 39q-38 38 -38 118v252q0 7 -8 11t-33 8l-16 2l-3 43h215l-3 -248q-1 -70 19 -94t63 -24q17 0 37 6.5t28 13.5v283q0 8 -7.5 12t-30.5 6l-19 2l-4 43h213v-358q0 -42 23 -49zM451 697q-22 -182 -164 -182
q-68 0 -110.5 45.5t-53.5 136.5h66q31 -102 98 -102t100 102h64z" />
    <glyph glyph-name="Uring" unicode="&#x16e;" horiz-adv-x="707" 
d="M701 625l-3 -44l-47 -13q-11 -3 -17.5 -12t-13 -55.5t-6.5 -131.5v-154q0 -109 -69 -175t-186 -66q-121 0 -196 52t-75 148v384q0 16 -41 19l-24 4l-3 44h304l-3 -44l-31 -4q-34 -2 -34 -19v-337q0 -78 35.5 -125t105.5 -47q80 0 118.5 45t38.5 144v131q0 85 -5.5 131
t-11.5 56t-16 12l-59 13l-3 44h242zM500 786q0 -46 -29.5 -77.5t-78.5 -31.5t-78.5 31.5t-29.5 77.5t29.5 77.5t78.5 31.5t78.5 -31.5t29.5 -77.5zM461 786q0 29 -19 50.5t-50 21.5t-50 -21.5t-19 -50.5t19 -50.5t50 -21.5t50 21.5t19 50.5z" />
    <glyph glyph-name="uring" unicode="&#x16f;" horiz-adv-x="590" 
d="M578 40l-3 -33l-207 -22v77h-5q-99 -77 -168 -77q-49 0 -88 39q-38 38 -38 118v252q0 7 -8 11t-33 8l-16 2l-3 43h215l-3 -248q-1 -70 19 -94t63 -24q17 0 37 6.5t28 13.5v283q0 8 -7.5 12t-30.5 6l-19 2l-4 43h213v-358q0 -42 23 -49zM383 619q0 -46 -29.5 -77.5
t-78.5 -31.5t-78.5 31.5t-29.5 77.5t29.5 77.5t78.5 31.5t78.5 -31.5t29.5 -77.5zM344 619q0 29 -19 50.5t-50 21.5t-50 -21.5t-19 -50.5t19 -50.5t50 -21.5t50 21.5t19 50.5z" />
    <glyph glyph-name="Uhungarumlaut" unicode="&#x170;" horiz-adv-x="707" 
d="M701 625l-3 -44l-47 -13q-11 -3 -17.5 -12t-13 -55.5t-6.5 -131.5v-154q0 -109 -69 -175t-186 -66q-121 0 -196 52t-75 148v384q0 16 -41 19l-24 4l-3 44h304l-3 -44l-31 -4q-34 -2 -34 -19v-337q0 -78 35.5 -125t105.5 -47q80 0 118.5 45t38.5 144v131q0 85 -5.5 131
t-11.5 56t-16 12l-59 13l-3 44h242zM651 864l-185 -177h-59l97 177h147zM451 864l-185 -177h-59l97 177h147z" />
    <glyph glyph-name="uhungarumlaut" unicode="&#x171;" horiz-adv-x="590" 
d="M578 40l-3 -33l-207 -22v77h-5q-99 -77 -168 -77q-49 0 -88 39q-38 38 -38 118v252q0 7 -8 11t-33 8l-16 2l-3 43h215l-3 -248q-1 -70 19 -94t63 -24q17 0 37 6.5t28 13.5v283q0 8 -7.5 12t-30.5 6l-19 2l-4 43h213v-358q0 -42 23 -49zM360 697l-185 -177h-59l97 177h147
zM560 697l-185 -177h-59l97 177h147z" />
    <glyph glyph-name="Uogonek" unicode="&#x172;" horiz-adv-x="707" 
d="M429 -225q-50 0 -80.5 23t-30.5 66q0 67 87 112q-5 0 -23 -1t-23 -1q-121 0 -196 52t-75 148v384q0 16 -41 19l-24 4l-3 44h304l-3 -44l-31 -4q-34 -2 -34 -19v-337q0 -78 35.5 -125t105.5 -47q80 0 118.5 45t38.5 144v131q0 85 -5.5 131t-11.5 56t-16 12l-59 13l-3 44
h242l-3 -44l-47 -13q-11 -3 -17.5 -12t-13 -55.5t-6.5 -131.5v-154q0 -139 -121 -217q-68 -44 -68 -98q0 -25 16 -38.5t40 -13.5q31 0 53 22l10 -12q-4 -34 -35.5 -58.5t-79.5 -24.5z" />
    <glyph glyph-name="uogonek" unicode="&#x173;" horiz-adv-x="590" 
d="M460 -225q-49 0 -78 25.5t-29 69.5q0 67 91 123l-76 -8v77h-5q-99 -77 -168 -77q-49 0 -88 39q-38 38 -38 118v252q0 7 -8 11t-33 8l-16 2l-3 43h215l-3 -248q-1 -70 19 -94t63 -24q17 0 37 6.5t28 13.5v283q0 8 -7.5 12t-30.5 6l-19 2l-4 43h213v-358q0 -42 23 -49
l35 -11l-3 -33q-55 -9 -84 -35t-29 -66q0 -23 14.5 -40.5t35.5 -17.5q31 0 53 22l10 -12q-4 -34 -35.5 -58.5t-79.5 -24.5z" />
    <glyph glyph-name="Wcircumflex" unicode="&#x174;" horiz-adv-x="987" 
d="M1030 625l-2 -46l-23 -7q-30 -9 -47 -23t-36 -52t-43 -115l-122 -382h-141l-104 371h-10l-122 -371h-144l-169 521q-8 24 -19 35.5t-33 15.5l-29 7l-3 46h336l-3 -46l-33 -4q-49 -6 -18 -108l91 -335h10l103 328l-16 61q-10 40 -52 51l-29 7l-3 46h336l-3 -46l-33 -4
q-27 -4 -30.5 -27t12.5 -81l84 -334h10l69 249q27 100 22 141t-42 51l-29 5l-4 46h269zM702 687h-47l-111 102h-2l-111 -102h-47l127 207h64z" />
    <glyph glyph-name="wcircumflex" unicode="&#x175;" horiz-adv-x="786" 
d="M805 458l-3 -43l-33 -10q-30 -9 -42 -41l-127 -373h-105l-105 295l-94 -295h-106l-138 380q-9 24 -38 34l-25 10l-3 43h276l-3 -43l-35 -12q-22 -7 -11 -40l72 -247l76 249l-2 6q-8 22 -38 33l-29 11l-3 43h278l-3 -43l-35 -12q-22 -7 -11 -40l72 -247l74 241
q13 35 -11 46l-34 12l-3 43h189zM572 520h-47l-111 102h-2l-111 -102h-47l127 207h64z" />
    <glyph glyph-name="Ycircumflex" unicode="&#x176;" horiz-adv-x="610" 
d="M629 625l-3 -46l-25 -8q-24 -7 -45.5 -32t-68.5 -107l-99 -174v-192q0 -16 38 -18l38 -4l3 -44h-326l3 44l42 4q34 3 34 19v180l-162 283q-18 32 -44 41l-26 8l-3 46h312l-3 -46l-30 -6q-43 -10 5 -106l77 -155h10l66 120q40 71 40 102.5t-35 37.5l-32 7l-3 46h237z
M491 687h-47l-111 102h-2l-111 -102h-47l127 207h64z" />
    <glyph glyph-name="ycircumflex" unicode="&#x177;" horiz-adv-x="507" 
d="M527 458l-3 -43l-33 -5q-26 -4 -42 -46l-123 -319l-64 -183q-43 -124 -135 -124q-34 0 -59.5 20t-25.5 50q0 27 17 46.5t46 19.5q25 0 43.5 -15.5t25.5 -35.5q26 9 47 79l11 37v10l-178 422q-8 21 -38 33l-26 11l-3 43h276l-3 -43l-35 -12q-22 -7 -10 -40l91 -236l81 231
q13 35 -12 44l-39 13l-3 43h194zM460 520h-47l-111 102h-2l-111 -102h-47l127 207h64z" />
    <glyph glyph-name="Ydieresis" unicode="&#x178;" horiz-adv-x="610" 
d="M629 625l-3 -46l-25 -8q-24 -7 -45.5 -32t-68.5 -107l-99 -174v-192q0 -16 38 -18l38 -4l3 -44h-326l3 44l42 4q34 3 34 19v180l-162 283q-18 32 -44 41l-26 8l-3 46h312l-3 -46l-30 -6q-43 -10 5 -106l77 -155h10l66 120q40 71 40 102.5t-35 37.5l-32 7l-3 46h237z
M501 772q0 -31 -19.5 -53t-52.5 -22q-32 0 -51 21.5t-19 53.5t19 54t51 22q33 0 52.5 -22t19.5 -54zM272 772q0 -32 -19 -53.5t-52 -21.5t-52.5 22t-19.5 53t19.5 53.5t52.5 22.5t52 -22t19 -54z" />
    <glyph glyph-name="Zacute" unicode="&#x179;" horiz-adv-x="640" 
d="M612 211l-21 -211h-557v54l370 514v5h-104q-61 1 -88.5 -18.5t-43.5 -82.5l-20 -71h-90v224h544v-54l-380 -515v-5l132 -1q51 0 80.5 13.5t41 32.5t25.5 59l20 56h91zM524 864l-185 -177h-66l97 177h154z" />
    <glyph glyph-name="zacute" unicode="&#x17a;" horiz-adv-x="513" 
d="M478 415l-281 -364l73 2q48 1 71.5 9t33 19t26.5 42l39 72h65l-45 -195h-435v43l276 364l-57 -2q-57 -3 -75 -14.5t-33 -51.5l-29 -72h-63v191h434v-43zM449 697l-185 -177h-66l97 177h154z" />
    <glyph glyph-name="Zdotaccent" unicode="&#x17b;" horiz-adv-x="640" 
d="M612 211l-21 -211h-557v54l370 514v5h-104q-61 1 -88.5 -18.5t-43.5 -82.5l-20 -71h-90v224h544v-54l-380 -515v-5l132 -1q51 0 80.5 13.5t41 32.5t25.5 59l20 56h91zM419 782q0 -33 -20.5 -56t-55.5 -23q-34 0 -54 23t-20 56t20 56.5t54 23.5q35 0 55.5 -23.5
t20.5 -56.5z" />
    <glyph glyph-name="zdotaccent" unicode="&#x17c;" horiz-adv-x="513" 
d="M478 415l-281 -364l73 2q48 1 71.5 9t33 19t26.5 42l39 72h65l-45 -195h-435v43l276 364l-57 -2q-57 -3 -75 -14.5t-33 -51.5l-29 -72h-63v191h434v-43zM341 615q0 -33 -20.5 -56t-55.5 -23q-34 0 -54 23t-20 56t20 56.5t54 23.5q35 0 55.5 -23.5t20.5 -56.5z" />
    <glyph glyph-name="Zcaron" unicode="&#x17d;" horiz-adv-x="640" 
d="M612 211l-21 -211h-557v54l370 514v5h-104q-61 1 -88.5 -18.5t-43.5 -82.5l-20 -71h-90v224h544v-54l-380 -515v-5l132 -1q51 0 80.5 13.5t41 32.5t25.5 59l20 56h91zM479 894l-127 -207h-64l-127 207h47l111 -102h2l111 102h47z" />
    <glyph glyph-name="zcaron" unicode="&#x17e;" horiz-adv-x="513" 
d="M478 415l-281 -364l73 2q48 1 71.5 9t33 19t26.5 42l39 72h65l-45 -195h-435v43l276 364l-57 -2q-57 -3 -75 -14.5t-33 -51.5l-29 -72h-63v191h434v-43zM415 727l-127 -207h-64l-127 207h47l111 -102h2l111 102h47z" />
    <glyph glyph-name="florin" unicode="&#x192;" horiz-adv-x="603" 
d="M616 537q0 -33 -21 -57t-54 -24q-39 0 -61.5 27.5t-24.5 75.5l-33 -6q-7 -18 -20 -83.5t-17 -81.5h136l4 -66h-149q-20 -104 -47.5 -170.5t-75.5 -111.5q-59 -56 -148 -56q-49 0 -83.5 27.5t-34.5 69.5q0 29 19 48t47 19q36 0 59.5 -23t26.5 -61l52 9q22 59 31 137
l11 102l-86 10l3 39l95 39q27 102 86 165q34 35 83 55.5t86 20.5q49 0 82.5 -28.5t33.5 -75.5z" />
    <glyph glyph-name="Aringacute" unicode="&#x1fa;" horiz-adv-x="662" 
d="M264 608q-43 31 -43 89q0 46 29.5 77.5t78.5 31.5t78.5 -31.5t29.5 -77.5t-29 -77l181 -516q14 -39 64 -51l24 -7l3 -46h-337l3 46l28 4q34 4 37 26t-19 82l-12 34h-203l-2 -6q-38 -124 24 -135l27 -5l3 -46h-252l3 46l21 6q26 8 39.5 20.5t31.5 48t54 122.5zM398 697
q0 29 -19 50.5t-50 21.5t-50 -21.5t-19 -50.5t19 -50.5t50 -21.5t50 21.5t19 50.5zM363 242l-82 244h-5l-82 -244h169zM524 995l-185 -177h-66l97 177h154z" />
    <glyph glyph-name="aringacute" unicode="&#x1fb;" horiz-adv-x="526" 
d="M356 619q0 -46 -29.5 -77.5t-78.5 -31.5t-78.5 31.5t-29.5 77.5t29.5 77.5t78.5 31.5t78.5 -31.5t29.5 -77.5zM531 72q-25 -36 -63.5 -63t-72.5 -27q-35 0 -62.5 23t-29.5 70h-5q-35 -45 -66.5 -67.5t-71.5 -22.5q-54 0 -90 31t-36 87q0 60 64 102t203 79v7q2 48 -25 79
t-76 31q-16 0 -31.5 -3t-24 -6.5t-8.5 -5.5q0 -1 7 -8.5t14 -21.5t7 -30q0 -20 -19 -38t-46 -18q-30 0 -49.5 15.5t-19.5 40.5q0 52 78.5 99t174.5 47q177 0 169 -189l-7 -160q-1 -28 4 -37.5t22 -9.5q14 0 45 26zM317 619q0 29 -19 50.5t-50 21.5t-50 -21.5t-19 -50.5
t19 -50.5t50 -21.5t50 21.5t19 50.5zM296 119l3 125q-73 -22 -100 -47t-27 -58q0 -27 18 -40.5t45 -13.5q18 0 35.5 11t25.5 23zM436 943l-185 -177h-66l97 177h154z" />
    <glyph glyph-name="AEacute" unicode="&#x1fc;" horiz-adv-x="1002" 
d="M954 212l-20 -212h-583l3 43l44 11q23 5 23 24v141h-198l-16 -29q-70 -127 2 -140l28 -5l3 -45h-251l3 45l23 6q40 10 67 42t90 150l132 248q18 38 9.5 57.5t-38.5 25.5l-42 8l-3 43h708v-225h-88l-20 69q-19 71 -54.5 88.5t-139.5 17.5l-57 1v-237h23q69 0 84 42l25 69
h65l-25 -268h-62l-12 63q-4 25 -20 34t-59 9h-19v-239l69 1q99 0 135 18.5t61 88.5l20 55h90zM421 268v309h-7l-165 -309h172zM766 864l-185 -177h-66l97 177h154z" />
    <glyph glyph-name="aeacute" unicode="&#x1fd;" horiz-adv-x="764" 
d="M323 93q-30 -51 -74.5 -79.5t-88.5 -28.5q-54 0 -90 31t-36 87q0 60 64 102t203 79v7q2 48 -25 79t-76 31q-16 0 -31.5 -3t-24 -6.5t-8.5 -5.5q0 -1 7 -8.5t14 -21.5t7 -30q0 -20 -19 -38t-46 -18q-30 0 -49.5 15.5t-19.5 40.5q0 53 77.5 99.5t176.5 46.5q84 0 125 -38
q62 39 141 39q77 0 129 -42.5t52 -117.5q0 -29 -6 -56l-271 4v-11q2 -79 35 -123t91 -44q73 0 129 73l24 -13q-22 -76 -78 -117t-141 -41q-62 0 -112.5 28.5t-78.5 79.5zM588 300q3 58 -11.5 90.5t-41.5 32.5q-36 0 -57.5 -32t-24.5 -95zM296 243q-124 -34 -124 -104
q0 -27 18 -40.5t45 -13.5q38 0 74 38q-15 41 -15 90q0 16 2 30zM575 697l-185 -177h-66l97 177h154z" />
    <glyph glyph-name="Oslashacute" unicode="&#x1fe;" horiz-adv-x="776" 
d="M736 317q0 -149 -102.5 -241t-248.5 -92q-80 0 -144 23l-47 -81h-56l58 100q-75 40 -115.5 112.5t-40.5 167.5q0 149 103 241t249 92q81 0 146 -24l42 73h56q-54 -92 -54 -93q74 -39 114 -111t40 -167zM491 534q-44 50 -106 50q-73 0 -118 -68t-45 -198q0 -114 36 -186z
M554 305q0 110 -34 183q-232 -400 -232 -401q42 -48 104 -48q72 0 117 67.5t45 198.5zM561 864l-185 -177h-66l97 177h154z" />
    <glyph glyph-name="oslashacute" unicode="&#x1ff;" horiz-adv-x="574" 
d="M512 573q-80 -139 -81 -139q50 -32 78.5 -86t28.5 -116q0 -105 -70 -176.5t-183 -71.5q-56 0 -103 19l-76 -132l-40 24l75 130q-49 33 -77 86t-28 114q0 105 71 176.5t184 71.5q55 0 99 -18l82 142zM347 381q-20 36 -68 36q-41 0 -63 -45t-22 -122q0 -64 11 -114z
M380 206q0 68 -12 118l-142 -246q21 -39 69 -39q41 0 63 45t22 122zM460 697l-185 -177h-66l97 177h154z" />
    <glyph glyph-name="Scommaaccent" unicode="&#x218;" horiz-adv-x="580" 
d="M539 196q0 -91 -69 -151.5t-190 -60.5q-103 0 -217 28l-6 206h89l44 -160q45 -13 90 -13q61 0 89 24.5t28 64.5q0 43 -33 65t-111 45q-105 29 -155 71t-50 120q0 88 68.5 145.5t187.5 57.5q61 0 154 -17l54 15v-216h-83l-50 146q-36 11 -79 11q-55 0 -86 -22t-31 -57
q0 -37 30 -57t98 -40q121 -34 174.5 -78.5t53.5 -126.5zM381 -148q0 -91 -138 -152l-22 28q38 16 56 35t18 48q0 24 -19.5 41t-39.5 24.5t-20 8.5q0 24 21 44.5t52 20.5q41 0 66.5 -28t25.5 -70z" />
    <glyph glyph-name="scommaaccent" unicode="&#x219;" horiz-adv-x="457" 
d="M425 136q0 -67 -57 -109t-158 -42q-106 0 -173 27l-4 133h85l26 -93q48 -16 71 -16q41 0 63.5 17.5t22.5 46.5q0 9 -3 16.5t-10.5 14t-13.5 10.5t-19.5 10t-20 8.5t-24.5 8.5l-24 8q-73 26 -110 57t-37 94q0 66 52.5 106t141.5 40q64 0 116 -16l57 10l4 -154h-77l-34 92
q-32 16 -64 16q-34 0 -53.5 -15.5t-19.5 -39.5q0 -15 4.5 -25.5t22 -20.5t25.5 -13l43 -15q7 -3 11 -4q37 -13 59.5 -23t48 -28t37.5 -43t12 -58zM313 -148q0 -91 -138 -152l-22 28q38 16 56 35t18 48q0 24 -19.5 41t-39.5 24.5t-20 8.5q0 24 21 44.5t52 20.5q41 0 66.5 -28
t25.5 -70z" />
    <glyph glyph-name="uni021A" unicode="&#x21a;" horiz-adv-x="662" 
d="M644 401h-85l-19 70q-10 35 -22.5 57.5t-28.5 32t-30 12.5t-35 3h-9v-510q0 -16 38 -18l38 -4l3 -44h-326l3 44l42 4q34 3 34 19v509h-6q-44 0 -72 -21.5t-47 -86.5l-19 -67h-93l21 224h613v-224zM417 -148q0 -91 -138 -152l-22 28q38 16 56 35t18 48q0 24 -19.5 41
t-39.5 24.5t-20 8.5q0 24 21 44.5t52 20.5q41 0 66.5 -28t25.5 -70z" />
    <glyph glyph-name="uni021B" unicode="&#x21b;" horiz-adv-x="390" 
d="M383 66q-67 -81 -175 -81q-68 0 -102.5 39t-33.5 114l3 235l-75 9l3 40l77 72l77 73l62 -6l-1 -113h162l-7 -71h-156l-2 -192q0 -58 21 -81t59 -23q47 0 85 18zM311 -154q0 -91 -138 -152l-22 28q38 16 56 35t18 48q0 24 -19.5 41t-39.5 24.5t-20 8.5q0 24 21 44.5
t52 20.5q41 0 66.5 -28t25.5 -70z" />
    <glyph glyph-name="dotlessj" unicode="&#x237;" horiz-adv-x="303" 
d="M230 21q-9 -132 -71.5 -207t-150.5 -75q-46 0 -72.5 21.5t-26.5 56.5q0 26 19.5 43.5t43.5 17.5q58 0 82 -72q24 8 24 175v311q0 46 -8 60t-35 22l-15 5l1 35l209 59v-452z" />
    <glyph glyph-name="circumflex" unicode="&#x2c6;" horiz-adv-x="400" 
d="M359 520h-47l-111 102h-2l-111 -102h-47l127 207h64z" />
    <glyph glyph-name="caron" unicode="&#x2c7;" horiz-adv-x="400" 
d="M359 727l-127 -207h-64l-127 207h47l111 -102h2l111 102h47z" />
    <glyph glyph-name="breve" unicode="&#x2d8;" horiz-adv-x="400" 
d="M364 697q-22 -182 -164 -182q-68 0 -110.5 45.5t-53.5 136.5h66q31 -102 98 -102t100 102h64z" />
    <glyph glyph-name="dotaccent" unicode="&#x2d9;" horiz-adv-x="400" 
d="M275 615q0 -33 -20.5 -56t-55.5 -23q-34 0 -54 23t-20 56t20 56.5t54 23.5q35 0 55.5 -23.5t20.5 -56.5z" />
    <glyph glyph-name="ring" unicode="&#x2da;" horiz-adv-x="400" 
d="M308 619q0 -46 -29.5 -77.5t-78.5 -31.5t-78.5 31.5t-29.5 77.5t29.5 77.5t78.5 31.5t78.5 -31.5t29.5 -77.5zM269 619q0 29 -19 50.5t-50 21.5t-50 -21.5t-19 -50.5t19 -50.5t50 -21.5t50 21.5t19 50.5z" />
    <glyph glyph-name="ogonek" unicode="&#x2db;" horiz-adv-x="400" 
d="M231 -225q-49 0 -78 25.5t-29 69.5q0 90 173 164h38q-102 -60 -102 -128q0 -23 14.5 -40.5t35.5 -17.5q31 0 53 22l10 -12q-4 -34 -35.5 -58.5t-79.5 -24.5z" />
    <glyph glyph-name="tilde" unicode="&#x2dc;" horiz-adv-x="400" 
d="M384 673q-7 -80 -34.5 -113.5t-75.5 -33.5q-30 0 -86.5 34t-72.5 34q-20 0 -29 -28q-2 -5 -9 -31h-61q8 81 35 114t75 33q30 0 84.5 -33.5t70.5 -33.5q17 0 27 14t19 44h57z" />
    <glyph glyph-name="hungarumlaut" unicode="&#x2dd;" horiz-adv-x="400" 
d="M500 697l-185 -177h-59l97 177h147zM300 697l-185 -177h-59l97 177h147z" />
    <glyph glyph-name="Wgrave" unicode="&#x1e80;" horiz-adv-x="987" 
d="M1030 625l-2 -46l-23 -7q-30 -9 -47 -23t-36 -52t-43 -115l-122 -382h-141l-104 371h-10l-122 -371h-144l-169 521q-8 24 -19 35.5t-33 15.5l-29 7l-3 46h336l-3 -46l-33 -4q-49 -6 -18 -108l91 -335h10l103 328l-16 61q-10 40 -52 51l-29 7l-3 46h336l-3 -46l-33 -4
q-27 -4 -30.5 -27t12.5 -81l84 -334h10l69 249q27 100 22 141t-42 51l-29 5l-4 46h269zM591 687h-67l-185 177h155z" />
    <glyph glyph-name="wgrave" unicode="&#x1e81;" horiz-adv-x="786" 
d="M805 458l-3 -43l-33 -10q-30 -9 -42 -41l-127 -373h-105l-105 295l-94 -295h-106l-138 380q-9 24 -38 34l-25 10l-3 43h276l-3 -43l-35 -12q-22 -7 -11 -40l72 -247l76 249l-2 6q-8 22 -38 33l-29 11l-3 43h278l-3 -43l-35 -12q-22 -7 -11 -40l72 -247l74 241
q13 35 -11 46l-34 12l-3 43h189zM475 520h-67l-185 177h155z" />
    <glyph glyph-name="Wacute" unicode="&#x1e82;" horiz-adv-x="987" 
d="M1030 625l-2 -46l-23 -7q-30 -9 -47 -23t-36 -52t-43 -115l-122 -382h-141l-104 371h-10l-122 -371h-144l-169 521q-8 24 -19 35.5t-33 15.5l-29 7l-3 46h336l-3 -46l-33 -4q-49 -6 -18 -108l91 -335h10l103 328l-16 61q-10 40 -52 51l-29 7l-3 46h336l-3 -46l-33 -4
q-27 -4 -30.5 -27t12.5 -81l84 -334h10l69 249q27 100 22 141t-42 51l-29 5l-4 46h269zM734 864l-185 -177h-66l97 177h154z" />
    <glyph glyph-name="wacute" unicode="&#x1e83;" horiz-adv-x="786" 
d="M805 458l-3 -43l-33 -10q-30 -9 -42 -41l-127 -373h-105l-105 295l-94 -295h-106l-138 380q-9 24 -38 34l-25 10l-3 43h276l-3 -43l-35 -12q-22 -7 -11 -40l72 -247l76 249l-2 6q-8 22 -38 33l-29 11l-3 43h278l-3 -43l-35 -12q-22 -7 -11 -40l72 -247l74 241
q13 35 -11 46l-34 12l-3 43h189zM624 697l-185 -177h-66l97 177h154z" />
    <glyph glyph-name="Wdieresis" unicode="&#x1e84;" horiz-adv-x="987" 
d="M1030 625l-2 -46l-23 -7q-30 -9 -47 -23t-36 -52t-43 -115l-122 -382h-141l-104 371h-10l-122 -371h-144l-169 521q-8 24 -19 35.5t-33 15.5l-29 7l-3 46h336l-3 -46l-33 -4q-49 -6 -18 -108l91 -335h10l103 328l-16 61q-10 40 -52 51l-29 7l-3 46h336l-3 -46l-33 -4
q-27 -4 -30.5 -27t12.5 -81l84 -334h10l69 249q27 100 22 141t-42 51l-29 5l-4 46h269zM719 772q0 -31 -19.5 -53t-52.5 -22q-32 0 -51 21.5t-19 53.5t19 54t51 22q33 0 52.5 -22t19.5 -54zM490 772q0 -32 -19 -53.5t-52 -21.5t-52.5 22t-19.5 53t19.5 53.5t52.5 22.5
t52 -22t19 -54z" />
    <glyph glyph-name="wdieresis" unicode="&#x1e85;" horiz-adv-x="786" 
d="M805 458l-3 -43l-33 -10q-30 -9 -42 -41l-127 -373h-105l-105 295l-94 -295h-106l-138 380q-9 24 -38 34l-25 10l-3 43h276l-3 -43l-35 -12q-22 -7 -11 -40l72 -247l76 249l-2 6q-8 22 -38 33l-29 11l-3 43h278l-3 -43l-35 -12q-22 -7 -11 -40l72 -247l74 241
q13 35 -11 46l-34 12l-3 43h189zM609 605q0 -31 -19.5 -53t-52.5 -22q-32 0 -51 21.5t-19 53.5t19 54t51 22q33 0 52.5 -22t19.5 -54zM380 605q0 -32 -19 -53.5t-52 -21.5t-52.5 22t-19.5 53t19.5 53.5t52.5 22.5t52 -22t19 -54z" />
    <glyph glyph-name="thinspace" unicode="&#x2009;" horiz-adv-x="76" 
 />
    <glyph glyph-name="endash" unicode="&#x2013;" horiz-adv-x="470" 
d="M439 221h-406l3 67h400z" />
    <glyph glyph-name="emdash" unicode="&#x2014;" horiz-adv-x="940" 
d="M909 221h-876l3 67h870z" />
    <glyph glyph-name="quoteleft" unicode="&#x2018;" horiz-adv-x="252" 
d="M224 408q0 -31 -24.5 -57t-62.5 -26q-50 0 -82 35.5t-32 87.5q0 121 168 224l32 -33q-52 -34 -75.5 -64t-23.5 -68q0 -31 25 -54t50 -33.5t25 -11.5z" />
    <glyph glyph-name="quoteright" unicode="&#x2019;" horiz-adv-x="252" 
d="M229 536q0 -121 -168 -224l-32 33q52 34 75.5 64t23.5 68q0 31 -25 54t-50 33.5t-25 11.5q0 31 24.5 57t62.5 26q50 0 82 -35.5t32 -87.5z" />
    <glyph glyph-name="quotesinglbase" unicode="&#x201a;" horiz-adv-x="252" 
d="M229 31q0 -121 -168 -224l-32 33q52 34 75.5 64t23.5 68q0 31 -25 54t-50 33.5t-25 11.5q0 31 24.5 57t62.5 26q50 0 82 -35.5t32 -87.5z" />
    <glyph glyph-name="quotedblleft" unicode="&#x201c;" horiz-adv-x="482" 
d="M454 408q0 -31 -24.5 -57t-62.5 -26q-50 0 -82 35.5t-32 87.5q0 121 168 224l32 -33q-52 -34 -75.5 -64t-23.5 -68q0 -31 25 -54t50 -33.5t25 -11.5zM224 408q0 -31 -24.5 -57t-62.5 -26q-50 0 -82 35.5t-32 87.5q0 121 168 224l32 -33q-52 -34 -75.5 -64t-23.5 -68
q0 -31 25 -54t50 -33.5t25 -11.5z" />
    <glyph glyph-name="quotedblright" unicode="&#x201d;" horiz-adv-x="482" 
d="M459 536q0 -121 -168 -224l-32 33q52 34 75.5 64t23.5 68q0 31 -25 54t-50 33.5t-25 11.5q0 31 24.5 57t62.5 26q50 0 82 -35.5t32 -87.5zM229 536q0 -121 -168 -224l-32 33q52 34 75.5 64t23.5 68q0 31 -25 54t-50 33.5t-25 11.5q0 31 24.5 57t62.5 26q50 0 82 -35.5
t32 -87.5z" />
    <glyph glyph-name="quotedblbase" unicode="&#x201e;" horiz-adv-x="472" 
d="M459 30q0 -121 -168 -224l-32 33q52 34 75.5 64t23.5 68q0 31 -25 54t-50 33.5t-25 11.5q0 31 24.5 57t62.5 26q50 0 82 -35.5t32 -87.5zM229 30q0 -121 -168 -224l-32 33q52 34 75.5 64t23.5 68q0 31 -25 54t-50 33.5t-25 11.5q0 31 24.5 57t62.5 26q50 0 82 -35.5
t32 -87.5z" />
    <glyph glyph-name="dagger" unicode="&#x2020;" horiz-adv-x="470" 
d="M444 435l-4 -49h-180v-541h-48v541h-179l-4 49h183v191h48v-191h184z" />
    <glyph glyph-name="daggerdbl" unicode="&#x2021;" horiz-adv-x="470" 
d="M444 20h-184v-175h-48v175h-183l4 48h179v333h-179l-4 48h183v177h48v-177h184l-4 -48h-180v-333h180z" />
    <glyph glyph-name="bullet" unicode="&#x2022;" horiz-adv-x="455" 
d="M420 232q0 -22 -20 -71.5t-36 -65.5q-15 -15 -65 -35.5t-72 -20.5q-21 0 -71 20.5t-64 35.5q-15 16 -36 66t-21 71q0 22 21 71.5t36 64.5t65 35.5t71 20.5q22 0 71.5 -20.5t64.5 -35.5t35.5 -64.5t20.5 -71.5z" />
    <glyph glyph-name="ellipsis" unicode="&#x2026;" horiz-adv-x="696" 
d="M670 72q0 -36 -25.5 -62t-62.5 -26t-62.5 25.5t-25.5 62.5t25.5 63t62.5 26q36 0 62 -26.5t26 -62.5zM438 72q0 -36 -25.5 -62t-62.5 -26t-62.5 25.5t-25.5 62.5t25.5 63t62.5 26q36 0 62 -26.5t26 -62.5zM206 72q0 -36 -25.5 -62t-62.5 -26t-62.5 25.5t-25.5 62.5
t25.5 63t62.5 26q36 0 62 -26.5t26 -62.5z" />
    <glyph glyph-name="perthousand" unicode="&#x2030;" horiz-adv-x="1126" 
d="M349 482q0 -69 -45.5 -117t-120.5 -48q-74 0 -120 48t-46 117q0 70 45.5 118.5t120.5 48.5t120.5 -48t45.5 -119zM654 639l-507 -654h-54l507 654h54zM1109 142q0 -70 -45.5 -118.5t-120.5 -48.5t-120.5 48t-45.5 119q0 69 45.5 117t120.5 48q74 0 120 -48t46 -117z
M729 142q0 -70 -45.5 -118.5t-120.5 -48.5t-120.5 48t-45.5 119q0 69 45.5 117t120.5 48q74 0 120 -48t46 -117zM300 482q0 52 -32 87t-85 35t-85 -35t-32 -87q0 -49 32 -84.5t85 -35.5t85 35.5t32 84.5zM1060 142q0 49 -32 84.5t-85 35.5t-85 -35.5t-32 -84.5q0 -52 32 -87
t85 -35t85 35t32 87zM680 142q0 49 -32 84.5t-85 35.5t-85 -35.5t-32 -84.5q0 -52 32 -87t85 -35t85 35t32 87z" />
    <glyph glyph-name="guilsinglleft" unicode="&#x2039;" horiz-adv-x="310" 
d="M291 50l-13 -22l-250 157v72l250 157l13 -22l-148 -171z" />
    <glyph glyph-name="guilsinglright" unicode="&#x203a;" horiz-adv-x="310" 
d="M297 185l-250 -157l-13 22l148 171l-148 171l13 22l250 -157v-72z" />
    <glyph glyph-name="fraction" unicode="&#x2044;" horiz-adv-x="525" 
d="M530 638l-469 -653h-66l469 653h66z" />
    <glyph glyph-name="zerosuperior" unicode="&#x2070;" horiz-adv-x="330" 
d="M163 268q-148 0 -148 187q0 92 40 146.5t107 54.5q72 0 112.5 -50.5t40.5 -139.5q0 -90 -41.5 -144t-110.5 -54zM162 295q23 0 31 30t8 124q0 109 -7 144.5t-30 35.5q-21 0 -27 -28.5t-6 -128.5q0 -114 5.5 -145.5t25.5 -31.5z" />
    <glyph glyph-name="foursuperior" unicode="&#x2074;" horiz-adv-x="330" 
d="M169 273v98h-162l-7 36l191 247h80v-241h61l-4 -42h-57v-98h-102zM44 413h125v159h-3z" />
    <glyph glyph-name="fivesuperior" unicode="&#x2075;" horiz-adv-x="330" 
d="M133 262q-124 0 -124 68q0 20 13 33t33 13q66 0 68 -86q1 3 8 3q29 0 52.5 15.5t23.5 42.5q0 77 -188 96l54 204h222l-2 -87h-201l-10 -37q121 -16 166 -49.5t45 -85.5q0 -51 -47 -90.5t-113 -39.5z" />
    <glyph glyph-name="sixsuperior" unicode="&#x2076;" horiz-adv-x="330" 
d="M166 265q-69 0 -111.5 46.5t-42.5 123.5q0 95 77 161t198 64l8 -28q-62 -1 -113 -47.5t-61 -92.5l4 -4q48 29 91 29q45 0 76 -29t31 -84q0 -58 -44 -98.5t-113 -40.5zM171 297q18 0 32.5 23t14.5 69q0 41 -16.5 60.5t-41.5 19.5q-17 0 -38 -7v-30q0 -64 13.5 -99.5
t35.5 -35.5z" />
    <glyph glyph-name="sevensuperior" unicode="&#x2077;" horiz-adv-x="330" 
d="M51 267l179 302v1h-22q-60 0 -88.5 -3t-35.5 -6.5t-15 -13.5l-22 -36h-33l20 140h281l3 -20l-180 -364h-87z" />
    <glyph glyph-name="eightsuperior" unicode="&#x2078;" horiz-adv-x="330" 
d="M161 265q-67 0 -109.5 24t-42.5 70q0 68 77 84v1q-36 16 -56 38t-20 62q0 46 39 81.5t117 35.5q72 0 111 -24.5t39 -71.5q0 -28 -21 -48t-60 -27v-1q88 -41 88 -108q0 -46 -43.5 -81t-118.5 -35zM198 499l4 8q5 8 7.5 13.5t5.5 16.5t3 21q0 28 -18 48.5t-46 20.5
q-49 0 -49 -46q0 -10 2 -18t8.5 -15.5t10.5 -12t16 -10.5t16.5 -8.5t20 -9t19.5 -8.5zM170 297q23 0 38 14t15 30q0 22 -15 39t-32.5 26t-45.5 21q-5 2 -8 3q-16 -16 -18 -56q-2 -34 16 -55.5t50 -21.5z" />
    <glyph glyph-name="ninesuperior" unicode="&#x2079;" horiz-adv-x="330" 
d="M43 266l-8 28q62 1 113 47.5t61 92.5l-4 4q-48 -29 -91 -29q-45 0 -76 29t-31 84q0 58 44 98.5t113 40.5t111.5 -46.5t42.5 -123.5q0 -95 -77 -161t-198 -64zM170 457q17 0 38 7v30q0 64 -13.5 99.5t-35.5 35.5q-18 0 -32.5 -23t-14.5 -69q0 -41 16.5 -60.5t41.5 -19.5z
" />
    <glyph glyph-name="plussuperior" unicode="&#x207a;" horiz-adv-x="330" 
d="M292 444h-107v-106h-36v106h-107l1 36h106v106h36v-106h105z" />
    <glyph glyph-name="minussuperior" unicode="&#x207b;" horiz-adv-x="330" 
d="M300 446h-250l1 33h247z" />
    <glyph glyph-name="zeroinferior" unicode="&#x2080;" horiz-adv-x="330" 
d="M163 -148q-148 0 -148 187q0 92 40 146.5t107 54.5q72 0 112.5 -50.5t40.5 -139.5q0 -90 -41.5 -144t-110.5 -54zM162 -121q23 0 31 30t8 124q0 109 -7 144.5t-30 35.5q-21 0 -27 -28.5t-6 -128.5q0 -114 5.5 -145.5t25.5 -31.5z" />
    <glyph glyph-name="oneinferior" unicode="&#x2081;" horiz-adv-x="330" 
d="M41 -143l2 36l53 8q15 6 15 14v243l-70 8l2 25l187 59v-335q0 -10 15 -14l41 -8l2 -36h-247z" />
    <glyph glyph-name="twoinferior" unicode="&#x2082;" horiz-adv-x="330" 
d="M17 -143l-6 41q19 18 61 56.5t59 56t33.5 47t16.5 57.5q0 23 -18 38t-46 15q-44 0 -100 -40l-9 17q63 100 157 100q61 0 95 -29t34 -82q0 -43 -40.5 -82t-149.5 -116v-4h42q106 0 113 3q4 2 6 5l18 29h29l-26 -112h-269z" />
    <glyph glyph-name="threeinferior" unicode="&#x2083;" horiz-adv-x="330" 
d="M129 -158q-46 0 -81.5 20t-35.5 53q0 18 13.5 32t31.5 14q31 0 44.5 -26t14.5 -59h10q26 0 45.5 24t19.5 60q0 28 -17 48.5t-40 20.5q-12 0 -36 -12l-15 25q9 5 26.5 15t26.5 16t20.5 14.5t16.5 18t5 20.5q0 21 -16.5 32.5t-39.5 11.5q-58 0 -100 -48l-16 21
q64 102 176 102q50 0 80.5 -23t30.5 -55q0 -39 -35.5 -64t-96.5 -45v-4q55 15 99.5 -6t44.5 -72q0 -54 -51 -94t-125 -40z" />
    <glyph glyph-name="fourinferior" unicode="&#x2084;" horiz-adv-x="330" 
d="M169 -143v98h-162l-7 36l191 247h80v-241h61l-4 -42h-57v-98h-102zM44 -3h125v159h-3z" />
    <glyph glyph-name="fiveinferior" unicode="&#x2085;" horiz-adv-x="330" 
d="M133 -154q-124 0 -124 68q0 20 13 33t33 13q66 0 68 -86q1 3 8 3q29 0 52.5 15.5t23.5 42.5q0 77 -188 96l54 204h222l-2 -87h-201l-10 -37q121 -16 166 -49.5t45 -85.5q0 -51 -47 -90.5t-113 -39.5z" />
    <glyph glyph-name="sixinferior" unicode="&#x2086;" horiz-adv-x="330" 
d="M166 -151q-69 0 -111.5 46.5t-42.5 123.5q0 95 77 161t198 64l8 -28q-62 -1 -113 -47.5t-61 -92.5l4 -4q48 29 91 29q45 0 76 -29t31 -84q0 -58 -44 -98.5t-113 -40.5zM171 -119q18 0 32.5 23t14.5 69q0 41 -16.5 60.5t-41.5 19.5q-17 0 -38 -7v-30q0 -64 13.5 -99.5
t35.5 -35.5z" />
    <glyph glyph-name="seveninferior" unicode="&#x2087;" horiz-adv-x="330" 
d="M51 -149l179 302v1h-22q-60 0 -88.5 -3t-35.5 -6.5t-15 -13.5l-22 -36h-33l20 140h281l3 -20l-180 -364h-87z" />
    <glyph glyph-name="eightinferior" unicode="&#x2088;" horiz-adv-x="330" 
d="M161 -151q-67 0 -109.5 24t-42.5 70q0 68 77 84v1q-36 16 -56 38t-20 62q0 46 39 81.5t117 35.5q72 0 111 -24.5t39 -71.5q0 -28 -21 -48t-60 -27v-1q88 -41 88 -108q0 -46 -43.5 -81t-118.5 -35zM198 83l4 8q5 8 7.5 13.5t5.5 16.5t3 21q0 28 -18 48.5t-46 20.5
q-49 0 -49 -46q0 -10 2 -18t8.5 -15.5t10.5 -12t16 -10.5t16.5 -8.5t20 -9t19.5 -8.5zM170 -119q23 0 38 14t15 30q0 22 -15 39t-32.5 26t-45.5 21q-5 2 -8 3q-16 -16 -18 -56q-2 -34 16 -55.5t50 -21.5z" />
    <glyph glyph-name="nineinferior" unicode="&#x2089;" horiz-adv-x="330" 
d="M43 -150l-8 28q62 1 113 47.5t61 92.5l-4 4q-48 -29 -91 -29q-45 0 -76 29t-31 84q0 58 44 98.5t113 40.5t111.5 -46.5t42.5 -123.5q0 -95 -77 -161t-198 -64zM170 41q17 0 38 7v30q0 64 -13.5 99.5t-35.5 35.5q-18 0 -32.5 -23t-14.5 -69q0 -41 16.5 -60.5t41.5 -19.5z
" />
    <glyph glyph-name="Euro" unicode="&#x20ac;" horiz-adv-x="534" 
d="M516 126q-20 -62 -75 -102t-124 -40q-95 0 -158 60t-84 175h-62l3 53h53q-1 8 -1 25q0 16 2 48h-57l3 53h63q26 105 99.5 167.5t178.5 62.5q67 0 104 -24.5t37 -63.5q0 -28 -18.5 -45.5t-45.5 -17.5q-32 0 -52.5 26.5t-21.5 65.5q-13 8 -30 8q-47 0 -81.5 -51t-45.5 -128
h204l3 -53h-212v-16q0 -30 3 -57h206l3 -53h-199q40 -142 149 -142q75 0 137 64z" />
    <glyph glyph-name="trademark" unicode="&#x2122;" horiz-adv-x="956" 
d="M938 253h-199l1 32l35 7q8 2 10.5 11.5t1.5 45.5l-5 232h-10l-88 -316h-86l-64 319h-10l-7 -195q-2 -43 -1 -64.5t3.5 -27.5t8.5 -7l32 -5l3 -32h-146l3 32l30 5q13 2 17 17.5t6 81.5l6 183q0 12 -13 15l-34 6l-2 32h193l42 -266h10l67 266h188l-2 -32l-33 -6
q-14 -3 -14 -15l4 -223q0 -24 3 -36.5t6.5 -15.5t10.5 -5l31 -7zM390 625v-153h-52l-4 19q-13 62 -26 81t-53 19h-1v-286q0 -11 12 -14l34 -6l3 -32h-196l3 32l34 6q13 3 13 14v286h-1q-36 0 -50 -20.5t-29 -79.5l-5 -19h-49l8 153h359z" />
    <glyph glyph-name="minus" unicode="&#x2212;" horiz-adv-x="480" 
d="M442 205h-404l3 61h398z" />
    <glyph glyph-name="uni2215" unicode="&#x2215;" horiz-adv-x="525" 
d="M530 638l-469 -653h-66l469 653h66z" />
    <glyph glyph-name="approxequal" unicode="&#x2248;" horiz-adv-x="480" 
d="M154 323q-21 0 -34.5 -11t-23.5 -47h-56q10 54 39.5 86.5t71.5 32.5q31 0 92 -33t83 -33q21 0 34.5 11.5t23.5 46.5h56q-10 -54 -39.5 -86.5t-71.5 -32.5q-37 0 -98.5 33t-76.5 33zM154 160q-21 0 -34.5 -11t-23.5 -47h-56q10 54 39.5 86.5t71.5 32.5q31 0 92 -33t83 -33
q21 0 34.5 11.5t23.5 46.5h56q-10 -54 -39.5 -86.5t-71.5 -32.5q-37 0 -98.5 33t-76.5 33z" />
    <glyph glyph-name="notequal" unicode="&#x2260;" horiz-adv-x="480" 
d="M138 -23l40 143h-141l3 61h156l30 107h-186l-3 61h206l38 133h61l-38 -133h139l-3 -61h-153l-30 -107h183l3 -61h-204l-40 -143h-61z" />
    <glyph glyph-name="lessequal" unicode="&#x2264;" horiz-adv-x="480" 
d="M139 270l302 -126l-14 -55l-395 166v40l395 166l14 -55l-302 -126v-10zM448 0h-416l3 61h410z" />
    <glyph glyph-name="greaterequal" unicode="&#x2265;" horiz-adv-x="480" 
d="M39 144l302 126v10l-302 126l14 55l395 -166v-40l-395 -166zM448 0h-416l3 61h410z" />
    <glyph glyph-name="pcircle" unicode="&#x24df;" horiz-adv-x="801" 
d="M771 311q0 -154 -108 -262t-262 -108t-262.5 108t-108.5 262q0 155 108.5 263.5t262.5 108.5t262 -108.5t108 -263.5zM727 311q0 136 -95.5 233t-230.5 97t-231 -97t-96 -233q0 -135 96 -232t231 -97t230.5 97t95.5 232zM586 393q0 -59 -45 -94.5t-115 -35.5q-23 0 -43 2
v-91q0 -10 14 -14l33 -8l4 -36h-194l3 36l28 8q14 4 14 14v271q0 10 -14 14l-28 8l-3 36h179q82 0 124.5 -29t42.5 -81zM485 386q0 37 -22.5 60t-55.5 23h-24v-170q30 -3 37 -3q65 0 65 90z" />
    <glyph glyph-name="commaaccent" unicode="&#xf6c3;" horiz-adv-x="400" 
d="M275 -148q0 -91 -138 -152l-22 28q38 16 56 35t18 48q0 24 -19.5 41t-39.5 24.5t-20 8.5q0 24 21 44.5t52 20.5q41 0 66.5 -28t25.5 -70z" />
    <glyph glyph-name="J.alt" horiz-adv-x="577" 
d="M557 625l-3 -44l-43 -11q-23 -5 -23 -24v-317q0 -120 -68 -182.5t-188 -62.5q-98 0 -150 38t-52 96q0 40 25 65.5t60 25.5q32 0 55 -19.5t23 -51.5q0 -41 -29 -74q34 -27 70 -27q38 0 62 32t24 100v377q0 19 -23 24l-64 12l-3 43h327z" />
    <glyph glyph-name="Jcircumflex.alt" horiz-adv-x="577" 
d="M557 625l-3 -44l-43 -11q-23 -5 -23 -24v-317q0 -120 -68 -182.5t-188 -62.5q-98 0 -150 38t-52 96q0 40 25 65.5t60 25.5q32 0 55 -19.5t23 -51.5q0 -41 -29 -74q34 -27 70 -27q38 0 62 32t24 100v377q0 19 -23 24l-64 12l-3 43h327zM554 687h-47l-111 102h-2l-111 -102
h-47l127 207h64z" />
    <glyph glyph-name="dot" horiz-adv-x="232" 
d="M204 250q0 -36 -25.5 -62t-62.5 -26t-62.5 25.5t-25.5 62.5t25.5 63t62.5 26q36 0 62 -26.5t26 -62.5z" />
    <glyph glyph-name="a.smallcap" horiz-adv-x="556" 
d="M561 0h-269l2 43l15 3q27 6 31.5 16.5t-10.5 57.5l-7 19h-174l-2 -6q-15 -47 -10 -63t34 -23l17 -4l3 -43h-197l2 43l15 4q21 5 31 12t27.5 36.5t40.5 88.5l96 247v28l144 25l144 -397q10 -30 53 -41l11 -3zM308 183l-66 186h-9l-69 -186h144z" />
    <glyph glyph-name="b.smallcap" horiz-adv-x="555" 
d="M522 128q0 -128 -221 -128h-266l3 43l30 9q17 4 17 18v333q0 14 -17 18l-30 9l-3 43h282q104 0 150 -27.5t46 -84.5q0 -83 -125 -111v-9q58 -3 96 -32t38 -81zM365 129q0 40 -28 65.5t-66 25.5h-38v-164l40 -15h2q90 7 90 88zM356 344q0 40 -28.5 63t-71.5 23h-23v-173
l33 1q90 3 90 86z" />
    <glyph glyph-name="c.smallcap" horiz-adv-x="595" 
d="M537 165l-12 -165l-71 12q-87 -28 -143 -28q-128 0 -202 63.5t-74 180.5q0 114 77 187t203 73q74 0 131 -22l87 22v-185h-84l-48 122q-25 17 -64 17q-68 0 -105 -54.5t-37 -146.5q0 -99 35 -155.5t96 -56.5q44 0 70 14l52 122h89z" />
    <glyph glyph-name="d.smallcap" horiz-adv-x="619" 
d="M575 243q0 -106 -79 -174.5t-214 -68.5h-247l3 43l30 9q17 4 17 18v333q0 14 -17 18l-30 9l-3 43l245 3q145 1 220 -59.5t75 -173.5zM414 226q0 95 -38.5 149t-113.5 54h-29v-374l55 -11q57 6 91.5 54.5t34.5 127.5z" />
    <glyph glyph-name="e.smallcap" horiz-adv-x="572" 
d="M527 170l-15 -170h-477l3 43l30 9q17 4 17 18v333q0 14 -17 18l-30 9l-3 43h485v-170h-78l-14 52q-12 45 -44 60t-102 15h-49v-173h16q49 0 60 31l20 53h56l-20 -203h-54l-10 47q-4 18 -16 25.5t-39 7.5h-13v-175h53q65 0 98.5 15.5t45.5 60.5l14 51h83z" />
    <glyph glyph-name="f.smallcap" horiz-adv-x="547" 
d="M511 303h-78l-14 52q-12 45 -44 60t-102 15h-40v-188h17q48 0 60 31l20 53h56l-20 -203h-54l-10 47q-4 18 -16 25.5t-39 7.5h-14v-133q0 -15 17 -18l46 -9l2 -43h-263l3 43l30 9q17 4 17 18v333q0 14 -17 18l-30 9l-3 43h476v-170z" />
    <glyph glyph-name="g.smallcap" horiz-adv-x="602" 
d="M557 221l-3 -43l-30 -9q-19 -6 -19 -18v-80l48 -5l4 -30q-36 -19 -109.5 -33.5t-140.5 -14.5q-132 0 -202 66t-70 175q0 116 77 187.5t203 71.5q74 0 131 -22l71 18v-177h-87l-46 119q-28 16 -57 16q-61 0 -96.5 -55t-35.5 -146q0 -102 30 -157t85 -55q36 0 54 14v108
q0 4 -1 6.5t-5 5t-6.5 3t-10.5 3.5l-30 9l-1 43h247z" />
    <glyph glyph-name="h.smallcap" horiz-adv-x="638" 
d="M603 0h-248l2 43l30 9q11 4 14 7t3 11v147h-171v-147q0 -14 17 -18l31 -9l2 -43h-248l3 43l30 9q17 4 17 18v333q0 14 -17 18l-30 9l-3 43h248l-2 -43l-31 -9q-17 -4 -17 -18v-142h171v142q0 8 -3 11t-14 7l-30 9l-2 43h248l-3 -43l-30 -9q-18 -6 -18 -18v-333
q0 -12 18 -18l30 -9z" />
    <glyph glyph-name="i.smallcap" horiz-adv-x="333" 
d="M298 0h-263l3 43l37 9q17 4 17 18v333q0 14 -17 18l-37 9l-3 43h263l-2 -43l-38 -9q-17 -4 -17 -18v-333q0 -14 17 -18l38 -9z" />
    <glyph glyph-name="j.smallcap" horiz-adv-x="425" 
d="M389 473l-3 -43l-30 -9q-18 -6 -18 -18v-175q0 -244 -205 -244q-54 0 -87.5 24t-33.5 58q0 24 15.5 39t41.5 15q29 0 55 -23q29 -27 32 -71h11q11 14 16 39t5.5 37.5t0.5 50.5v250q0 15 -17 18l-43 9l-3 43h263z" />
    <glyph glyph-name="j.smallcap.alt" horiz-adv-x="459" 
d="M435 473l-3 -43l-30 -9q-18 -5 -18 -18v-230q0 -91 -57.5 -140t-153.5 -49q-76 0 -116.5 33.5t-40.5 78.5q0 30 19.5 49.5t48.5 19.5q26 0 44 -15.5t18 -40.5q0 -38 -24 -54q22 -23 52 -23q62 0 62 96v275q0 14 -17 18l-48 9l-3 43h267z" />
    <glyph glyph-name="k.smallcap" horiz-adv-x="610" 
d="M609 0h-254l2 43l16 4q12 3 14 9.5t-1 12.5t-11 17l-88 132l-54 -49v-99q0 -14 17 -18l31 -9l2 -43h-248l3 43l30 9q17 4 17 18v333q0 14 -17 18l-30 9l-3 43h248l-2 -43l-31 -9q-17 -4 -17 -18v-175l126 121q35 34 35 55q0 17 -20 23l-21 6l-2 40h225l-2 -43l-42 -9
q-15 -3 -36 -17.5t-37.5 -29t-58.5 -53.5l-12 -11l157 -228q13 -20 43 -32l18 -7z" />
    <glyph glyph-name="l.smallcap" horiz-adv-x="506" 
d="M477 180l-14 -180h-428l3 43l30 9q17 4 17 18v333q0 14 -17 18l-30 9l-3 43h261l-3 -43l-43 -9q-17 -3 -17 -18v-360h8q69 0 100 19t44 67l14 51h78z" />
    <glyph glyph-name="m.smallcap" horiz-adv-x="776" 
d="M736 0h-248l1 43l29 9q11 4 14 7t3 11l-8 343h-15l-120 -398h-128l-85 404h-15l-10 -227q-4 -87 -0.5 -111.5t20.5 -28.5l39 -9l2 -43h-182l4 43l31 9q16 5 23 33.5t11 106.5l10 211q0 14 -17 18l-42 9l-2 43h267l55 -311h15l89 311h243l-2 -43l-29 -9q-18 -6 -18 -18
l12 -333q0 -7 3.5 -10.5t14.5 -7.5l31 -9z" />
    <glyph glyph-name="n.smallcap" horiz-adv-x="613" 
d="M589 473l-3 -43l-30 -9q-15 -4 -21 -32t-6 -108v-286h-146l-231 331h-15v-134q0 -78 6 -107t21 -33l40 -9l3 -43h-182l3 43l30 9q16 5 21.5 32.5t5.5 107.5v211q0 14 -17 18l-30 9l-3 43h196l231 -330h15v138q0 78 -6 107t-21 33l-40 9l-3 43h182z" />
    <glyph glyph-name="o.smallcap" horiz-adv-x="609" 
d="M574 240q0 -113 -79.5 -184.5t-193.5 -71.5q-126 0 -196 68t-70 180q0 113 80 184.5t194 71.5q124 0 194.5 -68t70.5 -180zM414 231q0 103 -30.5 155t-82.5 52q-49 0 -77.5 -49t-28.5 -148q0 -102 31 -154.5t83 -52.5q49 0 77 49t28 148z" />
    <glyph glyph-name="p.smallcap" horiz-adv-x="541" 
d="M519 333q0 -78 -69 -118.5t-178 -40.5q-18 0 -39 3v-107q0 -15 17 -18l46 -9l2 -43h-262l3 43l30 9q17 4 17 18v333q0 14 -17 18l-30 9l-4 43h266q111 0 164.5 -34t53.5 -106zM357 322q0 112 -108 112h-16v-215q12 -3 47 -3q33 0 55 30t22 76z" />
    <glyph glyph-name="q.smallcap" horiz-adv-x="609" 
d="M623 -119q-74 -19 -138 -19q-80 0 -132 29.5t-97 95.5q-106 12 -163.5 77.5t-57.5 167.5q0 113 80 184.5t194 71.5q124 0 194.5 -68t70.5 -180q0 -82 -44 -144t-117 -91q55 -89 206 -84zM414 231q0 103 -30.5 155t-82.5 52q-49 0 -77.5 -49t-28.5 -148q0 -102 31 -154.5
t83 -52.5q49 0 77 49t28 148z" />
    <glyph glyph-name="r.smallcap" horiz-adv-x="587" 
d="M570 0h-185l-33 67l-73 128l-46 2v-127q0 -14 17 -18l31 -9l2 -43h-248l3 43l30 9q17 4 17 18v333q0 14 -17 18l-30 9l-2 43h287q96 0 148 -33.5t52 -84.5q0 -98 -107 -140l93 -133q17 -25 35 -32l23 -7zM363 333q0 50 -28 75.5t-74 25.5h-29v-193l57 -6q32 5 53 31.5
t21 66.5z" />
    <glyph glyph-name="s.smallcap" horiz-adv-x="490" 
d="M443 143q0 -66 -56.5 -110.5t-150.5 -44.5q-84 0 -174 21l-3 146h82l33 -111q32 -10 65 -10q39 0 63 18t24 46q0 34 -26.5 53t-86.5 34q-85 21 -123 54t-38 96t52 105.5t137 42.5q61 0 142 -13l43 11v-163h-75l-43 111q-26 10 -67 10q-37 0 -58 -15.5t-21 -41.5
q0 -29 22.5 -47.5t73.5 -31.5q99 -25 142 -60t43 -100z" />
    <glyph glyph-name="t.smallcap" horiz-adv-x="577" 
d="M552 298h-78l-14 57q-11 43 -29.5 59t-47.5 16h-18v-360q0 -14 17 -18l38 -9l2 -43h-263l3 43l37 9q17 4 17 18v361h-15q-32 0 -50 -16.5t-29 -60.5l-14 -56h-83l15 175h512v-175z" />
    <glyph glyph-name="u.smallcap" horiz-adv-x="594" 
d="M577 473l-4 -33l-35 -10q-26 -13 -26 -151v-101q0 -198 -219 -198q-96 0 -154 46t-58 135v242q0 14 -17 18l-30 9l-3 43h248l-2 -43l-31 -9q-17 -4 -17 -18v-219q0 -75 27 -108.5t84 -33.5q60 0 90 34.5t30 110.5v94q0 78 -6 107t-21 33l-40 9l-3 43h187z" />
    <glyph glyph-name="v.smallcap" horiz-adv-x="565" 
d="M569 473l-2 -43l-14 -4q-20 -6 -30 -12.5t-27.5 -36t-39.5 -88.5l-109 -289h-130l-147 386q-13 31 -53 41l-12 3l-3 43h269l-2 -43l-14 -3q-28 -6 -32 -17.5t12 -56.5l90 -249h15l76 230q16 47 11.5 66t-34.5 26l-18 4l-3 43h197z" />
    <glyph glyph-name="w.smallcap" horiz-adv-x="844" 
d="M845 473l-2 -43l-15 -4q-19 -5 -29 -11.5t-27.5 -36.5t-38.5 -89l-104 -289h-130l-74 267h-15l-90 -267h-130l-124 386q-9 29 -53 41l-11 3l-3 43h274l-2 -43l-15 -3q-30 -6 -35.5 -17t9.5 -57l70 -249h15l77 254l-8 28q-9 29 -53 41l-11 3l-3 43h268l-2 -43l-15 -3
q-29 -6 -33 -23.5t7 -50.5l67 -249h15l70 230q15 48 10 66.5t-36 25.5l-17 4l-3 43h197z" />
    <glyph glyph-name="x.smallcap" horiz-adv-x="560" 
d="M560 0h-271l3 43l16 3q17 3 22.5 8t3.5 10t-10 16l-85 117h-3l-60 -73q-51 -62 0 -74l24 -6l2 -44h-196l2 43l15 5q26 9 51 30.5t65 67.5l70 80l-159 184q-9 11 -32 17l-11 3l-3 43h271l-3 -43l-16 -3q-25 -5 -27 -12.5t11 -21.5l80 -108h2l55 64q53 61 0 74l-24 6l-2 44
h196l-2 -43l-15 -5q-24 -8 -48.5 -29.5t-67.5 -68.5l-66 -73l166 -191q9 -10 32 -17l11 -3z" />
    <glyph glyph-name="y.smallcap" horiz-adv-x="541" 
d="M553 473l-2 -43l-15 -5q-28 -10 -53.5 -36t-64.5 -92l-66 -104v-123q0 -14 17 -18l38 -9l2 -43h-263l3 43l37 9q17 4 17 18v110l-156 230q-7 10 -32 17l-11 3l-3 43h266l-3 -43l-16 -3q-18 -3 -23 -13.5t0.5 -27t21.5 -43.5l62 -114h15l56 90q53 92 2 104l-24 6l-2 44
h197z" />
    <glyph glyph-name="z.smallcap" horiz-adv-x="543" 
d="M495 170l-16 -170h-437v41l284 384v5h-86q-33 0 -53.5 -15.5t-32.5 -61.5l-15 -54h-82v174h440v-45l-292 -380v-5h49q65 0 98.5 15.5t45.5 60.5l14 51h83z" />
    <glyph glyph-name="fi.smallcap" horiz-adv-x="880" 
d="M845 0h-263l3 43l37 9q17 4 17 18v333q0 14 -17 18l-37 9l-3 43h263l-2 -43l-38 -9q-17 -4 -17 -18v-333q0 -14 17 -18l38 -9zM511 303h-78l-14 52q-12 45 -44 60t-102 15h-40v-188h17q48 0 60 31l20 53h56l-20 -203h-54l-10 47q-4 18 -16 25.5t-39 7.5h-14v-133
q0 -15 17 -18l46 -9l2 -43h-263l3 43l30 9q17 4 17 18v333q0 14 -17 18l-30 9l-3 43h476v-170z" />
    <glyph glyph-name="fl.smallcap" horiz-adv-x="1053" 
d="M1024 180l-14 -180h-428l3 43l30 9q17 4 17 18v333q0 14 -17 18l-30 9l-3 43h261l-3 -43l-43 -9q-17 -3 -17 -18v-360h8q69 0 100 19t44 67l14 51h78zM511 303h-78l-14 52q-12 45 -44 60t-102 15h-40v-188h17q48 0 60 31l20 53h56l-20 -203h-54l-10 47q-4 18 -16 25.5
t-39 7.5h-14v-133q0 -15 17 -18l46 -9l2 -43h-263l3 43l30 9q17 4 17 18v333q0 14 -17 18l-30 9l-3 43h476v-170z" />
    <glyph glyph-name="ff.smallcap" horiz-adv-x="1094" 
d="M511 303h-78l-14 52q-12 45 -44 60t-102 15h-40v-188h17q48 0 60 31l20 53h56l-20 -203h-54l-10 47q-4 18 -16 25.5t-39 7.5h-14v-133q0 -15 17 -18l46 -9l2 -43h-263l3 43l30 9q17 4 17 18v333q0 14 -17 18l-30 9l-3 43h476v-170zM1058 303h-78l-14 52q-12 45 -44 60
t-102 15h-40v-188h17q48 0 60 31l20 53h56l-20 -203h-54l-10 47q-4 18 -16 25.5t-39 7.5h-14v-133q0 -15 17 -18l46 -9l2 -43h-263l3 43l30 9q17 4 17 18v333q0 14 -17 18l-30 9l-3 43h476v-170z" />
    <glyph glyph-name="ffi.smallcap" horiz-adv-x="1427" 
d="M511 303h-78l-14 52q-12 45 -44 60t-102 15h-40v-188h17q48 0 60 31l20 53h56l-20 -203h-54l-10 47q-4 18 -16 25.5t-39 7.5h-14v-133q0 -15 17 -18l46 -9l2 -43h-263l3 43l30 9q17 4 17 18v333q0 14 -17 18l-30 9l-3 43h476v-170zM1058 303h-78l-14 52q-12 45 -44 60
t-102 15h-40v-188h17q48 0 60 31l20 53h56l-20 -203h-54l-10 47q-4 18 -16 25.5t-39 7.5h-14v-133q0 -15 17 -18l46 -9l2 -43h-263l3 43l30 9q17 4 17 18v333q0 14 -17 18l-30 9l-3 43h476v-170zM1392 0h-263l3 43l37 9q17 4 17 18v333q0 14 -17 18l-37 9l-3 43h263l-2 -43
l-38 -9q-17 -4 -17 -18v-333q0 -14 17 -18l38 -9z" />
    <glyph glyph-name="ffl.smallcap" horiz-adv-x="1600" 
d="M511 303h-78l-14 52q-12 45 -44 60t-102 15h-40v-188h17q48 0 60 31l20 53h56l-20 -203h-54l-10 47q-4 18 -16 25.5t-39 7.5h-14v-133q0 -15 17 -18l46 -9l2 -43h-263l3 43l30 9q17 4 17 18v333q0 14 -17 18l-30 9l-3 43h476v-170zM1058 303h-78l-14 52q-12 45 -44 60
t-102 15h-40v-188h17q48 0 60 31l20 53h56l-20 -203h-54l-10 47q-4 18 -16 25.5t-39 7.5h-14v-133q0 -15 17 -18l46 -9l2 -43h-263l3 43l30 9q17 4 17 18v333q0 14 -17 18l-30 9l-3 43h476v-170zM1571 180l-14 -180h-428l3 43l30 9q17 4 17 18v333q0 14 -17 18l-30 9l-3 43
h261l-3 -43l-43 -9q-17 -3 -17 -18v-360h8q69 0 100 19t44 67l14 51h78z" />
    <glyph glyph-name="germandbls.smallcap" horiz-adv-x="980" 
d="M933 143q0 -66 -56.5 -110.5t-150.5 -44.5q-84 0 -174 21l-3 146h82l33 -111q32 -10 65 -10q39 0 63 18t24 46q0 34 -26.5 53t-86.5 34q-85 21 -123 54t-38 96t52 105.5t137 42.5q61 0 142 -13l43 11v-163h-75l-43 111q-26 10 -67 10q-37 0 -58 -15.5t-21 -41.5
q0 -29 22.5 -47.5t73.5 -31.5q99 -25 142 -60t43 -100zM443 143q0 -66 -56.5 -110.5t-150.5 -44.5q-84 0 -174 21l-3 146h82l33 -111q32 -10 65 -10q39 0 63 18t24 46q0 34 -26.5 53t-86.5 34q-85 21 -123 54t-38 96t52 105.5t137 42.5q61 0 142 -13l43 11v-163h-75l-43 111
q-26 10 -67 10q-37 0 -58 -15.5t-21 -41.5q0 -29 22.5 -47.5t73.5 -31.5q99 -25 142 -60t43 -100z" />
    <glyph glyph-name="agrave.smallcap" horiz-adv-x="556" 
d="M561 0h-269l2 43l15 3q27 6 31.5 16.5t-10.5 57.5l-7 19h-174l-2 -6q-15 -47 -10 -63t34 -23l17 -4l3 -43h-197l2 43l15 4q21 5 31 12t27.5 36.5t40.5 88.5l96 247v28l144 25l144 -397q10 -30 53 -41l11 -3zM308 183l-66 186h-9l-69 -186h144zM335 520h-67l-185 177h155z
" />
    <glyph glyph-name="aacute.smallcap" horiz-adv-x="556" 
d="M561 0h-269l2 43l15 3q27 6 31.5 16.5t-10.5 57.5l-7 19h-174l-2 -6q-15 -47 -10 -63t34 -23l17 -4l3 -43h-197l2 43l15 4q21 5 31 12t27.5 36.5t40.5 88.5l96 247v28l144 25l144 -397q10 -30 53 -41l11 -3zM308 183l-66 186h-9l-69 -186h144zM471 697l-185 -177h-66
l97 177h154z" />
    <glyph glyph-name="acircumflex.smallcap" horiz-adv-x="556" 
d="M561 0h-269l2 43l15 3q27 6 31.5 16.5t-10.5 57.5l-7 19h-174l-2 -6q-15 -47 -10 -63t34 -23l17 -4l3 -43h-197l2 43l15 4q21 5 31 12t27.5 36.5t40.5 88.5l96 247v28l144 25l144 -397q10 -30 53 -41l11 -3zM308 183l-66 186h-9l-69 -186h144zM444 520h-47l-111 102h-2
l-111 -102h-47l127 207h64z" />
    <glyph glyph-name="atilde.smallcap" horiz-adv-x="556" 
d="M561 0h-269l2 43l15 3q27 6 31.5 16.5t-10.5 57.5l-7 19h-174l-2 -6q-15 -47 -10 -63t34 -23l17 -4l3 -43h-197l2 43l15 4q21 5 31 12t27.5 36.5t40.5 88.5l96 247v28l144 25l144 -397q10 -30 53 -41l11 -3zM308 183l-66 186h-9l-69 -186h144zM465 673
q-7 -80 -34.5 -113.5t-75.5 -33.5q-30 0 -86.5 34t-72.5 34q-11 0 -17.5 -6.5t-10 -16.5t-8.5 -28q-1 -5 -2 -8h-61q8 81 35 114t75 33q30 0 84.5 -33.5t70.5 -33.5q17 0 27 14t19 44h57z" />
    <glyph glyph-name="adieresis.smallcap" horiz-adv-x="556" 
d="M561 0h-269l2 43l15 3q27 6 31.5 16.5t-10.5 57.5l-7 19h-174l-2 -6q-15 -47 -10 -63t34 -23l17 -4l3 -43h-197l2 43l15 4q21 5 31 12t27.5 36.5t40.5 88.5l96 247v28l144 25l144 -397q10 -30 53 -41l11 -3zM308 183l-66 186h-9l-69 -186h144zM461 605q0 -31 -19.5 -53
t-52.5 -22q-32 0 -51 21.5t-19 53.5t19 54t51 22q33 0 52.5 -22t19.5 -54zM232 605q0 -32 -19 -53.5t-52 -21.5t-52.5 22t-19.5 53t19.5 53.5t52.5 22.5t52 -22t19 -54z" />
    <glyph glyph-name="aring.smallcap" horiz-adv-x="556" 
d="M214 454q-44 31 -44 90q0 46 29.5 77.5t78.5 31.5t78.5 -31.5t29.5 -77.5q0 -47 -30 -77l138 -380q10 -30 53 -41l11 -3l3 -43h-269l2 43l15 3q27 6 31.5 16.5t-10.5 57.5l-7 19h-174l-2 -6q-15 -47 -10 -63t34 -23l17 -4l3 -43h-197l2 43l15 4q21 5 31 12t27.5 36.5
t40.5 88.5zM347 544q0 29 -19 50.5t-50 21.5t-50 -21.5t-19 -50.5t19 -50.5t50 -21.5t50 21.5t19 50.5zM308 183l-64 186h-15l-65 -186h144z" />
    <glyph glyph-name="aringacute.smallcap" horiz-adv-x="556" 
d="M214 454q-44 31 -44 90q0 46 29.5 77.5t78.5 31.5t78.5 -31.5t29.5 -77.5q0 -47 -30 -77l138 -380q10 -30 53 -41l11 -3l3 -43h-269l2 43l15 3q27 6 31.5 16.5t-10.5 57.5l-7 19h-174l-2 -6q-15 -47 -10 -63t34 -23l17 -4l3 -43h-197l2 43l15 4q21 5 31 12t27.5 36.5
t40.5 88.5zM347 544q0 29 -19 50.5t-50 21.5t-50 -21.5t-19 -50.5t19 -50.5t50 -21.5t50 21.5t19 50.5zM308 183l-64 186h-15l-65 -186h144zM471 847l-185 -177h-66l97 177h154z" />
    <glyph glyph-name="amacron.smallcap" horiz-adv-x="556" 
d="M561 0h-269l2 43l15 3q27 6 31.5 16.5t-10.5 57.5l-7 19h-174l-2 -6q-15 -47 -10 -63t34 -23l17 -4l3 -43h-197l2 43l15 4q21 5 31 12t27.5 36.5t40.5 88.5l96 247v28l144 25l144 -397q10 -30 53 -41l11 -3zM308 183l-66 186h-9l-69 -186h144zM457 551h-338l9 74h320z
" />
    <glyph glyph-name="abreve.smallcap" horiz-adv-x="556" 
d="M561 0h-269l2 43l15 3q27 6 31.5 16.5t-10.5 57.5l-7 19h-174l-2 -6q-15 -47 -10 -63t34 -23l17 -4l3 -43h-197l2 43l15 4q21 5 31 12t27.5 36.5t40.5 88.5l96 247v28l144 25l144 -397q10 -30 53 -41l11 -3zM455 697q-22 -182 -164 -182q-68 0 -110.5 45.5t-53.5 136.5
h66q31 -102 98 -102t100 102h64zM308 183l-66 186h-9l-69 -186h144z" />
    <glyph glyph-name="aogonek.smallcap" horiz-adv-x="556" 
d="M447 -225q-49 0 -78 25.5t-29 69.5q0 71 103 130h-151l2 43l15 3q27 6 31.5 16.5t-10.5 57.5l-7 19h-174l-2 -6q-15 -47 -10 -63t34 -23l17 -4l3 -43h-197l2 43l15 4q21 5 31 12t27.5 36.5t40.5 88.5l96 247v28l144 25l144 -397q10 -30 53 -41l11 -3l3 -43
q-43 -8 -77.5 -35t-34.5 -59q0 -23 14.5 -40.5t35.5 -17.5q31 0 53 22l10 -12q-4 -34 -35.5 -58.5t-79.5 -24.5zM308 183l-66 186h-9l-69 -186h144z" />
    <glyph glyph-name="ae.smallcap" horiz-adv-x="819" 
d="M774 170l-15 -170h-477l3 43l30 9q17 4 17 18v97h-151l-15 -28q-17 -32 -21 -50t2 -27.5t25 -14.5l16 -4l3 -43h-197l2 43l16 4q23 6 34.5 12.5t33.5 35.5t55 89l112 200q8 14 5 23.5t-13 11.5l-64 11l-3 43h595v-170h-78l-14 52q-12 45 -44 60t-102 15h-49v-173h16
q49 0 60 31l20 53h56l-20 -203h-54l-10 47q-4 18 -16 25.5t-39 7.5h-13v-175h53q65 0 98.5 15.5t45.5 60.5l14 51h83zM332 211v212h-15l-113 -212h128z" />
    <glyph glyph-name="aeacute.smallcap" horiz-adv-x="819" 
d="M774 170l-15 -170h-477l3 43l30 9q17 4 17 18v97h-151l-15 -28q-17 -32 -21 -50t2 -27.5t25 -14.5l16 -4l3 -43h-197l2 43l16 4q23 6 34.5 12.5t33.5 35.5t55 89l112 200q8 14 5 23.5t-13 11.5l-64 11l-3 43h595v-170h-78l-14 52q-12 45 -44 60t-102 15h-49v-173h16
q49 0 60 31l20 53h56l-20 -203h-54l-10 47q-4 18 -16 25.5t-39 7.5h-13v-175h53q65 0 98.5 15.5t45.5 60.5l14 51h83zM332 211v212h-15l-113 -212h128zM632 697l-185 -177h-66l97 177h154z" />
    <glyph glyph-name="ccedilla.smallcap" horiz-adv-x="595" 
d="M290 -16q-119 5 -187 68.5t-68 175.5q0 114 77 187t203 73q74 0 131 -22l87 22v-185h-84l-48 122q-25 17 -64 17q-68 0 -105 -54.5t-37 -146.5q0 -99 35 -155.5t96 -56.5q44 0 70 14l52 122h89l-12 -165l-71 12q-68 -22 -107 -26l-38 -38q66 -4 104 -29.5t38 -68.5
q0 -57 -64.5 -91.5t-168.5 -38.5l-11 30q76 8 117 28t41 49q0 50 -84 50q-43 0 -76 -8v28z" />
    <glyph glyph-name="cacute.smallcap" horiz-adv-x="595" 
d="M537 165l-12 -165l-71 12q-87 -28 -143 -28q-128 0 -202 63.5t-74 180.5q0 114 77 187t203 73q74 0 131 -22l87 22v-185h-84l-48 122q-25 17 -64 17q-68 0 -105 -54.5t-37 -146.5q0 -99 35 -155.5t96 -56.5q44 0 70 14l52 122h89zM501 697l-185 -177h-66l97 177h154z" />
    <glyph glyph-name="ccircumflex.smallcap" horiz-adv-x="595" 
d="M537 165l-12 -165l-71 12q-87 -28 -143 -28q-128 0 -202 63.5t-74 180.5q0 114 77 187t203 73q74 0 131 -22l87 22v-185h-84l-48 122q-25 17 -64 17q-68 0 -105 -54.5t-37 -146.5q0 -99 35 -155.5t96 -56.5q44 0 70 14l52 122h89zM487 520h-47l-111 102h-2l-111 -102h-47
l127 207h64z" />
    <glyph glyph-name="cdotaccent.smallcap" horiz-adv-x="595" 
d="M537 165l-12 -165l-71 12q-87 -28 -143 -28q-128 0 -202 63.5t-74 180.5q0 114 77 187t203 73q74 0 131 -22l87 22v-185h-84l-48 122q-25 17 -64 17q-68 0 -105 -54.5t-37 -146.5q0 -99 35 -155.5t96 -56.5q44 0 70 14l52 122h89zM403 615q0 -33 -20.5 -56t-55.5 -23
q-34 0 -54 23t-20 56t20 56.5t54 23.5q35 0 55.5 -23.5t20.5 -56.5z" />
    <glyph glyph-name="ccaron.smallcap" horiz-adv-x="595" 
d="M537 165l-12 -165l-71 12q-87 -28 -143 -28q-128 0 -202 63.5t-74 180.5q0 114 77 187t203 73q74 0 131 -22l87 22v-185h-84l-48 122q-25 17 -64 17q-68 0 -105 -54.5t-37 -146.5q0 -99 35 -155.5t96 -56.5q44 0 70 14l52 122h89zM478 727l-127 -207h-64l-127 207h47
l111 -102h2l111 102h47z" />
    <glyph glyph-name="dcaron.smallcap" horiz-adv-x="619" 
d="M429 727l-127 -207h-64l-127 207h47l111 -102h2l111 102h47zM575 243q0 -106 -79 -174.5t-214 -68.5h-247l3 43l30 9q17 4 17 18v333q0 14 -17 18l-30 9l-3 43l245 3q145 1 220 -59.5t75 -173.5zM414 226q0 95 -38.5 149t-113.5 54h-29v-374l55 -11q57 6 91.5 54.5
t34.5 127.5z" />
    <glyph glyph-name="eth.smallcap" horiz-adv-x="629" 
d="M95 214h-63l3 51h60v138q0 14 -17 18l-30 9l-3 43l245 3q145 1 220 -59.5t75 -173.5q0 -106 -79 -174.5t-214 -68.5h-247l3 43l30 9q17 4 17 18v144zM243 265h90l3 -51h-93v-159l55 -11q57 6 91.5 54.5t34.5 127.5q0 95 -38.5 149t-113.5 54h-29v-164z" />
    <glyph glyph-name="dcroat.smallcap" horiz-adv-x="629" 
d="M95 214h-63l3 51h60v138q0 14 -17 18l-30 9l-3 43l245 3q145 1 220 -59.5t75 -173.5q0 -106 -79 -174.5t-214 -68.5h-247l3 43l30 9q17 4 17 18v144zM243 265h90l3 -51h-93v-159l55 -11q57 6 91.5 54.5t34.5 127.5q0 95 -38.5 149t-113.5 54h-29v-164z" />
    <glyph glyph-name="egrave.smallcap" horiz-adv-x="572" 
d="M527 170l-15 -170h-477l3 43l30 9q17 4 17 18v333q0 14 -17 18l-30 9l-3 43h485v-170h-78l-14 52q-12 45 -44 60t-102 15h-49v-173h16q49 0 60 31l20 53h56l-20 -203h-54l-10 47q-4 18 -16 25.5t-39 7.5h-13v-175h53q65 0 98.5 15.5t45.5 60.5l14 51h83zM336 520h-67
l-185 177h155z" />
    <glyph glyph-name="eacute.smallcap" horiz-adv-x="572" 
d="M527 170l-15 -170h-477l3 43l30 9q17 4 17 18v333q0 14 -17 18l-30 9l-3 43h485v-170h-78l-14 52q-12 45 -44 60t-102 15h-49v-173h16q49 0 60 31l20 53h56l-20 -203h-54l-10 47q-4 18 -16 25.5t-39 7.5h-13v-175h53q65 0 98.5 15.5t45.5 60.5l14 51h83zM489 697
l-185 -177h-66l97 177h154z" />
    <glyph glyph-name="ecircumflex.smallcap" horiz-adv-x="572" 
d="M527 170l-15 -170h-477l3 43l30 9q17 4 17 18v333q0 14 -17 18l-30 9l-3 43h485v-170h-78l-14 52q-12 45 -44 60t-102 15h-49v-173h16q49 0 60 31l20 53h56l-20 -203h-54l-10 47q-4 18 -16 25.5t-39 7.5h-13v-175h53q65 0 98.5 15.5t45.5 60.5l14 51h83zM445 520h-47
l-111 102h-2l-111 -102h-47l127 207h64z" />
    <glyph glyph-name="edieresis.smallcap" horiz-adv-x="572" 
d="M527 170l-15 -170h-477l3 43l30 9q17 4 17 18v333q0 14 -17 18l-30 9l-3 43h485v-170h-78l-14 52q-12 45 -44 60t-102 15h-49v-173h16q49 0 60 31l20 53h56l-20 -203h-54l-10 47q-4 18 -16 25.5t-39 7.5h-13v-175h53q65 0 98.5 15.5t45.5 60.5l14 51h83zM461 605
q0 -31 -19.5 -53t-52.5 -22q-32 0 -51 21.5t-19 53.5t19 54t51 22q33 0 52.5 -22t19.5 -54zM232 605q0 -32 -19 -53.5t-52 -21.5t-52.5 22t-19.5 53t19.5 53.5t52.5 22.5t52 -22t19 -54z" />
    <glyph glyph-name="emacron.smallcap" horiz-adv-x="572" 
d="M527 170l-15 -170h-477l3 43l30 9q17 4 17 18v333q0 14 -17 18l-30 9l-3 43h485v-170h-78l-14 52q-12 45 -44 60t-102 15h-49v-173h16q49 0 60 31l20 53h56l-20 -203h-54l-10 47q-4 18 -16 25.5t-39 7.5h-13v-175h53q65 0 98.5 15.5t45.5 60.5l14 51h83zM455 551h-338
l9 74h320z" />
    <glyph glyph-name="ebreve.smallcap" horiz-adv-x="572" 
d="M527 170l-15 -170h-477l3 43l30 9q17 4 17 18v333q0 14 -17 18l-30 9l-3 43h485v-170h-78l-14 52q-12 45 -44 60t-102 15h-49v-173h16q49 0 60 31l20 53h56l-20 -203h-54l-10 47q-4 18 -16 25.5t-39 7.5h-13v-175h53q65 0 98.5 15.5t45.5 60.5l14 51h83zM460 697
q-22 -182 -164 -182q-68 0 -110.5 45.5t-53.5 136.5h66q31 -102 98 -102t100 102h64z" />
    <glyph glyph-name="edotaccent.smallcap" horiz-adv-x="572" 
d="M527 170l-15 -170h-477l3 43l30 9q17 4 17 18v333q0 14 -17 18l-30 9l-3 43h485v-170h-78l-14 52q-12 45 -44 60t-102 15h-49v-173h16q49 0 60 31l20 53h56l-20 -203h-54l-10 47q-4 18 -16 25.5t-39 7.5h-13v-175h53q65 0 98.5 15.5t45.5 60.5l14 51h83zM371 615
q0 -33 -20.5 -56t-55.5 -23q-34 0 -54 23t-20 56t20 56.5t54 23.5q35 0 55.5 -23.5t20.5 -56.5z" />
    <glyph glyph-name="eogonek.smallcap" horiz-adv-x="572" 
d="M396 -225q-49 0 -78 25.5t-29 69.5q0 71 103 130h-357l3 43l30 9q17 4 17 18v333q0 14 -17 18l-30 9l-3 43h485v-170h-78l-14 52q-12 45 -44 60t-102 15h-49v-173h16q49 0 60 31l20 53h56l-20 -203h-54l-10 47q-4 18 -16 25.5t-39 7.5h-13v-175h53q65 0 98.5 15.5
t45.5 60.5l14 51h83l-15 -170h-61q-53 -45 -53 -94q0 -23 14.5 -40.5t35.5 -17.5q31 0 53 22l10 -12q-4 -34 -35.5 -58.5t-79.5 -24.5z" />
    <glyph glyph-name="ecaron.smallcap" horiz-adv-x="572" 
d="M527 170l-15 -170h-477l3 43l30 9q17 4 17 18v333q0 14 -17 18l-30 9l-3 43h485v-170h-78l-14 52q-12 45 -44 60t-102 15h-49v-173h16q49 0 60 31l20 53h56l-20 -203h-54l-10 47q-4 18 -16 25.5t-39 7.5h-13v-175h53q65 0 98.5 15.5t45.5 60.5l14 51h83zM455 727
l-127 -207h-64l-127 207h47l111 -102h2l111 102h47z" />
    <glyph glyph-name="gcircumflex.smallcap" horiz-adv-x="602" 
d="M557 221l-3 -43l-30 -9q-19 -6 -19 -18v-80l48 -5l4 -30q-36 -19 -109.5 -33.5t-140.5 -14.5q-132 0 -202 66t-70 175q0 116 77 187.5t203 71.5q74 0 131 -22l71 18v-177h-87l-46 119q-28 16 -57 16q-61 0 -96.5 -55t-35.5 -146q0 -102 30 -157t85 -55q36 0 54 14v108
q0 4 -1 6.5t-5 5t-6.5 3t-10.5 3.5l-30 9l-1 43h247zM461 520h-47l-111 102h-2l-111 -102h-47l127 207h64z" />
    <glyph glyph-name="gbreve.smallcap" horiz-adv-x="602" 
d="M557 221l-3 -43l-30 -9q-19 -6 -19 -18v-80l48 -5l4 -30q-36 -19 -109.5 -33.5t-140.5 -14.5q-132 0 -202 66t-70 175q0 116 77 187.5t203 71.5q74 0 131 -22l71 18v-177h-87l-46 119q-28 16 -57 16q-61 0 -96.5 -55t-35.5 -146q0 -102 30 -157t85 -55q36 0 54 14v108
q0 4 -1 6.5t-5 5t-6.5 3t-10.5 3.5l-30 9l-1 43h247zM467 697q-22 -182 -164 -182q-68 0 -110.5 45.5t-53.5 136.5h66q31 -102 98 -102t100 102h64z" />
    <glyph glyph-name="gdotaccent.smallcap" horiz-adv-x="602" 
d="M557 221l-3 -43l-30 -9q-19 -6 -19 -18v-80l48 -5l4 -30q-36 -19 -109.5 -33.5t-140.5 -14.5q-132 0 -202 66t-70 175q0 116 77 187.5t203 71.5q74 0 131 -22l71 18v-177h-87l-46 119q-28 16 -57 16q-61 0 -96.5 -55t-35.5 -146q0 -102 30 -157t85 -55q36 0 54 14v108
q0 4 -1 6.5t-5 5t-6.5 3t-10.5 3.5l-30 9l-1 43h247zM381 615q0 -33 -20.5 -56t-55.5 -23q-34 0 -54 23t-20 56t20 56.5t54 23.5q35 0 55.5 -23.5t20.5 -56.5z" />
    <glyph glyph-name="gcommaaccent.smallcap" horiz-adv-x="602" 
d="M557 221l-3 -43l-30 -9q-19 -6 -19 -18v-80l48 -5l4 -30q-36 -19 -109.5 -33.5t-140.5 -14.5q-132 0 -202 66t-70 175q0 116 77 187.5t203 71.5q74 0 131 -22l71 18v-177h-87l-46 119q-28 16 -57 16q-61 0 -96.5 -55t-35.5 -146q0 -102 30 -157t85 -55q36 0 54 14v108
q0 4 -1 6.5t-5 5t-6.5 3t-10.5 3.5l-30 9l-1 43h247zM414 -155q0 -91 -138 -152l-22 28q38 16 56 35t18 48q0 24 -20 41t-39.5 24.5t-19.5 8.5q0 24 21 44.5t52 20.5q41 0 66.5 -28t25.5 -70z" />
    <glyph glyph-name="hcircumflex.smallcap" horiz-adv-x="638" 
d="M603 0h-248l2 43l30 9q11 4 14 7t3 11v147h-171v-147q0 -14 17 -18l31 -9l2 -43h-248l3 43l30 9q17 4 17 18v333q0 14 -17 18l-30 9l-3 43h248l-2 -43l-31 -9q-17 -4 -17 -18v-142h171v142q0 8 -3 11t-14 7l-30 9l-2 43h248l-3 -43l-30 -9q-18 -6 -18 -18v-333
q0 -12 18 -18l30 -9zM478 521h-47l-111 102h-2l-111 -102h-47l127 207h64z" />
    <glyph glyph-name="hbar.smallcap" horiz-adv-x="638" 
d="M603 0h-248l2 43l30 9q11 4 14 7t3 11v147h-171v-147q0 -14 17 -18l31 -9l2 -43h-248l3 43l30 9q17 4 17 18v240h-84l9 53h75v40q0 14 -17 18l-30 9l-3 43h248l-2 -43l-31 -9q-17 -4 -17 -18v-40h171v40q0 8 -3 11t-14 7l-30 9l-2 43h248l-3 -43l-30 -9q-18 -6 -18 -18
v-40h75l9 -53h-84v-240q0 -12 18 -18l30 -9zM233 261h171v49h-171v-49z" />
    <glyph glyph-name="igrave.smallcap" horiz-adv-x="333" 
d="M298 0h-263l3 43l37 9q17 4 17 18v333q0 14 -17 18l-37 9l-3 43h263l-2 -43l-38 -9q-17 -4 -17 -18v-333q0 -14 17 -18l38 -9zM206 520h-67l-185 177h155z" />
    <glyph glyph-name="iacute.smallcap" horiz-adv-x="333" 
d="M298 0h-263l3 43l37 9q17 4 17 18v333q0 14 -17 18l-37 9l-3 43h263l-2 -43l-38 -9q-17 -4 -17 -18v-333q0 -14 17 -18l38 -9zM379 697l-185 -177h-66l97 177h154z" />
    <glyph glyph-name="icircumflex.smallcap" horiz-adv-x="333" 
d="M298 0h-263l3 43l37 9q17 4 17 18v333q0 14 -17 18l-37 9l-3 43h263l-2 -43l-38 -9q-17 -4 -17 -18v-333q0 -14 17 -18l38 -9zM325 520h-47l-111 102h-2l-111 -102h-47l127 207h64z" />
    <glyph glyph-name="idieresis.smallcap" horiz-adv-x="333" 
d="M298 0h-263l3 43l37 9q17 4 17 18v333q0 14 -17 18l-37 9l-3 43h263l-2 -43l-38 -9q-17 -4 -17 -18v-333q0 -14 17 -18l38 -9zM352 605q0 -31 -19.5 -53t-52.5 -22q-32 0 -51 21.5t-19 53.5t19 54t51 22q33 0 52.5 -22t19.5 -54zM123 605q0 -32 -19 -53.5t-52 -21.5
t-52.5 22t-19.5 53t19.5 53.5t52.5 22.5t52 -22t19 -54z" />
    <glyph glyph-name="imacron.smallcap" horiz-adv-x="333" 
d="M298 0h-263l3 43l37 9q17 4 17 18v333q0 14 -17 18l-37 9l-3 43h263l-2 -43l-38 -9q-17 -4 -17 -18v-333q0 -14 17 -18l38 -9zM335 551h-338l9 74h320z" />
    <glyph glyph-name="ibreve.smallcap" horiz-adv-x="333" 
d="M298 0h-263l3 43l37 9q17 4 17 18v333q0 14 -17 18l-37 9l-3 43h263l-2 -43l-38 -9q-17 -4 -17 -18v-333q0 -14 17 -18l38 -9zM330 697q-22 -182 -164 -182q-68 0 -110.5 45.5t-53.5 136.5h66q31 -102 98 -102t100 102h64z" />
    <glyph glyph-name="iogonek.smallcap" horiz-adv-x="333" 
d="M184 -225q-49 0 -78 25.5t-29 69.5q0 71 103 130h-145l3 43l37 9q17 4 17 18v333q0 14 -17 18l-37 9l-3 43h263l-2 -43l-38 -9q-17 -4 -17 -18v-333q0 -14 17 -18l38 -9l2 -43q-43 -8 -77.5 -35t-34.5 -59q0 -23 14.5 -40.5t35.5 -17.5q31 0 53 22l10 -12
q-4 -34 -35.5 -58.5t-79.5 -24.5z" />
    <glyph glyph-name="idotaccent.smallcap" horiz-adv-x="333" 
d="M298 0h-263l3 43l37 9q17 4 17 18v333q0 14 -17 18l-37 9l-3 43h263l-2 -43l-38 -9q-17 -4 -17 -18v-333q0 -14 17 -18l38 -9zM241 615q0 -33 -20.5 -56t-55.5 -23q-34 0 -54 23t-20 56t20 56.5t54 23.5q35 0 55.5 -23.5t20.5 -56.5z" />
    <glyph glyph-name="dotlessi.smallcap" horiz-adv-x="333" 
d="M298 0h-263l3 43l37 9q17 4 17 18v333q0 14 -17 18l-37 9l-3 43h263l-2 -43l-38 -9q-17 -4 -17 -18v-333q0 -14 17 -18l38 -9z" />
    <glyph glyph-name="jcircumflex.smallcap" horiz-adv-x="425" 
d="M389 473l-3 -43l-30 -9q-18 -6 -18 -18v-175q0 -244 -205 -244q-54 0 -87.5 24t-33.5 58q0 24 15.5 39t41.5 15q29 0 55 -23q29 -27 32 -71h11q11 14 16 39t5.5 37.5t0.5 50.5v250q0 15 -17 18l-43 9l-3 43h263zM419 520h-47l-111 102h-2l-111 -102h-47l127 207h64z" />
    <glyph glyph-name="jcircumflex.smallcap.alt" horiz-adv-x="459" 
d="M465 520h-47l-111 102h-2l-111 -102h-47l127 207h64zM435 473l-3 -43l-30 -9q-18 -5 -18 -18v-230q0 -91 -57.5 -140t-153.5 -49q-76 0 -116.5 33.5t-40.5 78.5q0 30 19.5 49.5t48.5 19.5q26 0 44 -15.5t18 -40.5q0 -38 -24 -54q22 -23 52 -23q62 0 62 96v275
q0 14 -17 18l-48 9l-3 43h267z" />
    <glyph glyph-name="dotlessj.smallcap" horiz-adv-x="425" 
d="M389 473l-3 -43l-30 -9q-18 -6 -18 -18v-175q0 -244 -205 -244q-54 0 -87.5 24t-33.5 58q0 24 15.5 39t41.5 15q29 0 55 -23q29 -27 32 -71h11q11 14 16 39t5.5 37.5t0.5 50.5v250q0 15 -17 18l-43 9l-3 43h263z" />
    <glyph glyph-name="kcommaaccent.smallcap" horiz-adv-x="610" 
d="M609 0h-254l2 43l16 4q12 3 14 9.5t-1 12.5t-11 17l-88 132l-54 -49v-99q0 -14 17 -18l31 -9l2 -43h-248l3 43l30 9q17 4 17 18v333q0 14 -17 18l-30 9l-3 43h248l-2 -43l-31 -9q-17 -4 -17 -18v-175l126 121q35 34 35 55q0 17 -20 23l-21 6l-2 40h225l-2 -43l-42 -9
q-15 -3 -36 -17.5t-37.5 -29t-58.5 -53.5l-12 -11l157 -228q13 -20 43 -32l18 -7zM394 -148q0 -91 -138 -152l-22 28q38 16 56 35t18 48q0 24 -20 41t-39.5 24.5t-19.5 8.5q0 24 21 44.5t52 20.5q41 0 66.5 -28t25.5 -70z" />
    <glyph glyph-name="lacute.smallcap" horiz-adv-x="506" 
d="M477 180l-14 -180h-428l3 43l30 9q17 4 17 18v333q0 14 -17 18l-30 9l-3 43h261l-3 -43l-43 -9q-17 -3 -17 -18v-360h8q69 0 100 19t44 67l14 51h78zM363 683l-185 -177h-66l97 177h154z" />
    <glyph glyph-name="lcommaaccent.smallcap" horiz-adv-x="506" 
d="M477 180l-14 -180h-428l3 43l30 9q17 4 17 18v333q0 14 -17 18l-30 9l-3 43h261l-3 -43l-43 -9q-17 -3 -17 -18v-360h8q69 0 100 19t44 67l14 51h78zM346 -148q0 -91 -138 -152l-22 28q38 16 56 35t18 48q0 24 -20 41t-39.5 24.5t-19.5 8.5q0 24 21 44.5t52 20.5
q41 0 66.5 -28t25.5 -70z" />
    <glyph glyph-name="lcaron.smallcap" horiz-adv-x="662" 
d="M477 180l-14 -180h-428l3 43l30 9q17 4 17 18v333q0 14 -17 18l-30 9l-3 43h261l-3 -43l-43 -9q-17 -3 -17 -18v-360h8q69 0 100 19t44 67l14 51h78zM728 354q0 -121 -168 -224l-32 33q52 34 75.5 64t23.5 68q0 31 -25 54t-50 33.5t-25 11.5q0 31 24.5 57t62.5 26
q50 0 82 -35.5t32 -87.5z" />
    <glyph glyph-name="ldotaccent.smallcap" horiz-adv-x="641" 
d="M477 180l-14 -180h-428l3 43l30 9q17 4 17 18v333q0 14 -17 18l-30 9l-3 43h261l-3 -43l-43 -9q-17 -3 -17 -18v-360h8q69 0 100 19t44 67l14 51h78zM701 251q0 -36 -25.5 -62t-62.5 -26t-62.5 25.5t-25.5 62.5t25.5 63t62.5 26q36 0 62 -26.5t26 -62.5z" />
    <glyph glyph-name="lslash.smallcap" horiz-adv-x="506" 
d="M85 170l-51 -14v53l51 14v180q0 14 -17 18l-30 9l-3 43h261l-3 -43l-43 -9q-17 -3 -17 -18v-139l102 28v-53l-102 -28v-168h8q69 0 100 19t44 67l14 51h78l-14 -180h-428l3 43l30 9q17 4 17 18v100z" />
    <glyph glyph-name="ntilde.smallcap" horiz-adv-x="613" 
d="M589 473l-3 -43l-30 -9q-15 -4 -21 -32t-6 -108v-286h-146l-231 331h-15v-134q0 -78 6 -107t21 -33l40 -9l3 -43h-182l3 43l30 9q16 5 21.5 32.5t5.5 107.5v211q0 14 -17 18l-30 9l-3 43h196l231 -330h15v138q0 78 -6 107t-21 33l-40 9l-3 43h182zM490 673
q-7 -80 -34.5 -113.5t-75.5 -33.5q-30 0 -86.5 34t-72.5 34q-11 0 -17.5 -6.5t-10 -16.5t-8.5 -28q-1 -5 -2 -8h-61q8 81 35 114t75 33q30 0 84.5 -33.5t70.5 -33.5q17 0 27 14t19 44h57z" />
    <glyph glyph-name="nacute.smallcap" horiz-adv-x="613" 
d="M589 473l-3 -43l-30 -9q-15 -4 -21 -32t-6 -108v-286h-146l-231 331h-15v-134q0 -78 6 -107t21 -33l40 -9l3 -43h-182l3 43l30 9q16 5 21.5 32.5t5.5 107.5v211q0 14 -17 18l-30 9l-3 43h196l231 -330h15v138q0 78 -6 107t-21 33l-40 9l-3 43h182zM519 697l-185 -177h-66
l97 177h154z" />
    <glyph glyph-name="ncommaaccent.smallcap" horiz-adv-x="613" 
d="M589 473l-3 -43l-30 -9q-15 -4 -21 -32t-6 -108v-286h-146l-231 331h-15v-134q0 -78 6 -107t21 -33l40 -9l3 -43h-182l3 43l30 9q16 5 21.5 32.5t5.5 107.5v211q0 14 -17 18l-30 9l-3 43h196l231 -330h15v138q0 78 -6 107t-21 33l-40 9l-3 43h182zM399 -148
q0 -91 -138 -152l-22 28q38 16 56 35t18 48q0 24 -19.5 41t-39.5 24.5t-20 8.5q0 24 21 44.5t52 20.5q41 0 66.5 -28t25.5 -70z" />
    <glyph glyph-name="ncaron.smallcap" horiz-adv-x="613" 
d="M589 473l-3 -43l-30 -9q-15 -4 -21 -32t-6 -108v-286h-146l-231 331h-15v-134q0 -78 6 -107t21 -33l40 -9l3 -43h-182l3 43l30 9q16 5 21.5 32.5t5.5 107.5v211q0 14 -17 18l-30 9l-3 43h196l231 -330h15v138q0 78 -6 107t-21 33l-40 9l-3 43h182zM485 727l-127 -207h-64
l-127 207h47l111 -102h2l111 102h47z" />
    <glyph glyph-name="ograve.smallcap" horiz-adv-x="609" 
d="M574 240q0 -113 -79.5 -184.5t-193.5 -71.5q-126 0 -196 68t-70 180q0 113 80 184.5t194 71.5q124 0 194.5 -68t70.5 -180zM414 231q0 103 -30.5 155t-82.5 52q-49 0 -77.5 -49t-28.5 -148q0 -102 31 -154.5t83 -52.5q49 0 77 49t28 148zM343 520h-67l-185 177h155z" />
    <glyph glyph-name="oacute.smallcap" horiz-adv-x="609" 
d="M574 240q0 -113 -79.5 -184.5t-193.5 -71.5q-126 0 -196 68t-70 180q0 113 80 184.5t194 71.5q124 0 194.5 -68t70.5 -180zM414 231q0 103 -30.5 155t-82.5 52q-49 0 -77.5 -49t-28.5 -148q0 -102 31 -154.5t83 -52.5q49 0 77 49t28 148zM507 697l-185 -177h-66l97 177
h154z" />
    <glyph glyph-name="ocircumflex.smallcap" horiz-adv-x="609" 
d="M574 240q0 -113 -79.5 -184.5t-193.5 -71.5q-126 0 -196 68t-70 180q0 113 80 184.5t194 71.5q124 0 194.5 -68t70.5 -180zM414 231q0 103 -30.5 155t-82.5 52q-49 0 -77.5 -49t-28.5 -148q0 -102 31 -154.5t83 -52.5q49 0 77 49t28 148zM463 520h-47l-111 102h-2
l-111 -102h-47l127 207h64z" />
    <glyph glyph-name="otilde.smallcap" horiz-adv-x="609" 
d="M574 240q0 -113 -79.5 -184.5t-193.5 -71.5q-126 0 -196 68t-70 180q0 113 80 184.5t194 71.5q124 0 194.5 -68t70.5 -180zM414 231q0 103 -30.5 155t-82.5 52q-49 0 -77.5 -49t-28.5 -148q0 -102 31 -154.5t83 -52.5q49 0 77 49t28 148zM482 673q-7 -80 -34.5 -113.5
t-75.5 -33.5q-30 0 -86.5 34t-72.5 34q-11 0 -17.5 -6.5t-10 -16.5t-8.5 -28q-1 -5 -2 -8h-61q8 81 35 114t75 33q30 0 84.5 -33.5t70.5 -33.5q17 0 27 14t19 44h57z" />
    <glyph glyph-name="odieresis.smallcap" horiz-adv-x="609" 
d="M574 240q0 -113 -79.5 -184.5t-193.5 -71.5q-126 0 -196 68t-70 180q0 113 80 184.5t194 71.5q124 0 194.5 -68t70.5 -180zM414 231q0 103 -30.5 155t-82.5 52q-49 0 -77.5 -49t-28.5 -148q0 -102 31 -154.5t83 -52.5q49 0 77 49t28 148zM490 605q0 -31 -19.5 -53
t-52.5 -22q-32 0 -51 21.5t-19 53.5t19 54t51 22q33 0 52.5 -22t19.5 -54zM261 605q0 -32 -19 -53.5t-52 -21.5t-52.5 22t-19.5 53t19.5 53.5t52.5 22.5t52 -22t19 -54z" />
    <glyph glyph-name="omacron.smallcap" horiz-adv-x="609" 
d="M574 240q0 -113 -79.5 -184.5t-193.5 -71.5q-126 0 -196 68t-70 180q0 113 80 184.5t194 71.5q124 0 194.5 -68t70.5 -180zM414 231q0 103 -30.5 155t-82.5 52q-49 0 -77.5 -49t-28.5 -148q0 -102 31 -154.5t83 -52.5q49 0 77 49t28 148zM479 551h-338l9 74h320z" />
    <glyph glyph-name="obreve.smallcap" horiz-adv-x="609" 
d="M574 240q0 -113 -79.5 -184.5t-193.5 -71.5q-126 0 -196 68t-70 180q0 113 80 184.5t194 71.5q124 0 194.5 -68t70.5 -180zM414 231q0 103 -30.5 155t-82.5 52q-49 0 -77.5 -49t-28.5 -148q0 -102 31 -154.5t83 -52.5q49 0 77 49t28 148zM470 697q-22 -182 -164 -182
q-68 0 -110.5 45.5t-53.5 136.5h66q31 -102 98 -102t100 102h64z" />
    <glyph glyph-name="ohungarumlaut.smallcap" horiz-adv-x="609" 
d="M574 240q0 -113 -79.5 -184.5t-193.5 -71.5q-126 0 -196 68t-70 180q0 113 80 184.5t194 71.5q124 0 194.5 -68t70.5 -180zM414 231q0 103 -30.5 155t-82.5 52q-49 0 -77.5 -49t-28.5 -148q0 -102 31 -154.5t83 -52.5q49 0 77 49t28 148zM583 697l-185 -177h-59l97 177
h147zM383 697l-185 -177h-59l97 177h147z" />
    <glyph glyph-name="oslash.smallcap" horiz-adv-x="581" 
d="M564 240q0 -113 -81 -182.5t-196 -69.5q-61 0 -110 17l-34 -61h-47l44 76q-59 30 -91 84.5t-32 127.5q0 113 81.5 182.5t196.5 69.5q63 0 110 -19l32 56h45q-41 -70 -41 -71q123 -60 123 -210zM367 404q-32 38 -80 38q-49 0 -79.5 -51t-30.5 -150q0 -87 17 -141zM404 231
q0 78 -16 138q-171 -302 -171 -303q30 -36 78 -36q49 0 79 51t30 150z" />
    <glyph glyph-name="oslashacute.smallcap" horiz-adv-x="581" 
d="M564 240q0 -113 -81 -182.5t-196 -69.5q-61 0 -110 17l-34 -61h-47l44 76q-59 30 -91 84.5t-32 127.5q0 113 81.5 182.5t196.5 69.5q63 0 110 -19l32 56h45q-41 -70 -41 -71q123 -60 123 -210zM367 404q-32 38 -80 38q-49 0 -79.5 -51t-30.5 -150q0 -87 17 -141zM404 231
q0 78 -16 138q-171 -302 -171 -303q30 -36 78 -36q49 0 79 51t30 150zM463 697l-185 -177h-66l97 177h154z" />
    <glyph glyph-name="oe.smallcap" horiz-adv-x="864" 
d="M819 170l-15 -170h-474q-146 0 -220.5 59t-74.5 171q0 106 79 174.5t214 68.5h484v-170h-78l-14 52q-12 45 -44 60t-102 15h-49v-173h16q49 0 60 31l20 53h56l-20 -203h-54l-10 47q-4 18 -16 25.5t-39 7.5h-13v-175h53q65 0 98.5 15.5t45.5 60.5l14 51h83zM377 44v374
l-55 11q-57 -6 -91.5 -54.5t-34.5 -127.5q0 -95 38.5 -149t113.5 -54h29z" />
    <glyph glyph-name="thorn.smallcap" horiz-adv-x="554" 
d="M519 251q0 -78 -69 -118.5t-178 -40.5q-18 0 -39 3v-25q0 -15 17 -18l46 -9l2 -43h-262l3 43l30 9q17 4 17 18v333q0 14 -17 18l-30 9l-4 43h257l-2 -43l-38 -9l-17 -18v-12h66q111 0 164.5 -34t53.5 -106zM357 240q0 112 -108 112h-16v-215q12 -3 47 -3q33 0 55 30
t22 76z" />
    <glyph glyph-name="racute.smallcap" horiz-adv-x="587" 
d="M570 0h-185l-33 67l-73 128l-46 2v-127q0 -14 17 -18l31 -9l2 -43h-248l3 43l30 9q17 4 17 18v333q0 14 -17 18l-30 9l-2 43h287q96 0 148 -33.5t52 -84.5q0 -98 -107 -140l93 -133q17 -25 35 -32l23 -7zM363 333q0 50 -28 75.5t-74 25.5h-29v-193l57 -6q32 5 53 31.5
t21 66.5zM456 697l-185 -177h-66l97 177h154z" />
    <glyph glyph-name="rcommaaccent.smallcap" horiz-adv-x="587" 
d="M570 0h-185l-33 67l-73 128l-46 2v-127q0 -14 17 -18l31 -9l2 -43h-248l3 43l30 9q17 4 17 18v333q0 14 -17 18l-30 9l-2 43h287q96 0 148 -33.5t52 -84.5q0 -98 -107 -140l93 -133q17 -25 35 -32l23 -7zM363 333q0 50 -28 75.5t-74 25.5h-29v-193l57 -6q32 5 53 31.5
t21 66.5zM401 -148q0 -91 -138 -152l-22 28q38 16 56 35t18 48q0 24 -19.5 41t-39.5 24.5t-20 8.5q0 24 21 44.5t52 20.5q41 0 66.5 -28t25.5 -70z" />
    <glyph glyph-name="rcaron.smallcap" horiz-adv-x="587" 
d="M570 0h-185l-33 67l-73 128l-46 2v-127q0 -14 17 -18l31 -9l2 -43h-248l3 43l30 9q17 4 17 18v333q0 14 -17 18l-30 9l-2 43h287q96 0 148 -33.5t52 -84.5q0 -98 -107 -140l93 -133q17 -25 35 -32l23 -7zM430 727l-127 -207h-64l-127 207h47l111 -102h2l111 102h47z
M363 333q0 50 -28 75.5t-74 25.5h-29v-193l57 -6q32 5 53 31.5t21 66.5z" />
    <glyph glyph-name="sacute.smallcap" horiz-adv-x="490" 
d="M443 143q0 -66 -56.5 -110.5t-150.5 -44.5q-84 0 -174 21l-3 146h82l33 -111q32 -10 65 -10q39 0 63 18t24 46q0 34 -26.5 53t-86.5 34q-85 21 -123 54t-38 96t52 105.5t137 42.5q61 0 142 -13l43 11v-163h-75l-43 111q-26 10 -67 10q-37 0 -58 -15.5t-21 -41.5
q0 -29 22.5 -47.5t73.5 -31.5q99 -25 142 -60t43 -100zM428 697l-185 -177h-66l97 177h154z" />
    <glyph glyph-name="scircumflex.smallcap" horiz-adv-x="490" 
d="M443 143q0 -66 -56.5 -110.5t-150.5 -44.5q-84 0 -174 21l-3 146h82l33 -111q32 -10 65 -10q39 0 63 18t24 46q0 34 -26.5 53t-86.5 34q-85 21 -123 54t-38 96t52 105.5t137 42.5q61 0 142 -13l43 11v-163h-75l-43 111q-26 10 -67 10q-37 0 -58 -15.5t-21 -41.5
q0 -29 22.5 -47.5t73.5 -31.5q99 -25 142 -60t43 -100zM413 520h-47l-111 102h-2l-111 -102h-47l127 207h64z" />
    <glyph glyph-name="scedilla.smallcap" horiz-adv-x="490" 
d="M369 -150q0 -57 -64.5 -91.5t-168.5 -38.5l-11 30q76 8 117 28t41 49q0 50 -84 50q-43 0 -76 -8v28l89 92q-76 3 -150 20l-3 146h82l33 -111q32 -10 65 -10q39 0 63 18t24 46q0 34 -26.5 53t-86.5 34q-85 21 -123 54t-38 96t52 105.5t137 42.5q61 0 142 -13l43 11v-163
h-75l-43 111q-26 10 -67 10q-37 0 -58 -15.5t-21 -41.5q0 -29 22.5 -47.5t73.5 -31.5q99 -25 142 -60t43 -100q0 -60 -47 -103t-127 -50l-42 -42q66 -4 104 -29.5t38 -68.5z" />
    <glyph glyph-name="scommaaccent.smallcap" horiz-adv-x="490" 
d="M443 143q0 -66 -56.5 -110.5t-150.5 -44.5q-84 0 -174 21l-3 146h82l33 -111q32 -10 65 -10q39 0 63 18t24 46q0 34 -26.5 53t-86.5 34q-85 21 -123 54t-38 96t52 105.5t137 42.5q61 0 142 -13l43 11v-163h-75l-43 111q-26 10 -67 10q-37 0 -58 -15.5t-21 -41.5
q0 -29 22.5 -47.5t73.5 -31.5q99 -25 142 -60t43 -100zM340 -148q0 -91 -138 -152l-22 28q38 16 56 35t18 48q0 24 -20 41t-39.5 24.5t-19.5 8.5q0 24 21 44.5t52 20.5q41 0 66.5 -28t25.5 -70z" />
    <glyph glyph-name="scaron.smallcap" horiz-adv-x="490" 
d="M443 143q0 -66 -56.5 -110.5t-150.5 -44.5q-84 0 -174 21l-3 146h82l33 -111q32 -10 65 -10q39 0 63 18t24 46q0 34 -26.5 53t-86.5 34q-85 21 -123 54t-38 96t52 105.5t137 42.5q61 0 142 -13l43 11v-163h-75l-43 111q-26 10 -67 10q-37 0 -58 -15.5t-21 -41.5
q0 -29 22.5 -47.5t73.5 -31.5q99 -25 142 -60t43 -100zM404 727l-127 -207h-64l-127 207h47l111 -102h2l111 102h47z" />
    <glyph glyph-name="tcommaaccent.smallcap" horiz-adv-x="577" 
d="M552 298h-78l-14 57q-11 43 -29.5 59t-47.5 16h-18v-360q0 -14 17 -18l38 -9l2 -43h-263l3 43l37 9q17 4 17 18v361h-15q-32 0 -50 -16.5t-29 -60.5l-14 -56h-83l15 175h512v-175zM380 -148q0 -91 -138 -152l-22 28q38 16 56 35t18 48q0 24 -20 41t-39.5 24.5t-19.5 8.5
q0 24 21 44.5t52 20.5q41 0 66.5 -28t25.5 -70z" />
    <glyph glyph-name="tcaron.smallcap" horiz-adv-x="577" 
d="M446 727l-127 -207h-64l-127 207h47l111 -102h2l111 102h47zM552 298h-78l-14 57q-11 43 -29.5 59t-47.5 16h-18v-360q0 -14 17 -18l38 -9l2 -43h-263l3 43l37 9q17 4 17 18v361h-15q-32 0 -50 -16.5t-29 -60.5l-14 -56h-83l15 175h512v-175z" />
    <glyph glyph-name="ugrave.smallcap" horiz-adv-x="594" 
d="M577 473l-4 -33l-35 -10q-26 -13 -26 -151v-101q0 -198 -219 -198q-96 0 -154 46t-58 135v242q0 14 -17 18l-30 9l-3 43h248l-2 -43l-31 -9q-17 -4 -17 -18v-219q0 -75 27 -108.5t84 -33.5q60 0 90 34.5t30 110.5v94q0 78 -6 107t-21 33l-40 9l-3 43h187zM357 520h-67
l-185 177h155z" />
    <glyph glyph-name="uacute.smallcap" horiz-adv-x="594" 
d="M577 473l-4 -33l-35 -10q-26 -13 -26 -151v-101q0 -198 -219 -198q-96 0 -154 46t-58 135v242q0 14 -17 18l-30 9l-3 43h248l-2 -43l-31 -9q-17 -4 -17 -18v-219q0 -75 27 -108.5t84 -33.5q60 0 90 34.5t30 110.5v94q0 78 -6 107t-21 33l-40 9l-3 43h187zM510 697
l-185 -177h-66l97 177h154z" />
    <glyph glyph-name="ucircumflex.smallcap" horiz-adv-x="594" 
d="M577 473l-4 -33l-35 -10q-26 -13 -26 -151v-101q0 -198 -219 -198q-96 0 -154 46t-58 135v242q0 14 -17 18l-30 9l-3 43h248l-2 -43l-31 -9q-17 -4 -17 -18v-219q0 -75 27 -108.5t84 -33.5q60 0 90 34.5t30 110.5v94q0 78 -6 107t-21 33l-40 9l-3 43h187zM466 520h-47
l-111 102h-2l-111 -102h-47l127 207h64z" />
    <glyph glyph-name="udieresis.smallcap" horiz-adv-x="594" 
d="M577 473l-4 -33l-35 -10q-26 -13 -26 -151v-101q0 -198 -219 -198q-96 0 -154 46t-58 135v242q0 14 -17 18l-30 9l-3 43h248l-2 -43l-31 -9q-17 -4 -17 -18v-219q0 -75 27 -108.5t84 -33.5q60 0 90 34.5t30 110.5v94q0 78 -6 107t-21 33l-40 9l-3 43h187zM264 605
q0 -32 -19 -53.5t-52 -21.5t-52.5 22t-19.5 53t19.5 53.5t52.5 22.5t52 -22t19 -54zM493 605q0 -31 -19.5 -53t-52.5 -22q-32 0 -51 21.5t-19 53.5t19 54t51 22q33 0 52.5 -22t19.5 -54z" />
    <glyph glyph-name="umacron.smallcap" horiz-adv-x="594" 
d="M577 473l-4 -33l-35 -10q-26 -13 -26 -151v-101q0 -198 -219 -198q-96 0 -154 46t-58 135v242q0 14 -17 18l-30 9l-3 43h248l-2 -43l-31 -9q-17 -4 -17 -18v-219q0 -75 27 -108.5t84 -33.5q60 0 90 34.5t30 110.5v94q0 78 -6 107t-21 33l-40 9l-3 43h187zM491 551h-338
l9 74h320z" />
    <glyph glyph-name="ubreve.smallcap" horiz-adv-x="594" 
d="M577 473l-4 -33l-35 -10q-26 -13 -26 -151v-101q0 -198 -219 -198q-96 0 -154 46t-58 135v242q0 14 -17 18l-30 9l-3 43h248l-2 -43l-31 -9q-17 -4 -17 -18v-219q0 -75 27 -108.5t84 -33.5q60 0 90 34.5t30 110.5v94q0 78 -6 107t-21 33l-40 9l-3 43h187zM490 697
q-22 -182 -164 -182q-68 0 -110.5 45.5t-53.5 136.5h66q31 -102 98 -102t100 102h64z" />
    <glyph glyph-name="uring.smallcap" horiz-adv-x="594" 
d="M577 473l-4 -33l-35 -10q-26 -13 -26 -151v-101q0 -198 -219 -198q-96 0 -154 46t-58 135v242q0 14 -17 18l-30 9l-3 43h248l-2 -43l-31 -9q-17 -4 -17 -18v-219q0 -75 27 -108.5t84 -33.5q60 0 90 34.5t30 110.5v94q0 78 -6 107t-21 33l-40 9l-3 43h187zM445 619
q0 -46 -29.5 -77.5t-78.5 -31.5t-78.5 31.5t-29.5 77.5t29.5 77.5t78.5 31.5t78.5 -31.5t29.5 -77.5zM406 619q0 29 -19 50.5t-50 21.5t-50 -21.5t-19 -50.5t19 -50.5t50 -21.5t50 21.5t19 50.5z" />
    <glyph glyph-name="uhungarumlaut.smallcap" horiz-adv-x="594" 
d="M577 473l-4 -33l-35 -10q-26 -13 -26 -151v-101q0 -198 -219 -198q-96 0 -154 46t-58 135v242q0 14 -17 18l-30 9l-3 43h248l-2 -43l-31 -9q-17 -4 -17 -18v-219q0 -75 27 -108.5t84 -33.5q60 0 90 34.5t30 110.5v94q0 78 -6 107t-21 33l-40 9l-3 43h187zM403 697
l-185 -177h-59l97 177h147zM603 697l-185 -177h-59l97 177h147z" />
    <glyph glyph-name="uogonek.smallcap" horiz-adv-x="594" 
d="M355 -225q-49 0 -78 25.5t-29 69.5q0 61 73 111q-4 0 -13.5 -0.5t-14.5 -0.5q-96 0 -154 46t-58 135v242q0 14 -17 18l-30 9l-3 43h248l-2 -43l-31 -9q-17 -4 -17 -18v-219q0 -75 27 -108.5t84 -33.5q60 0 90 34.5t30 110.5v94q0 78 -6 107t-21 33l-40 9l-3 43h187
l-4 -33l-35 -10q-26 -13 -26 -151v-101q0 -63 -22 -104.5t-70 -71.5q-29 -18 -46 -44.5t-17 -51.5q0 -23 14.5 -40.5t35.5 -17.5q31 0 53 22l10 -12q-4 -34 -35.5 -58.5t-79.5 -24.5z" />
    <glyph glyph-name="wcircumflex.smallcap" horiz-adv-x="844" 
d="M845 473l-2 -43l-15 -4q-19 -5 -29 -11.5t-27.5 -36.5t-38.5 -89l-104 -289h-130l-74 267h-15l-90 -267h-130l-124 386q-9 29 -53 41l-11 3l-3 43h274l-2 -43l-15 -3q-30 -6 -35.5 -17t9.5 -57l70 -249h15l77 254l-8 28q-9 29 -53 41l-11 3l-3 43h268l-2 -43l-15 -3
q-29 -6 -33 -23.5t7 -50.5l67 -249h15l70 230q15 48 10 66.5t-36 25.5l-17 4l-3 43h197zM605 520h-47l-111 102h-2l-111 -102h-47l127 207h64z" />
    <glyph glyph-name="wgrave.smallcap" horiz-adv-x="844" 
d="M845 473l-2 -43l-15 -4q-19 -5 -29 -11.5t-27.5 -36.5t-38.5 -89l-104 -289h-130l-74 267h-15l-90 -267h-130l-124 386q-9 29 -53 41l-11 3l-3 43h274l-2 -43l-15 -3q-30 -6 -35.5 -17t9.5 -57l70 -249h15l77 254l-8 28q-9 29 -53 41l-11 3l-3 43h268l-2 -43l-15 -3
q-29 -6 -33 -23.5t7 -50.5l67 -249h15l70 230q15 48 10 66.5t-36 25.5l-17 4l-3 43h197zM523 520h-67l-185 177h155z" />
    <glyph glyph-name="wacute.smallcap" horiz-adv-x="844" 
d="M845 473l-2 -43l-15 -4q-19 -5 -29 -11.5t-27.5 -36.5t-38.5 -89l-104 -289h-130l-74 267h-15l-90 -267h-130l-124 386q-9 29 -53 41l-11 3l-3 43h274l-2 -43l-15 -3q-30 -6 -35.5 -17t9.5 -57l70 -249h15l77 254l-8 28q-9 29 -53 41l-11 3l-3 43h268l-2 -43l-15 -3
q-29 -6 -33 -23.5t7 -50.5l67 -249h15l70 230q15 48 10 66.5t-36 25.5l-17 4l-3 43h197zM625 697l-185 -177h-66l97 177h154z" />
    <glyph glyph-name="wdieresis.smallcap" horiz-adv-x="844" 
d="M845 473l-2 -43l-15 -4q-19 -5 -29 -11.5t-27.5 -36.5t-38.5 -89l-104 -289h-130l-74 267h-15l-90 -267h-130l-124 386q-9 29 -53 41l-11 3l-3 43h274l-2 -43l-15 -3q-30 -6 -35.5 -17t9.5 -57l70 -249h15l77 254l-8 28q-9 29 -53 41l-11 3l-3 43h268l-2 -43l-15 -3
q-29 -6 -33 -23.5t7 -50.5l67 -249h15l70 230q15 48 10 66.5t-36 25.5l-17 4l-3 43h197zM634 605q0 -31 -19.5 -53t-52.5 -22q-32 0 -51 21.5t-19 53.5t19 54t51 22q33 0 52.5 -22t19.5 -54zM405 605q0 -32 -19 -53.5t-52 -21.5t-52.5 22t-19.5 53t19.5 53.5t52.5 22.5
t52 -22t19 -54z" />
    <glyph glyph-name="yacute.smallcap" horiz-adv-x="541" 
d="M553 473l-2 -43l-15 -5q-28 -10 -53.5 -36t-64.5 -92l-66 -104v-123q0 -14 17 -18l38 -9l2 -43h-263l3 43l37 9q17 4 17 18v110l-156 230q-7 10 -32 17l-11 3l-3 43h266l-3 -43l-16 -3q-18 -3 -23 -13.5t0.5 -27t21.5 -43.5l62 -114h15l56 90q53 92 2 104l-24 6l-2 44
h197zM503 697l-185 -177h-66l97 177h154z" />
    <glyph glyph-name="ycircumflex.smallcap" horiz-adv-x="541" 
d="M553 473l-2 -43l-15 -5q-28 -10 -53.5 -36t-64.5 -92l-66 -104v-123q0 -14 17 -18l38 -9l2 -43h-263l3 43l37 9q17 4 17 18v110l-156 230q-7 10 -32 17l-11 3l-3 43h266l-3 -43l-16 -3q-18 -3 -23 -13.5t0.5 -27t21.5 -43.5l62 -114h15l56 90q53 92 2 104l-24 6l-2 44
h197zM456 520h-47l-111 102h-2l-111 -102h-47l127 207h64z" />
    <glyph glyph-name="ydieresis.smallcap" horiz-adv-x="541" 
d="M553 473l-2 -43l-15 -5q-28 -10 -53.5 -36t-64.5 -92l-66 -104v-123q0 -14 17 -18l38 -9l2 -43h-263l3 43l37 9q17 4 17 18v110l-156 230q-7 10 -32 17l-11 3l-3 43h266l-3 -43l-16 -3q-18 -3 -23 -13.5t0.5 -27t21.5 -43.5l62 -114h15l56 90q53 92 2 104l-24 6l-2 44
h197zM476 605q0 -31 -19.5 -53t-52.5 -22q-32 0 -51 21.5t-19 53.5t19 54t51 22q33 0 52.5 -22t19.5 -54zM247 605q0 -32 -19 -53.5t-52 -21.5t-52.5 22t-19.5 53t19.5 53.5t52.5 22.5t52 -22t19 -54z" />
    <glyph glyph-name="zacute.smallcap" horiz-adv-x="543" 
d="M495 170l-16 -170h-437v41l284 384v5h-86q-33 0 -53.5 -15.5t-32.5 -61.5l-15 -54h-82v174h440v-45l-292 -380v-5h49q65 0 98.5 15.5t45.5 60.5l14 51h83zM464 697l-185 -177h-66l97 177h154z" />
    <glyph glyph-name="zdotaccent.smallcap" horiz-adv-x="543" 
d="M495 170l-16 -170h-437v41l284 384v5h-86q-33 0 -53.5 -15.5t-32.5 -61.5l-15 -54h-82v174h440v-45l-292 -380v-5h49q65 0 98.5 15.5t45.5 60.5l14 51h83zM366 615q0 -33 -20.5 -56t-55.5 -23q-34 0 -54 23t-20 56t20 56.5t54 23.5q35 0 55.5 -23.5t20.5 -56.5z" />
    <glyph glyph-name="zcaron.smallcap" horiz-adv-x="543" 
d="M495 170l-16 -170h-437v41l284 384v5h-86q-33 0 -53.5 -15.5t-32.5 -61.5l-15 -54h-82v174h440v-45l-292 -380v-5h49q65 0 98.5 15.5t45.5 60.5l14 51h83zM446 727l-127 -207h-64l-127 207h47l111 -102h2l111 102h47z" />
    <glyph glyph-name="solidus" horiz-adv-x="200" 
d="M-199 -116l535 741h63l-535 -741h-63z" />
    <glyph glyph-name="plusinferior" horiz-adv-x="330" 
d="M292 28h-107v-106h-36v106h-107l1 36h106v106h36v-106h105z" />
    <glyph glyph-name="minusinferior" horiz-adv-x="330" 
d="M300 30h-250l1 33h247z" />
    <glyph glyph-name="zero.lnum" 
d="M474 317q0 -154 -60 -241t-165 -87q-223 0 -223 313q0 160 62 246t162 86q103 0 163.5 -78.5t60.5 -238.5zM325 292q0 171 -18.5 235.5t-58.5 64.5q-27 0 -40.5 -14.5t-23 -74t-9.5 -176.5q0 -116 8.5 -182t24.5 -90t43 -24t41 13.5t23.5 72t9.5 175.5z" />
    <glyph glyph-name="one.lnum" 
d="M430 0h-357l3 53l89 13q23 7 23 23v429l-119 11l3 38l261 78v-556q0 -19 23 -23l71 -13z" />
    <glyph glyph-name="two.lnum" 
d="M472 177l-36 -177h-405l-9 62q26 27 69 69.5t66 66t53 58t45 59.5t26 56t11 61q0 47 -30.5 76t-72.5 29q-73 0 -149 -68l-13 28q36 58 96.5 100t130.5 42q86 0 137.5 -49t51.5 -125q0 -79 -91 -171q-43 -44 -204 -176q-5 -4 -9 -7v-7h67q125 0 156 4.5t42 23.5l25 45h43z
" />
    <glyph glyph-name="three.lnum" 
d="M455 194q0 -88 -79 -153.5t-190 -65.5q-68 0 -114.5 28t-46.5 75q0 27 18.5 46t44.5 19q40 0 60.5 -35t23.5 -80q6 -2 24 -2q46 0 79 39.5t33 98.5q0 52 -29 79.5t-73 27.5q-27 0 -67 -19l-20 38q12 8 40 26.5t40 27t32 25t29 28.5t16.5 29t7.5 34q0 36 -27 58t-68 22
q-77 0 -149 -60l-14 31q42 54 110 91t136 37q67 0 113.5 -36.5t46.5 -88.5q0 -23 -9.5 -44t-21.5 -36t-35.5 -32.5t-39 -27t-45.5 -26t-42 -24.5l1 -5q37 14 65 14q59 0 104.5 -37.5t45.5 -101.5z" />
    <glyph glyph-name="four.lnum" 
d="M489 171h-92v-171h-129v171h-252l-9 52l295 408h95v-398h99zM268 233v269h-4l-194 -269h198z" />
    <glyph glyph-name="five.lnum" 
d="M443 625l-3 -123h-289l-21 -84q164 -23 237 -76.5t73 -142.5q0 -85 -73 -150t-170 -65q-175 0 -175 104q0 28 18 47t45 19q44 0 67.5 -33.5t26.5 -83.5q18 -6 35 -6q46 0 77.5 27.5t31.5 80.5q0 61 -70 107t-206 63l76 316h320z" />
    <glyph glyph-name="six.lnum" 
d="M480 209q0 -95 -67.5 -159.5t-159.5 -64.5q-100 0 -163.5 72t-63.5 187q0 160 116 274t293 124l11 -42q-107 -15 -180 -87.5t-93 -159.5l4 -4q68 51 139 51q69 0 116.5 -52.5t47.5 -138.5zM339 182q0 70 -26 110.5t-69 40.5q-15 0 -35.5 -8.5t-30.5 -17.5q-4 -28 -4 -64
q0 -85 24 -148t64 -63q35 0 56 39.5t21 110.5z" />
    <glyph glyph-name="seven.lnum" 
d="M500 587l-290 -595h-107l288 518v1h-94q-83 0 -121 -3.5t-49.5 -9t-20.5 -20.5l-32 -60h-43l26 207h438z" />
    <glyph glyph-name="eight.lnum" 
d="M479 172q0 -76 -64 -131.5t-172 -55.5q-95 0 -158 42.5t-63 116.5q0 49 33 89.5t93 57.5v1q-57 31 -87.5 66.5t-30.5 95.5q0 73 57.5 129.5t166.5 56.5q96 0 153 -42.5t57 -116.5q0 -47 -31.5 -81.5t-90.5 -51.5v-1q63 -32 100 -72.5t37 -102.5zM336 463q0 55 -27.5 93
t-73.5 38q-40 0 -65.5 -25t-25.5 -59q0 -17 3.5 -31.5t13.5 -27.5t17 -21t25 -19.5t26 -16t31.5 -16t30.5 -15.5q45 43 45 100zM361 117q0 14 -2.5 26.5t-9.5 24t-12.5 20t-18.5 18.5l-20 15q-6 5 -23.5 14.5t-23.5 12.5t-26.5 13t-25.5 12q-49 -41 -51 -113
q-1 -55 31.5 -92t84.5 -37q42 0 69.5 26.5t27.5 59.5z" />
    <glyph glyph-name="nine.lnum" 
d="M474 380q0 -160 -116 -274t-293 -124l-11 42q107 15 180 87.5t93 159.5l-4 4q-68 -51 -139 -51q-69 0 -116.5 52.5t-47.5 138.5q0 95 67.5 159.5t159.5 64.5q100 0 163.5 -72t63.5 -187zM326 381q0 85 -24 148t-64 63q-35 0 -56 -39.5t-21 -110.5q0 -70 26 -110.5
t69 -40.5q15 0 35.5 8.5t30.5 17.5q4 28 4 64z" />
    <glyph glyph-name="dollar.lnum" 
d="M200 -15l-29 -124h-58l30 129q-41 5 -108 22l-6 206h84l39 -167h5l45 197q-92 28 -137 70t-45 117q0 88 65 145.5t178 57.5q19 0 28 -1l23 100h58l-24 -105q46 -8 62 -11l51 15v-216h-79l-44 151h-4l-41 -177q101 -32 147.5 -76t46.5 -122q0 -91 -65.5 -151.5
t-180.5 -60.5q-29 0 -41 1zM256 231l-44 -185q9 -1 28 -1q61 0 89 24.5t28 64.5q0 36 -24 57.5t-77 39.5zM238 411l40 166h-18q-55 0 -86 -22t-31 -57q0 -32 23 -51.5t72 -35.5z" />
    <glyph glyph-name="cent.lnum" 
d="M264 -16l-37 -149h-56l39 156q-75 19 -120.5 80.5t-45.5 151.5q0 110 75 180t187 70q15 0 22 -1l41 164h56l-42 -172q44 -11 68 -37t24 -62q0 -27 -18.5 -46t-44.5 -19q-43 0 -60 38l-61 -247q21 -8 44 -8q33 0 69 19.5t61 52.5l21 -13q-20 -69 -78 -113.5t-139 -44.5h-5
zM243 126l72 293q-4 1 -11 1q-43 0 -70.5 -40t-27.5 -119q0 -86 37 -135z" />
    <glyph glyph-name="sterling.lnum" 
d="M112 305q-1 18 -1 61q0 117 63.5 190t178.5 73q62 0 93.5 -24.5t31.5 -67.5q0 -31 -19 -50.5t-47 -19.5q-33 0 -50.5 30.5t-7.5 70.5q-11 15 -36 15q-63 0 -63 -154q0 -10 0.5 -41t0.5 -51v-32h130l3 -51h-135q-7 -108 -33 -143v-5q78 -16 118 -16q61 0 86 26
q20 21 30 67l29 -8q15 -94 -19 -146.5t-106 -52.5q-29 0 -59.5 12t-49 25.5t-40 31t-25.5 20.5q-31 -32 -76 -57t-87 -34l-15 60q57 11 83.5 46t26.5 100q0 10 -1.5 35t-1.5 39h-106l3 51h101z" />
    <glyph glyph-name="yen.lnum" 
d="M543 625l-2 -45l-22 -7q-27 -9 -46 -30.5t-59 -95.5l-78 -142h147l2 -51h-157v-76h155l2 -51h-151v-49q0 -20 21 -24l50 -11l3 -43h-306l3 43l50 11q22 4 22 24v49h-153l3 51h156v76h-159l3 51h138l-133 237q-12 21 -32 27l-34 11l-2 45h284l-3 -45l-27 -6q-37 -8 8 -103
l69 -144h5l60 120q20 39 28 58t11 36t-5.5 24t-27.5 11l-21 4l-3 45h201z" />
    <glyph glyph-name="Euro.lnum" 
d="M503 126q-19 -62 -71.5 -102t-117.5 -40q-91 0 -151 60.5t-79 174.5h-59l3 53h50q-1 8 -1 25q0 16 2 48h-54l3 53h60q24 105 94 167.5t170 62.5q63 0 98.5 -24.5t35.5 -63.5q0 -28 -17.5 -45.5t-43.5 -17.5q-31 0 -50.5 24.5t-20.5 67.5q-11 8 -28 8q-44 0 -77 -51
t-44 -128h194l3 -53h-201v-16q0 -21 2 -57h196l3 -53h-189q19 -70 52.5 -106t88.5 -36q72 0 131 64z" />
    <glyph glyph-name="degree.lnum" 
d="M416 482q0 -69 -45.5 -117t-120.5 -48q-74 0 -120 48t-46 117q0 70 45.5 118.5t120.5 48.5t120.5 -48t45.5 -119zM250 604q-53 0 -85 -35t-32 -87q0 -49 32 -84.5t85 -35.5t85 35.5t32 84.5q0 52 -32 87t-85 35z" />
    <glyph glyph-name="plus.lnum" horiz-adv-x="480" 
d="M453 282h-182v-181h-61v181h-183l3 61h180v181h61v-181h179z" />
    <glyph glyph-name="minus.lnum" horiz-adv-x="480" 
d="M442 282h-404l3 61h398z" />
    <glyph glyph-name="plusminus.lnum" horiz-adv-x="480" 
d="M448 77h-416l3 61h410zM449 311h-178v-159h-61v159h-179l3 61h176v161h61v-161h175z" />
    <glyph glyph-name="logicalnot.lnum" horiz-adv-x="480" 
d="M445 390v-216h-61v155h-349l3 61h407z" />
    <glyph glyph-name="equal.lnum" horiz-adv-x="480" 
d="M440 365h-400l-3 61h406zM443 197h-406l3 61h400z" />
    <glyph glyph-name="notequal.lnum" horiz-adv-x="480" 
d="M138 54l40 143h-141l3 61h156l30 107h-186l-3 61h206l38 133h61l-38 -133h139l-3 -61h-153l-30 -107h183l3 -61h-204l-40 -143h-61z" />
    <glyph glyph-name="approxequal.lnum" horiz-adv-x="480" 
d="M154 400q-21 0 -34.5 -11t-23.5 -47h-56q10 54 39.5 86.5t71.5 32.5q31 0 92 -33t83 -33q21 0 34.5 11.5t23.5 46.5h56q-10 -54 -39.5 -86.5t-71.5 -32.5q-37 0 -98.5 33t-76.5 33zM154 237q-21 0 -34.5 -11t-23.5 -47h-56q10 54 39.5 86.5t71.5 32.5q31 0 92 -33t83 -33
q21 0 34.5 11.5t23.5 46.5h56q-10 -54 -39.5 -86.5t-71.5 -32.5q-37 0 -98.5 33t-76.5 33z" />
    <glyph glyph-name="multiply.lnum" horiz-adv-x="480" 
d="M449 478l-166 -165l166 -166l-44 -43l-165 166l-165 -166l-44 43l166 166l-166 165l44 43l165 -165l165 165z" />
    <glyph glyph-name="divide.lnum" horiz-adv-x="480" 
d="M294 451q0 -22 -15.5 -38t-38.5 -16t-38 16t-15 38t15 38t38 16t38.5 -16t15.5 -38zM442 282h-404l3 61h398zM294 174q0 -22 -15.5 -38t-38.5 -16t-38 16t-15 38t15 38t38 16t38.5 -16t15.5 -38z" />
    <glyph glyph-name="less.lnum" horiz-adv-x="480" 
d="M433 110l-409 186v31l409 187l15 -55l-324 -146v-1l324 -147z" />
    <glyph glyph-name="greater.lnum" horiz-adv-x="480" 
d="M456 296l-409 -186l-15 55l324 147v1l-324 146l15 55l409 -187v-31z" />
    <glyph glyph-name="lessequal.lnum" horiz-adv-x="480" 
d="M139 347l302 -126l-14 -55l-395 166v40l395 166l14 -55l-302 -126v-10zM448 77h-416l3 61h410z" />
    <glyph glyph-name="greaterequal.lnum" horiz-adv-x="480" 
d="M39 221l302 126v10l-302 126l14 55l395 -166v-40l-395 -166zM448 77h-416l3 61h410z" />
    <glyph glyph-name="bar.lnum" horiz-adv-x="250" 
d="M98 -126v877h53v-877h-53z" />
    <glyph glyph-name="brokenbar.lnum" horiz-adv-x="250" 
d="M98 338v335h53v-335h-53zM98 -108v335h53v-335h-53z" />
    <glyph glyph-name="bullet.lnum" 
d="M442 313q0 -22 -20 -71.5t-36 -65.5q-15 -15 -65 -35.5t-72 -20.5q-21 0 -71 20.5t-64 35.5q-15 16 -36 66t-21 71q0 22 21 71.5t36 64.5t65 35.5t71 20.5q22 0 71.5 -20.5t64.5 -35.5t35.5 -64.5t20.5 -71.5z" />
    <glyph glyph-name="asciitilde.lnum" 
d="M434 381q-7 -80 -34.5 -113.5t-75.5 -33.5q-30 0 -86.5 34t-72.5 34q-11 0 -17.5 -6.5t-10 -16.5t-8.5 -28q-1 -5 -2 -8h-61q8 81 35 114t75 33q30 0 84.5 -33.5t70.5 -33.5q17 0 27 14t19 44h57z" />
    <glyph glyph-name="quotesingle.lnum" horiz-adv-x="250" 
d="M224 610l-165 -207h-52l115 242h1z" />
    <glyph glyph-name="quotedbl.lnum" 
d="M439 610l-165 -207h-52l115 242h1zM259 610l-165 -207h-52l114 242h2z" />
    <glyph glyph-name="parenleft.lnum" 
d="M411 -151q-45 22 -90 62.5t-87 97.5t-68 137t-26 166t26 165.5t68 137t87 97.5t90 63l29 -42q-41 -22 -81.5 -60.5t-77 -91t-59 -123.5t-22.5 -146q0 -145 75 -259t165 -161z" />
    <glyph glyph-name="parenright.lnum" 
d="M90 -151l-30 41q90 49 164.5 163t74.5 259q0 144 -74.5 258t-164.5 163l30 42q44 -23 88.5 -63t86.5 -97.5t68 -137t26 -165.5t-26 -166t-68 -137t-86.5 -97.5t-88.5 -62.5z" />
    <glyph glyph-name="bracketleft.lnum" 
d="M418 -124h-262v873h262v-51h-203v-770h203v-52z" />
    <glyph glyph-name="bracketright.lnum" 
d="M82 -124v52h203v770h-203v51h262v-873h-262z" />
    <glyph glyph-name="asterisk.lnum" 
d="M429 463l-43 -44l-112 48l-10 -13l83 -92l-26 -52l-21 -8l-56 25l7 124l-15 4l-56 -108l-61 6l-15 17l5 62l118 32v21l-118 32l-5 62l15 17l61 6l56 -107l16 5l-8 122l56 25l21 -8l26 -52l-83 -92l10 -13l112 48l43 -45v-22z" />
    <glyph glyph-name="braceleft.lnum" 
d="M410 -139q-120 4 -177 44.5t-57 107.5q0 33 24.5 96.5t24.5 85.5q0 39 -22 56.5t-96 26.5l-11 35l11 33q68 11 93 28.5t25 54.5q0 22 -24.5 85.5t-24.5 96.5q0 67 57 107.5t177 44.5v-40q-56 -5 -76.5 -24.5t-20.5 -56.5q0 -27 24.5 -92t24.5 -103q0 -48 -44.5 -82
t-135.5 -47v-11q91 -12 135.5 -47t44.5 -83q0 -38 -24.5 -103t-24.5 -93q0 -37 20.5 -56t76.5 -24v-40z" />
    <glyph glyph-name="braceright.lnum" 
d="M410 313l-11 -35q-73 -9 -95.5 -26.5t-22.5 -56.5q0 -22 24.5 -85.5t24.5 -96.5q0 -67 -57 -107.5t-176 -44.5v40q56 5 76.5 24t20.5 56q0 28 -24.5 93t-24.5 103q0 48 44.5 83t134.5 47v11q-91 13 -135 47.5t-44 81.5q0 38 24.5 103t24.5 92q0 37 -20.5 56.5t-76.5 24.5
v40q119 -4 176 -44.5t57 -107.5q0 -33 -24.5 -96.5t-24.5 -85.5q0 -37 25 -54.5t93 -28.5z" />
    <glyph glyph-name="section.lnum" 
d="M464 295q0 -80 -79 -129q38 -35 38 -79q0 -59 -56 -105.5t-137 -46.5q-69 0 -110.5 23.5t-41.5 62.5q0 29 18.5 47t45.5 18q34 0 63.5 -28t30.5 -65q23 -9 41 -9q25 0 40 17t15 41q0 6 -2 12t-6.5 12t-9.5 10.5t-14 10t-15.5 9.5t-18.5 10t-20 9.5t-22 10t-22 10.5
q-95 45 -124 71q-39 34 -38 76q0 81 79 128q-38 36 -38 80q0 59 53.5 103.5t134.5 44.5q68 0 104.5 -23t36.5 -63q0 -29 -18.5 -47t-45.5 -18q-32 0 -52.5 26.5t-21.5 64.5q-20 11 -50 11q-25 0 -37.5 -16t-12.5 -38q0 -6 2 -12t6.5 -12t9.5 -10.5t14 -10t15.5 -9.5
t18.5 -10t20 -9.5t22 -10t22 -10.5q36 -17 48.5 -23t41 -23t39.5 -29t22 -31.5t11 -40.5zM380 231q0 16 -7 29.5t-24.5 26t-30.5 19.5t-41 21q-9 4 -59.5 26t-73.5 38q-20 -17 -20 -44q0 -16 7 -29.5t24.5 -26t30.5 -19.5t41 -21q9 -4 59.5 -26t73.5 -38q20 17 20 44z" />
    <glyph glyph-name="paragraph.lnum" 
d="M429 -32h-75v276q-35 -7 -67 -7q-122 0 -188.5 53t-66.5 140q0 100 68.5 147.5t205.5 47.5h123v-657z" />
    <glyph glyph-name="period.lnum" horiz-adv-x="250" 
d="M213 72q0 -36 -25.5 -62t-62.5 -26t-62.5 25.5t-25.5 62.5t25.5 63t62.5 26q36 0 62 -26.5t26 -62.5z" />
    <glyph glyph-name="comma.lnum" horiz-adv-x="250" 
d="M223 30q0 -121 -168 -224l-32 33q52 34 75.5 64t23.5 68q0 31 -25 54t-50 33.5t-25 11.5q0 31 24.5 57t62.5 26q50 0 82 -35.5t32 -87.5z" />
    <glyph glyph-name="colon.lnum" horiz-adv-x="250" 
d="M213 371q0 -36 -25.5 -62t-62.5 -26t-62.5 25.5t-25.5 62.5t25.5 63t62.5 26q36 0 62 -26.5t26 -62.5zM213 73q0 -36 -25.5 -62t-62.5 -26t-62.5 25.5t-25.5 62.5t25.5 63t62.5 26q36 0 62 -26.5t26 -62.5z" />
    <glyph glyph-name="semicolon.lnum" horiz-adv-x="250" 
d="M205 371q0 -36 -25.5 -62t-62.5 -26t-62.5 25.5t-25.5 62.5t25.5 63t62.5 26q36 0 62 -26.5t26 -62.5zM223 30q0 -121 -168 -224l-32 33q52 34 75.5 64t23.5 68q0 31 -25 54t-50 33.5t-25 11.5q0 31 24.5 57t62.5 26q50 0 82 -35.5t32 -87.5z" />
    <glyph glyph-name="periodcentered.lnum" horiz-adv-x="250" 
d="M213 250q0 -36 -25.5 -62t-62.5 -26t-62.5 25.5t-25.5 62.5t25.5 63t62.5 26q36 0 62 -26.5t26 -62.5z" />
    <glyph glyph-name="hyphen.lnum" horiz-adv-x="338" 
d="M307 279h-274l3 67h268z" />
    <glyph glyph-name="endash.lnum" 
d="M454 279h-406l3 67h400z" />
    <glyph glyph-name="tribol_north.orn" horiz-adv-x="750" 
d="M88 45l288 539l286 -539h-574zM502 137l-127 261l-127 -261h254z" />
    <glyph glyph-name="tribol_east.orn" horiz-adv-x="750" 
d="M145 600l539 -288l-539 -286v574zM237 186l261 127l-261 127v-254z" />
    <glyph glyph-name="tribol_south.orn" horiz-adv-x="750" 
d="M88 584h574l-286 -539zM502 492h-254l127 -261z" />
    <glyph glyph-name="tribol_west.orn" horiz-adv-x="750" 
d="M604 600v-574l-539 286zM512 186v254l-261 -127z" />
    <glyph glyph-name="trisol_north.orn" horiz-adv-x="750" 
d="M88 45l288 539l286 -539h-574z" />
    <glyph glyph-name="trisol_east.orn" horiz-adv-x="750" 
d="M145 600l539 -288l-539 -286v574z" />
    <glyph glyph-name="trisol_south.orn" horiz-adv-x="750" 
d="M88 584h574l-286 -539z" />
    <glyph glyph-name="trisol_west.orn" horiz-adv-x="750" 
d="M604 600v-574l-539 286z" />
    <glyph glyph-name="arrow_north.orn" horiz-adv-x="750" 
d="M259 -30l42 412l-110 -188l-175 130l350 334h19l349 -334l-174 -130l-110 188l42 -412h-233z" />
    <glyph glyph-name="arrow_east.orn" horiz-adv-x="750" 
d="M383 -48l-130 175l188 110l-412 -42v233l412 -42l-188 110l130 174l334 -349v-19z" />
    <glyph glyph-name="arrow_south.orn" horiz-adv-x="750" 
d="M365 -33l-349 334l175 130l109 -188l-42 412h234l-42 -412l110 188l174 -130l-349 -334h-20z" />
    <glyph glyph-name="arrow_west.orn" horiz-adv-x="750" 
d="M363 -48l-334 350v19l334 349l129 -174l-187 -110l412 42v-233l-412 42l187 -110z" />
    <glyph glyph-name="sqrreg_2.orn" 
d="M41 417h418v-417h-418v417zM406 53v313h-313v-313h313z" />
    <glyph glyph-name="sqrbol_2.orn" 
d="M41 417h418v-417h-418v417zM368 91v236h-236v-236h236z" />
    <glyph glyph-name="sqrshd_2.orn" 
d="M41 417h418v-417h-418v417zM414 373h-37l37 -37v37zM414 307l-65 66h-65l130 -130v64zM414 215l-158 158h-64l222 -222v64zM414 123l-250 250h-64l314 -314v64zM400 46l-314 313v-65l250 -248h64zM307 46l-221 220v-64l157 -156h64zM214 46l-128 127v-64l64 -63h64z
M122 46l-36 36v-36h36z" />
    <glyph glyph-name="sqrsol_2.orn" 
d="M41 0v417h418v-417h-418z" />
    <glyph glyph-name="sqrreg_1.orn" horiz-adv-x="750" 
d="M688 626v-626h-626v626h626zM633 55v516h-516v-516h516z" />
    <glyph glyph-name="sqrbol_1.orn" horiz-adv-x="750" 
d="M688 626v-626h-626v626h626zM177 511v-396h396v396h-396z" />
    <glyph glyph-name="sqrshd_1.orn" horiz-adv-x="750" 
d="M688 626v-626h-626v626h626zM633 493v78h-78zM633 351v116l-104 104h-116zM633 209v116l-246 246h-116zM633 68v116l-387 387h-116zM505 55h116l-504 504v-116zM117 417v-116l246 -246h116zM221 55h116l-220 220v-116zM117 135v-80h80z" />
    <glyph glyph-name="sqrsol_1.orn" horiz-adv-x="750" 
d="M688 626v-626h-626v626h626z" />
    <glyph glyph-name="crcreg_2.orn" 
d="M250 -10q-92 0 -155.5 63.5t-63.5 155.5t63.5 155t155.5 63t155.5 -63t63.5 -155t-63.5 -155.5t-155.5 -63.5zM416 209q0 70 -48 119t-118 49t-118 -49t-48 -119t48 -119t118 -49t118 49t48 119z" />
    <glyph glyph-name="crcbol_2.orn" 
d="M250 -10q-92 0 -155.5 63.5t-63.5 155.5t63.5 155t155.5 63t155.5 -63t63.5 -155t-63.5 -155.5t-155.5 -63.5zM376 209q0 53 -36.5 90.5t-89.5 37.5t-89.5 -37.5t-36.5 -90.5q0 -54 36 -91t90 -37t90 37t36 91z" />
    <glyph glyph-name="crcshd_2.orn" 
d="M250 -10q-92 0 -155.5 63.5t-63.5 155.5t63.5 155t155.5 63t155.5 -63t63.5 -155t-63.5 -155.5t-155.5 -63.5zM376 337q-45 43 -101 50l151 -151q-7 58 -50 101zM428 205l-184 184q-32 -2 -55 -11l228 -229q9 24 11 56zM410 128l-241 242q-18 -7 -38 -27l253 -254
q17 17 26 39zM370 75l-254 254q-17 -17 -26 -40l242 -241q19 8 38 27zM311 39l-229 229q-8 -24 -10 -55l184 -184q31 0 55 10zM74 182q7 -60 53 -104q42 -41 98 -48z" />
    <glyph glyph-name="crcsol_2.orn" 
d="M250 -10q-92 0 -155.5 63.5t-63.5 155.5t63.5 155t155.5 63t155.5 -63t63.5 -155t-63.5 -155.5t-155.5 -63.5z" />
    <glyph glyph-name="crcreg_1.orn" horiz-adv-x="750" 
d="M703 313q0 -138 -95 -233t-233 -95t-233 95t-95 233t95 233t233 95t233 -95t95 -233zM375 37q116 0 194.5 80.5t78.5 195.5t-78.5 195.5t-194.5 80.5t-194.5 -80.5t-78.5 -195.5t78.5 -195.5t194.5 -80.5z" />
    <glyph glyph-name="crcbol_1.orn" horiz-adv-x="750" 
d="M703 313q0 -138 -95 -233t-233 -95t-233 95t-95 233t95 233t233 95t233 -95t95 -233zM375 529q-90 0 -151.5 -63t-61.5 -153t61.5 -153t151.5 -63t151.5 63t61.5 153t-61.5 153t-151.5 63z" />
    <glyph glyph-name="crcshd_1.orn" horiz-adv-x="750" 
d="M703 313q0 -138 -95 -233t-233 -95t-233 95t-95 233t95 234t233 96t233 -96t95 -234zM647 337q-8 102 -78.5 173t-172.5 78zM629 212q17 45 19 98l-279 279q-53 -2 -97 -19l60 -60q37 -37 115 -115.5t130 -130.5zM576 125q28 29 46 69l-92 92q-91 92 -183 184l-92 92
q-38 -18 -68 -48zM496 64q38 18 68 48l-390 390q-27 -28 -46 -70zM120 414q-16 -45 -18 -98l279 -279q49 0 97 19zM103 289q8 -102 78.5 -173t172.5 -78z" />
    </font>
</defs>
</svg>
