<?xml version="1.0" standalone="no"?>
<!DOCTYPE svg PUBLIC "-//W3C//DTD SVG 1.1//EN" "http://www.w3.org/Graphics/SVG/1.1/DTD/svg11.dtd" >
<svg xmlns="http://www.w3.org/2000/svg" xmlns:xlink="http://www.w3.org/1999/xlink" version="1.1">
<metadata>
Created by FontForge 20201107 at Sat Jan  9 07:25:10 2016
 By 
Copyright (c) 2004-2009, Joshua Darden &#38; Phil's Fonts, Inc. All rights reserved. Published by Garagefonts USA 301-879-9222 www.garagefonts.com
</metadata>
<defs>
<font id="FreightTextProBold-Italic" horiz-adv-x="500" >
  <font-face 
    font-family="FreightTextProBold-Italic"
    font-weight="400"
    font-style="italic"
    font-stretch="normal"
    units-per-em="1000"
    panose-1="2 0 8 3 7 0 0 9 0 4"
    ascent="800"
    descent="-200"
    x-height="469"
    cap-height="625"
    bbox="-231 -288 1477 989"
    underline-thickness="20"
    underline-position="-173"
    slope="-12"
    unicode-range="U+0020-FB04"
  />
<missing-glyph 
 />
    <glyph glyph-name="ff" unicode="ff" horiz-adv-x="558" 
d="M461 621l7 7q30 31 71 48.5t80 17.5q47 0 76.5 -25t29.5 -63q0 -28 -17.5 -48t-44.5 -20q-31 0 -51 27.5t-24 69.5l-52 -9q-10 -25 -41 -178h122l4 -57h-138l-53 -268q-43 -215 -112 -287q-51 -52 -121 -52q-41 0 -69.5 22t-28.5 57q0 27 16.5 44.5t41.5 17.5
q31 0 50.5 -24t22.5 -59l49 17q22 57 39 168l54 364h-154l-58 -298q-43 -215 -112 -287q-52 -52 -125 -52q-42 0 -70.5 22.5t-28.5 57.5q0 27 16.5 44t41.5 17q31 0 51 -23.5t23 -58.5l52 16q22 55 39 169l60 386l-87 7l3 34l96 31q21 103 78 160q66 66 157 66
q39 0 67.5 -17t39.5 -44zM407 528q-29 1 -48.5 28.5t-25.5 68.5l-67 -13q-7 -20 -36 -164h154q13 52 23 80z" />
    <glyph glyph-name="fi" unicode="fi" horiz-adv-x="538" 
d="M218 391l-58 -298q-43 -215 -112 -287q-52 -52 -125 -52q-42 0 -70.5 22.5t-28.5 57.5q0 27 16.5 44t41.5 17q31 0 51 -23.5t23 -58.5l52 16q22 55 39 169l60 386l-87 7l3 34l96 31q18 108 83 171q69 71 184 71q57 0 90.5 -27t33.5 -68q0 -27 -18 -46.5t-45 -19.5
q-30 0 -50.5 27.5t-28.5 69.5l-93 -13q-28 -67 -45 -173h118q31 21 55 21q19 0 54 -25t32 -37l-91 -336l18 -9l82 58l17 -22q-25 -43 -66 -78t-77 -35q-18 0 -52 25t-31 36l90 339l-8 6h-153z" />
    <glyph glyph-name="fl" unicode="fl" horiz-adv-x="544" 
d="M372 391h-154l-58 -298q-43 -215 -112 -287q-52 -52 -125 -52q-42 0 -70.5 22.5t-28.5 57.5q0 27 16.5 44t41.5 17q31 0 51 -23.5t23 -58.5l54 16q24 55 39 169l56 386l-85 7l3 34l96 31q18 108 83 171q69 71 184 71q47 0 80 -20l77 19l-135 -626l19 -9l81 58l18 -22
q-26 -44 -66.5 -78.5t-76.5 -34.5q-18 0 -51 25t-31 36zM406 551q-27 22 -38 83l-93 -13q-28 -67 -45 -173h154z" />
    <glyph glyph-name="ffi" unicode="ffi" horiz-adv-x="803" 
d="M472 632q69 66 179 66q57 0 90.5 -27t33.5 -68q0 -27 -18 -46.5t-45 -19.5q-30 0 -50.5 27.5t-28.5 69.5l-95 -13q-25 -60 -43 -173h118q31 21 55 21q19 0 54 -25t32 -37l-91 -336l18 -9l82 58l17 -22q-25 -43 -66 -78t-77 -35q-18 0 -52 25t-31 36l90 339l-8 6h-153
l-53 -268q-43 -215 -112 -287q-51 -52 -121 -52q-41 0 -69.5 22t-28.5 57q0 27 16.5 44.5t41.5 17.5q31 0 50.5 -24t22.5 -59l49 17q22 57 39 168l54 364h-154l-58 -298q-43 -215 -112 -287q-52 -52 -125 -52q-42 0 -70.5 22.5t-28.5 57.5q0 27 16.5 44t41.5 17
q31 0 51 -23.5t23 -58.5l52 16q22 55 39 169l60 386l-87 7l3 34l96 31q18 108 80 168q35 34 71.5 50.5t91.5 16.5q39 0 68 -16.5t42 -42.5zM407 536q-25 5 -42.5 32t-23.5 63l-73 -12q-23 -74 -38 -171h154q10 55 23 88z" />
    <glyph glyph-name="ffl" unicode="ffl" horiz-adv-x="809" 
d="M472 632q69 66 179 66q47 0 80 -20l77 19l-135 -626l19 -9l81 58l18 -22q-26 -44 -66.5 -78.5t-76.5 -34.5q-18 0 -51 25t-31 36l71 345h-154l-53 -268q-43 -215 -112 -287q-51 -52 -121 -52q-41 0 -69.5 22t-28.5 57q0 27 16.5 44.5t41.5 17.5q31 0 50.5 -24t22.5 -59
l49 17q22 57 39 168l54 364h-154l-58 -298q-43 -215 -112 -287q-52 -52 -125 -52q-42 0 -70.5 22.5t-28.5 57.5q0 27 16.5 44t41.5 17q31 0 51 -23.5t23 -58.5l52 16q22 55 39 169l60 386l-87 7l3 34l96 31q18 108 80 168q35 34 71.5 50.5t91.5 16.5q39 0 68 -16.5t42 -42.5
zM671 551q-25 21 -38 83l-95 -13q-25 -60 -43 -173h154zM407 536q-25 5 -42.5 32t-23.5 63l-73 -12q-23 -74 -38 -171h154q10 55 23 88z" />
    <glyph glyph-name=".notdef" 
 />
    <glyph glyph-name=".null" horiz-adv-x="0" 
 />
    <glyph glyph-name="nonmarkingreturn" horiz-adv-x="333" 
 />
    <glyph glyph-name="space" unicode=" " horiz-adv-x="228" 
 />
    <glyph glyph-name="exclam" unicode="!" horiz-adv-x="294" 
d="M264 582l-109 -380q-2 -7 -13.5 -6.5t-11.5 7.5l4 387q0 23 17 36t45 13h4q37 0 54.5 -15.5t9.5 -41.5zM192 54q0 -28 -20 -49t-49 -21q-30 0 -50 20.5t-20 49.5t20 49t50 20q29 0 49 -20.5t20 -48.5z" />
    <glyph glyph-name="quotedbl" unicode="&#x22;" horiz-adv-x="380" 
d="M404 614l-158 -211h-44l111 242h1zM233 614l-158 -211h-45l111 242h1z" />
    <glyph glyph-name="numbersign" unicode="#" horiz-adv-x="581" 
d="M595 398h-137l-45 -173h125l-1 -48h-138l-49 -183h-48l48 183h-157l-49 -183h-49l49 183h-124l1 48h137l45 173h-125l2 47h137l50 186h49l-49 -186h156l50 186h48l-49 -186h125zM365 225l44 173h-157l-45 -173h158z" />
    <glyph glyph-name="dollar" unicode="$" horiz-adv-x="539" 
d="M209 -14l-41 -152h-46l41 154q-61 7 -140 30l17 192l64 -1l31 -150q17 -9 43 -15l60 221q-83 41 -121.5 82.5t-38.5 112.5q0 75 67.5 126.5t163.5 51.5q20 0 28 -1l28 101h46l-28 -105q36 -5 84 -18l55 17l-27 -205l-63 2l-21 134q-13 6 -43 14l-54 -200
q84 -45 125 -85.5t41 -108.5q0 -90 -70 -144t-177 -54q-16 0 -24 1zM274 397l50 188q-8 1 -26 1q-43 0 -73 -23t-30 -55q0 -63 79 -111zM278 245l-56 -208q8 -1 24 -1q55 0 86 27t32 72q0 34 -21.5 58.5t-64.5 51.5z" />
    <glyph glyph-name="percent" unicode="%" horiz-adv-x="746" 
d="M390 500q0 -78 -53.5 -132.5t-130.5 -54.5q-66 0 -111 41t-45 108q0 76 53.5 130.5t128.5 54.5q67 0 112.5 -40t45.5 -107zM729 639l-630 -654h-59l630 654h59zM724 164q0 -77 -54 -132t-130 -55q-68 0 -111 40t-43 107q0 78 52.5 132.5t129.5 54.5q66 0 111 -40t45 -107
zM340 490q0 50 -31.5 81.5t-80.5 31.5q-54 0 -92 -42t-38 -97q0 -49 32 -79t80 -30q55 0 92.5 39.5t37.5 95.5zM676 158q0 47 -32.5 78t-79.5 31q-54 0 -92 -42t-38 -97q0 -49 31.5 -79t78.5 -30q55 0 93.5 41.5t38.5 97.5z" />
    <glyph glyph-name="ampersand" unicode="&#x26;" horiz-adv-x="663" 
d="M374 117h-2q-112 -132 -229 -132q-60 0 -100.5 45t-40.5 112q0 75 52 122t121 62v2q-69 64 -69 138q0 78 65 125.5t150 47.5q78 0 128 -36.5t50 -95.5q0 -117 -186 -159v-2l127 -135h2l106 95v2q-40 21 -40 58q0 28 20.5 46.5t50.5 18.5q33 0 54.5 -22t21.5 -53
q0 -43 -36 -78t-113 -70l-42 -22l152 -162l-122 -47zM383 504q0 39 -20 66t-55 27q-38 0 -61.5 -27t-23.5 -67q0 -42 14 -69t48 -62q98 57 98 132zM347 140l-147 164q-84 -60 -84 -132q0 -42 25.5 -67t65.5 -25q57 0 140 60z" />
    <glyph glyph-name="quotesingle" unicode="'" horiz-adv-x="209" 
d="M233 614l-158 -211h-45l111 242h1z" />
    <glyph glyph-name="parenleft" unicode="(" horiz-adv-x="395" 
d="M359 -253q-44 22 -89 62t-86.5 97t-67.5 137t-26 167q0 86 26 165.5t67.5 137t86.5 98t89 62.5l27 -39q-40 -22 -80.5 -60.5t-77 -91.5t-59.5 -124.5t-23 -147.5q0 -146 75.5 -261.5t164.5 -162.5z" />
    <glyph glyph-name="parenright" unicode=")" horiz-adv-x="395" 
d="M38 -253l-29 38q55 30 107.5 86t92.5 147.5t40 191.5q0 76 -23 147.5t-59.5 124.5t-77 91.5t-80.5 60.5l29 39q44 -22 88 -62.5t85.5 -98t67.5 -137t26 -165.5q0 -87 -26 -167t-67.5 -137t-85.5 -97t-88 -62z" />
    <glyph glyph-name="asterisk" unicode="*" horiz-adv-x="354" 
d="M387 463l-48 -37l-102 41l-10 -13l72 -84l-19 -57l-21 -7l-50 34l5 111l-15 4l-54 -93l-61 -2l-15 17l16 60l105 28v20l-105 29l-16 59l14 18l62 -2l54 -94l16 5l-5 110l50 33l21 -7l19 -57l-73 -84l10 -13l102 41l48 -38v-22z" />
    <glyph glyph-name="plus" unicode="+" horiz-adv-x="480" 
d="M451 206h-182v-182h-57v182h-183l3 57h180v183h57v-183h179z" />
    <glyph glyph-name="comma" unicode="," horiz-adv-x="232" 
d="M175 38q0 -111 -188 -209l-25 24q48 28 79 63.5t31 70.5q0 16 -7 30.5t-17 24.5t-20 17t-17 11t-7 5q0 24 23.5 43.5t53.5 19.5q41 0 67.5 -29.5t26.5 -70.5z" />
    <glyph glyph-name="hyphen" unicode="-" horiz-adv-x="333" 
d="M302 215h-269l3 60h263z" />
    <glyph glyph-name="period" unicode="." horiz-adv-x="232" 
d="M173 62q0 -31 -22.5 -54.5t-54.5 -23.5q-33 0 -55.5 23t-22.5 55t22.5 54.5t55.5 22.5t55 -22.5t22 -54.5z" />
    <glyph glyph-name="slash" unicode="/" horiz-adv-x="279" 
d="M4 -212l216 877h53l-216 -877h-53z" />
    <glyph glyph-name="zero" unicode="0" horiz-adv-x="514" 
d="M471 272q0 -114 -65.5 -200.5t-168.5 -86.5q-86 0 -142.5 58.5t-56.5 158.5q0 115 66 201.5t168 86.5q86 0 142.5 -59t56.5 -159zM388 272q0 62 -34.5 102t-84.5 40t-85 -36.5t-49 -82.5t-14 -93q0 -62 34 -101.5t85 -39.5q49 0 84.5 36.5t49.5 82.5t14 92z" />
    <glyph glyph-name="one" unicode="1" horiz-adv-x="381" 
d="M321 0h-300l6 42l65 11q24 3 26 23l43 324l-106 13l8 34l227 44l-55 -415q-2 -20 20 -23l66 -11v-42z" />
    <glyph glyph-name="two" unicode="2" horiz-adv-x="471" 
d="M429 169l-56 -169h-366l3 73q18 12 48.5 32.5t46 31t40 27.5t37.5 27.5t30.5 25t27 25.5t19 24t13.5 25.5t5 25.5q2 41 -22.5 66.5t-69.5 26.5q-57 3 -130 -53l-8 28q42 45 103.5 75t118.5 28q64 -2 103.5 -38t35.5 -93q-1 -26 -15.5 -51.5t-31 -44.5t-52 -44.5
t-58.5 -39.5t-72.5 -43t-72.5 -43l-1 -5h32q130 0 167 7t54 34l28 42h43z" />
    <glyph glyph-name="three" unicode="3" horiz-adv-x="436" 
d="M380 37q0 -63 -44.5 -118.5t-108.5 -85.5t-126 -30q-21 0 -44 4.5t-46.5 14t-39 27.5t-15.5 41q0 25 18 43t43 18q35 0 54.5 -30.5t19.5 -67.5q11 -3 23 -3q61 0 101.5 45t40.5 106q0 52 -31.5 85t-83.5 33q-27 0 -73 -14l-13 31q110 59 146 89q56 47 56 98q0 41 -27 64
t-68 23q-53 0 -131 -54l-9 29q104 104 220 104q59 0 103.5 -32t44.5 -89q0 -36 -19.5 -67.5t-55.5 -57t-63.5 -40.5t-67.5 -33v-5q24 7 53 7q60 0 101.5 -37.5t41.5 -97.5z" />
    <glyph glyph-name="four" unicode="4" horiz-adv-x="523" 
d="M489 29h-113l-27 -213h-111l27 213h-270l-2 45l393 422l50 -11l-52 -401h120zM273 84l39 261h-5l-244 -261h210z" />
    <glyph glyph-name="five" unicode="5" horiz-adv-x="463" 
d="M440 476l-17 -104h-251l-43 -106q243 -95 243 -243q0 -98 -78.5 -160.5t-178.5 -62.5q-32 0 -64.5 6.5t-62.5 27.5t-30 53q0 26 17.5 44.5t42.5 18.5q37 0 54.5 -28.5t16.5 -66.5q25 -10 48 -10q54 0 91 36.5t37 89.5q0 39 -21.5 73.5t-60 61t-70 42.5t-72.5 33l117 295
h282z" />
    <glyph glyph-name="six" unicode="6" horiz-adv-x="541" 
d="M500 243q0 -107 -78.5 -182.5t-171.5 -75.5q-91 0 -150.5 65.5t-59.5 171.5q0 109 71 208t188 162.5t248 75.5l18 -37q-151 -34 -254 -112.5t-147 -194.5l8 -2q38 45 84.5 72t92.5 27q63 0 107 -49t44 -129zM379 230q0 59 -26 94t-62 35q-69 0 -119 -87q-16 -48 -16 -96
q0 -66 26 -107t71 -41q52 0 89 59.5t37 142.5z" />
    <glyph glyph-name="seven" unicode="7" horiz-adv-x="476" 
d="M474 434l-390 -618h-73l366 562l1 3h-90q-107 0 -133 -4.5t-39 -24.5l-38 -60h-38l48 184h386v-42z" />
    <glyph glyph-name="eight" unicode="8" horiz-adv-x="529" 
d="M478 171q0 -86 -68.5 -135.5t-159.5 -49.5q-85 0 -150.5 42.5t-65.5 117.5q0 63 43 103.5t109 55.5v3q-97 59 -97 145q-1 83 63 134t151 51q81 0 139 -40.5t58 -113.5q-1 -110 -140 -147v-3q118 -70 118 -163zM388 484q0 48 -25 81t-71 33q-43 0 -68.5 -26t-25.5 -70
q0 -25 10 -46.5t32.5 -40.5t37.5 -29.5t45 -28.5q65 42 65 127zM368 123q0 26 -10 48.5t-37 45t-39 30.5t-48 30q-2 2 -3.5 2.5t-3.5 2t-4 2.5q-76 -50 -76 -137q0 -54 31.5 -87t85.5 -33q47 0 75.5 24.5t28.5 71.5z" />
    <glyph glyph-name="nine" unicode="9" horiz-adv-x="541" 
d="M37 232q0 107 78.5 182.5t171.5 75.5q92 0 151 -65t59 -171q0 -109 -71 -208.5t-188 -163t-248 -75.5l-18 38q150 33 253.5 111t147.5 190l-8 2q-38 -45 -84.5 -72t-92.5 -27q-62 0 -106.5 51t-44.5 132zM158 245q0 -59 26.5 -96.5t62.5 -37.5q68 0 118 87q16 54 16 101
q0 66 -26 107t-70 41q-52 0 -89.5 -59.5t-37.5 -142.5z" />
    <glyph glyph-name="colon" unicode=":" horiz-adv-x="232" 
d="M215 365q0 -32 -22 -55t-55 -23q-34 0 -56.5 22.5t-22.5 55.5q0 32 23 54.5t56 22.5q32 0 54.5 -23t22.5 -54zM173 62q0 -31 -22.5 -54.5t-54.5 -23.5q-33 0 -55.5 23t-22.5 55t22.5 54.5t55.5 22.5t55 -22.5t22 -54.5z" />
    <glyph glyph-name="semicolon" unicode=";" horiz-adv-x="232" 
d="M215 365q0 -32 -22 -55t-55 -23t-55.5 23t-22.5 55t22.5 54.5t55.5 22.5q32 0 54.5 -23t22.5 -54zM175 33q0 -111 -188 -209l-25 24q48 28 79 63.5t31 70.5q0 16 -7 30.5t-17 24.5t-20 17t-17 11t-7 5q0 24 23.5 43.5t53.5 19.5q41 0 67.5 -29.5t26.5 -70.5z" />
    <glyph glyph-name="less" unicode="&#x3c;" horiz-adv-x="480" 
d="M432 33l-406 187v29l406 188l14 -52l-326 -149v-1l326 -150z" />
    <glyph glyph-name="equal" unicode="=" horiz-adv-x="480" 
d="M438 291h-396l-3 57h402zM441 121h-402l3 57h396z" />
    <glyph glyph-name="greater" unicode="&#x3e;" horiz-adv-x="480" 
d="M454 220l-406 -187l-14 52l326 150v1l-326 149l14 52l406 -188v-29z" />
    <glyph glyph-name="question" unicode="?" horiz-adv-x="388" 
d="M389 461q0 -36 -12 -63t-34.5 -44t-42.5 -26t-49 -18q-4 -1 -15.5 -5t-15.5 -5.5t-13.5 -4.5t-13 -5.5t-10.5 -6t-9.5 -7t-6 -7.5t-5 -9t-1.5 -11q0 -32 34 -63l-49 1q-23 16 -40.5 43t-17.5 56q0 28 12 49t35.5 35.5t44.5 22.5t51 16q68 20 81 31q10 9 10 19
q0 29 -43 51t-103 22q-29 0 -63 -6q-15 16 -15 38q0 33 26 54t72 21q78 0 135.5 -52.5t57.5 -125.5zM197 54q0 -28 -20 -49t-49 -21q-30 0 -50 20.5t-20 49.5t20 49t50 20q29 0 49 -20.5t20 -48.5z" />
    <glyph glyph-name="at" unicode="@" horiz-adv-x="872" 
d="M482 117q0 23 34 125h-13q-71 -119 -102 -152q-37 -40 -72 -40q-46 0 -78 33t-32 80q0 61 33.5 136t80.5 122q57 57 119 57q70 0 93 -78h10l27 71h87l-60 -168l-35 -173q-4 -18 14 -31.5t50 -13.5q63 0 107 62t47 152q5 141 -89 228t-245 89q-148 2 -256 -104.5
t-113 -253.5q-4 -159 94.5 -260t248.5 -101q59 0 127 20l11 -37q-72 -25 -143 -25q-165 0 -277 114.5t-107 285.5q5 168 126.5 286t292.5 116q166 -3 273.5 -101t102.5 -255q-4 -115 -72.5 -191.5t-163.5 -76.5q-64 0 -94 26t-26 58zM525 354q-13 24 -44.5 45t-55.5 21
q-20 0 -33 -13q-21 -21 -45 -94.5t-24 -122.5q0 -28 14.5 -46t33.5 -18q20 0 48.5 38t71.5 106q7 12 11 18q3 6 13 35t10 31z" />
    <glyph glyph-name="A" unicode="A" horiz-adv-x="620" 
d="M599 0h-295l3 41l39 6q26 4 30.5 20.5t-4.5 56.5l-14 84h-188l-17 -46q-43 -102 11 -113l36 -8l3 -41h-237l3 41l28 9q32 9 50 30.5t58 107.5l174 384v38l133 30l108 -549q4 -19 11.5 -28t26.5 -13l38 -9zM350 257l-41 257h-8l-111 -257h160z" />
    <glyph glyph-name="B" unicode="B" horiz-adv-x="609" 
d="M570 172q0 -60 -46 -108q-66 -64 -201 -64h-316l4 40l49 11q23 5 26 24l64 475q3 19 -20 24l-45 11l-3 40h292q107 0 160 -37.5t53 -103.5q0 -62 -48 -103t-122 -58q3 -3 3 -5q66 -14 108 -51t42 -95zM426 168q0 59 -37 94.5t-92 35.5h-48l-33 -244l55 -11h21
q59 0 96.5 36.5t37.5 88.5zM448 463q0 55 -38 86.5t-99 31.5h-23l-33 -238h57q58 0 97 31.5t39 88.5z" />
    <glyph glyph-name="C" unicode="C" horiz-adv-x="650" 
d="M602 206l-47 -206l-60 12q-75 -28 -154 -28q-143 0 -217.5 76t-74.5 206q0 72 30.5 142.5t83.5 123.5q107 107 253 107q87 0 151 -25l86 23l-30 -223h-69l-23 144q-45 32 -105 32q-96 0 -163.5 -98t-67.5 -239q0 -121 62 -181q39 -39 103 -39q50 0 96 24l70 149h76z" />
    <glyph glyph-name="D" unicode="D" horiz-adv-x="686" 
d="M664 349q0 -141 -102 -243q-48 -48 -126.5 -77t-171.5 -29h-257l4 40l49 11q23 5 26 24l64 475q3 19 -20 24l-45 11l-3 40l266 1q149 0 232.5 -76t83.5 -201zM520 350q0 107 -47 168t-146 61h-40l-70 -519l67 -15q103 5 169.5 85t66.5 220z" />
    <glyph glyph-name="E" unicode="E" horiz-adv-x="627" 
d="M585 197l-46 -197h-532l4 40l49 11q23 5 26 24l65 475q3 19 -20 24l-46 11l-2 40h541l-27 -206h-69l-11 83q-3 23 -9 36t-15.5 22.5t-33.5 13t-52 5t-80 1.5h-39l-34 -242h19q45 0 65 6t30 26l34 68h51l-55 -242h-51l1 64q1 19 -15.5 26t-69.5 7h-15l-33 -248h43
q87 0 125 5.5t58.5 20.5t37.5 52l34 74h72z" />
    <glyph glyph-name="F" unicode="F" horiz-adv-x="602" 
d="M582 419h-69l-11 83q-8 54 -39 66t-152 12h-23l-34 -254h22q46 0 65.5 6t30.5 27l34 68h50l-55 -242h-50l4 63q1 20 -17 26.5t-72 6.5h-20l-27 -206q-3 -20 20 -24l52 -11l3 -40h-287l4 40l49 11q23 5 26 24l65 475q3 19 -20 24l-46 11l-2 40h526z" />
    <glyph glyph-name="G" unicode="G" horiz-adv-x="701" 
d="M674 283l-4 -40l-47 -11q-24 -6 -27 -24l-24 -142l58 -9l3 -33q-147 -40 -278 -40q-152 0 -229 75t-77 207q0 72 30.5 142.5t83.5 123.5q49 49 119 78t144 29q87 0 151 -25l86 23l-30 -220h-69l-22 141q-47 32 -116 32q-96 0 -163.5 -98t-67.5 -239q0 -121 62 -181
q39 -39 106 -39q43 0 79 13l25 162q2 11 -2.5 16t-19.5 8l-47 11l-3 40h279z" />
    <glyph glyph-name="H" unicode="H" horiz-adv-x="741" 
d="M677 0h-280l3 40l49 11q14 3 19.5 8t6.5 16l30 220h-256l-30 -220q-3 -19 20 -24l47 -11l3 -40h-280l3 40l49 11q23 5 26 24l64 475q3 19 -20 24l-45 11l-3 40h280l-3 -40l-50 -11q-23 -6 -26 -24l-28 -206h256l28 206q2 12 -2 16.5t-18 7.5l-46 11l-3 40h281l-4 -40
l-49 -11q-23 -6 -26 -24l-65 -475q-3 -19 20 -24l46 -11z" />
    <glyph glyph-name="I" unicode="I" horiz-adv-x="373" 
d="M310 0h-301l3 40l59 11q23 5 26 24l65 475q3 20 -20 24l-56 11l-3 40h300l-3 -40l-60 -11q-23 -5 -26 -24l-64 -475q-3 -18 20 -24l56 -11z" />
    <glyph glyph-name="J" unicode="J" horiz-adv-x="441" 
d="M464 625l-4 -40l-53 -11q-23 -4 -26 -24l-40 -298q-36 -268 -235 -268q-55 0 -91.5 23t-35.5 62q1 24 19 40t42 16q78 0 84 -102h1q30 15 48 58t30 132l45 337q3 20 -20 24l-65 11l-3 40h304z" />
    <glyph glyph-name="K" unicode="K" horiz-adv-x="671" 
d="M633 0h-255l3 40l26 9q21 6 6 35l-105 211l-69 -58l-21 -162q-3 -19 20 -24l46 -11l2 -40h-280l4 40l49 11q23 5 26 24l65 475q3 19 -20 24l-46 11l-2 40h280l-4 -40l-50 -11q-23 -6 -26 -24l-32 -247l175 165q70 68 70 86q-1 17 -24 25l-26 7l-2 39h261l-4 -38l-26 -7
q-50 -13 -134 -82l-138 -120l153 -281q11 -20 20 -30.5t15.5 -14t22.5 -8.5l18 -4z" />
    <glyph glyph-name="L" unicode="L" horiz-adv-x="579" 
d="M544 206l-49 -206h-489l4 40l49 11q23 5 26 24l64 475q3 19 -20 24l-46 11l-2 40h284l-4 -40l-53 -11q-23 -6 -26 -24l-68 -505h30q99 0 134 15t58 63l37 83h71z" />
    <glyph glyph-name="M" unicode="M" horiz-adv-x="863" 
d="M818 0h-293l3 40l54 12q16 3 24 36t20 147l33 313h-10l-238 -528h-120l-64 537h-10l-53 -318q-11 -70 -16 -104t-5.5 -54t2.5 -23.5t11 -5.5l55 -12l3 -40h-222l3 40l53 12q13 3 19.5 11.5t17.5 49.5t25 126l52 310q4 23 -17 26l-58 10l-2 40h263l56 -474h10l214 474h251
l-3 -40l-59 -11q-24 -4 -26 -25l-34 -314q-10 -82 -11 -120t3 -49t17 -14l50 -12z" />
    <glyph glyph-name="N" unicode="N" horiz-adv-x="715" 
d="M741 625l-3 -40l-48 -10q-25 -5 -38.5 -42.5t-29.5 -156.5l-53 -384h-97l-262 509h-7l-34 -252q-17 -123 -15 -158.5t26 -40.5l52 -10l3 -40h-239l3 40l48 10q25 5 38 42.5t29 156.5l37 268q3 26 -1.5 39t-22.5 18l-43 11l-2 40h209l238 -465h8l29 216q17 125 15.5 159.5
t-24.5 39.5l-54 10l-3 40h241z" />
    <glyph glyph-name="O" unicode="O" horiz-adv-x="715" 
d="M686 348q0 -155 -111 -268q-92 -95 -233 -95q-128 0 -211 81.5t-83 208.5q0 149 95 252q103 111 250 111q128 0 210.5 -81.5t82.5 -208.5zM543 378q0 118 -52 173q-41 38 -101 38q-53 0 -93.5 -37t-62 -93.5t-32.5 -111.5t-11 -103q0 -118 53 -170q39 -39 100 -39
q53 0 93.5 37t62.5 93t32.5 111t10.5 102z" />
    <glyph glyph-name="P" unicode="P" horiz-adv-x="588" 
d="M584 449q0 -93 -78.5 -147.5t-195.5 -54.5q-14 0 -67 5l-24 -177q-3 -21 20 -24l62 -11l2 -40h-296l4 40l49 11q23 5 26 24l65 475q3 19 -20 24l-46 11l-2 40h265q108 0 172 -47t64 -129zM447 444q0 61 -37.5 99.5t-92.5 38.5h-29l-40 -287q32 -6 48 -6q68 0 109.5 41.5
t41.5 113.5z" />
    <glyph glyph-name="Q" unicode="Q" horiz-adv-x="717" 
d="M653 -174q-67 -19 -156 -20q-103 0 -163 42.5t-112 158.5q-80 33 -127 104t-47 164q0 146 94 251q100 112 250 112q128 0 211 -81.5t83 -208.5q0 -77 -29 -147t-80 -120q-80 -80 -194 -93q44 -72 103 -100t164 -30zM543 379q0 119 -53 173q-40 38 -100 38
q-53 0 -93.5 -37.5t-62 -94.5t-32 -112t-10.5 -103q0 -119 52 -170q39 -39 102 -39q52 0 92.5 37t62 93.5t32 111.5t10.5 103z" />
    <glyph glyph-name="R" unicode="R" horiz-adv-x="633" 
d="M603 0h-180l-34 80l-90 188l-52 3l-28 -196q-3 -16 20 -24l44 -11l3 -40h-278l3 40l49 11q23 5 26 24l63 475q3 19 -20 24l-46 11l-2 40h295q104 0 162 -42t58 -107q0 -68 -45.5 -116t-129.5 -71l109 -197q9 -18 19 -28t16 -13t19 -7l17 -4zM450 454q0 58 -35 92.5
t-93 34.5h-35l-35 -259l62 -13q61 9 98.5 45.5t37.5 99.5z" />
    <glyph glyph-name="S" unicode="S" horiz-adv-x="535" 
d="M480 183q0 -90 -70 -144t-177 -54q-104 0 -210 33l17 192l64 -1l31 -150q49 -22 112 -22q54 0 84 26.5t31 70.5q0 22 -8.5 40t-30 35.5t-37.5 27.5t-51 29q-85 46 -121 85t-36 109q0 75 67.5 126.5t163.5 51.5q62 0 158 -23l55 17l-27 -205l-63 2l-21 134q-54 22 -114 22
q-41 0 -70.5 -22.5t-29.5 -54.5q0 -24 8.5 -43t30 -37t40 -29t54.5 -31q75 -39 112.5 -79.5t37.5 -105.5z" />
    <glyph glyph-name="T" unicode="T" horiz-adv-x="641" 
d="M637 415h-65l-11 83q-7 51 -31.5 66t-93.5 16h-6l-67 -505q-3 -19 20 -24l60 -11l3 -40h-306l3 40l62 11q24 4 26 24l67 505h-4q-68 0 -95.5 -14t-50.5 -65l-35 -86h-72l45 210h578z" />
    <glyph glyph-name="U" unicode="U" horiz-adv-x="708" 
d="M740 625l-3 -40l-48 -10q-25 -5 -38 -42t-30 -157l-24 -170q-17 -113 -87 -170t-176 -57q-108 0 -173 52t-65 151q0 30 3 55l43 313q3 19 -20 24l-45 11l-3 40h280l-3 -40l-50 -11q-23 -6 -26 -24l-43 -313q-5 -43 -5 -60q0 -62 39.5 -97.5t105.5 -35.5q72 0 115 41.5
t57 137.5l22 153q17 124 15 159t-26 40l-52 10l-3 40h240z" />
    <glyph glyph-name="V" unicode="V" horiz-adv-x="612" 
d="M676 625l-3 -41l-30 -9q-31 -9 -48.5 -30.5t-58.5 -107.5l-206 -437h-110l-110 534q-6 34 -38 41l-37 9l-3 41h295l-3 -41l-40 -6q-26 -4 -30.5 -20.5t4.5 -56.5l67 -386h7l159 360q41 90 -14 101l-34 8l-3 41h236z" />
    <glyph glyph-name="W" unicode="W" horiz-adv-x="932" 
d="M1006 625l-3 -41l-30 -9q-35 -10 -57 -35.5t-58 -102.5l-186 -437h-114l-56 385h-7l-175 -385h-115l-94 534q-4 19 -12 28t-26 13l-41 9l-3 41h301l-3 -41l-42 -6q-38 -5 -26 -77l52 -388h7l158 356l-10 65q-2 18 -10.5 27.5t-27.5 13.5l-41 9l-3 41h300l-3 -41l-42 -6
q-22 -3 -27.5 -20.5t1.5 -56.5l51 -387h8l130 330q28 66 27 95.5t-30 36.5l-30 8l-3 41h240z" />
    <glyph glyph-name="X" unicode="X" horiz-adv-x="640" 
d="M614 0h-292l3 40l34 6q50 10 9 81l-67 133h-7l-105 -127q-62 -70 2 -86l30 -7l3 -40h-248l3 40l35 9q42 10 103 78l155 173l-110 194q-25 42 -37 58.5t-27 21.5l-37 11l-2 40h292l-4 -40l-33 -6q-49 -10 -9 -81l55 -111h7l97 117q54 60 -3 74l-31 7l-3 40h239l-3 -40
l-35 -9q-45 -12 -115 -92l-122 -136l123 -224q21 -38 33 -53t28 -20l36 -11z" />
    <glyph glyph-name="Y" unicode="Y" horiz-adv-x="597" 
d="M658 625l-3 -41l-24 -7q-30 -8 -53 -27t-64 -78l-144 -209l-24 -188q-3 -20 20 -24l59 -11l-1 -40h-307l6 40l64 11q22 3 26 24l24 182l-122 265q-13 25 -24 36t-29 16l-30 10l-3 41h287l-3 -41l-40 -6q-26 -4 -26.5 -27t20.5 -71l71 -174h8l115 173q32 47 33 69.5
t-30 28.5l-36 7l-3 41h233z" />
    <glyph glyph-name="Z" unicode="Z" horiz-adv-x="602" 
d="M559 200l-48 -200h-507l7 45l443 526v8h-103q-89 0 -119.5 -15.5t-54.5 -69.5l-31 -77h-67l27 208h512l-6 -46l-448 -526l-1 -8h105q69 0 106.5 10t51 24.5t30.5 48.5l32 72h71z" />
    <glyph glyph-name="bracketleft" unicode="[" horiz-adv-x="368" 
d="M350 -222h-258v873h258v-48h-203v-777h203v-48z" />
    <glyph glyph-name="backslash" unicode="\" horiz-adv-x="279" 
d="M274 -212h-53l-216 877h53z" />
    <glyph glyph-name="bracketright" unicode="]" horiz-adv-x="368" 
d="M18 -222v48h203v777h-203v48h258v-873h-258z" />
    <glyph glyph-name="asciicircum" unicode="^" horiz-adv-x="400" 
d="M373 515h-46l-86 120h-2l-118 -120h-46l115 182h118z" />
    <glyph glyph-name="underscore" unicode="_" horiz-adv-x="470" 
d="M464 -53h-488l3 53h482z" />
    <glyph glyph-name="grave" unicode="`" horiz-adv-x="399" 
d="M291 515h-46l-151 182h127z" />
    <glyph glyph-name="a" unicode="a" horiz-adv-x="528" 
d="M368 391h8l27 77h103l-60 -181l-53 -224l27 -9l74 51l17 -21q-24 -40 -63.5 -70t-76.5 -30q-21 0 -55.5 14t-34.5 27q0 9 8.5 36t25.5 75t22 64h-10q-77 -129 -101 -158q-45 -57 -91 -57q-49 0 -81 35.5t-32 99.5q0 73 34 150t86 129q69 69 139 69q66 0 87 -77zM354 329
q-18 30 -50.5 53.5t-58.5 23.5q-17 0 -33 -16q-30 -30 -54.5 -104t-24.5 -134q0 -37 14 -58t37 -21q30 0 74 63q17 24 73 114z" />
    <glyph glyph-name="b" unicode="b" horiz-adv-x="508" 
d="M479 324q0 -74 -30.5 -146t-81.5 -123q-71 -71 -163 -71q-40 0 -81.5 17.5t-64.5 37t-21 28.5l99 490q6 26 -12 34l-57 27l6 28l204 51l-57 -229l-54 -215h10q58 115 100.5 165.5t92.5 50.5q47 0 78.5 -40t31.5 -105zM368 292q0 38 -13 63.5t-35 25.5q-26 0 -52 -33.5
t-81 -124.5q-4 -6 -6 -10t-5.5 -9.5t-6.5 -10.5l-25 -93q22 -28 56 -48t56 -20q16 0 32 16q33 33 56.5 107.5t23.5 136.5z" />
    <glyph glyph-name="c" unicode="c" horiz-adv-x="426" 
d="M318 391q-11 8 -35.5 14.5t-43.5 6.5q-7 0 -19 -12q-26 -25 -52.5 -97t-26.5 -137q0 -48 24.5 -77.5t63.5 -29.5q30 0 127 66l16 -21q-91 -119 -188 -119q-72 0 -114 47.5t-42 120.5q0 115 81 215.5t190 100.5q53 0 89 -28.5t36 -71.5q0 -31 -19 -52t-44 -21
q-28 0 -41.5 15.5t-13.5 39.5q0 20 12 40z" />
    <glyph glyph-name="d" unicode="d" horiz-adv-x="528" 
d="M511 84q-24 -40 -63.5 -70t-76.5 -30q-20 0 -53.5 19t-33.5 32q0 9 8 33.5t23.5 69t21.5 62.5h-10q-77 -129 -101 -158q-45 -57 -91 -57q-49 0 -81 35.5t-32 99.5q0 73 34 150t86 129q69 69 139 69q35 0 52 -20t28 -57h8l35 166q6 26 -12 34l-57 27l6 28l205 51
l-110 -442l-43 -192l27 -9l74 51zM354 329q-18 30 -50.5 53.5t-58.5 23.5q-17 0 -33 -16q-30 -30 -54.5 -104t-24.5 -134q0 -37 14 -58t37 -21q30 0 74 63q17 24 73 114z" />
    <glyph glyph-name="e" unicode="e" horiz-adv-x="422" 
d="M141 170v-13q0 -43 25 -70.5t63 -27.5q30 0 127 66l16 -21q-91 -119 -188 -119q-73 0 -114.5 47.5t-41.5 120.5q0 116 79.5 216t184.5 100q58 0 90.5 -28t32.5 -72q0 -11 -2.5 -21.5t-10.5 -20.5t-15.5 -18t-23.5 -19t-29 -19t-38 -21t-43.5 -22.5t-52.5 -27t-59 -30.5z
M140 205h3q100 55 137 87.5t37 71.5q0 18 -27 32.5t-47 14.5t-31 -11q-20 -20 -42 -76t-30 -119z" />
    <glyph glyph-name="f" unicode="f" horiz-adv-x="303" 
d="M470 603q0 -27 -17.5 -46.5t-43.5 -19.5q-31 0 -50.5 27t-25.5 69l-63 -11q-24 -67 -40 -174h120l4 -57h-134l-60 -298q-41 -215 -112 -287q-49 -52 -125 -52q-42 0 -70.5 22.5t-28.5 57.5q0 27 16.5 44t41.5 17q31 0 50.5 -23.5t23.5 -58.5l53 16q17 43 39 168l60 387
l-87 7l3 34l97 31q23 112 81 170q67 67 157 67q49 0 80 -26t31 -64z" />
    <glyph glyph-name="g" unicode="g" horiz-adv-x="466" 
d="M478 361l-118 29l-1 -10q51 -40 51 -99q0 -69 -57 -113.5t-132 -44.5q-33 0 -70 10q-15 -4 -25 -16.5t-10 -24.5q0 -17 19 -27.5t63 -25.5l46 -13q77 -23 116 -53.5t39 -83.5q0 -60 -72 -105.5t-197 -45.5q-90 0 -144.5 31.5t-54.5 86.5q0 42 40 72.5t98 45.5v8
q-43 25 -43 66q0 67 91 95v8q-32 20 -51.5 53.5t-19.5 71.5q0 83 62 138t150 55q53 0 119 -20l126 2zM312 356q0 21 -24 39.5t-50 18.5q-21 0 -32 -11q-24 -24 -39.5 -73.5t-14.5 -90.5q2 -44 22 -64q13 -13 31 -13q31 0 55 26q26 25 39 74t13 94zM309 -149q0 23 -25.5 40.5
t-83.5 36.5q-66 21 -101 36q-73 -35 -73 -89q0 -38 43 -63t113 -25q54 0 90.5 18.5t36.5 45.5z" />
    <glyph glyph-name="h" unicode="h" horiz-adv-x="532" 
d="M501 84q-24 -40 -63 -70t-76 -30q-21 0 -55 14.5t-34 27.5q0 21 56 189q33 106 33 126q0 15 -14 25t-32 10q-24 0 -57.5 -52.5t-91.5 -174.5l-33 -151l-121 -1l37 150l86 410q6 26 -12 34l-57 27l6 28l204 51l-57 -230l-62 -260h11q81 178 121 218q44 44 96 44
q38 0 63 -22.5t25 -57.5q0 -47 -46 -189q-12 -43 -45 -137l27 -9l74 51z" />
    <glyph glyph-name="i" unicode="i" horiz-adv-x="280" 
d="M299 622q0 -36 -20.5 -61.5t-47.5 -25.5q-30 0 -48 19.5t-18 47.5q0 36 20.5 62t47.5 26q30 0 48 -20t18 -48zM261 84q-24 -40 -63 -70t-76 -30q-20 0 -56 16t-33 26l96 362l-30 6l-65 -72l-20 22q22 48 58 86.5t72 38.5q13 0 37.5 -7t44 -17.5t17.5 -17.5l-100 -364
l27 -9l74 51z" />
    <glyph glyph-name="j" unicode="j" horiz-adv-x="267" 
d="M302 622q0 -36 -20.5 -61.5t-47.5 -25.5q-30 0 -48 19.5t-18 47.5q0 36 20.5 62t47.5 26q30 0 48 -20t18 -48zM241 427l-81 -348q-48 -214 -122 -288q-54 -52 -115 -52q-40 0 -67 21.5t-27 55.5q0 26 17.5 42.5t41.5 16.5q29 0 49 -21t27 -54l25 6q18 42 54 204l86 377
l-34 8l-63 -73l-21 22q22 48 58.5 86.5t72.5 38.5q22 0 62 -15t37 -27z" />
    <glyph glyph-name="k" unicode="k" horiz-adv-x="471" 
d="M321 -13q-11 0 -30.5 8.5t-21.5 15.5l-70 209l-37 -16l-29 -206l-120 -1l37 150l86 410q6 26 -12 34l-57 27l6 28l202 51l-56 -229l-58 -227h7l193 102v12q-44 13 -44 58q0 28 21 47.5t50 19.5q33 0 55.5 -22t22.5 -52q0 -46 -33 -75t-100 -55l-46 -18l75 -187h20l57 52
l21 -21q-17 -43 -58.5 -79t-80.5 -36z" />
    <glyph glyph-name="l" unicode="l" horiz-adv-x="273" 
d="M254 84q-24 -40 -63.5 -70t-76.5 -30q-20 0 -55 16t-33 26l110 531q6 26 -12 34l-57 27l6 28l200 51l-138 -634l28 -9l73 51z" />
    <glyph glyph-name="m" unicode="m" horiz-adv-x="815" 
d="M794 84q-24 -40 -63.5 -70t-76.5 -30q-21 0 -54.5 14.5t-33.5 27.5q0 18 55 189q34 102 34 126q0 15 -14 25t-32 10q-24 0 -58 -52.5t-93 -174.5l-39 -151l-122 -1l50 178q42 146 42 166q0 15 -14 25t-32 10q-24 0 -57.5 -52.5t-91.5 -174.5l-33 -151l-121 -1l37 150
l49 241l-29 6l-64 -72l-21 22q23 49 59 87t72 38q23 0 60 -11.5t37 -24.5q0 -36 -55 -226h11q81 178 121 218q44 44 96 44q38 0 60 -22.5t22 -59.5q0 -15 -6.5 -43.5t-13 -50t-16 -53t-10.5 -33.5h11q80 176 122 218q44 44 97 44q38 0 63 -22.5t25 -57.5q0 -53 -46 -189
q-26 -83 -46 -137l28 -9l73 51z" />
    <glyph glyph-name="n" unicode="n" horiz-adv-x="550" 
d="M528 84q-24 -40 -63 -70t-76 -30q-21 0 -55 14.5t-34 27.5q0 21 56 189q33 106 33 126q0 15 -14 25t-32 10q-24 0 -57.5 -52.5t-91.5 -174.5l-33 -151l-121 -1l37 150l49 238l-28 7l-66 -70l-20 22q23 48 58.5 86.5t71.5 38.5q23 0 60.5 -11.5t37.5 -24.5q0 -36 -55 -226
h11q81 178 121 218q44 44 96 44q38 0 63 -22.5t25 -57.5q0 -47 -46 -189l-45 -137l27 -9l74 51z" />
    <glyph glyph-name="o" unicode="o" horiz-adv-x="481" 
d="M449 265q0 -109 -70 -194.5t-171 -85.5q-84 0 -130.5 56t-46.5 147q0 109 71 195t171 86q84 0 130 -56t46 -148zM340 313q0 47 -17.5 77.5t-49.5 30.5q-40 0 -73 -55t-47 -120q-13 -57 -13 -101q0 -47 18 -80t49 -33q42 0 74 56t47 124q12 58 12 101z" />
    <glyph glyph-name="p" unicode="p" horiz-adv-x="530" 
d="M159 37h-6l-42 -209q-3 -18 21 -24l65 -11l4 -39h-274l3 39l47 11q20 5 25 24l125 559l-30 7l-64 -72l-21 22q23 49 59 87t72 38q21 0 58.5 -16.5t37.5 -29.5q0 -7 -2.5 -19.5t-8 -30.5t-10.5 -33.5t-13 -39t-12 -37.5h10q56 112 97.5 159t91.5 47q47 0 78.5 -40
t31.5 -105q0 -73 -31 -146.5t-82 -124.5q-68 -68 -138 -68q-59 0 -92 52zM171 115q23 -32 52.5 -57.5t49.5 -25.5q16 0 32 16q34 34 60 109t26 135q0 38 -13 63.5t-35 25.5q-25 0 -56.5 -41.5t-93.5 -146.5z" />
    <glyph glyph-name="q" unicode="q" horiz-adv-x="503" 
d="M327 200q-77 -129 -101 -158q-45 -57 -91 -57q-49 0 -81 35.5t-32 99.5q0 73 34 150t86 129q69 69 139 69q66 0 87 -77h8l27 77h103l-60 -181l-97 -459q-3 -19 21 -24l51 -11l3 -39h-271l3 39l58 11q20 5 25 24l53 225l45 147h-10zM354 329q-18 30 -50.5 53.5t-58.5 23.5
q-17 0 -33 -16q-30 -30 -54.5 -104t-24.5 -134q0 -37 14 -58t37 -21q30 0 74 63q17 24 73 114z" />
    <glyph glyph-name="r" unicode="r" horiz-adv-x="451" 
d="M351 389l-18 5q-14 -12 -70 -115t-78 -151l-24 -130l-121 -1l37 150l49 241l-29 6l-64 -72l-21 22q23 49 59 87t72 38q23 0 60 -11.5t37 -24.5q0 -22 -24 -110t-41 -136h14q16 43 52 118t53 91q24 43 44 59t55 16q32 0 54.5 -22t22.5 -60q0 -32 -19 -54t-45 -22
q-31 0 -47.5 22t-7.5 54z" />
    <glyph glyph-name="s" unicode="s" horiz-adv-x="383" 
d="M380 384q0 -29 -16 -46t-43 -17q-24 0 -38.5 15.5t-14.5 38.5q0 13 6 24q-40 22 -82 25q-14 -9 -27 -27.5t-14 -29.5q-1 -9 3.5 -19t14.5 -21.5t18 -20t22.5 -22t20.5 -19.5q3 -3 15 -14.5t15.5 -15t14 -13.5t14 -14.5t11 -13.5t10.5 -14.5t8 -14t6.5 -15t2.5 -14.5
t1 -16q-2 -59 -58 -97t-127 -38q-62 0 -105 21t-43 67q0 28 16.5 45t44.5 17q23 0 37 -15.5t14 -38.5q0 -13 -6 -24q49 -24 95 -26q13 9 25.5 28.5t13.5 33.5q0 6 -1.5 12.5t-6.5 14t-10 13t-14 14.5t-15 14l-16 15q-11 10 -16 15q-34 31 -51.5 49t-32.5 44.5t-14 51.5
q3 63 56.5 98t121.5 35q144 0 144 -85z" />
    <glyph glyph-name="t" unicode="t" horiz-adv-x="331" 
d="M130 462l25 130h108l-30 -144h126l3 -57h-139l-74 -328l28 -9l73 51l18 -21q-24 -40 -63.5 -70t-76.5 -30q-20 0 -56 14.5t-33 24.5l77 360l-82 8l3 34z" />
    <glyph glyph-name="u" unicode="u" horiz-adv-x="550" 
d="M25 344q22 48 58.5 86.5t72.5 38.5q20 0 56.5 -19t36.5 -32q0 -22 -53 -179q-32 -105 -32 -121q0 -15 14 -28t31 -13q24 0 57.5 52t94.5 175l35 153h121l-42 -150q-46 -231 -51 -246l27 -10l71 51l18 -20q-24 -41 -62.5 -69.5t-75.5 -28.5q-21 0 -55 14.5t-34 27.5
q0 39 57 221h-11q-84 -178 -124 -218q-44 -44 -96 -44q-38 0 -63 24.5t-25 59.5q0 48 45 185q30 91 43 134l-29 6l-64 -72z" />
    <glyph glyph-name="v" unicode="v" horiz-adv-x="474" 
d="M374 183l-129 -179l-125 -19l-9 403l-29 6l-64 -72l-20 22q22 48 58 86.5t72 38.5q22 0 59.5 -14.5t37.5 -26.5v-372h11l111 187q34 59 34 91q0 22 -21 40.5t-52 24.5q8 31 31.5 51t55.5 20q35 0 59.5 -22.5t24.5 -60.5q0 -41 -24 -84.5t-81 -119.5z" />
    <glyph glyph-name="w" unicode="w" horiz-adv-x="732" 
d="M388 291h-8l-131 -287l-128 -19l-10 403l-29 6l-64 -72l-20 22q22 48 58 86.5t72 38.5q22 0 59.5 -14.5t37.5 -26.5l3 -372h9l141 318l-5 95l55 -10l54 -10l16 -393h10l95 187q34 66 34 91q0 22 -19 40.5t-49 24.5q8 31 31 51t53 20q34 0 57 -22.5t22 -60.5
q0 -28 -14.5 -62t-30 -58.5t-55.5 -83.5l-118 -179l-120 -19z" />
    <glyph glyph-name="x" unicode="x" horiz-adv-x="510" 
d="M532 400q-1 -31 -17.5 -51.5t-40.5 -20.5q-57 0 -51 66l-28 5l-92 -156l67 -177h21l56 62l18 -21q-57 -121 -120 -121q-14 0 -48 14.5t-35 21.5l-36 151h-8q-42 -89 -67 -129.5t-40 -49.5t-40 -9q-39 0 -64 20t-24 50q1 32 17 52t41 20q28 0 41.5 -17.5t10.5 -48.5l27 -6
q6 10 15.5 27t29 52.5t33.5 59.5l13 23l-68 172h-22l-55 -62l-18 21q56 121 119 121q16 0 48.5 -12t35.5 -24l36 -151h6q50 116 82 152t69 36q39 0 64 -19.5t24 -50.5z" />
    <glyph glyph-name="y" unicode="y" horiz-adv-x="476" 
d="M480 389q0 -71 -127 -235l-91 -123l-56 -112q-43 -86 -88.5 -128t-100.5 -42q-40 0 -69 23t-29 59q0 26 17.5 43.5t40.5 17.5q31 0 51 -22.5t19 -57.5l18 -1l126 167l-68 20l-11 390l-29 6l-64 -72l-20 22q22 48 58 86.5t72 38.5q22 0 59 -14t38 -27l-7 -379h13l156 270
v12q-56 22 -56 65q0 31 19.5 52.5t49.5 21.5q34 0 56.5 -22t22.5 -59z" />
    <glyph glyph-name="z" unicode="z" horiz-adv-x="427" 
d="M297 322q-53 19 -156 99l-16 -15q22 -28 22 -52q0 -22 -14 -36t-36 -16q-28 -1 -43 14.5t-15 38.5q0 41 38 75t97 38q36 0 62.5 -9t42.5 -28t23.5 -32.5t17.5 -37.5l12 1l27 107q31 2 53 -16t22 -46q0 -35 -26 -60.5t-74 -35.5l-202 -175q18 -7 44 -22t43.5 -27.5
t45.5 -33t35 -25.5l16 15q-24 27 -24 54q0 21 14.5 35t37.5 15q26 1 40.5 -14.5t14.5 -39.5q0 -43 -35 -77t-95 -39q-65 0 -101.5 31.5t-57.5 89.5l-13 -1l-28 -111q-31 -1 -53.5 17t-22.5 45q0 72 97 94z" />
    <glyph glyph-name="braceleft" unicode="{" horiz-adv-x="349" 
d="M322 -223q-106 4 -160.5 44t-54.5 107q0 39 27 100t27 88q0 38 -29.5 56t-94.5 24l-11 32l11 30q63 7 93.5 24.5t30.5 55.5q0 27 -27 88.5t-27 99.5q0 67 54 107t161 45v-38q-110 -10 -110 -87q0 -29 27 -91t27 -104q0 -48 -43.5 -83t-110.5 -42v-12q68 -8 111 -43
t43 -83q0 -41 -27 -102.5t-27 -91.5q0 -78 110 -88v-36z" />
    <glyph glyph-name="bar" unicode="|" horiz-adv-x="275" 
d="M113 -157v877h49v-877h-49z" />
    <glyph glyph-name="braceright" unicode="}" horiz-adv-x="349" 
d="M322 228l-11 -32q-65 -6 -95 -24t-30 -56q0 -27 27 -88t27 -100q0 -67 -54 -107t-160 -44v36q110 10 110 88q0 30 -27 91.5t-27 102.5q0 48 43 83.5t111 42.5v12q-68 7 -111 42t-43 83q0 42 27 104t27 91q0 77 -110 87v38q106 -5 160 -45t54 -107q0 -38 -27 -99.5
t-27 -88.5q0 -38 31 -55.5t94 -24.5z" />
    <glyph glyph-name="asciitilde" unicode="~" horiz-adv-x="384" 
d="M268 241q15 0 27.5 13.5t29.5 47.5h41q-16 -71 -45 -101t-74 -30q-33 0 -82 35.5t-65 35.5q-15 0 -25 -13t-28 -49h-43q16 70 45 100.5t74 30.5q33 0 81 -35t64 -35z" />
    <glyph glyph-name="nbspace" unicode="&#xa0;" horiz-adv-x="228" 
 />
    <glyph glyph-name="exclamdown" unicode="&#xa1;" horiz-adv-x="294" 
d="M47 42l110 380q2 7 13.5 6t11.5 -8l-4 -386q-1 -23 -17.5 -36.5t-44.5 -13.5h-4q-37 0 -55 16t-10 42zM119 569q0 29 20 49.5t50 20.5q29 0 49.5 -20.5t20.5 -49.5q0 -28 -20.5 -48.5t-49.5 -20.5q-30 0 -50 20.5t-20 48.5z" />
    <glyph glyph-name="cent" unicode="&#xa2;" horiz-adv-x="410" 
d="M208 -10l-39 -155h-46l38 151q-60 5 -96.5 53t-36.5 117q0 116 73 213.5t182 99.5h2l43 167h47l-45 -174q37 -11 59.5 -35t22.5 -55q0 -30 -18.5 -49t-44.5 -19q-36 0 -52 27l-69 -270q28 5 122 64l17 -21q-78 -99 -159 -114zM184 66l87 335q-19 8 -43 8q-7 0 -19 -10
q-24 -24 -46 -97t-22 -138q0 -76 43 -98z" />
    <glyph glyph-name="sterling" unicode="&#xa3;" horiz-adv-x="527" 
d="M151 302q3 61 9 100q14 100 78.5 163.5t161.5 63.5q61 0 96 -23.5t35 -62.5q0 -29 -16.5 -46.5t-45.5 -17.5q-33 0 -49.5 28t-3.5 65q-18 16 -44 16q-71 0 -90 -149q-3 -27 -8 -73.5t-7 -63.5h143l3 -46h-153q-2 -18 -8 -45q-15 -66 -45 -105v-5q6 -2 32.5 -9.5t41.5 -11
t36.5 -7.5t36.5 -4q46 0 68 22q19 21 40 65l25 -9q0 -79 -36 -125t-105 -46q-30 0 -60 12.5t-43.5 22.5t-38.5 33.5t-26 24.5q-68 -77 -177 -93l-7 47q75 16 107 54.5t41 113.5q4 33 5 65h-110l3 46h111z" />
    <glyph glyph-name="currency" unicode="&#xa4;" horiz-adv-x="435" 
d="M401 501l-56 -56q23 -39 23 -86q0 -45 -24 -86l62 -62l-40 -40l-61 61q-38 -25 -87 -25q-46 0 -87 24l-56 -56l-39 39l56 56q-25 39 -25 89t24 87l-58 58l40 40l58 -58q38 25 87 25t89 -26l55 55zM315 359q0 41 -26.5 70.5t-70.5 29.5t-71 -29.5t-27 -70.5t27 -70.5
t71 -29.5q43 0 70 29.5t27 70.5z" />
    <glyph glyph-name="yen" unicode="&#xa5;" horiz-adv-x="612" 
d="M654 625l-3 -40l-19 -6q-30 -8 -53.5 -27t-61.5 -73l-123 -174h148l4 -46h-173l-10 -79h179l4 -46h-187l-8 -60q-3 -20 20 -24l63 -11l3 -39h-304l3 39l65 11q23 4 26 24l8 60h-160l2 46h166l10 79h-179l3 46h162l-116 239q-13 24 -39 31l-34 10l-3 40h278l-3 -40l-35 -6
q-45 -8 0 -105l61 -150h6l105 154q36 52 39 74t-27 28l-22 5l-3 40h208z" />
    <glyph glyph-name="brokenbar" unicode="&#xa6;" horiz-adv-x="275" 
d="M113 307v335h49v-335h-49zM113 -139v335h49v-335h-49z" />
    <glyph glyph-name="section" unicode="&#xa7;" horiz-adv-x="457" 
d="M437 281q0 -44 -27.5 -80t-69.5 -56q25 -28 25 -63q0 -56 -53 -100.5t-133 -44.5q-58 0 -98 22t-40 61q0 26 18 44t43 18q32 0 54.5 -26t21.5 -65q19 -10 43 -10q27 0 44 18t17 44q0 18 -19 38.5t-36.5 32.5t-56.5 37q-32 20 -48.5 31.5t-39.5 31t-33 40t-10 44.5
q1 44 29 80t70 56q-24 29 -24 63q0 57 51 98.5t128 41.5q57 0 94.5 -22t37.5 -59q0 -27 -18.5 -45.5t-42.5 -18.5q-30 0 -48.5 25.5t-17.5 65.5q-18 10 -39 10q-33 0 -47.5 -16.5t-14.5 -39.5q0 -18 16 -37.5t32.5 -31t51.5 -33.5q7 -5 11 -7q32 -20 48 -32t38.5 -31.5
t32.5 -40t10 -43.5zM359 227q0 28 -21.5 51t-62.5 50q-91 59 -117 85q-39 -21 -39 -61q0 -28 22.5 -51t66.5 -50q10 -7 36.5 -24.5t45 -31.5t32.5 -28q37 19 37 60z" />
    <glyph glyph-name="dieresis" unicode="&#xa8;" horiz-adv-x="400" 
d="M420 606q0 -29 -17.5 -49t-47.5 -20t-47.5 20t-17.5 49t17.5 49.5t47.5 20.5t47.5 -20.5t17.5 -49.5zM206 606q0 -29 -17.5 -49t-47.5 -20t-48 20t-18 49t18 49.5t48 20.5t47.5 -20.5t17.5 -49.5z" />
    <glyph glyph-name="copyright" unicode="&#xa9;" horiz-adv-x="768" 
d="M733 311q0 -145 -102 -247t-247 -102t-247 102t-102 247q0 146 102 248.5t247 102.5t247 -102.5t102 -248.5zM692 311q0 129 -90.5 221t-217.5 92t-217.5 -92t-90.5 -221q0 -128 90.5 -219.5t217.5 -91.5t217.5 91.5t90.5 219.5zM537 254l-12 -127l-38 8q-41 -18 -93 -18
q-99 0 -150 54.5t-51 138.5q0 85 58 140t142 55q46 0 87 -15l52 14v-138h-42l-27 85q-25 19 -74 19q-51 0 -82.5 -38.5t-31.5 -109.5q0 -74 34 -122.5t93 -48.5q35 0 55 14l35 89h45z" />
    <glyph glyph-name="ordfeminine" unicode="&#xaa;" horiz-adv-x="385" 
d="M302 582h6l15 56l73 -4l-38 -148l-31 -141l20 -5l58 52l11 -15q-21 -35 -53 -63.5t-58 -28.5q-13 0 -34 17t-21 28q0 8 6.5 26.5t19 53t22.5 64.5h-7q-56 -102 -90 -145.5t-69 -43.5q-34 0 -54.5 26.5t-20.5 74.5q0 52 23 109t59 93q49 50 105 50q43 0 58 -56zM293 534
q-51 53 -83 53q-13 0 -24 -11q-16 -16 -31.5 -67t-15.5 -97q0 -28 10.5 -43t28.5 -15q21 0 100 130z" />
    <glyph glyph-name="guillemotleft" unicode="&#xab;" 
d="M451 62l-14 -21l-213 154v56l259 158l9 -21l-182 -167zM242 72l-14 -21l-210 144v56l253 148l8 -21l-163 -157z" />
    <glyph glyph-name="logicalnot" unicode="&#xac;" horiz-adv-x="480" 
d="M445 311v-214h-57v157h-353l3 57h407z" />
    <glyph glyph-name="uni00AD" unicode="&#xad;" horiz-adv-x="333" 
d="M302 215h-269l3 60h263z" />
    <glyph glyph-name="registered" unicode="&#xae;" horiz-adv-x="768" 
d="M733 313q0 -145 -101.5 -247t-247.5 -102q-145 0 -247 102t-102 247t102 247.5t247 102.5t247 -102.5t102 -247.5zM692 313q0 128 -90 220t-218 92q-127 0 -217.5 -92t-90.5 -220t90.5 -219.5t217.5 -91.5q128 0 218 91t90 220zM574 129h-112l-22 41l-69 115l-31 2v-104
q0 -10 14 -14l27 -6l2 -34h-167l3 34l28 6q14 4 14 14v261q0 11 -14 14l-28 7l-3 34h178q70 0 105.5 -27t35.5 -67q0 -78 -89 -103l75 -113q11 -14 29 -21l21 -5zM452 391q0 37 -23.5 56t-64.5 18l-24 -1v-142l35 -4q77 3 77 73z" />
    <glyph glyph-name="macron" unicode="&#xaf;" horiz-adv-x="400" 
d="M380 546h-297l12 58h284z" />
    <glyph glyph-name="degree" unicode="&#xb0;" horiz-adv-x="410" 
d="M410 501q0 -78 -53.5 -132.5t-130.5 -54.5q-66 0 -111 41t-45 108q0 76 53.5 130.5t128.5 54.5q67 0 112.5 -40t45.5 -107zM360 491q0 49 -31.5 80.5t-81.5 31.5q-54 1 -91.5 -41t-37.5 -97q-1 -48 31 -78.5t80 -31.5q55 0 92.5 40t38.5 96z" />
    <glyph glyph-name="plusminus" unicode="&#xb1;" horiz-adv-x="480" 
d="M448 2h-416l3 57h410zM449 236h-180v-163h-57v163h-181l3 57h178v161h57v-161h177z" />
    <glyph glyph-name="twosuperior" unicode="&#xb2;" horiz-adv-x="330" 
d="M-9 273v40q22 18 61 47t59.5 45.5t44.5 40t34.5 46t10.5 47.5q0 26 -19 40.5t-42 14.5q-48 0 -107 -41l-7 17q24 32 69.5 60t93.5 28q53 0 85.5 -27t32.5 -72q0 -28 -16.5 -54.5t-57 -57t-68 -48t-89.5 -54.5v-4h42q79 0 100.5 2t30.5 11l20 28h28l-38 -109h-268z" />
    <glyph glyph-name="threesuperior" unicode="&#xb3;" horiz-adv-x="330" 
d="M113 258q-38 0 -77 17t-39 51q0 17 13 30t31 13q31 0 44 -24.5t11 -54.5l6 -1q6 -1 12 -1q34 0 54 28.5t20 68.5q0 51 -48 51q-10 0 -42 -9l-12 26q89 43 106 59q18 17 18 39q0 19 -17.5 30.5t-41.5 11.5q-52 0 -107 -46l-7 18q35 44 81 68.5t94 24.5q42 0 74 -20.5
t32 -53.5q0 -12 -2.5 -22.5t-9.5 -19.5t-12.5 -16t-18 -14t-19 -11t-22 -10t-21 -8t-23 -7.5t-20.5 -6.5v-6q27 9 50 9q77 0 77 -78q0 -58 -57 -97t-127 -39z" />
    <glyph glyph-name="acute" unicode="&#xb4;" horiz-adv-x="399" 
d="M409 697l-201 -182h-45l119 182h127z" />
    <glyph glyph-name="mu" unicode="&#xb5;" horiz-adv-x="560" 
d="M550 34l-3 -29l-182 -20v62h-5q-24 -32 -46 -47t-55 -15q-49 0 -82 56h-5l15 -278l-127 -9l13 381l1 258q0 9 -7 12t-35 7l-20 2l-3 39h187l-6 -301q0 -43 21.5 -61t65.5 -18q48 0 88 31v290q0 8 -7.5 12t-30.5 6l-29 2l-4 39h188v-367q0 -30 17 -36z" />
    <glyph glyph-name="mu" unicode="&#x3bc;" horiz-adv-x="560" 
d="M550 34l-3 -29l-182 -20v62h-5q-24 -32 -46 -47t-55 -15q-49 0 -82 56h-5l15 -278l-127 -9l13 381l1 258q0 9 -7 12t-35 7l-20 2l-3 39h187l-6 -301q0 -43 21.5 -61t65.5 -18q48 0 88 31v290q0 8 -7.5 12t-30.5 6l-29 2l-4 39h188v-367q0 -30 17 -36z" />
    <glyph glyph-name="paragraph" unicode="&#xb6;" horiz-adv-x="489" 
d="M386 -32h-64l38 280q-38 -5 -62 -5q-106 0 -172 50t-66 130q0 202 272 202h140z" />
    <glyph glyph-name="periodcentered" unicode="&#xb7;" horiz-adv-x="232" 
d="M185 238q0 -31 -22.5 -54.5t-54.5 -23.5q-33 0 -55.5 23t-22.5 55t22.5 54.5t55.5 22.5t55 -22.5t22 -54.5z" />
    <glyph glyph-name="cedilla" unicode="&#xb8;" horiz-adv-x="400" 
d="M23 -275l-6 27q81 10 124.5 32t43.5 53q0 48 -77 48q-36 0 -70 -7l3 24l130 119h50l-85 -75q59 -2 93 -24.5t34 -61.5q0 -56 -66.5 -93t-173.5 -42z" />
    <glyph glyph-name="onesuperior" unicode="&#xb9;" horiz-adv-x="330" 
d="M26 273l2 34l60 7q16 1 18 14l37 255l-72 12l5 24l182 43l-48 -334q-2 -12 12 -14l43 -7l2 -34h-241z" />
    <glyph glyph-name="ordmasculine" unicode="&#xba;" horiz-adv-x="351" 
d="M367 490q0 -80 -50.5 -142.5t-125.5 -62.5q-61 0 -95.5 40.5t-34.5 107.5q0 80 51 142.5t126 62.5q62 0 95.5 -40.5t33.5 -107.5zM287 525q0 34 -12.5 55.5t-36.5 21.5q-29 0 -53 -40.5t-34 -88.5q-9 -37 -9 -71q0 -35 12.5 -57.5t35.5 -22.5q31 0 54.5 41t33.5 90
q9 37 9 72z" />
    <glyph glyph-name="guillemotright" unicode="&#xbb;" 
d="M467 195l-252 -148l-9 21l164 157l-126 149l15 21l208 -144v-56zM262 195l-259 -158l-9 21l181 167l-140 159l13 21l214 -154v-56z" />
    <glyph glyph-name="onequarter" unicode="&#xbc;" horiz-adv-x="715" 
d="M517 -143l17 102h-163l-3 34l237 255l62 -18l-36 -231h65l-9 -40h-60l-17 -102h-93zM415 -1h123l25 152h-7zM17 -116l632 741h60l-632 -741h-60zM46 273l2 34l60 7q16 1 18 14l37 255l-72 12l5 24l182 43l-48 -334q-2 -12 12 -14l43 -7l2 -34h-241z" />
    <glyph glyph-name="onehalf" unicode="&#xbd;" horiz-adv-x="715" 
d="M17 -116l632 741h60l-632 -741h-60zM46 273l2 34l60 7q16 1 18 14l37 255l-72 12l5 24l182 43l-48 -334q-2 -12 12 -14l43 -7l2 -34h-241zM356 -143v40q22 18 61 47t59.5 45.5t44.5 40t34.5 46t10.5 47.5q0 26 -19 40.5t-42 14.5q-48 0 -107 -41l-7 17q24 32 69.5 60
t93.5 28q53 0 85.5 -27t32.5 -72q0 -28 -16.5 -54.5t-57 -57t-68 -48t-89.5 -54.5v-4h42q79 0 100.5 2t30.5 11l20 28h28l-38 -109h-268z" />
    <glyph glyph-name="threequarters" unicode="&#xbe;" horiz-adv-x="715" 
d="M517 -143l17 102h-163l-3 34l237 255l62 -18l-36 -231h65l-9 -40h-60l-17 -102h-93zM415 -1h123l25 152h-7zM17 -116l632 741h60l-632 -741h-60zM133 258q-38 0 -77 17t-39 51q0 17 13 30t31 13q31 0 44 -24.5t11 -54.5l6 -1q6 -1 12 -1q34 0 54 28.5t20 68.5
q0 51 -48 51q-10 0 -42 -9l-12 26q89 43 106 59q18 17 18 39q0 19 -17.5 30.5t-41.5 11.5q-52 0 -107 -46l-7 18q35 44 81 68.5t94 24.5q42 0 74 -20.5t32 -53.5q0 -12 -2.5 -22.5t-9.5 -19.5t-12.5 -16t-18 -14t-19 -11t-22 -10t-21 -8t-23 -7.5t-20.5 -6.5v-6q27 9 50 9
q77 0 77 -78q0 -58 -57 -97t-127 -39z" />
    <glyph glyph-name="questiondown" unicode="&#xbf;" horiz-adv-x="388" 
d="M204 572q0 29 19.5 49.5t49.5 20.5q29 0 49.5 -20.5t20.5 -49.5q0 -28 -20.5 -48.5t-49.5 -20.5t-49 20.5t-20 48.5zM12 166q0 36 11.5 63t34.5 44t42.5 26t49.5 18q63 20 76 32q13 11 13 28q0 32 -33 63l49 -1q23 -16 40.5 -43.5t17.5 -55.5t-12 -49t-36 -35t-44 -22
t-51 -17q-69 -20 -82 -31q-9 -8 -9 -18q0 -29 42.5 -51t102.5 -22q30 0 64 6q15 -16 15 -39q0 -33 -26 -53.5t-73 -20.5q-78 0 -135 52.5t-57 125.5z" />
    <glyph glyph-name="Agrave" unicode="&#xc0;" horiz-adv-x="620" 
d="M599 0h-295l3 41l39 6q26 4 30.5 20.5t-4.5 56.5l-14 84h-188l-17 -46q-43 -102 11 -113l36 -8l3 -41h-237l3 41l28 9q32 9 50 30.5t58 107.5l174 384v38l133 30l108 -549q4 -19 11.5 -28t26.5 -13l38 -9zM350 257l-41 257h-8l-111 -257h160zM401 682h-46l-151 182h127z
" />
    <glyph glyph-name="Aacute" unicode="&#xc1;" horiz-adv-x="620" 
d="M599 0h-295l3 41l39 6q26 4 30.5 20.5t-4.5 56.5l-14 84h-188l-17 -46q-43 -102 11 -113l36 -8l3 -41h-237l3 41l28 9q32 9 50 30.5t58 107.5l174 384v38l133 30l108 -549q4 -19 11.5 -28t26.5 -13l38 -9zM350 257l-41 257h-8l-111 -257h160zM544 864l-201 -182h-45
l119 182h127z" />
    <glyph glyph-name="Acircumflex" unicode="&#xc2;" horiz-adv-x="620" 
d="M599 0h-295l3 41l39 6q26 4 30.5 20.5t-4.5 56.5l-14 84h-188l-17 -46q-43 -102 11 -113l36 -8l3 -41h-237l3 41l28 9q32 9 50 30.5t58 107.5l174 384v38l133 30l108 -549q4 -19 11.5 -28t26.5 -13l38 -9zM496 682h-46l-86 120h-2l-118 -120h-46l114 182h118zM350 257
l-41 257h-8l-111 -257h160z" />
    <glyph glyph-name="Atilde" unicode="&#xc3;" horiz-adv-x="620" 
d="M599 0h-295l3 41l39 6q26 4 30.5 20.5t-4.5 56.5l-14 84h-188l-17 -46q-43 -102 11 -113l36 -8l3 -41h-237l3 41l28 9q32 9 50 30.5t58 107.5l174 384v38l133 30l108 -549q4 -19 11.5 -28t26.5 -13l38 -9zM544 825q-32 -135 -121 -135q-33 0 -81.5 35.5t-64.5 35.5
q-15 0 -25 -13t-28 -49h-43q31 135 120 135q33 0 80.5 -35t63.5 -35q15 0 27.5 13.5t29.5 47.5h42zM350 257l-41 257h-8l-111 -257h160z" />
    <glyph glyph-name="Adieresis" unicode="&#xc4;" horiz-adv-x="620" 
d="M599 0h-295l3 41l39 6q26 4 30.5 20.5t-4.5 56.5l-14 84h-188l-17 -46q-43 -102 11 -113l36 -8l3 -41h-237l3 41l28 9q32 9 50 30.5t58 107.5l174 384v38l133 30l108 -549q4 -19 11.5 -28t26.5 -13l38 -9zM350 257l-41 257h-8l-111 -257h160zM316 773q0 -29 -17.5 -49
t-47.5 -20t-48 20t-18 49t18 49.5t48 20.5t47.5 -20.5t17.5 -49.5zM530 773q0 -29 -17.5 -49t-47.5 -20t-47.5 20t-17.5 49t17.5 49.5t47.5 20.5t47.5 -20.5t17.5 -49.5z" />
    <glyph glyph-name="Aring" unicode="&#xc5;" horiz-adv-x="620" 
d="M298 615q-34 29 -34 77q2 42 28.5 71t70.5 29t71 -29t27 -71q0 -57 -42 -83l101 -518q6 -34 38 -41l38 -9l3 -41h-295l3 41l39 6q26 4 30.5 20.5t-4.5 56.5l-14 84h-188l-17 -46q-43 -102 11 -113l36 -8l3 -41h-237l3 41l28 9q32 8 49 30t59 108zM349 254l-38 260h-10
l-111 -260h159zM427 692q0 28 -17.5 48t-46.5 20t-46.5 -20t-17.5 -48t17.5 -47.5t46.5 -19.5t46.5 19.5t17.5 47.5z" />
    <glyph glyph-name="AE" unicode="&#xc6;" horiz-adv-x="875" 
d="M835 197l-46 -197h-523l6 39l51 11q23 5 26 24l20 148h-189l-31 -50q-42 -61 -42 -93q0 -25 30 -30l35 -8l3 -41h-236l3 41l28 9q31 9 53 31.5t70 96.5l219 345q28 45 -17 53l-47 10l-1 39h627l-27 -206h-69l-11 83q-3 23 -9 36t-15.5 22.5t-33.5 13t-52 5t-80 1.5h-31
l-34 -242h11q45 0 65 6t30 26l34 68h51l-55 -242h-51l1 64q1 19 -15.5 26t-69.5 7h-7l-33 -248h35q87 0 125 5.5t58.5 20.5t37.5 52l34 74h72zM375 268l42 315h-7l-201 -315h166z" />
    <glyph glyph-name="Ccedilla" unicode="&#xc7;" horiz-adv-x="650" 
d="M307 -15q-127 10 -192.5 84.5t-65.5 196.5q0 72 30.5 142.5t83.5 123.5q107 107 253 107q87 0 151 -25l86 23l-30 -223h-69l-23 144q-45 32 -105 32q-96 0 -163.5 -98t-67.5 -239q0 -121 62 -181q39 -39 103 -39q50 0 96 24l70 149h76l-47 -206l-60 12q-67 -25 -141 -28
l-43 -38q59 -2 93 -24.5t34 -61.5q0 -56 -66.5 -93t-173.5 -42l-6 27q81 10 124.5 32t43.5 53q0 48 -77 48q-36 0 -70 -7l3 24z" />
    <glyph glyph-name="Egrave" unicode="&#xc8;" horiz-adv-x="627" 
d="M420 682h-46l-151 182h127zM585 197l-46 -197h-532l4 40l49 11q23 5 26 24l65 475q3 19 -20 24l-46 11l-2 40h541l-27 -206h-69l-11 83q-3 23 -9 36t-15.5 22.5t-33.5 13t-52 5t-80 1.5h-39l-34 -242h19q45 0 65 6t30 26l34 68h51l-55 -242h-51l1 64q1 19 -15.5 26
t-69.5 7h-15l-33 -248h43q87 0 125 5.5t58.5 20.5t37.5 52l34 74h72z" />
    <glyph glyph-name="Eacute" unicode="&#xc9;" horiz-adv-x="627" 
d="M548 864l-201 -182h-45l119 182h127zM585 197l-46 -197h-532l4 40l49 11q23 5 26 24l65 475q3 19 -20 24l-46 11l-2 40h541l-27 -206h-69l-11 83q-3 23 -9 36t-15.5 22.5t-33.5 13t-52 5t-80 1.5h-39l-34 -242h19q45 0 65 6t30 26l34 68h51l-55 -242h-51l1 64
q1 19 -15.5 26t-69.5 7h-15l-33 -248h43q87 0 125 5.5t58.5 20.5t37.5 52l34 74h72z" />
    <glyph glyph-name="Ecircumflex" unicode="&#xca;" horiz-adv-x="627" 
d="M505 682h-46l-86 120h-2l-118 -120h-46l114 182h118zM585 197l-46 -197h-532l4 40l49 11q23 5 26 24l65 475q3 19 -20 24l-46 11l-2 40h541l-27 -206h-69l-11 83q-3 23 -9 36t-15.5 22.5t-33.5 13t-52 5t-80 1.5h-39l-34 -242h19q45 0 65 6t30 26l34 68h51l-55 -242h-51
l1 64q1 19 -15.5 26t-69.5 7h-15l-33 -248h43q87 0 125 5.5t58.5 20.5t37.5 52l34 74h72z" />
    <glyph glyph-name="Edieresis" unicode="&#xcb;" horiz-adv-x="627" 
d="M544 773q0 -29 -17.5 -49t-47.5 -20t-47.5 20t-17.5 49t17.5 49.5t47.5 20.5t47.5 -20.5t17.5 -49.5zM330 773q0 -29 -17.5 -49t-47.5 -20t-48 20t-18 49t18 49.5t48 20.5t47.5 -20.5t17.5 -49.5zM585 197l-46 -197h-532l4 40l49 11q23 5 26 24l65 475q3 19 -20 24
l-46 11l-2 40h541l-27 -206h-69l-11 83q-3 23 -9 36t-15.5 22.5t-33.5 13t-52 5t-80 1.5h-39l-34 -242h19q45 0 65 6t30 26l34 68h51l-55 -242h-51l1 64q1 19 -15.5 26t-69.5 7h-15l-33 -248h43q87 0 125 5.5t58.5 20.5t37.5 52l34 74h72z" />
    <glyph glyph-name="Igrave" unicode="&#xcc;" horiz-adv-x="373" 
d="M278 682h-46l-151 182h127zM310 0h-301l3 40l59 11q23 5 26 24l65 475q3 20 -20 24l-56 11l-3 40h300l-3 -40l-60 -11q-23 -5 -26 -24l-64 -475q-3 -18 20 -24l56 -11z" />
    <glyph glyph-name="Iacute" unicode="&#xcd;" horiz-adv-x="373" 
d="M461 864l-201 -182h-45l119 182h127zM310 0h-301l3 40l59 11q23 5 26 24l65 475q3 20 -20 24l-56 11l-3 40h300l-3 -40l-60 -11q-23 -5 -26 -24l-64 -475q-3 -18 20 -24l56 -11z" />
    <glyph glyph-name="Icircumflex" unicode="&#xce;" horiz-adv-x="373" 
d="M386 682h-46l-86 120h-2l-118 -120h-46l114 182h118zM310 0h-301l3 40l59 11q23 5 26 24l65 475q3 20 -20 24l-56 11l-3 40h300l-3 -40l-60 -11q-23 -5 -26 -24l-64 -475q-3 -18 20 -24l56 -11z" />
    <glyph glyph-name="Idieresis" unicode="&#xcf;" horiz-adv-x="373" 
d="M418 773q0 -29 -17.5 -49t-47.5 -20t-47.5 20t-17.5 49t17.5 49.5t47.5 20.5t47.5 -20.5t17.5 -49.5zM204 773q0 -29 -17.5 -49t-47.5 -20t-48 20t-18 49t18 49.5t48 20.5t47.5 -20.5t17.5 -49.5zM310 0h-301l3 40l59 11q23 5 26 24l65 475q3 20 -20 24l-56 11l-3 40h300
l-3 -40l-60 -11q-23 -5 -26 -24l-64 -475q-3 -18 20 -24l56 -11z" />
    <glyph glyph-name="Eth" unicode="&#xd0;" horiz-adv-x="686" 
d="M115 293h-71l3 46h74l29 211q3 19 -20 24l-45 11l-3 40l266 1q149 0 232.5 -76t83.5 -201q0 -141 -102 -243q-48 -48 -126.5 -77t-171.5 -29h-257l4 40l49 11q23 5 26 24zM255 339h110l3 -46h-120l-8 -59q-7 -58 -15 -116l-8 -58l67 -15q103 5 169.5 85t66.5 220
q0 107 -47 168t-146 61h-40z" />
    <glyph glyph-name="Ntilde" unicode="&#xd1;" horiz-adv-x="715" 
d="M587 825q-32 -135 -121 -135q-33 0 -81.5 35.5t-64.5 35.5q-15 0 -25 -13t-28 -49h-43q31 135 120 135q33 0 80.5 -35t63.5 -35q15 0 27.5 13.5t29.5 47.5h42zM741 625l-3 -40l-48 -10q-25 -5 -38.5 -42.5t-29.5 -156.5l-53 -384h-97l-262 509h-7l-34 -252
q-17 -123 -15 -158.5t26 -40.5l52 -10l3 -40h-239l3 40l48 10q25 5 38 42.5t29 156.5l37 268q3 26 -1.5 39t-22.5 18l-43 11l-2 40h209l238 -465h8l29 216q17 125 15.5 159.5t-24.5 39.5l-54 10l-3 40h241z" />
    <glyph glyph-name="Ograve" unicode="&#xd2;" horiz-adv-x="715" 
d="M444 682h-46l-151 182h127zM686 348q0 -155 -111 -268q-92 -95 -233 -95q-128 0 -211 81.5t-83 208.5q0 149 95 252q103 111 250 111q128 0 210.5 -81.5t82.5 -208.5zM543 378q0 118 -52 173q-41 38 -101 38q-53 0 -93.5 -37t-62 -93.5t-32.5 -111.5t-11 -103
q0 -118 53 -170q39 -39 100 -39q53 0 93.5 37t62.5 93t32.5 111t10.5 102z" />
    <glyph glyph-name="Oacute" unicode="&#xd3;" horiz-adv-x="715" 
d="M597 864l-201 -182h-45l119 182h127zM686 348q0 -155 -111 -268q-92 -95 -233 -95q-128 0 -211 81.5t-83 208.5q0 149 95 252q103 111 250 111q128 0 210.5 -81.5t82.5 -208.5zM543 378q0 118 -52 173q-41 38 -101 38q-53 0 -93.5 -37t-62 -93.5t-32.5 -111.5t-11 -103
q0 -118 53 -170q39 -39 100 -39q53 0 93.5 37t62.5 93t32.5 111t10.5 102z" />
    <glyph glyph-name="Ocircumflex" unicode="&#xd4;" horiz-adv-x="715" 
d="M563 682h-46l-86 120h-2l-118 -120h-46l114 182h118zM686 348q0 -155 -111 -268q-92 -95 -233 -95q-128 0 -211 81.5t-83 208.5q0 149 95 252q103 111 250 111q128 0 210.5 -81.5t82.5 -208.5zM543 378q0 118 -52 173q-41 38 -101 38q-53 0 -93.5 -37t-62 -93.5
t-32.5 -111.5t-11 -103q0 -118 53 -170q39 -39 100 -39q53 0 93.5 37t62.5 93t32.5 111t10.5 102z" />
    <glyph glyph-name="Otilde" unicode="&#xd5;" horiz-adv-x="715" 
d="M596 825q-32 -135 -121 -135q-33 0 -81.5 35.5t-64.5 35.5q-15 0 -25 -13t-28 -49h-43q31 135 120 135q33 0 80.5 -35t63.5 -35q15 0 27.5 13.5t29.5 47.5h42zM686 348q0 -155 -111 -268q-92 -95 -233 -95q-128 0 -211 81.5t-83 208.5q0 149 95 252q103 111 250 111
q128 0 210.5 -81.5t82.5 -208.5zM543 378q0 118 -52 173q-41 38 -101 38q-53 0 -93.5 -37t-62 -93.5t-32.5 -111.5t-11 -103q0 -118 53 -170q39 -39 100 -39q53 0 93.5 37t62.5 93t32.5 111t10.5 102z" />
    <glyph glyph-name="Odieresis" unicode="&#xd6;" horiz-adv-x="715" 
d="M587 773q0 -29 -17.5 -49t-47.5 -20t-47.5 20t-17.5 49t17.5 49.5t47.5 20.5t47.5 -20.5t17.5 -49.5zM373 773q0 -29 -17.5 -49t-47.5 -20t-48 20t-18 49t18 49.5t48 20.5t47.5 -20.5t17.5 -49.5zM686 348q0 -155 -111 -268q-92 -95 -233 -95q-128 0 -211 81.5t-83 208.5
q0 149 95 252q103 111 250 111q128 0 210.5 -81.5t82.5 -208.5zM543 378q0 118 -52 173q-41 38 -101 38q-53 0 -93.5 -37t-62 -93.5t-32.5 -111.5t-11 -103q0 -118 53 -170q39 -39 100 -39q53 0 93.5 37t62.5 93t32.5 111t10.5 102z" />
    <glyph glyph-name="multiply" unicode="&#xd7;" horiz-adv-x="480" 
d="M447 402l-167 -167l167 -167l-40 -40l-167 166l-167 -166l-40 40l167 167l-167 167l40 40l167 -167l167 167z" />
    <glyph glyph-name="Oslash" unicode="&#xd8;" horiz-adv-x="715" 
d="M186 28q-62 38 -97 102.5t-34 144.5q0 150 94 252q103 111 250 111q68 0 126 -25l44 75h47q-55 -93 -55 -94q62 -37 97 -101.5t34 -144.5q0 -155 -111 -268q-92 -95 -233 -95q-72 0 -126 25l-49 -84h-46zM229 102l263 453q-34 37 -96 37q-53 0 -94 -37.5t-63 -94.5
t-33 -112.5t-11 -103.5q0 -89 34 -142zM518 520l-263 -452q43 -36 96 -36q43 0 78 25t57 63.5t37.5 86.5t22 91t6.5 80q0 87 -34 142z" />
    <glyph glyph-name="Ugrave" unicode="&#xd9;" horiz-adv-x="708" 
d="M471 682h-46l-151 182h127zM740 625l-3 -40l-48 -10q-25 -5 -38 -42t-30 -157l-24 -170q-17 -113 -87 -170t-176 -57q-108 0 -173 52t-65 151q0 30 3 55l43 313q3 19 -20 24l-45 11l-3 40h280l-3 -40l-50 -11q-23 -6 -26 -24l-43 -313q-5 -43 -5 -60q0 -62 39.5 -97.5
t105.5 -35.5q72 0 115 41.5t57 137.5l22 153q17 124 15 159t-26 40l-52 10l-3 40h240z" />
    <glyph glyph-name="Uacute" unicode="&#xda;" horiz-adv-x="708" 
d="M629 864l-201 -182h-45l119 182h127zM740 625l-3 -40l-48 -10q-25 -5 -38 -42t-30 -157l-24 -170q-17 -113 -87 -170t-176 -57q-108 0 -173 52t-65 151q0 30 3 55l43 313q3 19 -20 24l-45 11l-3 40h280l-3 -40l-50 -11q-23 -6 -26 -24l-43 -313q-5 -43 -5 -60
q0 -62 39.5 -97.5t105.5 -35.5q72 0 115 41.5t57 137.5l22 153q17 124 15 159t-26 40l-52 10l-3 40h240z" />
    <glyph glyph-name="Ucircumflex" unicode="&#xdb;" horiz-adv-x="708" 
d="M574 682h-46l-86 120h-2l-118 -120h-46l114 182h118zM740 625l-3 -40l-48 -10q-25 -5 -38 -42t-30 -157l-24 -170q-17 -113 -87 -170t-176 -57q-108 0 -173 52t-65 151q0 30 3 55l43 313q3 19 -20 24l-45 11l-3 40h280l-3 -40l-50 -11q-23 -6 -26 -24l-43 -313
q-5 -43 -5 -60q0 -62 39.5 -97.5t105.5 -35.5q72 0 115 41.5t57 137.5l22 153q17 124 15 159t-26 40l-52 10l-3 40h240z" />
    <glyph glyph-name="Udieresis" unicode="&#xdc;" horiz-adv-x="708" 
d="M584 773q0 -29 -17.5 -49t-47.5 -20t-47.5 20t-17.5 49t17.5 49.5t47.5 20.5t47.5 -20.5t17.5 -49.5zM370 773q0 -29 -17.5 -49t-47.5 -20t-48 20t-18 49t18 49.5t48 20.5t47.5 -20.5t17.5 -49.5zM740 625l-3 -40l-48 -10q-25 -5 -38 -42t-30 -157l-24 -170
q-17 -113 -87 -170t-176 -57q-108 0 -173 52t-65 151q0 30 3 55l43 313q3 19 -20 24l-45 11l-3 40h280l-3 -40l-50 -11q-23 -6 -26 -24l-43 -313q-5 -43 -5 -60q0 -62 39.5 -97.5t105.5 -35.5q72 0 115 41.5t57 137.5l22 153q17 124 15 159t-26 40l-52 10l-3 40h240z" />
    <glyph glyph-name="Yacute" unicode="&#xdd;" horiz-adv-x="597" 
d="M573 864l-201 -182h-45l119 182h127zM658 625l-3 -41l-24 -7q-30 -8 -53 -27t-64 -78l-144 -209l-24 -188q-3 -20 20 -24l59 -11l-1 -40h-307l6 40l64 11q22 3 26 24l24 182l-122 265q-13 25 -24 36t-29 16l-30 10l-3 41h287l-3 -41l-40 -6q-26 -4 -26.5 -27t20.5 -71
l71 -174h8l115 173q32 47 33 69.5t-30 28.5l-36 7l-3 41h233z" />
    <glyph glyph-name="Thorn" unicode="&#xde;" horiz-adv-x="588" 
d="M568 327q0 -93 -78.5 -147.5t-195.5 -54.5q-25 0 -67 4l-8 -54q-3 -21 20 -24l62 -11l2 -40h-296l4 40l49 11q23 5 26 24l65 475q3 19 -20 24l-45 11l-3 40h280l-3 -40l-50 -11q-23 -6 -26 -24l-6 -47h54q107 0 171.5 -47t64.5 -129zM432 322q0 61 -37.5 99t-93.5 38h-29
l-39 -286q24 -6 48 -6q68 0 109.5 41.5t41.5 113.5z" />
    <glyph glyph-name="germandbls" unicode="&#xdf;" horiz-adv-x="569" 
d="M392 418q61 -40 99.5 -98t38.5 -128q0 -83 -58.5 -145t-139.5 -62q-50 0 -85 27t-35 69q0 33 20.5 54t49.5 21q32 0 48 -22t9.5 -49.5t-31.5 -43.5q9 -9 31 -9q36 0 62.5 31t26.5 82q0 67 -38 135.5t-111 118.5l4 34q68 2 107.5 36t39.5 92q0 37 -19.5 61t-52.5 24
q-48 0 -75 -46t-48 -152l-70 -354q-43 -219 -112 -289q-51 -51 -126 -51q-41 0 -69.5 22t-28.5 57q0 27 16.5 44.5t41.5 17.5q31 0 50.5 -24t22.5 -59l54 17q16 40 39 168l58 388l-84 6l3 35l95 30q26 118 88.5 178t153.5 60q82 0 127 -41t45 -100q0 -56 -39 -90t-108 -45z
" />
    <glyph glyph-name="agrave" unicode="&#xe0;" horiz-adv-x="528" 
d="M370 515h-46l-151 182h127zM368 391h8l27 77h103l-60 -181l-53 -224l27 -9l74 51l17 -21q-24 -40 -63.5 -70t-76.5 -30q-21 0 -55.5 14t-34.5 27q0 9 8.5 36t25.5 75t22 64h-10q-77 -129 -101 -158q-45 -57 -91 -57q-49 0 -81 35.5t-32 99.5q0 73 34 150t86 129
q69 69 139 69q66 0 87 -77zM354 329q-18 30 -50.5 53.5t-58.5 23.5q-17 0 -33 -16q-30 -30 -54.5 -104t-24.5 -134q0 -37 14 -58t37 -21q30 0 74 63q17 24 73 114z" />
    <glyph glyph-name="aacute" unicode="&#xe1;" horiz-adv-x="528" 
d="M498 697l-201 -182h-45l119 182h127zM368 391h8l27 77h103l-60 -181l-53 -224l27 -9l74 51l17 -21q-24 -40 -63.5 -70t-76.5 -30q-21 0 -55.5 14t-34.5 27q0 9 8.5 36t25.5 75t22 64h-10q-77 -129 -101 -158q-45 -57 -91 -57q-49 0 -81 35.5t-32 99.5q0 73 34 150t86 129
q69 69 139 69q66 0 87 -77zM354 329q-18 30 -50.5 53.5t-58.5 23.5q-17 0 -33 -16q-30 -30 -54.5 -104t-24.5 -134q0 -37 14 -58t37 -21q30 0 74 63q17 24 73 114z" />
    <glyph glyph-name="acircumflex" unicode="&#xe2;" horiz-adv-x="528" 
d="M462 515h-46l-86 120h-2l-118 -120h-46l114 182h118zM368 391h8l27 77h103l-60 -181l-53 -224l27 -9l74 51l17 -21q-24 -40 -63.5 -70t-76.5 -30q-21 0 -55.5 14t-34.5 27q0 9 8.5 36t25.5 75t22 64h-10q-77 -129 -101 -158q-45 -57 -91 -57q-49 0 -81 35.5t-32 99.5
q0 73 34 150t86 129q69 69 139 69q66 0 87 -77zM354 329q-18 30 -50.5 53.5t-58.5 23.5q-17 0 -33 -16q-30 -30 -54.5 -104t-24.5 -134q0 -37 14 -58t37 -21q30 0 74 63q17 24 73 114z" />
    <glyph glyph-name="atilde" unicode="&#xe3;" horiz-adv-x="528" 
d="M500 658q-32 -135 -121 -135q-33 0 -81.5 35.5t-64.5 35.5q-15 0 -25 -13t-28 -49h-43q31 135 120 135q33 0 80.5 -35t63.5 -35q15 0 27.5 13.5t29.5 47.5h42zM368 391h8l27 77h103l-60 -181l-53 -224l27 -9l74 51l17 -21q-24 -40 -63.5 -70t-76.5 -30q-21 0 -55.5 14
t-34.5 27q0 9 8.5 36t25.5 75t22 64h-10q-77 -129 -101 -158q-45 -57 -91 -57q-49 0 -81 35.5t-32 99.5q0 73 34 150t86 129q69 69 139 69q66 0 87 -77zM354 329q-18 30 -50.5 53.5t-58.5 23.5q-17 0 -33 -16q-30 -30 -54.5 -104t-24.5 -134q0 -37 14 -58t37 -21q30 0 74 63
q17 24 73 114z" />
    <glyph glyph-name="adieresis" unicode="&#xe4;" horiz-adv-x="528" 
d="M494 606q0 -29 -17.5 -49t-47.5 -20t-47.5 20t-17.5 49t17.5 49.5t47.5 20.5t47.5 -20.5t17.5 -49.5zM280 606q0 -29 -17.5 -49t-47.5 -20t-48 20t-18 49t18 49.5t48 20.5t47.5 -20.5t17.5 -49.5zM368 391h8l27 77h103l-60 -181l-53 -224l27 -9l74 51l17 -21
q-24 -40 -63.5 -70t-76.5 -30q-21 0 -55.5 14t-34.5 27q0 9 8.5 36t25.5 75t22 64h-10q-77 -129 -101 -158q-45 -57 -91 -57q-49 0 -81 35.5t-32 99.5q0 73 34 150t86 129q69 69 139 69q66 0 87 -77zM354 329q-18 30 -50.5 53.5t-58.5 23.5q-17 0 -33 -16
q-30 -30 -54.5 -104t-24.5 -134q0 -37 14 -58t37 -21q30 0 74 63q17 24 73 114z" />
    <glyph glyph-name="aring" unicode="&#xe5;" horiz-adv-x="528" 
d="M430 613q0 -42 -27 -71t-71 -29q-45 0 -72.5 29t-26.5 71t28 71t71 29t71 -29t27 -71zM368 391h8l27 77h103l-60 -181l-53 -224l27 -9l74 51l17 -21q-24 -40 -63.5 -70t-76.5 -30q-21 0 -55.5 14t-34.5 27q0 9 8.5 36t25.5 75t22 64h-10q-77 -129 -101 -158
q-45 -57 -91 -57q-49 0 -81 35.5t-32 99.5q0 73 34 150t86 129q69 69 139 69q66 0 87 -77zM396 613q0 28 -17.5 48t-46.5 20t-46.5 -20t-17.5 -48t17.5 -47.5t46.5 -19.5t46.5 19.5t17.5 47.5zM354 329q-18 30 -50.5 53.5t-58.5 23.5q-17 0 -33 -16q-30 -30 -54.5 -104
t-24.5 -134q0 -37 14 -58t37 -21q30 0 74 63q17 24 73 114z" />
    <glyph glyph-name="ae" unicode="&#xe6;" horiz-adv-x="691" 
d="M371 354q83 115 190 115q57 0 90 -28t33 -72q0 -11 -2.5 -21.5t-10.5 -20.5t-15.5 -18t-23.5 -19t-29 -19t-38 -21t-43.5 -22.5t-52.5 -27t-59 -30.5v-13q0 -43 24.5 -70.5t62.5 -27.5q30 0 128 66l16 -21q-43 -55 -87.5 -87t-100.5 -32q-71 0 -113 46t-44 117v7
q-48 -81 -88 -125.5t-77 -44.5q-49 0 -79 39.5t-30 105.5q0 73 31.5 145t83.5 124q69 69 139 69q39 0 63 -31.5t32 -82.5zM351 316q-18 37 -51.5 63.5t-60.5 26.5q-17 0 -33 -16q-30 -30 -51.5 -98.5t-21.5 -129.5q0 -37 12.5 -61.5t31.5 -24.5q13 0 28 11t31.5 35t28.5 44
t32.5 56t30.5 53q13 26 23 41zM412 205q99 55 136 87.5t37 71.5q0 18 -26.5 32.5t-47.5 14.5q-19 0 -30 -11q-20 -20 -42.5 -76t-30.5 -119h4z" />
    <glyph glyph-name="ccedilla" unicode="&#xe7;" horiz-adv-x="426" 
d="M162 -14q-62 7 -98 53.5t-36 113.5q0 115 81 215.5t190 100.5q53 0 89 -28.5t36 -71.5q0 -31 -19 -52t-44 -21q-28 0 -41.5 15.5t-13.5 39.5q0 20 12 40q-11 8 -35.5 14.5t-43.5 6.5q-7 0 -19 -12q-26 -25 -52.5 -97t-26.5 -137q0 -48 24.5 -77.5t63.5 -29.5q30 0 127 66
l16 -21q-78 -103 -160 -117l-47 -41q59 -2 93 -24.5t34 -61.5q0 -56 -66.5 -93t-173.5 -42l-6 27q81 10 124.5 32t43.5 53q0 48 -77 48q-36 0 -70 -7l3 24z" />
    <glyph glyph-name="egrave" unicode="&#xe8;" horiz-adv-x="422" 
d="M141 170v-13q0 -43 25 -70.5t63 -27.5q30 0 127 66l16 -21q-91 -119 -188 -119q-73 0 -114.5 47.5t-41.5 120.5q0 116 79.5 216t184.5 100q58 0 90.5 -28t32.5 -72q0 -11 -2.5 -21.5t-10.5 -20.5t-15.5 -18t-23.5 -19t-29 -19t-38 -21t-43.5 -22.5t-52.5 -27t-59 -30.5z
M140 205h3q100 55 137 87.5t37 71.5q0 18 -27 32.5t-47 14.5t-31 -11q-20 -20 -42 -76t-30 -119zM333 515h-46l-151 182h127z" />
    <glyph glyph-name="eacute" unicode="&#xe9;" horiz-adv-x="422" 
d="M141 170v-13q0 -43 25 -70.5t63 -27.5q30 0 127 66l16 -21q-91 -119 -188 -119q-73 0 -114.5 47.5t-41.5 120.5q0 116 79.5 216t184.5 100q58 0 90.5 -28t32.5 -72q0 -11 -2.5 -21.5t-10.5 -20.5t-15.5 -18t-23.5 -19t-29 -19t-38 -21t-43.5 -22.5t-52.5 -27t-59 -30.5z
M140 205h3q100 55 137 87.5t37 71.5q0 18 -27 32.5t-47 14.5t-31 -11q-20 -20 -42 -76t-30 -119zM466 697l-201 -182h-45l119 182h127z" />
    <glyph glyph-name="ecircumflex" unicode="&#xea;" horiz-adv-x="422" 
d="M141 170v-13q0 -43 25 -70.5t63 -27.5q30 0 127 66l16 -21q-91 -119 -188 -119q-73 0 -114.5 47.5t-41.5 120.5q0 116 79.5 216t184.5 100q58 0 90.5 -28t32.5 -72q0 -11 -2.5 -21.5t-10.5 -20.5t-15.5 -18t-23.5 -19t-29 -19t-38 -21t-43.5 -22.5t-52.5 -27t-59 -30.5z
M417 515h-46l-86 120h-2l-118 -120h-46l114 182h118zM140 205h3q100 55 137 87.5t37 71.5q0 18 -27 32.5t-47 14.5t-31 -11q-20 -20 -42 -76t-30 -119z" />
    <glyph glyph-name="edieresis" unicode="&#xeb;" horiz-adv-x="422" 
d="M141 170v-13q0 -43 25 -70.5t63 -27.5q30 0 127 66l16 -21q-91 -119 -188 -119q-73 0 -114.5 47.5t-41.5 120.5q0 116 79.5 216t184.5 100q58 0 90.5 -28t32.5 -72q0 -11 -2.5 -21.5t-10.5 -20.5t-15.5 -18t-23.5 -19t-29 -19t-38 -21t-43.5 -22.5t-52.5 -27t-59 -30.5z
M140 205h3q100 55 137 87.5t37 71.5q0 18 -27 32.5t-47 14.5t-31 -11q-20 -20 -42 -76t-30 -119zM242 606q0 -29 -17.5 -49t-47.5 -20t-48 20t-18 49t18 49.5t48 20.5t47.5 -20.5t17.5 -49.5zM456 606q0 -29 -17.5 -49t-47.5 -20t-47.5 20t-17.5 49t17.5 49.5t47.5 20.5
t47.5 -20.5t17.5 -49.5z" />
    <glyph glyph-name="igrave" unicode="&#xec;" horiz-adv-x="280" 
d="M231 515h-46l-151 182h127zM261 84q-24 -40 -63 -70t-76 -30q-20 0 -56 16t-33 26l96 362l-30 6l-65 -72l-20 22q22 48 58 86.5t72 38.5q13 0 37.5 -7t44 -17.5t17.5 -17.5l-100 -364l27 -9l74 51z" />
    <glyph glyph-name="iacute" unicode="&#xed;" horiz-adv-x="280" 
d="M354 697l-201 -182h-45l119 182h127zM261 84q-24 -40 -63 -70t-76 -30q-20 0 -56 16t-33 26l96 362l-30 6l-65 -72l-20 22q22 48 58 86.5t72 38.5q13 0 37.5 -7t44 -17.5t17.5 -17.5l-100 -364l27 -9l74 51z" />
    <glyph glyph-name="icircumflex" unicode="&#xee;" horiz-adv-x="280" 
d="M326 515h-46l-86 120h-2l-118 -120h-46l114 182h118zM261 84q-24 -40 -63 -70t-76 -30q-20 0 -56 16t-33 26l96 362l-30 6l-65 -72l-20 22q22 48 58 86.5t72 38.5q13 0 37.5 -7t44 -17.5t17.5 -17.5l-100 -364l27 -9l74 51z" />
    <glyph glyph-name="idieresis" unicode="&#xef;" horiz-adv-x="280" 
d="M365 606q0 -29 -17.5 -49t-47.5 -20t-47.5 20t-17.5 49t17.5 49.5t47.5 20.5t47.5 -20.5t17.5 -49.5zM151 606q0 -29 -17.5 -49t-47.5 -20t-48 20t-18 49t18 49.5t48 20.5t47.5 -20.5t17.5 -49.5zM261 84q-24 -40 -63 -70t-76 -30q-20 0 -56 16t-33 26l96 362l-30 6
l-65 -72l-20 22q22 48 58 86.5t72 38.5q13 0 37.5 -7t44 -17.5t17.5 -17.5l-100 -364l27 -9l74 51z" />
    <glyph glyph-name="eth" unicode="&#xf0;" horiz-adv-x="481" 
d="M290 558l-153 -39l11 48l105 26q-34 27 -90 49l24 39q79 -24 139 -70l135 34l-11 -47l-83 -22q96 -96 98 -237q0 -144 -76 -249t-181 -105q-84 0 -130.5 56t-46.5 147q0 109 68.5 195t163.5 86q59 0 87 -45q-11 80 -60 134zM153 246q-13 -57 -13 -101q0 -47 18 -80
t49 -33q42 0 74 56t47 124q12 58 12 101q0 47 -17.5 77.5t-49.5 30.5q-40 0 -73 -55t-47 -120z" />
    <glyph glyph-name="ntilde" unicode="&#xf1;" horiz-adv-x="550" 
d="M528 84q-24 -40 -63 -70t-76 -30q-21 0 -55 14.5t-34 27.5q0 21 56 189q33 106 33 126q0 15 -14 25t-32 10q-24 0 -57.5 -52.5t-91.5 -174.5l-33 -151l-121 -1l37 150l49 238l-28 7l-66 -70l-20 22q23 48 58.5 86.5t71.5 38.5q23 0 60.5 -11.5t37.5 -24.5q0 -36 -55 -226
h11q81 178 121 218q44 44 96 44q38 0 63 -22.5t25 -57.5q0 -47 -46 -189l-45 -137l27 -9l74 51zM499 658q-32 -135 -121 -135q-33 0 -81.5 35.5t-64.5 35.5q-15 0 -25 -13t-28 -49h-43q31 135 120 135q33 0 80.5 -35t63.5 -35q15 0 27.5 13.5t29.5 47.5h42z" />
    <glyph glyph-name="ograve" unicode="&#xf2;" horiz-adv-x="481" 
d="M337 515h-46l-151 182h127zM449 265q0 -109 -70 -194.5t-171 -85.5q-84 0 -130.5 56t-46.5 147q0 109 71 195t171 86q84 0 130 -56t46 -148zM340 313q0 47 -17.5 77.5t-49.5 30.5q-40 0 -73 -55t-47 -120q-13 -57 -13 -101q0 -47 18 -80t49 -33q42 0 74 56t47 124
q12 58 12 101z" />
    <glyph glyph-name="oacute" unicode="&#xf3;" horiz-adv-x="481" 
d="M485 697l-201 -182h-45l119 182h127zM449 265q0 -109 -70 -194.5t-171 -85.5q-84 0 -130.5 56t-46.5 147q0 109 71 195t171 86q84 0 130 -56t46 -148zM340 313q0 47 -17.5 77.5t-49.5 30.5q-40 0 -73 -55t-47 -120q-13 -57 -13 -101q0 -47 18 -80t49 -33q42 0 74 56
t47 124q12 58 12 101z" />
    <glyph glyph-name="ocircumflex" unicode="&#xf4;" horiz-adv-x="481" 
d="M437 515h-46l-86 120h-2l-118 -120h-46l114 182h118zM449 265q0 -109 -70 -194.5t-171 -85.5q-84 0 -130.5 56t-46.5 147q0 109 71 195t171 86q84 0 130 -56t46 -148zM340 313q0 47 -17.5 77.5t-49.5 30.5q-40 0 -73 -55t-47 -120q-13 -57 -13 -101q0 -47 18 -80t49 -33
q42 0 74 56t47 124q12 58 12 101z" />
    <glyph glyph-name="otilde" unicode="&#xf5;" horiz-adv-x="481" 
d="M487 658q-32 -135 -121 -135q-33 0 -81.5 35.5t-64.5 35.5q-15 0 -25 -13t-28 -49h-43q31 135 120 135q33 0 80.5 -35t63.5 -35q15 0 27.5 13.5t29.5 47.5h42zM449 265q0 -109 -70 -194.5t-171 -85.5q-84 0 -130.5 56t-46.5 147q0 109 71 195t171 86q84 0 130 -56
t46 -148zM340 313q0 47 -17.5 77.5t-49.5 30.5q-40 0 -73 -55t-47 -120q-13 -57 -13 -101q0 -47 18 -80t49 -33q42 0 74 56t47 124q12 58 12 101z" />
    <glyph glyph-name="odieresis" unicode="&#xf6;" horiz-adv-x="481" 
d="M481 606q0 -29 -17.5 -49t-47.5 -20t-47.5 20t-17.5 49t17.5 49.5t47.5 20.5t47.5 -20.5t17.5 -49.5zM267 606q0 -29 -17.5 -49t-47.5 -20t-48 20t-18 49t18 49.5t48 20.5t47.5 -20.5t17.5 -49.5zM449 265q0 -109 -70 -194.5t-171 -85.5q-84 0 -130.5 56t-46.5 147
q0 109 71 195t171 86q84 0 130 -56t46 -148zM340 313q0 47 -17.5 77.5t-49.5 30.5q-40 0 -73 -55t-47 -120q-13 -57 -13 -101q0 -47 18 -80t49 -33q42 0 74 56t47 124q12 58 12 101z" />
    <glyph glyph-name="divide" unicode="&#xf7;" horiz-adv-x="480" 
d="M294 95q0 -21 -14.5 -36.5t-36.5 -15.5t-37 15.5t-15 36.5t15 36t37 15t36.5 -15t14.5 -36zM294 375q0 -21 -15 -36.5t-37 -15.5t-36.5 15.5t-14.5 36.5t14.5 36.5t36.5 15.5t37 -15.5t15 -36.5zM444 206h-405l3 57h399z" />
    <glyph glyph-name="oslash" unicode="&#xf8;" horiz-adv-x="481" 
d="M99 20q-68 56 -68 168q0 109 71 195t171 86q41 0 76 -16l83 145h44l-95 -164q68 -53 68 -169q0 -109 -70 -194.5t-171 -85.5q-45 0 -77 16l-75 -130h-43q5 9 14 25t28 48.5t31 53.5zM337 358q-175 -304 -176 -304q19 -24 46 -24q42 0 75.5 56.5t47.5 124.5q12 52 12 102
q0 22 -5 45zM143 98l176 303q-20 23 -46 23q-41 0 -74.5 -55.5t-48.5 -122.5q-12 -51 -12 -101q0 -22 5 -47z" />
    <glyph glyph-name="ugrave" unicode="&#xf9;" horiz-adv-x="550" 
d="M361 515h-46l-151 182h127zM25 344q22 48 58.5 86.5t72.5 38.5q20 0 56.5 -19t36.5 -32q0 -22 -53 -179q-32 -105 -32 -121q0 -15 14 -28t31 -13q24 0 57.5 52t94.5 175l35 153h121l-42 -150q-46 -231 -51 -246l27 -10l71 51l18 -20q-24 -41 -62.5 -69.5t-75.5 -28.5
q-21 0 -55 14.5t-34 27.5q0 39 57 221h-11q-84 -178 -124 -218q-44 -44 -96 -44q-38 0 -63 24.5t-25 59.5q0 48 45 185q30 91 43 134l-29 6l-64 -72z" />
    <glyph glyph-name="uacute" unicode="&#xfa;" horiz-adv-x="550" 
d="M504 697l-201 -182h-45l119 182h127zM25 344q22 48 58.5 86.5t72.5 38.5q20 0 56.5 -19t36.5 -32q0 -22 -53 -179q-32 -105 -32 -121q0 -15 14 -28t31 -13q24 0 57.5 52t94.5 175l35 153h121l-42 -150q-46 -231 -51 -246l27 -10l71 51l18 -20q-24 -41 -62.5 -69.5
t-75.5 -28.5q-21 0 -55 14.5t-34 27.5q0 39 57 221h-11q-84 -178 -124 -218q-44 -44 -96 -44q-38 0 -63 24.5t-25 59.5q0 48 45 185q30 91 43 134l-29 6l-64 -72z" />
    <glyph glyph-name="ucircumflex" unicode="&#xfb;" horiz-adv-x="550" 
d="M466 515h-46l-86 120h-2l-118 -120h-46l114 182h118zM25 344q22 48 58.5 86.5t72.5 38.5q20 0 56.5 -19t36.5 -32q0 -22 -53 -179q-32 -105 -32 -121q0 -15 14 -28t31 -13q24 0 57.5 52t94.5 175l35 153h121l-42 -150q-46 -231 -51 -246l27 -10l71 51l18 -20
q-24 -41 -62.5 -69.5t-75.5 -28.5q-21 0 -55 14.5t-34 27.5q0 39 57 221h-11q-84 -178 -124 -218q-44 -44 -96 -44q-38 0 -63 24.5t-25 59.5q0 48 45 185q30 91 43 134l-29 6l-64 -72z" />
    <glyph glyph-name="udieresis" unicode="&#xfc;" horiz-adv-x="550" 
d="M505 606q0 -29 -17.5 -49t-47.5 -20t-47.5 20t-17.5 49t17.5 49.5t47.5 20.5t47.5 -20.5t17.5 -49.5zM291 606q0 -29 -17.5 -49t-47.5 -20t-48 20t-18 49t18 49.5t48 20.5t47.5 -20.5t17.5 -49.5zM25 344q22 48 58.5 86.5t72.5 38.5q20 0 56.5 -19t36.5 -32
q0 -22 -53 -179q-32 -105 -32 -121q0 -15 14 -28t31 -13q24 0 57.5 52t94.5 175l35 153h121l-42 -150q-46 -231 -51 -246l27 -10l71 51l18 -20q-24 -41 -62.5 -69.5t-75.5 -28.5q-21 0 -55 14.5t-34 27.5q0 39 57 221h-11q-84 -178 -124 -218q-44 -44 -96 -44
q-38 0 -63 24.5t-25 59.5q0 48 45 185q30 91 43 134l-29 6l-64 -72z" />
    <glyph glyph-name="yacute" unicode="&#xfd;" horiz-adv-x="476" 
d="M482 697l-201 -182h-45l119 182h127zM480 389q0 -71 -127 -235l-91 -123l-56 -112q-43 -86 -88.5 -128t-100.5 -42q-40 0 -69 23t-29 59q0 26 17.5 43.5t40.5 17.5q31 0 51 -22.5t19 -57.5l18 -1l126 167l-68 20l-11 390l-29 6l-64 -72l-20 22q22 48 58 86.5t72 38.5
q22 0 59 -14t38 -27l-7 -379h13l156 270v12q-56 22 -56 65q0 31 19.5 52.5t49.5 21.5q34 0 56.5 -22t22.5 -59z" />
    <glyph glyph-name="thorn" unicode="&#xfe;" horiz-adv-x="507" 
d="M479 324q0 -73 -31 -146.5t-82 -124.5q-68 -68 -138 -68q-59 0 -92 52h-6l-42 -209q-3 -18 21 -24l65 -11l4 -39h-274l3 39l47 11q20 5 25 24l157 729q6 26 -12 34l-57 27l6 28l204 51l-57 -229l-50 -205h10q56 112 97.5 159t91.5 47q47 0 78.5 -40t31.5 -105zM368 292
q0 38 -13 63.5t-35 25.5q-25 0 -56.5 -41.5t-93.5 -146.5l-25 -88q21 -29 52.5 -51t52.5 -22q16 0 32 16q34 34 60 109t26 135z" />
    <glyph glyph-name="ydieresis" unicode="&#xff;" horiz-adv-x="476" 
d="M473 606q0 -29 -17.5 -49t-47.5 -20t-47.5 20t-17.5 49t17.5 49.5t47.5 20.5t47.5 -20.5t17.5 -49.5zM259 606q0 -29 -17.5 -49t-47.5 -20t-48 20t-18 49t18 49.5t48 20.5t47.5 -20.5t17.5 -49.5zM480 389q0 -71 -127 -235l-91 -123l-56 -112q-43 -86 -88.5 -128
t-100.5 -42q-40 0 -69 23t-29 59q0 26 17.5 43.5t40.5 17.5q31 0 51 -22.5t19 -57.5l18 -1l126 167l-68 20l-11 390l-29 6l-64 -72l-20 22q22 48 58 86.5t72 38.5q22 0 59 -14t38 -27l-7 -379h13l156 270v12q-56 22 -56 65q0 31 19.5 52.5t49.5 21.5q34 0 56.5 -22t22.5 -59
z" />
    <glyph glyph-name="Amacron" unicode="&#x100;" horiz-adv-x="620" 
d="M599 0h-295l3 41l39 6q26 4 30.5 20.5t-4.5 56.5l-14 84h-188l-17 -46q-43 -102 11 -113l36 -8l3 -41h-237l3 41l28 9q32 9 50 30.5t58 107.5l174 384v38l133 30l108 -549q4 -19 11.5 -28t26.5 -13l38 -9zM350 257l-41 257h-8l-111 -257h160zM510 701h-297l12 58h284z
" />
    <glyph glyph-name="amacron" unicode="&#x101;" horiz-adv-x="528" 
d="M368 391h8l27 77h103l-60 -181l-53 -224l27 -9l74 51l17 -21q-24 -40 -63.5 -70t-76.5 -30q-21 0 -55.5 14t-34.5 27q0 9 8.5 36t25.5 75t22 64h-10q-77 -129 -101 -158q-45 -57 -91 -57q-49 0 -81 35.5t-32 99.5q0 73 34 150t86 129q69 69 139 69q66 0 87 -77zM354 329
q-18 30 -50.5 53.5t-58.5 23.5q-17 0 -33 -16q-30 -30 -54.5 -104t-24.5 -134q0 -37 14 -58t37 -21q30 0 74 63q17 24 73 114zM485 546h-297l12 58h284z" />
    <glyph glyph-name="Abreve" unicode="&#x102;" horiz-adv-x="620" 
d="M599 0h-295l3 41l39 6q26 4 30.5 20.5t-4.5 56.5l-14 84h-188l-17 -46q-43 -102 11 -113l36 -8l3 -41h-237l3 41l28 9q32 9 50 30.5t58 107.5l174 384v38l133 30l108 -549q4 -19 11.5 -28t26.5 -13l38 -9zM525 852q-50 -187 -176 -187q-65 0 -93 49t-32 138h44
q14 -58 33.5 -89t55.5 -31t65 31.5t60 88.5h43zM350 257l-41 257h-8l-111 -257h160z" />
    <glyph glyph-name="abreve" unicode="&#x103;" horiz-adv-x="528" 
d="M368 391h8l27 77h103l-60 -181l-53 -224l27 -9l74 51l17 -21q-24 -40 -63.5 -70t-76.5 -30q-21 0 -55.5 14t-34.5 27q0 9 8.5 36t25.5 75t22 64h-10q-77 -129 -101 -158q-45 -57 -91 -57q-49 0 -81 35.5t-32 99.5q0 73 34 150t86 129q69 69 139 69q66 0 87 -77zM354 329
q-18 30 -50.5 53.5t-58.5 23.5q-17 0 -33 -16q-30 -30 -54.5 -104t-24.5 -134q0 -37 14 -58t37 -21q30 0 74 63q17 24 73 114zM511 697q-50 -187 -176 -187q-65 0 -93 49t-32 138h44q14 -58 33.5 -89t55.5 -31t65 31.5t60 88.5h43z" />
    <glyph glyph-name="Aogonek" unicode="&#x104;" horiz-adv-x="620" 
d="M466 -220q-44 5 -67 31.5t-15 68.5q8 36 42.5 67.5t82.5 52.5h-205l3 41l39 6q26 4 30.5 20.5t-4.5 56.5l-13 85h-188l-18 -47q-43 -102 11 -113l36 -8l3 -41h-237l3 41l28 9q32 8 49.5 30t58.5 108l175 384v38l132 30l108 -549q4 -19 11.5 -28t26.5 -13l38 -9l3 -41
q-43 -8 -79 -37.5t-41 -63.5q-4 -23 6.5 -39.5t32.5 -18.5q32 -3 56 15l8 -13q-10 -29 -42.5 -48t-73.5 -15zM351 257l-41 258h-9l-110 -258h160z" />
    <glyph glyph-name="aogonek" unicode="&#x105;" horiz-adv-x="528" 
d="M329 -220q-44 5 -66 32.5t-13 70.5q12 59 93 106q-23 6 -42.5 16.5t-19.5 19.5t8.5 36t25.5 75t22 64h-10q-77 -129 -101 -158q-45 -57 -91 -57q-49 0 -81 35.5t-32 99.5q0 73 34 150t86 129q69 69 139 69q66 0 87 -76h8l27 76h103l-60 -181l-53 -224l27 -9l74 51l17 -20
q-13 -24 -41 -51t-54 -42q-27 -16 -47 -41.5t-25 -48.5q-5 -24 5 -41.5t32 -19.5q32 -3 56 15l8 -13q-10 -29 -42.5 -48t-73.5 -15zM354 330q-18 30 -50.5 53.5t-58.5 23.5q-15 0 -33 -16q-30 -31 -54.5 -105t-24.5 -134q0 -37 14 -58t37 -21q26 0 53.5 35.5t93.5 142.5z
" />
    <glyph glyph-name="Cacute" unicode="&#x106;" horiz-adv-x="650" 
d="M600 852l-201 -182h-45l119 182h127zM602 206l-47 -206l-60 12q-75 -28 -154 -28q-143 0 -217.5 76t-74.5 206q0 72 30.5 142.5t83.5 123.5q107 107 253 107q87 0 151 -25l86 23l-30 -223h-69l-23 144q-45 32 -105 32q-96 0 -163.5 -98t-67.5 -239q0 -121 62 -181
q39 -39 103 -39q50 0 96 24l70 149h76z" />
    <glyph glyph-name="cacute" unicode="&#x107;" horiz-adv-x="426" 
d="M458 697l-201 -182h-45l119 182h127zM318 391q-11 8 -35.5 14.5t-43.5 6.5q-7 0 -19 -12q-26 -25 -52.5 -97t-26.5 -137q0 -48 24.5 -77.5t63.5 -29.5q30 0 127 66l16 -21q-91 -119 -188 -119q-72 0 -114 47.5t-42 120.5q0 115 81 215.5t190 100.5q53 0 89 -28.5
t36 -71.5q0 -31 -19 -52t-44 -21q-28 0 -41.5 15.5t-13.5 39.5q0 20 12 40z" />
    <glyph glyph-name="Ccircumflex" unicode="&#x108;" horiz-adv-x="650" 
d="M558 670h-46l-86 120h-2l-118 -120h-46l114 182h118zM602 206l-47 -206l-60 12q-75 -28 -154 -28q-143 0 -217.5 76t-74.5 206q0 72 30.5 142.5t83.5 123.5q107 107 253 107q87 0 151 -25l86 23l-30 -223h-69l-23 144q-45 32 -105 32q-96 0 -163.5 -98t-67.5 -239
q0 -121 62 -181q39 -39 103 -39q50 0 96 24l70 149h76z" />
    <glyph glyph-name="ccircumflex" unicode="&#x109;" horiz-adv-x="426" 
d="M438 515h-46l-86 120h-2l-118 -120h-46l114 182h118zM318 391q-11 8 -35.5 14.5t-43.5 6.5q-7 0 -19 -12q-26 -25 -52.5 -97t-26.5 -137q0 -48 24.5 -77.5t63.5 -29.5q30 0 127 66l16 -21q-91 -119 -188 -119q-72 0 -114 47.5t-42 120.5q0 115 81 215.5t190 100.5
q53 0 89 -28.5t36 -71.5q0 -31 -19 -52t-44 -21q-28 0 -41.5 15.5t-13.5 39.5q0 20 12 40z" />
    <glyph glyph-name="Cdotaccent" unicode="&#x10a;" horiz-adv-x="650" 
d="M602 206l-47 -206l-60 12q-75 -28 -154 -28q-143 0 -217.5 76t-74.5 206q0 72 30.5 142.5t83.5 123.5q107 107 253 107q87 0 151 -25l86 23l-30 -223h-69l-23 144q-45 32 -105 32q-96 0 -163.5 -98t-67.5 -239q0 -121 62 -181q39 -39 103 -39q50 0 96 24l70 149h76z
M484 766q0 -30 -18.5 -50.5t-49.5 -20.5q-30 0 -48 20.5t-18 50.5t18 51t48 21q31 0 49.5 -21t18.5 -51z" />
    <glyph glyph-name="cdotaccent" unicode="&#x10b;" horiz-adv-x="426" 
d="M318 391q-11 8 -35.5 14.5t-43.5 6.5q-7 0 -19 -12q-26 -25 -52.5 -97t-26.5 -137q0 -48 24.5 -77.5t63.5 -29.5q30 0 127 66l16 -21q-91 -119 -188 -119q-72 0 -114 47.5t-42 120.5q0 115 81 215.5t190 100.5q53 0 89 -28.5t36 -71.5q0 -31 -19 -52t-44 -21
q-28 0 -41.5 15.5t-13.5 39.5q0 20 12 40zM374 611q0 -30 -18.5 -50.5t-49.5 -20.5q-30 0 -48 20.5t-18 50.5t18 51t48 21q31 0 49.5 -21t18.5 -51z" />
    <glyph glyph-name="Ccaron" unicode="&#x10c;" horiz-adv-x="650" 
d="M584 852l-113 -182h-119l-64 182h44l86 -120h2l119 120h45zM602 206l-47 -206l-60 12q-75 -28 -154 -28q-143 0 -217.5 76t-74.5 206q0 72 30.5 142.5t83.5 123.5q107 107 253 107q87 0 151 -25l86 23l-30 -223h-69l-23 144q-45 32 -105 32q-96 0 -163.5 -98t-67.5 -239
q0 -121 62 -181q39 -39 103 -39q50 0 96 24l70 149h76z" />
    <glyph glyph-name="ccaron" unicode="&#x10d;" horiz-adv-x="426" 
d="M451 697l-113 -182h-119l-64 182h44l86 -120h2l119 120h45zM318 391q-11 8 -35.5 14.5t-43.5 6.5q-7 0 -19 -12q-26 -25 -52.5 -97t-26.5 -137q0 -48 24.5 -77.5t63.5 -29.5q30 0 127 66l16 -21q-91 -119 -188 -119q-72 0 -114 47.5t-42 120.5q0 115 81 215.5t190 100.5
q53 0 89 -28.5t36 -71.5q0 -31 -19 -52t-44 -21q-28 0 -41.5 15.5t-13.5 39.5q0 20 12 40z" />
    <glyph glyph-name="Dcaron" unicode="&#x10e;" horiz-adv-x="686" 
d="M664 349q0 -141 -102 -243q-48 -48 -126.5 -77t-171.5 -29h-257l4 40l49 11q23 5 26 24l64 475q3 19 -20 24l-45 11l-3 40l266 1q149 0 232.5 -76t83.5 -201zM520 350q0 107 -47 168t-146 61h-40l-70 -519l67 -15q103 5 169.5 85t66.5 220zM518 852l-113 -182h-119
l-64 182h44l86 -120h2l119 120h45z" />
    <glyph glyph-name="dcaron" unicode="&#x10f;" horiz-adv-x="751" 
d="M766 599q0 -59 -53 -113t-135 -96l-25 24q48 27 79.5 62.5t31.5 70.5q0 16 -7 30.5t-17 24.5t-20.5 17.5t-17.5 11.5l-7 4q0 25 23 44.5t54 19.5q40 0 67 -29.5t27 -70.5zM511 84q-24 -40 -63.5 -70t-76.5 -30q-20 0 -53.5 19t-33.5 32q0 9 8 33.5t23.5 69t21.5 62.5h-10
q-77 -129 -101 -158q-45 -57 -91 -57q-49 0 -81 35.5t-32 99.5q0 73 34 150t86 129q69 69 139 69q35 0 52 -20t28 -57h8l35 166q6 26 -12 34l-57 27l6 28l205 51l-110 -442l-43 -192l27 -9l74 51zM354 329q-18 30 -50.5 53.5t-58.5 23.5q-17 0 -33 -16q-30 -30 -54.5 -104
t-24.5 -134q0 -37 14 -58t37 -21q30 0 74 63q17 24 73 114z" />
    <glyph glyph-name="Dcroat" unicode="&#x110;" horiz-adv-x="686" 
d="M115 293h-71l3 46h74l29 211q3 19 -20 24l-45 11l-3 40l266 1q149 0 232.5 -76t83.5 -201q0 -141 -102 -243q-48 -48 -126.5 -77t-171.5 -29h-257l4 40l49 11q23 5 26 24zM255 339h110l3 -46h-120l-8 -59q-7 -58 -15 -116l-8 -58l67 -15q103 5 169.5 85t66.5 220
q0 107 -47 168t-146 61h-40z" />
    <glyph glyph-name="dcroat" unicode="&#x111;" horiz-adv-x="528" 
d="M511 84q-24 -40 -63.5 -70t-76.5 -30q-20 0 -53.5 19t-33.5 32q0 9 8 33.5t23.5 69t21.5 62.5h-10q-77 -129 -101 -158q-45 -57 -91 -57q-49 0 -81 35.5t-32 99.5q0 73 34 150t86 129q69 69 139 69q35 0 52 -20t28 -57h8l24 116l-123 -1l13 53h121q4 24 -12 32l-57 27
l6 28l205 51l-35 -138h70l-1 -53l-82 -2l-62 -249l-43 -192l27 -9l74 51zM354 329q-18 30 -50.5 53.5t-58.5 23.5q-17 0 -33 -16q-30 -30 -54.5 -104t-24.5 -134q0 -37 14 -58t37 -21q30 0 74 63q17 24 73 114z" />
    <glyph glyph-name="Emacron" unicode="&#x112;" horiz-adv-x="627" 
d="M585 197l-46 -197h-532l4 40l49 11q23 5 26 24l65 475q3 19 -20 24l-46 11l-2 40h541l-27 -206h-69l-11 83q-3 23 -9 36t-15.5 22.5t-33.5 13t-52 5t-80 1.5h-39l-34 -242h19q45 0 65 6t30 26l34 68h51l-55 -242h-51l1 64q1 19 -15.5 26t-69.5 7h-15l-33 -248h43
q87 0 125 5.5t58.5 20.5t37.5 52l34 74h72zM531 701h-297l12 58h284z" />
    <glyph glyph-name="emacron" unicode="&#x113;" horiz-adv-x="422" 
d="M141 170v-13q0 -43 25 -70.5t63 -27.5q30 0 127 66l16 -21q-91 -119 -188 -119q-73 0 -114.5 47.5t-41.5 120.5q0 116 79.5 216t184.5 100q58 0 90.5 -28t32.5 -72q0 -11 -2.5 -21.5t-10.5 -20.5t-15.5 -18t-23.5 -19t-29 -19t-38 -21t-43.5 -22.5t-52.5 -27t-59 -30.5z
M140 205h3q100 55 137 87.5t37 71.5q0 18 -27 32.5t-47 14.5t-31 -11q-20 -20 -42 -76t-30 -119zM402 546h-297l12 58h284z" />
    <glyph glyph-name="Ebreve" unicode="&#x114;" horiz-adv-x="627" 
d="M585 197l-46 -197h-532l4 40l49 11q23 5 26 24l65 475q3 19 -20 24l-46 11l-2 40h541l-27 -206h-69l-11 83q-3 23 -9 36t-15.5 22.5t-33.5 13t-52 5t-80 1.5h-39l-34 -242h19q45 0 65 6t30 26l34 68h51l-55 -242h-51l1 64q1 19 -15.5 26t-69.5 7h-15l-33 -248h43
q87 0 125 5.5t58.5 20.5t37.5 52l34 74h72zM552 852q-50 -187 -176 -187q-65 0 -93 49t-32 138h44q14 -58 33.5 -89t55.5 -31t65 31.5t60 88.5h43z" />
    <glyph glyph-name="ebreve" unicode="&#x115;" horiz-adv-x="422" 
d="M141 170v-13q0 -43 25 -70.5t63 -27.5q30 0 127 66l16 -21q-91 -119 -188 -119q-73 0 -114.5 47.5t-41.5 120.5q0 116 79.5 216t184.5 100q58 0 90.5 -28t32.5 -72q0 -11 -2.5 -21.5t-10.5 -20.5t-15.5 -18t-23.5 -19t-29 -19t-38 -21t-43.5 -22.5t-52.5 -27t-59 -30.5z
M444 697q-50 -187 -176 -187q-65 0 -93 49t-32 138h44q14 -58 33.5 -89t55.5 -31t65 31.5t60 88.5h43zM140 205h3q100 55 137 87.5t37 71.5q0 18 -27 32.5t-47 14.5t-31 -11q-20 -20 -42 -76t-30 -119z" />
    <glyph glyph-name="Edotaccent" unicode="&#x116;" horiz-adv-x="627" 
d="M585 197l-46 -197h-532l4 40l49 11q23 5 26 24l65 475q3 19 -20 24l-46 11l-2 40h541l-27 -206h-69l-11 83q-3 23 -9 36t-15.5 22.5t-33.5 13t-52 5t-80 1.5h-39l-34 -242h19q45 0 65 6t30 26l34 68h51l-55 -242h-51l1 64q1 19 -15.5 26t-69.5 7h-15l-33 -248h43
q87 0 125 5.5t58.5 20.5t37.5 52l34 74h72zM457 766q0 -30 -18.5 -50.5t-49.5 -20.5q-30 0 -48 20.5t-18 50.5t18 51t48 21q31 0 49.5 -21t18.5 -51z" />
    <glyph glyph-name="edotaccent" unicode="&#x117;" horiz-adv-x="422" 
d="M141 170v-13q0 -43 25 -70.5t63 -27.5q30 0 127 66l16 -21q-91 -119 -188 -119q-73 0 -114.5 47.5t-41.5 120.5q0 116 79.5 216t184.5 100q58 0 90.5 -28t32.5 -72q0 -11 -2.5 -21.5t-10.5 -20.5t-15.5 -18t-23.5 -19t-29 -19t-38 -21t-43.5 -22.5t-52.5 -27t-59 -30.5z
M140 205h3q100 55 137 87.5t37 71.5q0 18 -27 32.5t-47 14.5t-31 -11q-20 -20 -42 -76t-30 -119zM349 611q0 -30 -18.5 -50.5t-49.5 -20.5q-30 0 -48 20.5t-18 50.5t18 51t48 21q31 0 49.5 -21t18.5 -51z" />
    <glyph glyph-name="Eogonek" unicode="&#x118;" horiz-adv-x="627" 
d="M406 -220q-45 5 -67 32.5t-13 70.5q14 67 115 117h-434l4 40l49 11q23 5 26 24l65 476q3 18 -20 24l-45 11l-3 39h541l-27 -205h-69l-11 83q-3 23 -9 36t-15.5 22.5t-33.5 13t-52 5t-80 1.5h-39l-34 -243h19q45 0 65 6t30 26l34 68h51l-55 -241h-51l1 63q1 20 -15.5 27
t-69.5 7h-15l-33 -249h43q87 0 125 5.5t58.5 20.5t37.5 52l34 74h72l-46 -197h-44q-65 -47 -74 -98q-5 -24 4.5 -41.5t31.5 -19.5q31 -3 57 15l7 -13q-10 -29 -42 -48t-73 -15z" />
    <glyph glyph-name="eogonek" unicode="&#x119;" horiz-adv-x="422" 
d="M158 -220q-44 5 -66 31.5t-15 69.5q10 64 95 105q-66 2 -105 49.5t-39 117.5q0 116 79.5 216t184.5 100q58 0 90.5 -28t32.5 -71q0 -12 -2.5 -22t-10.5 -20.5t-15.5 -18.5t-23.5 -19t-29 -19t-38 -21t-43.5 -22.5t-52.5 -27t-59 -30.5v-13q0 -43 25 -70.5t63 -27.5
q30 0 127 66l16 -21q-64 -81 -121 -111q-31 -16 -53 -41.5t-27 -51.5q-5 -24 5.5 -40.5t33.5 -18.5q32 -3 56 15l8 -13q-10 -29 -42.5 -48t-73.5 -15zM140 205h3q99 54 136.5 87t37.5 73q0 18 -27 32t-47 14q-21 0 -31 -10q-20 -20 -42 -76.5t-30 -119.5z" />
    <glyph glyph-name="Ecaron" unicode="&#x11a;" horiz-adv-x="627" 
d="M554 852l-113 -182h-119l-64 182h44l86 -120h2l119 120h45zM585 197l-46 -197h-532l4 40l49 11q23 5 26 24l65 475q3 19 -20 24l-46 11l-2 40h541l-27 -206h-69l-11 83q-3 23 -9 36t-15.5 22.5t-33.5 13t-52 5t-80 1.5h-39l-34 -242h19q45 0 65 6t30 26l34 68h51
l-55 -242h-51l1 64q1 19 -15.5 26t-69.5 7h-15l-33 -248h43q87 0 125 5.5t58.5 20.5t37.5 52l34 74h72z" />
    <glyph glyph-name="ecaron" unicode="&#x11b;" horiz-adv-x="422" 
d="M141 170v-13q0 -43 25 -70.5t63 -27.5q30 0 127 66l16 -21q-91 -119 -188 -119q-73 0 -114.5 47.5t-41.5 120.5q0 116 79.5 216t184.5 100q58 0 90.5 -28t32.5 -72q0 -11 -2.5 -21.5t-10.5 -20.5t-15.5 -18t-23.5 -19t-29 -19t-38 -21t-43.5 -22.5t-52.5 -27t-59 -30.5z
M438 697l-113 -182h-119l-64 182h44l86 -120h2l119 120h45zM140 205h3q100 55 137 87.5t37 71.5q0 18 -27 32.5t-47 14.5t-31 -11q-20 -20 -42 -76t-30 -119z" />
    <glyph glyph-name="Gcircumflex" unicode="&#x11c;" horiz-adv-x="701" 
d="M571 670h-46l-86 120h-2l-118 -120h-46l114 182h118zM674 283l-4 -40l-47 -11q-24 -6 -27 -24l-24 -142l58 -9l3 -33q-147 -40 -278 -40q-152 0 -229 75t-77 207q0 72 30.5 142.5t83.5 123.5q49 49 119 78t144 29q87 0 151 -25l86 23l-30 -220h-69l-22 141
q-47 32 -116 32q-96 0 -163.5 -98t-67.5 -239q0 -121 62 -181q39 -39 106 -39q43 0 79 13l25 162q2 11 -2.5 16t-19.5 8l-47 11l-3 40h279z" />
    <glyph glyph-name="gcircumflex" unicode="&#x11d;" horiz-adv-x="466" 
d="M437 515h-46l-86 120h-2l-118 -120h-46l114 182h118zM478 361l-118 29l-1 -10q51 -40 51 -99q0 -69 -57 -113.5t-132 -44.5q-33 0 -70 10q-15 -4 -25 -16.5t-10 -24.5q0 -17 19 -27.5t63 -25.5l46 -13q77 -23 116 -53.5t39 -83.5q0 -60 -72 -105.5t-197 -45.5
q-90 0 -144.5 31.5t-54.5 86.5q0 42 40 72.5t98 45.5v8q-43 25 -43 66q0 67 91 95v8q-32 20 -51.5 53.5t-19.5 71.5q0 83 62 138t150 55q53 0 119 -20l126 2zM312 356q0 21 -24 39.5t-50 18.5q-21 0 -32 -11q-24 -24 -39.5 -73.5t-14.5 -90.5q2 -44 22 -64q13 -13 31 -13
q31 0 55 26q26 25 39 74t13 94zM309 -149q0 23 -25.5 40.5t-83.5 36.5q-66 21 -101 36q-73 -35 -73 -89q0 -38 43 -63t113 -25q54 0 90.5 18.5t36.5 45.5z" />
    <glyph glyph-name="Gbreve" unicode="&#x11e;" horiz-adv-x="701" 
d="M674 283l-4 -40l-47 -11q-24 -6 -27 -24l-24 -142l58 -9l3 -33q-147 -40 -278 -40q-152 0 -229 75t-77 207q0 72 30.5 142.5t83.5 123.5q49 49 119 78t144 29q87 0 151 -25l86 23l-30 -220h-69l-22 141q-47 32 -116 32q-96 0 -163.5 -98t-67.5 -239q0 -121 62 -181
q39 -39 106 -39q43 0 79 13l25 162q2 11 -2.5 16t-19.5 8l-47 11l-3 40h279zM596 852q-50 -187 -176 -187q-65 0 -93 49t-32 138h44q14 -58 33.5 -89t55.5 -31t65 31.5t60 88.5h43z" />
    <glyph glyph-name="gbreve" unicode="&#x11f;" horiz-adv-x="466" 
d="M478 361l-118 29l-1 -10q51 -40 51 -99q0 -69 -57 -113.5t-132 -44.5q-33 0 -70 10q-15 -4 -25 -16.5t-10 -24.5q0 -17 19 -27.5t63 -25.5l46 -13q77 -23 116 -53.5t39 -83.5q0 -60 -72 -105.5t-197 -45.5q-90 0 -144.5 31.5t-54.5 86.5q0 42 40 72.5t98 45.5v8
q-43 25 -43 66q0 67 91 95v8q-32 20 -51.5 53.5t-19.5 71.5q0 83 62 138t150 55q53 0 119 -20l126 2zM309 -149q0 23 -25.5 40.5t-83.5 36.5q-66 21 -101 36q-73 -35 -73 -89q0 -38 43 -63t113 -25q54 0 90.5 18.5t36.5 45.5zM312 356q0 21 -24 39.5t-50 18.5q-21 0 -32 -11
q-24 -24 -39.5 -73.5t-14.5 -90.5q2 -44 22 -64q13 -13 31 -13q31 0 55 26q26 25 39 74t13 94zM470 697q-50 -187 -176 -187q-65 0 -93 49t-32 138h44q14 -58 33.5 -89t55.5 -31t65 31.5t60 88.5h43z" />
    <glyph glyph-name="Gdotaccent" unicode="&#x120;" horiz-adv-x="701" 
d="M674 283l-4 -40l-47 -11q-24 -6 -27 -24l-24 -142l58 -9l3 -33q-147 -40 -278 -40q-152 0 -229 75t-77 207q0 72 30.5 142.5t83.5 123.5q49 49 119 78t144 29q87 0 151 -25l86 23l-30 -220h-69l-22 141q-47 32 -116 32q-96 0 -163.5 -98t-67.5 -239q0 -121 62 -181
q39 -39 106 -39q43 0 79 13l25 162q2 11 -2.5 16t-19.5 8l-47 11l-3 40h279zM511 766q0 -30 -18.5 -50.5t-49.5 -20.5q-30 0 -48 20.5t-18 50.5t18 51t48 21q31 0 49.5 -21t18.5 -51z" />
    <glyph glyph-name="gdotaccent" unicode="&#x121;" horiz-adv-x="466" 
d="M478 361l-118 29l-1 -10q51 -40 51 -99q0 -69 -57 -113.5t-132 -44.5q-33 0 -70 10q-15 -4 -25 -16.5t-10 -24.5q0 -17 19 -27.5t63 -25.5l46 -13q77 -23 116 -53.5t39 -83.5q0 -60 -72 -105.5t-197 -45.5q-90 0 -144.5 31.5t-54.5 86.5q0 42 40 72.5t98 45.5v8
q-43 25 -43 66q0 67 91 95v8q-32 20 -51.5 53.5t-19.5 71.5q0 83 62 138t150 55q53 0 119 -20l126 2zM312 356q0 21 -24 39.5t-50 18.5q-21 0 -32 -11q-24 -24 -39.5 -73.5t-14.5 -90.5q2 -44 22 -64q13 -13 31 -13q31 0 55 26q26 25 39 74t13 94zM309 -149q0 23 -25.5 40.5
t-83.5 36.5q-66 21 -101 36q-73 -35 -73 -89q0 -38 43 -63t113 -25q54 0 90.5 18.5t36.5 45.5zM374 611q0 -30 -18.5 -50.5t-49.5 -20.5q-30 0 -48 20.5t-18 50.5t18 51t48 21q31 0 49.5 -21t18.5 -51z" />
    <glyph glyph-name="Gcommaaccent" unicode="&#x122;" horiz-adv-x="701" 
d="M392 -149q-11 -48 -53.5 -81t-103.5 -50l-16 24q77 22 89 75q3 15 -1.5 28.5t-13.5 22t-18.5 14.5t-16 9.5t-6.5 4.5q5 23 26 38t50 12q35 -4 53.5 -32.5t10.5 -64.5zM674 283l-4 -40l-47 -11q-24 -6 -27 -24l-24 -142l58 -9l3 -33q-147 -40 -278 -40q-152 0 -229 75
t-77 207q0 72 30.5 142.5t83.5 123.5q49 49 119 78t144 29q87 0 151 -25l86 23l-30 -220h-69l-22 141q-47 32 -116 32q-96 0 -163.5 -98t-67.5 -239q0 -121 62 -181q39 -39 106 -39q43 0 79 13l25 162q2 11 -2.5 16t-19.5 8l-47 11l-3 40h279z" />
    <glyph glyph-name="gcommaaccent" unicode="&#x123;" horiz-adv-x="466" 
d="M249 619q20 89 162 133l14 -27q-40 -12 -62.5 -29.5t-28.5 -48.5q-3 -17 5 -32.5t20 -23t22 -13.5t10 -7q-4 -22 -26.5 -38.5t-50.5 -13.5q-36 4 -54.5 33t-10.5 67zM478 361l-118 29l-1 -10q51 -40 51 -99q0 -69 -57 -113.5t-132 -44.5q-33 0 -70 10q-15 -4 -25 -16.5
t-10 -24.5q0 -17 19 -27.5t63 -25.5l46 -13q77 -23 116 -53.5t39 -83.5q0 -60 -72 -105.5t-197 -45.5q-90 0 -144.5 31.5t-54.5 86.5q0 42 40 72.5t98 45.5v8q-43 25 -43 66q0 67 91 95v8q-32 20 -51.5 53.5t-19.5 71.5q0 83 62 138t150 55q53 0 119 -20l126 2zM312 356
q0 21 -24 39.5t-50 18.5q-21 0 -32 -11q-24 -24 -39.5 -73.5t-14.5 -90.5q2 -44 22 -64q13 -13 31 -13q31 0 55 26q26 25 39 74t13 94zM309 -149q0 23 -25.5 40.5t-83.5 36.5q-66 21 -101 36q-73 -35 -73 -89q0 -38 43 -63t113 -25q54 0 90.5 18.5t36.5 45.5z" />
    <glyph glyph-name="Hcircumflex" unicode="&#x124;" horiz-adv-x="741" 
d="M574 670h-46l-86 120h-2l-118 -120h-46l114 182h118zM677 0h-280l3 40l49 11q14 3 19.5 8t6.5 16l30 220h-256l-30 -220q-3 -19 20 -24l47 -11l3 -40h-280l3 40l49 11q23 5 26 24l64 475q3 19 -20 24l-45 11l-3 40h280l-3 -40l-50 -11q-23 -6 -26 -24l-28 -206h256
l28 206q2 12 -2 16.5t-18 7.5l-46 11l-3 40h281l-4 -40l-49 -11q-23 -6 -26 -24l-65 -475q-3 -19 20 -24l46 -11z" />
    <glyph glyph-name="hcircumflex" unicode="&#x125;" horiz-adv-x="532" 
d="M358 720h-46l-86 120h-2l-118 -120h-46l114 182h118zM501 84q-24 -40 -63 -70t-76 -30q-21 0 -55 14.5t-34 27.5q0 21 56 189q33 106 33 126q0 15 -14 25t-32 10q-24 0 -57.5 -52.5t-91.5 -174.5l-33 -151l-121 -1l37 150l86 410q6 26 -12 34l-57 27l6 28l204 51
l-57 -230l-62 -260h11q81 178 121 218q44 44 96 44q38 0 63 -22.5t25 -57.5q0 -47 -46 -189q-12 -43 -45 -137l27 -9l74 51z" />
    <glyph glyph-name="Hbar" unicode="&#x126;" horiz-adv-x="741" 
d="M677 0h-280l3 40l49 11q14 3 19 8t7 16l30 220h-256l-30 -220q-3 -19 20 -24l47 -11l3 -40h-280l3 40l49 11q23 5 26 24l48 356h-101l10 48h98l10 72q3 18 -20 24l-46 11l-3 39h280l-3 -39l-50 -11q-23 -6 -26 -24l-10 -72h256l10 72q2 11 -2 15.5t-18 8.5l-45 11l-3 39
h280l-4 -39l-49 -11q-23 -6 -26 -24l-11 -72h82l2 -48h-90l-48 -356q-3 -19 20 -24l46 -11zM256 344h256l12 87h-256z" />
    <glyph glyph-name="hbar" unicode="&#x127;" horiz-adv-x="532" 
d="M501 85q-24 -41 -63 -71t-76 -30q-21 0 -55 14.5t-34 27.5q0 23 56 189q33 106 33 126q0 15 -14 25.5t-32 10.5q-24 0 -57 -52.5t-92 -175.5l-33 -152h-121l38 150l76 359h-70l9 53h70v9q0 18 -11 24l-58 26l6 29l204 50l-34 -138h121l3 -53h-137l-8 -34l-64 -265h11
q80 177 121 218q44 44 96 44q38 0 63 -22.5t25 -56.5q0 -46 -46 -190q-12 -43 -45 -137l27 -9l74 51z" />
    <glyph glyph-name="Imacron" unicode="&#x12a;" horiz-adv-x="373" 
d="M310 0h-301l3 40l59 11q23 5 26 24l65 475q3 20 -20 24l-56 11l-3 40h300l-3 -40l-60 -11q-23 -5 -26 -24l-64 -475q-3 -18 20 -24l56 -11zM396 701h-297l12 58h284z" />
    <glyph glyph-name="imacron" unicode="&#x12b;" horiz-adv-x="280" 
d="M261 84q-24 -40 -63 -70t-76 -30q-20 0 -56 16t-33 26l96 362l-30 6l-65 -72l-20 22q22 48 58 86.5t72 38.5q13 0 37.5 -7t44 -17.5t17.5 -17.5l-100 -364l27 -9l74 51zM345 546h-297l12 58h284z" />
    <glyph glyph-name="Ibreve" unicode="&#x12c;" horiz-adv-x="373" 
d="M310 0h-301l3 40l59 11q23 5 26 24l65 475q3 20 -20 24l-56 11l-3 40h300l-3 -40l-60 -11q-23 -5 -26 -24l-64 -475q-3 -18 20 -24l56 -11zM417 852q-50 -187 -176 -187q-65 0 -93 49t-32 138h44q14 -58 33.5 -89t55.5 -31t65 31.5t60 88.5h43z" />
    <glyph glyph-name="ibreve" unicode="&#x12d;" horiz-adv-x="280" 
d="M261 84q-24 -40 -63 -70t-76 -30q-20 0 -56 16t-33 26l96 362l-30 6l-65 -72l-20 22q22 48 58 86.5t72 38.5q13 0 37.5 -7t44 -17.5t17.5 -17.5l-100 -364l27 -9l74 51zM368 697q-50 -187 -176 -187q-65 0 -93 49t-32 138h44q14 -58 33.5 -89t55.5 -31t65 31.5t60 88.5
h43z" />
    <glyph glyph-name="Iogonek" unicode="&#x12e;" horiz-adv-x="373" 
d="M171 -220q-46 5 -69 29.5t-16 68.5q7 40 46 71.5t93 50.5h-215l3 40l59 11q23 5 26 24l65 476q3 19 -20 24l-56 11l-3 39h299l-3 -39l-60 -11q-23 -5 -26 -24l-64 -476q-3 -18 20 -24l56 -11l4 -40q-45 -9 -85 -39.5t-45 -63.5q-7 -51 43 -56q32 -3 56 15l8 -13
q-10 -29 -42.5 -48t-73.5 -15z" />
    <glyph glyph-name="iogonek" unicode="&#x12f;" horiz-adv-x="280" 
d="M73 -220q-44 5 -66.5 32.5t-13.5 70.5q7 33 36 62t67 46q-13 1 -28.5 8t-25.5 14.5t-9 12.5l96 362l-30 7l-65 -73l-20 22q22 48 58 86.5t72 38.5q9 0 26.5 -4t34.5 -10t28.5 -13.5t9.5 -13.5l-100 -365l27 -9l74 51l17 -20q-36 -62 -104 -98q-28 -13 -46 -37t-23 -48
t5 -41.5t32 -19.5q32 -3 56 15l8 -13q-10 -29 -42.5 -48t-73.5 -15zM299 622q0 -36 -20.5 -61.5t-47.5 -25.5q-30 0 -48 19.5t-18 47.5q0 36 20.5 62t47.5 26q30 0 48 -20t18 -48z" />
    <glyph glyph-name="Idotaccent" unicode="&#x130;" horiz-adv-x="373" 
d="M310 0h-301l3 40l59 11q23 5 26 24l65 475q3 20 -20 24l-56 11l-3 40h300l-3 -40l-60 -11q-23 -5 -26 -24l-64 -475q-3 -18 20 -24l56 -11zM318 766q0 -30 -18.5 -50.5t-49.5 -20.5q-30 0 -48 20.5t-18 50.5t18 51t48 21q31 0 49.5 -21t18.5 -51z" />
    <glyph glyph-name="dotlessi" unicode="&#x131;" horiz-adv-x="280" 
d="M261 84q-24 -40 -63 -70t-76 -30q-20 0 -56 16t-33 26l96 362l-30 6l-65 -72l-20 22q22 48 58 86.5t72 38.5q13 0 37.5 -7t44 -17.5t17.5 -17.5l-100 -364l27 -9l74 51z" />
    <glyph glyph-name="Jcircumflex" unicode="&#x134;" horiz-adv-x="441" 
d="M468 670h-46l-86 120h-2l-118 -120h-46l114 182h118zM464 625l-4 -40l-53 -11q-23 -4 -26 -24l-40 -298q-36 -268 -235 -268q-55 0 -91.5 23t-35.5 62q1 24 19 40t42 16q78 0 84 -102h1q30 15 48 58t30 132l45 337q3 20 -20 24l-65 11l-3 40h304z" />
    <glyph glyph-name="jcircumflex" unicode="&#x135;" horiz-adv-x="267" 
d="M180 453q10 0 18 -90t5 -100q-71 -314 -104 -347q-39 -107 -104 -145q-29 -15 -57.5 -16t-48.5 13q-26 11 -35 31.5t1 41.5q26 32 66 6q18 0 33 -13.5t17 -32.5q1 2 12 22t22 48t19 64q2 6 14 59t25.5 115t16.5 73l35 208l-57 -35l-35 -24q1 3 5.5 12.5t6.5 14.5
t6.5 13.5t7.5 13.5t7.5 10.5t9 8t8.5 2.5q18 22 51.5 37t54.5 10zM337 515h-46l-86 120h-2l-118 -120h-46l114 182h118z" />
    <glyph glyph-name="Kcommaaccent" unicode="&#x136;" horiz-adv-x="671" 
d="M390 -152q-20 -89 -162 -133l-14 27q40 12 62.5 29.5t28.5 48.5q3 17 -5 32.5t-20 23t-22 13.5t-10 7q4 22 26.5 38.5t50.5 13.5q36 -4 54.5 -33t10.5 -67zM633 0h-255l3 40l26 9q21 6 6 35l-105 211l-69 -58l-21 -162q-3 -19 20 -24l46 -11l2 -40h-280l4 40l49 11
q23 5 26 24l65 475q3 19 -20 24l-46 11l-2 40h280l-4 -40l-50 -11q-23 -6 -26 -24l-32 -247l175 165q70 68 70 86q-1 17 -24 25l-26 7l-2 39h261l-4 -38l-26 -7q-50 -13 -134 -82l-138 -120l153 -281q11 -20 20 -30.5t15.5 -14t22.5 -8.5l18 -4z" />
    <glyph glyph-name="kcommaaccent" unicode="&#x137;" horiz-adv-x="471" 
d="M268 -152q-20 -89 -162 -133l-14 27q40 12 62.5 29.5t28.5 48.5q3 17 -5 32.5t-20 23t-22 13.5t-10 7q4 22 26.5 38.5t50.5 13.5q36 -4 54.5 -33t10.5 -67zM321 -13q-11 0 -30.5 8.5t-21.5 15.5l-70 209l-37 -16l-29 -206l-120 -1l37 150l86 410q6 26 -12 34l-57 27l6 28
l202 51l-56 -229l-58 -227h7l193 102v12q-44 13 -44 58q0 28 21 47.5t50 19.5q33 0 55.5 -22t22.5 -52q0 -46 -33 -75t-100 -55l-46 -18l75 -187h20l57 52l21 -21q-17 -43 -58.5 -79t-80.5 -36z" />
    <glyph glyph-name="Lacute" unicode="&#x139;" horiz-adv-x="579" 
d="M544 206l-49 -206h-489l4 40l49 11q23 5 26 24l64 475q3 19 -20 24l-46 11l-2 40h284l-4 -40l-53 -11q-23 -6 -26 -24l-68 -505h30q99 0 134 15t58 63l37 83h71zM419 852l-201 -182h-45l119 182h127z" />
    <glyph glyph-name="lacute" unicode="&#x13a;" horiz-adv-x="273" 
d="M380 897l-201 -182h-45l119 182h127zM254 84q-24 -40 -63.5 -70t-76.5 -30q-20 0 -55 16t-33 26l110 531q6 26 -12 34l-57 27l6 28l200 51l-138 -634l28 -9l73 51z" />
    <glyph glyph-name="Lcommaaccent" unicode="&#x13b;" horiz-adv-x="579" 
d="M330 -152q-20 -89 -162 -133l-14 27q40 12 62.5 29.5t28.5 48.5q3 17 -5 32.5t-20 23t-22 13.5t-10 7q4 22 26.5 38.5t50.5 13.5q36 -4 54.5 -33t10.5 -67zM544 206l-49 -206h-489l4 40l49 11q23 5 26 24l64 475q3 19 -20 24l-46 11l-2 40h284l-4 -40l-53 -11
q-23 -6 -26 -24l-68 -505h30q99 0 134 15t58 63l37 83h71z" />
    <glyph glyph-name="lcommaaccent" unicode="&#x13c;" horiz-adv-x="273" 
d="M162 -152q-20 -89 -162 -133l-14 27q40 12 62.5 29.5t28.5 48.5q3 17 -5 32.5t-20 23t-22 13.5t-10 7q4 22 26.5 38.5t50.5 13.5q36 -4 54.5 -33t10.5 -67zM254 84q-24 -40 -63.5 -70t-76.5 -30q-20 0 -55 16t-33 26l110 531q6 26 -12 34l-57 27l6 28l200 51l-138 -634
l28 -9l73 51z" />
    <glyph glyph-name="Lcaron" unicode="&#x13d;" horiz-adv-x="727" 
d="M749 537q0 -59 -53 -113t-135 -96l-25 24q48 27 79.5 62.5t31.5 70.5q0 16 -7 30.5t-17.5 24.5t-20.5 17.5t-17 11.5l-7 4q0 25 23 44.5t54 19.5q40 0 67 -29.5t27 -70.5zM544 206l-49 -206h-489l4 40l49 11q23 5 26 24l64 475q3 19 -20 24l-46 11l-2 40h284l-4 -40
l-53 -11q-23 -6 -26 -24l-68 -505h30q99 0 134 15t58 63l37 83h71z" />
    <glyph glyph-name="lcaron" unicode="&#x13e;" horiz-adv-x="478" 
d="M494 598q0 -59 -53 -113t-135 -96l-25 24q48 27 79.5 62.5t31.5 70.5q0 16 -7 30.5t-17 24.5t-20.5 17.5t-17.5 11.5l-7 4q0 25 23 44.5t54 19.5q40 0 67 -29.5t27 -70.5zM254 84q-24 -40 -63.5 -70t-76.5 -30q-20 0 -55 16t-33 26l110 531q6 26 -12 34l-57 27l6 28
l200 51l-138 -634l28 -9l73 51z" />
    <glyph glyph-name="Ldot" unicode="&#x13f;" horiz-adv-x="677" 
d="M544 206l-49 -206h-489l4 40l49 11q23 5 26 24l64 475q3 19 -20 24l-46 11l-2 40h284l-4 -40l-53 -11q-23 -6 -26 -24l-68 -505h30q99 0 134 15t58 63l37 83h71zM752 307q0 -33 -23 -56t-56 -23t-55.5 23t-22.5 56t22.5 55.5t56.5 22.5q33 0 55.5 -23t22.5 -55z" />
    <glyph glyph-name="ldotaccent" unicode="&#x140;" horiz-adv-x="439" 
d="M471 317q0 -33 -23 -56t-56 -23t-55.5 23t-22.5 56t23 55.5t56 22.5t55.5 -23t22.5 -55zM254 84q-24 -40 -63.5 -70t-76.5 -30q-20 0 -55 16t-33 26l110 531q6 26 -12 34l-57 27l6 28l200 51l-138 -634l28 -9l73 51z" />
    <glyph glyph-name="Lslash" unicode="&#x141;" horiz-adv-x="579" 
d="M101 192l-67 -18v48l73 20l42 308q3 19 -20 24l-46 11l-2 40h284l-4 -40l-53 -11q-23 -6 -26 -24q-36 -271 -37 -271l95 26v-49q-101 -27 -101 -28l-25 -183h30q99 0 134 15t58 63l37 83h71l-49 -206h-489l4 40l49 11q23 5 26 24z" />
    <glyph glyph-name="lslash" unicode="&#x142;" horiz-adv-x="295" 
d="M77 190l-78 -21v48l88 24l65 316q6 26 -11 34l-58 27l7 28l199 51l-92 -426l83 23v-49q-94 -25 -94 -26l-34 -156l27 -9l74 51l17 -21q-24 -40 -63 -70t-76 -30q-18 0 -52 25.5t-32 36.5z" />
    <glyph glyph-name="Nacute" unicode="&#x143;" horiz-adv-x="716" 
d="M604 852l-201 -182h-45l119 182h127zM741 625l-3 -40l-48 -10q-25 -5 -38.5 -42.5t-29.5 -156.5l-53 -384h-97l-262 509h-7l-34 -252q-17 -123 -15 -158.5t26 -40.5l52 -10l3 -40h-239l3 40l48 10q25 5 38 42.5t29 156.5l37 268q3 26 -1.5 39t-22.5 18l-43 11l-2 40h209
l238 -465h8l29 216q17 125 15.5 159.5t-24.5 39.5l-54 10l-3 40h241z" />
    <glyph glyph-name="nacute" unicode="&#x144;" horiz-adv-x="550" 
d="M484 697l-201 -182h-45l119 182h127zM528 84q-24 -40 -63 -70t-76 -30q-21 0 -55 14.5t-34 27.5q0 21 56 189q33 106 33 126q0 15 -14 25t-32 10q-24 0 -57.5 -52.5t-91.5 -174.5l-33 -151l-121 -1l37 150l49 238l-28 7l-66 -70l-20 22q23 48 58.5 86.5t71.5 38.5
q23 0 60.5 -11.5t37.5 -24.5q0 -36 -55 -226h11q81 178 121 218q44 44 96 44q38 0 63 -22.5t25 -57.5q0 -47 -46 -189l-45 -137l27 -9l74 51z" />
    <glyph glyph-name="Ncommaaccent" unicode="&#x145;" horiz-adv-x="716" 
d="M395 -152q-20 -89 -162 -133l-14 27q40 12 62.5 29.5t28.5 48.5q3 17 -5 32.5t-20 23t-22 13.5t-10 7q4 22 26.5 38.5t50.5 13.5q36 -4 54.5 -33t10.5 -67zM741 625l-3 -40l-48 -10q-25 -5 -38.5 -42.5t-29.5 -156.5l-53 -384h-97l-262 509h-7l-34 -252
q-17 -123 -15 -158.5t26 -40.5l52 -10l3 -40h-239l3 40l48 10q25 5 38 42.5t29 156.5l37 268q3 26 -1.5 39t-22.5 18l-43 11l-2 40h209l238 -465h8l29 216q17 125 15.5 159.5t-24.5 39.5l-54 10l-3 40h241z" />
    <glyph glyph-name="ncommaaccent" unicode="&#x146;" horiz-adv-x="550" 
d="M528 84q-24 -40 -63 -70t-76 -30q-21 0 -55 14.5t-34 27.5q0 21 56 189q33 106 33 126q0 15 -14 25t-32 10q-24 0 -57.5 -52.5t-91.5 -174.5l-33 -151l-121 -1l37 150l49 238l-28 7l-66 -70l-20 22q23 48 58.5 86.5t71.5 38.5q23 0 60.5 -11.5t37.5 -24.5q0 -36 -55 -226
h11q81 178 121 218q44 44 96 44q38 0 63 -22.5t25 -57.5q0 -47 -46 -189l-45 -137l27 -9l74 51zM302 -152q-20 -89 -162 -133l-14 27q40 12 62.5 29.5t28.5 48.5q3 17 -5 32.5t-20 23t-22 13.5t-10 7q4 22 26.5 38.5t50.5 13.5q36 -4 54.5 -33t10.5 -67z" />
    <glyph glyph-name="Ncaron" unicode="&#x147;" horiz-adv-x="716" 
d="M582 852l-113 -182h-119l-64 182h44l86 -120h2l119 120h45zM741 625l-3 -40l-48 -10q-25 -5 -38.5 -42.5t-29.5 -156.5l-53 -384h-97l-262 509h-7l-34 -252q-17 -123 -15 -158.5t26 -40.5l52 -10l3 -40h-239l3 40l48 10q25 5 38 42.5t29 156.5l37 268q3 26 -1.5 39
t-22.5 18l-43 11l-2 40h209l238 -465h8l29 216q17 125 15.5 159.5t-24.5 39.5l-54 10l-3 40h241z" />
    <glyph glyph-name="ncaron" unicode="&#x148;" horiz-adv-x="550" 
d="M473 697l-113 -182h-119l-64 182h44l86 -120h2l119 120h45zM528 84q-24 -40 -63 -70t-76 -30q-21 0 -55 14.5t-34 27.5q0 21 56 189q33 106 33 126q0 15 -14 25t-32 10q-24 0 -57.5 -52.5t-91.5 -174.5l-33 -151l-121 -1l37 150l49 238l-28 7l-66 -70l-20 22
q23 48 58.5 86.5t71.5 38.5q23 0 60.5 -11.5t37.5 -24.5q0 -36 -55 -226h11q81 178 121 218q44 44 96 44q38 0 63 -22.5t25 -57.5q0 -47 -46 -189l-45 -137l27 -9l74 51z" />
    <glyph glyph-name="Omacron" unicode="&#x14c;" horiz-adv-x="715" 
d="M557 701h-297l12 58h284zM686 348q0 -155 -111 -268q-92 -95 -233 -95q-128 0 -211 81.5t-83 208.5q0 149 95 252q103 111 250 111q128 0 210.5 -81.5t82.5 -208.5zM543 378q0 118 -52 173q-41 38 -101 38q-53 0 -93.5 -37t-62 -93.5t-32.5 -111.5t-11 -103
q0 -118 53 -170q39 -39 100 -39q53 0 93.5 37t62.5 93t32.5 111t10.5 102z" />
    <glyph glyph-name="omacron" unicode="&#x14d;" horiz-adv-x="481" 
d="M448 546h-297l12 58h284zM449 265q0 -109 -70 -194.5t-171 -85.5q-84 0 -130.5 56t-46.5 147q0 109 71 195t171 86q84 0 130 -56t46 -148zM340 313q0 47 -17.5 77.5t-49.5 30.5q-40 0 -73 -55t-47 -120q-13 -57 -13 -101q0 -47 18 -80t49 -33q42 0 74 56t47 124
q12 58 12 101z" />
    <glyph glyph-name="Obreve" unicode="&#x14e;" horiz-adv-x="715" 
d="M686 348q0 -155 -111 -268q-92 -95 -233 -95q-128 0 -211 81.5t-83 208.5q0 149 95 252q103 111 250 111q128 0 210.5 -81.5t82.5 -208.5zM543 378q0 118 -52 173q-41 38 -101 38q-53 0 -93.5 -37t-62 -93.5t-32.5 -111.5t-11 -103q0 -118 53 -170q39 -39 100 -39
q53 0 93.5 37t62.5 93t32.5 111t10.5 102zM583 852q-50 -187 -176 -187q-65 0 -93 49t-32 138h44q14 -58 33.5 -89t55.5 -31t65 31.5t60 88.5h43z" />
    <glyph glyph-name="obreve" unicode="&#x14f;" horiz-adv-x="481" 
d="M449 265q0 -109 -70 -194.5t-171 -85.5q-84 0 -130.5 56t-46.5 147q0 109 71 195t171 86q84 0 130 -56t46 -148zM340 313q0 47 -17.5 77.5t-49.5 30.5q-40 0 -73 -55t-47 -120q-13 -57 -13 -101q0 -47 18 -80t49 -33q42 0 74 56t47 124q12 58 12 101zM461 697
q-50 -187 -176 -187q-65 0 -93 49t-32 138h44q14 -58 33.5 -89t55.5 -31t65 31.5t60 88.5h43z" />
    <glyph glyph-name="Ohungarumlaut" unicode="&#x150;" horiz-adv-x="715" 
d="M672 852l-194 -182h-41l116 182h119zM496 852l-194 -182h-42l117 182h119zM686 348q0 -155 -111 -268q-92 -95 -233 -95q-128 0 -211 81.5t-83 208.5q0 149 95 252q103 111 250 111q128 0 210.5 -81.5t82.5 -208.5zM543 378q0 118 -52 173q-41 38 -101 38
q-53 0 -93.5 -37t-62 -93.5t-32.5 -111.5t-11 -103q0 -118 53 -170q39 -39 100 -39q53 0 93.5 37t62.5 93t32.5 111t10.5 102z" />
    <glyph glyph-name="ohungarumlaut" unicode="&#x151;" horiz-adv-x="481" 
d="M556 697l-194 -182h-41l116 182h119zM380 697l-194 -182h-42l117 182h119zM449 265q0 -109 -70 -194.5t-171 -85.5q-84 0 -130.5 56t-46.5 147q0 109 71 195t171 86q84 0 130 -56t46 -148zM340 313q0 47 -17.5 77.5t-49.5 30.5q-40 0 -73 -55t-47 -120q-13 -57 -13 -101
q0 -47 18 -80t49 -33q42 0 74 56t47 124q12 58 12 101z" />
    <glyph glyph-name="OE" unicode="&#x152;" horiz-adv-x="968" 
d="M928 197l-46 -197h-518q-149 -1 -232.5 75t-83.5 201q0 141 103 243q48 48 126 77t171 29h519l-32 -206h-64l-11 83q-3 23 -9 36t-15.5 22.5t-33.5 13t-52 5t-80 1.5h-39l-34 -242h19q44 0 66.5 7.5t34.5 28.5l28 64h51l-55 -242h-51l1 64q1 19 -15.5 26t-69.5 7h-15
l-33 -248h43q87 0 125 5.5t58.5 20.5t37.5 52l34 74h72zM496 565l-68 15q-103 -5 -169.5 -85t-66.5 -220q0 -108 49 -168.5t144 -60.5h40z" />
    <glyph glyph-name="oe" unicode="&#x153;" horiz-adv-x="716" 
d="M709 369q0 -11 -2.5 -21.5t-10.5 -20.5t-15.5 -18t-23.5 -19t-29 -19t-38 -21t-43.5 -22.5t-52.5 -27t-59 -30.5v-13q0 -43 25 -70.5t63 -27.5q30 0 127 66l16 -21q-91 -119 -188 -119q-88 0 -121 73q-63 -73 -149 -73q-84 0 -130.5 56t-46.5 147q0 109 70 195t172 86
q105 0 142 -91q69 91 171 91q58 0 90.5 -28t32.5 -72zM340 313q0 47 -17.5 77.5t-49.5 30.5q-40 0 -73 -55t-47 -120q-13 -57 -13 -101q0 -47 18 -80t49 -33q42 0 74 56t47 124q12 58 12 101zM437 205q100 55 137 87t37 72q0 18 -27 32.5t-47 14.5t-31 -11q-20 -20 -42 -76
t-30 -119h3z" />
    <glyph glyph-name="Racute" unicode="&#x154;" horiz-adv-x="633" 
d="M532 852l-201 -182h-45l119 182h127zM603 0h-180l-34 80l-90 188l-52 3l-28 -196q-3 -16 20 -24l44 -11l3 -40h-278l3 40l49 11q23 5 26 24l63 475q3 19 -20 24l-46 11l-2 40h295q104 0 162 -42t58 -107q0 -68 -45.5 -116t-129.5 -71l109 -197q9 -18 19 -28t16 -13t19 -7
l17 -4zM450 454q0 58 -35 92.5t-93 34.5h-35l-35 -259l62 -13q61 9 98.5 45.5t37.5 99.5z" />
    <glyph glyph-name="racute" unicode="&#x155;" horiz-adv-x="451" 
d="M470 697l-201 -182h-45l119 182h127zM351 389l-18 5q-14 -12 -70 -115t-78 -151l-24 -130l-121 -1l37 150l49 241l-29 6l-64 -72l-21 22q23 49 59 87t72 38q23 0 60 -11.5t37 -24.5q0 -22 -24 -110t-41 -136h14q16 43 52 118t53 91q24 43 44 59t55 16q32 0 54.5 -22
t22.5 -60q0 -32 -19 -54t-45 -22q-31 0 -47.5 22t-7.5 54z" />
    <glyph glyph-name="Rcommaaccent" unicode="&#x156;" horiz-adv-x="633" 
d="M391 -152q-20 -89 -162 -133l-14 27q40 12 62.5 29.5t28.5 48.5q3 17 -5 32.5t-20 23t-22 13.5t-10 7q4 22 26.5 38.5t50.5 13.5q36 -4 54.5 -33t10.5 -67zM603 0h-180l-34 80l-90 188l-52 3l-28 -196q-3 -16 20 -24l44 -11l3 -40h-278l3 40l49 11q23 5 26 24l63 475
q3 19 -20 24l-46 11l-2 40h295q104 0 162 -42t58 -107q0 -68 -45.5 -116t-129.5 -71l109 -197q9 -18 19 -28t16 -13t19 -7l17 -4zM450 454q0 58 -35 92.5t-93 34.5h-35l-35 -259l62 -13q61 9 98.5 45.5t37.5 99.5z" />
    <glyph glyph-name="rcommaaccent" unicode="&#x157;" horiz-adv-x="451" 
d="M163 -149q-11 -48 -53.5 -81t-103.5 -50l-16 24q77 22 89 75q3 15 -1.5 28.5t-13.5 22t-18.5 14.5t-16 9.5t-6.5 4.5q5 23 26 38t50 12q35 -4 53.5 -32.5t10.5 -64.5zM351 389l-18 5q-14 -12 -70 -115t-78 -151l-24 -130l-121 -1l37 150l49 241l-29 6l-64 -72l-21 22
q23 49 59 87t72 38q23 0 60 -11.5t37 -24.5q0 -22 -24 -110t-41 -136h14q16 43 52 118t53 91q24 43 44 59t55 16q32 0 54.5 -22t22.5 -60q0 -32 -19 -54t-45 -22q-31 0 -47.5 22t-7.5 54z" />
    <glyph glyph-name="Rcaron" unicode="&#x158;" horiz-adv-x="633" 
d="M515 852l-113 -182h-119l-64 182h44l86 -120h2l119 120h45zM603 0h-180l-34 80l-90 188l-52 3l-28 -196q-3 -16 20 -24l44 -11l3 -40h-278l3 40l49 11q23 5 26 24l63 475q3 19 -20 24l-46 11l-2 40h295q104 0 162 -42t58 -107q0 -68 -45.5 -116t-129.5 -71l109 -197
q9 -18 19 -28t16 -13t19 -7l17 -4zM450 454q0 58 -35 92.5t-93 34.5h-35l-35 -259l62 -13q61 9 98.5 45.5t37.5 99.5z" />
    <glyph glyph-name="rcaron" unicode="&#x159;" horiz-adv-x="451" 
d="M441 697l-113 -182h-119l-64 182h44l86 -120h2l119 120h45zM351 389l-18 5q-14 -12 -70 -115t-78 -151l-24 -130l-121 -1l37 150l49 241l-29 6l-64 -72l-21 22q23 49 59 87t72 38q23 0 60 -11.5t37 -24.5q0 -22 -24 -110t-41 -136h14q16 43 52 118t53 91q24 43 44 59
t55 16q32 0 54.5 -22t22.5 -60q0 -32 -19 -54t-45 -22q-31 0 -47.5 22t-7.5 54z" />
    <glyph glyph-name="Sacute" unicode="&#x15a;" horiz-adv-x="535" 
d="M500 852l-201 -182h-45l119 182h127zM480 183q0 -90 -70 -144t-177 -54q-104 0 -210 33l17 192l64 -1l31 -150q49 -22 112 -22q54 0 84 26.5t31 70.5q0 22 -8.5 40t-30 35.5t-37.5 27.5t-51 29q-85 46 -121 85t-36 109q0 75 67.5 126.5t163.5 51.5q62 0 158 -23l55 17
l-27 -205l-63 2l-21 134q-54 22 -114 22q-41 0 -70.5 -22.5t-29.5 -54.5q0 -24 8.5 -43t30 -37t40 -29t54.5 -31q75 -39 112.5 -79.5t37.5 -105.5z" />
    <glyph glyph-name="sacute" unicode="&#x15b;" horiz-adv-x="383" 
d="M423 697l-201 -182h-45l119 182h127zM380 384q0 -29 -16 -46t-43 -17q-24 0 -38.5 15.5t-14.5 38.5q0 13 6 24q-40 22 -82 25q-14 -9 -27 -27.5t-14 -29.5q-1 -9 3.5 -19t14.5 -21.5t18 -20t22.5 -22t20.5 -19.5q3 -3 15 -14.5t15.5 -15t14 -13.5t14 -14.5t11 -13.5
t10.5 -14.5t8 -14t6.5 -15t2.5 -14.5t1 -16q-2 -59 -58 -97t-127 -38q-62 0 -105 21t-43 67q0 28 16.5 45t44.5 17q23 0 37 -15.5t14 -38.5q0 -13 -6 -24q49 -24 95 -26q13 9 25.5 28.5t13.5 33.5q0 6 -1.5 12.5t-6.5 14t-10 13t-14 14.5t-15 14l-16 15q-11 10 -16 15
q-34 31 -51.5 49t-32.5 44.5t-14 51.5q3 63 56.5 98t121.5 35q144 0 144 -85z" />
    <glyph glyph-name="Scircumflex" unicode="&#x15c;" horiz-adv-x="535" 
d="M468 670h-46l-86 120h-2l-118 -120h-46l114 182h118zM480 183q0 -90 -70 -144t-177 -54q-104 0 -210 33l17 192l64 -1l31 -150q49 -22 112 -22q54 0 84 26.5t31 70.5q0 22 -8.5 40t-30 35.5t-37.5 27.5t-51 29q-85 46 -121 85t-36 109q0 75 67.5 126.5t163.5 51.5
q62 0 158 -23l55 17l-27 -205l-63 2l-21 134q-54 22 -114 22q-41 0 -70.5 -22.5t-29.5 -54.5q0 -24 8.5 -43t30 -37t40 -29t54.5 -31q75 -39 112.5 -79.5t37.5 -105.5z" />
    <glyph glyph-name="scircumflex" unicode="&#x15d;" horiz-adv-x="383" 
d="M401 515h-46l-86 120h-2l-118 -120h-46l114 182h118zM380 384q0 -29 -16 -46t-43 -17q-24 0 -38.5 15.5t-14.5 38.5q0 13 6 24q-40 22 -82 25q-14 -9 -27 -27.5t-14 -29.5q-1 -9 3.5 -19t14.5 -21.5t18 -20t22.5 -22t20.5 -19.5q3 -3 15 -14.5t15.5 -15t14 -13.5
t14 -14.5t11 -13.5t10.5 -14.5t8 -14t6.5 -15t2.5 -14.5t1 -16q-2 -59 -58 -97t-127 -38q-62 0 -105 21t-43 67q0 28 16.5 45t44.5 17q23 0 37 -15.5t14 -38.5q0 -13 -6 -24q49 -24 95 -26q13 9 25.5 28.5t13.5 33.5q0 6 -1.5 12.5t-6.5 14t-10 13t-14 14.5t-15 14l-16 15
q-11 10 -16 15q-34 31 -51.5 49t-32.5 44.5t-14 51.5q3 63 56.5 98t121.5 35q144 0 144 -85z" />
    <glyph glyph-name="Scedilla" unicode="&#x15e;" horiz-adv-x="535" 
d="M120 -275l-6 27q81 10 124.5 32t43.5 53q0 48 -77 48q-36 0 -70 -7l3 24l90 83q-104 1 -205 33l17 192l64 -1l31 -150q49 -22 112 -22q54 0 84 26.5t31 70.5q0 22 -8.5 40t-30 35.5t-37.5 27.5t-51 29q-85 46 -121 85t-36 109q0 75 67.5 126.5t163.5 51.5q62 0 158 -23
l55 17l-27 -205l-63 2l-21 134q-54 22 -114 22q-41 0 -70.5 -22.5t-29.5 -54.5q0 -24 8.5 -43t30 -37t40 -29t54.5 -31q75 -39 112.5 -79.5t37.5 -105.5q0 -80 -55.5 -131.5t-144.5 -63.5l-47 -42q59 -2 93 -24.5t34 -61.5q0 -56 -66.5 -93t-173.5 -42z" />
    <glyph glyph-name="scedilla" unicode="&#x15f;" horiz-adv-x="383" 
d="M14 -275l-6 27q81 10 124.5 32t43.5 53q0 48 -77 48q-36 0 -70 -7l3 24l91 84q-55 3 -91.5 24t-36.5 63q0 28 16.5 45t44.5 17q23 0 37 -15.5t14 -38.5q0 -13 -6 -24q49 -24 95 -26q13 9 25.5 28.5t13.5 33.5q0 6 -1.5 12.5t-6.5 14t-10 13t-14 14.5t-15 14l-16 15
q-11 10 -16 15q-34 31 -51.5 49t-32.5 44.5t-14 51.5q3 63 56.5 98t121.5 35q144 0 144 -85q0 -29 -16 -46t-43 -17q-24 0 -38.5 15.5t-14.5 38.5q0 13 6 24q-40 22 -82 25q-14 -9 -27 -27.5t-14 -29.5q-1 -9 3.5 -19t14.5 -21.5t18 -20t22.5 -22t20.5 -19.5q3 -3 15 -14.5
t15.5 -15t14 -13.5t14 -14.5t11 -13.5t10.5 -14.5t8 -14t6.5 -15t2.5 -14.5t1 -16q-2 -52 -47 -88t-108 -45l-46 -41q59 -2 93 -24.5t34 -61.5q0 -56 -66.5 -93t-173.5 -42z" />
    <glyph glyph-name="Scaron" unicode="&#x160;" horiz-adv-x="535" 
d="M501 864l-113 -182h-119l-64 182h44l86 -120h2l119 120h45zM480 183q0 -90 -70 -144t-177 -54q-104 0 -210 33l17 192l64 -1l31 -150q49 -22 112 -22q54 0 84 26.5t31 70.5q0 22 -8.5 40t-30 35.5t-37.5 27.5t-51 29q-85 46 -121 85t-36 109q0 75 67.5 126.5t163.5 51.5
q62 0 158 -23l55 17l-27 -205l-63 2l-21 134q-54 22 -114 22q-41 0 -70.5 -22.5t-29.5 -54.5q0 -24 8.5 -43t30 -37t40 -29t54.5 -31q75 -39 112.5 -79.5t37.5 -105.5z" />
    <glyph glyph-name="scaron" unicode="&#x161;" horiz-adv-x="383" 
d="M420 697l-113 -182h-119l-64 182h44l86 -120h2l119 120h45zM380 384q0 -29 -16 -46t-43 -17q-24 0 -38.5 15.5t-14.5 38.5q0 13 6 24q-40 22 -82 25q-14 -9 -27 -27.5t-14 -29.5q-1 -9 3.5 -19t14.5 -21.5t18 -20t22.5 -22t20.5 -19.5q3 -3 15 -14.5t15.5 -15t14 -13.5
t14 -14.5t11 -13.5t10.5 -14.5t8 -14t6.5 -15t2.5 -14.5t1 -16q-2 -59 -58 -97t-127 -38q-62 0 -105 21t-43 67q0 28 16.5 45t44.5 17q23 0 37 -15.5t14 -38.5q0 -13 -6 -24q49 -24 95 -26q13 9 25.5 28.5t13.5 33.5q0 6 -1.5 12.5t-6.5 14t-10 13t-14 14.5t-15 14l-16 15
q-11 10 -16 15q-34 31 -51.5 49t-32.5 44.5t-14 51.5q3 63 56.5 98t121.5 35q144 0 144 -85z" />
    <glyph glyph-name="Tcommaaccent" unicode="&#x162;" horiz-adv-x="641" 
d="M350 -152q-20 -89 -162 -133l-14 27q40 12 62.5 29.5t28.5 48.5q3 17 -5 32.5t-20 23t-22 13.5t-10 7q4 22 26.5 38.5t50.5 13.5q36 -4 54.5 -33t10.5 -67zM637 415h-65l-11 83q-7 51 -31.5 66t-93.5 16h-6l-67 -505q-3 -19 20 -24l60 -11l3 -40h-306l3 40l62 11
q24 4 26 24l67 505h-4q-68 0 -95.5 -14t-50.5 -65l-35 -86h-72l45 210h578z" />
    <glyph glyph-name="tcommaaccent" unicode="&#x163;" horiz-adv-x="331" 
d="M179 -155q-20 -89 -162 -133l-14 27q40 12 62.5 29.5t28.5 48.5q3 17 -5 32.5t-20 23t-22 13.5t-10 7q4 22 26.5 38.5t50.5 13.5q36 -4 54.5 -33t10.5 -67zM130 462l25 130h108l-30 -144h126l3 -57h-139l-74 -328l28 -9l73 51l18 -21q-24 -40 -63.5 -70t-76.5 -30
q-20 0 -56 14.5t-33 24.5l77 360l-82 8l3 34z" />
    <glyph glyph-name="Tcaron" unicode="&#x164;" horiz-adv-x="641" 
d="M548 852l-113 -182h-119l-64 182h44l86 -120h2l119 120h45zM637 415h-65l-11 83q-7 51 -31.5 66t-93.5 16h-6l-67 -505q-3 -19 20 -24l60 -11l3 -40h-306l3 40l62 11q24 4 26 24l67 505h-4q-68 0 -95.5 -14t-50.5 -65l-35 -86h-72l45 210h578z" />
    <glyph glyph-name="tcaron" unicode="&#x165;" horiz-adv-x="421" 
d="M451 647q0 -48 -42.5 -91t-108.5 -76l-20 19q39 22 64 50.5t25 56.5q0 13 -5.5 24.5t-13.5 19t-16.5 13.5t-13.5 9l-6 4q0 20 18.5 35.5t43.5 15.5q32 0 53.5 -23.5t21.5 -56.5zM130 462l25 130h108l-30 -144h126l3 -57h-139l-74 -328l28 -9l73 51l18 -21
q-24 -40 -63.5 -70t-76.5 -30q-20 0 -56 14.5t-33 24.5l77 360l-82 8l3 34z" />
    <glyph glyph-name="Umacron" unicode="&#x16a;" horiz-adv-x="708" 
d="M740 625l-3 -40l-48 -10q-25 -5 -38 -42t-30 -157l-24 -170q-17 -113 -87 -170t-176 -57q-108 0 -173 52t-65 151q0 30 3 55l43 313q3 19 -20 24l-45 11l-3 40h280l-3 -40l-50 -11q-23 -6 -26 -24l-43 -313q-5 -43 -5 -60q0 -62 39.5 -97.5t105.5 -35.5q72 0 115 41.5
t57 137.5l22 153q17 124 15 159t-26 40l-52 10l-3 40h240zM584 701h-297l12 58h284z" />
    <glyph glyph-name="umacron" unicode="&#x16b;" horiz-adv-x="550" 
d="M25 344q22 48 58.5 86.5t72.5 38.5q20 0 56.5 -19t36.5 -32q0 -22 -53 -179q-32 -105 -32 -121q0 -15 14 -28t31 -13q24 0 57.5 52t94.5 175l35 153h121l-42 -150q-46 -231 -51 -246l27 -10l71 51l18 -20q-24 -41 -62.5 -69.5t-75.5 -28.5q-21 0 -55 14.5t-34 27.5
q0 39 57 221h-11q-84 -178 -124 -218q-44 -44 -96 -44q-38 0 -63 24.5t-25 59.5q0 48 45 185q30 91 43 134l-29 6l-64 -72zM480 546h-297l12 58h284z" />
    <glyph glyph-name="Ubreve" unicode="&#x16c;" horiz-adv-x="708" 
d="M740 625l-3 -40l-48 -10q-25 -5 -38 -42t-30 -157l-24 -170q-17 -113 -87 -170t-176 -57q-108 0 -173 52t-65 151q0 30 3 55l43 313q3 19 -20 24l-45 11l-3 40h280l-3 -40l-50 -11q-23 -6 -26 -24l-43 -313q-5 -43 -5 -60q0 -62 39.5 -97.5t105.5 -35.5q72 0 115 41.5
t57 137.5l22 153q17 124 15 159t-26 40l-52 10l-3 40h240zM606 852q-50 -187 -176 -187q-65 0 -93 49t-32 138h44q14 -58 33.5 -89t55.5 -31t65 31.5t60 88.5h43z" />
    <glyph glyph-name="ubreve" unicode="&#x16d;" horiz-adv-x="550" 
d="M25 344q22 48 58.5 86.5t72.5 38.5q20 0 56.5 -19t36.5 -32q0 -22 -53 -179q-32 -105 -32 -121q0 -15 14 -28t31 -13q24 0 57.5 52t94.5 175l35 153h121l-42 -150q-46 -231 -51 -246l27 -10l71 51l18 -20q-24 -41 -62.5 -69.5t-75.5 -28.5q-21 0 -55 14.5t-34 27.5
q0 39 57 221h-11q-84 -178 -124 -218q-44 -44 -96 -44q-38 0 -63 24.5t-25 59.5q0 48 45 185q30 91 43 134l-29 6l-64 -72zM489 697q-50 -187 -176 -187q-65 0 -93 49t-32 138h44q14 -58 33.5 -89t55.5 -31t65 31.5t60 88.5h43z" />
    <glyph glyph-name="Uring" unicode="&#x16e;" horiz-adv-x="708" 
d="M534 768q0 -42 -27 -71t-71 -29q-45 0 -72.5 29t-26.5 71t28 71t71 29t71 -29t27 -71zM500 768q0 28 -17.5 48t-46.5 20t-46.5 -20t-17.5 -48t17.5 -47.5t46.5 -19.5t46.5 19.5t17.5 47.5zM740 625l-3 -40l-48 -10q-25 -5 -38 -42t-30 -157l-24 -170q-17 -113 -87 -170
t-176 -57q-108 0 -173 52t-65 151q0 30 3 55l43 313q3 19 -20 24l-45 11l-3 40h280l-3 -40l-50 -11q-23 -6 -26 -24l-43 -313q-5 -43 -5 -60q0 -62 39.5 -97.5t105.5 -35.5q72 0 115 41.5t57 137.5l22 153q17 124 15 159t-26 40l-52 10l-3 40h240z" />
    <glyph glyph-name="uring" unicode="&#x16f;" horiz-adv-x="550" 
d="M421 613q0 -42 -27 -71t-71 -29q-45 0 -72.5 29t-26.5 71t28 71t71 29t71 -29t27 -71zM387 613q0 28 -17.5 48t-46.5 20t-46.5 -20t-17.5 -48t17.5 -47.5t46.5 -19.5t46.5 19.5t17.5 47.5zM25 344q22 48 58.5 86.5t72.5 38.5q20 0 56.5 -19t36.5 -32q0 -22 -53 -179
q-32 -105 -32 -121q0 -15 14 -28t31 -13q24 0 57.5 52t94.5 175l35 153h121l-42 -150q-46 -231 -51 -246l27 -10l71 51l18 -20q-24 -41 -62.5 -69.5t-75.5 -28.5q-21 0 -55 14.5t-34 27.5q0 39 57 221h-11q-84 -178 -124 -218q-44 -44 -96 -44q-38 0 -63 24.5t-25 59.5
q0 48 45 185q30 91 43 134l-29 6l-64 -72z" />
    <glyph glyph-name="Uhungarumlaut" unicode="&#x170;" horiz-adv-x="708" 
d="M740 625l-3 -40l-48 -10q-25 -5 -38 -42t-30 -157l-24 -170q-17 -113 -87 -170t-176 -57q-108 0 -173 52t-65 151q0 30 3 55l43 313q3 19 -20 24l-45 11l-3 40h280l-3 -40l-50 -11q-23 -6 -26 -24l-43 -313q-5 -43 -5 -60q0 -62 39.5 -97.5t105.5 -35.5q72 0 115 41.5
t57 137.5l22 153q17 124 15 159t-26 40l-52 10l-3 40h240zM700 852l-194 -182h-41l116 182h119zM524 852l-194 -182h-42l117 182h119z" />
    <glyph glyph-name="uhungarumlaut" unicode="&#x171;" horiz-adv-x="550" 
d="M25 344q22 48 58.5 86.5t72.5 38.5q20 0 56.5 -19t36.5 -32q0 -22 -53 -179q-32 -105 -32 -121q0 -15 14 -28t31 -13q24 0 57.5 52t94.5 175l35 153h121l-42 -150q-46 -231 -51 -246l27 -10l71 51l18 -20q-24 -41 -62.5 -69.5t-75.5 -28.5q-21 0 -55 14.5t-34 27.5
q0 39 57 221h-11q-84 -178 -124 -218q-44 -44 -96 -44q-38 0 -63 24.5t-25 59.5q0 48 45 185q30 91 43 134l-29 6l-64 -72zM603 697l-194 -182h-41l116 182h119zM427 697l-194 -182h-42l117 182h119z" />
    <glyph glyph-name="Uogonek" unicode="&#x172;" horiz-adv-x="708" 
d="M356 -220q-45 5 -68.5 30.5t-15.5 67.5q12 62 98 103q-12 -2 -36 -2q-108 0 -173 52t-65 151q0 21 4 55l43 314q3 18 -20 24l-46 11l-3 39h280l-3 -39l-50 -11q-23 -6 -26 -24l-43 -314q-5 -40 -5 -60q0 -62 39.5 -97.5t105.5 -35.5q72 0 115.5 41.5t57.5 137.5l21 154
q17 124 15 159t-26 39l-52 11l-3 39h240l-3 -39l-48 -11q-25 -5 -38 -42t-30 -156l-24 -171q-11 -78 -47.5 -127.5t-96.5 -83.5q-34 -18 -58.5 -44.5t-28.5 -53.5q-4 -24 7.5 -39t34.5 -17q32 -3 56 15l8 -13q-10 -29 -42.5 -48t-73.5 -15z" />
    <glyph glyph-name="uogonek" unicode="&#x173;" horiz-adv-x="550" 
d="M354 -220q-45 5 -67 32.5t-13 70.5q7 32 34.5 60.5t64.5 46.5q-21 4 -40.5 15.5t-19.5 20.5q0 39 57 221h-11q-84 -178 -124 -218q-44 -44 -96 -44q-37 0 -62 24.5t-25 59.5q0 48 45 185q34 109 43 134l-29 7l-65 -73l-20 22q22 48 58 86.5t72 38.5q20 0 56.5 -19
t36.5 -32q0 -22 -53 -179q-32 -102 -32 -121q0 -15 14 -28t31 -13q24 0 58 52.5t94 175.5l35 152h121l-42 -150q-46 -230 -51 -246l27 -10l71 52l18 -21q-37 -62 -102 -96q-27 -14 -46 -37.5t-23 -46.5q-5 -24 4.5 -41.5t31.5 -19.5q31 -3 57 15l7 -13q-10 -29 -42 -48
t-73 -15z" />
    <glyph glyph-name="Wcircumflex" unicode="&#x174;" horiz-adv-x="932" 
d="M686 670h-46l-86 120h-2l-118 -120h-46l114 182h118zM1006 625l-3 -41l-30 -9q-35 -10 -57 -35.5t-58 -102.5l-186 -437h-114l-56 385h-7l-175 -385h-115l-94 534q-4 19 -12 28t-26 13l-41 9l-3 41h301l-3 -41l-42 -6q-38 -5 -26 -77l52 -388h7l158 356l-10 65
q-2 18 -10.5 27.5t-27.5 13.5l-41 9l-3 41h300l-3 -41l-42 -6q-22 -3 -27.5 -20.5t1.5 -56.5l51 -387h8l130 330q28 66 27 95.5t-30 36.5l-30 8l-3 41h240z" />
    <glyph glyph-name="wcircumflex" unicode="&#x175;" horiz-adv-x="732" 
d="M584 515h-46l-86 120h-2l-118 -120h-46l114 182h118zM388 291h-8l-131 -287l-128 -19l-10 403l-29 6l-64 -72l-20 22q22 48 58 86.5t72 38.5q22 0 59.5 -14.5t37.5 -26.5l3 -372h9l141 318l-5 95l55 -10l54 -10l16 -393h10l95 187q34 66 34 91q0 22 -19 40.5t-49 24.5
q8 31 31 51t53 20q34 0 57 -22.5t22 -60.5q0 -28 -14.5 -62t-30 -58.5t-55.5 -83.5l-118 -179l-120 -19z" />
    <glyph glyph-name="Ycircumflex" unicode="&#x176;" horiz-adv-x="597" 
d="M658 625l-3 -41l-24 -7q-30 -8 -53 -27t-64 -78l-144 -209l-24 -188q-3 -20 20 -24l59 -11l-1 -40h-307l6 40l64 11q22 3 26 24l24 182l-122 265q-13 25 -24 36t-29 16l-30 10l-3 41h287l-3 -41l-40 -6q-26 -4 -26.5 -27t20.5 -71l71 -174h8l115 173q32 47 33 69.5
t-30 28.5l-36 7l-3 41h233zM514 670h-46l-86 120h-2l-118 -120h-46l114 182h118z" />
    <glyph glyph-name="ycircumflex" unicode="&#x177;" horiz-adv-x="476" 
d="M480 389q0 -71 -127 -235l-91 -123l-56 -112q-43 -86 -88.5 -128t-100.5 -42q-40 0 -69 23t-29 59q0 26 17.5 43.5t40.5 17.5q31 0 51 -22.5t19 -57.5l18 -1l126 167l-68 20l-11 390l-29 6l-64 -72l-20 22q22 48 58 86.5t72 38.5q22 0 59 -14t38 -27l-7 -379h13l156 270
v12q-56 22 -56 65q0 31 19.5 52.5t49.5 21.5q34 0 56.5 -22t22.5 -59zM436 515h-46l-86 120h-2l-118 -120h-46l114 182h118z" />
    <glyph glyph-name="Ydieresis" unicode="&#x178;" horiz-adv-x="597" 
d="M548 773q0 -29 -17.5 -49t-47.5 -20t-47.5 20t-17.5 49t17.5 49.5t47.5 20.5t47.5 -20.5t17.5 -49.5zM334 773q0 -29 -17.5 -49t-47.5 -20t-48 20t-18 49t18 49.5t48 20.5t47.5 -20.5t17.5 -49.5zM658 625l-3 -41l-24 -7q-30 -8 -53 -27t-64 -78l-144 -209l-24 -188
q-3 -20 20 -24l59 -11l-1 -40h-307l6 40l64 11q22 3 26 24l24 182l-122 265q-13 25 -24 36t-29 16l-30 10l-3 41h287l-3 -41l-40 -6q-26 -4 -26.5 -27t20.5 -71l71 -174h8l115 173q32 47 33 69.5t-30 28.5l-36 7l-3 41h233z" />
    <glyph glyph-name="Zacute" unicode="&#x179;" horiz-adv-x="602" 
d="M535 852l-201 -182h-45l119 182h127zM559 200l-48 -200h-507l7 45l443 526v8h-103q-89 0 -119.5 -15.5t-54.5 -69.5l-31 -77h-67l27 208h512l-6 -46l-448 -526l-1 -8h105q69 0 106.5 10t51 24.5t30.5 48.5l32 72h71z" />
    <glyph glyph-name="zacute" unicode="&#x17a;" horiz-adv-x="427" 
d="M458 697l-201 -182h-45l119 182h127zM297 322q-53 19 -156 99l-16 -15q22 -28 22 -52q0 -22 -14 -36t-36 -16q-28 -1 -43 14.5t-15 38.5q0 41 38 75t97 38q36 0 62.5 -9t42.5 -28t23.5 -32.5t17.5 -37.5l12 1l27 107q31 2 53 -16t22 -46q0 -35 -26 -60.5t-74 -35.5
l-202 -175q18 -7 44 -22t43.5 -27.5t45.5 -33t35 -25.5l16 15q-24 27 -24 54q0 21 14.5 35t37.5 15q26 1 40.5 -14.5t14.5 -39.5q0 -43 -35 -77t-95 -39q-65 0 -101.5 31.5t-57.5 89.5l-13 -1l-28 -111q-31 -1 -53.5 17t-22.5 45q0 72 97 94z" />
    <glyph glyph-name="Zdotaccent" unicode="&#x17b;" horiz-adv-x="602" 
d="M559 200l-48 -200h-507l7 45l443 526v8h-103q-89 0 -119.5 -15.5t-54.5 -69.5l-31 -77h-67l27 208h512l-6 -46l-448 -526l-1 -8h105q69 0 106.5 10t51 24.5t30.5 48.5l32 72h71zM442 766q0 -30 -18.5 -50.5t-49.5 -20.5q-30 0 -48 20.5t-18 50.5t18 51t48 21
q31 0 49.5 -21t18.5 -51z" />
    <glyph glyph-name="zdotaccent" unicode="&#x17c;" horiz-adv-x="427" 
d="M297 322q-53 19 -156 99l-16 -15q22 -28 22 -52q0 -22 -14 -36t-36 -16q-28 -1 -43 14.5t-15 38.5q0 41 38 75t97 38q36 0 62.5 -9t42.5 -28t23.5 -32.5t17.5 -37.5l12 1l27 107q31 2 53 -16t22 -46q0 -35 -26 -60.5t-74 -35.5l-202 -175q18 -7 44 -22t43.5 -27.5
t45.5 -33t35 -25.5l16 15q-24 27 -24 54q0 21 14.5 35t37.5 15q26 1 40.5 -14.5t14.5 -39.5q0 -43 -35 -77t-95 -39q-65 0 -101.5 31.5t-57.5 89.5l-13 -1l-28 -111q-31 -1 -53.5 17t-22.5 45q0 72 97 94zM345 611q0 -30 -18.5 -50.5t-49.5 -20.5q-30 0 -48 20.5t-18 50.5
t18 51t48 21q31 0 49.5 -21t18.5 -51z" />
    <glyph glyph-name="Zcaron" unicode="&#x17d;" horiz-adv-x="602" 
d="M545 864l-113 -182h-119l-64 182h44l86 -120h2l119 120h45zM559 200l-48 -200h-507l7 45l443 526v8h-103q-89 0 -119.5 -15.5t-54.5 -69.5l-31 -77h-67l27 208h512l-6 -46l-448 -526l-1 -8h105q69 0 106.5 10t51 24.5t30.5 48.5l32 72h71z" />
    <glyph glyph-name="zcaron" unicode="&#x17e;" horiz-adv-x="424" 
d="M436 697l-113 -182h-119l-64 182h44l86 -120h2l119 120h45zM297 322q-53 19 -156 99l-16 -15q22 -28 22 -52q0 -22 -14 -36t-36 -16q-28 -1 -43 14.5t-15 38.5q0 41 38 75t97 38q36 0 62.5 -9t42.5 -28t23.5 -32.5t17.5 -37.5l12 1l27 107q31 2 53 -16t22 -46
q0 -35 -26 -60.5t-74 -35.5l-202 -175q18 -7 44 -22t43.5 -27.5t45.5 -33t35 -25.5l16 15q-24 27 -24 54q0 21 14.5 35t37.5 15q26 1 40.5 -14.5t14.5 -39.5q0 -43 -35 -77t-95 -39q-65 0 -101.5 31.5t-57.5 89.5l-13 -1l-28 -111q-31 -1 -53.5 17t-22.5 45q0 72 97 94z" />
    <glyph glyph-name="florin" unicode="&#x192;" horiz-adv-x="540" 
d="M565 549q0 -29 -17.5 -49.5t-44.5 -20.5q-33 0 -52.5 24t-21.5 64l-47 -9q-5 -10 -11 -32.5t-10 -42t-10.5 -51t-9.5 -44.5h127l4 -57h-139q-21 -108 -47.5 -179.5t-69.5 -115.5q-55 -52 -133 -52q-42 0 -70.5 22.5t-28.5 57.5q0 27 16.5 44t41.5 17q31 0 51 -21.5
t23 -55.5l55 16q24 60 38 163l13 97l-87 7l3 34l95 31q29 116 84 174q29 31 71.5 48.5t76.5 17.5q44 0 72 -24.5t28 -62.5z" />
    <glyph glyph-name="Aringacute" unicode="&#x1fa;" horiz-adv-x="620" 
d="M566 989l-201 -182h-45l119 182h127zM298 615q-34 29 -34 77q2 42 28.5 71t70.5 29t71 -29t27 -71q0 -57 -42 -83l101 -518q6 -34 38 -41l38 -9l3 -41h-295l3 41l39 6q26 4 30.5 20.5t-4.5 56.5l-14 84h-188l-17 -46q-43 -102 11 -113l36 -8l3 -41h-237l3 41l28 9
q32 8 49 30t59 108zM349 254l-38 260h-10l-111 -260h159zM427 692q0 28 -17.5 48t-46.5 20t-46.5 -20t-17.5 -48t17.5 -47.5t46.5 -19.5t46.5 19.5t17.5 47.5z" />
    <glyph glyph-name="aringacute" unicode="&#x1fb;" horiz-adv-x="528" 
d="M540 923l-201 -182h-45l119 182h127zM430 613q0 -42 -27 -71t-71 -29q-45 0 -72.5 29t-26.5 71t28 71t71 29t71 -29t27 -71zM368 391h8l27 77h103l-60 -181l-53 -224l27 -9l74 51l17 -21q-24 -40 -63.5 -70t-76.5 -30q-21 0 -55.5 14t-34.5 27q0 9 8.5 36t25.5 75t22 64
h-10q-77 -129 -101 -158q-45 -57 -91 -57q-49 0 -81 35.5t-32 99.5q0 73 34 150t86 129q69 69 139 69q66 0 87 -77zM396 613q0 28 -17.5 48t-46.5 20t-46.5 -20t-17.5 -48t17.5 -47.5t46.5 -19.5t46.5 19.5t17.5 47.5zM354 329q-18 30 -50.5 53.5t-58.5 23.5q-17 0 -33 -16
q-30 -30 -54.5 -104t-24.5 -134q0 -37 14 -58t37 -21q30 0 74 63q17 24 73 114z" />
    <glyph glyph-name="AEacute" unicode="&#x1fc;" horiz-adv-x="875" 
d="M764 852l-201 -182h-45l119 182h127zM835 197l-46 -197h-523l6 39l51 11q23 5 26 24l20 148h-189l-31 -50q-42 -61 -42 -93q0 -25 30 -30l35 -8l3 -41h-236l3 41l28 9q31 9 53 31.5t70 96.5l219 345q28 45 -17 53l-47 10l-1 39h627l-27 -206h-69l-11 83q-3 23 -9 36
t-15.5 22.5t-33.5 13t-52 5t-80 1.5h-31l-34 -242h11q45 0 65 6t30 26l34 68h51l-55 -242h-51l1 64q1 19 -15.5 26t-69.5 7h-7l-33 -248h35q87 0 125 5.5t58.5 20.5t37.5 52l34 74h72zM375 268l42 315h-7l-201 -315h166z" />
    <glyph glyph-name="aeacute" unicode="&#x1fd;" horiz-adv-x="691" 
d="M371 354q83 115 190 115q57 0 90 -28t33 -72q0 -11 -2.5 -21.5t-10.5 -20.5t-15.5 -18t-23.5 -19t-29 -19t-38 -21t-43.5 -22.5t-52.5 -27t-59 -30.5v-13q0 -43 24.5 -70.5t62.5 -27.5q30 0 128 66l16 -21q-43 -55 -87.5 -87t-100.5 -32q-71 0 -113 46t-44 117v7
q-48 -81 -88 -125.5t-77 -44.5q-49 0 -79 39.5t-30 105.5q0 73 31.5 145t83.5 124q69 69 139 69q39 0 63 -31.5t32 -82.5zM351 316q-18 37 -51.5 63.5t-60.5 26.5q-17 0 -33 -16q-30 -30 -51.5 -98.5t-21.5 -129.5q0 -37 12.5 -61.5t31.5 -24.5q13 0 28 11t31.5 35t28.5 44
t32.5 56t30.5 53q13 26 23 41zM412 205q99 55 136 87.5t37 71.5q0 18 -26.5 32.5t-47.5 14.5q-19 0 -30 -11q-20 -20 -42.5 -76t-30.5 -119h4zM599 697l-201 -182h-45l119 182h127z" />
    <glyph glyph-name="Oslashacute" unicode="&#x1fe;" horiz-adv-x="715" 
d="M186 28q-62 38 -97 102.5t-34 144.5q0 150 94 252q103 111 250 111q68 0 126 -25l44 75h47q-55 -93 -55 -94q62 -37 97 -101.5t34 -144.5q0 -155 -111 -268q-92 -95 -233 -95q-72 0 -126 25l-49 -84h-46zM229 102l263 453q-34 37 -96 37q-53 0 -94 -37.5t-63 -94.5
t-33 -112.5t-11 -103.5q0 -89 34 -142zM518 520l-263 -452q43 -36 96 -36q43 0 78 25t57 63.5t37.5 86.5t22 91t6.5 80q0 87 -34 142zM576 852l-201 -182h-45l119 182h127z" />
    <glyph glyph-name="oslashacute" unicode="&#x1ff;" horiz-adv-x="481" 
d="M99 20q-68 56 -68 168q0 109 71 195t171 86q41 0 76 -16l83 145h44l-95 -164q68 -53 68 -169q0 -109 -70 -194.5t-171 -85.5q-45 0 -77 16l-75 -130h-43q5 9 14 25t28 48.5t31 53.5zM337 358q-175 -304 -176 -304q19 -24 46 -24q42 0 75.5 56.5t47.5 124.5q12 52 12 102
q0 22 -5 45zM143 98l176 303q-20 23 -46 23q-41 0 -74.5 -55.5t-48.5 -122.5q-12 -51 -12 -101q0 -22 5 -47zM450 697l-201 -182h-45l119 182h127z" />
    <glyph glyph-name="Scommaaccent" unicode="&#x218;" horiz-adv-x="535" 
d="M305 -152q-20 -89 -162 -133l-14 27q40 12 62.5 29.5t28.5 48.5q3 17 -5 32.5t-20 23t-22 13.5t-10 7q4 22 26.5 38.5t50.5 13.5q36 -4 54.5 -33t10.5 -67zM480 183q0 -90 -70 -144t-177 -54q-104 0 -210 33l17 192l64 -1l31 -150q49 -22 112 -22q54 0 84 26.5t31 70.5
q0 22 -8.5 40t-30 35.5t-37.5 27.5t-51 29q-85 46 -121 85t-36 109q0 75 67.5 126.5t163.5 51.5q62 0 158 -23l55 17l-27 -205l-63 2l-21 134q-54 22 -114 22q-41 0 -70.5 -22.5t-29.5 -54.5q0 -24 8.5 -43t30 -37t40 -29t54.5 -31q75 -39 112.5 -79.5t37.5 -105.5z" />
    <glyph glyph-name="scommaaccent" unicode="&#x219;" horiz-adv-x="383" 
d="M203 -149q-11 -48 -53.5 -81t-103.5 -50l-16 24q77 22 89 75q3 15 -1.5 28.5t-13.5 22t-18.5 14.5t-16 9.5t-6.5 4.5q5 23 26 38t50 12q35 -4 53.5 -32.5t10.5 -64.5zM380 384q0 -29 -16 -46t-43 -17q-24 0 -38.5 15.5t-14.5 38.5q0 13 6 24q-40 22 -82 25
q-14 -9 -27 -27.5t-14 -29.5q-1 -9 3.5 -19t14.5 -21.5t18 -20t22.5 -22t20.5 -19.5q3 -3 15 -14.5t15.5 -15t14 -13.5t14 -14.5t11 -13.5t10.5 -14.5t8 -14t6.5 -15t2.5 -14.5t1 -16q-2 -59 -58 -97t-127 -38q-62 0 -105 21t-43 67q0 28 16.5 45t44.5 17q23 0 37 -15.5
t14 -38.5q0 -13 -6 -24q49 -24 95 -26q13 9 25.5 28.5t13.5 33.5q0 6 -1.5 12.5t-6.5 14t-10 13t-14 14.5t-15 14l-16 15q-11 10 -16 15q-34 31 -51.5 49t-32.5 44.5t-14 51.5q3 63 56.5 98t121.5 35q144 0 144 -85z" />
    <glyph glyph-name="uni021A" unicode="&#x21a;" horiz-adv-x="641" 
d="M350 -152q-20 -89 -162 -133l-14 27q40 12 62.5 29.5t28.5 48.5q3 17 -5 32.5t-20 23t-22 13.5t-10 7q4 22 26.5 38.5t50.5 13.5q36 -4 54.5 -33t10.5 -67zM637 415h-65l-11 83q-7 51 -31.5 66t-93.5 16h-6l-67 -505q-3 -19 20 -24l60 -11l3 -40h-306l3 40l62 11
q24 4 26 24l67 505h-4q-68 0 -95.5 -14t-50.5 -65l-35 -86h-72l45 210h578z" />
    <glyph glyph-name="uni021B" unicode="&#x21b;" horiz-adv-x="331" 
d="M179 -155q-20 -89 -162 -133l-14 27q40 12 62.5 29.5t28.5 48.5q3 17 -5 32.5t-20 23t-22 13.5t-10 7q4 22 26.5 38.5t50.5 13.5q36 -4 54.5 -33t10.5 -67zM130 462l25 130h108l-30 -144h126l3 -57h-139l-74 -328l28 -9l73 51l18 -21q-24 -40 -63.5 -70t-76.5 -30
q-20 0 -56 14.5t-33 24.5l77 360l-82 8l3 34z" />
    <glyph glyph-name="dotlessj" unicode="&#x237;" horiz-adv-x="267" 
d="M180 453q10 0 18 -90t5 -100q-71 -314 -104 -347q-39 -107 -104 -145q-29 -15 -57.5 -16t-48.5 13q-26 11 -35 31.5t1 41.5q26 32 66 6q18 0 33 -13.5t17 -32.5q1 2 12 22t22 48t19 64q2 6 14 59t25.5 115t16.5 73l35 208l-57 -35l-35 -24q1 3 5.5 12.5t6.5 14.5
t6.5 13.5t7.5 13.5t7.5 10.5t9 8t8.5 2.5q18 22 51.5 37t54.5 10z" />
    <glyph glyph-name="circumflex" unicode="&#x2c6;" horiz-adv-x="400" 
d="M376 515h-46l-86 120h-2l-118 -120h-46l114 182h118z" />
    <glyph glyph-name="caron" unicode="&#x2c7;" horiz-adv-x="400" 
d="M399 697l-113 -182h-119l-64 182h44l86 -120h2l119 120h45z" />
    <glyph glyph-name="breve" unicode="&#x2d8;" horiz-adv-x="400" 
d="M402 697q-50 -187 -176 -187q-65 0 -93 49t-32 138h44q14 -58 33.5 -89t55.5 -31t65 31.5t60 88.5h43z" />
    <glyph glyph-name="dotaccent" unicode="&#x2d9;" horiz-adv-x="400" 
d="M315 611q0 -30 -18.5 -50.5t-49.5 -20.5q-30 0 -48 20.5t-18 50.5t18 51t48 21q31 0 49.5 -21t18.5 -51z" />
    <glyph glyph-name="ring" unicode="&#x2da;" horiz-adv-x="400" 
d="M346 613q0 -42 -27 -71t-71 -29q-45 0 -72.5 29t-26.5 71t28 71t71 29t71 -29t27 -71zM312 613q0 28 -17.5 48t-46.5 20t-46.5 -20t-17.5 -48t17.5 -47.5t46.5 -19.5t46.5 19.5t17.5 47.5z" />
    <glyph glyph-name="ogonek" unicode="&#x2db;" horiz-adv-x="400" 
d="M255 -189q-62 -49 -122 -49q-46 0 -77.5 26.5t-31.5 69.5q0 51 46.5 94.5t116.5 68.5h56q-69 -31 -106 -71.5t-37 -75.5q0 -26 17.5 -42t50.5 -16q38 0 80 21z" />
    <glyph glyph-name="tilde" unicode="&#x2dc;" horiz-adv-x="400" 
d="M419 658q-32 -135 -121 -135q-33 0 -81.5 35.5t-64.5 35.5q-15 0 -25 -13t-28 -49h-43q31 135 120 135q33 0 80.5 -35t63.5 -35q15 0 27.5 13.5t29.5 47.5h42z" />
    <glyph glyph-name="hungarumlaut" unicode="&#x2dd;" horiz-adv-x="400" 
d="M505 697l-194 -182h-41l116 182h119zM329 697l-194 -182h-42l117 182h119z" />
    <glyph glyph-name="Wgrave" unicode="&#x1e80;" horiz-adv-x="932" 
d="M1006 625l-3 -41l-30 -9q-35 -10 -57 -35.5t-58 -102.5l-186 -437h-114l-56 385h-7l-175 -385h-115l-94 534q-4 19 -12 28t-26 13l-41 9l-3 41h301l-3 -41l-42 -6q-38 -5 -26 -77l52 -388h7l158 356l-10 65q-2 18 -10.5 27.5t-27.5 13.5l-41 9l-3 41h300l-3 -41l-42 -6
q-22 -3 -27.5 -20.5t1.5 -56.5l51 -387h8l130 330q28 66 27 95.5t-30 36.5l-30 8l-3 41h240zM609 670h-46l-151 182h127z" />
    <glyph glyph-name="wgrave" unicode="&#x1e81;" horiz-adv-x="732" 
d="M388 291h-8l-131 -287l-128 -19l-10 403l-29 6l-64 -72l-20 22q22 48 58 86.5t72 38.5q22 0 59.5 -14.5t37.5 -26.5l3 -372h9l141 318l-5 95l55 -10l54 -10l16 -393h10l95 187q34 66 34 91q0 22 -19 40.5t-49 24.5q8 31 31 51t53 20q34 0 57 -22.5t22 -60.5
q0 -28 -14.5 -62t-30 -58.5t-55.5 -83.5l-118 -179l-120 -19zM478 515h-46l-151 182h127z" />
    <glyph glyph-name="Wacute" unicode="&#x1e82;" horiz-adv-x="932" 
d="M717 852l-201 -182h-45l119 182h127zM1006 625l-3 -41l-30 -9q-35 -10 -57 -35.5t-58 -102.5l-186 -437h-114l-56 385h-7l-175 -385h-115l-94 534q-4 19 -12 28t-26 13l-41 9l-3 41h301l-3 -41l-42 -6q-38 -5 -26 -77l52 -388h7l158 356l-10 65q-2 18 -10.5 27.5
t-27.5 13.5l-41 9l-3 41h300l-3 -41l-42 -6q-22 -3 -27.5 -20.5t1.5 -56.5l51 -387h8l130 330q28 66 27 95.5t-30 36.5l-30 8l-3 41h240z" />
    <glyph glyph-name="wacute" unicode="&#x1e83;" horiz-adv-x="732" 
d="M618 697l-201 -182h-45l119 182h127zM388 291h-8l-131 -287l-128 -19l-10 403l-29 6l-64 -72l-20 22q22 48 58 86.5t72 38.5q22 0 59.5 -14.5t37.5 -26.5l3 -372h9l141 318l-5 95l55 -10l54 -10l16 -393h10l95 187q34 66 34 91q0 22 -19 40.5t-49 24.5q8 31 31 51t53 20
q34 0 57 -22.5t22 -60.5q0 -28 -14.5 -62t-30 -58.5t-55.5 -83.5l-118 -179l-120 -19z" />
    <glyph glyph-name="Wdieresis" unicode="&#x1e84;" horiz-adv-x="932" 
d="M712 761q0 -29 -17.5 -49t-47.5 -20t-47.5 20t-17.5 49t17.5 49.5t47.5 20.5t47.5 -20.5t17.5 -49.5zM498 761q0 -29 -17.5 -49t-47.5 -20t-48 20t-18 49t18 49.5t48 20.5t47.5 -20.5t17.5 -49.5zM1006 625l-3 -41l-30 -9q-35 -10 -57 -35.5t-58 -102.5l-186 -437h-114
l-56 385h-7l-175 -385h-115l-94 534q-4 19 -12 28t-26 13l-41 9l-3 41h301l-3 -41l-42 -6q-38 -5 -26 -77l52 -388h7l158 356l-10 65q-2 18 -10.5 27.5t-27.5 13.5l-41 9l-3 41h300l-3 -41l-42 -6q-22 -3 -27.5 -20.5t1.5 -56.5l51 -387h8l130 330q28 66 27 95.5t-30 36.5
l-30 8l-3 41h240z" />
    <glyph glyph-name="wdieresis" unicode="&#x1e85;" horiz-adv-x="732" 
d="M605 606q0 -29 -17.5 -49t-47.5 -20t-47.5 20t-17.5 49t17.5 49.5t47.5 20.5t47.5 -20.5t17.5 -49.5zM391 606q0 -29 -17.5 -49t-47.5 -20t-48 20t-18 49t18 49.5t48 20.5t47.5 -20.5t17.5 -49.5zM388 291h-8l-131 -287l-128 -19l-10 403l-29 6l-64 -72l-20 22
q22 48 58 86.5t72 38.5q22 0 59.5 -14.5t37.5 -26.5l3 -372h9l141 318l-5 95l55 -10l54 -10l16 -393h10l95 187q34 66 34 91q0 22 -19 40.5t-49 24.5q8 31 31 51t53 20q34 0 57 -22.5t22 -60.5q0 -28 -14.5 -62t-30 -58.5t-55.5 -83.5l-118 -179l-120 -19z" />
    <glyph glyph-name="thinspace" unicode="&#x2009;" horiz-adv-x="76" 
 />
    <glyph glyph-name="endash" unicode="&#x2013;" horiz-adv-x="470" 
d="M443 215h-412l3 60h406z" />
    <glyph glyph-name="emdash" unicode="&#x2014;" horiz-adv-x="940" 
d="M913 215h-882l3 60h876z" />
    <glyph glyph-name="quoteleft" unicode="&#x2018;" horiz-adv-x="242" 
d="M222 412q-3 -25 -25.5 -44t-53.5 -19q-41 0 -66.5 28t-25.5 67q0 62 59 120.5t153 99.5l20 -24q-51 -28 -86.5 -67t-35.5 -76q0 -15 6.5 -29t15.5 -23.5t18 -17t15 -11.5z" />
    <glyph glyph-name="quoteright" unicode="&#x2019;" horiz-adv-x="242" 
d="M256 559q0 -59 -53 -113t-135 -96l-25 24q48 27 79.5 62.5t31.5 70.5q0 16 -7 30.5t-17 24.5t-20.5 17.5t-17.5 11.5l-7 4q0 25 23 44.5t54 19.5q40 0 67 -29.5t27 -70.5z" />
    <glyph glyph-name="quotesinglbase" unicode="&#x201a;" horiz-adv-x="242" 
d="M175 38q0 -59 -53 -113t-135 -96l-25 24q48 27 79.5 62.5t31.5 70.5q0 16 -7 30.5t-17 24.5t-20.5 17.5t-17.5 11.5l-7 4q0 25 23 44.5t54 19.5q40 0 67 -29.5t27 -70.5z" />
    <glyph glyph-name="quotedblleft" unicode="&#x201c;" horiz-adv-x="458" 
d="M445 412q0 -24 -23 -43.5t-53 -19.5q-41 0 -68 29.5t-27 70.5q0 111 188 209l25 -24q-48 -28 -79 -63.5t-31 -70.5q0 -16 7 -30.5t17 -24.5t20 -17t17 -11t7 -5zM223 412q0 -24 -23.5 -43.5t-53.5 -19.5q-41 0 -68 29.5t-27 70.5q0 59 53 112.5t136 96.5l24 -24
q-48 -28 -79 -63.5t-31 -70.5q0 -16 7 -30.5t17 -24.5t20.5 -17t17.5 -11t7 -5z" />
    <glyph glyph-name="quotedblright" unicode="&#x201d;" horiz-adv-x="458" 
d="M482 559q0 -59 -53 -113t-135 -96l-24 24q47 27 78.5 62.5t31.5 70.5q0 16 -7 30.5t-17 24.5t-20.5 17.5t-17.5 11.5l-7 4q0 25 23 44.5t54 19.5q40 0 67 -29.5t27 -70.5zM260 559q0 -59 -53 -113t-136 -96l-24 24q47 26 78.5 62t31.5 71q0 16 -7 30.5t-17 24.5t-20 17.5
t-17 11.5l-7 4q0 25 23 44.5t53 19.5q40 0 67.5 -29.5t27.5 -70.5z" />
    <glyph glyph-name="quotedblbase" unicode="&#x201e;" horiz-adv-x="458" 
d="M401 38q0 -59 -53 -113t-135 -96l-24 24q47 27 78.5 62.5t31.5 70.5q0 16 -7 30.5t-17.5 24.5t-20.5 17.5t-17 11.5l-7 4q0 25 23 44.5t54 19.5q40 0 67 -29.5t27 -70.5zM179 38q0 -59 -53 -113t-136 -96l-24 24q47 26 78.5 62t31.5 71q0 16 -7 30.5t-17 24.5t-20 17.5
t-17 11.5l-7 4q0 25 23 44.5t53 19.5q40 0 67.5 -29.5t27.5 -70.5z" />
    <glyph glyph-name="dagger" unicode="&#x2020;" horiz-adv-x="470" 
d="M469 434l-4 -46h-180v-543h-45v543h-179l-4 46h183v192h45v-192h184z" />
    <glyph glyph-name="daggerdbl" unicode="&#x2021;" horiz-adv-x="470" 
d="M470 20h-184v-175h-44v175h-183l4 45h179v338h-179l-4 45h183v178h44v-178h184l-4 -45h-180v-338h180z" />
    <glyph glyph-name="bullet" unicode="&#x2022;" horiz-adv-x="455" 
d="M420 232q0 -22 -20 -71.5t-36 -65.5q-15 -15 -65 -35.5t-72 -20.5q-21 0 -71 20.5t-64 35.5q-15 16 -36 66t-21 71q0 22 21 71.5t36 64.5t65 35.5t71 20.5q22 0 71.5 -20.5t64.5 -35.5t35.5 -64.5t20.5 -71.5z" />
    <glyph glyph-name="ellipsis" unicode="&#x2026;" horiz-adv-x="696" 
d="M637 62q0 -31 -22.5 -54.5t-54.5 -23.5q-33 0 -55.5 23t-22.5 55t22.5 54.5t55.5 22.5t55 -22.5t22 -54.5zM405 62q0 -31 -22.5 -54.5t-54.5 -23.5q-33 0 -55.5 23t-22.5 55t22.5 54.5t55.5 22.5t55 -22.5t22 -54.5zM173 62q0 -31 -22.5 -54.5t-54.5 -23.5
q-33 0 -55.5 23t-22.5 55t22.5 54.5t55.5 22.5t55 -22.5t22 -54.5z" />
    <glyph glyph-name="perthousand" unicode="&#x2030;" horiz-adv-x="1126" 
d="M390 500q0 -78 -53.5 -132.5t-130.5 -54.5q-66 0 -111 41t-45 108q0 76 53.5 130.5t128.5 54.5q67 0 112.5 -40t45.5 -107zM729 639l-630 -654h-59l630 654h59zM1105 164q0 -77 -54 -132t-130 -55q-68 0 -111 40t-43 107q0 78 52.5 132.5t129.5 54.5q66 0 111 -40
t45 -107zM724 164q0 -77 -54 -132t-130 -55q-68 0 -111 40t-43 107q0 78 52.5 132.5t129.5 54.5q66 0 111 -40t45 -107zM340 490q0 50 -31.5 81.5t-80.5 31.5q-54 0 -92 -42t-38 -97q0 -49 32 -79t80 -30q55 0 92.5 39.5t37.5 95.5zM1057 158q0 47 -32.5 78t-79.5 31
q-54 0 -92 -42t-38 -97q0 -49 31.5 -79t78.5 -30q55 0 93.5 41.5t38.5 97.5zM676 158q0 47 -32.5 78t-79.5 31q-54 0 -92 -42t-38 -97q0 -49 31.5 -79t78.5 -30q55 0 93.5 41.5t38.5 97.5z" />
    <glyph glyph-name="guilsinglleft" unicode="&#x2039;" horiz-adv-x="300" 
d="M250 62l-13 -21l-214 154v56l260 158l9 -21l-181 -167z" />
    <glyph glyph-name="guilsinglright" unicode="&#x203a;" horiz-adv-x="300" 
d="M278 191l-253 -154l-9 21l165 163l-124 163l13 21l214 -154z" />
    <glyph glyph-name="fraction" unicode="&#x2044;" horiz-adv-x="525" 
d="M528 638l-468 -653h-63l469 653h62z" />
    <glyph glyph-name="zerosuperior" unicode="&#x2070;" horiz-adv-x="330" 
d="M145 264q-134 0 -134 140q0 39 9 80.5t27.5 82t54 66t81.5 25.5q70 0 102 -39.5t32 -106.5q0 -39 -8.5 -79t-27 -79.5t-54 -64.5t-82.5 -25zM144 290q30 0 50.5 98t20.5 181q0 64 -31 64q-32 0 -52 -100t-20 -184q0 -59 32 -59z" />
    <glyph glyph-name="foursuperior" unicode="&#x2074;" horiz-adv-x="330" 
d="M152 273l17 102h-163l-3 34l237 255l62 -18l-36 -231h65l-9 -40h-60l-17 -102h-93zM50 415h123l25 152h-7z" />
    <glyph glyph-name="fivesuperior" unicode="&#x2075;" horiz-adv-x="330" 
d="M125 261q-32 0 -57.5 4.5t-46 20.5t-20.5 42q0 18 13 31t32 13q60 0 60 -80q6 -2 20 -2q77 0 77 64q0 40 -40 62t-119 35l78 200h208l-10 -78h-188l-19 -50q177 -30 177 -126q0 -59 -51 -97.5t-114 -38.5z" />
    <glyph glyph-name="sixsuperior" unicode="&#x2076;" horiz-adv-x="330" 
d="M154 263q-63 0 -101 45.5t-38 109.5q0 40 17 79t52 74.5t99.5 59.5t149.5 29l8 -27q-173 -27 -215 -159h3q44 41 97 41q41 0 67 -27.5t26 -71.5q0 -58 -49.5 -105.5t-115.5 -47.5zM156 293q19 0 38.5 29.5t19.5 78.5q0 70 -39 70q-17 0 -43 -21q-12 -30 -12 -74
q0 -83 36 -83z" />
    <glyph glyph-name="sevensuperior" unicode="&#x2077;" horiz-adv-x="330" 
d="M274 577h-53q-81 0 -102 -4t-33 -18l-28 -36h-29l38 132h293v-22l-243 -362h-78z" />
    <glyph glyph-name="eightsuperior" unicode="&#x2078;" horiz-adv-x="330" 
d="M148 266q-60 0 -105 23.5t-45 69.5q0 35 28 61t67 32v2q-62 37 -63 87q1 53 45.5 85.5t103.5 32.5q60 0 101.5 -23t40.5 -69q1 -37 -25 -58t-67 -29v-1q75 -43 75 -98q0 -53 -48.5 -84t-107.5 -31zM198 495q33 25 33 70q0 27 -15 45.5t-42 18.5q-25 0 -40.5 -13.5
t-15.5 -37.5q0 -7 1.5 -13t5.5 -12.5t6.5 -11t9.5 -10t10 -8.5t12 -8t11.5 -6.5t12.5 -7t11 -6.5zM156 294q26 0 42 13t16 38q0 11 -4.5 21.5t-9.5 17t-17 16t-17 12.5t-21 12.5t-18 10.5q-37 -25 -37 -74q0 -30 17.5 -48.5t48.5 -18.5z" />
    <glyph glyph-name="ninesuperior" unicode="&#x2079;" horiz-adv-x="330" 
d="M11 262l-9 26q89 15 143 56.5t73 102.5h-2q-45 -40 -97 -40q-41 0 -67.5 27.5t-26.5 71.5q0 59 49 105.5t115 46.5q65 0 103 -45t38 -110q0 -40 -17 -78.5t-52 -74.5t-100 -60t-150 -28zM169 451q17 0 43 21q12 28 12 74q0 82 -37 82q-17 0 -36.5 -29t-19.5 -78
q0 -70 38 -70z" />
    <glyph glyph-name="plussuperior" unicode="&#x207a;" horiz-adv-x="330" 
d="M293 444h-108v-108h-33v108h-109l2 33h107v109h33v-109h106z" />
    <glyph glyph-name="minussuperior" unicode="&#x207b;" horiz-adv-x="330" 
d="M300 445h-250l1 33h247z" />
    <glyph glyph-name="zeroinferior" unicode="&#x2080;" horiz-adv-x="330" 
d="M145 -152q-134 0 -134 140q0 39 9 80.5t27.5 82t54 66t81.5 25.5q70 0 102 -39.5t32 -106.5q0 -39 -8.5 -79t-27 -79.5t-54 -64.5t-82.5 -25zM144 -126q30 0 50.5 98t20.5 181q0 64 -31 64q-32 0 -52 -100t-20 -184q0 -59 32 -59z" />
    <glyph glyph-name="oneinferior" unicode="&#x2081;" horiz-adv-x="330" 
d="M26 -143l2 34l60 7q16 1 18 14l37 255l-72 12l5 24l182 43l-48 -334q-2 -12 12 -14l43 -7l2 -34h-241z" />
    <glyph glyph-name="twoinferior" unicode="&#x2082;" horiz-adv-x="330" 
d="M-9 -143v40q22 18 61 47t59.5 45.5t44.5 40t34.5 46t10.5 47.5q0 26 -19 40.5t-42 14.5q-48 0 -107 -41l-7 17q24 32 69.5 60t93.5 28q53 0 85.5 -27t32.5 -72q0 -28 -16.5 -54.5t-57 -57t-68 -48t-89.5 -54.5v-4h42q79 0 100.5 2t30.5 11l20 28h28l-38 -109h-268z" />
    <glyph glyph-name="threeinferior" unicode="&#x2083;" horiz-adv-x="330" 
d="M113 -158q-38 0 -77 17t-39 51q0 17 13 30t31 13q31 0 44 -24.5t11 -54.5l6 -1q6 -1 12 -1q34 0 54 28.5t20 68.5q0 51 -48 51q-10 0 -42 -9l-12 26q89 43 106 59q18 17 18 39q0 19 -17.5 30.5t-41.5 11.5q-52 0 -107 -46l-7 18q35 44 81 68.5t94 24.5q42 0 74 -20.5
t32 -53.5q0 -12 -2.5 -22.5t-9.5 -19.5t-12.5 -16t-18 -14t-19 -11t-22 -10t-21 -8t-23 -7.5t-20.5 -6.5v-6q27 9 50 9q77 0 77 -78q0 -58 -57 -97t-127 -39z" />
    <glyph glyph-name="fourinferior" unicode="&#x2084;" horiz-adv-x="330" 
d="M152 -143l17 102h-163l-3 34l237 255l62 -18l-36 -231h65l-9 -40h-60l-17 -102h-93zM50 -1h123l25 152h-7z" />
    <glyph glyph-name="fiveinferior" unicode="&#x2085;" horiz-adv-x="330" 
d="M125 -155q-32 0 -57.5 4.5t-46 20.5t-20.5 42q0 18 13 31t32 13q60 0 60 -80q6 -2 20 -2q77 0 77 64q0 40 -40 62t-119 35l78 200h208l-10 -78h-188l-19 -50q177 -30 177 -126q0 -59 -51 -97.5t-114 -38.5z" />
    <glyph glyph-name="sixinferior" unicode="&#x2086;" horiz-adv-x="330" 
d="M154 -153q-63 0 -101 45.5t-38 109.5q0 40 17 79t52 74.5t99.5 59.5t149.5 29l8 -27q-173 -27 -215 -159h3q44 41 97 41q41 0 67 -27.5t26 -71.5q0 -58 -49.5 -105.5t-115.5 -47.5zM156 -123q19 0 38.5 29.5t19.5 78.5q0 70 -39 70q-17 0 -43 -21q-12 -30 -12 -74
q0 -83 36 -83z" />
    <glyph glyph-name="seveninferior" unicode="&#x2087;" horiz-adv-x="330" 
d="M274 161h-53q-81 0 -102 -4t-33 -18l-28 -36h-29l38 132h293v-22l-243 -362h-78z" />
    <glyph glyph-name="eightinferior" unicode="&#x2088;" horiz-adv-x="330" 
d="M148 -150q-60 0 -105 23.5t-45 69.5q0 35 28 61t67 32v2q-62 37 -63 87q1 53 45.5 85.5t103.5 32.5q60 0 101.5 -23t40.5 -69q1 -37 -25 -58t-67 -29v-1q75 -43 75 -98q0 -53 -48.5 -84t-107.5 -31zM198 79q33 25 33 70q0 27 -15 45.5t-42 18.5q-25 0 -40.5 -13.5
t-15.5 -37.5q0 -7 1.5 -13t5.5 -12.5t6.5 -11t9.5 -10t10 -8.5t12 -8t11.5 -6.5t12.5 -7t11 -6.5zM156 -122q26 0 42 13t16 38q0 11 -4.5 21.5t-9.5 17t-17 16t-17 12.5t-21 12.5t-18 10.5q-37 -25 -37 -74q0 -30 17.5 -48.5t48.5 -18.5z" />
    <glyph glyph-name="nineinferior" unicode="&#x2089;" horiz-adv-x="330" 
d="M11 -154l-9 26q89 15 143 56.5t73 102.5h-2q-45 -40 -97 -40q-41 0 -67.5 27.5t-26.5 71.5q0 59 49 105.5t115 46.5q65 0 103 -45t38 -110q0 -40 -17 -78.5t-52 -74.5t-100 -60t-150 -28zM169 35q17 0 43 21q12 28 12 74q0 82 -37 82q-17 0 -36.5 -29t-19.5 -78
q0 -70 38 -70z" />
    <glyph glyph-name="Euro" unicode="&#x20ac;" horiz-adv-x="519" 
d="M187 216q10 -75 48 -116t103 -41t134 57l14 -20q-29 -49 -80.5 -80t-109.5 -31q-96 0 -153 64.5t-68 166.5h-65l3 47h60v6q2 40 7 71h-54l3 47h62q32 108 109 175.5t180 67.5q70 0 110.5 -25t41.5 -62q0 -28 -16 -46.5t-42 -18.5q-30 0 -48.5 26.5t-16.5 63.5
q-22 16 -54 16q-57 0 -99.5 -53t-60.5 -144h202l3 -47h-213q-4 -44 -4 -66v-11h198l3 -47h-197z" />
    <glyph glyph-name="trademark" unicode="&#x2122;" horiz-adv-x="937" 
d="M943 253h-181l1 30l33 7q8 2 10.5 12.5t1.5 46.5l-5 232h-10l-97 -316h-68l-75 319h-10l-6 -195q-2 -66 -0.5 -82t11.5 -19l32 -5l2 -30h-139l2 30l30 5q12 2 16.5 19t6.5 82l6 185q0 13 -12 15l-35 6l-2 30h170l55 -272h10l78 272h168l-2 -30l-33 -6q-14 -3 -14 -15
l4 -225q1 -35 5.5 -46t14.5 -13l30 -7zM406 625v-145h-41l-5 19q-16 59 -31 76.5t-60 17.5h-1v-290q0 -11 12 -14l39 -6l2 -30h-188l2 30l39 6q13 3 13 14v290h-1q-39 0 -55.5 -19t-33.5 -75l-6 -19h-38l8 145h345z" />
    <glyph glyph-name="minus" unicode="&#x2212;" horiz-adv-x="480" 
d="M442 206h-405l3 57h399z" />
    <glyph glyph-name="uni2215" unicode="&#x2215;" horiz-adv-x="525" 
d="M528 638l-468 -653h-63l469 653h62z" />
    <glyph glyph-name="approxequal" unicode="&#x2248;" horiz-adv-x="480" 
d="M154 325q-14 0 -22.5 -2t-20.5 -15.5t-21 -40.5h-50q10 53 39.5 84t71.5 31q27 0 90 -33t85 -33q14 0 22.5 2t20.5 15.5t21 40.5h50q-10 -53 -39.5 -84t-71.5 -31q-34 0 -96.5 33t-78.5 33zM154 158q-14 0 -22.5 -2t-20.5 -15.5t-21 -40.5h-50q10 53 39.5 84t71.5 31
q27 0 90 -33t85 -33q14 0 22.5 2t20.5 15.5t21 40.5h50q-10 -53 -39.5 -84t-71.5 -31q-34 0 -96.5 33t-78.5 33z" />
    <glyph glyph-name="notequal" unicode="&#x2260;" horiz-adv-x="480" 
d="M140 -23l41 144h-142l3 57h155l32 113h-187l-3 57h206l38 134h56l-38 -134h140l-3 -57h-153l-32 -113h185l3 -57h-204l-41 -144h-56z" />
    <glyph glyph-name="lessequal" unicode="&#x2264;" horiz-adv-x="480" 
d="M134 270l307 -128l-14 -51l-395 166v36l395 166l14 -51l-307 -128v-10zM448 2h-416l3 57h410z" />
    <glyph glyph-name="greaterequal" unicode="&#x2265;" horiz-adv-x="480" 
d="M39 142l307 128v10l-307 128l14 51l395 -166v-36l-395 -166zM448 2h-416l3 57h410z" />
    <glyph glyph-name="pcircle" unicode="&#x24df;" horiz-adv-x="768" 
d="M733 311q0 -145 -102 -246.5t-247 -101.5t-247 101.5t-102 246.5q0 146 102 248.5t247 102.5t247 -102.5t102 -248.5zM692 311q0 129 -90.5 221t-217.5 92t-217.5 -92t-90.5 -221q0 -128 90.5 -219.5t217.5 -91.5t217.5 91.5t90.5 219.5zM554 393q0 -56 -42.5 -91.5
t-104.5 -35.5q-23 0 -43 3v-88q0 -10 14 -13l36 -7l2 -34h-175l2 34l29 7q13 3 13 13v262q0 10 -13 13l-29 8l-2 33h162q75 0 113 -27.5t38 -76.5zM474 385q0 36 -23 57t-59 21h-28v-160q26 -4 39 -4q33 0 52 23t19 63z" />
    <glyph glyph-name="commaaccent" unicode="&#xf6c3;" horiz-adv-x="400" 
d="M189 -149q-11 -48 -53.5 -81t-103.5 -50l-16 24q77 22 89 75q3 15 -1.5 28.5t-13.5 22t-18.5 14.5t-16 9.5t-6.5 4.5q5 23 26 38t50 12q35 -4 53.5 -32.5t10.5 -64.5z" />
    <glyph glyph-name="J.alt" horiz-adv-x="517" 
d="M554 625l-3 -39l-56 -11q-22 -4 -25 -24l-50 -362q-14 -102 -79 -153t-160 -51q-78 0 -134 40t-56 102q0 34 22.5 56.5t54.5 21.5q26 -1 44.5 -18t18.5 -42q0 -39 -28 -63q11 -21 35 -35t48 -14q93 0 112 146l48 372q2 20 -20 24l-67 11l-3 39h298z" />
    <glyph glyph-name="germandbls.alt1" horiz-adv-x="615" 
d="M563 124q-3 -64 -59.5 -101.5t-128.5 -37.5q-61 0 -102 21t-41 67q0 29 16.5 45.5t44.5 16.5q23 0 37 -15.5t14 -38.5q0 -13 -6 -24q44 -22 101 -25q10 8 20 28t11 33q0 8 -3.5 17t-13.5 20.5t-16 17.5t-23.5 22t-22.5 21q-64 59 -80 83q-20 30 -18 60q3 66 54.5 100.5
t120.5 34.5q144 0 144 -85q0 -28 -16 -45t-43 -17q-24 0 -38.5 15.5t-14.5 38.5q0 12 6 23q-41 22 -88 25q-12 -10 -21.5 -27.5t-10.5 -29.5q-1 -9 3.5 -18.5t14 -21t17.5 -20t22.5 -22t21.5 -20.5q5 -5 17.5 -16.5t17.5 -16.5l15 -15q10 -10 14 -15.5t11.5 -14.5
t10.5 -15.5t6.5 -15t4.5 -16.5t1 -16zM475 603q0 -27 -17.5 -46.5t-43.5 -19.5q-31 0 -50.5 27t-25.5 69l-63 -11q-15 -42 -40 -174l-70 -355q-43 -217 -112 -287q-51 -52 -125 -52q-42 0 -70.5 22.5t-28.5 57.5q0 27 16.5 44t41.5 17q31 0 50.5 -23.5t23.5 -58.5l53 16
q15 38 38 168l59 387l-85 7l3 34l96 31q23 112 81 170q67 67 158 67q49 0 80 -26t31 -64z" />
    <glyph glyph-name="Jcircumflex.alt" horiz-adv-x="517" 
d="M560 670h-46l-86 120h-2l-118 -120h-46l114 182h118zM554 625l-3 -39l-56 -11q-22 -4 -25 -24l-50 -362q-14 -102 -79 -153t-160 -51q-78 0 -134 40t-56 102q0 34 22.5 56.5t54.5 21.5q26 -1 44.5 -18t18.5 -42q0 -39 -28 -63q11 -21 35 -35t48 -14q93 0 112 146l48 372
q2 20 -20 24l-67 11l-3 39h298z" />
    <glyph glyph-name="dot" horiz-adv-x="232" 
d="M185 238q0 -31 -22.5 -54t-54.5 -23q-33 0 -55.5 22.5t-22.5 54.5t22.5 54.5t55.5 22.5t55 -22.5t22 -54.5z" />
    <glyph glyph-name="a.smallcap" horiz-adv-x="502" 
d="M125 148l-12 -26q-12 -32 -15.5 -45.5t1.5 -21t21 -11.5l22 -5v-39h-182l5 39l17 4q30 7 48 28.5t62 109.5l123 247l1 24l122 26l86 -405q3 -20 37 -29l21 -5v-39h-239l5 39l23 4q25 5 29 16t-5 57l-6 32h-164zM281 186l-37 193h-12l-90 -193h139z" />
    <glyph glyph-name="b.smallcap" horiz-adv-x="521" 
d="M470 129q0 -48 -34 -80q-48 -49 -178 -49h-247l6 39l34 9q17 4 19 17l44 336q2 13 -15 17l-31 9l-1 39h240q175 0 175 -107q0 -47 -39 -76t-98 -38v-7q53 -6 89 -34.5t36 -74.5zM348 129q0 44 -28 67t-75 23h-37l-22 -169l31 -11h30q44 0 72.5 24.5t28.5 65.5zM360 342
q0 40 -25.5 62.5t-76.5 22.5h-22l-23 -173l48 1q44 1 71.5 23.5t27.5 63.5z" />
    <glyph glyph-name="c.smallcap" horiz-adv-x="564" 
d="M487 158l-35 -158l-51 10q-61 -23 -137 -23q-107 0 -168 56.5t-61 156.5q0 111 81 192q84 84 206 84q71 0 128 -19l74 18l-24 -172h-68l-21 109q-30 23 -80 23q-77 0 -123 -70.5t-46 -173.5q0 -85 46 -131q31 -31 81 -31q41 0 70 16l58 113h70z" />
    <glyph glyph-name="d.smallcap" horiz-adv-x="573" 
d="M537 259q0 -102 -78 -177q-85 -82 -234 -82h-214l6 39l34 9q17 4 19 17l44 336q2 13 -15 17l-31 9l-3 39l225 1q113 1 180 -58t67 -150zM408 257q0 77 -39 123t-107 46h-27l-49 -371l52 -14q76 -2 123 58t47 158z" />
    <glyph glyph-name="e.smallcap" horiz-adv-x="532" 
d="M482 157l-35 -157h-436l6 39l34 9q17 4 19 17l44 336q2 13 -15 17l-31 9l-3 39h448l-21 -160h-61l-8 58q-5 40 -31 51t-108 11h-49l-22 -174h25q53 0 67 26l26 52h45l-43 -187h-44l-2 47q-1 16 -12 21.5t-45 5.5h-22l-23 -177h49q81 0 112 11.5t48 50.5l22 55h66z" />
    <glyph glyph-name="f.smallcap" horiz-adv-x="516" 
d="M485 306h-61l-8 58q-6 40 -32 51t-108 11h-40l-25 -184h28q29 0 44.5 4.5t23.5 21.5l25 51h46l-43 -187h-44l-2 47q-1 16 -12 21.5t-45 5.5h-25l-19 -141q-2 -14 14 -17l46 -9l-1 -39h-236l6 39l34 9q17 4 19 17l44 336q2 13 -15 17l-31 9l-3 39h440z" />
    <glyph glyph-name="g.smallcap" horiz-adv-x="578" 
d="M534 214l-4 -39l-37 -9q-17 -3 -20 -18l-12 -91l44 -5l1 -29q-112 -36 -232 -36q-112 0 -175.5 56.5t-63.5 156.5q0 112 82 192q82 84 205 84q71 0 128 -19l74 18l-24 -172h-68l-21 109q-30 23 -80 23q-77 0 -123 -70.5t-46 -173.5q0 -86 46 -132q30 -31 79 -31
q34 0 55 10l14 110q1 14 -18 18l-31 9l-2 39h229z" />
    <glyph glyph-name="h.smallcap" horiz-adv-x="612" 
d="M545 0h-224l3 39l34 9q18 5 19 17l21 152h-190l-20 -152q-2 -13 14 -17l33 -9l3 -39h-224l3 39l34 9q17 4 19 17l44 336q2 13 -15 17l-31 9l-3 39h223l-2 -39l-35 -9q-17 -4 -19 -17l-19 -144h189l19 144q1 8 -2 11.5t-12 5.5l-32 9l-3 39h224l-3 -39l-35 -9
q-18 -4 -20 -17l-44 -336q-2 -12 16 -17l32 -9z" />
    <glyph glyph-name="i.smallcap" horiz-adv-x="322" 
d="M254 0h-241l5 39l41 9q17 3 19 17l44 336q2 14 -14 17l-39 9l-4 39h241l-4 -39l-42 -9q-17 -3 -19 -17l-44 -336q-2 -14 15 -17l39 -9z" />
    <glyph glyph-name="j.smallcap" horiz-adv-x="377" 
d="M369 466l-3 -39l-37 -9q-18 -4 -20 -17l-24 -186q-30 -229 -208 -229q-44 0 -69.5 20t-23.5 50q1 20 15 33.5t35 13.5q32 0 47.5 -21.5t13.5 -57.5h10q22 15 34.5 46.5t20.5 90.5l31 240q2 14 -14 17l-46 9l-3 39h241z" />
    <glyph glyph-name="j.smallcap.alt" horiz-adv-x="433" 
d="M429 466l-5 -39l-36 -9q-18 -4 -20 -17l-34 -247q-11 -80 -67.5 -124.5t-124.5 -44.5q-74 0 -115 29t-41 69q0 29 18 48t45 19q22 0 38.5 -13.5t16.5 -33.5q0 -31 -23 -49q21 -27 57 -27q29 0 49.5 27t27.5 80l36 267q2 14 -14 17l-46 9v39h238z" />
    <glyph glyph-name="k.smallcap" horiz-adv-x="565" 
d="M535 0h-222l2 39l19 6q16 4 5 27q-80 148 -81 148l-56 -47l-14 -108q-2 -13 14 -17l33 -9l3 -39h-224l3 39l34 9q17 4 19 17l44 336q2 13 -15 17l-31 9l-3 39h224l-3 -39l-35 -9q-17 -4 -19 -17l-23 -176l130 114q53 48 54 65q2 17 -19 21l-16 4l-3 37h210l-3 -39l-32 -6
q-47 -11 -124 -77l-58 -49l125 -220q12 -20 41 -30l18 -6z" />
    <glyph glyph-name="l.smallcap" horiz-adv-x="489" 
d="M445 168l-38 -168h-393l3 39l34 9q17 4 19 17l44 336q2 13 -15 17l-31 9l-3 39h232l-3 -39l-43 -9q-17 -3 -19 -17l-47 -360h17q79 0 108.5 13.5t47.5 54.5l24 59h63z" />
    <glyph glyph-name="m.smallcap" horiz-adv-x="715" 
d="M658 0h-229l3 39l35 9q12 3 16.5 15t8.5 58l31 287h-12l-180 -393h-99l-47 399h-12l-39 -230q-9 -48 -12.5 -73t-3.5 -39.5t3 -18t11 -5.5l40 -9l3 -39h-172l3 39l36 9q15 3 24 27t24 109l37 217q3 14 -13 18l-41 8l-3 39h230l32 -326h13l147 326h205l-3 -39l-38 -9
q-17 -4 -19 -18l-28 -279q-4 -33 -3.5 -47t3.5 -19t12 -7l34 -9z" />
    <glyph glyph-name="n.smallcap" horiz-adv-x="597" 
d="M591 466l-3 -39l-34 -8q-17 -4 -26 -30t-21 -113l-38 -281h-106l-196 357h-13l-20 -162q-10 -89 -8 -114t18 -29l38 -8l3 -39h-179l3 39l33 8q18 5 27.5 30t20.5 113l25 191q3 28 -17 36l-30 10l-4 39h179l188 -343h13l19 153q11 89 9 114t-19 29l-37 8l-3 39h178z" />
    <glyph glyph-name="o.smallcap" horiz-adv-x="564" 
d="M528 262q0 -118 -87 -203q-75 -73 -179 -73q-97 0 -161.5 61.5t-64.5 154.5q0 119 75 194q80 82 191 82q97 0 161.5 -61.5t64.5 -154.5zM402 288q0 85 -34 119q-21 26 -65 26q-37 0 -66.5 -27.5t-45 -69.5t-23 -83.5t-7.5 -78.5q0 -84 35 -120q22 -24 65 -24
q37 0 66 27.5t44.5 69.5t23 83t7.5 78z" />
    <glyph glyph-name="p.smallcap" horiz-adv-x="511" 
d="M492 333q0 -52 -35 -89.5t-84 -53.5t-104 -16q-41 0 -67 4l-14 -113q-2 -14 14 -17l46 -9l3 -39h-237l3 39l34 9q17 4 19 17l44 336q2 13 -14 17l-32 9l-3 39h233q96 0 145 -36t49 -97zM363 328q0 44 -26.5 72t-72.5 28h-29l-27 -209q18 -6 53 -6q43 0 72.5 33.5
t29.5 81.5z" />
    <glyph glyph-name="q.smallcap" horiz-adv-x="564" 
d="M507 -130q-60 -14 -132 -14q-76 0 -118.5 30t-84.5 116q-62 24 -99 77.5t-37 122.5q0 119 75 194q80 82 191 82q97 0 161.5 -61.5t64.5 -154.5q0 -118 -87 -203q-57 -56 -137 -69q37 -54 76 -70.5t123 -14.5zM402 288q0 85 -34 119q-21 26 -65 26q-37 0 -66.5 -27.5
t-45 -69.5t-23 -83.5t-7.5 -78.5q0 -84 35 -120q22 -24 65 -24q37 0 66 27.5t44.5 69.5t23 83t7.5 78z" />
    <glyph glyph-name="r.smallcap" horiz-adv-x="543" 
d="M508 0h-164l-29 69l-58 125l-52 3l-17 -132q-2 -13 14 -17l33 -9l3 -39h-224l3 39l34 9q17 4 19 17l44 336q2 13 -15 17l-31 9l-3 39h244q95 0 143 -35t48 -88q0 -101 -131 -139l72 -126q15 -30 47 -35l17 -4zM371 334q0 44 -26.5 69.5t-70.5 25.5h-39l-25 -190l64 -9
q40 4 68.5 30t28.5 74z" />
    <glyph glyph-name="s.smallcap" horiz-adv-x="462" 
d="M400 139q0 -66 -54 -108.5t-144 -42.5q-89 0 -175 22l16 149h62l24 -114q36 -13 73 -13q44 0 68.5 20t24.5 51q0 28 -23 46.5t-76 43.5q-30 15 -47 25t-39 28t-32.5 40.5t-10.5 50.5q0 60 52 99t141 40q53 0 130 -15l44 11l-21 -156h-57l-25 104q-42 14 -78 14
q-39 0 -60 -16.5t-21 -42.5q0 -30 23.5 -50t81.5 -48q28 -14 45 -24.5t37.5 -28t30.5 -38.5t10 -47z" />
    <glyph glyph-name="t.smallcap" horiz-adv-x="535" 
d="M515 299h-61l-7 61q-5 40 -22 52.5t-60 12.5h-13l-48 -360q-2 -13 15 -17l41 -9l3 -39h-241l3 39l42 9q17 4 19 17l48 360h-11q-44 0 -65 -12.5t-36 -50.5l-25 -63h-64l35 167h468z" />
    <glyph glyph-name="u.smallcap" horiz-adv-x="569" 
d="M573 466l-3 -39l-34 -8q-13 -3 -19 -11t-13 -38t-16 -95l-17 -122q-11 -80 -62 -124.5t-138 -44.5q-92 0 -145 40.5t-53 113.5q0 9 2 31l32 232q2 13 -14 17l-32 9l-3 39h225l-3 -39l-36 -9q-17 -4 -19 -17l-29 -215q-4 -26 -4 -41q0 -105 114 -105q107 0 124 128l15 108
q11 89 9 114t-19 29l-37 8l-3 39h178z" />
    <glyph glyph-name="v.smallcap" horiz-adv-x="502" 
d="M543 466l-3 -40l-18 -4q-21 -5 -32 -12t-29.5 -35t-49.5 -90l-144 -285h-107l-87 392q-3 13 -10.5 18.5t-26.5 10.5l-20 5l-3 40h239l-2 -40l-24 -4q-26 -5 -29 -15.5t7 -56.5l54 -262h13l106 226q29 62 28 83t-29 26l-17 3l-3 40h187z" />
    <glyph glyph-name="w.smallcap" horiz-adv-x="775" 
d="M810 466l-3 -40l-17 -4q-28 -8 -49.5 -31.5t-60.5 -105.5l-138 -285h-101l-46 282h-12l-132 -282h-102l-78 392q-4 21 -36 29l-22 5l-3 40h244l-3 -40l-25 -4q-24 -4 -28 -17.5t3 -54.5l44 -251h12l116 254l-7 39q-2 21 -37 29l-21 5l-3 40h245l-3 -40l-24 -4
q-22 -4 -26.5 -18.5t1.5 -53.5l39 -251h12l93 208q30 68 30.5 89t-24.5 26l-19 4l-3 40h184z" />
    <glyph glyph-name="x.smallcap" horiz-adv-x="525" 
d="M492 0h-236l3 39l21 4q12 2 17 7t3 15t-11 27l-57 104h-4l-76 -86q-18 -21 -24 -34.5t-2 -20.5t19 -10l22 -5l3 -40h-188l3 39l22 6q41 12 99 72l100 108l-114 174q-9 16 -31 22l-21 6l-3 39h237l-3 -39l-22 -4q-19 -3 -19.5 -15t13.5 -39l50 -90h4l69 77q51 56 7 65
l-22 5l-3 40h188l-3 -39l-23 -6q-35 -10 -98 -73l-95 -98l121 -185q8 -13 30 -20l21 -6z" />
    <glyph glyph-name="y.smallcap" horiz-adv-x="489" 
d="M527 466l-3 -40l-14 -4q-24 -7 -47.5 -27.5t-61.5 -71.5l-100 -133l-16 -125q-2 -14 15 -17l42 -9l3 -39h-244l3 39l44 9q17 3 19 17l15 116l-114 219q-7 15 -31 22l-16 4l-3 40h233l-3 -40l-22 -3q-15 -3 -20.5 -11.5t-2.5 -25t15 -44.5l50 -119h12l81 111q57 77 11 87
l-22 5l-3 40h180z" />
    <glyph glyph-name="z.smallcap" horiz-adv-x="509" 
d="M455 160l-37 -160h-409l5 39l336 381l1 5h-92q-52 0 -74.5 -13t-40.5 -55l-22 -56h-57l16 165h415l-5 -42l-342 -378v-5h70q72 1 102 14t46 51l23 54h65z" />
    <glyph glyph-name="fi.smallcap" horiz-adv-x="838" 
d="M770 0h-240l4 39l42 9q17 3 19 17l44 336q2 14 -15 17l-39 9l-3 39h240l-4 -39l-42 -9q-17 -3 -19 -17l-44 -336q-2 -14 15 -17l39 -9zM485 306h-61l-8 58q-6 40 -32 51t-108 11h-40l-25 -184h28q29 0 44.5 4.5t23.5 21.5l25 51h46l-43 -187h-44l-2 47q-1 16 -12 21.5
t-45 5.5h-25l-19 -141q-2 -14 14 -17l46 -9l-1 -39h-236l6 39l34 9q17 4 19 17l44 336q2 13 -15 17l-31 9l-3 39h440z" />
    <glyph glyph-name="fl.smallcap" horiz-adv-x="1005" 
d="M961 168l-38 -168h-393l3 39l34 9q17 4 19 17l44 336q2 13 -14 17l-32 9l-3 39h232l-3 -39l-43 -9q-17 -3 -19 -17l-47 -360h17q79 0 108.5 13.5t47.5 54.5l24 59h63zM485 306h-61l-8 58q-6 40 -32 51t-108 11h-40l-25 -184h28q29 0 44.5 4.5t23.5 21.5l25 51h46
l-43 -187h-44l-2 47q-1 16 -12 21.5t-45 5.5h-25l-19 -141q-2 -14 14 -17l46 -9l-1 -39h-236l6 39l34 9q17 4 19 17l44 336q2 13 -15 17l-31 9l-3 39h440z" />
    <glyph glyph-name="ff.smallcap" horiz-adv-x="1032" 
d="M485 306h-61l-8 58q-6 40 -32 51t-108 11h-40l-25 -184h28q29 0 44.5 4.5t23.5 21.5l25 51h46l-43 -187h-44l-2 47q-1 16 -12 22t-45 6h-25l-19 -142q-2 -14 14 -17l46 -9l-1 -39h-236l6 39l34 9q17 4 19 17l44 336q2 13 -14 17l-32 9l-3 39h440zM1001 306h-61l-8 58
q-6 40 -32 51t-108 11h-40l-25 -184h28q29 0 44.5 4.5t23.5 21.5l25 51h46l-43 -187h-44l-2 47q-1 16 -12 22t-45 6h-25l-19 -142q-2 -14 14 -17l46 -9l-1 -39h-236l6 39l34 9q17 4 19 17l44 336q2 13 -14 17l-32 9l-3 39h440z" />
    <glyph glyph-name="ffi.smallcap" horiz-adv-x="1354" 
d="M485 306h-61l-8 58q-6 40 -32 51t-108 11h-40l-25 -184h28q29 0 44.5 4.5t23.5 21.5l25 51h46l-43 -187h-44l-2 47q-1 16 -12 22t-45 6h-25l-19 -142q-2 -14 14 -17l46 -9l-1 -39h-236l6 39l34 9q17 4 19 17l44 336q2 13 -14 17l-32 9l-3 39h440zM1001 306h-61l-8 58
q-6 40 -32 51t-108 11h-40l-25 -184h28q29 0 44.5 4.5t23.5 21.5l25 51h46l-43 -187h-44l-2 47q-1 16 -12 22t-45 6h-25l-19 -142q-2 -14 14 -17l46 -9l-1 -39h-236l6 39l34 9q17 4 19 17l44 336q2 13 -14 17l-32 9l-3 39h440zM1286 0h-240l4 39l42 9q17 3 19 17l44 336
q2 14 -15 17l-39 9l-3 39h240l-4 -39l-42 -9q-17 -3 -19 -17l-44 -336q-2 -14 15 -17l39 -9z" />
    <glyph glyph-name="ffl.smallcap" horiz-adv-x="1521" 
d="M485 306h-61l-8 58q-6 40 -32 51t-108 11h-40l-25 -184h28q29 0 44.5 4.5t23.5 21.5l25 51h46l-43 -187h-44l-2 47q-1 16 -12 22t-45 6h-25l-19 -142q-2 -14 14 -17l46 -9l-1 -39h-236l6 39l34 9q17 4 19 17l44 336q2 13 -14 17l-32 9l-3 39h440zM1001 306h-61l-8 58
q-6 40 -32 51t-108 11h-40l-25 -184h28q29 0 44.5 4.5t23.5 21.5l25 51h46l-43 -187h-44l-2 47q-1 16 -12 22t-45 6h-25l-19 -142q-2 -14 14 -17l46 -9l-1 -39h-236l6 39l34 9q17 4 19 17l44 336q2 13 -14 17l-32 9l-3 39h440zM1477 168l-38 -168h-393l3 39l34 9q17 4 19 17
l44 336q2 13 -14 17l-32 9l-3 39h232l-3 -39l-43 -9q-17 -3 -19 -17l-47 -360h17q79 0 108.5 13.5t47.5 54.5l24 59h63z" />
    <glyph glyph-name="germandbls.smallcap" horiz-adv-x="924" 
d="M862 139q0 -66 -54 -108.5t-144 -42.5q-89 0 -175 22l16 149h62l24 -114q36 -13 73 -13q44 0 68.5 20t24.5 51q0 28 -23 46.5t-76 43.5q-30 15 -47 25t-38.5 28t-32 40.5t-10.5 50.5q0 60 51.5 99t140.5 40q53 0 130 -15l44 11l-21 -156h-57l-25 104q-42 14 -78 14
q-39 0 -60 -16.5t-21 -42.5q0 -30 23.5 -50t81.5 -48q28 -14 45 -24.5t37.5 -28t30.5 -38.5t10 -47zM400 139q0 -66 -54 -108.5t-144 -42.5q-89 0 -175 22l16 149h62l24 -114q36 -13 73 -13q44 0 68.5 20t24.5 51q0 28 -23 46.5t-76 43.5q-30 15 -47 25t-39 28t-32.5 40.5
t-10.5 50.5q0 60 52 99t141 40q53 0 130 -15l44 11l-21 -156h-57l-25 104q-42 14 -78 14q-39 0 -60 -16.5t-21 -42.5q0 -30 23.5 -50t81.5 -48q28 -14 45 -24.5t37.5 -28t30.5 -38.5t10 -47z" />
    <glyph glyph-name="agrave.smallcap" horiz-adv-x="502" 
d="M125 148l-12 -26q-12 -32 -15.5 -45.5t1.5 -21t21 -11.5l22 -5v-39h-182l5 39l17 4q30 7 48 28.5t62 109.5l123 247l1 24l122 26l86 -405q3 -20 37 -29l21 -5v-39h-239l5 39l23 4q25 5 29 16t-5 57l-6 32h-164zM281 186l-37 193h-12l-90 -193h139zM332 515h-46l-151 182
h127z" />
    <glyph glyph-name="aacute.smallcap" horiz-adv-x="502" 
d="M125 148l-12 -26q-12 -32 -15.5 -45.5t1.5 -21t21 -11.5l22 -5v-39h-182l5 39l17 4q30 7 48 28.5t62 109.5l123 247l1 24l122 26l86 -405q3 -20 37 -29l21 -5v-39h-239l5 39l23 4q25 5 29 16t-5 57l-6 32h-164zM281 186l-37 193h-12l-90 -193h139zM475 697l-201 -182h-45
l119 182h127z" />
    <glyph glyph-name="acircumflex.smallcap" horiz-adv-x="502" 
d="M125 148l-12 -26q-12 -32 -15.5 -45.5t1.5 -21t21 -11.5l22 -5v-39h-182l5 39l17 4q30 7 48 28.5t62 109.5l123 247l1 24l122 26l86 -405q3 -20 37 -29l21 -5v-39h-239l5 39l23 4q25 5 29 16t-5 57l-6 32h-164zM281 186l-37 193h-12l-90 -193h139zM427 515h-46l-86 120
h-2l-118 -120h-46l114 182h118z" />
    <glyph glyph-name="atilde.smallcap" horiz-adv-x="502" 
d="M125 148l-12 -26q-12 -32 -15.5 -45.5t1.5 -21t21 -11.5l22 -5v-39h-182l5 39l17 4q30 7 48 28.5t62 109.5l123 247l1 24l122 26l86 -405q3 -20 37 -29l21 -5v-39h-239l5 39l23 4q25 5 29 16t-5 57l-6 32h-164zM281 186l-37 193h-12l-90 -193h139zM470 658
q-32 -135 -121 -135q-33 0 -81.5 35.5t-64.5 35.5q-15 0 -25 -13t-28 -49h-43q31 135 120 135q33 0 80.5 -35t63.5 -35q15 0 27.5 13.5t29.5 47.5h42z" />
    <glyph glyph-name="adieresis.smallcap" horiz-adv-x="502" 
d="M125 148l-12 -26q-12 -32 -15.5 -45.5t1.5 -21t21 -11.5l22 -5v-39h-182l5 39l17 4q30 7 48 28.5t62 109.5l123 247l1 24l122 26l86 -405q3 -20 37 -29l21 -5v-39h-239l5 39l23 4q25 5 29 16t-5 57l-6 32h-164zM281 186l-37 193h-12l-90 -193h139zM471 606
q0 -29 -17.5 -49t-47.5 -20t-47.5 20t-17.5 49t17.5 49.5t47.5 20.5t47.5 -20.5t17.5 -49.5zM257 606q0 -29 -17.5 -49t-47.5 -20t-48 20t-18 49t18 49.5t48 20.5t47.5 -20.5t17.5 -49.5z" />
    <glyph glyph-name="aring.smallcap" horiz-adv-x="502" 
d="M345 446l79 -373q3 -20 37 -29l21 -5v-39h-239l5 39l23 4q25 5 29 16t-5 57l-6 32h-164l-12 -26q-12 -32 -15.5 -45.5t1.5 -21t21 -11.5l22 -5v-39h-182l5 39l17 4q29 7 47 28.5t63 109.5l136 274q-34 29 -34 77q2 42 28.5 71t70.5 29t71 -29t27 -71q0 -59 -46 -86z
M357 532q0 28 -17.5 48t-46.5 20t-46.5 -20t-17.5 -48t17.5 -47.5t46.5 -19.5t46.5 19.5t17.5 47.5zM281 186l-37 193h-12l-90 -193h139z" />
    <glyph glyph-name="aringacute.smallcap" horiz-adv-x="502" 
d="M480 828l-201 -182h-45l119 182h127zM345 446l79 -373q3 -20 37 -29l21 -5v-39h-239l5 39l23 4q25 5 29 16t-5 57l-6 32h-164l-12 -26q-12 -32 -15.5 -45.5t1.5 -21t21 -11.5l22 -5v-39h-182l5 39l17 4q29 7 47 28.5t63 109.5l136 274q-34 29 -34 77q2 42 28.5 71
t70.5 29t71 -29t27 -71q0 -59 -46 -86zM357 532q0 28 -17.5 48t-46.5 20t-46.5 -20t-17.5 -48t17.5 -47.5t46.5 -19.5t46.5 19.5t17.5 47.5zM281 186l-37 193h-12l-90 -193h139z" />
    <glyph glyph-name="amacron.smallcap" horiz-adv-x="502" 
d="M125 148l-12 -26q-12 -32 -15.5 -45.5t1.5 -21t21 -11.5l22 -5v-39h-182l5 39l17 4q30 7 48 28.5t62 109.5l123 247l1 24l122 26l86 -405q3 -20 37 -29l21 -5v-39h-239l5 39l23 4q25 5 29 16t-5 57l-6 32h-164zM281 186l-37 193h-12l-90 -193h139zM431 546h-297l12 58
h284z" />
    <glyph glyph-name="abreve.smallcap" horiz-adv-x="502" 
d="M125 148l-12 -26q-12 -32 -15.5 -45.5t1.5 -21t21 -11.5l22 -5v-39h-182l5 39l17 4q30 7 48 28.5t62 109.5l123 247l1 24l122 26l86 -405q3 -20 37 -29l21 -5v-39h-239l5 39l23 4q25 5 29 16t-5 57l-6 32h-164zM457 697q-50 -187 -176 -187q-65 0 -93 49t-32 138h44
q14 -58 33.5 -89t55.5 -31t65 31.5t60 88.5h43zM281 186l-37 193h-12l-90 -193h139z" />
    <glyph glyph-name="aogonek.smallcap" horiz-adv-x="502" 
d="M359 -220q-44 5 -66 32.5t-13 70.5q14 69 117 117h-154l5 39l23 4q25 5 29 16t-5 57l-6 32h-164l-12 -26q-12 -32 -15.5 -45.5t1.5 -21t21 -11.5l22 -5v-39h-183l5 39l17 4q30 7 48.5 28.5t62.5 109.5l123 247l1 24l122 26l86 -405q3 -20 37 -29l21 -5v-39
q-42 -8 -72.5 -36.5t-35.5 -61.5q-4 -24 5.5 -41.5t31.5 -19.5q32 -3 56 15l8 -13q-10 -29 -42.5 -48t-73.5 -15zM281 187l-37 192h-12l-90 -192h139z" />
    <glyph glyph-name="ae.smallcap" horiz-adv-x="760" 
d="M710 157l-35 -157h-434l6 39l35 9q17 3 19 17l11 86h-160l-16 -21q-36 -48 -36 -70q0 -13 16 -16l28 -5l3 -39h-187l4 39l19 5q19 5 31 12.5t38.5 37t66.5 87.5l139 193q26 39 -14 47l-31 6l-3 39h531l-21 -160h-61l-8 58q-5 40 -31 51t-108 11h-49l-23 -174h26
q53 0 67 26l26 52h45l-43 -187h-44l-2 47q-1 16 -12 21.5t-45 5.5l-22 1l-24 -179l50 1q81 0 112 11.5t48 50.5l22 55h66zM317 189l31 235h-8l-163 -235h140z" />
    <glyph glyph-name="aeacute.smallcap" horiz-adv-x="760" 
d="M678 697l-201 -182h-45l119 182h127zM710 157l-35 -157h-434l6 39l35 9q17 3 19 17l11 86h-160l-16 -21q-36 -48 -36 -70q0 -13 16 -16l28 -5l3 -39h-187l4 39l19 5q19 5 31 12.5t38.5 37t66.5 87.5l139 193q26 39 -14 47l-31 6l-3 39h531l-21 -160h-61l-8 58
q-5 40 -31 51t-108 11h-49l-23 -174h26q53 0 67 26l26 52h45l-43 -187h-44l-2 47q-1 16 -12 21.5t-45 5.5l-22 1l-24 -179l50 1q81 0 112 11.5t48 50.5l22 55h66zM317 189l31 235h-8l-163 -235h140z" />
    <glyph glyph-name="ccedilla.smallcap" horiz-adv-x="564" 
d="M228 -11q-91 9 -142 64.5t-51 146.5q0 111 81 192q84 84 206 84q71 0 128 -19l74 18l-24 -172h-68l-21 109q-30 23 -80 23q-77 0 -123 -70.5t-46 -173.5q0 -85 46 -131q31 -31 81 -31q41 0 70 16l58 113h70l-35 -158l-51 10q-55 -20 -126 -23l-47 -41q59 -2 93 -24.5
t34 -61.5q0 -56 -66.5 -93t-173.5 -42l-6 27q81 10 124.5 32t43.5 53q0 48 -77 48q-36 0 -70 -7l3 24z" />
    <glyph glyph-name="cacute.smallcap" horiz-adv-x="564" 
d="M509 697l-201 -182h-45l119 182h127zM487 158l-35 -158l-51 10q-61 -23 -137 -23q-107 0 -168 56.5t-61 156.5q0 111 81 192q84 84 206 84q71 0 128 -19l74 18l-24 -172h-68l-21 109q-30 23 -80 23q-77 0 -123 -70.5t-46 -173.5q0 -85 46 -131q31 -31 81 -31q41 0 70 16
l58 113h70z" />
    <glyph glyph-name="ccircumflex.smallcap" horiz-adv-x="564" 
d="M465 515h-46l-86 120h-2l-118 -120h-46l114 182h118zM487 158l-35 -158l-51 10q-61 -23 -137 -23q-107 0 -168 56.5t-61 156.5q0 111 81 192q84 84 206 84q71 0 128 -19l74 18l-24 -172h-68l-21 109q-30 23 -80 23q-77 0 -123 -70.5t-46 -173.5q0 -85 46 -131
q31 -31 81 -31q41 0 70 16l58 113h70z" />
    <glyph glyph-name="cdotaccent.smallcap" horiz-adv-x="564" 
d="M487 158l-35 -158l-51 10q-61 -23 -137 -23q-107 0 -168 56.5t-61 156.5q0 111 81 192q84 84 206 84q71 0 128 -19l74 18l-24 -172h-68l-21 109q-30 23 -80 23q-77 0 -123 -70.5t-46 -173.5q0 -85 46 -131q31 -31 81 -31q41 0 70 16l58 113h70zM395 611
q0 -30 -18.5 -50.5t-49.5 -20.5q-30 0 -48 20.5t-18 50.5t18 51t48 21q31 0 49.5 -21t18.5 -51z" />
    <glyph glyph-name="ccaron.smallcap" horiz-adv-x="564" 
d="M484 697l-113 -182h-119l-64 182h44l86 -120h2l119 120h45zM487 158l-35 -158l-51 10q-61 -23 -137 -23q-107 0 -168 56.5t-61 156.5q0 111 81 192q84 84 206 84q71 0 128 -19l74 18l-24 -172h-68l-21 109q-30 23 -80 23q-77 0 -123 -70.5t-46 -173.5q0 -85 46 -131
q31 -31 81 -31q41 0 70 16l58 113h70z" />
    <glyph glyph-name="dcaron.smallcap" horiz-adv-x="573" 
d="M447 697l-113 -182h-118l-65 182h44l87 -120h2l118 120h45zM537 259q0 -102 -78 -177q-85 -82 -234 -82h-214l6 39l34 9q17 4 19 17l44 336q2 13 -15 17l-31 9l-3 39l225 1q113 1 180 -58t67 -150zM408 257q0 77 -39 123t-107 46h-27l-49 -371l52 -14q76 -2 123 58
t47 158z" />
    <glyph glyph-name="eth.smallcap" horiz-adv-x="584" 
d="M104 214h-67l3 46h71l18 141q2 13 -15 17l-31 9l-3 39l225 1q113 1 180 -58t67 -150q0 -102 -78 -177q-85 -82 -234 -82h-214l6 39l34 9q17 4 19 17q1 9 3 24.5t6.5 48.5t7.5 54zM228 260h96l3 -46h-105l-21 -159l52 -14q76 -2 123 58t47 158q0 77 -39.5 123t-106.5 46
h-27z" />
    <glyph glyph-name="dcroat.smallcap" horiz-adv-x="584" 
d="M104 214h-67l3 46h71l18 141q2 13 -15 17l-31 9l-3 39l225 1q113 1 180 -58t67 -150q0 -102 -78 -177q-85 -82 -234 -82h-214l6 39l34 9q17 4 19 17q1 9 3 24.5t6.5 48.5t7.5 54zM228 260h96l3 -46h-105l-21 -159l52 -14q76 -2 123 58t47 158q0 77 -39.5 123t-106.5 46
h-27z" />
    <glyph glyph-name="egrave.smallcap" horiz-adv-x="532" 
d="M482 157l-35 -157h-436l6 39l34 9q17 4 19 17l44 336q2 13 -15 17l-31 9l-3 39h448l-21 -160h-61l-8 58q-5 40 -31 51t-108 11h-49l-22 -174h25q53 0 67 26l26 52h45l-43 -187h-44l-2 47q-1 16 -12 21.5t-45 5.5h-22l-23 -177h49q81 0 112 11.5t48 50.5l22 55h66z
M358 515h-46l-151 182h127z" />
    <glyph glyph-name="eacute.smallcap" horiz-adv-x="532" 
d="M482 157l-35 -157h-436l6 39l34 9q17 4 19 17l44 336q2 13 -15 17l-31 9l-3 39h448l-21 -160h-61l-8 58q-5 40 -31 51t-108 11h-49l-22 -174h25q53 0 67 26l26 52h45l-43 -187h-44l-2 47q-1 16 -12 21.5t-45 5.5h-22l-23 -177h49q81 0 112 11.5t48 50.5l22 55h66z
M506 697l-201 -182h-45l119 182h127z" />
    <glyph glyph-name="ecircumflex.smallcap" horiz-adv-x="532" 
d="M482 157l-35 -157h-436l6 39l34 9q17 4 19 17l44 336q2 13 -15 17l-31 9l-3 39h448l-21 -160h-61l-8 58q-5 40 -31 51t-108 11h-49l-22 -174h25q53 0 67 26l26 52h45l-43 -187h-44l-2 47q-1 16 -12 21.5t-45 5.5h-22l-23 -177h49q81 0 112 11.5t48 50.5l22 55h66z
M452 515h-46l-86 120h-2l-118 -120h-46l114 182h118z" />
    <glyph glyph-name="edieresis.smallcap" horiz-adv-x="532" 
d="M482 157l-35 -157h-436l6 39l34 9q17 4 19 17l44 336q2 13 -15 17l-31 9l-3 39h448l-21 -160h-61l-8 58q-5 40 -31 51t-108 11h-49l-22 -174h25q53 0 67 26l26 52h45l-43 -187h-44l-2 47q-1 16 -12 21.5t-45 5.5h-22l-23 -177h49q81 0 112 11.5t48 50.5l22 55h66z
M486 606q0 -29 -17.5 -49t-47.5 -20t-47.5 20t-17.5 49t17.5 49.5t47.5 20.5t47.5 -20.5t17.5 -49.5zM272 606q0 -29 -17.5 -49t-47.5 -20t-48 20t-18 49t18 49.5t48 20.5t47.5 -20.5t17.5 -49.5z" />
    <glyph glyph-name="emacron.smallcap" horiz-adv-x="532" 
d="M482 157l-35 -157h-436l6 39l34 9q17 4 19 17l44 336q2 13 -15 17l-31 9l-3 39h448l-21 -160h-61l-8 58q-5 40 -31 51t-108 11h-49l-22 -174h25q53 0 67 26l26 52h45l-43 -187h-44l-2 47q-1 16 -12 21.5t-45 5.5h-22l-23 -177h49q81 0 112 11.5t48 50.5l22 55h66z
M462 546h-297l12 58h284z" />
    <glyph glyph-name="ebreve.smallcap" horiz-adv-x="532" 
d="M482 157l-35 -157h-436l6 39l34 9q17 4 19 17l44 336q2 13 -15 17l-31 9l-3 39h448l-21 -160h-61l-8 58q-5 40 -31 51t-108 11h-49l-22 -174h25q53 0 67 26l26 52h45l-43 -187h-44l-2 47q-1 16 -12 21.5t-45 5.5h-22l-23 -177h49q81 0 112 11.5t48 50.5l22 55h66z
M473 697q-50 -187 -176 -187q-65 0 -93 49t-32 138h44q14 -58 33.5 -89t55.5 -31t65 31.5t60 88.5h43z" />
    <glyph glyph-name="edotaccent.smallcap" horiz-adv-x="532" 
d="M482 157l-35 -157h-436l6 39l34 9q17 4 19 17l44 336q2 13 -15 17l-31 9l-3 39h448l-21 -160h-61l-8 58q-5 40 -31 51t-108 11h-49l-22 -174h25q53 0 67 26l26 52h45l-43 -187h-44l-2 47q-1 16 -12 21.5t-45 5.5h-22l-23 -177h49q81 0 112 11.5t48 50.5l22 55h66z
M381 611q0 -30 -18.5 -50.5t-49.5 -20.5q-30 0 -48 20.5t-18 50.5t18 51t48 21q31 0 49.5 -21t18.5 -51z" />
    <glyph glyph-name="eogonek.smallcap" horiz-adv-x="532" 
d="M325 -220q-45 5 -67 32.5t-13 70.5q15 67 114 117h-348l6 39l34 9q17 4 19 17l44 336q2 13 -14 17l-32 9l-3 39h448l-21 -160h-61l-8 58q-5 40 -31 51t-108 11h-49l-22 -174h25q53 0 67 26l26 52h45l-43 -187h-44l-2 47q-1 16 -12 21.5t-45 5.5h-22l-23 -177h49
q81 0 112 11.5t48 50.5l22 55h66l-35 -157h-33q-65 -47 -74 -98q-5 -24 4.5 -41.5t31.5 -19.5q31 -3 57 15l7 -13q-10 -29 -42 -48t-73 -15z" />
    <glyph glyph-name="ecaron.smallcap" horiz-adv-x="532" 
d="M480 697l-113 -182h-119l-64 182h44l86 -120h2l119 120h45zM482 157l-35 -157h-436l6 39l34 9q17 4 19 17l44 336q2 13 -15 17l-31 9l-3 39h448l-21 -160h-61l-8 58q-5 40 -31 51t-108 11h-49l-22 -174h25q53 0 67 26l26 52h45l-43 -187h-44l-2 47q-1 16 -12 21.5
t-45 5.5h-22l-23 -177h49q81 0 112 11.5t48 50.5l22 55h66z" />
    <glyph glyph-name="gcircumflex.smallcap" horiz-adv-x="578" 
d="M468 515h-46l-86 120h-2l-118 -120h-46l114 182h118zM534 214l-4 -39l-37 -9q-17 -3 -20 -18l-12 -91l44 -5l1 -29q-112 -36 -232 -36q-112 0 -175.5 56.5t-63.5 156.5q0 112 82 192q82 84 205 84q71 0 128 -19l74 18l-24 -172h-68l-21 109q-30 23 -80 23
q-77 0 -123 -70.5t-46 -173.5q0 -86 46 -132q30 -31 79 -31q34 0 55 10l14 110q1 14 -18 18l-31 9l-2 39h229z" />
    <glyph glyph-name="gbreve.smallcap" horiz-adv-x="578" 
d="M534 214l-4 -39l-37 -9q-17 -3 -20 -18l-12 -91l44 -5l1 -29q-112 -36 -232 -36q-112 0 -175.5 56.5t-63.5 156.5q0 112 82 192q82 84 205 84q71 0 128 -19l74 18l-24 -172h-68l-21 109q-30 23 -80 23q-77 0 -123 -70.5t-46 -173.5q0 -86 46 -132q30 -31 79 -31
q34 0 55 10l14 110q1 14 -18 18l-31 9l-2 39h229zM496 697q-50 -187 -176 -187q-65 0 -93 49t-32 138h44q14 -58 33.5 -89t55.5 -31t65 31.5t60 88.5h43z" />
    <glyph glyph-name="gdotaccent.smallcap" horiz-adv-x="578" 
d="M534 214l-4 -39l-37 -9q-17 -3 -20 -18l-12 -91l44 -5l1 -29q-112 -36 -232 -36q-112 0 -175.5 56.5t-63.5 156.5q0 112 82 192q82 84 205 84q71 0 128 -19l74 18l-24 -172h-68l-21 109q-30 23 -80 23q-77 0 -123 -70.5t-46 -173.5q0 -86 46 -132q30 -31 79 -31
q34 0 55 10l14 110q1 14 -18 18l-31 9l-2 39h229zM409 611q0 -30 -18.5 -50.5t-49.5 -20.5q-30 0 -48 20.5t-18 50.5t18 51t48 21q31 0 49.5 -21t18.5 -51z" />
    <glyph glyph-name="gcommaaccent.smallcap" horiz-adv-x="578" 
d="M346 -147q-11 -48 -53.5 -81t-103.5 -50l-16 24q77 22 89 75q3 15 -1.5 28.5t-13.5 22t-18.5 14.5t-16 9.5t-6.5 4.5q5 23 26 38t50 12q35 -4 53.5 -32.5t10.5 -64.5zM534 214l-4 -39l-37 -9q-17 -3 -20 -18l-12 -91l44 -5l1 -29q-112 -36 -232 -36q-112 0 -175.5 56.5
t-63.5 156.5q0 112 82 192q82 84 205 84q71 0 128 -19l74 18l-24 -172h-68l-21 109q-30 23 -80 23q-77 0 -123 -70.5t-46 -173.5q0 -86 46 -132q30 -31 79 -31q34 0 55 10l14 110q1 14 -18 18l-31 9l-2 39h229z" />
    <glyph glyph-name="hcircumflex.smallcap" horiz-adv-x="612" 
d="M481 517h-46l-86 120h-2l-118 -120h-46l114 182h118zM545 0h-224l3 39l34 9q18 5 19 17l21 152h-190l-20 -152q-2 -13 14 -17l33 -9l3 -39h-224l3 39l34 9q17 4 19 17l44 336q2 13 -15 17l-31 9l-3 39h223l-2 -39l-35 -9q-17 -4 -19 -17l-19 -144h189l19 144q1 8 -2 11.5
t-12 5.5l-32 9l-3 39h224l-3 -39l-35 -9q-18 -4 -20 -17l-44 -336q-2 -12 16 -17l32 -9z" />
    <glyph glyph-name="hbar.smallcap" horiz-adv-x="612" 
d="M545 0h-224l3 39l34 9q18 5 19 17l21 152h-190l-20 -152q-2 -13 14 -17l33 -9l3 -39h-224l3 39l34 9q17 4 19 17l33 250h-90l11 46h86l4 40q2 13 -14 17l-32 9l-3 39h223l-2 -39l-35 -9q-17 -4 -19 -17l-5 -40h190l4 40q1 8 -2 11.5t-12 5.5l-32 9l-3 39h224l-3 -39
l-35 -9q-18 -4 -20 -17l-4 -40h71l2 -46h-80l-33 -250q-2 -12 16 -17l32 -9zM213 257h189l8 58h-190z" />
    <glyph glyph-name="igrave.smallcap" horiz-adv-x="322" 
d="M254 0h-241l5 39l41 9q17 3 19 17l44 336q2 14 -14 17l-39 9l-4 39h241l-4 -39l-42 -9q-17 -3 -19 -17l-44 -336q-2 -14 15 -17l39 -9zM232 515h-46l-151 182h127z" />
    <glyph glyph-name="iacute.smallcap" horiz-adv-x="322" 
d="M254 0h-241l5 39l41 9q17 3 19 17l44 336q2 14 -14 17l-39 9l-4 39h241l-4 -39l-42 -9q-17 -3 -19 -17l-44 -336q-2 -14 15 -17l39 -9zM395 697l-201 -182h-45l119 182h127z" />
    <glyph glyph-name="icircumflex.smallcap" horiz-adv-x="322" 
d="M254 0h-241l5 39l41 9q17 3 19 17l44 336q2 14 -14 17l-39 9l-4 39h241l-4 -39l-42 -9q-17 -3 -19 -17l-44 -336q-2 -14 15 -17l39 -9zM336 515h-46l-86 120h-2l-118 -120h-46l114 182h118z" />
    <glyph glyph-name="idieresis.smallcap" horiz-adv-x="322" 
d="M254 0h-241l5 39l41 9q17 3 19 17l44 336q2 14 -14 17l-39 9l-4 39h241l-4 -39l-42 -9q-17 -3 -19 -17l-44 -336q-2 -14 15 -17l39 -9zM370 606q0 -29 -17.5 -49t-47.5 -20t-47.5 20t-17.5 49t17.5 49.5t47.5 20.5t47.5 -20.5t17.5 -49.5zM156 606q0 -29 -17.5 -49
t-47.5 -20t-48 20t-18 49t18 49.5t48 20.5t47.5 -20.5t17.5 -49.5z" />
    <glyph glyph-name="imacron.smallcap" horiz-adv-x="322" 
d="M254 0h-241l5 39l41 9q17 3 19 17l44 336q2 14 -14 17l-39 9l-4 39h241l-4 -39l-42 -9q-17 -3 -19 -17l-44 -336q-2 -14 15 -17l39 -9zM348 546h-297l12 58h284z" />
    <glyph glyph-name="ibreve.smallcap" horiz-adv-x="322" 
d="M254 0h-241l5 39l41 9q17 3 19 17l44 336q2 14 -14 17l-39 9l-4 39h241l-4 -39l-42 -9q-17 -3 -19 -17l-44 -336q-2 -14 15 -17l39 -9zM361 697q-50 -187 -176 -187q-65 0 -93 49t-32 138h44q14 -58 33.5 -89t55.5 -31t65 31.5t60 88.5h43z" />
    <glyph glyph-name="iogonek.smallcap" horiz-adv-x="322" 
d="M118 -220q-44 5 -66 32.5t-13 70.5q14 69 117 117h-142l4 39l42 9q17 3 19 17l44 336q2 14 -15 17l-39 9l-3 39h240l-4 -39l-42 -9q-17 -3 -19 -17l-44 -336q-2 -14 15 -17l39 -9l3 -39q-44 -6 -80 -35.5t-41 -62.5q-4 -24 5.5 -41.5t31.5 -19.5q32 -3 56 15l8 -13
q-10 -29 -42.5 -48t-73.5 -15z" />
    <glyph glyph-name="idotaccent.smallcap" horiz-adv-x="322" 
d="M254 0h-241l5 39l41 9q17 3 19 17l44 336q2 14 -14 17l-39 9l-4 39h241l-4 -39l-42 -9q-17 -3 -19 -17l-44 -336q-2 -14 15 -17l39 -9zM283 611q0 -30 -18.5 -50.5t-49.5 -20.5q-30 0 -48 20.5t-18 50.5t18 51t48 21q31 0 49.5 -21t18.5 -51z" />
    <glyph glyph-name="dotlessi.smallcap" horiz-adv-x="322" 
d="M254 0h-241l5 39l41 9q17 3 19 17l44 336q2 14 -14 17l-39 9l-4 39h241l-4 -39l-42 -9q-17 -3 -19 -17l-44 -336q-2 -14 15 -17l39 -9z" />
    <glyph glyph-name="jcircumflex.smallcap" horiz-adv-x="377" 
d="M369 466l-3 -39l-37 -9q-18 -4 -20 -17l-24 -186q-30 -229 -208 -229q-44 0 -70 20t-24 50q2 20 16 33.5t35 13.5q32 0 47.5 -21.5t13.5 -57.5h10q22 15 34.5 46.5t20.5 91.5l31 239q2 14 -14 17l-46 9l-3 39h241zM408 515h-46l-86 120h-2l-118 -120h-46l114 182h118z
" />
    <glyph glyph-name="jcircumflex.smallcap.alt" horiz-adv-x="433" 
d="M464 515h-46l-86 120h-2l-118 -120h-46l114 182h118zM429 466l-5 -39l-36 -9q-18 -4 -20 -17l-34 -247q-11 -80 -67.5 -124.5t-124.5 -44.5q-74 0 -115 29t-41 69q0 29 18 48t45 19q22 0 38.5 -13.5t16.5 -33.5q0 -31 -23 -49q21 -27 57 -27q29 0 49.5 27t27.5 80l36 267
q2 14 -14 17l-46 9v39h238z" />
    <glyph glyph-name="dotlessj.smallcap" horiz-adv-x="377" 
d="M369 466l-3 -39l-37 -9q-18 -4 -20 -17l-24 -186q-30 -229 -208 -229q-44 0 -70 20t-24 50q2 20 16 33.5t35 13.5q32 0 47.5 -21.5t13.5 -57.5h10q22 15 34.5 46.5t20.5 91.5l31 239q2 14 -14 17l-46 9l-3 39h241z" />
    <glyph glyph-name="kcommaaccent.smallcap" horiz-adv-x="565" 
d="M333 -149q-11 -48 -53.5 -81t-103.5 -50l-16 24q77 22 89 75q3 15 -1.5 28.5t-13.5 22t-18.5 14.5t-16 9.5t-6.5 4.5q5 23 26 38t50 12q35 -4 53.5 -32.5t10.5 -64.5zM535 0h-222l2 39l19 6q16 4 5 27q-80 148 -81 148l-56 -47l-14 -108q-2 -13 14 -17l33 -9l3 -39h-224
l3 39l34 9q17 4 19 17l44 336q2 13 -15 17l-31 9l-3 39h224l-3 -39l-35 -9q-17 -4 -19 -17l-23 -176l130 114q53 48 54 65q2 17 -19 21l-16 4l-3 37h210l-3 -39l-32 -6q-47 -11 -124 -77l-58 -49l125 -220q12 -20 41 -30l18 -6z" />
    <glyph glyph-name="lacute.smallcap" horiz-adv-x="489" 
d="M389 679l-201 -182h-45l119 182h127zM445 168l-38 -168h-393l3 39l34 9q17 4 19 17l44 336q2 13 -15 17l-31 9l-3 39h232l-3 -39l-43 -9q-17 -3 -19 -17l-47 -360h17q79 0 108.5 13.5t47.5 54.5l24 59h63z" />
    <glyph glyph-name="lcommaaccent.smallcap" horiz-adv-x="489" 
d="M289 -149q-11 -48 -53.5 -81t-103.5 -50l-16 24q77 22 89 75q3 15 -1.5 28.5t-13.5 22t-18.5 14.5t-16 9.5t-6.5 4.5q5 23 26 38t50 12q35 -4 53.5 -32.5t10.5 -64.5zM445 168l-38 -168h-393l3 39l34 9q17 4 19 17l44 336q2 13 -15 17l-31 9l-3 39h232l-3 -39l-43 -9
q-17 -3 -19 -17l-47 -360h17q79 0 108.5 13.5t47.5 54.5l24 59h63z" />
    <glyph glyph-name="lcaron.smallcap" horiz-adv-x="663" 
d="M697 373q0 -59 -53 -113t-135 -96l-25 24q48 27 79.5 62.5t31.5 70.5q0 16 -7 30.5t-17.5 24.5t-20.5 17.5t-17 11.5l-7 4q0 25 23 44.5t54 19.5q40 0 67 -29.5t27 -70.5zM445 168l-38 -168h-393l3 39l34 9q17 4 19 17l44 336q2 13 -15 17l-31 9l-3 39h232l-3 -39l-43 -9
q-17 -3 -19 -17l-47 -360h17q79 0 108.5 13.5t47.5 54.5l24 59h63z" />
    <glyph glyph-name="ldotaccent.smallcap" horiz-adv-x="629" 
d="M654 257q0 -31 -22.5 -54t-54.5 -23q-33 0 -55.5 22.5t-22.5 54.5t22.5 54.5t55.5 22.5t55 -22.5t22 -54.5zM445 168l-38 -168h-393l3 39l34 9q17 4 19 17l44 336q2 13 -15 17l-31 9l-3 39h232l-3 -39l-43 -9q-17 -3 -19 -17l-47 -360h17q79 0 108.5 13.5t47.5 54.5
l24 59h63z" />
    <glyph glyph-name="lslash.smallcap" horiz-adv-x="499" 
d="M217 209l-22 -168h17q79 0 108.5 13.5t47.5 54.5l24 59h63l-38 -168h-393l3 39l34 9q17 4 19 17q1 7 2.5 18.5t4.5 36t5 40.5l2 16l-57 -16l1 49l63 17l23 175q2 13 -15 17l-31 9l-3 39h232l-3 -39l-43 -9q-17 -3 -19 -17l-18 -142l90 25v-48z" />
    <glyph glyph-name="ntilde.smallcap" horiz-adv-x="597" 
d="M591 466l-3 -39l-34 -8q-17 -4 -26 -30t-21 -113l-38 -281h-106l-196 357h-13l-20 -162q-10 -89 -8 -114t18 -29l38 -8l3 -39h-179l3 39l33 8q18 5 27.5 30t20.5 113l25 191q3 28 -17 36l-30 10l-4 39h179l188 -343h13l19 153q11 89 9 114t-19 29l-37 8l-3 39h178z
M517 658q-32 -135 -121 -135q-33 0 -81.5 35.5t-64.5 35.5q-15 0 -25 -13t-28 -49h-43q31 135 120 135q33 0 80.5 -35t63.5 -35q15 0 27.5 13.5t29.5 47.5h42z" />
    <glyph glyph-name="nacute.smallcap" horiz-adv-x="597" 
d="M542 697l-201 -182h-45l119 182h127zM591 466l-3 -39l-34 -8q-17 -4 -26 -30t-21 -113l-38 -281h-106l-196 357h-13l-20 -162q-10 -89 -8 -114t18 -29l38 -8l3 -39h-179l3 39l33 8q18 5 27.5 30t20.5 113l25 191q3 28 -17 36l-30 10l-4 39h179l188 -343h13l19 153
q11 89 9 114t-19 29l-37 8l-3 39h178z" />
    <glyph glyph-name="ncommaaccent.smallcap" horiz-adv-x="597" 
d="M325 -149q-11 -48 -53.5 -81t-103.5 -50l-16 24q77 22 89 75q3 15 -1.5 28.5t-13.5 22t-18.5 14.5t-16 9.5t-6.5 4.5q5 23 26 38t50 12q35 -4 53.5 -32.5t10.5 -64.5zM591 466l-3 -39l-34 -8q-17 -4 -26 -30t-21 -113l-38 -281h-106l-196 357h-13l-20 -162
q-10 -89 -8 -114t18 -29l38 -8l3 -39h-179l3 39l33 8q18 5 27.5 30t20.5 113l25 191q3 28 -17 36l-30 10l-4 39h179l188 -343h13l19 153q11 89 9 114t-19 29l-37 8l-3 39h178z" />
    <glyph glyph-name="ncaron.smallcap" horiz-adv-x="597" 
d="M514 697l-113 -182h-119l-64 182h44l86 -120h2l119 120h45zM591 466l-3 -39l-34 -8q-17 -4 -26 -30t-21 -113l-38 -281h-106l-196 357h-13l-20 -162q-10 -89 -8 -114t18 -29l38 -8l3 -39h-179l3 39l33 8q18 5 27.5 30t20.5 113l25 191q3 28 -17 36l-30 10l-4 39h179
l188 -343h13l19 153q11 89 9 114t-19 29l-37 8l-3 39h178z" />
    <glyph glyph-name="ograve.smallcap" horiz-adv-x="564" 
d="M528 262q0 -118 -87 -203q-75 -73 -179 -73q-97 0 -161.5 61.5t-64.5 154.5q0 119 75 194q80 82 191 82q97 0 161.5 -61.5t64.5 -154.5zM402 288q0 85 -34 119q-21 26 -65 26q-37 0 -66.5 -27.5t-45 -69.5t-23 -83.5t-7.5 -78.5q0 -84 35 -120q22 -24 65 -24
q37 0 66 27.5t44.5 69.5t23 83t7.5 78zM358 515h-46l-151 182h127z" />
    <glyph glyph-name="oacute.smallcap" horiz-adv-x="564" 
d="M528 262q0 -118 -87 -203q-75 -73 -179 -73q-97 0 -161.5 61.5t-64.5 154.5q0 119 75 194q80 82 191 82q97 0 161.5 -61.5t64.5 -154.5zM402 288q0 85 -34 119q-21 26 -65 26q-37 0 -66.5 -27.5t-45 -69.5t-23 -83.5t-7.5 -78.5q0 -84 35 -120q22 -24 65 -24
q37 0 66 27.5t44.5 69.5t23 83t7.5 78zM516 697l-201 -182h-45l119 182h127z" />
    <glyph glyph-name="ocircumflex.smallcap" horiz-adv-x="564" 
d="M528 262q0 -118 -87 -203q-75 -73 -179 -73q-97 0 -161.5 61.5t-64.5 154.5q0 119 75 194q80 82 191 82q97 0 161.5 -61.5t64.5 -154.5zM402 288q0 85 -34 119q-21 26 -65 26q-37 0 -66.5 -27.5t-45 -69.5t-23 -83.5t-7.5 -78.5q0 -84 35 -120q22 -24 65 -24
q37 0 66 27.5t44.5 69.5t23 83t7.5 78zM458 515h-46l-86 120h-2l-118 -120h-46l114 182h118z" />
    <glyph glyph-name="otilde.smallcap" horiz-adv-x="564" 
d="M528 262q0 -118 -87 -203q-75 -73 -179 -73q-97 0 -161.5 61.5t-64.5 154.5q0 119 75 194q80 82 191 82q97 0 161.5 -61.5t64.5 -154.5zM402 288q0 85 -34 119q-21 26 -65 26q-37 0 -66.5 -27.5t-45 -69.5t-23 -83.5t-7.5 -78.5q0 -84 35 -120q22 -24 65 -24
q37 0 66 27.5t44.5 69.5t23 83t7.5 78zM506 658q-32 -135 -121 -135q-33 0 -81.5 35.5t-64.5 35.5q-15 0 -25 -13t-28 -49h-43q31 135 120 135q33 0 80.5 -35t63.5 -35q15 0 27.5 13.5t29.5 47.5h42z" />
    <glyph glyph-name="odieresis.smallcap" horiz-adv-x="564" 
d="M528 262q0 -118 -87 -203q-75 -73 -179 -73q-97 0 -161.5 61.5t-64.5 154.5q0 119 75 194q80 82 191 82q97 0 161.5 -61.5t64.5 -154.5zM402 288q0 85 -34 119q-21 26 -65 26q-37 0 -66.5 -27.5t-45 -69.5t-23 -83.5t-7.5 -78.5q0 -84 35 -120q22 -24 65 -24
q37 0 66 27.5t44.5 69.5t23 83t7.5 78zM507 606q0 -29 -17.5 -49t-47.5 -20t-47.5 20t-17.5 49t17.5 49.5t47.5 20.5t47.5 -20.5t17.5 -49.5zM293 606q0 -29 -17.5 -49t-47.5 -20t-48 20t-18 49t18 49.5t48 20.5t47.5 -20.5t17.5 -49.5z" />
    <glyph glyph-name="omacron.smallcap" horiz-adv-x="564" 
d="M471 546h-297l12 58h284zM528 262q0 -118 -87 -203q-75 -73 -179 -73q-97 0 -161.5 61.5t-64.5 154.5q0 119 75 194q80 82 191 82q97 0 161.5 -61.5t64.5 -154.5zM402 288q0 85 -34 119q-21 26 -65 26q-37 0 -66.5 -27.5t-45 -69.5t-23 -83.5t-7.5 -78.5q0 -84 35 -120
q22 -24 65 -24q37 0 66 27.5t44.5 69.5t23 83t7.5 78z" />
    <glyph glyph-name="obreve.smallcap" horiz-adv-x="564" 
d="M528 262q0 -118 -87 -203q-75 -73 -179 -73q-97 0 -161.5 61.5t-64.5 154.5q0 119 75 194q80 82 191 82q97 0 161.5 -61.5t64.5 -154.5zM402 288q0 85 -34 119q-21 26 -65 26q-37 0 -66.5 -27.5t-45 -69.5t-23 -83.5t-7.5 -78.5q0 -84 35 -120q22 -24 65 -24
q37 0 66 27.5t44.5 69.5t23 83t7.5 78zM488 697q-50 -187 -176 -187q-65 0 -93 49t-32 138h44q14 -58 33.5 -89t55.5 -31t65 31.5t60 88.5h43z" />
    <glyph glyph-name="ohungarumlaut.smallcap" horiz-adv-x="564" 
d="M589 697l-194 -182h-41l116 182h119zM413 697l-194 -182h-42l117 182h119zM528 262q0 -118 -87 -203q-75 -73 -179 -73q-97 0 -161.5 61.5t-64.5 154.5q0 119 75 194q80 82 191 82q97 0 161.5 -61.5t64.5 -154.5zM402 288q0 85 -34 119q-21 26 -65 26q-37 0 -66.5 -27.5
t-45 -69.5t-23 -83.5t-7.5 -78.5q0 -84 35 -120q22 -24 65 -24q37 0 66 27.5t44.5 69.5t23 83t7.5 78z" />
    <glyph glyph-name="oslash.smallcap" horiz-adv-x="560" 
d="M117 33q-81 63 -81 169q0 119 75 194q80 82 191 82q63 0 114 -28l45 63h45q-59 -82 -59 -83q81 -63 81 -168q0 -118 -87 -203q-75 -73 -179 -73q-61 0 -113 27l-49 -68h-46zM169 106l208 290l-9 11q-21 26 -65 26q-37 0 -66.5 -27.5t-45 -69.5t-23 -83.5t-7.5 -78.5
q0 -34 8 -68zM394 356l-207 -290l9 -12q22 -24 65 -24q37 0 66 27.5t44.5 69.5t23 83t7.5 78q0 40 -8 68z" />
    <glyph glyph-name="oslashacute.smallcap" horiz-adv-x="560" 
d="M117 33q-81 63 -81 169q0 119 75 194q80 82 191 82q63 0 114 -28l45 63h45q-59 -82 -59 -83q81 -63 81 -168q0 -118 -87 -203q-75 -73 -179 -73q-61 0 -113 27l-49 -68h-46zM169 106l208 290l-9 11q-21 26 -65 26q-37 0 -66.5 -27.5t-45 -69.5t-23 -83.5t-7.5 -78.5
q0 -34 8 -68zM394 356l-207 -290l9 -12q22 -24 65 -24q37 0 66 27.5t44.5 69.5t23 83t7.5 78q0 40 -8 68zM509 697l-201 -182h-45l119 182h127z" />
    <glyph glyph-name="oe.smallcap" horiz-adv-x="807" 
d="M285 0q-115 -1 -182.5 57.5t-66.5 151.5q0 97 78 175q84 82 235 82h439l-21 -160h-61l-8 58q-5 40 -31 51t-108 11h-51l-23 -174h28q53 0 67 26l26 52h45l-43 -187h-44l-2 47q-1 16 -12 21.5t-45 5.5h-24l-23 -177h51q81 0 112 11.5t48 50.5l22 55h66l-35 -157h-437z
M165 209q1 -77 40 -123t107 -46h27l49 371l-52 14q-76 2 -123.5 -58.5t-47.5 -157.5z" />
    <glyph glyph-name="thorn.smallcap" horiz-adv-x="514" 
d="M485 252q0 -52 -35 -89.5t-84 -53.5t-104 -15q-41 0 -67 4l-3 -33q-2 -14 15 -17l43 -9v-39h-239l6 39l38 9q17 3 19 17l44 336q2 13 -15 17l-35 9l-3 39h236l-3 -40l-42 -8q-18 -3 -20 -17l-2 -16h57q96 0 145 -36t49 -97zM356 248q0 44 -26.5 72t-72.5 28h-29l-27 -210
q20 -5 53 -5q43 -1 72.5 32.5t29.5 82.5z" />
    <glyph glyph-name="racute.smallcap" horiz-adv-x="543" 
d="M476 697l-201 -182h-45l119 182h127zM508 0h-164l-29 69l-58 125l-52 3l-17 -132q-2 -13 14 -17l33 -9l3 -39h-224l3 39l34 9q17 4 19 17l44 336q2 13 -15 17l-31 9l-3 39h244q95 0 143 -35t48 -88q0 -101 -131 -139l72 -126q15 -30 47 -35l17 -4zM371 334
q0 44 -26.5 69.5t-70.5 25.5h-39l-25 -190l64 -9q40 4 68.5 30t28.5 74z" />
    <glyph glyph-name="rcommaaccent.smallcap" horiz-adv-x="543" 
d="M333 -149q-11 -48 -53.5 -81t-103.5 -50l-16 24q77 22 89 75q3 15 -1.5 28.5t-13.5 22t-18.5 14.5t-16 9.5t-6.5 4.5q5 23 26 38t50 12q35 -4 53.5 -32.5t10.5 -64.5zM508 0h-164l-29 69l-58 125l-52 3l-17 -132q-2 -13 14 -17l33 -9l3 -39h-224l3 39l34 9q17 4 19 17
l44 336q2 13 -15 17l-31 9l-3 39h244q95 0 143 -35t48 -88q0 -101 -131 -139l72 -126q15 -30 47 -35l17 -4zM371 334q0 44 -26.5 69.5t-70.5 25.5h-39l-25 -190l64 -9q40 4 68.5 30t28.5 74z" />
    <glyph glyph-name="rcaron.smallcap" horiz-adv-x="543" 
d="M465 697l-113 -182h-119l-64 182h44l86 -120h2l119 120h45zM508 0h-164l-29 69l-58 125l-52 3l-17 -132q-2 -13 14 -17l33 -9l3 -39h-224l3 39l34 9q17 4 19 17l44 336q2 13 -15 17l-31 9l-3 39h244q95 0 143 -35t48 -88q0 -101 -131 -139l72 -126q15 -30 47 -35l17 -4z
M371 334q0 44 -26.5 69.5t-70.5 25.5h-39l-25 -190l64 -9q40 4 68.5 30t28.5 74z" />
    <glyph glyph-name="sacute.smallcap" horiz-adv-x="462" 
d="M440 697l-201 -182h-45l119 182h127zM400 139q0 -66 -54 -108.5t-144 -42.5q-89 0 -175 22l16 149h62l24 -114q36 -13 73 -13q44 0 68.5 20t24.5 51q0 28 -23 46.5t-76 43.5q-30 15 -47 25t-39 28t-32.5 40.5t-10.5 50.5q0 60 52 99t141 40q53 0 130 -15l44 11l-21 -156
h-57l-25 104q-42 14 -78 14q-39 0 -60 -16.5t-21 -42.5q0 -30 23.5 -50t81.5 -48q28 -14 45 -24.5t37.5 -28t30.5 -38.5t10 -47z" />
    <glyph glyph-name="scircumflex.smallcap" horiz-adv-x="462" 
d="M405 515h-46l-86 120h-2l-118 -120h-46l114 182h118zM400 139q0 -66 -54 -108.5t-144 -42.5q-89 0 -175 22l16 149h62l24 -114q36 -13 73 -13q44 0 68.5 20t24.5 51q0 28 -23 46.5t-76 43.5q-30 15 -47 25t-39 28t-32.5 40.5t-10.5 50.5q0 60 52 99t141 40q53 0 130 -15
l44 11l-21 -156h-57l-25 104q-42 14 -78 14q-39 0 -60 -16.5t-21 -42.5q0 -30 23.5 -50t81.5 -48q28 -14 45 -24.5t37.5 -28t30.5 -38.5t10 -47z" />
    <glyph glyph-name="scedilla.smallcap" horiz-adv-x="462" 
d="M54 -275l-6 27q81 10 124.5 32t43.5 53q0 48 -77 48q-36 0 -70 -7l3 24l94 87q-66 2 -139 21l16 149h62l24 -114q36 -13 73 -13q44 0 68.5 20t24.5 51q0 28 -23 46.5t-76 43.5q-30 15 -47 25t-39 28t-32.5 40.5t-10.5 50.5q0 60 52 99t141 40q53 0 130 -15l44 11
l-21 -156h-57l-25 104q-42 14 -78 14q-39 0 -60 -16.5t-21 -42.5q0 -30 23.5 -50t81.5 -48q28 -14 45 -24.5t37.5 -28t30.5 -38.5t10 -47q0 -64 -50.5 -105.5t-134.5 -45.5l-48 -42q59 -2 93 -24.5t34 -61.5q0 -56 -66.5 -93t-173.5 -42z" />
    <glyph glyph-name="scommaaccent.smallcap" horiz-adv-x="462" 
d="M268 -149q-11 -48 -53.5 -81t-103.5 -50l-16 24q77 22 89 75q3 15 -1.5 28.5t-13.5 22t-18.5 14.5t-16 9.5t-6.5 4.5q5 23 26 38t50 12q35 -4 53.5 -32.5t10.5 -64.5zM400 139q0 -66 -54 -108.5t-144 -42.5q-89 0 -175 22l16 149h62l24 -114q36 -13 73 -13q44 0 68.5 20
t24.5 51q0 28 -23 46.5t-76 43.5q-30 15 -47 25t-39 28t-32.5 40.5t-10.5 50.5q0 60 52 99t141 40q53 0 130 -15l44 11l-21 -156h-57l-25 104q-42 14 -78 14q-39 0 -60 -16.5t-21 -42.5q0 -30 23.5 -50t81.5 -48q28 -14 45 -24.5t37.5 -28t30.5 -38.5t10 -47z" />
    <glyph glyph-name="scaron.smallcap" horiz-adv-x="462" 
d="M400 139q0 -66 -54 -108.5t-144 -42.5q-89 0 -175 22l16 149h62l24 -114q36 -13 73 -13q44 0 68.5 20t24.5 51q0 28 -23 46.5t-76 43.5q-30 15 -47 25t-39 28t-32.5 40.5t-10.5 50.5q0 60 52 99t141 40q53 0 130 -15l44 11l-21 -156h-57l-25 104q-42 14 -78 14
q-39 0 -60 -16.5t-21 -42.5q0 -30 23.5 -50t81.5 -48q28 -14 45 -24.5t37.5 -28t30.5 -38.5t10 -47zM430 697l-113 -182h-119l-64 182h44l86 -120h2l119 120h45z" />
    <glyph glyph-name="tcommaaccent.smallcap" horiz-adv-x="535" 
d="M301 -149q-11 -48 -53.5 -81t-103.5 -50l-16 24q77 22 89 75q3 15 -1.5 28.5t-13.5 22t-18.5 14.5t-16 9.5t-6.5 4.5q5 23 26 38t50 12q35 -4 53.5 -32.5t10.5 -64.5zM515 299h-61l-7 61q-5 40 -22 52.5t-60 12.5h-13l-48 -360q-2 -13 15 -17l41 -9l3 -39h-241l3 39l42 9
q17 4 19 17l48 360h-11q-44 0 -65 -12.5t-36 -50.5l-25 -63h-64l35 167h468z" />
    <glyph glyph-name="tcaron.smallcap" horiz-adv-x="535" 
d="M473 697l-113 -182h-118l-65 182h44l87 -120h2l118 120h45zM515 299h-61l-7 61q-5 40 -22 52.5t-60 12.5h-13l-48 -360q-2 -13 15 -17l41 -9l3 -39h-241l3 39l42 9q17 4 19 17l48 360h-11q-44 0 -65 -12.5t-36 -50.5l-25 -63h-64l35 167h468z" />
    <glyph glyph-name="ugrave.smallcap" horiz-adv-x="569" 
d="M573 466l-3 -39l-34 -8q-13 -3 -19 -11t-13 -38t-16 -95l-17 -122q-11 -80 -62 -124.5t-138 -44.5q-92 0 -145 40.5t-53 113.5q0 9 2 31l32 232q2 13 -14 17l-32 9l-3 39h225l-3 -39l-36 -9q-17 -4 -19 -17l-29 -215q-4 -26 -4 -41q0 -105 114 -105q107 0 124 128l15 108
q11 89 9 114t-19 29l-37 8l-3 39h178zM376 515h-46l-151 182h127z" />
    <glyph glyph-name="uacute.smallcap" horiz-adv-x="569" 
d="M573 466l-3 -39l-34 -8q-13 -3 -19 -11t-13 -38t-16 -95l-17 -122q-11 -80 -62 -124.5t-138 -44.5q-92 0 -145 40.5t-53 113.5q0 9 2 31l32 232q2 13 -14 17l-32 9l-3 39h225l-3 -39l-36 -9q-17 -4 -19 -17l-29 -215q-4 -26 -4 -41q0 -105 114 -105q107 0 124 128l15 108
q11 89 9 114t-19 29l-37 8l-3 39h178zM542 697l-201 -182h-45l119 182h127z" />
    <glyph glyph-name="ucircumflex.smallcap" horiz-adv-x="569" 
d="M573 466l-3 -39l-34 -8q-13 -3 -19 -11t-13 -38t-16 -95l-17 -122q-11 -80 -62 -124.5t-138 -44.5q-92 0 -145 40.5t-53 113.5q0 9 2 31l32 232q2 13 -14 17l-32 9l-3 39h225l-3 -39l-36 -9q-17 -4 -19 -17l-29 -215q-4 -26 -4 -41q0 -105 114 -105q107 0 124 128l15 108
q11 89 9 114t-19 29l-37 8l-3 39h178zM471 515h-46l-86 120h-2l-118 -120h-46l114 182h118z" />
    <glyph glyph-name="udieresis.smallcap" horiz-adv-x="569" 
d="M573 466l-3 -39l-34 -8q-13 -3 -19 -11t-13 -38t-16 -95l-17 -122q-11 -80 -62 -124.5t-138 -44.5q-92 0 -145 40.5t-53 113.5q0 9 2 31l32 232q2 13 -14 17l-32 9l-3 39h225l-3 -39l-36 -9q-17 -4 -19 -17l-29 -215q-4 -26 -4 -41q0 -105 114 -105q107 0 124 128l15 108
q11 89 9 114t-19 29l-37 8l-3 39h178zM510 606q0 -29 -17.5 -49t-47.5 -20t-47.5 20t-17.5 49t17.5 49.5t47.5 20.5t47.5 -20.5t17.5 -49.5zM296 606q0 -29 -17.5 -49t-47.5 -20t-48 20t-18 49t18 49.5t48 20.5t47.5 -20.5t17.5 -49.5z" />
    <glyph glyph-name="umacron.smallcap" horiz-adv-x="569" 
d="M573 466l-3 -39l-34 -8q-13 -3 -19 -11t-13 -38t-16 -95l-17 -122q-11 -80 -62 -124.5t-138 -44.5q-92 0 -145 40.5t-53 113.5q0 9 2 31l32 232q2 13 -14 17l-32 9l-3 39h225l-3 -39l-36 -9q-17 -4 -19 -17l-29 -215q-4 -26 -4 -41q0 -105 114 -105q107 0 124 128l15 108
q11 89 9 114t-19 29l-37 8l-3 39h178zM489 546h-297l12 58h284z" />
    <glyph glyph-name="ubreve.smallcap" horiz-adv-x="569" 
d="M573 466l-3 -39l-34 -8q-13 -3 -19 -11t-13 -38t-16 -95l-17 -122q-11 -80 -62 -124.5t-138 -44.5q-92 0 -145 40.5t-53 113.5q0 9 2 31l32 232q2 13 -14 17l-32 9l-3 39h225l-3 -39l-36 -9q-17 -4 -19 -17l-29 -215q-4 -26 -4 -41q0 -105 114 -105q107 0 124 128l15 108
q11 89 9 114t-19 29l-37 8l-3 39h178zM509 697q-50 -187 -176 -187q-65 0 -93 49t-32 138h44q14 -58 33.5 -89t55.5 -31t65 31.5t60 88.5h43z" />
    <glyph glyph-name="uring.smallcap" horiz-adv-x="569" 
d="M445 613q0 -42 -27 -71t-71 -29q-45 0 -72.5 29t-26.5 71t28 71t71 29t71 -29t27 -71zM411 613q0 28 -17.5 48t-46.5 20t-46.5 -20t-17.5 -48t17.5 -47.5t46.5 -19.5t46.5 19.5t17.5 47.5zM573 466l-3 -39l-34 -8q-13 -3 -19 -11t-13 -38t-16 -95l-17 -122
q-11 -80 -62 -124.5t-138 -44.5q-92 0 -145 40.5t-53 113.5q0 9 2 31l32 232q2 13 -14 17l-32 9l-3 39h225l-3 -39l-36 -9q-17 -4 -19 -17l-29 -215q-4 -26 -4 -41q0 -105 114 -105q107 0 124 128l15 108q11 89 9 114t-19 29l-37 8l-3 39h178z" />
    <glyph glyph-name="uhungarumlaut.smallcap" horiz-adv-x="569" 
d="M573 466l-3 -39l-34 -8q-13 -3 -19 -11t-13 -38t-16 -95l-17 -122q-11 -80 -62 -124.5t-138 -44.5q-92 0 -145 40.5t-53 113.5q0 9 2 31l32 232q2 13 -14 17l-32 9l-3 39h225l-3 -39l-36 -9q-17 -4 -19 -17l-29 -215q-4 -26 -4 -41q0 -105 114 -105q107 0 124 128l15 108
q11 89 9 114t-19 29l-37 8l-3 39h178zM616 697l-194 -182h-41l116 182h119zM440 697l-194 -182h-42l117 182h119z" />
    <glyph glyph-name="uogonek.smallcap" horiz-adv-x="569" 
d="M266 -220q-44 5 -66 32.5t-13 70.5q11 58 89 101h-5q-92 0 -144.5 40.5t-52.5 113.5q0 20 2 31l32 232q2 13 -15 17l-31 9l-4 39h225l-3 -39l-36 -9q-17 -4 -19 -17l-29 -215q-4 -26 -4 -40q0 -53 30 -79.5t84 -26.5q107 0 124 128l15 108q11 89 9 114t-19 29l-37 8
l-3 39h178l-3 -39l-34 -8q-13 -3 -19 -11t-13 -38t-16 -95l-17 -122q-14 -106 -112 -158q-31 -16 -51.5 -42t-26.5 -51q-5 -24 5 -41.5t32 -19.5q32 -3 56 15l8 -13q-10 -29 -42.5 -48t-73.5 -15z" />
    <glyph glyph-name="wcircumflex.smallcap" horiz-adv-x="775" 
d="M583 515h-46l-86 120h-2l-118 -120h-46l114 182h118zM810 466l-3 -40l-17 -4q-28 -8 -49.5 -31.5t-60.5 -105.5l-138 -285h-101l-46 282h-12l-132 -282h-102l-78 392q-4 21 -36 29l-22 5l-3 40h244l-3 -40l-25 -4q-24 -4 -28 -17.5t3 -54.5l44 -251h12l116 254l-7 39
q-2 21 -37 29l-21 5l-3 40h245l-3 -40l-24 -4q-22 -4 -26.5 -18.5t1.5 -53.5l39 -251h12l93 208q30 68 30.5 89t-24.5 26l-19 4l-3 40h184z" />
    <glyph glyph-name="wgrave.smallcap" horiz-adv-x="775" 
d="M810 466l-3 -40l-17 -4q-28 -8 -49.5 -31.5t-60.5 -105.5l-138 -285h-101l-46 282h-12l-132 -282h-102l-78 392q-4 21 -36 29l-22 5l-3 40h244l-3 -40l-25 -4q-24 -4 -28 -17.5t3 -54.5l44 -251h12l116 254l-7 39q-2 21 -37 29l-21 5l-3 40h245l-3 -40l-24 -4
q-22 -4 -26.5 -18.5t1.5 -53.5l39 -251h12l93 208q30 68 30.5 89t-24.5 26l-19 4l-3 40h184zM489 515h-46l-151 182h127z" />
    <glyph glyph-name="wacute.smallcap" horiz-adv-x="775" 
d="M628 697l-201 -182h-45l119 182h127zM810 466l-3 -40l-17 -4q-28 -8 -49.5 -31.5t-60.5 -105.5l-138 -285h-101l-46 282h-12l-132 -282h-102l-78 392q-4 21 -36 29l-22 5l-3 40h244l-3 -40l-25 -4q-24 -4 -28 -17.5t3 -54.5l44 -251h12l116 254l-7 39q-2 21 -37 29l-21 5
l-3 40h245l-3 -40l-24 -4q-22 -4 -26.5 -18.5t1.5 -53.5l39 -251h12l93 208q30 68 30.5 89t-24.5 26l-19 4l-3 40h184z" />
    <glyph glyph-name="wdieresis.smallcap" horiz-adv-x="775" 
d="M610 606q0 -29 -17.5 -49t-47.5 -20t-47.5 20t-17.5 49t17.5 49.5t47.5 20.5t47.5 -20.5t17.5 -49.5zM396 606q0 -29 -17.5 -49t-47.5 -20t-48 20t-18 49t18 49.5t48 20.5t47.5 -20.5t17.5 -49.5zM810 466l-3 -40l-17 -4q-28 -8 -49.5 -31.5t-60.5 -105.5l-138 -285h-101
l-46 282h-12l-132 -282h-102l-78 392q-4 21 -36 29l-22 5l-3 40h244l-3 -40l-25 -4q-24 -4 -28 -17.5t3 -54.5l44 -251h12l116 254l-7 39q-2 21 -37 29l-21 5l-3 40h245l-3 -40l-24 -4q-22 -4 -26.5 -18.5t1.5 -53.5l39 -251h12l93 208q30 68 30.5 89t-24.5 26l-19 4l-3 40
h184z" />
    <glyph glyph-name="yacute.smallcap" horiz-adv-x="489" 
d="M527 466l-3 -40l-14 -4q-24 -7 -47.5 -27.5t-61.5 -71.5l-100 -133l-16 -125q-2 -14 15 -17l42 -9l3 -39h-244l3 39l44 9q17 3 19 17l15 116l-114 219q-7 15 -31 22l-16 4l-3 40h233l-3 -40l-22 -3q-15 -3 -20.5 -11.5t-2.5 -25t15 -44.5l50 -119h12l81 111q57 77 11 87
l-22 5l-3 40h180zM474 697l-201 -182h-45l119 182h127z" />
    <glyph glyph-name="ycircumflex.smallcap" horiz-adv-x="489" 
d="M527 466l-3 -40l-14 -4q-24 -7 -47.5 -27.5t-61.5 -71.5l-100 -133l-16 -125q-2 -14 15 -17l42 -9l3 -39h-244l3 39l44 9q17 3 19 17l15 116l-114 219q-7 15 -31 22l-16 4l-3 40h233l-3 -40l-22 -3q-15 -3 -20.5 -11.5t-2.5 -25t15 -44.5l50 -119h12l81 111q57 77 11 87
l-22 5l-3 40h180zM435 515h-46l-86 120h-2l-118 -120h-46l114 182h118z" />
    <glyph glyph-name="ydieresis.smallcap" horiz-adv-x="489" 
d="M527 466l-3 -40l-14 -4q-24 -7 -47.5 -27.5t-61.5 -71.5l-100 -133l-16 -125q-2 -14 15 -17l42 -9l3 -39h-244l3 39l44 9q17 3 19 17l15 116l-114 219q-7 15 -31 22l-16 4l-3 40h233l-3 -40l-22 -3q-15 -3 -20.5 -11.5t-2.5 -25t15 -44.5l50 -119h12l81 111q57 77 11 87
l-22 5l-3 40h180zM469 606q0 -29 -17.5 -49t-47.5 -20t-47.5 20t-17.5 49t17.5 49.5t47.5 20.5t47.5 -20.5t17.5 -49.5zM255 606q0 -29 -17.5 -49t-47.5 -20t-48 20t-18 49t18 49.5t48 20.5t47.5 -20.5t17.5 -49.5z" />
    <glyph glyph-name="zacute.smallcap" horiz-adv-x="509" 
d="M484 697l-201 -182h-45l119 182h127zM455 160l-37 -160h-409l5 39l336 381l1 5h-92q-52 0 -74.5 -13t-40.5 -55l-22 -56h-57l16 165h415l-5 -42l-342 -378v-5h70q72 1 102 14t46 51l23 54h65z" />
    <glyph glyph-name="zdotaccent.smallcap" horiz-adv-x="509" 
d="M455 160l-37 -160h-409l5 39l336 381l1 5h-92q-52 0 -74.5 -13t-40.5 -55l-22 -56h-57l16 165h415l-5 -42l-342 -378v-5h70q72 1 102 14t46 51l23 54h65zM364 611q0 -30 -18.5 -50.5t-49.5 -20.5q-30 0 -48 20.5t-18 50.5t18 51t48 21q31 0 49.5 -21t18.5 -51z" />
    <glyph glyph-name="zcaron.smallcap" horiz-adv-x="509" 
d="M455 160l-37 -160h-409l5 39l336 381l1 5h-92q-52 0 -74.5 -13t-40.5 -55l-22 -56h-57l16 165h415l-5 -42l-342 -378v-5h70q72 1 102 14t46 51l23 54h65zM453 697l-113 -182h-119l-64 182h44l86 -120h2l119 120h45z" />
    <glyph glyph-name="solidus" horiz-adv-x="230" 
d="M-231 -116l632 741h60l-632 -741h-60z" />
    <glyph glyph-name="plusinferior" horiz-adv-x="330" 
d="M293 28h-108v-108h-33v108h-109l2 33h107v109h33v-109h106z" />
    <glyph glyph-name="minusinferior" horiz-adv-x="330" 
d="M300 29h-250l1 33h247z" />
    </font>
</defs>
</svg>
